<svg width="60" height="60" viewBox="0 0 60 60" fill="none" xmlns="http://www.w3.org/2000/svg">
<g id="Group 239">
<path id="Vector" d="M55.2486 0H4.75143C2.12729 0 0 2.12729 0 4.75143V55.2486C0 57.8727 2.12729 60 4.75143 60H55.2486C57.8727 60 60 57.8727 60 55.2486V4.75143C60 2.12729 57.8727 0 55.2486 0Z" fill="#B72333"/>
<g id="Group">
<g id="SDG4">
<path id="Vector_2" d="M9.02846 14.3061H5.59082V12.5871L8.56415 5.59912H10.9976V12.6543H12.1361V14.3061H10.9976V17.0133H9.06762L9.02846 14.3061ZM9.02846 12.6543V7.82205L7.29147 12.6543H9.02846Z" fill="white"/>
<path id="Vector_3" d="M27.517 31.0958L16.751 24.861V45.0129L27.517 48.2577V31.0958Z" fill="white"/>
<path id="Vector_4" d="M28.7061 31.135V48.2689L39.5476 45.0017V24.861L28.7061 31.135Z" fill="white"/>
<path id="Vector_5" d="M45.7769 44.6544H45.458L46.7335 49.1086L48.0062 44.6544H47.6873H48.0062V26.7281H47.6873H47.3712H47.0328H46.4034H46.0846H45.7769H45.458V44.6544H45.7769Z" fill="white"/>
<path id="Vector_6" d="M41.8662 25.7315L40.7082 24.8132V45.5531L28.7338 49.4278H28.1828H28.0765H27.517L15.6041 46.0934V24.8132L14.4434 25.7315V46.9053L27.4695 50.5113H28.0765H28.1828H28.7925L40.8033 46.6926L41.8662 46.3846V25.7315Z" fill="white"/>
<path id="Vector_7" d="M48.007 24.3597C48.007 23.6541 47.4364 23.083 46.7315 23.083C46.0266 23.083 45.4561 23.6541 45.4561 24.3597V25.7315H48.0042V24.3597H48.007Z" fill="white"/>
</g>
<g id="Group_2">
<path id="Vector_8" d="M17.2426 8.73767C17.1363 9.06803 17.0076 9.40119 16.8705 9.72595V13.4691H16.3978V10.6498C16.2636 10.8682 16.1377 11.0586 16.0006 11.2294C15.9587 11.1118 15.8244 10.8346 15.7461 10.7086C16.1713 10.1935 16.5545 9.40119 16.781 8.60889L17.2426 8.73767ZM20.2438 12.2008C20.062 12.478 19.7823 12.7048 19.4159 12.898C19.7991 12.9987 20.2187 13.0631 20.669 13.0995C20.5851 13.1891 20.4788 13.3599 20.4257 13.4775C19.8578 13.4131 19.332 13.3011 18.8733 13.1331C18.4257 13.2927 17.8999 13.4103 17.2957 13.4887C17.2537 13.3767 17.1474 13.2283 17.0579 13.1275C17.5418 13.0743 17.9782 12.9987 18.3502 12.898C18.1964 12.814 18.0481 12.7272 17.9139 12.6208C17.7656 12.716 17.595 12.8028 17.4132 12.8868C17.3488 12.7916 17.2258 12.6628 17.1307 12.5984C17.3069 12.5228 17.4747 12.45 17.6258 12.366C17.5502 12.2904 17.4943 12.212 17.43 12.1365L17.7964 11.9993C17.8439 12.0581 17.8915 12.1113 17.9446 12.1645C18.1041 12.0469 18.2411 11.9349 18.3474 11.8145C18.2103 11.7613 18.1656 11.6605 18.1656 11.4589V11.3833C18.0369 11.5709 17.8691 11.7809 17.6621 11.9153L17.3796 11.6913C17.5866 11.5681 17.7824 11.3498 17.9055 11.165L18.1656 11.3022V11.1734H18.5628V11.4561C18.5628 11.5569 18.5935 11.5737 18.753 11.5737H19.3208C19.4383 11.5737 19.4635 11.5429 19.4802 11.3665C19.5502 11.4085 19.6872 11.4477 19.7879 11.4673C19.7292 11.4141 19.6704 11.3553 19.6229 11.3078L19.8886 11.1482C20.0956 11.3246 20.3501 11.5793 20.4676 11.7501L20.1963 11.9377C20.1124 11.8089 19.9585 11.6409 19.8019 11.4813C19.7711 11.7697 19.6593 11.8593 19.3712 11.8593H18.8033C18.7558 11.9293 18.6914 11.9909 18.6271 12.0553H19.8494L19.9278 12.0329L20.2354 12.2036L20.2438 12.2008ZM20.6858 10.7366V11.4589H20.2438V11.0278H18.9795C19.1222 11.1286 19.2816 11.2462 19.3684 11.3358L19.0858 11.5121C18.9907 11.4057 18.7893 11.2406 18.6243 11.1342L18.8005 11.0278H17.595V11.4645H17.1698V10.7366H17.6733V9.41239H18.5712C18.5936 9.3312 18.6075 9.25841 18.6243 9.17722H17.3125V8.81046H20.5963V9.17722H19.1446L19.0495 9.41239H20.2131V10.7366H20.6858ZM18.1125 9.67836V9.87433H19.7488V9.67836H18.1125ZM19.7488 10.0983H18.1125V10.3055H19.7488V10.0983ZM18.1125 10.7366H19.7488V10.5351H18.1125V10.7366ZM18.2355 12.4024C18.4173 12.5256 18.6327 12.6376 18.8733 12.7328C19.1502 12.6208 19.3739 12.492 19.5418 12.3604H18.2831L18.2355 12.4024Z" fill="white"/>
<path id="Vector_9" d="M22.4744 9.75393C22.4101 10.0311 22.2618 10.3083 21.9905 10.5238C21.9318 10.4342 21.7527 10.2635 21.666 10.2047C22.0492 9.91351 22.108 9.53836 22.108 9.24159V8.83844C22.6618 8.80205 23.3023 8.72086 23.6548 8.60327L23.9457 8.90004C23.5737 9.02322 23.0366 9.10161 22.5387 9.13801V9.24439C22.5387 9.28079 22.5387 9.32558 22.5331 9.37318H24.0324V9.75113H23.4758V10.3419H23.0394V9.75113H22.4772L22.4744 9.75393ZM24.8491 12.6208C25.4169 12.7748 26.0183 12.9819 26.4015 13.1359L26.1666 13.4915C25.789 13.3151 25.1736 13.0883 24.5778 12.9175L24.7652 12.6208H23.2995L23.6548 12.8224C23.2128 13.0715 22.5163 13.3431 21.9849 13.5027C21.9429 13.4075 21.8143 13.1779 21.7471 13.0827C22.2422 12.9763 22.8688 12.8 23.266 12.6208H22.4101V10.451H25.7638V12.6208H24.8491ZM22.8884 11.0782H25.2631V10.7646H22.8884V11.0782ZM22.8884 11.6829H25.2631V11.3749H22.8884V11.6829ZM22.8884 12.3072H25.2631V11.9881H22.8884V12.3072ZM26.4435 9.37598V9.75393H25.6519V10.3615H25.21V9.75393H24.6142C24.561 10.0031 24.4491 10.2495 24.2422 10.4454C24.1666 10.3699 23.982 10.2439 23.8813 10.2019C24.2058 9.89391 24.2589 9.51596 24.2589 9.222V8.82724C24.8379 8.79645 25.5288 8.72086 25.8952 8.60327L26.2141 8.88604C25.8113 9.01482 25.2155 9.09321 24.6729 9.12961V9.2304C24.6729 9.27239 24.6729 9.31998 24.6673 9.37318H26.4407L26.4435 9.37598Z" fill="white"/>
<path id="Vector_10" d="M32.0294 10.0253C31.9119 10.8456 31.7217 11.5147 31.4196 12.0663C31.6741 12.4862 31.9986 12.8278 32.407 13.0405C32.2895 13.1357 32.1357 13.3289 32.0574 13.4661C31.6741 13.2365 31.3665 12.9174 31.1175 12.5366C30.8154 12.9202 30.4322 13.2393 29.9371 13.4885C29.884 13.3709 29.7358 13.1469 29.6462 13.0405C30.1721 12.8026 30.5665 12.4722 30.8518 12.0467C30.6756 11.6575 30.5329 11.2292 30.4266 10.7532C30.3315 10.9408 30.2252 11.1032 30.1134 11.2572C30.049 11.1872 29.9176 11.0612 29.8057 10.9744C29.5875 11.218 29.305 11.4755 29.0309 11.6715V11.8479C29.3553 11.8171 29.691 11.7723 30.0183 11.7359L30.0238 12.1558L29.0309 12.279V12.9761C29.0309 13.2001 28.9889 13.3205 28.8295 13.3849C28.6701 13.4605 28.4323 13.4605 28.0967 13.4605C28.0743 13.3317 28.0127 13.1581 27.9484 13.0405C28.1862 13.0461 28.4155 13.0461 28.4799 13.0405C28.5554 13.0405 28.5694 13.0237 28.5694 12.965V12.3378L27.5372 12.461L27.4841 12.0187C27.7806 11.9879 28.1582 11.9487 28.5694 11.9011V11.5595C28.7456 11.4531 28.9302 11.2936 29.1008 11.1396H28.3931C28.1973 11.288 27.9904 11.4279 27.7778 11.5483C27.7079 11.4531 27.54 11.26 27.4365 11.1704C27.8337 10.9744 28.2057 10.714 28.5246 10.4089H27.4841V9.97772H28.3512V9.52977H27.6967V9.10982H28.3512V8.58909H28.8071V9.10982H29.3218V9.42898C29.4532 9.20501 29.5819 8.96704 29.6826 8.71507L30.1385 8.84666C29.9679 9.25541 29.7553 9.63336 29.5064 9.97492H30.0378V10.3893C30.2924 9.87973 30.4742 9.24141 30.5749 8.58069L31.0756 8.66188C31.0224 8.96424 30.9581 9.2694 30.8742 9.55497H32.3622V10.0169H32.0322L32.0294 10.0253ZM28.8043 9.98332H28.9274C29.0505 9.84613 29.1567 9.69215 29.2574 9.53537H28.8071V9.98332H28.8043ZM29.7497 10.8652C29.8504 10.7308 29.9455 10.5768 30.0266 10.4117H29.1651C29.0644 10.5292 28.9581 10.6412 28.8519 10.7476H29.4728L29.5623 10.7224L29.7497 10.8652ZM30.7399 10.0253C30.8294 10.5628 30.9637 11.064 31.1427 11.5091C31.3245 11.0836 31.4448 10.5936 31.5203 10.0253H30.7399Z" fill="white"/>
<path id="Vector_11" d="M38.0777 9.51318H36.8134C37.2077 9.79595 37.6469 10.1683 37.8818 10.4343L37.4623 10.7058H37.5854V12.9232C37.5854 13.2059 37.5042 13.3207 37.2972 13.3851C37.0847 13.4439 36.7434 13.4439 36.2623 13.4439C36.2455 13.3151 36.1868 13.1415 36.1337 13.0184C36.4413 13.0351 36.8357 13.0351 36.9196 13.0296C37.0147 13.0296 37.0483 12.9988 37.0483 12.9176V12.3688C36.2399 12.5452 35.412 12.7104 34.7743 12.8308L34.626 12.3828C35.205 12.3072 36.1448 12.1533 37.0483 12.0049V11.1118H34.5393V11.6017C34.5393 12.1925 34.4498 12.9904 33.9435 13.5223C33.868 13.4271 33.661 13.2731 33.5463 13.2199C34.0079 12.7524 34.0554 12.0917 34.0554 11.5933V10.7058H37.4399C37.3616 10.5994 37.2441 10.4819 37.1154 10.3559C34.4694 10.4791 34.1757 10.4847 33.9743 10.5519C33.9463 10.4567 33.8848 10.2159 33.826 10.0899C33.9603 10.0675 34.0974 9.96673 34.282 9.82394C34.3575 9.77075 34.489 9.65876 34.6484 9.51598H33.4316V9.07923H35.1015C35.261 8.90846 35.4316 8.71248 35.5798 8.5249L36.0805 8.72088C35.9742 8.84406 35.8679 8.96165 35.7505 9.07643H38.0777V9.51318ZM36.6959 9.98352C36.5476 9.86594 36.405 9.74835 36.2595 9.64196L36.4721 9.51318H35.3029C35.0903 9.70916 34.8778 9.89113 34.6652 10.0507L36.6959 9.98072V9.98352ZM34.8414 11.2686C35.4624 11.3498 36.2819 11.5457 36.7127 11.7305L36.5588 12.0749C36.1392 11.8873 35.3253 11.6717 34.6876 11.5737L34.8414 11.2658V11.2686Z" fill="white"/>
</g>
</g>
</g>
</svg>
