<svg width="60" height="60" viewBox="0 0 60 60" fill="none" xmlns="http://www.w3.org/2000/svg">
<path d="M55.2486 0H4.75144C2.1273 0 0 2.12729 0 4.75143V55.2486C0 57.8727 2.1273 60 4.75144 60H55.2486C57.8727 60 60 57.8727 60 55.2486V4.75143C60 2.12729 57.8727 0 55.2486 0Z" fill="#C7882D"/>
<path d="M7.23233 8.84675C7.12604 8.90554 6.82675 9.02033 6.32607 9.20511C5.82539 9.38988 5.67993 9.42628 5.58203 9.47667V7.85288C5.97922 7.6877 6.36802 7.49732 6.74004 7.28174C7.09527 7.10257 7.41976 6.87299 7.70506 6.59583H9.41409V18.0296H7.23233V8.84955V8.84675Z" fill="white"/>
<path d="M10.6289 16.4898L13.3897 12.2091L13.5631 11.9572C13.8568 11.526 14.1225 11.0725 14.3546 10.6049C14.5225 10.2326 14.6092 9.82662 14.6064 9.41507C14.6288 9.11831 14.5532 8.82435 14.3938 8.57518C14.2512 8.382 14.0246 8.27281 13.7869 8.28401C13.4456 8.25321 13.1211 8.43519 12.9673 8.73755C12.8106 9.1435 12.7491 9.58026 12.7827 10.0142V10.5349H10.6681V9.97501C10.6177 9.06232 10.8834 8.16083 11.4205 7.42452C12.0163 6.7526 12.8918 6.39704 13.7869 6.45864C15.2693 6.27666 16.6175 7.33213 16.7993 8.81594C16.8245 9.03152 16.8273 9.2499 16.7993 9.46267C16.8049 9.87982 16.7406 10.2942 16.6063 10.6889C16.4833 11.0473 16.3294 11.3944 16.142 11.722C15.9574 12.0216 15.6777 12.4555 15.3113 13.007L13.1099 16.3134H16.5084V18.0324H10.6681L10.6289 16.487V16.4898Z" fill="white"/>
<path d="M45.3802 31.664C43.2404 30.0626 40.544 29.4019 37.9063 29.8274H37.7525C36.2644 30.1858 33.8897 30.7933 31.1289 34.2061V34.2649C31.1177 34.3069 31.1177 34.3489 31.1289 34.3909C31.1177 34.4301 31.1177 34.4693 31.1289 34.5057L31.1877 34.6121C31.5345 35.2028 31.9792 35.9447 32.3457 36.6418C32.3876 36.7202 32.4687 36.7706 32.5582 36.7678C32.6198 36.7706 32.6813 36.7454 32.7233 36.7006C32.7456 36.681 32.7624 36.6586 32.7708 36.6334C35.2323 33.2318 37.1651 32.7671 38.4769 32.4479H38.6308C40.4433 32.2155 42.2782 32.6859 43.7578 33.761C45.2067 34.9116 45.9508 36.737 45.9508 39.1923C45.9508 43.319 43.9425 44.9316 42.2614 45.5503C40.5747 46.1046 38.7427 45.9815 37.1427 45.2115L37.0364 45.164C35.5987 44.5452 33.4645 43.2322 31.4562 39.2007C27.4004 31.0537 24.0131 30.2894 21.8005 29.777H21.6747C19.0734 29.3599 16.4161 30.0234 14.3183 31.6136C12.861 32.7727 11.1324 35.0348 11.1324 39.2091C11.0065 41.3592 11.6666 43.4814 12.9869 45.1808C15.1686 47.8908 18.7042 49.1143 22.0915 48.3304C23.3949 48.056 24.6172 47.4877 25.6634 46.6674L26.9388 47.8264C27.0172 47.9076 27.1458 47.9076 27.2269 47.8292C27.2269 47.8292 27.2269 47.8292 27.2297 47.8264C27.2661 47.79 27.2857 47.7424 27.2885 47.692L28.2059 42.0199V41.9612C28.2059 41.9024 28.1836 41.8464 28.1388 41.8072C28.1024 41.7736 28.0521 41.7568 28.0045 41.7596H27.9067L22.4719 43.277H22.374C22.3348 43.2854 22.2984 43.3078 22.2677 43.3358C22.1866 43.4142 22.1866 43.543 22.2649 43.6241C22.2649 43.6241 22.2649 43.6242 22.2677 43.627L22.3264 43.6941L23.5431 44.786C22.939 45.1948 22.2649 45.4831 21.5544 45.6371C19.2188 46.211 16.7602 45.4131 15.2022 43.5794C14.2428 42.3531 13.7784 40.8105 13.8987 39.2595C13.8987 36.7958 14.6232 34.9592 16.0525 33.8198C17.4986 32.7531 19.3027 32.2883 21.0817 32.5235H21.2076C23.0425 32.9379 25.5627 33.4894 29.0283 40.4857C30.8352 44.1001 33.0925 46.4686 35.9315 47.7256C37.2825 48.3668 38.7622 48.6971 40.2559 48.6915C41.2852 48.6971 42.3034 48.518 43.2684 48.1596C44.9103 47.5521 48.7423 45.4439 48.7423 39.2091C48.7423 35.0432 46.9857 32.7811 45.5088 31.6136" fill="white"/>
<path d="M23.7517 10.3448C24.3084 10.5156 24.9433 10.7283 25.3125 10.8823L24.7279 11.1231C24.4202 10.9691 23.8664 10.7563 23.3154 10.5855L23.7238 10.3448H22.163L22.5658 10.5323C22.135 10.7759 21.4665 11.0055 20.935 11.1399C20.8539 11.0447 20.6861 10.8571 20.5742 10.7787C21.1057 10.6891 21.721 10.5295 22.093 10.3476H21.2427V8.30663H24.7167V10.3476H23.7489L23.7517 10.3448ZM25.2985 8.06865H20.6022V7.7131H22.6972V7.44713H21.1448V7.13917H22.6972V6.89H20.9015V6.54844H22.6972V6.24048H23.2007V6.54844H25.0552V6.89H23.2007V7.13917H24.8258V7.44713H23.2007V7.7131H25.2985V8.06865ZM21.721 8.88895H24.2189V8.60618H21.721V8.88895ZM21.721 9.46848H24.2189V9.18012H21.721V9.46848ZM21.721 10.0424H24.2189V9.75125H21.721V10.0424Z" fill="white"/>
<path d="M28.1263 6.4306C27.9725 6.80296 27.7851 7.17531 27.5781 7.52527V11.106H27.0886V8.25598C26.9124 8.49115 26.7222 8.70393 26.5348 8.8831C26.4816 8.76552 26.3334 8.49395 26.2383 8.37357C26.7921 7.87243 27.3236 7.08572 27.6368 6.27942L28.1263 6.43341V6.4306ZM29.8102 8.9727V10.4509H31.122V10.9241H28.02V10.4509H29.3123V8.9727H27.8606V8.49395H29.3123V7.20051H28.1907V6.73297H31.0269V7.20051H29.8102V8.49395H31.2395V8.9727H29.8102Z" fill="white"/>
<path d="M33.1313 8.68726C32.9132 8.53888 32.4712 8.28411 32.1523 8.11333L32.4237 7.75217C32.7257 7.89496 33.1789 8.13013 33.4054 8.27851L33.1285 8.68726H33.1313ZM33.6935 9.37318C33.4166 9.92751 33.0614 10.5602 32.7537 11.0586L32.3286 10.7282C32.6167 10.3251 33.025 9.64755 33.3327 9.04282L33.6935 9.37318ZM33.4026 7.28183C33.1901 7.11665 32.7593 6.85068 32.4516 6.66591L32.7397 6.31595C33.0418 6.48673 33.4781 6.7359 33.7019 6.88988L33.4054 7.28464L33.4026 7.28183ZM36.7592 10.5546C36.7592 10.8038 36.706 10.9494 36.5298 11.0222C36.3592 11.1034 36.0879 11.1034 35.6851 11.1034C35.6627 10.9746 35.5956 10.7674 35.5312 10.6414C35.8026 10.6526 36.0879 10.6526 36.169 10.6526C36.2473 10.647 36.2753 10.6218 36.2753 10.5462V9.66994C35.6851 9.82392 35.0753 9.9779 34.6054 10.0899L34.4516 9.67554C34.9131 9.58595 35.5984 9.42637 36.2753 9.26679V8.18612H34.4096V9.27239C34.4096 9.86311 34.362 10.6498 34.0656 11.1594C33.9844 11.0754 33.783 10.9298 33.6768 10.8766C33.9313 10.4202 33.9537 9.78192 33.9537 9.26399V7.73818H35.1173V6.24316H35.6179V7.73818H36.7592V10.5574V10.5546ZM34.3201 7.587C34.2446 7.32103 34.032 6.90108 33.8166 6.59872L34.2362 6.41114C34.4543 6.7023 34.6837 7.10266 34.7676 7.36862L34.3201 7.587ZM34.7341 8.46329C35.1704 8.55288 35.727 8.74046 36.0263 8.89444L35.8137 9.23879C35.5256 9.07921 34.9746 8.87204 34.5327 8.77125L34.7341 8.46329ZM36.9466 6.55952C36.7703 6.91507 36.5578 7.29863 36.3844 7.5534L35.9536 7.38262C36.1298 7.11105 36.3564 6.6911 36.4739 6.37754L36.9466 6.55952Z" fill="white"/>
<path d="M41.4509 10.3308C41.9515 10.4848 42.4606 10.6723 42.7907 10.8095L42.4243 11.1119C42.0802 10.9467 41.4788 10.7143 40.8942 10.5268L41.0956 10.3308H39.6887L40.0719 10.5016C39.6411 10.7507 38.9726 10.9915 38.4412 11.1287C38.3657 11.0279 38.1866 10.8515 38.0859 10.7675C38.6062 10.6779 39.2076 10.5128 39.5796 10.3308H38.7601V8.70417C38.6258 8.74057 38.4831 8.77416 38.3237 8.79936C38.2817 8.68737 38.1643 8.5026 38.0887 8.41021C38.7321 8.30942 39.1153 8.15544 39.3362 7.97347H38.4607C38.5195 7.7243 38.5726 7.36594 38.6034 7.07478H39.6355V6.8144H38.3824V6.50644H39.6355V6.24048H40.0831V6.50644H40.8047V6.24048H41.2718V6.50644H42.4243V7.38273H41.2718V7.6655H42.7599C42.7599 7.6655 42.7543 7.75509 42.7487 7.80829C42.7179 8.11065 42.6844 8.27583 42.6116 8.36261C42.5361 8.43261 42.441 8.4634 42.3347 8.469C42.304 8.4746 42.2648 8.47461 42.2173 8.47461V10.3308H41.4509ZM38.995 7.38273C38.9782 7.47792 38.9642 7.57311 38.9474 7.6655H39.5628C39.5992 7.57591 39.616 7.48352 39.6271 7.38273H38.995ZM41.7166 8.62859H39.2355V8.90015H41.7166V8.62859ZM41.7166 9.18571H39.2355V9.46289H41.7166V9.18571ZM39.2355 10.0312H41.7166V9.74845H39.2355V10.0312ZM39.9348 7.97347C39.8593 8.10225 39.7586 8.21704 39.6159 8.32342H40.8019V7.97347H39.9348ZM40.8019 7.38273H40.0803C40.0803 7.48352 40.0691 7.57311 40.0495 7.6655H40.8047V7.38273H40.8019ZM40.0803 7.07478H40.8019V6.8144H40.0803V7.07478ZM41.269 6.8144V7.07478H41.9711V6.8144H41.269ZM41.269 7.97347V8.32342H41.8313C41.8145 8.25903 41.7893 8.20023 41.7669 8.15264C41.9096 8.16944 42.0382 8.17504 42.0914 8.17504C42.1501 8.17504 42.1809 8.16944 42.2145 8.13865C42.2368 8.11345 42.2508 8.06865 42.2676 7.97347H41.269Z" fill="white"/>
<path d="M25.1433 16.2602C24.9251 17.1057 24.5419 17.7496 24.0328 18.2395C24.4216 18.4999 24.8775 18.7015 25.4034 18.8191C25.2859 18.931 25.1377 19.1494 25.0621 19.2922C24.4999 19.1326 24.0216 18.8946 23.6161 18.5811C23.1433 18.9254 22.5895 19.1662 21.9909 19.3426C21.9322 19.1998 21.8007 18.987 21.7028 18.8806C22.2594 18.7519 22.7825 18.5363 23.2272 18.2255C22.8133 17.7832 22.4944 17.2456 22.265 16.6101H22.1168C22.0049 17.4724 21.686 18.4243 20.8357 19.1998C20.7602 19.071 20.5868 18.8694 20.4805 18.7799C21.5685 17.7916 21.6664 16.4701 21.6664 15.5687V15.1207H20.7742V14.642H24.0692C23.9685 15.1263 23.8454 15.7058 23.7335 16.1426H24.6901L24.7852 16.1146L25.1405 16.263L25.1433 16.2602ZM22.1783 15.5687C22.1783 15.7506 22.1727 15.941 22.1615 16.137H23.1881C23.2776 15.8346 23.3643 15.4679 23.4426 15.1151H22.1783V15.5659V15.5687ZM22.7462 16.6045C22.9475 17.1057 23.2412 17.5396 23.6188 17.9008C23.9909 17.5508 24.2873 17.1253 24.4803 16.6045H22.749H22.7462Z" fill="white"/>
<path d="M31.1457 18.6374V19.1161H26.427V18.6374H28.5305V17.4139H27.0172V16.9408H28.5305V15.8769H27.3501C27.1851 16.1961 27.0088 16.4788 26.8242 16.7C26.7235 16.616 26.5054 16.4704 26.3711 16.4032C26.8018 15.9525 27.1375 15.2218 27.3333 14.4771L27.8424 14.5947C27.7613 14.8662 27.6662 15.1378 27.5655 15.3926H28.5277V14.4043H29.0367V15.3926H30.8856V15.8769H29.0367V16.9408H30.6898V17.4139H29.0367V18.6374H31.1401H31.1457Z" fill="white"/>
<path d="M37.049 18.7214V19.1246H33.1555V18.7214H34.8225V18.2847H33.6422V17.8955H34.8225V17.5064H33.824C33.6701 17.7667 33.4883 18.0075 33.2981 18.1811C33.2618 18.0915 33.1387 17.8451 33.0604 17.7444C33.0128 18.2931 32.8729 18.8978 32.5065 19.329C32.431 19.2394 32.224 19.063 32.1289 19.0154C32.5541 18.5059 32.6016 17.7864 32.6016 17.2488V16.2157H33.2813C33.2114 16.1402 33.1275 16.0506 33.0632 16.003C33.4659 15.933 33.9302 15.8322 34.3638 15.7258C33.9806 15.6194 33.5974 15.5242 33.2477 15.4486L33.5191 15.2415H32.6436V14.8523H34.5344C34.4589 14.7291 34.375 14.6087 34.2911 14.508L34.6351 14.3428C34.7666 14.4912 34.9232 14.6927 35.0071 14.8523H36.8085V15.2415H36.0169L36.2518 15.3898C36.0337 15.4962 35.7791 15.6026 35.5022 15.7034C35.8575 15.8042 36.1875 15.9106 36.4477 16.0002L36.2043 16.2129H36.9735V16.6161H33.0799V17.2488C33.0799 17.4028 33.0743 17.568 33.0576 17.7388C33.3401 17.4728 33.589 17.0892 33.7316 16.6861L34.1568 16.8093C34.1204 16.9101 34.0785 17.0052 34.0282 17.106H34.8197V16.7113H35.3092V17.106H36.6854V17.5008H35.3092V17.8899H36.5484V18.2791H35.3092V18.7158H37.0462L37.049 18.7214ZM35.9693 16.2213C35.6868 16.1206 35.326 16.0086 34.9428 15.891C34.5065 16.0226 34.0617 16.129 33.645 16.2213H35.9666H35.9693ZM33.7596 15.2499C34.1484 15.3394 34.568 15.4458 34.9708 15.5578C35.2841 15.4626 35.5666 15.3618 35.7903 15.2499H33.7596Z" fill="white"/>
</svg>
