<svg width="60" height="60" viewBox="0 0 60 60" fill="none" xmlns="http://www.w3.org/2000/svg">
<path d="M55.2486 0H4.75141C2.12727 0 0 2.12729 0 4.75143V55.2486C0 57.8727 2.12727 60 4.75141 60H55.2486C57.8727 60 60 57.8727 60 55.2486V4.75143C60 2.12729 57.8727 0 55.2486 0Z" fill="#EF992C"/>
<path d="M7.24402 7.85862C7.13773 7.91742 6.83844 8.0322 6.33776 8.21698C5.83707 8.40176 5.70004 8.43815 5.59375 8.47735V6.86475C5.99094 6.69957 6.37974 6.50919 6.75176 6.29362C7.10979 6.11724 7.43703 5.88206 7.71675 5.5965H9.42577V17.0387H7.24402V7.85862Z" fill="white"/>
<path d="M12.0721 7.85862C11.9659 7.91742 11.6666 8.0322 11.1659 8.21698C10.6652 8.40176 10.5282 8.43815 10.4219 8.47735V6.86475C10.8219 6.69677 11.2106 6.50639 11.591 6.29362C11.9463 6.11164 12.2736 5.87926 12.5561 5.5965H14.2567V17.0387H12.0749V7.85862H12.0721Z" fill="white"/>
<path d="M9.99962 44.7105H19.0567C19.1797 44.7105 19.2776 44.6097 19.2776 44.4893C19.2776 44.4361 19.258 44.3829 19.2189 44.3437L14.6624 38.5456C14.6204 38.5008 14.5589 38.4757 14.4974 38.4785C14.447 38.4645 14.3938 38.4645 14.3435 38.4785V38.5261L9.94925 44.3241L9.83456 44.3437C9.82337 44.3857 9.82337 44.4277 9.83456 44.4697C9.82058 44.5789 9.89053 44.6825 9.99962 44.7105Z" fill="white"/>
<path d="M19.0286 45.5336H9.96317C9.8401 45.5336 9.74219 45.6344 9.74219 45.7547V52.8687C9.74219 52.9918 9.84289 53.0898 9.96317 53.0898H12.861V48.616C12.861 48.4928 12.9616 48.3948 13.0819 48.3948H15.7951C15.9182 48.3948 16.0161 48.4956 16.0161 48.616V53.0898H19.009C19.1321 53.0898 19.23 52.989 19.23 52.8687V45.7547C19.23 45.64 19.1433 45.542 19.0286 45.5336Z" fill="white"/>
<path d="M50.3905 43.6774H41.4118C41.2943 43.6774 41.1992 43.7726 41.1992 43.8902V52.9639C41.1992 53.0815 41.2943 53.1767 41.4118 53.1767H50.3905C50.508 53.1823 50.6059 53.0899 50.6115 52.9751C50.6115 52.9723 50.6115 52.9695 50.6115 52.9639V43.8902C50.6115 43.7726 50.5164 43.6774 50.3989 43.6774C50.3961 43.6774 50.3933 43.6774 50.3877 43.6774M45.476 49.6015C45.476 49.7191 45.3809 49.8143 45.2634 49.8143H42.5698C42.4523 49.8199 42.3544 49.7275 42.3488 49.6127C42.3488 49.6099 42.3488 49.6071 42.3488 49.6015V47.9693C42.3488 47.8517 42.4439 47.7565 42.5614 47.7565C42.5642 47.7565 42.567 47.7565 42.5726 47.7565H45.2578C45.3753 47.7565 45.4704 47.8517 45.4704 47.9693L45.4788 49.6015H45.476ZM45.476 46.5863C45.476 46.7039 45.3809 46.799 45.2634 46.799H42.5698C42.4523 46.8046 42.3544 46.7123 42.3488 46.5975C42.3488 46.5947 42.3488 46.5919 42.3488 46.5863V44.9541C42.3488 44.8365 42.4439 44.7413 42.5614 44.7413C42.5642 44.7413 42.567 44.7413 42.5726 44.7413H45.2578C45.3753 44.7413 45.4704 44.8365 45.4704 44.9541L45.4788 46.5863H45.476ZM49.5794 49.6015C49.5794 49.7191 49.4843 49.8143 49.3668 49.8143C49.364 49.8143 49.3612 49.8143 49.3556 49.8143H46.6816C46.5641 49.8199 46.4662 49.7275 46.4606 49.6127C46.4606 49.6099 46.4606 49.6071 46.4606 49.6015V47.9693C46.4606 47.8517 46.5557 47.7565 46.6732 47.7565C46.676 47.7565 46.6787 47.7565 46.6843 47.7565H49.3584C49.4759 47.7509 49.5738 47.8433 49.5794 47.9581C49.5794 47.9609 49.5794 47.9637 49.5794 47.9693V49.6015ZM49.5794 46.5863C49.5794 46.7039 49.4843 46.799 49.3668 46.799C49.364 46.799 49.3612 46.799 49.3556 46.799H46.6816C46.5641 46.8046 46.4662 46.7123 46.4606 46.5975C46.4606 46.5947 46.4606 46.5919 46.4606 46.5863V44.9541C46.4606 44.8365 46.5557 44.7413 46.6732 44.7413C46.676 44.7413 46.6787 44.7413 46.6843 44.7413H49.3584C49.4759 44.7357 49.5738 44.8281 49.5794 44.9429C49.5794 44.9457 49.5794 44.9485 49.5794 44.9541V46.5863Z" fill="white"/>
<path d="M29.5145 22.61H20.7288C20.6057 22.61 20.5078 22.7108 20.5078 22.8312V52.8883C20.5078 53.0059 20.6029 53.1011 20.7204 53.1011C20.7232 53.1011 20.726 53.1011 20.7316 53.1011H29.5173C29.6348 53.1011 29.7299 53.0059 29.7299 52.8883V22.8312C29.7355 22.7136 29.6432 22.6156 29.5285 22.61C29.5257 22.61 29.5229 22.61 29.5173 22.61M24.2811 49.6687C24.2811 49.7331 24.228 49.7835 24.1664 49.7835H22.1581C22.0938 49.7835 22.0434 49.7303 22.0434 49.6687V47.4178C22.0434 47.359 22.091 47.3114 22.1497 47.3114C22.1525 47.3114 22.1553 47.3114 22.1609 47.3114H24.1692C24.228 47.3058 24.2783 47.3478 24.2839 47.4066C24.2839 47.4094 24.2839 47.4122 24.2839 47.4178V49.6687H24.2811ZM24.2811 44.5089C24.2811 44.5733 24.228 44.6237 24.1664 44.6237H22.1581C22.0938 44.6237 22.0434 44.5705 22.0434 44.5089V42.2664C22.0434 42.202 22.0966 42.1516 22.1581 42.1516H24.1664C24.2308 42.1516 24.2811 42.2048 24.2811 42.2664V44.5089ZM24.2811 39.3576C24.2811 39.422 24.228 39.4723 24.1664 39.4723H22.1581C22.0938 39.4723 22.0434 39.4192 22.0434 39.3576V37.115C22.0434 37.0506 22.0966 37.0002 22.1581 37.0002H24.1664C24.2308 37.0002 24.2811 37.0534 24.2811 37.115V39.3576ZM24.2811 34.2062C24.2811 34.2706 24.228 34.321 24.1664 34.321H22.1581C22.0938 34.321 22.0434 34.2678 22.0434 34.2062V31.9749C22.0434 31.9105 22.0966 31.8601 22.1581 31.8601H24.1664C24.2308 31.8601 24.2811 31.9133 24.2811 31.9749V34.2062ZM24.2811 29.0548C24.2811 29.1192 24.228 29.1696 24.1664 29.1696H22.1581C22.0938 29.1696 22.0434 29.1164 22.0434 29.0548V26.8039C22.0434 26.7395 22.0966 26.6891 22.1581 26.6891H24.1664C24.2308 26.6891 24.2811 26.7423 24.2811 26.8039V29.0548ZM28.2278 49.6687C28.2278 49.7331 28.1747 49.7835 28.1132 49.7835H26.1048C26.0405 49.7835 25.9901 49.7303 25.9901 49.6687V47.4178C25.9901 47.359 26.0377 47.3114 26.0964 47.3114C26.0992 47.3114 26.102 47.3114 26.1076 47.3114H28.1159C28.1747 47.3058 28.225 47.3478 28.2306 47.4066C28.2306 47.4094 28.2306 47.4122 28.2306 47.4178V49.6687H28.2278ZM28.2278 44.5089C28.2278 44.5733 28.1747 44.6237 28.1132 44.6237H26.1048C26.0405 44.6237 25.9901 44.5705 25.9901 44.5089V42.2664C25.9901 42.202 26.0433 42.1516 26.1048 42.1516H28.1132C28.1775 42.1516 28.2278 42.2048 28.2278 42.2664V44.5089ZM28.2278 39.3576C28.2278 39.422 28.1747 39.4723 28.1132 39.4723H26.1048C26.0405 39.4723 25.9901 39.4192 25.9901 39.3576V37.115C25.9901 37.0506 26.0433 37.0002 26.1048 37.0002H28.1132C28.1775 37.0002 28.2278 37.0534 28.2278 37.115V39.3576ZM28.2278 34.2062C28.2278 34.2706 28.1747 34.321 28.1132 34.321H26.1048C26.0405 34.321 25.9901 34.2678 25.9901 34.2062V31.9749C25.9901 31.9105 26.0433 31.8601 26.1048 31.8601H28.1132C28.1775 31.8601 28.2278 31.9133 28.2278 31.9749V34.2062ZM28.2278 29.0548C28.2278 29.1192 28.1747 29.1696 28.1132 29.1696H26.1048C26.0405 29.1696 25.9901 29.1164 25.9901 29.0548V26.8039C25.9901 26.7395 26.0433 26.6891 26.1048 26.6891H28.1132C28.1775 26.6891 28.2278 26.7423 28.2278 26.8039V29.0548Z" fill="white"/>
<path d="M50.4062 40.777H41.3799C41.278 40.777 41.1953 40.8597 41.1953 40.9618V42.7675C41.1953 42.8696 41.278 42.9523 41.3799 42.9523H50.4062C50.5082 42.9523 50.5908 42.8696 50.5908 42.7675V40.9618C50.5908 40.8597 50.5082 40.777 50.4062 40.777Z" fill="white"/>
<path d="M40.1242 28.2905C40.0962 28.1897 40.0067 28.1197 39.9032 28.1169C39.8612 28.1029 39.8193 28.1029 39.7773 28.1169L39.7102 28.2037L31.0783 39.2316C31.0308 39.2764 31.0028 39.3408 31 39.4052V52.8771C31 53.0003 31.1007 53.0983 31.221 53.0983H39.9983C40.1158 53.0983 40.2109 53.0031 40.2109 52.8855C40.2109 52.8827 40.2109 52.8799 40.2109 52.8743V28.3269C40.1857 28.3073 40.1549 28.2961 40.1242 28.2877V28.2905ZM36.4851 34.2454L36.5523 34.167C37.1424 33.4027 38.1354 32.1764 38.6193 31.5857L38.6864 31.5073C38.734 31.4485 38.8039 31.4121 38.8795 31.4093C38.9969 31.4149 39.0948 31.4989 39.12 31.6109V34.3854C39.12 34.5198 39.0137 34.6317 38.8795 34.6373H36.6781C36.5439 34.6317 36.4376 34.5198 36.4376 34.3854C36.4376 34.3322 36.4544 34.2818 36.4851 34.2398V34.2454ZM35.1229 49.6015C35.1229 49.7191 35.0278 49.8143 34.9104 49.8143C34.9076 49.8143 34.9047 49.8143 34.8992 49.8143H32.2839C32.1664 49.8143 32.0713 49.7191 32.0713 49.6015V47.9581C32.0713 47.8405 32.1664 47.7453 32.2839 47.7453H34.9383C35.0558 47.7397 35.1537 47.8321 35.1593 47.9469C35.1593 47.9497 35.1593 47.9525 35.1593 47.9581L35.1201 49.6015H35.1229ZM35.1229 46.5667C35.1229 46.6843 35.0278 46.7795 34.9104 46.7795C34.9076 46.7795 34.9047 46.7795 34.8992 46.7795H32.2839C32.1664 46.7795 32.0713 46.6843 32.0713 46.5667V44.9233C32.0713 44.8057 32.1664 44.7105 32.2839 44.7105H34.9383C35.0558 44.7049 35.1537 44.7973 35.1593 44.9121C35.1593 44.9149 35.1593 44.9177 35.1593 44.9233L35.1201 46.5667H35.1229ZM35.1229 43.5319C35.1229 43.655 35.0222 43.753 34.902 43.753H32.2867C32.1692 43.753 32.0741 43.6578 32.0741 43.5403C32.0741 43.5375 32.0741 43.5347 32.0741 43.5291V41.8969C32.0685 41.7793 32.1608 41.6813 32.2755 41.6757C32.2783 41.6757 32.2811 41.6757 32.2867 41.6757H34.9411C35.0642 41.6757 35.1621 41.7765 35.1621 41.8969L35.1229 43.5291V43.5319ZM35.1229 36.8939V40.4802C35.1229 40.5978 35.0278 40.693 34.9104 40.693H32.2951C32.1804 40.7154 32.0685 40.637 32.0461 40.5222C32.0461 40.5082 32.0433 40.4942 32.0433 40.4802V40.0267C32.0377 40.0015 32.0377 39.9735 32.0433 39.9483C32.3818 39.4752 33.8866 37.6106 34.5243 36.8351L34.5915 36.7567C34.6754 36.6531 34.8265 36.6363 34.93 36.7203C34.9747 36.7567 35.0055 36.8071 35.0166 36.8631L35.1229 36.8911V36.8939ZM39.12 49.6015C39.12 49.7191 39.0249 49.8143 38.9074 49.8143H36.2921C36.1747 49.8143 36.0796 49.7191 36.0796 49.6015V47.9581C36.0796 47.8405 36.1747 47.7453 36.2921 47.7453H38.9074C39.0249 47.7453 39.12 47.8405 39.12 47.9581V49.6015ZM39.12 46.5667C39.12 46.6843 39.0249 46.7795 38.9074 46.7795H36.2921C36.1747 46.7795 36.0796 46.6843 36.0796 46.5667V44.9233C36.0796 44.8057 36.1747 44.7105 36.2921 44.7105H38.9074C39.0249 44.7105 39.12 44.8057 39.12 44.9233V46.5667ZM39.12 43.5319C39.1256 43.6494 39.0333 43.7474 38.9186 43.753C38.9158 43.753 38.913 43.753 38.9074 43.753H36.2921C36.1747 43.753 36.0796 43.6578 36.0796 43.5403C36.0796 43.5375 36.0796 43.5347 36.0796 43.5291V41.8969C36.074 41.7793 36.1663 41.6813 36.2809 41.6757C36.2837 41.6757 36.2865 41.6757 36.2921 41.6757H38.9074C39.0249 41.6757 39.12 41.7709 39.12 41.8885C39.12 41.8913 39.12 41.8941 39.12 41.8997V43.5319ZM39.12 40.5082C39.12 40.6258 39.0249 40.721 38.9074 40.721H36.2921C36.1747 40.721 36.0796 40.6258 36.0796 40.5082V38.8648C36.0796 38.7472 36.1747 38.6521 36.2921 38.6521H38.9074C39.0249 38.6521 39.12 38.7472 39.12 38.8648V40.5082ZM39.12 37.4734C39.12 37.591 39.0249 37.6862 38.9074 37.6862H36.2921C36.1747 37.6862 36.0796 37.591 36.0796 37.4734V35.83C36.0796 35.7124 36.1747 35.6172 36.2921 35.6172H38.9074C39.0249 35.6172 39.12 35.7124 39.12 35.83V37.4734Z" fill="white"/>
<path d="M19.8131 11.3414C19.5473 12.436 18.9627 13.2395 18.3026 13.6707C18.2187 13.5643 18.0257 13.3739 17.9082 13.2983C18.4508 12.9736 18.9292 12.4052 19.1837 11.6857H18.0257V11.2182H19.3963L19.4802 11.2014L19.8103 11.3386L19.8131 11.3414ZM22.6549 10.9102C22.2465 11.2938 21.7291 11.7193 21.3039 12.0105C21.6871 12.5592 22.1906 12.9904 22.8395 13.2339C22.7276 13.3347 22.5738 13.5363 22.4955 13.6707C21.6619 13.3039 21.0662 12.6544 20.6578 11.8145V13.3935C20.6578 13.6763 20.5934 13.8191 20.4032 13.8974C20.2074 13.9814 19.9082 13.987 19.4746 13.987C19.4522 13.8498 19.3739 13.6259 19.2984 13.4915C19.5893 13.5027 19.9137 13.5027 20.006 13.5027C20.1011 13.4971 20.1291 13.4719 20.1291 13.3795V10.6554H18.725V10.1823H20.6606V10.6078C20.7725 10.9746 20.9039 11.3218 21.0745 11.6297C21.4717 11.3274 21.9193 10.913 22.2074 10.577L22.6577 10.9074L22.6549 10.9102ZM21.1137 10.2551C20.6886 10.0115 19.827 9.69796 19.1781 9.53278L19.4214 9.12402C20.0536 9.26681 20.9263 9.54958 21.371 9.79315L21.1109 10.2551H21.1137Z" fill="white"/>
<path d="M24.3724 12.6012C24.3192 13.0968 24.2241 13.6231 24.1122 13.9619C24.0283 13.9143 23.8409 13.8611 23.7402 13.8331C23.8633 13.4943 23.936 12.9932 23.9836 12.5312L24.3724 12.6012ZM25.2339 12.3829C25.2227 12.2989 25.2031 12.2009 25.1807 12.0917C24.1877 12.2401 24.0283 12.2793 23.922 12.3353C23.8996 12.2457 23.8381 12.0385 23.785 11.9265C23.8968 11.8957 24.0088 11.7669 24.1626 11.5654C24.2325 11.4814 24.3752 11.277 24.5346 11.0166C24.0787 11.0698 23.9612 11.1006 23.8857 11.1342C23.8633 11.0446 23.7962 10.843 23.7486 10.7311C23.8437 10.7087 23.9248 10.6023 24.0255 10.4399C24.1318 10.2859 24.4563 9.67839 24.6353 9.10446L25.0493 9.27524C24.8591 9.75398 24.6017 10.2439 24.3416 10.6415L24.7891 10.6051C24.9122 10.3727 25.0381 10.1263 25.1444 9.88836L25.5276 10.1123C25.2311 10.7087 24.8479 11.3078 24.4535 11.8033L25.1024 11.7193C25.0605 11.5598 25.0129 11.3946 24.9654 11.2518L25.3066 11.1622C25.4297 11.529 25.5556 11.9965 25.5975 12.2737L25.2367 12.3913L25.2339 12.3829ZM24.8451 12.52C24.915 12.9092 24.9681 13.4019 24.9821 13.7379L24.6157 13.8079C24.6101 13.4719 24.5626 12.968 24.5038 12.5788L24.8451 12.52ZM25.3094 12.3885C25.4101 12.6908 25.5388 13.0968 25.5863 13.3571L25.2506 13.4635C25.2031 13.2032 25.0968 12.7944 24.9905 12.4808L25.3094 12.3913V12.3885ZM27.5946 13.2284C27.9722 13.3627 28.3694 13.5195 28.6296 13.6371L28.4282 13.9871C28.1457 13.8527 27.7009 13.6511 27.3009 13.5027L27.4604 13.2255H26.5989L26.8898 13.4971C26.487 13.6847 25.9695 13.8807 25.5975 14.0179C25.5612 13.9227 25.48 13.7715 25.4101 13.6707C25.729 13.5643 26.1905 13.3739 26.4898 13.2228H25.715V11.6605H28.3499V13.2228H27.5891L27.5946 13.2284ZM26.8227 9.70639H25.5164V9.37042H26.8227V9.11006H27.3065V9.37042H28.5512V9.70639H27.3065V9.94156H28.3638V10.2607H25.7234V9.94156H26.8227V9.70639ZM25.5416 10.4427H28.5289V11.4646H25.5416V10.4427ZM25.9527 11.1426H26.4534V10.7591H25.9527V11.1426ZM26.1597 12.1337H27.8967V11.9433H26.1597V12.1337ZM26.1597 12.5368H27.8967V12.3409H26.1597V12.5368ZM26.1597 12.9568H27.8967V12.744H26.1597V12.9568ZM27.2897 11.1426V10.7591H26.8282V11.1426H27.2897ZM28.0981 10.7619H27.6674V11.1454H28.0981V10.7619Z" fill="white"/>
<path d="M34.3754 10.9774C34.2104 11.6633 33.967 12.2653 33.6481 12.7748C33.76 13.2171 33.8859 13.4775 34.0313 13.4775C34.1152 13.4775 34.1684 13.2227 34.1852 12.6432C34.2803 12.7496 34.4285 12.8504 34.5404 12.898C34.4761 13.7015 34.3446 13.9339 33.967 13.9339C33.6845 13.9339 33.4775 13.6735 33.3125 13.2367C33.0747 13.5251 32.7978 13.7799 32.4901 13.987C32.4258 13.8975 32.2468 13.7267 32.1489 13.6455C32.5517 13.4019 32.8929 13.0828 33.1698 12.6992C33.0328 12.0609 32.9572 11.2322 32.9209 10.3391H31.7685V10.9886H32.7419C32.7419 10.9886 32.7419 11.1118 32.7363 11.165C32.7195 12.366 32.6999 12.8196 32.602 12.9568C32.5265 13.052 32.4426 13.094 32.3195 13.1108C32.2132 13.1276 32.037 13.1331 31.858 13.122C31.8468 12.9988 31.8048 12.8252 31.7405 12.7132C31.9055 12.7356 32.0426 12.7356 32.1069 12.7356C32.1712 12.7356 32.202 12.7188 32.2356 12.6712C32.2887 12.5956 32.3111 12.2765 32.3195 11.3946H31.7657V11.5765C31.7657 12.338 31.6706 13.3627 31.1028 14.0122C31.0272 13.9171 30.8371 13.7631 30.7364 13.7043C30.9797 13.4215 31.1251 13.0884 31.2035 12.73C30.7028 12.9372 30.1825 13.1443 29.7629 13.3151L29.6035 12.8252C29.7741 12.772 29.9755 12.702 30.1937 12.6236V10.8458H29.679V10.3895H30.1937V9.17724H30.6496V10.3895H31.1168V10.8458H30.6496V12.4584L31.1168 12.2877L31.2063 12.7188C31.2902 12.324 31.3069 11.9265 31.3069 11.5709V9.89675H32.9013C32.8901 9.63638 32.8845 9.37041 32.8845 9.11005H33.3516C33.3461 9.37601 33.3517 9.63638 33.3572 9.89675H33.9362C33.8132 9.72597 33.6006 9.4992 33.416 9.32842L33.7572 9.12125C33.9754 9.29763 34.2244 9.55239 34.3362 9.72877L34.0761 9.89955H34.4313V10.3475H33.3684C33.3936 11.0026 33.4467 11.5961 33.5167 12.0917C33.6929 11.7417 33.8243 11.3358 33.925 10.9046L34.3726 10.9858L34.3754 10.9774Z" fill="white"/>
<path d="M37.1021 11.3946C36.9314 12.5844 36.5119 13.4103 35.7035 13.931C35.6615 13.8471 35.5273 13.6763 35.4434 13.5951C35.9692 13.2927 36.3104 12.8224 36.5118 12.2009C35.8098 12.3128 35.6783 12.338 35.586 12.3884C35.5636 12.3044 35.4965 12.1001 35.449 11.9881C35.5608 11.9657 35.6671 11.8397 35.7986 11.6521C35.8769 11.5513 36.0419 11.291 36.2293 10.9662C35.7874 11.0138 35.6755 11.0474 35.6084 11.0782C35.5832 10.9886 35.5133 10.7702 35.4601 10.6582C35.544 10.6415 35.6196 10.5351 35.6979 10.3923C35.7818 10.2495 36.0531 9.70077 36.1874 9.18003L36.6489 9.29202C36.4839 9.75396 36.2545 10.2215 36.0335 10.5939L36.4475 10.5631C36.523 10.4035 36.6014 10.2383 36.6713 10.0787L37.0741 10.2439C36.7971 10.8122 36.4475 11.4086 36.0923 11.8705L36.6181 11.8061C36.6489 11.6577 36.6769 11.5037 36.6993 11.3442L37.1021 11.3918V11.3946ZM38.2321 12.2121C38.4335 12.66 38.646 13.2395 38.7216 13.5951L38.302 13.7547C38.2796 13.6427 38.2545 13.5055 38.2069 13.3571C37.2922 13.6651 37.144 13.7239 37.0545 13.7883C37.0265 13.6931 36.9538 13.5223 36.8895 13.4411C36.9902 13.3991 37.1272 13.2983 37.1272 13.0855V9.65037H37.6698C37.5999 9.51879 37.516 9.37881 37.4405 9.26122L37.8237 9.11844C37.9524 9.27802 38.0727 9.48519 38.1482 9.65037H38.5509V12.0329H37.558V13.1499L38.0894 12.9848C38.0139 12.7664 37.93 12.5424 37.8461 12.3464L38.2349 12.2149L38.2321 12.2121ZM37.558 10.0703V10.6554H38.1537V10.0703H37.558ZM38.1537 11.6129V11.053H37.558V11.6129H38.1537ZM40.3215 9.55799C40.1621 10.0591 39.9607 10.6806 39.7845 11.1538C40.1565 11.6437 40.246 12.0581 40.246 12.4192C40.2516 12.7552 40.1761 13.01 40.0278 13.1331C39.9439 13.1919 39.8404 13.2283 39.7257 13.2451C39.625 13.2563 39.4908 13.2563 39.3593 13.2507C39.3593 13.1275 39.3285 12.9316 39.2586 12.8084C39.3705 12.8196 39.4712 12.8196 39.5495 12.8196C39.6139 12.814 39.6726 12.7972 39.7145 12.7608C39.7985 12.702 39.8264 12.548 39.8264 12.3632C39.8264 12.0497 39.7313 11.6661 39.3649 11.2042C39.5132 10.7842 39.667 10.2299 39.7789 9.81555H39.1943V13.9842H38.7803V9.3788H39.9327L40.0082 9.35641L40.3215 9.55799Z" fill="white"/>
</svg>
