<svg width="60" height="60" viewBox="0 0 60 60" fill="none" xmlns="http://www.w3.org/2000/svg">
<path d="M55.2486 0H4.75143C2.12729 0 0 2.12729 0 4.75143V55.2486C0 57.8727 2.12729 60 4.75143 60H55.2486C57.8727 60 60 57.8727 60 55.2486V4.75143C60 2.12729 57.8727 0 55.2486 0Z" fill="#1477AF"/>
<path d="M7.24991 7.86149C6.95901 7.99868 6.65692 8.11627 6.35203 8.21986C5.95484 8.34584 5.7059 8.44103 5.59961 8.48022V6.85641C6.00239 6.69963 6.39399 6.51205 6.76881 6.29648C7.12684 6.1173 7.4513 5.88493 7.7338 5.59937H9.44284V17.0416H7.24991V7.86149Z" fill="white"/>
<path d="M13.8425 14.3259H10.3965V12.6069L13.4006 5.59937H15.8145V12.6741H16.9529V14.3259H15.8145V17.0416H13.8845L13.8453 14.3259H13.8425ZM13.8425 12.6741V7.84189L12.1055 12.6741H13.8425Z" fill="white"/>
<path d="M46.2021 42.8096C45.4497 41.785 40.5548 35.5417 33.6487 35.5417C27.6909 35.5417 21.3191 40.9535 21.3191 40.9535C21.3191 40.9535 18.9248 36.0429 14.0298 35.5697H13.9039C13.8004 35.5753 13.7165 35.6593 13.7109 35.7629C13.7277 35.8245 13.7529 35.8833 13.7893 35.9365C16.7906 40.136 16.7906 45.7801 13.7893 49.9795V50.0467C13.7809 50.0803 13.7809 50.1195 13.7893 50.1531C13.7949 50.2539 13.8732 50.3379 13.9739 50.3463H14.0802C18.9947 49.8816 21.4002 44.9626 21.4002 44.9626C21.4002 44.9626 27.772 50.3743 33.7298 50.3743C40.5856 50.3743 45.4805 44.1311 46.2833 43.1064L46.342 43.0392C46.3672 42.9916 46.3672 42.9328 46.342 42.8852L46.2833 42.818M37.5871 43.7839C36.4766 43.7895 35.5731 42.8936 35.5703 41.7821C35.5647 40.6707 36.4598 39.7664 37.5703 39.7636C38.6807 39.758 39.5842 40.6539 39.587 41.7653C39.587 41.7681 39.587 41.771 39.587 41.7738C39.587 42.8796 38.6947 43.7783 37.5871 43.7839Z" fill="white"/>
<path d="M20.9407 29.9452V29.8864C20.9799 29.878 21.0191 29.878 21.0554 29.8864C21.1058 29.8864 21.1561 29.9088 21.1897 29.9452C24.935 33.5119 28.8566 30.6227 29.6761 29.9452L29.7544 29.8668H29.9083L29.9866 29.9452C30.8061 30.6227 34.7277 33.5119 38.4646 29.9452C38.4982 29.906 38.5485 29.8864 38.5989 29.8864C38.6324 29.878 38.6716 29.878 38.7052 29.8864C38.7275 29.9032 38.7471 29.9228 38.7639 29.9452C39.4884 30.6591 42.6267 33.358 45.9385 30.4771C45.9721 30.4379 45.9944 30.3847 45.9972 30.3315V28.9681C45.9972 28.8561 45.9077 28.7665 45.7958 28.7665L45.6979 28.8141C43.3875 30.0628 40.5373 29.6708 38.6492 27.8482L38.5625 27.7698C38.5373 27.7615 38.5094 27.7615 38.4842 27.7698H38.4758C38.4311 27.781 38.3947 27.8091 38.3695 27.8482C37.5192 28.495 33.5417 31.1546 30.1041 27.8958L30.0453 27.8482C30.0118 27.8091 29.9614 27.7894 29.9111 27.7894C29.8607 27.7866 29.8104 27.8091 29.7768 27.8482L29.7181 27.8958C26.2217 31.1518 22.3029 28.495 21.4442 27.8482C21.4274 27.8091 21.3911 27.7782 21.3463 27.7698H21.2876C21.2596 27.7615 21.2288 27.7615 21.2009 27.7698L21.1142 27.8482C19.2289 29.6708 16.3814 30.0628 14.0766 28.8141L13.9787 28.7665C13.8669 28.7665 13.7773 28.8561 13.7773 28.9681V30.3315C13.7773 30.3847 13.7969 30.4379 13.8361 30.4771C17.1479 33.3776 20.2862 30.6619 21.0107 29.9452" fill="white"/>
<path d="M13.9516 23.8C13.8453 23.7944 13.7558 23.8756 13.7502 23.982C13.7502 23.9848 13.7502 23.9875 13.7502 23.9931V25.365C13.7474 25.4154 13.7698 25.4658 13.809 25.4994C17.1207 28.3998 20.2591 25.6841 20.9836 24.9674V24.9086C21.0227 24.8974 21.0619 24.8974 21.0982 24.9086C21.1458 24.9086 21.1905 24.9254 21.2241 24.9562C24.9694 28.5314 28.891 25.6337 29.7105 24.9562L29.7889 24.889C29.814 24.8806 29.842 24.8806 29.8672 24.889C29.8923 24.8806 29.9203 24.8806 29.9455 24.889L30.0238 24.9562C30.8434 25.6337 34.7649 28.5314 38.5018 24.9562C38.541 24.9254 38.5886 24.9086 38.6361 24.9086C38.6697 24.8974 38.7088 24.8974 38.7424 24.9086L38.8011 24.9674C39.5256 25.6813 42.6639 28.3802 45.9757 25.4994C45.9925 25.4546 45.9925 25.407 45.9757 25.365V23.9931C45.9813 23.8924 45.903 23.8056 45.8023 23.8C45.7967 23.8 45.7883 23.8 45.7827 23.8L45.6848 23.8588C43.3744 25.1046 40.527 24.7127 38.6361 22.8929L38.5494 22.8145H38.4711H38.4795C38.4375 22.8313 38.4011 22.8593 38.3732 22.8929C37.5229 23.5508 33.5454 26.2077 30.1077 22.9405L30.049 22.8929C30.0126 22.8593 29.9651 22.8369 29.9147 22.8341C29.8644 22.8341 29.814 22.8565 29.7805 22.8929L29.7217 22.9405C26.2253 26.2077 22.3066 23.548 21.4479 22.8929C21.4255 22.8565 21.3919 22.8313 21.35 22.8145H21.2045L21.1262 22.8929C19.2354 24.7155 16.3879 25.1046 14.0775 23.8588L13.9796 23.8" fill="white"/>
<path d="M22.3063 8.49422C22.1524 8.87218 21.9706 9.25012 21.7636 9.60568V13.2004H21.2909V10.328C21.1427 10.5296 20.9832 10.7227 20.8238 10.8823C20.7762 10.7647 20.6364 10.4988 20.5469 10.3812C21.0615 9.89125 21.551 9.12695 21.8447 8.34305L22.3063 8.49142V8.49422ZM23.2405 11.6718C23.0055 12.1226 22.6671 12.6349 22.379 12.9681C22.2951 12.8869 22.1077 12.7497 21.9958 12.6909C22.2839 12.3885 22.5916 11.9406 22.793 11.5318L23.2405 11.669V11.6718ZM24.0377 11.3191V13.2172H23.5426V11.3191H22.0769V10.8655H23.5426V10.3084H22.4489V8.57541H25.1957V10.3084H24.0377V10.8655H25.4838V11.3191H24.0377ZM22.9104 9.86885H24.7006V9.01215H22.9104V9.86885ZM24.6586 11.5263C24.9831 11.893 25.3383 12.3717 25.5145 12.6853L25.1173 12.9289C24.9579 12.6041 24.5971 12.1002 24.2894 11.7334L24.6614 11.5263H24.6586Z" fill="white"/>
<path d="M31.2222 9.25573H29.9579C30.3523 9.53849 30.7914 9.91086 31.0264 10.1768L30.6068 10.4484H30.7299V12.6657C30.7299 12.9485 30.6488 13.0633 30.4418 13.1277C30.2292 13.1864 29.888 13.1865 29.4069 13.1865C29.3901 13.0577 29.3313 12.8841 29.2782 12.7609C29.5859 12.7777 29.9803 12.7777 30.0642 12.7721C30.1593 12.7721 30.1928 12.7413 30.1928 12.6601V12.1114C29.3845 12.2878 28.5565 12.4529 27.9188 12.5733L27.7705 12.1254C28.3495 12.0498 29.2894 11.8958 30.1928 11.7474V10.8543H27.6838V11.3443C27.6838 11.935 27.5943 12.7329 27.088 13.2648C27.0125 13.1696 26.8055 13.0157 26.6909 12.9625C27.1524 12.4949 27.1999 11.8342 27.1999 11.3359V10.4484H30.5844C30.5061 10.342 30.3886 10.2244 30.26 10.0984C27.6139 10.2216 27.3202 10.2272 27.1188 10.2944C27.0908 10.1992 27.0293 9.95844 26.9706 9.83245C27.1048 9.81006 27.2419 9.70928 27.4265 9.5665C27.502 9.51331 27.6335 9.40131 27.7929 9.25853H26.5762V8.82178H28.246C28.4055 8.651 28.5761 8.45503 28.7244 8.26746L29.225 8.46344C29.1187 8.58662 29.0125 8.70419 28.895 8.81898H31.2222V9.25573ZM29.8404 9.72328C29.6922 9.6057 29.5495 9.4881 29.4041 9.38171L29.6166 9.25294H28.4474C28.2349 9.44892 28.0223 9.63089 27.8097 9.79047L29.8404 9.72048V9.72328ZM27.9859 11.0111C28.6069 11.0923 29.4264 11.2883 29.8572 11.4731L29.7033 11.8174C29.2838 11.6298 28.4698 11.4143 27.8321 11.3163L27.9859 11.0083V11.0111Z" fill="white"/>
<path d="M33.1743 10.8264C32.9925 10.6556 32.6121 10.412 32.3184 10.2636L32.5897 9.92768C32.8806 10.0649 33.2694 10.2832 33.4568 10.4484L33.1743 10.8264ZM32.4694 12.8617C32.6764 12.4418 32.9785 11.7559 33.1911 11.1483L33.5798 11.4199C33.3785 11.9798 33.1239 12.6209 32.8946 13.1221L32.4694 12.8617ZM33.5155 9.32016C33.3197 9.14379 32.9141 8.9002 32.6009 8.74622L32.8778 8.40467C33.1911 8.54185 33.5994 8.77142 33.8064 8.9422L33.5155 9.32016ZM34.5085 9.33976C34.3435 9.67012 34.1589 9.97247 33.9659 10.202C33.8707 10.1209 33.6526 9.98927 33.5407 9.92488C33.8959 9.54133 34.2204 8.93101 34.4078 8.32349L34.8861 8.44667C34.833 8.59505 34.7742 8.74903 34.7099 8.90021H37.0595V9.34255H34.5085V9.33976ZM36.763 11.3023C36.7462 11.5795 36.7322 11.8062 36.7098 12.005H37.0539V12.4306H36.6511C36.6091 12.7077 36.556 12.8673 36.486 12.9457C36.3798 13.0941 36.2567 13.1361 36.0917 13.1585C35.9434 13.1809 35.6833 13.1753 35.4287 13.1585C35.4176 13.0409 35.3756 12.8617 35.3001 12.7441C35.5546 12.7693 35.784 12.7693 35.8847 12.7693C35.9798 12.7693 36.0273 12.7581 36.0805 12.6909C36.1168 12.6489 36.156 12.5622 36.1812 12.4306H33.9071C33.9659 12.1226 34.0358 11.7223 34.0917 11.3023H33.6134V10.8516H34.1561C34.2036 10.4792 34.24 10.1069 34.2735 9.7877H36.8413C36.8413 9.7877 36.8357 9.94167 36.8301 10.0061C36.8189 10.3196 36.8049 10.6024 36.7937 10.8516H37.1965V11.3023H36.7602H36.763ZM34.556 11.3023C34.5197 11.5515 34.4861 11.7923 34.4498 12.005H35.4707C35.342 11.8342 35.1155 11.6075 34.9225 11.4479L35.1518 11.3051H34.556V11.3023ZM34.6903 10.2133C34.6735 10.4204 34.6428 10.6388 34.6148 10.8516H35.5602C35.4371 10.692 35.2301 10.4904 35.0539 10.3476L35.2553 10.2133H34.6875H34.6903ZM36.2511 12.005C36.2735 11.8174 36.293 11.5851 36.3098 11.3023H35.2357C35.4483 11.4675 35.6861 11.6971 35.8036 11.8622L35.5966 12.005H36.2511ZM35.3756 10.2133C35.5658 10.3672 35.7784 10.5744 35.8791 10.72L35.6917 10.8516H36.335C36.3462 10.6612 36.3574 10.4428 36.3658 10.2133H35.3728H35.3756Z" fill="white"/>
<path d="M39.1255 10.7871C38.9185 10.6024 38.471 10.3308 38.127 10.1544L38.4095 9.80446C38.7451 9.95844 39.1954 10.2076 39.4192 10.3896L39.1283 10.7871H39.1255ZM38.2388 12.7833C38.4934 12.3746 38.8458 11.6886 39.1115 11.0699L39.5059 11.3723C39.2682 11.935 38.9577 12.5733 38.6864 13.0857L38.2388 12.7833ZM39.3437 9.4685C39.1367 9.26693 38.706 8.97296 38.3703 8.78258L38.6612 8.43543C38.9913 8.6174 39.4304 8.88897 39.6486 9.07934L39.3409 9.4685H39.3437ZM43.0051 12.0414H41.5646V13.2116H41.0555V12.0414H39.6262V11.5682H41.0555V10.8879H39.9563V10.4316H41.0555V9.77087H39.7968V9.30892H40.5353C40.4514 9.07655 40.2695 8.7462 40.0989 8.49983L40.5353 8.32345C40.7311 8.58942 40.9381 8.93936 41.0248 9.18573L40.7367 9.30892H41.6094C41.7744 9.02615 41.9646 8.62301 42.0765 8.32065L42.5604 8.46902C42.4233 8.75739 42.2583 9.06535 42.11 9.30892H42.896V9.77087H41.5674V10.4316H42.7142V10.8879H41.5674V11.5682H43.0079V12.0414H43.0051Z" fill="white"/>
<path d="M48.7738 12.5705V13.0493H44.0551V12.5705H46.1585V11.3471H44.6453V10.874H46.1585V9.81009H44.9781C44.8131 10.1292 44.6369 10.412 44.4523 10.6332C44.3516 10.5492 44.1334 10.4036 44.002 10.3364C44.4327 9.88288 44.7684 9.15497 44.9642 8.41026L45.4732 8.52784C45.3921 8.7994 45.297 9.07096 45.1963 9.32573H46.1585V8.33746H46.6676V9.32573H48.5165V9.81009H46.6676V10.874H48.3207V11.3471H46.6676V12.5705H48.771H48.7738Z" fill="white"/>
<path d="M49.873 12.8449C50.0549 12.6014 50.2087 12.2066 50.287 11.8987L50.7122 12.0582C50.6115 12.3886 50.4772 12.7974 50.3038 13.0633L49.873 12.8449ZM52.024 9.62814C51.9821 9.55815 51.9289 9.46856 51.8646 9.36777C50.3402 9.50496 50.1416 9.53296 50.0213 9.58055C49.9961 9.49656 49.9318 9.29218 49.8786 9.1774C49.9626 9.1662 50.0549 9.1074 50.1611 9.02901C50.2674 8.95062 50.6087 8.63986 50.8353 8.3179L51.2828 8.46069C51.087 8.69866 50.8464 8.92822 50.6199 9.1158L51.624 9.04022C51.5401 8.93943 51.4534 8.83304 51.3695 8.74345L51.7107 8.56147C51.9485 8.82744 52.2478 9.19979 52.3849 9.43496L52.0296 9.63094L52.024 9.62814ZM52.0464 11.3611C52.0464 11.5571 52.01 11.6439 51.8702 11.7083C51.7359 11.7671 51.5289 11.7671 51.238 11.7671C51.2157 11.6607 51.1541 11.5263 51.1094 11.4311C51.2996 11.4367 51.487 11.4367 51.5401 11.4311C51.5989 11.4311 51.6212 11.4143 51.6212 11.3611V11C51.2912 11.1176 50.9723 11.2435 50.687 11.3443L50.5639 11.056C50.5164 11.3331 50.4297 11.6131 50.2451 11.8315C50.1695 11.7503 49.9905 11.6075 49.8954 11.5655C50.1612 11.2575 50.1863 10.8488 50.1863 10.5072V9.68694H52.0464V11.3555V11.3611ZM50.6003 10.5212C50.6003 10.664 50.5947 10.8236 50.5751 10.9832C50.852 10.9188 51.2241 10.8124 51.6212 10.706V10.0453H50.6003V10.5184V10.5212ZM50.8073 10.1545C51.0618 10.2441 51.4031 10.3785 51.5933 10.4736L51.4031 10.7396C51.2268 10.6444 50.8828 10.4904 50.6227 10.384L50.8073 10.1545ZM52.8548 12.7302C53.0981 12.7302 53.1429 12.6602 53.168 12.187C53.2743 12.2626 53.4645 12.3242 53.5876 12.3522C53.5345 12.9793 53.3974 13.1277 52.8967 13.1277H51.8282C51.1961 13.1277 51.0311 13.0101 51.0311 12.579V11.9715H51.5094V12.5734C51.5094 12.705 51.5625 12.7274 51.8646 12.7274H52.852L52.8548 12.7302ZM52.4352 12.5118C52.3177 12.3466 52.094 12.0638 51.9149 11.8623L52.2562 11.6439C52.438 11.8399 52.6702 12.1058 52.7932 12.2654L52.438 12.509L52.4352 12.5118ZM53.1513 9.9249C52.6674 9.9249 52.5443 9.75973 52.5443 9.31738V8.36549H53.0002V8.72666H54.2701V9.1046H53.0002V9.32299C53.0002 9.47697 53.0254 9.53016 53.1708 9.53016H53.9848C54.1135 9.53016 54.3205 9.51896 54.4211 9.49376C54.4323 9.62255 54.4463 9.78492 54.4631 9.89131C54.3792 9.9193 54.175 9.9221 54.0072 9.9221H53.1513V9.9249ZM53.2044 11.7251C52.673 11.7251 52.5443 11.6075 52.5443 11.1764V10.0873H53.0002V10.4708H54.2757V10.8544H53.0002V11.1736C53.0002 11.3107 53.0366 11.3275 53.2492 11.3275H53.9512C54.1051 11.3275 54.1414 11.2855 54.1638 11.0084C54.2589 11.0728 54.4407 11.14 54.5666 11.168C54.5134 11.6159 54.3848 11.7251 53.9988 11.7251H53.2016H53.2044ZM54.1247 11.8847C54.2729 12.1814 54.4659 12.593 54.5386 12.8309L54.0883 12.9849C54.0128 12.7358 53.8449 12.3186 53.6995 12.005L54.1247 11.8819V11.8847Z" fill="white"/>
</svg>
