<svg width="360" height="180" viewBox="0 0 360 180" fill="none" xmlns="http://www.w3.org/2000/svg">
<path d="M112.751 119.811C110.008 120.306 107.229 120.59 104.445 120.613C100.274 120.649 94.274 120.541 89.8913 119.825C82.4815 118.608 69.4278 120.635 45.7662 133.482C45.7662 133.482 31.6629 141.923 22.2217 144.153C12.7804 146.382 18.1587 148.085 18.1587 148.085C18.1587 148.085 23.1991 150.094 67.3647 146.973C67.3647 146.973 82.968 146.491 92.8101 146.252C102.652 146.013 123.296 146.491 136.737 145.292C150.178 144.094 174.903 145.531 174.903 145.531C174.903 145.531 202.506 146.973 215.469 146.252C228.433 145.531 263.716 147.211 269.716 147.45C275.716 147.689 318.201 148.171 326.602 145.049C335.003 141.928 331.642 136.626 319.881 134.117C308.12 131.608 268.995 122.829 260.356 120.496C251.716 118.162 205.654 110.721 173.957 115.762C148.205 119.856 137.034 119.198 133.755 118.807C131.98 118.595 130.197 118.464 128.408 118.446C124.845 118.41 119.3 118.622 112.769 119.802L112.751 119.811Z" fill="#8A9F8B"/>
<path d="M58.852 147.27C58.7979 147.27 58.7484 147.252 58.6988 147.22C58.6267 147.166 51.172 141.657 42.8884 142.36C36.33 142.923 31.0193 142.365 30.9652 142.36C30.8256 142.347 30.7265 142.22 30.74 142.081C30.7535 141.941 30.8796 141.842 31.0193 141.856C31.0733 141.86 36.3345 142.414 42.8433 141.856C51.3206 141.13 58.924 146.756 58.9961 146.815C59.1087 146.9 59.1312 147.058 59.0456 147.166C58.9961 147.234 58.9195 147.265 58.843 147.265L58.852 147.27Z" fill="#A7B6A6"/>
<path d="M79.7433 146.126C79.6847 146.126 79.6262 146.103 79.5766 146.063C79.5181 146.013 73.6669 140.946 62.577 138.932C51.3295 136.887 48.0819 133.856 47.9512 133.73C47.8522 133.635 47.8476 133.473 47.9422 133.374C48.0368 133.275 48.199 133.27 48.2981 133.365C48.3296 133.396 51.6043 136.423 62.6671 138.437C73.9056 140.482 79.8514 145.635 79.91 145.689C80.0136 145.783 80.0226 145.941 79.9325 146.045C79.8829 146.099 79.8154 146.13 79.7433 146.13V146.126Z" fill="#A7B6A6"/>
<path d="M117.192 144.784C85.6346 144.495 62.8964 126.825 62.6712 126.649C62.5631 126.563 62.5451 126.406 62.6307 126.293C62.7163 126.185 62.8739 126.162 62.9865 126.252C63.2117 126.428 85.8193 143.991 117.201 144.279C117.341 144.279 117.454 144.396 117.449 144.531C117.449 144.671 117.337 144.779 117.197 144.779L117.192 144.784Z" fill="#A7B6A6"/>
<path d="M194.24 140.103C192.758 140.103 191.421 140.072 190.249 140.022C187.038 139.892 182.736 138.793 177.286 137.401C172.799 136.252 167.714 134.955 162.083 133.91C148.394 131.378 132.327 133.932 127.728 134.775C122.445 135.743 118.427 135.04 112.341 133.982C110.148 133.599 107.661 133.167 104.76 132.752C93.9768 131.212 79.7339 120.811 79.5898 120.707C79.4772 120.626 79.4547 120.469 79.5357 120.356C79.6168 120.243 79.7745 120.221 79.8871 120.302C80.0267 120.406 94.1705 130.73 104.828 132.252C107.738 132.667 110.229 133.103 112.422 133.486C118.454 134.54 122.44 135.234 127.629 134.284C132.251 133.437 148.394 130.869 162.169 133.419C167.817 134.464 172.912 135.766 177.403 136.914C182.822 138.302 187.105 139.392 190.263 139.522C198.037 139.838 213.352 139.468 228.591 133.432C231.753 132 241.374 129.414 255.063 129.932C272.036 130.572 281.554 126.275 281.648 126.23C281.774 126.171 281.923 126.23 281.981 126.351C282.04 126.473 281.981 126.626 281.86 126.685C278.572 128.207 268.734 130.95 255.045 130.432C238.059 129.793 228.879 133.851 228.789 133.896C215.749 139.063 202.663 140.108 194.236 140.108L194.24 140.103Z" fill="#A7B6A6"/>
<path d="M193.425 145.549C187.781 145.549 181.615 145.382 177.326 144.792C169.948 143.779 162.633 142.306 162.561 142.292C150.111 138.329 138.656 138.581 128.553 138.802C126.273 138.851 124.12 138.901 122.008 138.901C107.499 138.901 92.1796 135.126 86.9726 131.599C80.7114 127.36 73.108 123.05 73.0314 123.005C72.9098 122.937 72.8693 122.784 72.9368 122.662C73.0044 122.541 73.1576 122.5 73.2792 122.568C73.3558 122.613 80.9727 126.928 87.2518 131.18C93.531 135.432 110.603 138.392 122.003 138.392C124.111 138.392 126.26 138.347 128.535 138.297C138.683 138.076 150.178 137.824 162.678 141.806C162.723 141.815 170.029 143.279 177.389 144.292C187.281 145.653 207.299 144.756 207.501 144.747C207.663 144.738 224.24 143.68 236.167 139.617C248.217 135.513 255.581 134.158 266.473 134.049C277.702 133.937 288.085 129.725 290.324 128.072C290.436 127.991 290.594 128.014 290.675 128.126C290.756 128.239 290.734 128.396 290.621 128.477C288.342 130.162 277.819 134.437 266.477 134.554C255.649 134.662 248.32 136.009 236.329 140.094C224.334 144.18 207.69 145.238 207.524 145.252C207.407 145.256 200.862 145.549 193.416 145.549H193.425Z" fill="#A7B6A6"/>
<path d="M246.23 146.261C246.136 146.261 246.045 146.207 246 146.112C245.942 145.986 246 145.838 246.122 145.779C246.221 145.734 256.216 141.153 265.036 139.603C267.347 139.198 270.121 138.977 273.058 138.748C281.734 138.063 292.531 137.212 302.864 131.167C302.986 131.095 303.139 131.135 303.206 131.257C303.278 131.378 303.238 131.532 303.116 131.599C292.684 137.703 281.824 138.558 273.094 139.248C270.171 139.477 267.405 139.698 265.122 140.099C256.37 141.635 246.433 146.189 246.334 146.234C246.298 146.252 246.262 146.256 246.23 146.256V146.261Z" fill="#A7B6A6"/>
<path d="M272.338 147.243C272.253 147.243 272.167 147.198 272.122 147.117C272.05 146.995 272.091 146.842 272.212 146.77C272.293 146.725 274.217 145.617 278.577 144.437C282.586 143.351 289.505 142.009 299.685 141.765C299.77 141.765 308.211 141.495 313.657 138.477C320.301 134.797 321.693 135.324 321.828 135.401C321.95 135.464 321.999 135.617 321.932 135.743C321.869 135.865 321.716 135.914 321.589 135.847C321.553 135.838 320.216 135.423 313.896 138.919C308.342 141.995 299.775 142.265 299.689 142.27C280.32 142.738 272.537 147.162 272.46 147.207C272.419 147.229 272.374 147.243 272.334 147.243H272.338Z" fill="#A7B6A6"/>
<path d="M196.01 134.207C190.704 134.207 186.078 133.153 180.547 131.892C177.11 131.108 173.214 130.221 168.619 129.487C154.665 127.248 151.876 127.487 142.642 128.27C138.818 128.595 134.061 129 126.994 129.374C102.643 130.667 82.0716 120.41 81.8689 120.307C81.7428 120.244 81.6933 120.09 81.7563 119.969C81.8194 119.843 81.9726 119.793 82.0942 119.856C82.2969 119.96 102.756 130.153 126.967 128.869C134.025 128.496 138.778 128.09 142.597 127.766C151.881 126.978 154.678 126.739 168.696 128.987C173.308 129.725 177.214 130.617 180.655 131.401C192.056 134 199.591 135.716 217.321 129C240.365 120.275 261.342 121.248 261.554 121.262C261.694 121.271 261.802 121.388 261.793 121.527C261.784 121.667 261.667 121.784 261.527 121.766C261.32 121.757 240.442 120.784 217.501 129.473C208.231 132.982 201.727 134.207 196.006 134.207H196.01Z" fill="#A7B6A6"/>
<path d="M107.111 153.644C90.2154 153.644 73.6166 151.436 57.5675 147.054C36.4779 141.293 22.2214 141.202 13.9739 142.144C5.05517 143.157 1.06427 145.563 1.02373 145.59C0.708421 145.783 0.294016 145.684 0.100327 145.369C-0.0933621 145.054 0.00123033 144.639 0.316538 144.446C0.974181 144.036 16.9198 134.558 57.9188 145.761C79.0534 151.536 101.148 153.499 123.579 151.608L179.285 143.883C179.781 143.81 229.681 136.734 268.171 146.855C292.751 153.319 316.147 151.225 331.444 148.328C348.038 145.189 358.952 140.455 359.06 140.405C359.398 140.257 359.795 140.41 359.943 140.752C360.092 141.09 359.939 141.486 359.596 141.635C359.488 141.684 348.462 146.468 331.732 149.639C316.291 152.567 292.666 154.684 267.828 148.153C229.604 138.103 179.97 145.135 179.47 145.211L123.724 152.941C118.156 153.409 112.616 153.648 107.102 153.648L107.111 153.644Z" fill="#C6D5DF"/>
<path d="M232.487 105.645C232.487 105.645 229.64 105.361 229.28 110.194C229.253 110.555 229.037 110.874 228.717 111.032C227.663 111.55 225.51 113.086 226.573 116.645C226.604 116.753 226.622 116.865 226.618 116.978C226.582 117.735 226.667 121.059 230.947 121.68C230.947 121.68 237.41 123.167 238.739 118.334C238.784 118.162 238.87 118.005 238.992 117.874C239.546 117.284 241.064 115.32 239.334 112.87C239.203 112.685 239.131 112.473 239.131 112.248C239.136 111.329 238.937 108.802 236.568 108.343C236.235 108.28 235.951 108.073 235.802 107.766C235.442 107.014 234.523 105.699 232.487 105.64V105.645Z" fill="#D5CA7A"/>
<path d="M96.3508 102.879C96.3508 102.879 93.6076 102.51 92.4454 108.897C92.3959 109.172 92.2292 109.406 91.9815 109.532C91.013 110.027 88.5987 111.595 89.2563 114.694C89.3059 114.928 89.2698 115.171 89.1392 115.37C88.5717 116.248 87.2879 118.847 91.1482 119.982C91.2473 120.014 91.3464 120.059 91.432 120.122C92.0986 120.613 95.4544 122.797 99.6074 120.46C99.7606 120.374 99.9318 120.329 100.103 120.343C100.95 120.406 103.652 120.397 103.382 117.653C103.355 117.401 103.45 117.149 103.63 116.964C104.342 116.239 105.887 114.23 103.445 112.257C103.247 112.099 103.134 111.856 103.125 111.604C103.107 110.825 102.851 109.131 101.017 108.55C100.666 108.437 100.409 108.149 100.373 107.784C100.229 106.302 99.5489 102.712 96.3508 102.883V102.879Z" fill="#D5CA7A"/>
<g opacity="0.6">
<path d="M251.541 121.721C250.474 118.874 248.663 116.338 247.064 113.753C243.195 107.496 238.789 101.55 233.893 96.055C230.407 92.1361 226.654 88.4561 222.632 85.0868C222.231 84.7534 221.186 85.1723 220.835 85.357C219.628 85.9876 218.42 86.6273 217.213 87.2624C217.159 83.83 216.664 80.3031 215.646 77.0464C214.911 74.7086 213.79 72.3123 211.916 70.6637C211.596 70.1547 210.461 69.5151 210.029 69.6141C209.614 69.4925 209.186 69.3979 208.749 69.2898C205.105 68.3754 201.461 67.4655 197.817 66.5512C193.543 65.4791 189.268 64.4071 184.993 63.3395C183.664 63.0062 182.331 62.6729 181.002 62.3395C180.565 62.2314 180.016 61.9837 179.592 62.1639C178.561 62.5963 177.556 63.1413 176.552 63.6323C174.696 64.5332 172.84 65.4341 170.985 66.3394C166.62 68.4745 162.259 70.6231 157.944 72.8663C156.444 73.6456 154.94 74.4248 153.489 75.2897C153.197 75.4609 152.679 75.6726 152.471 75.9518C152.323 76.15 152.255 76.5014 152.165 76.7266C150.692 80.4652 149.237 84.2084 147.8 87.9606C147.436 88.9155 147.066 89.8704 146.701 90.8254C143.544 89.0506 139.954 87.7939 136.436 87.3029C134.593 87.0462 132.494 86.7579 130.85 87.7714C130.116 88.2218 129.391 88.6813 128.666 89.1452C120.454 94.4019 112.526 100.127 104.95 106.262C99.0898 111.005 93.4368 116.018 88.1891 121.437C87.9234 121.712 88.2927 122.023 88.5495 122.023C89.7296 122.027 90.9098 122.036 92.0899 122.041C95.3421 122.059 98.5898 122.077 101.842 122.095C106.729 122.122 111.617 122.149 116.504 122.171C122.594 122.203 128.688 122.235 134.778 122.266C141.638 122.302 148.499 122.334 155.359 122.37C162.557 122.406 169.75 122.442 176.948 122.473C184.047 122.505 191.146 122.541 198.245 122.572C204.813 122.599 211.38 122.631 217.947 122.653C223.551 122.676 229.154 122.694 234.753 122.712C238.956 122.726 243.163 122.735 247.366 122.739C248.127 122.739 248.888 122.739 249.645 122.739C249.92 122.739 252.046 123.072 251.537 121.712L251.541 121.721Z" fill="#F8FAFA"/>
</g>
<path d="M251.541 121.721C250.474 118.874 248.663 116.338 247.064 113.753C243.195 107.496 238.789 101.55 233.893 96.055C230.407 92.1361 226.654 88.4561 222.632 85.0868C222.231 84.7534 221.186 85.1723 220.835 85.357C219.628 85.9876 218.42 86.6273 217.213 87.2624C217.159 83.83 216.664 80.3031 215.646 77.0464C214.911 74.7086 213.79 72.3123 211.916 70.6637C211.596 70.1547 210.461 69.5151 210.029 69.6141C209.614 69.4925 209.186 69.3979 208.749 69.2898C205.105 68.3754 201.461 67.4655 197.817 66.5512C193.543 65.4791 189.268 64.4071 184.993 63.3395C183.664 63.0062 182.331 62.6729 181.002 62.3395C180.565 62.2314 180.016 61.9837 179.592 62.1639C178.561 62.5963 177.556 63.1413 176.552 63.6323C174.696 64.5332 172.84 65.4341 170.985 66.3394C166.62 68.4745 162.259 70.6231 157.944 72.8663C156.444 73.6456 154.94 74.4248 153.489 75.2897C153.197 75.4609 152.679 75.6726 152.471 75.9518C152.323 76.15 152.255 76.5014 152.165 76.7266C150.692 80.4652 149.237 84.2084 147.8 87.9606C147.436 88.9155 147.066 89.8704 146.701 90.8254C143.544 89.0506 139.954 87.7939 136.436 87.3029C134.593 87.0462 132.494 86.7579 130.85 87.7714C130.116 88.2218 129.391 88.6813 128.666 89.1452C120.454 94.4019 112.526 100.127 104.95 106.262C99.0898 111.005 93.4368 116.018 88.1891 121.437C87.9234 121.712 88.2927 122.023 88.5495 122.023C89.7296 122.027 90.9098 122.036 92.0899 122.041C95.3421 122.059 98.5898 122.077 101.842 122.095C106.729 122.122 111.617 122.149 116.504 122.171C122.594 122.203 128.688 122.235 134.778 122.266C141.638 122.302 148.499 122.334 155.359 122.37C162.557 122.406 169.75 122.442 176.948 122.473C184.047 122.505 191.146 122.541 198.245 122.572C204.813 122.599 211.38 122.631 217.947 122.653C223.551 122.676 229.154 122.694 234.753 122.712C238.956 122.726 243.163 122.735 247.366 122.739C248.127 122.739 248.888 122.739 249.645 122.739C249.92 122.739 252.046 123.072 251.537 121.712L251.541 121.721ZM239.717 121.518C234.415 121.505 229.109 121.487 223.808 121.464C217.434 121.442 211.06 121.415 204.686 121.388C197.678 121.356 190.664 121.325 183.655 121.293C178.349 121.271 173.043 121.244 167.737 121.217C167.813 119.37 168.03 114.032 168.03 111.528C168.03 108.474 166.863 109.271 166.863 109.271C164.309 110.397 161.71 112.46 160.836 113.181C160.642 113.343 160.521 113.577 160.507 113.829C160.363 116.604 160.165 121.135 160.165 121.135L160.669 121.185C154.134 121.153 147.602 121.122 141.066 121.086C134.747 121.054 128.431 121.023 122.112 120.987C116.891 120.96 111.671 120.933 106.454 120.906C102.765 120.888 99.0808 120.865 95.3917 120.847C94.2611 120.843 93.1305 120.834 91.9999 120.829C91.8557 120.829 91.7071 120.82 91.5584 120.811C98.1979 114.014 103.815 109.374 111.472 103.541C116.657 99.5909 125.598 93.555 131.503 89.7083C131.63 89.947 131.76 90.1857 131.9 90.4425C133.283 93.019 135.418 95.064 137.805 96.7081C139.553 97.9153 141.463 98.8747 143.427 99.6855C143.255 100.177 143.08 100.667 142.913 101.158C142.706 101.767 142.476 102.366 142.332 102.992C142.129 103.852 144.012 105.37 144.796 103.055C145.841 99.9783 146.652 97.3793 147.791 94.3388C149.291 90.3344 150.742 87.0282 152.291 83.0418C152.841 81.6229 153.395 80.2085 153.953 78.7896C154.111 78.3932 154.264 77.9968 154.422 77.6004C154.476 77.4608 154.521 77.2716 154.616 77.1545C154.832 76.8978 155.291 76.7086 155.575 76.5419C156.12 76.2221 156.674 75.9158 157.228 75.614C158.719 74.8032 160.223 74.024 161.732 73.2537C168.097 69.997 173.331 67.5241 179.773 64.4251C179.966 64.3305 180.304 64.2449 180.457 64.0963C180.462 64.0918 180.457 64.0872 180.466 64.0827C181.124 64.2719 181.804 64.4161 182.466 64.5827C185.619 65.371 188.777 66.1638 191.93 66.952C197.304 68.2989 202.677 69.6457 208.047 70.988C207.61 71.4069 207.213 71.8573 206.853 72.2898C204.155 75.5284 202.641 79.6725 201.655 83.7219C200.7 87.6408 200.101 92.5821 199.889 96.6541C199.331 96.9649 198.772 97.2757 198.214 97.5865C195.529 99.0999 192.853 100.64 190.218 102.24C189.799 102.492 189.984 102.735 190.385 102.807C191.736 103.041 193.182 102.6 193.651 102.316C194.939 101.532 196.236 100.762 197.542 100.001C198.223 100.325 198.943 100.582 199.632 100.785C202.614 101.645 205.776 101.636 208.808 101.041C212.335 100.348 215.965 99.0729 218.501 96.4198C220.245 94.5956 221.425 92.2668 222.082 89.8479C222.263 89.1768 222.42 88.4876 222.528 87.7894C228.443 93.0235 233.749 98.9288 238.465 105.262C241.879 109.852 245.023 114.667 247.767 119.69C248.1 120.298 248.424 120.91 248.739 121.527C245.731 121.527 242.717 121.518 239.708 121.514L239.717 121.518Z" fill="#E1E2E5"/>
<path d="M120.242 103.618C120.242 103.618 120.147 107.694 120.125 107.983C120.111 108.145 122.737 107.983 122.737 107.983C122.737 107.983 122.71 104.996 122.737 103.618C122.737 103.618 121.548 103.46 120.242 103.618Z" fill="#B5BCC1"/>
<path d="M166.165 79.5059C166.165 79.5059 166.084 82.722 166.169 83.8346C166.183 83.9967 168.66 83.8706 168.66 83.8706C168.66 83.8706 168.633 80.8842 168.66 79.5059C168.66 79.5059 167.471 79.3482 166.165 79.5059Z" fill="#B5BCC1"/>
<path d="M177.245 87.7038C177.245 87.7038 177.299 90.8478 177.267 92.3027C177.267 92.3027 178.713 92.4649 180.303 92.2847C180.303 92.2847 180.384 88.8974 180.272 87.7263C180.254 87.5596 177.24 87.7038 177.24 87.7038H177.245Z" fill="#B5BCC1"/>
<path d="M211.987 105.375C211.987 105.375 212.037 108.523 212.01 109.978C212.01 109.978 213.325 110.14 214.767 109.965C214.767 109.965 214.839 106.573 214.735 105.397C214.722 105.23 211.983 105.375 211.983 105.375H211.987Z" fill="#B5BCC1"/>
<path d="M131.439 108.834C131.439 108.834 131.345 113.172 131.322 113.483C131.309 113.654 133.935 113.483 133.935 113.483C133.935 113.483 133.908 110.302 133.935 108.834C133.935 108.834 132.746 108.663 131.439 108.834Z" fill="#B5BCC1"/>
<path d="M186.695 72.4069C186.695 72.4069 186.578 77.1455 186.556 77.4789C186.542 77.6635 189.7 77.4789 189.7 77.4789C189.7 77.4789 189.664 74.006 189.7 72.4069C189.7 72.4069 188.267 72.2222 186.695 72.4069Z" fill="#B5BCC1"/>
<path d="M222.848 101.073C222.848 101.073 222.717 105.429 222.69 105.735C222.672 105.906 226.239 105.735 226.239 105.735C226.239 105.735 226.199 102.541 226.239 101.073C226.239 101.073 224.627 100.902 222.852 101.073H222.848Z" fill="#B5BCC1"/>
<path d="M140.021 89.7128C138.498 90.2353 137.242 90.6632 135.476 91.2668C135.287 91.3299 135.097 91.3975 134.913 91.4605C134.656 91.1002 134.413 90.7263 134.201 90.366C134.174 90.3209 134.152 90.2759 134.124 90.2308C134.075 90.1407 134.03 90.0461 133.98 89.9516C133.89 89.7714 133.805 89.5867 133.724 89.402C133.602 89.1182 133.494 88.8255 133.399 88.5327C133.363 88.4201 133.332 88.312 133.305 88.1993C135.593 88.3435 137.863 88.9155 140.016 89.7173L140.021 89.7128Z" fill="#B5BCC1"/>
<path d="M142.394 90.6948C143.502 91.1993 144.597 91.7533 145.637 92.3885C145.628 92.3885 145.624 92.3885 145.615 92.3885C143.304 93.0821 140.989 93.7758 138.678 94.4695C138.462 94.5325 138.246 94.6001 138.029 94.6632C137.349 94.1272 136.705 93.5506 136.102 92.92C136.043 92.8569 135.98 92.7893 135.921 92.7218C137.849 92.0912 140.408 91.3299 142.394 90.6858V90.6948Z" fill="#B5BCC1"/>
<path d="M143.989 98.0775C142.421 97.4243 140.903 96.6451 139.489 95.7172C141.385 95.2172 143.989 94.6001 145.381 94.2803C144.908 95.5415 144.439 96.8072 143.984 98.0775H143.989Z" fill="#B5BCC1"/>
<path d="M205.082 80.5464C206.051 81.7445 207.105 83.1139 208.19 84.4832C208.109 85.3165 208.024 86.1499 207.951 86.9832C207.816 88.5237 207.618 90.8074 207.573 92.42C205.789 93.3884 204.01 94.3659 202.235 95.3478C202.51 89.9741 203.177 85.4111 205.078 80.5419L205.082 80.5464Z" fill="#B5BCC1"/>
<path d="M208.46 81.7807C207.577 80.7762 206.694 79.7627 205.82 78.7852C205.861 78.6951 205.897 78.6051 205.937 78.515C206.834 76.542 207.973 74.5646 209.478 72.9565C209.113 75.8934 208.766 78.8348 208.46 81.7807Z" fill="#B5BCC1"/>
<path d="M214.028 77.8257C214.632 80.3436 214.943 82.9381 215.064 85.5237C215.087 85.9831 215.123 87.6047 215.127 88.366C213.357 89.3074 211.591 90.2533 209.826 91.2037C209.961 88.5056 210.281 85.8075 210.564 83.1273C210.92 79.7806 211.317 76.4383 211.727 73.096C211.767 72.7627 211.812 72.4249 211.853 72.0916C212.943 73.8212 213.578 75.9473 214.028 77.8302V77.8257Z" fill="#B5BCC1"/>
<path d="M217.302 94.2622C217.262 94.3163 217.217 94.3658 217.176 94.4199C215.082 93.7982 212.987 93.1766 210.893 92.5595C213.947 90.9154 217.01 89.2984 220.073 87.6813C220.036 87.866 220.009 88.0506 219.969 88.2308C219.496 90.3884 218.645 92.4965 217.302 94.2622Z" fill="#B5BCC1"/>
<path d="M200.456 99.6224C200.456 99.6224 200.443 99.6224 200.434 99.6179C200.42 99.6179 200.416 99.6134 200.402 99.6089C200.267 99.5729 200.136 99.5368 200.001 99.4963C199.771 99.4287 199.546 99.3566 199.321 99.2756C199.217 99.2395 199.114 99.199 199.01 99.1585C202.339 97.2306 205.704 95.3657 209.091 93.528C211.181 94.1721 213.956 95.145 216.104 95.6C214.267 97.3657 211.956 98.4152 209.438 99.1269C206.542 99.9422 203.524 100.267 200.618 99.6539C200.564 99.6404 200.51 99.6314 200.452 99.6179L200.456 99.6224Z" fill="#B5BCC1"/>
<path d="M257.68 107.64C257.469 107.559 257.306 107.383 257.288 107.158C257.225 106.302 256.933 104.379 255.626 104.334C254.036 104.28 252.671 105.928 252.316 108.095C252.279 108.316 252.122 108.496 251.906 108.541C250.978 108.735 248.577 109.528 248.559 112.568C248.559 112.744 248.482 112.906 248.347 113.014C247.613 113.563 245.401 115.527 247.536 117.847C247.676 118 247.712 118.221 247.631 118.415C247.199 119.455 246.081 122.712 248.275 124.257C248.401 124.342 248.487 124.469 248.514 124.622C248.671 125.505 249.491 128.577 253.18 127.64C253.288 127.613 253.406 127.613 253.514 127.653C254.261 127.946 257.581 128.977 259.527 125.104C259.568 125.027 259.622 124.955 259.694 124.906C260.464 124.351 265.027 120.811 261.847 117.162C261.752 117.054 261.698 116.915 261.707 116.771C261.757 115.856 261.775 112.266 259.126 109.784C259.05 109.712 258.991 109.622 258.969 109.514C258.874 109.1 258.536 107.955 257.694 107.64H257.68Z" fill="#D5CA7A"/>
<path d="M245.202 96.2261C245.202 96.2261 242.432 95.7531 241.153 100.294C241.072 100.582 240.829 100.794 240.536 100.857C239.072 101.167 234.941 102.483 236.329 107.379C236.428 107.721 236.293 108.086 235.995 108.28C234.635 109.167 231.302 111.919 234.518 115.946C234.703 116.176 234.743 116.487 234.626 116.757C234.077 118.05 232.905 121.829 237.374 123.072C237.621 123.14 237.829 123.311 237.928 123.55C238.459 124.865 240.725 129.054 247.247 125.888C247.355 125.834 247.473 125.806 247.594 125.806C248.653 125.806 254.243 125.496 253.297 119.442C253.256 119.176 253.355 118.906 253.554 118.721C254.499 117.834 256.941 114.933 253.932 110.775C253.824 110.622 253.761 110.442 253.774 110.257C253.815 109.523 253.765 107.487 252.054 106.618C251.788 106.483 251.608 106.221 251.594 105.924C251.536 104.83 251.085 102.244 248.234 101.226C247.892 101.104 247.671 100.78 247.689 100.415C247.756 99.19 247.617 96.5594 245.202 96.2306V96.2261Z" fill="#808D7E"/>
<path d="M107.012 109.766C106.634 109.802 104.832 110.086 104.395 112.172C104.328 112.5 104.062 112.762 103.724 112.78C102.728 112.829 100.81 113.41 100.882 117.144C100.882 117.37 100.796 117.586 100.625 117.73C99.8502 118.397 97.8007 120.59 99.7601 123.797C99.9268 124.068 99.8997 124.415 99.6925 124.653C98.652 125.865 96.116 129.559 101.494 131.779C101.562 131.806 101.625 131.847 101.683 131.892C102.165 132.297 104.81 134.311 107.976 132.676C108.107 132.608 108.255 132.577 108.404 132.595C109.503 132.725 114.395 133.081 114.201 128.865C114.192 128.653 114.26 128.45 114.404 128.297C115.129 127.554 117.152 125 114.512 121.77C114.395 121.626 114.327 121.446 114.336 121.257C114.395 120.32 114.363 117.289 111.697 116.221C111.39 116.099 111.192 115.798 111.224 115.469C111.282 114.829 111.26 113.82 110.593 113.334C110.418 113.208 110.305 113.014 110.282 112.802C110.192 111.937 109.71 109.861 107.125 109.762C107.084 109.762 107.044 109.762 107.003 109.762L107.012 109.766Z" fill="#808D7E"/>
<path d="M113.926 118.689C113.926 118.689 112.012 118.689 111.62 120.852C111.566 121.158 111.359 121.419 111.066 121.527C110.093 121.888 108.08 122.973 109.007 125.599C109.052 125.725 109.07 125.856 109.057 125.991C108.949 126.955 108.719 131.257 112.985 131.14C113.21 131.135 113.426 131.207 113.593 131.351C114.296 131.959 116.395 133.333 118.268 130.104C118.354 129.955 118.476 129.829 118.629 129.752C119.39 129.369 121.75 127.896 120.111 124.915C120.039 124.779 119.994 124.631 119.994 124.478C120.012 123.73 119.841 121.275 116.967 120.937C116.66 120.901 116.399 120.703 116.273 120.424C115.98 119.775 115.287 118.689 113.922 118.689H113.926Z" fill="#D5CA7A"/>
</svg>
