<svg width="280" height="140" viewBox="0 0 280 140" fill="none" xmlns="http://www.w3.org/2000/svg">
<path d="M87.6963 93.1861C85.5627 93.5715 83.4011 93.7922 81.2359 93.8097C77.9918 93.8377 73.3252 93.7537 69.9164 93.1966C64.1533 92.2507 54.0003 93.8272 35.5969 103.819C35.5969 103.819 24.6277 110.384 17.2845 112.119C9.94131 113.853 14.1244 115.177 14.1244 115.177C14.1244 115.177 18.0447 116.74 52.3958 114.312C52.3958 114.312 64.5316 113.937 72.1866 113.751C79.8416 113.566 95.8978 113.937 106.352 113.005C116.806 112.073 136.036 113.191 136.036 113.191C136.036 113.191 157.505 114.312 167.588 113.751C177.671 113.191 205.113 114.497 209.78 114.683C214.447 114.869 247.491 115.244 254.025 112.816C260.559 110.388 257.945 106.264 248.798 104.313C239.65 102.362 209.219 95.5334 202.5 93.7186C195.78 91.9038 159.954 86.1162 135.301 90.0365C115.272 93.2211 106.583 92.7096 104.033 92.4048C102.652 92.2402 101.265 92.1386 99.8741 92.1246C97.1029 92.0965 92.7902 92.2612 87.7103 93.1791L87.6963 93.1861Z" fill="#8A9F8B"/>
<path d="M45.7726 114.544C45.7305 114.544 45.692 114.53 45.6534 114.505C45.5974 114.463 39.7992 110.178 33.3564 110.725C28.2554 111.163 24.1249 110.728 24.0829 110.725C23.9743 110.714 23.8972 110.616 23.9077 110.508C23.9182 110.399 24.0163 110.322 24.1249 110.332C24.167 110.336 28.2589 110.767 33.3214 110.332C39.9148 109.768 45.8286 114.144 45.8847 114.19C45.9722 114.256 45.9898 114.379 45.9232 114.463C45.8847 114.516 45.8251 114.54 45.7655 114.54L45.7726 114.544Z" fill="#A7B6A6"/>
<path d="M62.0226 113.654C61.977 113.654 61.9315 113.636 61.8929 113.605C61.8474 113.566 57.2965 109.625 48.671 108.059C39.923 106.468 37.397 104.11 37.2954 104.012C37.2183 103.939 37.2148 103.813 37.2884 103.735C37.362 103.658 37.4881 103.655 37.5652 103.728C37.5897 103.753 40.1367 106.107 48.7411 107.673C57.4821 109.264 62.1067 113.272 62.1522 113.314C62.2328 113.387 62.2398 113.51 62.1697 113.591C62.1312 113.633 62.0786 113.657 62.0226 113.657V113.654Z" fill="#A7B6A6"/>
<path d="M91.1494 112.609C66.6044 112.385 48.9191 98.641 48.744 98.5044C48.6599 98.4378 48.6459 98.3152 48.7124 98.2276C48.779 98.1435 48.9016 98.126 48.9892 98.1961C49.1644 98.3327 66.748 111.993 91.1564 112.217C91.265 112.217 91.3526 112.308 91.3491 112.413C91.3491 112.522 91.2615 112.606 91.1529 112.606L91.1494 112.609Z" fill="#A7B6A6"/>
<path d="M151.076 108.97C149.923 108.97 148.882 108.945 147.972 108.907C145.474 108.805 142.128 107.95 137.889 106.868C134.399 105.974 130.444 104.965 126.065 104.152C115.418 102.183 102.921 104.17 99.344 104.825C95.2345 105.578 92.1095 105.032 87.3763 104.208C85.6702 103.911 83.7363 103.574 81.4801 103.252C73.0929 102.054 62.0151 93.9644 61.903 93.8839C61.8154 93.8208 61.7979 93.6982 61.8609 93.6106C61.924 93.523 62.0466 93.5055 62.1342 93.5686C62.2428 93.6491 73.2435 101.679 81.5326 102.863C83.7958 103.185 85.7332 103.525 87.4394 103.823C92.1305 104.643 95.231 105.182 99.2669 104.443C102.861 103.785 115.418 101.788 126.131 103.771C130.524 104.583 134.487 105.596 137.98 106.489C142.194 107.568 145.526 108.416 147.982 108.518C154.029 108.763 165.941 108.476 177.793 103.781C180.252 102.667 187.735 100.656 198.382 101.059C211.583 101.556 218.986 98.2141 219.059 98.1791C219.158 98.1335 219.273 98.1791 219.319 98.2736C219.364 98.3682 219.319 98.4874 219.224 98.5329C216.667 99.7171 209.015 101.851 198.368 101.448C185.157 100.95 178.017 104.107 177.947 104.142C167.804 108.16 157.627 108.973 151.072 108.973L151.076 108.97Z" fill="#A7B6A6"/>
<path d="M150.442 113.205C146.053 113.205 141.256 113.075 137.921 112.616C132.183 111.828 126.493 110.682 126.437 110.672C116.754 107.589 107.844 107.785 99.9862 107.957C98.2134 107.995 96.5388 108.034 94.8957 108.034C83.6112 108.034 71.696 105.098 67.6461 102.355C62.7763 99.0579 56.8625 95.7051 56.803 95.6701C56.7084 95.6175 56.6769 95.4984 56.7294 95.4038C56.782 95.3092 56.9011 95.2777 56.9957 95.3302C57.0552 95.3653 62.9795 98.7216 67.8633 102.029C72.7471 105.336 86.025 107.638 94.8922 107.638C96.5318 107.638 98.2029 107.603 99.9721 107.564C107.865 107.393 116.806 107.196 126.528 110.293C126.563 110.3 132.246 111.439 137.97 112.227C145.664 113.285 161.233 112.588 161.391 112.581C161.517 112.574 174.409 111.751 183.686 108.591C193.058 105.399 198.786 104.345 207.257 104.26C215.991 104.173 224.067 100.897 225.808 99.6114C225.896 99.5484 226.018 99.5659 226.081 99.6535C226.144 99.7411 226.127 99.8637 226.039 99.9267C224.267 101.237 216.083 104.562 207.261 104.653C198.839 104.737 193.139 105.784 183.813 108.962C174.483 112.14 161.538 112.963 161.408 112.973C161.317 112.977 156.227 113.205 150.435 113.205H150.442Z" fill="#A7B6A6"/>
<path d="M191.514 113.758C191.44 113.758 191.37 113.716 191.335 113.643C191.29 113.545 191.335 113.429 191.43 113.383C191.507 113.348 199.281 109.785 206.141 108.58C207.938 108.265 210.096 108.093 212.38 107.915C219.128 107.382 227.526 106.72 235.562 102.018C235.657 101.962 235.776 101.994 235.829 102.088C235.885 102.183 235.853 102.302 235.759 102.355C227.645 107.102 219.198 107.767 212.408 108.303C210.135 108.482 207.983 108.654 206.207 108.966C199.4 110.16 191.672 113.702 191.594 113.737C191.566 113.751 191.538 113.755 191.514 113.755V113.758Z" fill="#A7B6A6"/>
<path d="M211.818 114.522C211.751 114.522 211.684 114.487 211.649 114.424C211.593 114.33 211.625 114.211 211.719 114.155C211.782 114.12 213.278 113.258 216.67 112.34C219.788 111.495 225.169 110.451 233.087 110.262C233.153 110.262 239.719 110.052 243.954 107.705C249.122 104.842 250.205 105.252 250.31 105.312C250.404 105.361 250.443 105.48 250.39 105.578C250.341 105.673 250.222 105.711 250.124 105.659C250.096 105.652 249.055 105.329 244.14 108.048C239.82 110.441 233.157 110.651 233.09 110.655C218.026 111.019 211.972 114.459 211.912 114.494C211.881 114.512 211.846 114.522 211.814 114.522H211.818Z" fill="#A7B6A6"/>
<path d="M152.453 104.383C148.326 104.383 144.728 103.563 140.426 102.582C137.753 101.973 134.722 101.283 131.149 100.712C120.295 98.9703 118.126 99.156 110.944 99.7656C107.97 100.018 104.27 100.333 98.7735 100.624C79.834 101.629 63.8339 93.6521 63.6762 93.5716C63.5781 93.5225 63.5396 93.4034 63.5886 93.3088C63.6377 93.2107 63.7568 93.1722 63.8514 93.2212C64.0091 93.3018 79.9216 101.23 98.7525 100.232C104.242 99.9408 107.938 99.6255 110.909 99.3732C118.13 98.7601 120.306 98.5744 131.208 100.323C134.796 100.897 137.833 101.591 140.51 102.2C149.377 104.222 155.238 105.557 169.028 100.333C186.951 93.547 203.267 94.3038 203.431 94.3143C203.54 94.3213 203.624 94.4124 203.617 94.521C203.61 94.6296 203.519 94.7207 203.41 94.7067C203.249 94.6997 187.011 93.9429 169.168 100.701C161.958 103.43 156.899 104.383 152.449 104.383H152.453Z" fill="#A7B6A6"/>
<path d="M83.3088 119.5C70.1675 119.5 57.2574 117.784 44.7747 114.375C28.3717 109.894 17.2833 109.824 10.8686 110.556C3.9318 111.345 0.827764 113.215 0.796234 113.236C0.550994 113.387 0.228679 113.31 0.0780322 113.065C-0.0726149 112.819 0.00095692 112.497 0.246196 112.346C0.757696 112.028 13.1598 104.656 45.048 113.369C61.486 117.861 78.6703 119.388 96.1173 117.917L139.444 111.909C139.83 111.852 178.64 106.349 208.577 114.221C227.695 119.248 245.892 117.619 257.79 115.366C270.696 112.925 279.185 109.242 279.269 109.204C279.532 109.088 279.84 109.207 279.956 109.474C280.072 109.736 279.952 110.045 279.686 110.16C279.602 110.199 271.026 113.92 258.014 116.386C246.004 118.663 227.629 120.31 208.311 115.23C178.581 107.414 139.977 112.883 139.588 112.942L96.2295 118.954C91.8992 119.318 87.59 119.504 83.3018 119.504L83.3088 119.5Z" fill="#C6D5DF"/>
<path d="M180.824 82.1682C180.824 82.1682 178.61 81.9475 178.329 85.7066C178.308 85.9869 178.14 86.2356 177.892 86.3583C177.072 86.7612 175.397 87.9558 176.224 90.7235C176.248 90.8076 176.262 90.8952 176.259 90.9828C176.231 91.5714 176.297 94.1569 179.626 94.6404C179.626 94.6404 184.653 95.7965 185.687 92.0373C185.722 91.9042 185.788 91.7816 185.883 91.68C186.314 91.221 187.494 89.6935 186.149 87.7877C186.047 87.644 185.991 87.4794 185.991 87.3042C185.995 86.5895 185.841 84.6241 183.998 84.2667C183.739 84.2177 183.518 84.0565 183.402 83.8183C183.122 83.2332 182.407 82.2102 180.824 82.1647V82.1682Z" fill="#D5CA7A"/>
<path d="M74.9397 80.0168C74.9397 80.0168 72.8061 79.7295 71.9022 84.6973C71.8637 84.911 71.7341 85.0932 71.5414 85.1913C70.7881 85.5767 68.9103 86.7959 69.4218 89.2062C69.4603 89.3884 69.4323 89.5776 69.3307 89.7317C68.8893 90.4149 67.8908 92.4364 70.8932 93.3193C70.9703 93.3438 71.0474 93.3788 71.114 93.4279C71.6325 93.8097 74.2425 95.5089 77.4727 93.6906C77.5918 93.6241 77.7249 93.589 77.858 93.5995C78.5167 93.6486 80.6187 93.6416 80.4085 91.508C80.3875 91.3118 80.4611 91.1156 80.6012 90.972C81.1548 90.4079 82.3564 88.8454 80.4576 87.3109C80.3034 87.1883 80.2158 86.9991 80.2088 86.8029C80.1948 86.1968 79.9951 84.8795 78.5692 84.4276C78.296 84.34 78.0963 84.1158 78.0682 83.832C77.9561 82.6794 77.4271 79.8871 74.9397 80.0203V80.0168Z" fill="#D5CA7A"/>
<g opacity="0.6">
<path d="M195.642 94.6721C194.812 92.458 193.404 90.4855 192.16 88.4746C189.15 83.6083 185.724 78.9838 181.916 74.7096C179.204 71.6617 176.286 68.7994 173.157 66.1788C172.845 65.9196 172.033 66.2454 171.759 66.389C170.82 66.8795 169.882 67.377 168.943 67.871C168.901 65.2014 168.515 62.4582 167.723 59.9252C167.152 58.1069 166.28 56.2431 164.823 54.9609C164.574 54.565 163.691 54.0675 163.355 54.1446C163.032 54.05 162.7 53.9764 162.36 53.8923C159.525 53.1811 156.691 52.4734 153.857 51.7622C150.532 50.9284 147.207 50.0946 143.883 49.2643C142.849 49.005 141.812 48.7458 140.779 48.4865C140.439 48.4024 140.011 48.2098 139.682 48.3499C138.88 48.6862 138.098 49.1101 137.317 49.492C135.874 50.1927 134.43 50.8934 132.987 51.5976C129.592 53.2582 126.201 54.9293 122.845 56.674C121.678 57.2801 120.508 57.8862 119.38 58.5589C119.152 58.692 118.749 58.8567 118.588 59.0739C118.472 59.228 118.42 59.5013 118.35 59.6765C117.204 62.5843 116.072 65.4956 114.955 68.414C114.671 69.1567 114.384 69.8994 114.1 70.6422C111.644 69.2618 108.852 68.2844 106.116 67.9025C104.683 67.7028 103.05 67.4786 101.771 68.2668C101.2 68.6172 100.636 68.9745 100.072 69.3354C93.6856 73.4239 87.5196 77.8767 81.6268 82.6484C77.0689 86.3375 72.6721 90.2368 68.5906 94.4514C68.3839 94.6651 68.6711 94.9069 68.8708 94.9069C69.7887 94.9104 70.7066 94.9174 71.6245 94.9209C74.154 94.9349 76.68 94.9489 79.2094 94.9629C83.0107 94.9839 86.8119 95.005 90.6131 95.0225C95.3497 95.047 100.09 95.0715 104.826 95.0961C110.162 95.1241 115.498 95.1486 120.834 95.1766C126.432 95.2047 132.027 95.2327 137.626 95.2572C143.147 95.2817 148.668 95.3098 154.19 95.3343C159.298 95.3553 164.406 95.3798 169.514 95.3973C173.872 95.4149 178.23 95.4289 182.585 95.4429C185.854 95.4534 189.126 95.4604 192.395 95.4639C192.987 95.4639 193.579 95.4639 194.167 95.4639C194.381 95.4639 196.035 95.7232 195.639 94.6651L195.642 94.6721Z" fill="#F8FAFA"/>
</g>
<path d="M195.642 94.6721C194.812 92.458 193.404 90.4855 192.16 88.4746C189.15 83.6083 185.724 78.9838 181.916 74.7096C179.204 71.6617 176.286 68.7994 173.157 66.1788C172.845 65.9196 172.033 66.2454 171.759 66.389C170.82 66.8795 169.882 67.377 168.943 67.871C168.901 65.2014 168.515 62.4582 167.723 59.9252C167.152 58.1069 166.28 56.2431 164.823 54.9609C164.574 54.565 163.691 54.0675 163.355 54.1446C163.032 54.05 162.7 53.9764 162.36 53.8923C159.525 53.1811 156.691 52.4734 153.857 51.7622C150.532 50.9284 147.207 50.0946 143.883 49.2643C142.849 49.005 141.812 48.7458 140.779 48.4865C140.439 48.4024 140.011 48.2098 139.682 48.3499C138.88 48.6862 138.098 49.1101 137.317 49.492C135.874 50.1927 134.43 50.8934 132.987 51.5976C129.592 53.2582 126.201 54.9293 122.845 56.674C121.678 57.2801 120.508 57.8862 119.38 58.5589C119.152 58.692 118.749 58.8567 118.588 59.0739C118.472 59.228 118.42 59.5013 118.35 59.6765C117.204 62.5843 116.072 65.4956 114.955 68.414C114.671 69.1567 114.384 69.8994 114.1 70.6422C111.644 69.2618 108.852 68.2844 106.116 67.9025C104.683 67.7028 103.05 67.4786 101.771 68.2668C101.2 68.6172 100.636 68.9745 100.072 69.3354C93.6856 73.4239 87.5196 77.8767 81.6268 82.6484C77.0689 86.3375 72.6721 90.2368 68.5906 94.4514C68.3839 94.6651 68.6711 94.9069 68.8708 94.9069C69.7887 94.9104 70.7066 94.9174 71.6245 94.9209C74.154 94.9349 76.68 94.9489 79.2094 94.9629C83.0107 94.9839 86.8119 95.005 90.6131 95.0225C95.3497 95.047 100.09 95.0715 104.826 95.0961C110.162 95.1241 115.498 95.1486 120.834 95.1766C126.432 95.2047 132.027 95.2327 137.626 95.2572C143.147 95.2817 148.668 95.3098 154.19 95.3343C159.298 95.3553 164.406 95.3798 169.514 95.3973C173.872 95.4149 178.23 95.4289 182.585 95.4429C185.854 95.4534 189.126 95.4604 192.395 95.4639C192.987 95.4639 193.579 95.4639 194.167 95.4639C194.381 95.4639 196.035 95.7232 195.639 94.6651L195.642 94.6721ZM186.446 94.5145C182.322 94.504 178.195 94.49 174.072 94.4724C169.114 94.4549 164.157 94.4339 159.2 94.4129C153.748 94.3884 148.293 94.3638 142.842 94.3393C138.715 94.3218 134.588 94.3008 130.461 94.2798C130.521 92.8434 130.689 88.6918 130.689 86.7439C130.689 84.3686 129.781 84.9887 129.781 84.9887C127.795 85.8645 125.773 87.4691 125.094 88.0297C124.943 88.1558 124.849 88.3379 124.838 88.5341C124.726 90.6922 124.572 94.2167 124.572 94.2167L124.964 94.2552C119.881 94.2307 114.801 94.2062 109.717 94.1782C104.802 94.1536 99.8902 94.1291 94.9748 94.1011C90.9144 94.0801 86.8539 94.059 82.7969 94.038C79.9276 94.024 77.0618 94.0065 74.1925 93.9925C73.3132 93.989 72.4338 93.982 71.5545 93.9785C71.4424 93.9785 71.3267 93.9714 71.2111 93.9644C76.3752 88.6778 80.7439 85.0693 86.6998 80.5323C90.7322 77.4598 97.6865 72.7652 102.279 69.7733C102.378 69.959 102.479 70.1447 102.588 70.3444C103.663 72.3483 105.324 73.9389 107.181 75.2176C108.54 76.1566 110.026 76.9028 111.553 77.5334C111.42 77.9153 111.283 78.2971 111.154 78.679C110.992 79.152 110.814 79.6179 110.702 80.1049C110.544 80.7741 112.008 81.9547 112.618 80.154C113.431 77.7611 114.061 75.7396 114.948 73.3748C116.114 70.2603 117.243 67.6888 118.448 64.5883C118.875 63.4847 119.306 62.3846 119.741 61.281C119.863 60.9727 119.982 60.6644 120.105 60.3561C120.147 60.2475 120.182 60.1004 120.256 60.0093C120.424 59.8096 120.781 59.6624 121.002 59.5328C121.426 59.2841 121.857 59.0458 122.288 58.8111C123.447 58.1805 124.617 57.5744 125.791 56.9753C130.741 54.4423 134.812 52.519 139.822 50.1086C139.973 50.035 140.236 49.9685 140.355 49.8529C140.358 49.8494 140.355 49.8459 140.362 49.8424C140.873 49.9895 141.402 50.1016 141.917 50.2312C144.37 50.8443 146.826 51.4609 149.278 52.074C153.457 53.1216 157.637 54.1691 161.813 55.2131C161.473 55.5389 161.165 55.8893 160.885 56.2256C158.786 58.7445 157.609 61.9677 156.842 65.1173C156.099 68.1652 155.633 72.0085 155.468 75.1756C155.034 75.4173 154.6 75.6591 154.165 75.9008C152.077 77.078 149.996 78.2761 147.947 79.5198C147.621 79.716 147.764 79.9052 148.076 79.9613C149.127 80.1434 150.252 79.8001 150.616 79.5794C151.618 78.9698 152.627 78.3707 153.643 77.7786C154.172 78.0309 154.733 78.2306 155.269 78.3882C157.588 79.0574 160.047 79.0504 162.405 78.5879C165.148 78.0484 167.972 77.0569 169.945 74.9934C171.3 73.5745 172.218 71.7633 172.73 69.8819C172.87 69.3599 172.993 68.8239 173.077 68.2809C177.677 72.3518 181.804 76.9448 185.472 81.8706C188.127 85.4406 190.573 89.1858 192.706 93.0921C192.966 93.5651 193.218 94.0415 193.463 94.5215C191.123 94.5215 188.779 94.5145 186.439 94.511L186.446 94.5145Z" fill="#E1E2E5"/>
<path d="M93.5203 80.5915C93.5203 80.5915 93.4468 83.7621 93.4292 83.9863C93.4187 84.1124 95.4612 83.9863 95.4612 83.9863C95.4612 83.9863 95.4402 81.6635 95.4612 80.5915C95.4612 80.5915 94.5363 80.4689 93.5203 80.5915Z" fill="#B5BCC1"/>
<path d="M129.239 61.8379C129.239 61.8379 129.176 64.3394 129.242 65.2047C129.253 65.3309 131.18 65.2328 131.18 65.2328C131.18 65.2328 131.159 62.91 131.18 61.8379C131.18 61.8379 130.255 61.7153 129.239 61.8379Z" fill="#B5BCC1"/>
<path d="M137.857 68.2143C137.857 68.2143 137.899 70.6597 137.875 71.7913C137.875 71.7913 138.999 71.9174 140.236 71.7773C140.236 71.7773 140.299 69.1427 140.211 68.2318C140.197 68.1022 137.854 68.2143 137.854 68.2143H137.857Z" fill="#B5BCC1"/>
<path d="M164.879 81.9583C164.879 81.9583 164.918 84.4072 164.897 85.5388C164.897 85.5388 165.92 85.665 167.041 85.5283C167.041 85.5283 167.097 82.8903 167.017 81.9759C167.006 81.8462 164.876 81.9583 164.876 81.9583H164.879Z" fill="#B5BCC1"/>
<path d="M102.23 84.6488C102.23 84.6488 102.156 88.0226 102.139 88.2643C102.128 88.3974 104.171 88.2643 104.171 88.2643C104.171 88.2643 104.15 85.7909 104.171 84.6488C104.171 84.6488 103.246 84.5156 102.23 84.6488Z" fill="#B5BCC1"/>
<path d="M145.207 56.3164C145.207 56.3164 145.116 60.002 145.099 60.2613C145.088 60.4049 147.544 60.2613 147.544 60.2613C147.544 60.2613 147.516 57.5601 147.544 56.3164C147.544 56.3164 146.43 56.1728 145.207 56.3164Z" fill="#B5BCC1"/>
<path d="M173.325 78.6125C173.325 78.6125 173.223 82.0003 173.202 82.2386C173.188 82.3717 175.963 82.2386 175.963 82.2386C175.963 82.2386 175.931 79.7546 175.963 78.6125C175.963 78.6125 174.709 78.4794 173.328 78.6125H173.325Z" fill="#B5BCC1"/>
<path d="M108.904 69.7768C107.72 70.1832 106.743 70.516 105.369 70.9854C105.222 71.0345 105.075 71.087 104.931 71.1361C104.732 70.8558 104.543 70.565 104.378 70.2848C104.357 70.2497 104.339 70.2147 104.318 70.1797C104.28 70.1096 104.245 70.036 104.206 69.9624C104.136 69.8223 104.07 69.6787 104.006 69.535C103.912 69.3143 103.828 69.0866 103.754 68.8589C103.726 68.7713 103.702 68.6872 103.681 68.5996C105.46 68.7117 107.226 69.1567 108.901 69.7803L108.904 69.7768Z" fill="#B5BCC1"/>
<path d="M110.752 70.5405C111.614 70.9328 112.465 71.3638 113.275 71.8577C113.268 71.8577 113.264 71.8577 113.257 71.8577C111.46 72.3973 109.659 72.9368 107.862 73.4763C107.694 73.5254 107.526 73.5779 107.357 73.627C106.828 73.2101 106.327 72.7616 105.858 72.2711C105.812 72.2221 105.763 72.1695 105.718 72.117C107.217 71.6265 109.207 71.0344 110.752 70.5334V70.5405Z" fill="#B5BCC1"/>
<path d="M111.992 76.2825C110.773 75.7745 109.592 75.1684 108.492 74.4467C109.967 74.0578 111.992 73.5778 113.075 73.3291C112.707 74.3101 112.342 75.2945 111.989 76.2825H111.992Z" fill="#B5BCC1"/>
<path d="M159.509 62.6469C160.262 63.5788 161.082 64.6439 161.926 65.7089C161.863 66.3571 161.796 67.0052 161.74 67.6533C161.635 68.8515 161.481 70.6277 161.446 71.882C160.059 72.6352 158.675 73.3954 157.294 74.1592C157.508 69.9796 158.027 66.4306 159.505 62.6434L159.509 62.6469Z" fill="#B5BCC1"/>
<path d="M162.136 63.6069C161.449 62.8256 160.762 62.0373 160.083 61.2771C160.114 61.207 160.142 61.1369 160.174 61.0669C160.871 59.5324 161.757 57.9944 162.927 56.7437C162.644 59.0279 162.374 61.3156 162.136 63.6069Z" fill="#B5BCC1"/>
<path d="M166.466 60.5309C166.935 62.4893 167.177 64.5073 167.272 66.5183C167.289 66.8756 167.317 68.1368 167.321 68.7289C165.944 69.4611 164.571 70.1968 163.197 70.9361C163.302 68.8375 163.551 66.739 163.772 64.6544C164.049 62.0514 164.357 59.4518 164.676 56.8523C164.707 56.5931 164.742 56.3303 164.774 56.071C165.622 57.4164 166.116 59.07 166.466 60.5344V60.5309Z" fill="#B5BCC1"/>
<path d="M169.014 73.3152C168.982 73.3572 168.947 73.3957 168.916 73.4378C167.286 72.9543 165.657 72.4708 164.028 71.9909C166.404 70.7121 168.786 69.4544 171.168 68.1967C171.14 68.3403 171.119 68.4839 171.088 68.6241C170.72 70.3022 170.058 71.9418 169.014 73.3152Z" fill="#B5BCC1"/>
<path d="M155.911 77.4839C155.911 77.4839 155.9 77.4839 155.893 77.4804C155.883 77.4804 155.879 77.4769 155.869 77.4734C155.764 77.4454 155.662 77.4173 155.557 77.3858C155.378 77.3333 155.203 77.2772 155.028 77.2141C154.947 77.1861 154.867 77.1546 154.786 77.1231C157.375 75.6236 159.992 74.1732 162.627 72.7438C164.252 73.2448 166.41 74.0015 168.082 74.3554C166.652 75.7287 164.855 76.545 162.897 77.0985C160.644 77.7326 158.297 77.9849 156.037 77.5084C155.995 77.4979 155.953 77.4909 155.907 77.4804L155.911 77.4839Z" fill="#B5BCC1"/>
<path d="M200.418 83.7202C200.253 83.6572 200.127 83.5205 200.113 83.3454C200.064 82.6797 199.836 81.1837 198.82 81.1487C197.583 81.1067 196.522 82.3889 196.245 84.0741C196.217 84.2457 196.094 84.3859 195.926 84.4209C195.205 84.5716 193.337 85.1882 193.323 87.553C193.323 87.6896 193.264 87.8157 193.158 87.8998C192.587 88.3272 190.867 89.8547 192.528 91.659C192.636 91.7781 192.665 91.9498 192.601 92.1004C192.265 92.9097 191.396 95.4427 193.102 96.6443C193.201 96.7109 193.267 96.809 193.288 96.9281C193.411 97.6148 194.048 100.004 196.918 99.2754C197.002 99.2544 197.093 99.2544 197.177 99.2859C197.759 99.5136 200.341 100.316 201.854 97.303C201.886 97.2434 201.928 97.1874 201.984 97.1488C202.583 96.7179 206.132 93.9642 203.658 91.1265C203.585 91.0424 203.543 90.9338 203.55 90.8217C203.588 90.1105 203.602 87.3182 201.542 85.3879C201.483 85.3318 201.437 85.2617 201.42 85.1776C201.346 84.8553 201.083 83.9655 200.428 83.7202H200.418Z" fill="#D5CA7A"/>
<path d="M190.714 74.8422C190.714 74.8422 188.559 74.4744 187.564 78.0058C187.501 78.23 187.312 78.3947 187.085 78.4438C185.946 78.6855 182.733 79.7085 183.812 83.5167C183.889 83.783 183.784 84.0667 183.553 84.2174C182.495 84.9076 179.903 87.0482 182.404 90.1802C182.548 90.3589 182.579 90.6006 182.488 90.8108C182.061 91.8163 181.15 94.7557 184.625 95.7226C184.818 95.7752 184.979 95.9083 185.056 96.094C185.469 97.117 187.232 100.375 192.305 97.9123C192.389 97.8702 192.48 97.8492 192.574 97.8492C193.398 97.8492 197.745 97.6075 197.01 92.8989C196.978 92.6922 197.055 92.482 197.209 92.3383C197.945 91.6481 199.844 89.3919 197.504 86.1583C197.42 86.0392 197.371 85.899 197.381 85.7554C197.413 85.1843 197.374 83.6008 196.043 82.9246C195.836 82.8195 195.696 82.6163 195.685 82.3851C195.64 81.5338 195.29 79.5228 193.072 78.731C192.806 78.6364 192.634 78.3842 192.648 78.1004C192.701 77.1475 192.592 75.1015 190.714 74.8457V74.8422Z" fill="#808D7E"/>
<path d="M83.2328 85.3736C82.9385 85.4016 81.5371 85.6224 81.1973 87.2445C81.1447 87.5002 80.938 87.7034 80.6753 87.7174C79.901 87.7559 78.4086 88.2079 78.4646 91.1122C78.4646 91.2874 78.3981 91.4556 78.2649 91.5677C77.6623 92.0862 76.0683 93.7923 77.5923 96.2868C77.7219 96.497 77.7009 96.7668 77.5397 96.9524C76.7304 97.8949 74.758 100.768 78.9411 102.495C78.9936 102.516 79.0427 102.547 79.0882 102.582C79.4631 102.898 81.5196 104.464 83.9825 103.192C84.0841 103.139 84.1997 103.115 84.3153 103.129C85.1702 103.231 88.9749 103.507 88.8242 100.228C88.8172 100.063 88.8698 99.9058 88.9819 99.7867C89.546 99.2086 91.119 97.2222 89.066 94.7102C88.9749 94.5981 88.9223 94.458 88.9293 94.3109C88.9749 93.5821 88.9504 91.2243 86.8763 90.394C86.6381 90.2994 86.484 90.0647 86.5085 89.809C86.554 89.3115 86.5365 88.5267 86.018 88.1483C85.8814 88.0502 85.7938 87.8996 85.7763 87.7349C85.7062 87.0623 85.3313 85.4472 83.3204 85.3701C83.2888 85.3701 83.2573 85.3701 83.2258 85.3701L83.2328 85.3736Z" fill="#808D7E"/>
<path d="M88.6083 92.3142C88.6083 92.3142 87.1194 92.3142 86.8146 93.9959C86.7725 94.2341 86.6114 94.4373 86.3836 94.5214C85.6269 94.8016 84.0609 95.646 84.7826 97.6885C84.8176 97.7866 84.8316 97.8882 84.8211 97.9933C84.737 98.743 84.5584 102.089 87.8761 101.998C88.0513 101.994 88.2194 102.05 88.3491 102.162C88.8956 102.635 90.5282 103.704 91.9856 101.192C92.0522 101.076 92.1468 100.978 92.2659 100.919C92.858 100.621 94.6938 99.4752 93.4185 97.1559C93.3625 97.0508 93.3274 96.9352 93.3274 96.8161C93.3414 96.2345 93.2083 94.3252 90.9731 94.0624C90.7349 94.0344 90.5317 93.8802 90.4336 93.663C90.2059 93.1585 89.6664 92.3142 88.6048 92.3142H88.6083Z" fill="#D5CA7A"/>
</svg>
