<svg width="400" height="200" viewBox="0 0 400 200" fill="none" xmlns="http://www.w3.org/2000/svg">
<path d="M125.278 133.123C122.231 133.674 119.142 133.989 116.049 134.014C111.415 134.054 104.748 133.934 99.8787 133.138C91.6456 131.787 77.1415 134.039 50.8508 148.313C50.8508 148.313 35.1805 157.692 24.6902 160.17C14.2 162.647 20.1758 164.539 20.1758 164.539C20.1758 164.539 25.7763 166.771 74.8492 163.303C74.8492 163.303 92.1862 162.767 103.122 162.502C114.058 162.237 136.995 162.767 151.93 161.436C166.864 160.105 194.336 161.701 194.336 161.701C194.336 161.701 225.006 163.303 239.41 162.502C253.814 161.701 293.017 163.568 299.684 163.833C306.35 164.099 353.556 164.634 362.891 161.166C372.225 157.697 368.491 151.807 355.423 149.019C342.355 146.231 298.883 136.477 289.284 133.884C279.684 131.292 228.504 123.023 193.285 128.624C164.672 133.173 152.26 132.443 148.616 132.007C146.644 131.772 144.662 131.627 142.675 131.607C138.717 131.567 132.556 131.802 125.299 133.113L125.278 133.123Z" fill="#8A9F8B"/>
<path d="M65.3904 163.633C65.3304 163.633 65.2753 163.613 65.2203 163.578C65.1402 163.518 56.8571 157.397 47.6531 158.178C40.366 158.804 34.4652 158.183 34.4052 158.178C34.25 158.163 34.1399 158.023 34.1549 157.868C34.1699 157.712 34.3101 157.602 34.4652 157.617C34.5253 157.622 40.371 158.238 47.6031 157.617C57.0223 156.812 65.4705 163.063 65.5506 163.128C65.6757 163.223 65.7007 163.398 65.6057 163.518C65.5506 163.593 65.4655 163.628 65.3804 163.628L65.3904 163.633Z" fill="#A7B6A6"/>
<path d="M88.6032 162.362C88.5381 162.362 88.4731 162.337 88.418 162.292C88.3529 162.237 81.8516 156.606 69.5295 154.369C57.0323 152.097 53.4238 148.729 53.2787 148.588C53.1686 148.483 53.1636 148.303 53.2687 148.193C53.3738 148.083 53.5539 148.078 53.6641 148.183C53.6991 148.218 57.3376 151.581 69.6297 153.819C82.1168 156.091 88.7233 161.816 88.7884 161.876C88.9035 161.982 88.9135 162.157 88.8134 162.272C88.7583 162.332 88.6833 162.367 88.6032 162.367V162.362Z" fill="#A7B6A6"/>
<path d="M130.214 160.871C95.1498 160.55 69.8851 140.916 69.6348 140.721C69.5147 140.626 69.4947 140.451 69.5898 140.325C69.6849 140.205 69.8601 140.18 69.9852 140.28C70.2354 140.476 95.355 159.99 130.224 160.31C130.379 160.31 130.504 160.44 130.499 160.59C130.499 160.745 130.374 160.866 130.219 160.866L130.214 160.871Z" fill="#A7B6A6"/>
<path d="M215.822 155.67C214.176 155.67 212.689 155.635 211.388 155.58C207.819 155.435 203.04 154.214 196.984 152.667C191.999 151.391 186.348 149.95 180.092 148.789C164.882 145.976 147.03 148.814 141.92 149.75C136.049 150.826 131.585 150.045 124.823 148.869C122.386 148.443 119.623 147.963 116.4 147.502C104.418 145.791 88.5929 134.234 88.4327 134.119C88.3076 134.029 88.2826 133.854 88.3727 133.729C88.4628 133.604 88.6379 133.579 88.763 133.669C88.9182 133.784 104.634 145.255 116.475 146.947C119.708 147.407 122.476 147.893 124.913 148.318C131.615 149.489 136.044 150.26 141.81 149.204C146.945 148.263 164.882 145.41 180.187 148.243C186.463 149.404 192.124 150.851 197.114 152.127C203.135 153.668 207.894 154.88 211.403 155.025C220.041 155.375 237.058 154.965 253.989 148.258C257.503 146.667 268.193 143.794 283.403 144.369C302.262 145.08 312.837 140.305 312.942 140.255C313.082 140.19 313.247 140.255 313.312 140.39C313.377 140.526 313.312 140.696 313.177 140.761C309.524 142.453 298.593 145.5 283.383 144.925C264.51 144.214 254.31 148.724 254.21 148.774C239.72 154.514 225.181 155.675 215.817 155.675L215.822 155.67Z" fill="#A7B6A6"/>
<path d="M214.916 161.721C208.645 161.721 201.794 161.536 197.029 160.88C188.831 159.754 180.703 158.118 180.623 158.103C166.789 153.698 154.062 153.979 142.836 154.224C140.303 154.279 137.911 154.334 135.564 154.334C119.443 154.334 102.421 150.14 96.6358 146.221C89.679 141.512 81.2307 136.722 81.1457 136.672C81.0105 136.597 80.9655 136.427 81.0406 136.291C81.1156 136.156 81.2858 136.111 81.4209 136.186C81.506 136.236 89.9693 141.031 96.9461 145.756C103.923 150.48 122.891 153.768 135.559 153.768C137.901 153.768 140.288 153.718 142.816 153.663C154.092 153.418 166.864 153.138 180.753 157.562C180.803 157.572 188.921 159.199 197.099 160.325C208.09 161.836 230.331 160.84 230.557 160.83C230.737 160.82 249.155 159.644 262.408 155.13C275.796 150.57 283.979 149.064 296.081 148.944C308.558 148.819 320.094 144.139 322.581 142.302C322.707 142.212 322.882 142.237 322.972 142.362C323.062 142.487 323.037 142.663 322.912 142.753C320.379 144.625 308.688 149.374 296.086 149.504C284.054 149.624 275.911 151.121 262.588 155.66C249.26 160.2 230.767 161.376 230.582 161.391C230.452 161.396 223.179 161.721 214.906 161.721H214.916Z" fill="#A7B6A6"/>
<path d="M273.589 162.512C273.484 162.512 273.384 162.452 273.334 162.347C273.268 162.207 273.334 162.042 273.469 161.977C273.579 161.927 284.685 156.837 294.484 155.115C297.052 154.664 300.135 154.419 303.398 154.164C313.037 153.403 325.034 152.457 336.515 145.741C336.65 145.661 336.821 145.706 336.896 145.841C336.976 145.976 336.931 146.146 336.796 146.221C325.204 153.003 313.137 153.954 303.438 154.719C300.19 154.975 297.117 155.22 294.579 155.665C284.855 157.372 273.814 162.432 273.704 162.482C273.664 162.502 273.624 162.507 273.589 162.507V162.512Z" fill="#A7B6A6"/>
<path d="M302.597 163.603C302.502 163.603 302.407 163.553 302.357 163.463C302.277 163.328 302.322 163.158 302.457 163.078C302.547 163.028 304.684 161.796 309.529 160.485C313.983 159.279 321.671 157.788 332.982 157.517C333.077 157.517 342.456 157.217 348.507 153.864C355.889 149.775 357.436 150.36 357.586 150.445C357.721 150.515 357.776 150.686 357.701 150.826C357.631 150.961 357.461 151.016 357.321 150.941C357.281 150.931 355.794 150.47 348.772 154.354C342.601 157.772 333.082 158.073 332.987 158.078C311.466 158.598 302.818 163.513 302.732 163.563C302.687 163.588 302.637 163.603 302.592 163.603H302.597Z" fill="#A7B6A6"/>
<path d="M217.789 149.119C211.894 149.119 206.754 147.948 200.608 146.547C196.789 145.676 192.46 144.69 187.355 143.874C171.85 141.386 168.752 141.652 158.492 142.523C154.242 142.883 148.957 143.333 141.105 143.749C114.048 145.185 91.1908 133.789 90.9656 133.674C90.8254 133.604 90.7704 133.434 90.8404 133.299C90.9105 133.158 91.0807 133.103 91.2158 133.173C91.441 133.289 114.173 144.615 141.074 143.188C148.917 142.773 154.197 142.322 158.441 141.962C168.757 141.086 171.865 140.821 187.44 143.318C192.565 144.139 196.904 145.13 200.728 146.001C213.395 148.889 221.768 150.796 241.468 143.333C267.073 133.639 290.38 134.72 290.616 134.735C290.771 134.745 290.891 134.875 290.881 135.03C290.871 135.185 290.741 135.316 290.586 135.296C290.355 135.286 267.158 134.204 241.668 143.859C231.368 147.758 224.141 149.119 217.784 149.119H217.789Z" fill="#A7B6A6"/>
<path d="M119.013 170.715C100.239 170.715 81.7963 168.263 63.9638 163.393C40.531 156.992 24.6905 156.892 15.5265 157.938C5.61685 159.064 1.18252 161.736 1.13748 161.766C0.787134 161.982 0.326685 161.872 0.111475 161.521C-0.103736 161.171 0.00136703 160.71 0.351709 160.495C1.08242 160.04 18.7997 149.509 64.3542 161.957C87.8372 168.373 112.386 170.555 137.31 168.453L199.206 159.87C199.756 159.789 255.201 151.927 297.967 163.173C325.279 170.355 351.274 168.028 368.271 164.809C386.709 161.321 398.836 156.061 398.956 156.006C399.331 155.841 399.772 156.011 399.937 156.391C400.102 156.767 399.932 157.207 399.552 157.372C399.432 157.427 387.18 162.742 368.591 166.266C351.435 169.519 325.184 171.871 297.587 164.614C255.116 153.448 199.967 161.261 199.411 161.346L137.471 169.934C131.285 170.455 125.129 170.72 119.003 170.72L119.013 170.715Z" fill="#C6D5DF"/>
<path d="M258.319 117.383C258.319 117.383 255.156 117.068 254.755 122.438C254.725 122.838 254.485 123.194 254.13 123.369C252.959 123.944 250.566 125.651 251.747 129.605C251.782 129.725 251.802 129.85 251.797 129.975C251.757 130.816 251.852 134.51 256.607 135.2C256.607 135.2 263.789 136.852 265.266 131.482C265.316 131.292 265.411 131.116 265.546 130.971C266.161 130.316 267.848 128.134 265.926 125.411C265.781 125.206 265.701 124.97 265.701 124.72C265.706 123.699 265.486 120.891 262.853 120.381C262.483 120.311 262.168 120.081 262.002 119.74C261.602 118.905 260.581 117.443 258.319 117.378V117.383Z" fill="#D5CA7A"/>
<path d="M107.056 114.31C107.056 114.31 104.008 113.9 102.717 120.997C102.662 121.302 102.476 121.562 102.201 121.702C101.125 122.253 98.4424 123.995 99.1731 127.438C99.2282 127.698 99.1881 127.968 99.043 128.189C98.4123 129.165 96.986 132.052 101.275 133.314C101.385 133.349 101.495 133.399 101.59 133.469C102.331 134.014 106.06 136.442 110.674 133.844C110.844 133.749 111.035 133.699 111.225 133.714C112.166 133.784 115.169 133.774 114.868 130.726C114.838 130.446 114.944 130.166 115.144 129.96C115.934 129.155 117.651 126.922 114.938 124.73C114.718 124.555 114.593 124.285 114.583 124.005C114.563 123.139 114.278 121.257 112.241 120.611C111.85 120.486 111.565 120.166 111.525 119.76C111.365 118.114 110.609 114.125 107.056 114.315V114.31Z" fill="#D5CA7A"/>
<g opacity="0.6">
<path d="M279.489 135.246C278.303 132.082 276.291 129.265 274.514 126.392C270.215 119.44 265.32 112.834 259.88 106.728C256.006 102.373 251.837 98.2844 247.368 94.5407C246.922 94.1704 245.761 94.6358 245.371 94.841C244.03 95.5417 242.688 96.2524 241.347 96.9581C241.287 93.1444 240.736 89.2255 239.605 85.607C238.789 83.0095 237.543 80.3469 235.461 78.5151C235.106 77.9495 233.845 77.2388 233.364 77.3489C232.904 77.2138 232.428 77.1087 231.943 76.9886C227.894 75.9726 223.845 74.9616 219.796 73.9456C215.046 72.7545 210.297 71.5633 205.547 70.3771C204.071 70.0068 202.589 69.6364 201.113 69.266C200.627 69.1459 200.017 68.8707 199.546 69.0709C198.4 69.5513 197.284 70.1569 196.168 70.7025C194.106 71.7034 192.044 72.7044 189.982 73.7104C185.132 76.0827 180.287 78.47 175.493 80.9625C173.826 81.8283 172.154 82.6942 170.543 83.6551C170.217 83.8453 169.642 84.0805 169.412 84.3908C169.247 84.611 169.171 85.0014 169.071 85.2517C167.435 89.4057 165.818 93.5648 164.222 97.7339C163.816 98.7949 163.406 99.8559 163 100.917C159.492 98.945 155.503 97.5487 151.594 97.0031C149.547 96.7179 147.215 96.3976 145.388 97.5237C144.572 98.0241 143.767 98.5346 142.961 99.0501C133.837 104.891 125.028 111.252 116.61 118.069C110.099 123.339 103.818 128.909 97.9869 134.93C97.6917 135.235 98.1021 135.581 98.3873 135.581C99.6986 135.586 101.01 135.596 102.321 135.601C105.935 135.621 109.543 135.641 113.157 135.661C118.587 135.691 124.017 135.721 129.448 135.746C136.214 135.781 142.986 135.816 149.753 135.851C157.375 135.891 164.997 135.926 172.62 135.966C180.618 136.006 188.61 136.046 196.608 136.081C204.496 136.116 212.384 136.156 220.271 136.191C227.569 136.221 234.866 136.256 242.163 136.282C248.389 136.307 254.615 136.327 260.836 136.347C265.506 136.362 270.18 136.372 274.85 136.377C275.695 136.377 276.541 136.377 277.382 136.377C277.687 136.377 280.05 136.747 279.484 135.235L279.489 135.246Z" fill="#F8FAFA"/>
</g>
<path d="M279.489 135.246C278.303 132.082 276.291 129.265 274.514 126.392C270.215 119.44 265.32 112.834 259.88 106.728C256.006 102.373 251.837 98.2844 247.368 94.5407C246.922 94.1704 245.761 94.6358 245.371 94.841C244.03 95.5417 242.688 96.2524 241.347 96.9581C241.287 93.1444 240.736 89.2255 239.605 85.607C238.789 83.0095 237.543 80.3469 235.461 78.5151C235.106 77.9495 233.845 77.2388 233.364 77.3489C232.904 77.2138 232.428 77.1087 231.943 76.9886C227.894 75.9726 223.845 74.9616 219.796 73.9456C215.046 72.7545 210.297 71.5633 205.547 70.3771C204.071 70.0068 202.589 69.6364 201.113 69.266C200.627 69.1459 200.017 68.8707 199.546 69.0709C198.4 69.5513 197.284 70.1569 196.168 70.7025C194.106 71.7034 192.044 72.7044 189.982 73.7104C185.132 76.0827 180.287 78.47 175.493 80.9625C173.826 81.8283 172.154 82.6942 170.543 83.6551C170.217 83.8453 169.642 84.0805 169.412 84.3908C169.247 84.611 169.171 85.0014 169.071 85.2517C167.435 89.4057 165.818 93.5648 164.222 97.7339C163.816 98.7949 163.406 99.8559 163 100.917C159.492 98.945 155.503 97.5487 151.594 97.0031C149.547 96.7179 147.215 96.3976 145.388 97.5237C144.572 98.0241 143.767 98.5346 142.961 99.0501C133.837 104.891 125.028 111.252 116.61 118.069C110.099 123.339 103.818 128.909 97.9869 134.93C97.6917 135.235 98.1021 135.581 98.3873 135.581C99.6986 135.586 101.01 135.596 102.321 135.601C105.935 135.621 109.543 135.641 113.157 135.661C118.587 135.691 124.017 135.721 129.448 135.746C136.214 135.781 142.986 135.816 149.753 135.851C157.375 135.891 164.997 135.926 172.62 135.966C180.618 136.006 188.61 136.046 196.608 136.081C204.496 136.116 212.384 136.156 220.271 136.191C227.569 136.221 234.866 136.256 242.163 136.282C248.389 136.307 254.615 136.327 260.836 136.347C265.506 136.362 270.18 136.372 274.85 136.377C275.695 136.377 276.541 136.377 277.382 136.377C277.687 136.377 280.05 136.747 279.484 135.235L279.489 135.246ZM266.351 135.02C260.461 135.005 254.565 134.985 248.674 134.96C241.592 134.935 234.51 134.905 227.428 134.875C219.641 134.84 211.848 134.805 204.061 134.77C198.165 134.745 192.269 134.715 186.373 134.685C186.458 132.633 186.699 126.702 186.699 123.919C186.699 120.526 185.402 121.412 185.402 121.412C182.565 122.663 179.677 124.955 178.706 125.756C178.491 125.936 178.355 126.197 178.34 126.477C178.18 129.56 177.96 134.595 177.96 134.595L178.521 134.65C171.259 134.615 164.001 134.58 156.739 134.54C149.717 134.505 142.701 134.47 135.679 134.43C129.878 134.4 124.077 134.37 118.282 134.34C114.183 134.32 110.089 134.295 105.99 134.275C104.734 134.27 103.477 134.26 102.221 134.255C102.061 134.255 101.896 134.245 101.731 134.235C109.108 126.682 115.349 121.527 123.857 115.046C129.618 110.656 139.553 103.95 146.114 99.6758C146.254 99.941 146.399 100.206 146.554 100.492C148.091 103.354 150.463 105.627 153.116 107.453C155.058 108.795 157.18 109.861 159.362 110.762C159.172 111.307 158.977 111.853 158.791 112.398C158.561 113.074 158.306 113.739 158.146 114.435C157.92 115.391 160.013 117.078 160.883 114.505C162.045 111.087 162.945 108.199 164.212 104.821C165.878 100.371 167.49 96.6978 169.212 92.2685C169.822 90.692 170.438 89.1204 171.058 87.5439C171.233 87.1035 171.404 86.663 171.579 86.2226C171.639 86.0675 171.689 85.8573 171.794 85.7271C172.034 85.4419 172.545 85.2316 172.86 85.0465C173.466 84.6911 174.081 84.3508 174.697 84.0155C176.353 83.1146 178.025 82.2487 179.702 81.3929C186.774 77.7744 192.589 75.0267 199.746 71.5833C199.962 71.4782 200.337 71.3831 200.507 71.218C200.512 71.213 200.507 71.2079 200.517 71.2029C201.248 71.4131 202.004 71.5733 202.739 71.7585C206.243 72.6343 209.751 73.5152 213.255 74.3911C219.225 75.8875 225.196 77.384 231.162 78.8754C230.677 79.3409 230.236 79.8414 229.836 80.3219C226.838 83.9204 225.156 88.5249 224.06 93.0243C222.999 97.3785 222.333 102.869 222.098 107.393C221.478 107.739 220.857 108.084 220.236 108.429C217.253 110.111 214.281 111.823 211.353 113.599C210.887 113.88 211.092 114.15 211.538 114.23C213.039 114.49 214.646 114 215.166 113.684C216.598 112.814 218.039 111.958 219.491 111.112C220.246 111.472 221.047 111.758 221.813 111.983C225.126 112.939 228.64 112.929 232.008 112.268C235.927 111.497 239.961 110.081 242.778 107.133C244.715 105.106 246.027 102.519 246.757 99.8309C246.957 99.0852 247.133 98.3194 247.253 97.5437C253.824 103.359 259.72 109.921 264.96 116.958C268.754 122.058 272.247 127.408 275.295 132.988C275.665 133.664 276.026 134.345 276.376 135.03C273.033 135.03 269.685 135.02 266.341 135.015L266.351 135.02Z" fill="#E1E2E5"/>
<path d="M133.601 115.131C133.601 115.131 133.496 119.66 133.471 119.981C133.456 120.161 136.374 119.981 136.374 119.981C136.374 119.981 136.344 116.662 136.374 115.131C136.374 115.131 135.053 114.956 133.601 115.131Z" fill="#B5BCC1"/>
<path d="M184.626 88.3397C184.626 88.3397 184.536 91.9132 184.631 93.1494C184.647 93.3296 187.399 93.1894 187.399 93.1894C187.399 93.1894 187.369 89.8712 187.399 88.3397C187.399 88.3397 186.078 88.1645 184.626 88.3397Z" fill="#B5BCC1"/>
<path d="M196.938 97.4486C196.938 97.4486 196.998 100.942 196.963 102.559C196.963 102.559 198.57 102.739 200.336 102.539C200.336 102.539 200.427 98.7749 200.301 97.4736C200.281 97.2884 196.933 97.4486 196.933 97.4486H196.938Z" fill="#B5BCC1"/>
<path d="M235.541 117.083C235.541 117.083 235.596 120.581 235.566 122.198C235.566 122.198 237.027 122.378 238.629 122.183C238.629 122.183 238.709 118.414 238.594 117.108C238.579 116.923 235.536 117.083 235.536 117.083H235.541Z" fill="#B5BCC1"/>
<path d="M146.043 120.927C146.043 120.927 145.938 125.746 145.913 126.092C145.898 126.282 148.816 126.092 148.816 126.092C148.816 126.092 148.786 122.558 148.816 120.927C148.816 120.927 147.495 120.736 146.043 120.927Z" fill="#B5BCC1"/>
<path d="M207.438 80.452C207.438 80.452 207.308 85.7172 207.283 86.0875C207.268 86.2927 210.777 86.0875 210.777 86.0875C210.777 86.0875 210.737 82.2288 210.777 80.452C210.777 80.452 209.185 80.2468 207.438 80.452Z" fill="#B5BCC1"/>
<path d="M247.608 112.303C247.608 112.303 247.463 117.143 247.433 117.483C247.413 117.673 251.377 117.483 251.377 117.483C251.377 117.483 251.331 113.935 251.377 112.303C251.377 112.303 249.585 112.113 247.613 112.303H247.608Z" fill="#B5BCC1"/>
<path d="M155.578 99.6808C153.886 100.261 152.49 100.737 150.528 101.407C150.318 101.478 150.108 101.553 149.902 101.623C149.617 101.222 149.347 100.807 149.112 100.406C149.082 100.356 149.057 100.306 149.027 100.256C148.972 100.156 148.922 100.051 148.866 99.946C148.766 99.7459 148.671 99.5407 148.581 99.3355C148.446 99.0201 148.326 98.6948 148.221 98.3695C148.181 98.2444 148.146 98.1243 148.116 97.9991C150.658 98.1593 153.181 98.7949 155.573 99.6858L155.578 99.6808Z" fill="#B5BCC1"/>
<path d="M158.215 100.772C159.447 101.332 160.663 101.948 161.819 102.654C161.809 102.654 161.804 102.654 161.794 102.654C159.226 103.424 156.654 104.195 154.086 104.966C153.846 105.036 153.606 105.111 153.366 105.181C152.61 104.586 151.894 103.945 151.224 103.244C151.159 103.174 151.089 103.099 151.023 103.024C153.166 102.323 156.008 101.478 158.215 100.762V100.772Z" fill="#B5BCC1"/>
<path d="M159.987 108.975C158.245 108.249 156.559 107.383 154.987 106.352C157.094 105.797 159.987 105.111 161.534 104.756C161.008 106.157 160.488 107.563 159.982 108.975H159.987Z" fill="#B5BCC1"/>
<path d="M227.869 89.4959C228.945 90.8272 230.116 92.3486 231.322 93.8701C231.232 94.796 231.137 95.7219 231.057 96.6478C230.907 98.3595 230.686 100.897 230.636 102.689C228.654 103.765 226.677 104.851 224.706 105.942C225.011 99.9711 225.752 94.9011 227.864 89.4908L227.869 89.4959Z" fill="#B5BCC1"/>
<path d="M231.622 90.8672C230.641 89.7511 229.66 88.625 228.689 87.5389C228.734 87.4389 228.774 87.3388 228.819 87.2387C229.815 85.0465 231.081 82.8494 232.753 81.0626C232.348 84.3258 231.962 87.594 231.622 90.8672Z" fill="#B5BCC1"/>
<path d="M237.808 86.4729C238.479 89.2706 238.824 92.1535 238.959 95.0263C238.984 95.5368 239.024 97.3385 239.029 98.1843C237.063 99.2304 235.101 100.281 233.139 101.337C233.289 98.3395 233.644 95.3416 233.959 92.3637C234.355 88.645 234.795 84.9314 235.251 81.2178C235.296 80.8474 235.346 80.472 235.391 80.1017C236.602 82.0236 237.308 84.3859 237.808 86.4779V86.4729Z" fill="#B5BCC1"/>
<path d="M241.447 104.736C241.402 104.796 241.352 104.851 241.307 104.911C238.979 104.22 236.652 103.53 234.325 102.844C237.718 101.017 241.121 99.2203 244.525 97.4236C244.485 97.6288 244.455 97.834 244.41 98.0342C243.884 100.432 242.938 102.774 241.447 104.736Z" fill="#B5BCC1"/>
<path d="M222.729 110.692C222.729 110.692 222.714 110.692 222.704 110.687C222.689 110.687 222.684 110.682 222.669 110.677C222.518 110.636 222.373 110.596 222.223 110.551C221.968 110.476 221.718 110.396 221.467 110.306C221.352 110.266 221.237 110.221 221.122 110.176C224.821 108.034 228.559 105.962 232.323 103.92C234.645 104.636 237.728 105.717 240.116 106.222C238.074 108.184 235.506 109.35 232.708 110.141C229.49 111.047 226.137 111.407 222.909 110.727C222.849 110.712 222.789 110.702 222.724 110.687L222.729 110.692Z" fill="#B5BCC1"/>
<path d="M286.311 119.6C286.076 119.51 285.895 119.315 285.875 119.065C285.805 118.114 285.48 115.977 284.029 115.927C282.262 115.867 280.745 117.698 280.35 120.106C280.31 120.351 280.135 120.551 279.895 120.601C278.864 120.816 276.196 121.697 276.176 125.076C276.176 125.271 276.091 125.451 275.941 125.571C275.125 126.182 272.668 128.364 275.04 130.941C275.195 131.111 275.235 131.357 275.145 131.572C274.664 132.728 273.423 136.347 275.861 138.063C276.001 138.158 276.096 138.298 276.126 138.469C276.301 139.45 277.212 142.863 281.311 141.822C281.431 141.792 281.561 141.792 281.681 141.837C282.512 142.162 286.201 143.308 288.363 139.004C288.408 138.919 288.468 138.839 288.548 138.784C289.404 138.168 294.474 134.234 290.94 130.181C290.835 130.06 290.775 129.905 290.785 129.745C290.84 128.729 290.86 124.74 287.917 121.983C287.832 121.902 287.767 121.802 287.742 121.682C287.637 121.222 287.262 119.951 286.326 119.6H286.311Z" fill="#D5CA7A"/>
<path d="M272.447 106.918C272.447 106.918 269.369 106.392 267.948 111.437C267.858 111.758 267.587 111.993 267.262 112.063C265.635 112.408 261.046 113.87 262.587 119.31C262.698 119.69 262.547 120.096 262.217 120.311C260.706 121.297 257.002 124.355 260.575 128.829C260.781 129.084 260.826 129.43 260.696 129.73C260.085 131.167 258.784 135.366 263.749 136.747C264.024 136.822 264.254 137.012 264.364 137.277C264.955 138.739 267.472 143.393 274.719 139.875C274.839 139.815 274.97 139.785 275.105 139.785C276.281 139.785 282.492 139.44 281.441 132.713C281.396 132.418 281.506 132.117 281.726 131.912C282.777 130.926 285.49 127.703 282.147 123.084C282.026 122.913 281.956 122.713 281.971 122.508C282.016 121.692 281.961 119.43 280.059 118.464C279.764 118.314 279.564 118.024 279.549 117.693C279.484 116.477 278.983 113.604 275.815 112.473C275.435 112.338 275.19 111.978 275.21 111.572C275.285 110.211 275.13 107.288 272.447 106.923V106.918Z" fill="#808D7E"/>
<path d="M118.902 121.963C118.482 122.003 116.48 122.318 115.995 124.635C115.919 125 115.624 125.291 115.249 125.311C114.143 125.366 112.011 126.011 112.091 130.161C112.091 130.411 111.996 130.651 111.805 130.811C110.945 131.552 108.667 133.989 110.845 137.553C111.03 137.853 111 138.238 110.769 138.504C109.613 139.85 106.796 143.954 112.771 146.421C112.846 146.451 112.917 146.496 112.982 146.547C113.517 146.997 116.455 149.234 119.973 147.417C120.119 147.342 120.284 147.307 120.449 147.327C121.67 147.472 127.105 147.868 126.89 143.183C126.88 142.948 126.955 142.723 127.115 142.553C127.921 141.727 130.168 138.889 127.236 135.301C127.105 135.14 127.03 134.94 127.04 134.73C127.105 133.689 127.07 130.321 124.107 129.135C123.767 128.999 123.547 128.664 123.582 128.299C123.647 127.588 123.622 126.467 122.881 125.926C122.686 125.786 122.561 125.571 122.536 125.336C122.436 124.375 121.9 122.068 119.027 121.958C118.982 121.958 118.937 121.958 118.892 121.958L118.902 121.963Z" fill="#808D7E"/>
<path d="M126.585 131.877C126.585 131.877 124.458 131.877 124.022 134.28C123.962 134.62 123.732 134.91 123.407 135.03C122.326 135.431 120.088 136.637 121.119 139.555C121.169 139.695 121.189 139.84 121.174 139.99C121.054 141.061 120.799 145.841 125.539 145.711C125.789 145.706 126.029 145.786 126.214 145.946C126.995 146.622 129.327 148.148 131.409 144.56C131.505 144.394 131.64 144.254 131.81 144.169C132.656 143.744 135.278 142.107 133.456 138.794C133.376 138.644 133.326 138.479 133.326 138.308C133.346 137.478 133.156 134.75 129.963 134.375C129.623 134.335 129.332 134.114 129.192 133.804C128.867 133.083 128.096 131.877 126.58 131.877H126.585Z" fill="#D5CA7A"/>
</svg>
