<svg width="280" height="140" viewBox="0 0 280 140" fill="none" xmlns="http://www.w3.org/2000/svg">
<g clip-path="url(#clip0_5202_22941)">
<path d="M105.872 66.6648C105.872 66.6648 95.7647 79.6542 104.001 102.377C104.001 102.377 110.312 120.259 116.237 107.563" fill="#DAD9D4"/>
<path d="M111.625 113.34C111.559 113.34 111.495 113.34 111.429 113.334C106.625 113.1 103.221 103.841 102.849 102.784C98.4958 90.7672 99.257 81.4262 100.665 75.708C102.208 69.4399 104.802 66.0563 104.912 65.9137C105.327 65.3816 106.093 65.2849 106.625 65.6999C107.157 66.1123 107.254 66.8786 106.841 67.4107C106.798 67.4693 104.402 70.6416 103.005 76.4285C101.709 81.7953 101.029 90.5814 105.151 101.962C106.442 105.61 109.278 110.786 111.551 110.895C112.684 110.951 113.95 109.584 115.134 107.046C115.419 106.435 116.147 106.17 116.758 106.455C117.369 106.74 117.634 107.466 117.348 108.08C115.719 111.57 113.797 113.34 111.63 113.34H111.625Z" fill="#333333"/>
<path d="M192.199 67.892C191.153 67.0365 190.998 65.481 191.853 64.4346L223.637 25.5708C224.492 24.5244 226.048 24.3691 227.094 25.2245C228.141 26.08 228.296 27.6355 227.44 28.6819L195.657 67.5457C194.801 68.5921 193.246 68.7474 192.199 67.892Z" fill="#C2C2C2"/>
<path d="M193.747 69.2464C192.995 69.2464 192.278 68.9918 191.692 68.5131C190.299 67.3751 190.093 65.318 191.231 63.9254L223.015 25.0616C224.153 23.6689 226.21 23.4627 227.602 24.6008C228.995 25.7388 229.201 27.7959 228.063 29.1885L196.28 68.0523C195.73 68.7245 194.948 69.142 194.08 69.2286C193.968 69.2387 193.856 69.2464 193.747 69.2464ZM225.54 25.4715C225.062 25.4715 224.586 25.6777 224.257 26.0774L192.474 64.9412C191.896 65.6464 192 66.6928 192.708 67.2707C193.049 67.5482 193.479 67.6781 193.92 67.6322C194.363 67.589 194.757 67.3751 195.037 67.0365L226.821 28.1727C227.399 27.4649 227.294 26.4211 226.587 25.8432C226.279 25.5911 225.909 25.4715 225.54 25.4715Z" fill="#666666"/>
<path d="M223.305 44.37C217.768 39.9884 215.087 34.1786 214.007 31.2176C213.498 29.825 212.813 28.5011 211.94 27.302L209.817 24.392C208.933 23.1801 207.749 22.2177 206.385 21.594L197.011 17.3193L194.592 19.0837L193.805 19.6591L191.387 21.4234L192.601 31.653C192.777 33.1424 193.334 34.563 194.22 35.7749L196.344 38.6849C197.219 39.884 198.268 40.938 199.442 41.8469C201.935 43.7793 206.65 48.1023 209.134 54.7116C212.612 63.9635 217.877 64.4447 217.877 64.4447L223.501 60.3407L224.288 59.7653L229.912 55.6612C229.912 55.6612 231.06 50.5031 223.308 44.37H223.305Z" fill="#F7F8F8"/>
<path d="M217.874 65.262C217.848 65.262 217.825 65.262 217.8 65.2594C217.563 65.239 211.988 64.6229 208.37 55.0018C205.969 48.6166 201.432 44.426 198.94 42.4936C197.674 41.5134 196.577 40.3932 195.683 39.1686L193.56 36.2586C192.595 34.9373 191.984 33.3791 191.791 31.7523L190.576 21.5227C190.541 21.2299 190.668 20.9422 190.905 20.7691L196.529 16.665C196.765 16.4919 197.079 16.4588 197.346 16.581L206.718 20.8556C208.207 21.5354 209.505 22.592 210.468 23.9133L212.591 26.8233C213.485 28.0479 214.218 29.4329 214.765 30.9401C215.845 33.9011 218.454 39.5021 223.803 43.7335C231.864 50.1111 230.749 55.6103 230.698 55.842C230.654 56.0355 230.542 56.206 230.382 56.3232L218.347 65.1067C218.207 65.2085 218.039 65.2645 217.866 65.2645L217.874 65.262ZM192.251 21.8053L193.41 31.5613C193.57 32.9081 194.077 34.2015 194.876 35.2988L197 38.2088C197.804 39.3112 198.792 40.3194 199.938 41.2079C202.565 43.2447 207.351 47.6695 209.895 54.429C211.59 58.9378 213.704 61.2063 215.178 62.3112C216.303 63.1565 217.235 63.4696 217.678 63.5816L229.14 55.2157C229.206 54.1286 228.997 49.9176 222.795 45.0115C217.13 40.5307 214.376 34.6216 213.238 31.5002C212.741 30.1382 212.082 28.8881 211.277 27.7857L209.154 24.8757C208.355 23.7784 207.278 22.9026 206.043 22.3399L197.104 18.2639L192.249 21.8078L192.251 21.8053Z" fill="#889298"/>
<g opacity="0.4">
<path d="M219.582 58.0621C219.582 58.0621 217.512 51.5725 223.309 55.3405L219.582 58.0621Z" fill="#F7F8F8"/>
<path d="M219.58 58.6273C219.341 58.6273 219.117 58.4745 219.04 58.2327C218.867 57.6929 218.075 54.9458 219.404 53.9326C220.265 53.2757 221.642 53.5812 223.618 54.8644C223.88 55.035 223.954 55.3863 223.783 55.6485C223.613 55.9108 223.261 55.9846 222.999 55.814C220.899 54.4494 220.242 54.7167 220.092 54.8338C219.595 55.2132 219.789 56.8502 220.12 57.889C220.214 58.1868 220.051 58.5051 219.753 58.6018C219.697 58.6196 219.639 58.6298 219.58 58.6298V58.6273Z" fill="#8592B8"/>
</g>
<g opacity="0.4">
<path d="M225.87 54.037C225.643 54.037 225.432 53.902 225.343 53.678C225.126 53.1332 224.103 50.353 225.305 49.2913C225.995 48.6803 227.11 48.8127 228.716 49.6936C228.991 49.8438 229.09 50.1901 228.94 50.4625C228.79 50.7349 228.444 50.8367 228.171 50.6865C226.926 50.0042 226.262 49.9558 226.056 50.1391C225.628 50.5185 225.984 52.2243 226.397 53.2579C226.511 53.5482 226.371 53.8791 226.079 53.9937C226.01 54.0217 225.939 54.0344 225.87 54.0344V54.037Z" fill="#8592B8"/>
<path d="M213.111 61.9523C212.847 61.9523 212.607 61.7639 212.556 61.494C212.208 59.6966 212.421 58.5916 213.211 58.1206C214.591 57.2983 216.923 59.1212 217.378 59.4929C217.62 59.6915 217.656 60.0479 217.457 60.2898C217.259 60.5316 216.902 60.5673 216.66 60.3687C215.777 59.6431 214.288 58.7979 213.794 59.0932C213.557 59.2358 213.399 59.8824 213.671 61.2751C213.73 61.5831 213.531 61.881 213.223 61.9395C213.188 61.9472 213.15 61.9497 213.114 61.9497L213.111 61.9523Z" fill="#8592B8"/>
</g>
<path d="M217.874 65.262C217.848 65.262 217.825 65.262 217.8 65.2594C217.563 65.239 211.988 64.6229 208.37 55.0018C205.969 48.6166 201.432 44.426 198.94 42.4936C197.674 41.5134 196.577 40.3932 195.683 39.1686L193.56 36.2586C192.595 34.9373 191.984 33.3791 191.791 31.7523L190.576 21.5227C190.541 21.2299 190.668 20.9422 190.905 20.7691L196.529 16.665C196.765 16.4919 197.079 16.4588 197.346 16.581L206.718 20.8556C208.207 21.5354 209.505 22.592 210.468 23.9133L212.591 26.8233C213.485 28.0479 214.218 29.4329 214.765 30.9401C215.845 33.9011 218.454 39.5021 223.803 43.7335C231.864 50.1111 230.749 55.6103 230.698 55.842C230.654 56.0355 230.542 56.206 230.382 56.3232L218.347 65.1067C218.207 65.2085 218.039 65.2645 217.866 65.2645L217.874 65.262ZM192.251 21.8053L193.41 31.5613C193.57 32.9081 194.077 34.2015 194.876 35.2988L197 38.2088C197.804 39.3112 198.792 40.3194 199.938 41.2079C202.565 43.2447 207.351 47.6695 209.895 54.429C211.59 58.9378 213.704 61.2063 215.178 62.3112C216.303 63.1565 217.235 63.4696 217.678 63.5816L229.14 55.2157C229.206 54.1286 228.997 49.9176 222.795 45.0115C217.13 40.5307 214.376 34.6216 213.238 31.5002C212.741 30.1382 212.082 28.8881 211.277 27.7857L209.154 24.8757C208.355 23.7784 207.278 22.9026 206.043 22.3399L197.104 18.2639L192.249 21.8078L192.251 21.8053Z" fill="#7292A1"/>
<path d="M194.318 12.2355L187.359 17.3153L190.57 21.7138L197.529 16.6339L194.318 12.2355Z" fill="#4DB7DA"/>
<path d="M190.571 22.5284C190.53 22.5284 190.487 22.5258 190.446 22.5182C190.232 22.4851 190.041 22.368 189.914 22.1923L186.703 17.7955C186.439 17.4314 186.518 16.9222 186.882 16.6574L193.84 11.5783C194.013 11.451 194.232 11.3975 194.446 11.4306C194.659 11.4637 194.85 11.5808 194.978 11.7565L198.188 16.1533C198.453 16.5174 198.374 17.0266 198.01 17.2914L191.052 22.3705C190.912 22.4724 190.744 22.5284 190.571 22.5284ZM188.498 17.495L190.749 20.5756L196.391 16.4563L194.14 13.3757L188.498 17.495Z" fill="#3576BA"/>
<path d="M194.577 16.8662C194.435 16.8662 194.295 16.8 194.205 16.6778L193.167 15.2546C193.017 15.0484 193.062 14.7607 193.266 14.6105C193.472 14.4602 193.76 14.5061 193.91 14.7097L194.949 16.1329C195.099 16.3391 195.053 16.6268 194.85 16.777C194.768 16.8381 194.671 16.8662 194.58 16.8662H194.577Z" fill="#D0E9FF"/>
<path d="M193.007 18.0093C192.864 18.0093 192.724 17.9431 192.635 17.8209L191.596 16.3978C191.446 16.1915 191.492 15.9038 191.696 15.7536C191.902 15.6034 192.19 15.6493 192.34 15.8529L193.379 17.2761C193.529 17.4823 193.483 17.77 193.279 17.9202C193.198 17.9813 193.101 18.0093 193.009 18.0093H193.007Z" fill="#D0E9FF"/>
<path d="M213.762 30.0364L198.387 41.2589C198.669 41.5084 198.962 41.7477 199.263 41.9768C201.59 43.7565 205.836 47.5957 208.392 53.4387L222.313 43.2778C217.527 39.0617 215.164 33.8477 214.179 31.0904C214.052 30.734 213.912 30.3826 213.762 30.0364Z" fill="#4DB7DA"/>
<path d="M208.396 54.0064C208.348 54.0064 208.297 53.9987 208.248 53.986C208.083 53.9402 207.945 53.8231 207.877 53.6652C205.364 47.9241 201.188 44.1587 198.922 42.4274C198.617 42.1932 198.311 41.9437 198.016 41.684C197.886 41.5695 197.815 41.404 197.825 41.2334C197.833 41.0628 197.919 40.9024 198.057 40.8006L213.432 29.5781C213.569 29.4762 213.747 29.4431 213.913 29.489C214.078 29.5348 214.216 29.6519 214.285 29.8098C214.443 30.1713 214.588 30.5379 214.718 30.8994C215.677 33.5854 217.989 38.7104 222.691 42.8526C222.821 42.9672 222.89 43.1327 222.882 43.3032C222.875 43.4738 222.788 43.6342 222.651 43.736L208.729 53.8969C208.633 53.9682 208.513 54.0064 208.396 54.0064ZM199.307 41.2919C199.406 41.3734 199.508 41.4523 199.61 41.5287C201.878 43.2625 205.987 46.9592 208.623 52.573L221.418 43.2345C216.874 39.0133 214.608 33.9724 213.648 31.2839C213.605 31.1642 213.562 31.0445 213.513 30.9249L199.307 41.2945V41.2919Z" fill="#3576BA"/>
<path opacity="0.37" d="M198.892 36.9537C198.77 36.9537 198.647 36.9155 198.543 36.834C195.984 34.8406 194.673 31.2457 194.62 31.0955C194.513 30.8002 194.668 30.4768 194.961 30.3699C195.256 30.2655 195.58 30.4157 195.687 30.7111C195.699 30.7442 196.944 34.1506 199.238 35.9404C199.485 36.1339 199.528 36.4878 199.337 36.7348C199.225 36.8773 199.06 36.9537 198.889 36.9537H198.892Z" fill="#8592B8"/>
<path opacity="0.63" d="M207.765 26.1513C206.917 24.9903 205.364 24.6822 204.298 25.4613C203.231 26.2404 203.05 27.8137 203.898 28.9747C204.13 29.2929 204.415 29.5399 204.728 29.7232C204.728 29.7258 204.728 29.7308 204.728 29.7334C204.72 30.1509 204.725 30.5634 204.858 30.9656C205.196 31.9916 206.25 32.5619 207.289 32.2335C208.17 31.9535 208.89 31.1311 208.99 30.2018C209.079 29.3464 208.748 28.575 208.287 27.885C208.315 27.2969 208.152 26.6834 207.765 26.1538V26.1513Z" fill="#8D5E5F"/>
<path opacity="0.63" d="M198.067 26.0443C198.508 26.6477 198.391 27.4853 197.805 27.913C197.219 28.3407 196.387 28.1981 195.946 27.5922C195.506 26.9888 195.623 26.1512 196.209 25.7235C196.794 25.2958 197.627 25.4383 198.067 26.0443Z" fill="#8D5E5F"/>
<path d="M191.269 68.3248C190.093 67.6603 189.675 66.1531 190.34 64.9769L215.056 21.2758C215.72 20.0996 217.227 19.682 218.403 20.3465C219.58 21.011 219.997 22.5182 219.333 23.6944L194.617 67.3955C193.952 68.5717 192.445 68.9893 191.269 68.3248Z" fill="#F2F2F2"/>
<path d="M192.467 69.445C191.912 69.445 191.368 69.3024 190.874 69.0224C189.308 68.1364 188.755 66.1455 189.641 64.5797L214.357 20.8786C215.241 19.3129 217.234 18.7604 218.8 19.6464C220.366 20.5324 220.918 22.5233 220.032 24.0891L195.316 67.7901C194.889 68.5463 194.191 69.0911 193.351 69.3228C193.061 69.4043 192.763 69.4425 192.47 69.4425L192.467 69.445ZM191.663 67.6272C192.045 67.8436 192.493 67.8971 192.921 67.7774C193.348 67.6577 193.702 67.3828 193.919 67.0009L218.635 23.2998C219.083 22.5055 218.803 21.4947 218.008 21.0441C217.214 20.596 216.203 20.8761 215.753 21.6704L191.037 65.3715C190.588 66.1658 190.869 67.1766 191.663 67.6272Z" fill="#666666"/>
<path d="M187.187 53.6195C187.187 53.6195 199.173 58.6045 199.219 72.3194L197.74 83.6209L190.621 93.1554L180.45 99.0035L174.475 98.6216L171.043 94.5532L174.348 72.6861L174.475 70.7792L179.559 75.3568L182.609 75.8659L185.534 72.9407L187.314 69.8906L184.009 68.111L184.773 64.2972L188.913 63.2941L185.17 58.7445L185.537 54.7626L187.189 53.6195H187.187Z" fill="#DAD9D4"/>
<path d="M192.444 76.6195C192.444 76.6195 193.35 83.6106 185.572 91.391C185.572 91.391 176.618 99.2605 172.73 89.4918L174.474 70.7842L179.966 76.2885L185.03 75.4738C185.03 75.4738 185.391 78.0961 192.444 76.622V76.6195Z" fill="#F8F8F4"/>
<path d="M178.73 99.9021C177.701 99.9021 176.622 99.7417 175.576 99.3115C173.32 98.3873 171.711 96.4422 170.792 93.5347C170.588 92.8906 170.944 92.2058 171.589 92.0021C172.233 91.7984 172.918 92.1548 173.121 92.799C173.814 94.9859 174.952 96.4167 176.505 97.0532C179.44 98.2575 183.137 96.3862 183.175 96.3658C183.198 96.3531 183.224 96.3404 183.249 96.3302C189.774 93.4278 194.219 88.5625 196.462 81.8718C198.155 76.8181 197.896 72.5562 197.893 72.5154C197.883 72.3729 196.898 58.803 187.918 55.1063C187.727 55.0987 187.259 55.1241 186.928 55.4653C186.625 55.7784 186.174 56.6339 186.536 58.8743C186.617 59.1594 187.33 61.4635 189.522 62.4793C190.034 62.7161 190.317 63.2737 190.204 63.8261C190.092 64.3786 189.619 64.7834 189.054 64.8063C187.72 64.8623 186.072 65.3512 185.874 65.9215C185.853 65.9749 185.833 66.0284 185.805 66.0793C185.805 66.0793 185.377 66.9704 185.757 67.696C186.108 68.3656 187.149 68.8595 188.69 69.0886C189.232 69.1701 189.652 69.6003 189.721 70.1426C189.789 70.6849 189.487 71.2094 188.982 71.4207C188.155 71.7746 186.421 72.8591 186.676 73.7706C186.701 73.8648 186.714 73.9132 186.719 74.0099C186.719 74.0201 186.813 74.7584 187.539 75.2625C188.463 75.9066 190.067 75.9728 192.18 75.456C192.519 75.3745 192.873 75.4382 193.16 75.6342C193.445 75.8303 193.636 76.1383 193.682 76.482C193.703 76.6475 194.181 80.5733 191.533 85.7467C191.225 86.3475 190.49 86.5843 189.889 86.2788C189.288 85.9708 189.051 85.235 189.357 84.6341C190.777 81.8565 191.167 79.5041 191.259 78.1216C189.072 78.4348 187.33 78.1292 186.067 77.2127C184.667 76.1969 184.362 74.7915 184.298 74.3282C183.936 72.877 184.639 71.6422 185.627 70.7129C184.672 70.2419 183.985 69.5978 183.572 68.7882C182.719 67.118 183.397 65.4505 183.595 65.0304C183.957 64.0858 184.792 63.3755 186.083 62.9096C184.621 61.3031 184.173 59.5108 184.148 59.4038C184.14 59.3758 184.135 59.3478 184.13 59.3198C183.7 56.7408 184.064 54.8542 185.212 53.7111C186.515 52.4127 188.224 52.6622 188.415 52.6953C188.499 52.7106 188.58 52.7335 188.657 52.764C193.069 54.508 196.49 58.4746 198.545 64.2284C200.062 68.4801 200.314 72.1896 200.325 72.3449C200.337 72.5282 200.628 77.0498 198.805 82.5439C197.117 87.6358 193.227 94.5378 184.27 98.5375C183.908 98.7208 181.508 99.892 178.73 99.892V99.9021Z" fill="#333333"/>
<path d="M181.225 77.783C181.154 77.783 181.083 77.783 181.011 77.7779C176.617 77.6201 173.076 72.4086 172.925 72.1871C172.551 71.6269 172.699 70.8683 173.259 70.494C173.819 70.1172 174.578 70.2674 174.952 70.8275C175.777 72.0521 178.488 75.2473 181.103 75.3389C182.33 75.3848 183.46 74.733 184.537 73.3556C184.952 72.8235 185.721 72.7293 186.251 73.1443C186.783 73.5593 186.877 74.3256 186.462 74.8577C184.945 76.8003 183.186 77.783 181.225 77.783Z" fill="#333333"/>
<path d="M181.165 84.1809C180.845 84.1809 180.547 84.1555 180.282 84.1173C178.859 83.9111 177.975 83.2848 177.879 83.2135C177.517 82.9462 177.438 82.437 177.706 82.0754C177.97 81.7139 178.48 81.6375 178.841 81.8998C178.958 81.9838 181.527 83.7507 184.867 81.1054C185.221 80.8254 185.733 80.8865 186.01 81.2378C186.29 81.5892 186.229 82.1034 185.878 82.3809C184.086 83.799 182.431 84.1809 181.168 84.1809H181.165Z" fill="#C7C4BE"/>
<path d="M179.397 90.0442C177.676 90.0442 176.533 89.3237 176.454 89.2728C176.078 89.0284 175.968 88.5243 176.212 88.1475C176.457 87.7707 176.956 87.6637 177.333 87.903C177.44 87.9692 179.723 89.3415 182.615 87.2742C182.982 87.012 183.489 87.0985 183.751 87.4626C184.013 87.8292 183.927 88.3359 183.563 88.5981C182.01 89.7081 180.569 90.0416 179.397 90.0416V90.0442Z" fill="#C7C4BE"/>
<path d="M173.371 52.4355C173.809 52.5093 174.249 52.5704 174.708 52.5704C179.112 52.5704 182.684 48.9984 182.684 44.594C182.684 43.3923 182.399 42.267 181.925 41.2435C183.272 39.6777 184.094 37.6461 184.094 35.4184C184.094 30.6295 180.324 26.7316 175.593 26.505C175.772 25.8431 175.899 25.1582 175.899 24.4377C175.899 20.0332 172.327 16.4613 167.923 16.4613C167.64 16.4613 167.37 16.5148 167.095 16.5453C165.865 11.4992 161.329 7.75162 155.906 7.75162C153.775 7.75162 151.786 8.33973 150.076 9.34793C148.594 6.45828 145.595 4.47754 142.125 4.47754C138.856 4.47754 136.007 6.23679 134.449 8.85656C132.809 6.86054 130.324 5.58502 127.539 5.58502C123.323 5.58502 119.799 8.50522 118.857 12.4311C117.918 12.1943 116.94 12.0543 115.927 12.0543C109.31 12.0543 103.943 17.4186 103.943 24.038C103.943 24.7483 104.017 25.4408 104.134 26.1155C103.999 26.1104 103.867 26.0951 103.729 26.0951C98.7926 26.0951 94.793 30.0948 94.793 35.0314C94.793 37.3533 95.684 39.4588 97.1352 41.0475C96.3205 42.3943 95.8444 43.9677 95.8444 45.6582C95.8444 50.5947 99.8467 54.5944 104.781 54.5944C105.42 54.5944 106.041 54.5257 106.639 54.3984" fill="#05AA46"/>
<path d="M104.782 55.5733C99.3156 55.5733 94.8679 51.1256 94.8679 45.6594C94.8679 44.0988 95.2421 42.5585 95.9525 41.1658C94.57 39.4168 93.8164 37.2655 93.8164 35.0327C93.8164 29.8059 97.8823 25.5108 103.017 25.1442C102.982 24.7674 102.967 24.4008 102.967 24.0367C102.967 16.8903 108.779 11.0779 115.925 11.0779C116.661 11.0779 117.415 11.1466 118.171 11.2841C119.536 7.30737 123.26 4.60612 127.535 4.60612C130.083 4.60612 132.499 5.57613 134.327 7.29973C136.194 4.92691 139.078 3.49609 142.121 3.49609C145.519 3.49609 148.625 5.21206 150.443 8.03551C152.146 7.20553 154.013 6.77017 155.902 6.77017C161.391 6.77017 166.172 10.3116 167.809 15.4824C167.845 15.4824 167.883 15.4824 167.919 15.4824C172.855 15.4824 176.873 19.4999 176.873 24.4365C176.873 24.8311 176.842 25.2282 176.776 25.6483C181.509 26.4223 185.071 30.5136 185.071 35.4196C185.071 37.5812 184.358 39.6816 183.054 41.4001C183.456 42.4388 183.663 43.5081 183.663 44.5927C183.663 49.5293 179.645 53.5467 174.709 53.5467C174.159 53.5467 173.642 53.4729 173.206 53.3991C172.674 53.31 172.315 52.8059 172.407 52.2738C172.496 51.7417 173 51.3827 173.532 51.4744C173.904 51.538 174.301 51.5966 174.706 51.5966C178.566 51.5966 181.705 48.4574 181.705 44.5978C181.705 43.6023 181.481 42.6145 181.035 41.6598C180.872 41.311 180.931 40.9011 181.18 40.6108C182.425 39.1647 183.113 37.3215 183.113 35.4247C183.113 31.1781 179.788 27.6902 175.541 27.4865C175.246 27.4712 174.973 27.3261 174.798 27.0868C174.625 26.8475 174.566 26.542 174.645 26.2568C174.831 25.572 174.915 24.994 174.915 24.4441C174.915 20.5844 171.776 17.4453 167.916 17.4453C167.789 17.4453 167.646 17.4657 167.483 17.486C167.386 17.4988 167.287 17.5115 167.19 17.5217C166.704 17.5701 166.256 17.2569 166.139 16.7808C164.983 12.0428 160.775 8.73309 155.899 8.73309C154.033 8.73309 152.187 9.23719 150.563 10.1945C150.331 10.3319 150.054 10.365 149.794 10.2912C149.537 10.2174 149.32 10.0392 149.198 9.79984C147.826 7.12406 145.115 5.46156 142.118 5.46156C139.289 5.46156 136.733 6.92038 135.28 9.36449C135.117 9.6369 134.832 9.81512 134.513 9.83803C134.195 9.86349 133.887 9.7311 133.686 9.48415C132.166 7.63325 129.923 6.57159 127.532 6.57159C123.843 6.57159 120.663 9.07934 119.8 12.6691C119.739 12.9237 119.579 13.1427 119.357 13.2776C119.133 13.4125 118.866 13.4533 118.614 13.3896C117.702 13.1605 116.796 13.0434 115.923 13.0434C109.853 13.0434 104.917 17.98 104.917 24.0495C104.917 24.6554 104.975 25.2792 105.095 25.9589C105.146 26.2517 105.062 26.5496 104.866 26.7736C104.67 26.9951 104.387 27.1173 104.087 27.1046C104.031 27.1046 103.975 27.0995 103.921 27.0944C103.858 27.0893 103.794 27.0842 103.728 27.0842C99.3386 27.0842 95.7691 30.6536 95.7691 35.0429C95.7691 37.0236 96.51 38.928 97.8568 40.3995C98.1496 40.7203 98.1954 41.1938 97.9714 41.563C97.2178 42.808 96.8206 44.2286 96.8206 45.6671C96.8206 50.0563 100.393 53.6257 104.779 53.6257C105.329 53.6257 105.887 53.5671 106.437 53.45C106.964 53.338 107.483 53.674 107.595 54.2036C107.707 54.7306 107.368 55.25 106.841 55.362C106.159 55.5071 105.467 55.5784 104.779 55.5784L104.782 55.5733Z" fill="#01782E"/>
<path d="M120.443 33.3282C120.443 33.3282 109.791 28.4349 106.336 29.2979C106.336 29.2979 104.61 37.9338 112.382 41.6763C112.382 41.6763 95.9713 64.7069 113.533 104.436C113.533 104.436 121.306 117.968 139.443 119.406C139.443 119.406 161.323 119.119 170.825 92.9211C170.825 92.9211 178.022 59.8136 167.082 41.6763C167.082 41.6763 172.841 37.9338 171.688 29.2979L157.868 33.3282C157.868 33.3282 149.808 26.7062 143.473 26.7062C137.139 26.7062 130.807 27.5693 120.443 33.3282Z" fill="#F8F8F4"/>
<path d="M128.973 28.5444C128.973 28.5444 134.548 37.2464 141.178 40.7827C141.178 40.7827 148.984 34.1964 150.516 32.3124L152.675 29.1962L140.391 26.6604L128.973 28.5444Z" fill="#C7C6BF"/>
<path d="M128.667 123.582C128.667 123.582 121.141 124.259 118.078 125.995C118.078 125.995 115.626 127.813 118.401 128.865" fill="#CBC9C3"/>
<path d="M118.401 129.677C118.304 129.677 118.207 129.659 118.113 129.623C117.008 129.203 116.392 128.587 116.282 127.785C116.102 126.487 117.443 125.453 117.596 125.338C117.622 125.318 117.65 125.3 117.68 125.285C120.86 123.482 128.281 122.798 128.597 122.77C129.043 122.729 129.44 123.06 129.481 123.508C129.521 123.956 129.19 124.351 128.742 124.391C128.668 124.399 121.435 125.066 118.53 126.675C118.207 126.93 117.868 127.363 117.896 127.564C117.909 127.65 118.09 127.872 118.693 128.101C119.113 128.261 119.325 128.73 119.167 129.15C119.045 129.476 118.734 129.674 118.406 129.674L118.401 129.677Z" fill="#333333"/>
<path d="M151.406 123.582C151.406 123.582 158.932 124.259 161.995 125.995C161.995 125.995 164.447 127.813 161.671 128.865" fill="#CBC9C3"/>
<path d="M161.671 129.677C161.342 129.677 161.032 129.476 160.909 129.152C160.749 128.732 160.963 128.261 161.383 128.103C161.986 127.874 162.167 127.653 162.18 127.566C162.21 127.355 161.834 126.907 161.546 126.68C158.641 125.071 151.405 124.402 151.332 124.397C150.883 124.356 150.552 123.961 150.593 123.513C150.634 123.065 151.034 122.734 151.477 122.775C151.792 122.803 159.214 123.49 162.394 125.29C162.422 125.305 162.45 125.326 162.478 125.344C162.63 125.458 163.972 126.492 163.791 127.79C163.679 128.59 163.063 129.208 161.961 129.628C161.867 129.664 161.767 129.682 161.673 129.682L161.671 129.677Z" fill="#333333"/>
<path d="M126.19 115.649C126.19 115.649 128.514 122.821 128.664 123.582C128.817 124.343 116.553 128.992 117.493 132.281C117.493 132.281 119.415 136.38 127.674 128.521C127.674 128.521 123.914 135.884 128.374 135.68C128.374 135.68 131.819 135.237 132.636 124.649L132.269 118.21" fill="#CBC9C3"/>
<path d="M128.201 136.5C126.862 136.5 126.185 135.894 125.846 135.37C125.271 134.476 125.23 133.109 125.729 131.301C122.944 133.496 120.637 134.435 118.855 134.099C117.353 133.816 116.813 132.747 116.755 132.628C116.737 132.587 116.722 132.549 116.709 132.505C115.95 129.85 120.217 127.363 125.449 124.618C126.327 124.157 127.3 123.648 127.761 123.35C127.394 122.069 126.19 118.299 125.413 115.901C125.276 115.473 125.51 115.015 125.938 114.875C126.363 114.735 126.824 114.971 126.964 115.399C127.203 116.137 129.306 122.637 129.464 123.424C129.632 124.267 128.975 124.61 126.208 126.062C123.952 127.245 118.017 130.359 118.259 131.981C118.343 132.098 118.621 132.416 119.211 132.51C120.199 132.668 122.542 132.286 127.114 127.935C127.402 127.663 127.845 127.635 128.163 127.872C128.481 128.108 128.581 128.541 128.402 128.895C127.524 130.619 126.574 133.496 127.216 134.491C127.28 134.59 127.478 134.891 128.262 134.873C128.568 134.764 131.124 133.58 131.822 124.643L131.457 118.261C131.432 117.813 131.776 117.428 132.224 117.403C132.672 117.375 133.056 117.721 133.082 118.169L133.448 124.608C133.448 124.643 133.448 124.682 133.448 124.717C132.606 135.652 128.899 136.439 128.479 136.495C128.456 136.497 128.435 136.5 128.413 136.5C128.341 136.502 128.27 136.505 128.201 136.505V136.5Z" fill="#333333"/>
<path d="M153.882 115.649C153.882 115.649 151.558 122.82 151.405 123.582C151.253 124.343 163.516 128.992 162.577 132.281C162.577 132.281 160.655 136.38 152.396 128.521C152.396 128.521 156.156 135.884 151.695 135.68C151.695 135.68 148.251 135.237 147.434 124.648L147.8 118.21" fill="#CBC9C3"/>
<path d="M151.87 136.5C151.801 136.5 151.73 136.5 151.659 136.495C151.636 136.495 151.616 136.492 151.593 136.49C151.173 136.436 147.466 135.647 146.623 124.712C146.62 124.677 146.62 124.638 146.623 124.603L146.99 118.164C147.015 117.716 147.402 117.37 147.848 117.398C148.296 117.423 148.639 117.808 148.614 118.256L148.25 124.638C148.95 133.572 151.504 134.758 151.809 134.868C152.601 134.886 152.792 134.585 152.855 134.486C153.497 133.491 152.547 130.614 151.669 128.89C151.488 128.536 151.59 128.106 151.908 127.867C152.227 127.63 152.67 127.655 152.957 127.93C157.53 132.281 159.872 132.663 160.86 132.505C161.443 132.411 161.72 132.103 161.812 131.973C162.046 130.349 156.119 127.24 153.864 126.056C151.096 124.605 150.439 124.262 150.607 123.419C150.765 122.635 152.868 116.132 153.108 115.394C153.245 114.966 153.706 114.732 154.134 114.87C154.561 115.007 154.795 115.468 154.658 115.896C153.881 118.294 152.677 122.067 152.311 123.345C152.771 123.643 153.744 124.152 154.622 124.613C159.854 127.357 164.121 129.845 163.363 132.5C163.35 132.543 163.335 132.584 163.317 132.622C163.261 132.742 162.721 133.811 161.216 134.094C159.434 134.43 157.128 133.491 154.342 131.296C154.841 133.104 154.803 134.471 154.225 135.364C153.889 135.889 153.209 136.495 151.87 136.495V136.5Z" fill="#333333"/>
<path d="M120.791 34.507C120.417 34.507 120.048 34.3364 119.809 34.0106C119.409 33.4683 119.524 32.7045 120.066 32.3022C125.85 28.0352 132.755 25.7795 140.039 25.7795C147.323 25.7795 153.759 27.885 159.411 31.8694C159.963 32.259 160.093 33.0202 159.706 33.5701C159.317 34.1226 158.555 34.2524 158.005 33.8654C152.766 30.1738 146.554 28.2211 140.041 28.2211C133.529 28.2211 126.879 30.3113 121.52 34.2677C121.301 34.4281 121.049 34.507 120.796 34.507H120.791Z" fill="#333333"/>
<path d="M140.037 120.496C119.303 120.496 104.824 101.02 104.824 73.1365C104.824 58.1714 107.09 47.6389 111.752 40.9303C111.767 40.9074 111.782 40.887 111.8 40.8667C111.869 40.7827 113.486 38.7612 114.911 37.4475C115.408 36.9892 116.179 37.0223 116.637 37.5188C117.096 38.0152 117.063 38.7866 116.566 39.2449C115.364 40.3524 113.936 42.1091 113.732 42.3611C109.381 48.6471 107.266 58.7163 107.266 73.139C107.266 99.5863 120.741 118.057 140.037 118.057C159.333 118.057 172.809 99.5863 172.809 73.139C172.809 58.701 170.688 48.6242 166.327 42.3408C166.22 42.1931 165.102 40.6834 163.788 39.138C163.35 38.6237 163.414 37.8548 163.928 37.4169C164.443 36.979 165.214 37.0427 165.649 37.557C167.085 39.2449 168.256 40.8438 168.305 40.91C168.31 40.9176 168.317 40.9252 168.323 40.9329C172.984 47.6389 175.25 58.174 175.25 73.139C175.25 101.025 160.769 120.499 140.037 120.499V120.496Z" fill="#333333"/>
<path d="M140.036 41.5948C139.886 41.5948 139.735 41.5541 139.603 41.4701C139.28 41.2664 131.65 36.424 127.515 29.7053C127.281 29.3234 127.398 28.8218 127.782 28.5851C128.164 28.3508 128.666 28.4679 128.902 28.8524C132.286 34.3491 138.353 38.6721 140.031 39.8025C141.739 38.6186 148.002 34.0614 151.169 28.776C151.401 28.3916 151.9 28.2643 152.287 28.496C152.671 28.7276 152.799 29.2266 152.567 29.6136C148.705 36.0625 140.818 41.246 140.484 41.4624C140.349 41.5515 140.194 41.5948 140.038 41.5948H140.036Z" fill="#C7C6BF"/>
<path d="M112.557 42.7125C112.417 42.7125 112.275 42.6896 112.137 42.6361C109.118 41.5261 107.147 38.7892 106.439 34.7208C105.933 31.8108 106.248 29.2343 106.261 29.1248C106.338 28.5138 106.857 28.0555 107.473 28.0555C112.071 28.0555 120.809 31.8643 121.178 32.0247C121.796 32.2945 122.077 33.015 121.807 33.6337C121.537 34.2498 120.816 34.5324 120.198 34.2625C120.119 34.2294 112.96 31.1081 108.608 30.576C108.527 33.0532 108.807 38.8096 112.98 40.3448C113.614 40.5765 113.937 41.2792 113.705 41.9131C113.525 42.407 113.056 42.7125 112.56 42.7125H112.557Z" fill="#333333"/>
<path d="M167.518 42.7125C167.021 42.7125 166.553 42.407 166.372 41.9131C166.14 41.2792 166.463 40.579 167.097 40.3448C171.27 38.8121 171.55 33.0558 171.469 30.576C167.118 31.1081 159.959 34.2294 159.88 34.2625C159.261 34.535 158.543 34.2524 158.271 33.6337C158.001 33.015 158.281 32.2971 158.9 32.0247C159.269 31.8617 168.006 28.0555 172.604 28.0555C173.22 28.0555 173.74 28.5138 173.816 29.1248C173.829 29.2318 174.145 31.8108 173.638 34.7208C172.93 38.7892 170.96 41.5261 167.94 42.6361C167.8 42.6871 167.66 42.7125 167.52 42.7125H167.518Z" fill="#333333"/>
<path d="M167.545 65.2263C167.545 67.3369 165.383 69.0504 162.718 69.0504C160.052 69.0504 157.891 67.3395 157.891 65.2263C157.891 63.1132 160.052 61.4023 162.718 61.4023C165.383 61.4023 167.545 63.1132 167.545 65.2263Z" fill="#FFB8DD"/>
<path d="M122.459 65.2263C122.459 67.3369 120.297 69.0504 117.632 69.0504C114.966 69.0504 112.805 67.3395 112.805 65.2263C112.805 63.1132 114.966 61.4023 117.632 61.4023C120.297 61.4023 122.459 63.1132 122.459 65.2263Z" fill="#FFB8DD"/>
<path d="M135.874 88.9164C133.957 88.9164 132.211 87.3684 130.564 84.1962C130.536 84.2598 130.505 84.3235 130.474 84.3846C129.708 85.9758 128.659 86.9153 127.442 87.0986C125.041 87.4626 122.386 84.96 119.318 79.4506C119.099 79.0585 119.239 78.562 119.634 78.3431C120.028 78.1241 120.522 78.2642 120.741 78.6588C124.232 84.9243 126.289 85.6245 127.198 85.4895C128.611 85.2782 129.461 82.7348 129.647 81.859C129.721 81.5128 130.011 81.2531 130.362 81.2175C130.719 81.1844 131.05 81.3804 131.19 81.7063C132.738 85.3011 134.403 87.2844 135.874 87.287H135.877C137.595 87.287 139.103 84.6825 139.541 83.6794C139.719 83.2669 140.2 83.0785 140.612 83.2567C141.025 83.435 141.213 83.9136 141.035 84.326C141.015 84.3719 140.544 85.4539 139.721 86.5436C138.55 88.0966 137.221 88.9164 135.877 88.9164H135.874Z" fill="#B1B1AA"/>
<path d="M144.698 88.9163C143.353 88.9163 142.024 88.0965 140.853 86.5435C140.031 85.4539 139.56 84.3718 139.539 84.326C139.361 83.9136 139.552 83.4349 139.965 83.2567C140.377 83.0785 140.856 83.2694 141.034 83.6819C141.472 84.6875 142.979 87.2895 144.698 87.2895H144.7C146.172 87.2895 147.837 85.3062 149.385 81.7088C149.525 81.3829 149.861 81.1869 150.212 81.22C150.566 81.2556 150.854 81.5153 150.927 81.8615C151.113 82.7348 151.964 85.2782 153.377 85.4895C154.291 85.6244 156.345 84.9218 159.833 78.6587C160.052 78.2667 160.546 78.1241 160.941 78.343C161.333 78.562 161.475 79.0585 161.256 79.4505C158.186 84.9599 155.528 87.4601 153.132 87.0985C151.915 86.9152 150.866 85.9758 150.1 84.3846C150.069 84.3209 150.039 84.2573 150.011 84.1962C148.364 87.3659 146.615 88.9138 144.7 88.9163H144.698Z" fill="#B1B1AA"/>
<path d="M140.162 101.19C140.043 101.19 137.573 101.142 135.605 97.5216C135.032 98.6393 134.101 99.8537 132.721 99.9963C130.814 100.197 128.884 98.2905 126.84 94.1712C126.638 93.7689 126.804 93.2801 127.206 93.0789C127.608 92.8778 128.097 93.0433 128.298 93.4456C130.59 98.0563 132.036 98.4305 132.553 98.377C133.622 98.2676 134.503 96.1952 134.763 95.2099C134.852 94.8662 135.155 94.6218 135.508 94.604C135.862 94.5861 136.188 94.8 136.313 95.1335C137.917 99.4413 140.142 99.5609 140.165 99.5609C140.616 99.5609 140.98 99.925 140.98 100.376C140.98 100.826 140.616 101.19 140.165 101.19H140.162Z" fill="#B1B1AA"/>
<path d="M140.405 101.19C139.954 101.19 139.59 100.826 139.59 100.376C139.59 99.925 139.946 99.5685 140.389 99.5609C140.511 99.5558 142.676 99.3801 144.257 95.1335C144.381 94.8 144.71 94.5887 145.061 94.604C145.415 94.6218 145.718 94.8687 145.807 95.2124C146.064 96.1977 146.945 98.2676 148.017 98.377C148.534 98.4305 149.982 98.0563 152.271 93.4456C152.472 93.0433 152.959 92.8778 153.363 93.0789C153.766 93.2801 153.931 93.7689 153.73 94.1712C151.683 98.2905 149.758 100.197 147.846 99.9963C146.466 99.8537 145.537 98.6418 144.964 97.5242C144.267 98.8124 143.434 99.7875 142.474 100.432C141.377 101.167 140.501 101.19 140.405 101.19Z" fill="#B1B1AA"/>
<path d="M161.772 54.6326C161.41 54.6326 161.054 54.4748 160.815 54.1693C156.245 48.3976 150.621 50.8214 150.384 50.9283C149.77 51.2032 149.047 50.9283 148.77 50.3173C148.492 49.7062 148.76 48.9857 149.371 48.7057C149.444 48.6726 156.945 45.3501 162.729 52.6519C163.147 53.1814 163.058 53.9478 162.531 54.3679C162.307 54.5461 162.039 54.6326 161.774 54.6326H161.772Z" fill="#333333"/>
<path d="M159.867 42.4681C159.831 42.4681 159.793 42.4681 159.755 42.4605L153.484 41.7502C152.947 41.6891 152.562 41.2054 152.624 40.6707C152.685 40.1361 153.168 39.7491 153.703 39.8102L159.974 40.5205C160.511 40.5816 160.895 41.0653 160.834 41.6C160.778 42.099 160.356 42.4681 159.864 42.4681H159.867Z" fill="#333333"/>
<path d="M118.571 54.6327C118.306 54.6327 118.039 54.5461 117.815 54.3679C117.286 53.9504 117.196 53.1815 117.617 52.6519C120.623 48.8559 124.081 47.9725 126.453 47.9038C129.017 47.8248 130.896 48.6701 130.975 48.7057C131.589 48.9858 131.859 49.7114 131.576 50.3249C131.296 50.936 130.573 51.2058 129.962 50.9283C129.715 50.8189 124.096 48.4028 119.531 54.1693C119.289 54.4748 118.933 54.6327 118.574 54.6327H118.571Z" fill="#333333"/>
<path d="M120.476 42.4681C119.985 42.4681 119.562 42.099 119.506 41.6C119.445 41.0628 119.832 40.5791 120.367 40.5205L126.638 39.8102C127.175 39.7491 127.658 40.1361 127.717 40.6707C127.778 41.2079 127.391 41.6916 126.856 41.7502L120.586 42.4605C120.548 42.4656 120.512 42.4681 120.474 42.4681H120.476Z" fill="#333333"/>
<path d="M168.119 42.7202C168.758 42.8831 169.427 42.9697 170.12 42.9697C174.53 42.9697 171.693 41.8622 171.693 37.5137C171.693 33.1653 174.838 31.6886 170.428 31.6886C169.211 31.6886 167.762 27.5158 166.729 27.9945C166.78 27.5795 166.815 27.1619 166.815 26.7317C166.815 20.9957 159.649 25.446 153.831 25.446C150.068 25.446 149.228 18.297 147.364 21.2248C145.967 18.9385 143.512 22.6709 140.607 22.6709C137.703 22.6709 135.179 18.9003 133.772 21.1459C131.967 18.4115 129.113 21.5634 125.556 21.5634C119.965 21.5634 115.163 21.072 115.163 26.584C115.163 26.6171 115.168 26.6502 115.168 26.6807C114.035 26.0723 116.385 30.4386 115.008 30.4386C110.598 30.4386 111.209 28.5877 111.209 32.9361C111.209 37.2846 106.97 41.4421 111.38 41.4421C115.436 41.4421 118.748 38.4506 119.26 34.5884C120.945 35.8258 123.028 36.5666 125.291 36.5666C129.479 36.5666 133.071 34.0589 134.612 30.4844C136.073 32.1011 138.179 33.1398 140.549 33.1398C142.919 33.1398 145.014 32.1061 146.476 30.4971C148.006 34.3695 151.815 37.1191 156.285 37.1191C158.465 37.1191 160.486 36.4673 162.166 35.3497C162.284 38.9013 164.768 41.8622 168.124 42.7176" fill="#05AA46"/>
<path d="M170.122 43.9269C169.363 43.9269 168.612 43.8327 167.884 43.6469C164.584 42.8042 162.079 40.1335 161.392 36.8976C159.813 37.6741 158.072 38.0789 156.282 38.0789C151.987 38.0789 148.15 35.7723 146.164 32.101C144.576 33.3816 142.592 34.097 140.545 34.097C138.499 34.097 136.477 33.3689 134.881 32.0628C132.918 35.4184 129.282 37.5264 125.285 37.5264C123.378 37.5264 121.54 37.0503 119.895 36.1363C118.773 39.7923 115.333 42.4019 111.377 42.4019C110.906 42.4019 109.472 42.4019 108.777 41.3988C108.031 40.3244 108.568 38.8936 109.19 37.2362C109.686 35.9098 110.251 34.4077 110.251 32.9361C110.251 32.3836 110.241 31.933 110.233 31.5689C110.208 30.4029 110.195 29.8173 110.717 29.3794C111.206 28.9695 111.769 29.0841 112.362 29.2063C112.823 29.3005 113.487 29.4354 114.462 29.4736C114.399 29.1121 114.266 28.6258 114.182 28.3203C113.907 27.3121 113.686 26.5076 114.223 25.9831C114.32 24.4428 114.796 23.2641 115.672 22.3959C117.523 20.5577 120.662 20.5755 124.287 20.6036C124.705 20.6061 125.127 20.6086 125.555 20.6086C126.746 20.6086 127.882 20.1911 128.979 19.7889C130.509 19.2287 132.353 18.5515 133.814 19.7608C135.049 19.0251 136.576 19.9212 137.661 20.5552C138.636 21.1255 139.644 21.7187 140.607 21.7187C141.569 21.7187 142.577 21.1357 143.537 20.573C144.611 19.9442 146.129 19.0556 147.353 19.8423C147.595 19.6819 147.891 19.5674 148.239 19.5674H148.242C149.301 19.5674 149.943 20.5654 150.683 21.7187C151.518 23.0197 152.466 24.4938 153.828 24.4938C155.62 24.4938 157.565 24.0406 159.449 23.6027C162.4 22.9178 164.951 22.3246 166.534 23.5823C167.354 24.2341 167.769 25.2957 167.769 26.7367C167.769 26.9099 167.764 27.0906 167.754 27.2765C168.357 27.6889 168.877 28.4807 169.355 29.2165C169.684 29.7206 170.226 30.548 170.511 30.7364C171.952 30.7415 172.948 30.8968 173.452 31.6148C173.974 32.3531 173.668 33.206 173.347 34.1072C173.037 34.9805 172.647 36.0676 172.647 37.5213C172.647 38.9751 172.973 39.9502 173.233 40.7649C173.503 41.6076 173.76 42.4045 173.253 43.097C172.739 43.8022 171.754 43.9346 170.114 43.9346L170.122 43.9269ZM168.36 41.7934C168.933 41.9411 169.526 42.0149 170.124 42.0149C170.944 42.0149 171.374 41.9716 171.596 41.9309C171.553 41.7603 171.481 41.5388 171.418 41.3453C171.148 40.5052 170.74 39.2322 170.74 37.5188C170.74 35.8054 171.229 34.3669 171.55 33.4631C171.637 33.2212 171.736 32.9412 171.789 32.7426C171.588 32.6993 171.191 32.651 170.43 32.651C169.32 32.651 168.561 31.4925 167.759 30.2654C167.489 29.853 167.061 29.1987 166.807 28.9542C166.583 28.9721 166.356 28.911 166.168 28.7735C165.888 28.5698 165.738 28.2287 165.781 27.8824C165.834 27.4496 165.86 27.0855 165.86 26.7367C165.86 25.9068 165.687 25.3517 165.348 25.0819C164.488 24.3996 162.148 24.9418 159.887 25.4689C157.99 25.9093 155.844 26.4083 153.833 26.4083C151.427 26.4083 150.07 24.2977 149.079 22.7549C148.84 22.3832 148.507 21.8638 148.272 21.6016C148.244 21.6398 148.211 21.6856 148.176 21.7441C148 22.0191 147.694 22.1871 147.369 22.1871H147.361C147.03 22.1846 146.724 22.0115 146.554 21.7289C146.325 21.3546 146.241 21.2171 144.512 22.2279C143.44 22.8542 142.109 23.6332 140.614 23.6332C139.12 23.6332 137.842 22.8771 136.701 22.2075C134.906 21.156 134.807 21.3139 134.591 21.6576C134.417 21.9325 134.117 22.1031 133.791 22.1057H133.781C133.46 22.1057 133.16 21.9453 132.981 21.6754C132.365 20.7436 131.754 20.8149 129.649 21.5863C128.452 22.0242 127.095 22.5232 125.565 22.5232C125.132 22.5232 124.705 22.5206 124.285 22.5181C121.082 22.4977 118.317 22.4774 117.031 23.7554C116.428 24.3563 116.132 25.2754 116.13 26.5712C116.132 26.612 116.135 26.6451 116.135 26.6807C116.135 26.9149 116.054 27.1364 115.906 27.3096C115.949 27.4801 116 27.666 116.041 27.8162C116.367 29.0077 116.675 30.133 116.107 30.879C115.85 31.215 115.463 31.4009 115.017 31.4009C113.671 31.4009 112.741 31.2354 112.151 31.1158C112.151 31.2481 112.156 31.3882 112.158 31.5282C112.166 31.905 112.176 32.3709 112.176 32.9386C112.176 34.7564 111.519 36.5055 110.995 37.9109C110.697 38.7052 110.2 40.0342 110.366 40.3091C110.366 40.3091 110.552 40.4874 111.392 40.4874C114.887 40.4874 117.866 37.8981 118.322 34.4662C118.365 34.1301 118.584 33.845 118.895 33.7126C119.205 33.5802 119.564 33.621 119.837 33.8221C121.436 34.9958 123.325 35.6144 125.3 35.6144C128.989 35.6144 132.302 33.4529 133.743 30.1101C133.873 29.8122 134.145 29.5984 134.466 29.5449C134.787 29.4914 135.112 29.606 135.331 29.8479C136.696 31.3551 138.552 32.1876 140.558 32.1876C142.564 32.1876 144.413 31.3602 145.777 29.8581C145.999 29.6136 146.332 29.5016 146.658 29.5602C146.984 29.6187 147.257 29.8428 147.376 30.1508C148.82 33.8068 152.32 36.1694 156.295 36.1694C158.212 36.1694 160.063 35.6119 161.646 34.5604C161.934 34.3669 162.306 34.3466 162.614 34.5069C162.922 34.6673 163.12 34.9805 163.133 35.3267C163.232 38.3742 165.386 41.0373 168.37 41.7985L168.36 41.7934Z" fill="#01782E"/>
<path d="M170.21 44.0823C170.21 44.0823 169.306 42.2136 168.135 41.7222L164.441 27.9283L142.23 27.5515L125.836 28.2694L112.099 34.6139L112.789 40.3296C112.789 40.3296 111.477 40.6351 110.749 42.3663L103.409 43.4814L99.8984 30.8943L104.015 27.661L107.75 24.504L118.805 15.5576L132.909 13.228L148.615 13.9791L162.035 14.5799L167.982 20.8964L173.013 26.085L177.893 29.4686L180.409 35.6349L175.681 44.7315L170.202 44.0797L170.21 44.0823Z" fill="#05AA46"/>
<g opacity="0.7">
<path d="M110.61 27.2357C110.61 27.2357 103.54 27.2357 104.245 34.8379L110.61 27.2357Z" fill="#05AA46"/>
<path d="M104.246 35.6526C103.831 35.6526 103.474 35.3369 103.436 34.9143C103.197 32.3353 103.764 30.268 105.129 28.7709C107.245 26.449 110.473 26.4236 110.611 26.4236C111.061 26.4236 111.425 26.7877 111.425 27.2383C111.425 27.6889 111.061 28.0504 110.613 28.053C110.567 28.053 107.94 28.0963 106.323 29.8784C105.287 31.0216 104.862 32.6662 105.055 34.7641C105.096 35.2122 104.768 35.6093 104.32 35.6501C104.294 35.6501 104.269 35.6526 104.243 35.6526H104.246Z" fill="white"/>
</g>
<g opacity="0.7">
<path d="M156.367 19.1168C156.367 19.1168 165.028 15.7587 166.444 25.1278L156.367 19.1168Z" fill="#05AA46"/>
<path d="M166.446 25.9424C166.048 25.9424 165.702 25.6522 165.641 25.2499C165.259 22.7116 164.282 20.9702 162.739 20.074C160.129 18.5617 156.7 19.8627 156.664 19.8755C156.244 20.0384 155.773 19.8296 155.61 19.4095C155.447 18.9895 155.656 18.5185 156.076 18.3555C156.247 18.2893 160.277 16.7643 163.556 18.6636C165.549 19.8194 166.792 21.9529 167.253 25.003C167.319 25.4485 167.013 25.8635 166.57 25.9297C166.53 25.9348 166.489 25.9399 166.448 25.9399L166.446 25.9424Z" fill="white"/>
</g>
<g opacity="0.7">
<path d="M126.521 16.2067C126.521 16.2067 118.83 14.2209 116.969 20.5476L126.521 16.2067Z" fill="#05AA46"/>
<path d="M116.97 21.3623C116.894 21.3623 116.817 21.3521 116.741 21.3292C116.311 21.2019 116.064 20.7487 116.189 20.3185C117.836 14.7174 123.801 14.6639 126.724 15.4175C127.159 15.5296 127.421 15.9751 127.309 16.4105C127.197 16.8458 126.754 17.108 126.319 16.996C126.026 16.9222 119.363 15.2953 117.752 20.7793C117.647 21.1332 117.324 21.3649 116.97 21.3649V21.3623Z" fill="white"/>
</g>
<path d="M145.389 56.5802C142.502 54.271 140.193 54.462 140.193 54.462C140.193 54.462 137.883 54.2685 134.996 56.5802C134.996 56.5802 133.84 73.7093 140.193 73.7093C146.545 73.7093 145.389 56.5802 145.389 56.5802Z" fill="#FF775D"/>
<path d="M135.656 56.8374C135.656 56.8374 138.834 62.0948 145.514 57.0029C145.514 57.0029 139.928 52.2395 135.656 56.8374Z" fill="#C7C6BF"/>
<path d="M144.587 67.1866C144.587 67.1866 138.288 71.1303 135.332 67.3521C135.332 67.3521 136.042 73.4929 140.286 73.7093C140.286 73.7093 144.749 73.5948 144.587 67.1892V67.1866Z" fill="#C7C6BF"/>
<path d="M140.286 74.6845C139.069 74.6845 138.002 74.2033 137.114 73.2536C133.308 69.1827 134.079 57.0283 134.115 56.5141C134.132 56.2417 134.265 55.9871 134.479 55.8165C137.366 53.5073 139.807 53.464 140.286 53.4844C140.762 53.464 143.206 53.5073 146.093 55.8165C146.307 55.9871 146.44 56.2417 146.457 56.5141C146.493 57.0283 147.264 69.1827 143.458 73.2536C142.57 74.2033 141.503 74.6845 140.286 74.6845ZM136.039 57.0818C135.851 60.6665 135.973 69.1725 138.542 71.9196C139.054 72.4669 139.624 72.7317 140.286 72.7317C140.948 72.7317 141.521 72.4669 142.03 71.9196C144.601 69.1674 144.721 60.6665 144.533 57.0818C142.195 55.348 140.434 55.432 140.355 55.4371C140.309 55.4371 140.25 55.4397 140.205 55.4371C140.138 55.432 138.374 55.3506 136.037 57.0818H136.039Z" fill="#333333"/>
<path d="M140.31 60.8167C140.246 60.8167 140.182 60.8167 140.116 60.8142C136.654 60.692 134.367 57.2626 134.273 57.1175C133.978 56.6668 134.103 56.0609 134.556 55.7656C135.006 55.4677 135.612 55.595 135.908 56.0482C135.926 56.0736 137.746 58.7851 140.195 58.864C141.702 58.9149 143.217 57.9474 144.707 55.9922C145.032 55.5619 145.646 55.4804 146.076 55.8063C146.506 56.1322 146.588 56.7458 146.262 57.176C144.419 59.5947 142.418 60.8218 140.312 60.8218L140.31 60.8167Z" fill="#333333"/>
<path d="M140.337 70.5218C140.284 70.5218 140.23 70.5218 140.177 70.5218C137.002 70.4276 134.856 67.5482 134.767 67.4259C134.448 66.9906 134.543 66.3796 134.978 66.0613C135.413 65.7431 136.022 65.8373 136.343 66.2701C136.365 66.3006 138.033 68.5105 140.245 68.5691C141.608 68.6047 142.949 67.8155 144.263 66.2268C144.607 65.8118 145.223 65.7533 145.638 66.097C146.053 66.4407 146.111 67.0568 145.768 67.4718C144.092 69.4983 142.267 70.5244 140.337 70.5244V70.5218Z" fill="#333333"/>
<path d="M105.602 66.6648C105.602 66.6648 110.047 74.155 123.538 77.6327C126.191 78.315 128.144 80.5529 128.353 83.2822C128.658 87.2716 129.178 93.2622 129.906 99.1204C130.384 102.967 127.329 106.308 123.452 106.219C120.613 106.152 117.118 105.709 113.26 104.436C113.26 104.436 104.212 89.7056 105.602 66.6648Z" fill="#FFE234"/>
<path d="M123.6 107.2C123.544 107.2 123.486 107.2 123.43 107.2C119.914 107.119 116.39 106.502 112.953 105.369C112.734 105.298 112.549 105.15 112.426 104.954C112.05 104.341 103.233 89.6966 104.626 66.6126C104.651 66.1849 104.954 65.8233 105.372 65.7215C105.789 65.6197 106.222 65.803 106.441 66.1696C106.484 66.2409 110.899 73.3721 123.784 76.692C126.862 77.4863 129.09 80.1061 129.329 83.2147C129.634 87.194 130.149 93.1642 130.877 99.0071C131.139 101.11 130.475 103.218 129.056 104.789C127.664 106.329 125.686 107.205 123.603 107.205L123.6 107.2ZM113.916 103.625C117.057 104.626 120.27 105.171 123.473 105.245C125.041 105.278 126.554 104.636 127.603 103.475C128.641 102.327 129.125 100.784 128.934 99.2439C128.201 93.3628 127.682 87.3595 127.376 83.3572C127.203 81.0837 125.561 79.1641 123.292 78.5785C113.967 76.1751 108.844 71.9158 106.461 69.3316C106.179 79.8515 108.088 88.3727 109.817 93.8261C111.515 99.1803 113.351 102.622 113.916 103.625Z" fill="#333333"/>
<path d="M105.277 71.6726C105.277 71.6726 110.356 78.2742 122.368 81.7367C123.623 82.0982 124.517 83.2643 124.578 84.6264C124.736 88.1372 125.082 94.861 125.622 99.5252C125.859 101.575 124.201 103.306 122.243 103.054C119.379 102.685 115.013 102.137 111.741 100.709L113.335 104.653L117.337 105.824L125.288 106.201L128.692 104.317L130.286 101.649L128.484 81.3497L125.482 78.2106L115.935 75.1962L106.064 67.2249L105.277 71.6726Z" fill="#05AA46"/>
<path d="M123.6 107.2C123.544 107.2 123.486 107.2 123.43 107.2C119.914 107.119 116.39 106.502 112.953 105.369C112.734 105.298 112.549 105.15 112.426 104.954C112.05 104.341 103.233 89.6966 104.626 66.6126C104.651 66.1849 104.954 65.8233 105.372 65.7215C105.789 65.6197 106.222 65.803 106.441 66.1696C106.484 66.2409 110.899 73.3721 123.784 76.692C126.862 77.4863 129.09 80.1061 129.329 83.2147C129.634 87.194 130.149 93.1642 130.877 99.0071C131.139 101.11 130.475 103.218 129.056 104.789C127.664 106.329 125.686 107.205 123.603 107.205L123.6 107.2ZM113.916 103.625C117.057 104.626 120.27 105.171 123.473 105.245C125.041 105.278 126.554 104.636 127.603 103.475C128.641 102.327 129.125 100.784 128.934 99.2439C128.201 93.3628 127.682 87.3595 127.376 83.3572C127.203 81.0837 125.561 79.1641 123.292 78.5785C113.967 76.1751 108.844 71.9158 106.461 69.3316C106.179 79.8515 108.088 88.3727 109.817 93.8261C111.515 99.1803 113.351 102.622 113.916 103.625Z" fill="#333333"/>
<path d="M174.466 66.6648C174.466 66.6648 170.021 74.155 156.53 77.6327C153.877 78.315 151.925 80.5529 151.716 83.2822C151.41 87.2716 150.891 93.2622 150.163 99.1204C149.684 102.967 152.739 106.308 156.617 106.219C159.455 106.152 162.951 105.709 166.808 104.436C166.808 104.436 175.856 89.7056 174.466 66.6648Z" fill="#FFE234"/>
<path d="M156.467 107.199C154.387 107.199 152.406 106.325 151.013 104.785C149.593 103.214 148.931 101.106 149.193 99.0033C149.921 93.1655 150.435 87.1927 150.741 83.2109C150.98 80.1023 153.208 77.4825 156.286 76.6882C169.24 73.3504 173.583 66.2396 173.626 66.1683C173.845 65.7992 174.278 65.6159 174.696 65.7177C175.113 65.8195 175.416 66.1811 175.442 66.6088C176.834 89.6928 168.018 104.34 167.641 104.951C167.521 105.147 167.333 105.294 167.114 105.366C163.677 106.499 160.153 107.115 156.637 107.196C156.581 107.196 156.523 107.196 156.467 107.196V107.199ZM173.606 69.3304C171.22 71.9145 166.101 76.1739 156.775 78.5772C154.506 79.1603 152.867 81.0825 152.691 83.356C152.383 87.3607 151.864 93.3641 151.133 99.2427C150.942 100.783 151.426 102.323 152.465 103.474C153.513 104.635 155.023 105.277 156.594 105.243C159.797 105.17 163.01 104.625 166.152 103.624C167.338 101.516 174.123 88.5599 173.606 69.3329V69.3304Z" fill="#333333"/>
<path d="M174.79 71.6726C174.79 71.6726 169.711 78.2742 157.699 81.7367C156.444 82.0982 155.55 83.2643 155.489 84.6264C155.334 88.1372 154.985 94.861 154.445 99.5252C154.209 101.575 155.866 103.306 157.824 103.054C160.688 102.685 165.054 102.137 168.326 100.709L166.732 104.653L162.73 105.824L154.779 106.201L151.375 104.317L149.781 101.649L151.584 81.3497L154.585 78.2106L164.133 75.1962L174.003 67.2249L174.79 71.6726Z" fill="#05AA46"/>
<path d="M156.467 107.199C154.387 107.199 152.406 106.325 151.013 104.785C149.593 103.214 148.931 101.106 149.193 99.0033C149.921 93.1655 150.435 87.1927 150.741 83.2109C150.98 80.1023 153.208 77.4825 156.286 76.6882C169.24 73.3504 173.583 66.2396 173.626 66.1683C173.845 65.7992 174.278 65.6159 174.696 65.7177C175.113 65.8195 175.416 66.1811 175.442 66.6088C176.834 89.6928 168.018 104.34 167.641 104.951C167.521 105.147 167.333 105.294 167.114 105.366C163.677 106.499 160.153 107.115 156.637 107.196C156.581 107.196 156.523 107.196 156.467 107.196V107.199ZM173.606 69.3304C171.22 71.9145 166.101 76.1739 156.775 78.5772C154.506 79.1603 152.867 81.0825 152.691 83.356C152.383 87.3607 151.864 93.3641 151.133 99.2427C150.942 100.783 151.426 102.323 152.465 103.474C153.513 104.635 155.023 105.277 156.594 105.243C159.797 105.17 163.01 104.625 166.152 103.624C167.338 101.516 174.123 88.5599 173.606 69.3329V69.3304Z" fill="#333333"/>
<path d="M168.734 87.5237C168.619 87.4091 168.464 87.2003 168.441 86.9406C168.436 86.8719 168.423 86.8032 168.408 86.7395C168.296 86.2838 167.955 85.9426 167.537 85.7975C167.507 85.7873 167.476 85.7746 167.443 85.7619C167.285 85.6906 167.122 85.5658 167.026 85.3902C166.763 84.9166 166.249 84.6366 165.661 84.7002C165.419 84.7257 165.18 84.6671 165.022 84.5576C164.8 84.4074 164.551 84.3132 164.25 84.3132C163.95 84.3132 163.698 84.4074 163.476 84.5576C163.319 84.6646 163.079 84.7257 162.837 84.7002C162.249 84.634 161.735 84.9166 161.473 85.3902C161.356 85.6015 161.149 85.7364 160.964 85.8001C160.495 85.9579 160.111 86.3856 160.057 86.9432C160.032 87.2054 159.879 87.4116 159.762 87.5262C159.449 87.8419 159.316 88.2085 159.316 88.5853V88.6031C159.327 89.344 159.877 89.9499 160.592 90.0492C160.658 90.0594 160.727 90.062 160.796 90.062H162.919C163.12 90.062 163.283 90.23 163.283 90.4311V90.7927C163.283 91.1313 162.947 91.1771 162.947 91.1771L161.221 91.475C161.16 91.4851 161.106 91.5259 161.106 91.587V91.7983H167.387V91.587C167.387 91.5259 167.334 91.4851 167.272 91.475L165.546 91.1771C165.546 91.1771 165.21 91.1313 165.21 90.7927V90.4311C165.21 90.23 165.373 90.062 165.574 90.062H167.698C168.515 90.062 169.177 89.4 169.177 88.5828C169.177 88.206 169.044 87.8394 168.731 87.5237H168.734Z" fill="#00A849"/>
</g>
<defs>
<clipPath id="clip0_5202_22941">
<rect width="136.969" height="133" fill="white" transform="translate(93.8164 3.5)"/>
</clipPath>
</defs>
</svg>
