<svg width="400" height="200" viewBox="0 0 400 200" fill="none" xmlns="http://www.w3.org/2000/svg">
<g clip-path="url(#clip0_5123_552)">
<path d="M151.225 95.2354C151.225 95.2354 136.786 113.792 148.552 146.252C148.552 146.252 157.568 171.799 166.031 153.661" fill="#DAD9D4"/>
<path d="M159.441 161.914C159.347 161.914 159.256 161.914 159.161 161.906C152.298 161.572 147.435 148.344 146.904 146.834C140.685 129.667 141.773 116.323 143.784 108.154C145.988 99.1998 149.694 94.3662 149.851 94.1625C150.443 93.4023 151.538 93.2641 152.298 93.857C153.058 94.4462 153.197 95.5409 152.607 96.3011C152.546 96.3847 149.123 100.917 147.126 109.184C145.275 116.85 144.304 129.402 150.192 145.66C152.036 150.872 156.088 158.266 159.336 158.422C160.954 158.502 162.762 156.549 164.453 152.923C164.861 152.05 165.901 151.672 166.774 152.079C167.647 152.486 168.025 153.523 167.618 154.399C165.29 159.386 162.544 161.914 159.449 161.914H159.441Z" fill="#333333"/>
<path d="M274.547 96.9885C273.053 95.7665 272.831 93.5442 274.053 92.0494L319.458 36.5297C320.68 35.0348 322.902 34.813 324.397 36.035C325.892 37.2571 326.114 39.4793 324.892 40.9742L279.487 96.4939C278.265 97.9887 276.042 98.2106 274.547 96.9885Z" fill="#C2C2C2"/>
<path d="M276.759 98.9234C275.686 98.9234 274.66 98.5597 273.824 97.8759C271.834 96.2501 271.54 93.3114 273.165 91.3219L318.57 35.8022C320.196 33.8128 323.135 33.5181 325.124 35.1439C327.114 36.7697 327.408 39.7084 325.783 41.6979L280.378 97.2176C279.592 98.1778 278.475 98.7743 277.235 98.8979C277.075 98.9125 276.915 98.9234 276.759 98.9234ZM322.178 36.3878C321.495 36.3878 320.814 36.6824 320.345 37.2534L274.94 92.7731C274.115 93.7806 274.264 95.2754 275.275 96.101C275.762 96.4975 276.377 96.683 277.006 96.6175C277.639 96.5557 278.203 96.2501 278.603 95.7664L324.008 40.2467C324.833 39.2356 324.684 37.7444 323.673 36.9188C323.233 36.5587 322.706 36.3878 322.178 36.3878Z" fill="#666666"/>
<path d="M318.986 63.3858C311.076 57.1264 307.246 48.8267 305.704 44.5968C304.977 42.6073 303.998 40.716 302.751 39.003L299.717 34.8458C298.455 33.1146 296.764 31.7398 294.815 30.8487L281.423 24.7421L277.968 27.2625L276.844 28.0845L273.389 30.605L275.124 45.2187C275.375 47.3464 276.171 49.3759 277.437 51.1071L280.47 55.2643C281.721 56.9773 283.22 58.4831 284.896 59.7815C288.457 62.542 295.193 68.7178 298.743 78.1596C303.711 91.3766 311.232 92.064 311.232 92.064L319.267 86.2011L320.39 85.3791L328.425 79.5162C328.425 79.5162 330.065 72.1475 318.99 63.3858H318.986Z" fill="#F7F8F8"/>
<path d="M311.228 93.2315C311.191 93.2315 311.159 93.2315 311.122 93.2279C310.784 93.1988 302.819 92.3186 297.651 78.5741C294.221 69.4524 287.74 63.4658 284.179 60.7053C282.371 59.305 280.804 57.7047 279.527 55.9553L276.494 51.7981C275.115 49.9105 274.242 47.6846 273.966 45.3605L272.231 30.7468C272.18 30.3286 272.362 29.9176 272.7 29.6702L280.735 23.8073C281.073 23.56 281.52 23.5127 281.902 23.6873L295.29 29.7939C297.418 30.765 299.273 32.2744 300.647 34.162L303.681 38.3192C304.957 40.0686 306.005 42.0472 306.787 44.2003C308.329 48.4302 312.057 56.4317 319.698 62.4765C331.213 71.5874 329.62 79.4434 329.548 79.7744C329.486 80.0508 329.326 80.2945 329.097 80.4618L311.904 93.0096C311.704 93.1551 311.464 93.2351 311.217 93.2351L311.228 93.2315ZM274.624 31.1505L276.279 45.0877C276.508 47.0117 277.232 48.8594 278.374 50.4269L281.407 54.5841C282.557 56.159 283.968 57.5992 285.605 58.8686C289.358 61.7782 296.196 68.0994 299.829 77.7558C302.251 84.197 305.27 87.4377 307.376 89.0161C308.984 90.2236 310.315 90.671 310.948 90.831L327.322 78.8797C327.416 77.3266 327.118 71.3109 318.258 64.3023C310.166 57.9011 306.23 49.4595 304.605 45.0005C303.895 43.0546 302.953 41.2688 301.804 39.694L298.771 35.5368C297.629 33.9693 296.09 32.7181 294.326 31.9143L281.557 26.0914L274.621 31.1542L274.624 31.1505Z" fill="#889298"/>
<g opacity="0.4">
<path d="M313.664 82.9459C313.664 82.9459 310.707 73.675 318.988 79.0578L313.664 82.9459Z" fill="#F7F8F8"/>
<path d="M313.663 83.7532C313.321 83.7532 313.001 83.535 312.892 83.1895C312.644 82.4184 311.513 78.4941 313.412 77.0465C314.641 76.1081 316.609 76.5446 319.431 78.3777C319.806 78.6214 319.911 79.1233 319.668 79.4979C319.424 79.8725 318.922 79.978 318.547 79.7343C315.547 77.7848 314.608 78.1667 314.394 78.334C313.685 78.8759 313.961 81.2146 314.434 82.6985C314.568 83.124 314.336 83.5787 313.91 83.7169C313.83 83.7423 313.747 83.7569 313.663 83.7569V83.7532Z" fill="#8592B8"/>
</g>
<g opacity="0.4">
<path d="M322.647 77.1957C322.324 77.1957 322.022 77.003 321.894 76.6829C321.585 75.9046 320.123 71.9329 321.84 70.4162C322.825 69.5433 324.418 69.7325 326.713 70.9909C327.106 71.2055 327.248 71.7001 327.034 72.0893C326.819 72.4785 326.324 72.6239 325.935 72.4094C324.157 71.4346 323.207 71.3655 322.913 71.6274C322.302 72.1693 322.811 74.6061 323.4 76.0828C323.564 76.4974 323.364 76.9702 322.945 77.1339C322.847 77.1739 322.745 77.1921 322.647 77.1921V77.1957Z" fill="#8592B8"/>
<path d="M304.422 88.5034C304.044 88.5034 303.702 88.2342 303.63 87.8487C303.131 85.2809 303.437 83.7024 304.564 83.0296C306.536 81.8548 309.867 84.459 310.518 84.99C310.864 85.2737 310.915 85.7828 310.631 86.1284C310.347 86.4739 309.838 86.5248 309.493 86.2411C308.23 85.2046 306.103 83.9971 305.397 84.419C305.059 84.6226 304.833 85.5464 305.223 87.5359C305.306 87.976 305.023 88.4015 304.582 88.4852C304.532 88.4961 304.477 88.4997 304.426 88.4997L304.422 88.5034Z" fill="#8592B8"/>
</g>
<path d="M311.228 93.2315C311.191 93.2315 311.159 93.2315 311.122 93.2279C310.784 93.1988 302.819 92.3186 297.651 78.5741C294.221 69.4524 287.74 63.4658 284.179 60.7053C282.371 59.305 280.804 57.7047 279.527 55.9553L276.494 51.7981C275.115 49.9105 274.242 47.6846 273.966 45.3605L272.231 30.7468C272.18 30.3286 272.362 29.9176 272.7 29.6702L280.735 23.8073C281.073 23.56 281.52 23.5127 281.902 23.6873L295.29 29.7939C297.418 30.765 299.273 32.2744 300.647 34.162L303.681 38.3192C304.957 40.0686 306.005 42.0472 306.787 44.2003C308.329 48.4302 312.057 56.4317 319.698 62.4765C331.213 71.5874 329.62 79.4434 329.548 79.7744C329.486 80.0508 329.326 80.2945 329.097 80.4618L311.904 93.0096C311.704 93.1551 311.464 93.2351 311.217 93.2351L311.228 93.2315ZM274.624 31.1505L276.279 45.0877C276.508 47.0117 277.232 48.8594 278.374 50.4269L281.407 54.5841C282.557 56.159 283.968 57.5992 285.605 58.8686C289.358 61.7782 296.196 68.0994 299.829 77.7558C302.251 84.197 305.27 87.4377 307.376 89.0161C308.984 90.2236 310.315 90.671 310.948 90.831L327.322 78.8797C327.416 77.3266 327.118 71.3109 318.258 64.3023C310.166 57.9011 306.23 49.4595 304.605 45.0005C303.895 43.0546 302.953 41.2688 301.804 39.694L298.771 35.5368C297.629 33.9693 296.09 32.7181 294.326 31.9143L281.557 26.0914L274.621 31.1542L274.624 31.1505Z" fill="#7292A1"/>
<path d="M277.576 17.4794L267.635 24.7363L272.222 31.0198L282.163 23.7629L277.576 17.4794Z" fill="#4DB7DA"/>
<path d="M272.223 32.1834C272.165 32.1834 272.103 32.1798 272.045 32.1689C271.739 32.1216 271.466 31.9543 271.285 31.7033L266.698 25.4221C266.32 24.902 266.433 24.1746 266.953 23.7964L276.893 16.5404C277.14 16.3586 277.453 16.2822 277.758 16.3295C278.064 16.3768 278.337 16.5441 278.519 16.795L283.105 23.0762C283.483 23.5963 283.37 24.3237 282.85 24.702L272.91 31.9579C272.71 32.1034 272.47 32.1834 272.223 32.1834ZM269.262 24.993L272.477 29.3938L280.537 23.509L277.322 19.1082L269.262 24.993Z" fill="#3576BA"/>
<path d="M277.944 24.0946C277.741 24.0946 277.541 24 277.413 23.8255L275.929 21.7924C275.715 21.4978 275.78 21.0868 276.071 20.8722C276.366 20.6576 276.777 20.7231 276.991 21.014L278.475 23.0471C278.69 23.3417 278.624 23.7527 278.333 23.9673C278.217 24.0546 278.079 24.0946 277.948 24.0946H277.944Z" fill="#D0E9FF"/>
<path d="M275.704 25.7277C275.5 25.7277 275.3 25.6331 275.173 25.4585L273.689 23.4254C273.474 23.1308 273.54 22.7198 273.831 22.5052C274.126 22.2906 274.537 22.3561 274.751 22.6471L276.235 24.6802C276.45 24.9748 276.384 25.3858 276.093 25.6004C275.977 25.6877 275.839 25.7277 275.708 25.7277H275.704Z" fill="#D0E9FF"/>
<path d="M305.353 42.9091L283.389 58.9412C283.792 59.2976 284.211 59.6395 284.64 59.9669C287.964 62.5092 294.031 67.9939 297.682 76.3409L317.57 61.8254C310.732 55.8024 307.357 48.3537 305.949 44.4148C305.767 43.9056 305.567 43.4037 305.353 42.9091Z" fill="#4DB7DA"/>
<path d="M297.686 77.152C297.617 77.152 297.545 77.1411 297.475 77.1229C297.239 77.0575 297.043 76.8902 296.944 76.6647C293.355 68.4631 287.39 63.0839 284.153 60.6107C283.716 60.2761 283.28 59.9196 282.858 59.5487C282.673 59.385 282.571 59.1486 282.585 58.9049C282.596 58.6612 282.72 58.4321 282.916 58.2866L304.881 42.2544C305.077 42.109 305.332 42.0617 305.568 42.1271C305.804 42.1926 306.001 42.3599 306.099 42.5854C306.324 43.1019 306.532 43.6256 306.717 44.1421C308.088 47.9792 311.391 55.3006 318.109 61.2181C318.294 61.3817 318.392 61.6181 318.381 61.8618C318.37 62.1055 318.247 62.3346 318.05 62.4801L298.163 76.9956C298.025 77.0975 297.854 77.152 297.686 77.152ZM284.702 58.9886C284.844 59.1049 284.989 59.2177 285.135 59.3268C288.376 61.8036 294.246 67.0846 298.01 75.1044L316.29 61.7636C309.798 55.7334 306.561 48.532 305.19 44.6913C305.128 44.5203 305.066 44.3494 304.997 44.1784L284.702 58.9922V58.9886Z" fill="#3576BA"/>
<path opacity="0.37" d="M284.112 52.791C283.938 52.791 283.763 52.7364 283.614 52.62C279.959 49.7722 278.086 44.6367 278.009 44.4221C277.857 44.0002 278.078 43.5383 278.497 43.3856C278.919 43.2364 279.38 43.451 279.533 43.8729C279.551 43.9202 281.33 48.7866 284.607 51.3434C284.96 51.6199 285.022 52.1254 284.749 52.4782C284.589 52.6819 284.352 52.791 284.109 52.791H284.112Z" fill="#8592B8"/>
<path opacity="0.63" d="M296.788 37.359C295.577 35.7005 293.359 35.2604 291.835 36.3733C290.311 37.4863 290.052 39.734 291.264 41.3925C291.595 41.8471 292.002 42.1999 292.449 42.4618C292.449 42.4654 292.449 42.4727 292.449 42.4763C292.438 43.0728 292.446 43.662 292.635 44.2366C293.119 45.7024 294.624 46.5171 296.108 46.0479C297.367 45.6478 298.396 44.4731 298.538 43.1455C298.665 41.9235 298.192 40.8214 297.534 39.8358C297.574 38.9956 297.341 38.1191 296.788 37.3626V37.359Z" fill="#8D5E5F"/>
<path opacity="0.63" d="M282.93 37.2062C283.559 38.0682 283.392 39.2648 282.556 39.8758C281.719 40.4869 280.53 40.2832 279.901 39.4176C279.271 38.5556 279.439 37.359 280.275 36.748C281.112 36.1369 282.301 36.3406 282.93 37.2062Z" fill="#8D5E5F"/>
<path d="M273.219 97.6069C271.538 96.6576 270.942 94.5045 271.891 92.8241L307.2 30.394C308.149 28.7137 310.302 28.1172 311.982 29.0665C313.663 30.0158 314.259 32.1689 313.31 33.8492L278.001 96.2793C277.052 97.9597 274.899 98.5561 273.219 97.6069Z" fill="#F2F2F2"/>
<path d="M274.932 99.2072C274.139 99.2072 273.361 99.0035 272.655 98.6034C270.418 97.3377 269.629 94.4935 270.895 92.2568L306.203 29.8266C307.465 27.5898 310.313 26.8006 312.55 28.0663C314.787 29.332 315.576 32.1762 314.31 34.413L279.002 96.8431C278.391 97.9233 277.394 98.7016 276.194 99.0326C275.779 99.149 275.354 99.2035 274.936 99.2035L274.932 99.2072ZM273.783 96.6103C274.328 96.9195 274.968 96.9958 275.579 96.8249C276.19 96.654 276.696 96.2612 277.005 95.7156L312.314 33.2855C312.954 32.1507 312.554 30.7068 311.419 30.063C310.284 29.4229 308.84 29.823 308.196 30.9577L272.888 93.3879C272.248 94.5226 272.648 95.9666 273.783 96.6103Z" fill="#666666"/>
<path d="M267.385 76.5991C267.385 76.5991 284.508 83.7205 284.574 103.313L282.46 119.458L272.291 133.079L257.761 141.433L249.225 140.888L244.322 135.076L249.043 103.837L249.225 101.113L256.488 107.652L260.845 108.38L265.024 104.201L267.567 99.8436L262.846 97.3013L263.937 91.853L269.851 90.4199L264.504 83.9205L265.028 78.2322L267.389 76.5991H267.385Z" fill="#DAD9D4"/>
<path d="M274.896 109.456C274.896 109.456 276.191 119.444 265.08 130.558C265.08 130.558 252.288 141.801 246.734 127.845L249.226 101.12L257.071 108.983L264.305 107.82C264.305 107.82 264.821 111.566 274.896 109.46V109.456Z" fill="#F8F8F4"/>
<path d="M255.307 142.717C253.838 142.717 252.295 142.488 250.801 141.873C247.578 140.553 245.28 137.774 243.967 133.621C243.676 132.701 244.185 131.722 245.105 131.431C246.025 131.14 247.004 131.65 247.295 132.57C248.284 135.694 249.91 137.738 252.128 138.647C256.322 140.368 261.603 137.694 261.657 137.665C261.69 137.647 261.726 137.629 261.763 137.614C271.085 133.468 277.435 126.518 280.639 116.96C283.058 109.74 282.687 103.652 282.683 103.593C282.669 103.39 281.261 84.0042 268.433 78.7231C268.16 78.7122 267.491 78.7486 267.018 79.236C266.586 79.6833 265.942 80.9054 266.458 84.106C266.575 84.5133 267.593 87.8049 270.724 89.2561C271.456 89.5943 271.859 90.3908 271.699 91.1801C271.539 91.9693 270.863 92.5476 270.055 92.5803C268.149 92.6604 265.796 93.3587 265.513 94.1734C265.483 94.2498 265.454 94.3261 265.414 94.3989C265.414 94.3989 264.803 95.6718 265.345 96.7084C265.847 97.665 267.335 98.3705 269.535 98.6979C270.31 98.8143 270.91 99.4289 271.008 100.204C271.106 100.978 270.674 101.728 269.953 102.029C268.771 102.535 266.295 104.084 266.658 105.386C266.695 105.521 266.713 105.59 266.72 105.728C266.72 105.743 266.855 106.798 267.891 107.518C269.211 108.438 271.503 108.532 274.522 107.794C275.005 107.678 275.511 107.769 275.922 108.049C276.329 108.329 276.602 108.769 276.667 109.26C276.697 109.496 277.38 115.105 273.598 122.495C273.158 123.354 272.107 123.692 271.248 123.255C270.39 122.815 270.052 121.764 270.488 120.906C272.518 116.938 273.074 113.577 273.205 111.602C270.081 112.05 267.593 111.613 265.789 110.304C263.789 108.853 263.352 106.845 263.261 106.183C262.745 104.11 263.749 102.346 265.16 101.018C263.796 100.345 262.814 99.4253 262.225 98.2687C261.006 95.8828 261.974 93.5005 262.257 92.9004C262.774 91.5511 263.967 90.5363 265.811 89.8707C263.723 87.5758 263.083 85.0153 263.047 84.8625C263.036 84.8225 263.028 84.7825 263.021 84.7425C262.407 81.0581 262.927 78.3631 264.567 76.73C266.429 74.8751 268.87 75.2316 269.142 75.2789C269.262 75.3007 269.379 75.3334 269.488 75.3771C275.791 77.8684 280.679 83.535 283.614 91.7547C285.782 97.8286 286.142 103.128 286.157 103.35C286.175 103.612 286.589 110.071 283.985 117.92C281.574 125.194 276.016 135.054 263.221 140.768C262.705 141.03 259.275 142.703 255.307 142.703V142.717Z" fill="#333333"/>
<path d="M258.871 111.118C258.769 111.118 258.667 111.118 258.565 111.111C252.288 110.886 247.229 103.441 247.014 103.124C246.479 102.324 246.69 101.24 247.49 100.706C248.291 100.167 249.374 100.382 249.909 101.182C251.087 102.931 254.961 107.496 258.696 107.627C260.449 107.692 262.064 106.761 263.603 104.794C264.195 104.034 265.294 103.899 266.05 104.492C266.81 105.085 266.945 106.179 266.352 106.94C264.184 109.715 261.671 111.118 258.871 111.118Z" fill="#333333"/>
<path d="M258.789 120.258C258.33 120.258 257.905 120.222 257.527 120.167C255.493 119.873 254.231 118.978 254.093 118.876C253.577 118.494 253.464 117.767 253.846 117.25C254.224 116.734 254.951 116.625 255.468 117C255.635 117.12 259.305 119.644 264.077 115.865C264.582 115.465 265.313 115.552 265.71 116.054C266.11 116.556 266.023 117.29 265.521 117.687C262.96 119.713 260.596 120.258 258.792 120.258H258.789Z" fill="#C7C4BE"/>
<path d="M256.26 128.635C253.801 128.635 252.168 127.605 252.055 127.533C251.517 127.183 251.361 126.463 251.71 125.925C252.059 125.387 252.772 125.234 253.31 125.576C253.463 125.67 256.725 127.631 260.857 124.677C261.381 124.303 262.104 124.426 262.479 124.947C262.854 125.47 262.73 126.194 262.21 126.569C259.991 128.154 257.933 128.631 256.26 128.631V128.635Z" fill="#C7C4BE"/>
<path d="M247.651 74.9079C248.276 75.0134 248.905 75.1007 249.56 75.1007C255.852 75.1007 260.955 69.9979 260.955 63.7058C260.955 61.9891 260.548 60.3815 259.871 58.9194C261.795 56.6826 262.97 53.7802 262.97 50.5978C262.97 43.7565 257.583 38.1881 250.826 37.8644C251.08 36.9188 251.262 35.9404 251.262 34.9112C251.262 28.619 246.159 23.5162 239.867 23.5162C239.464 23.5162 239.078 23.5926 238.685 23.6363C236.929 16.4276 230.447 11.0739 222.7 11.0739C219.656 11.0739 216.816 11.914 214.372 13.3543C212.255 9.22624 207.97 6.39661 203.013 6.39661C198.343 6.39661 194.273 8.90981 192.047 12.6523C189.705 9.80089 186.155 7.97873 182.176 7.97873C176.153 7.97873 171.12 12.1504 169.774 17.7588C168.432 17.4205 167.035 17.2205 165.588 17.2205C156.135 17.2205 148.468 24.8838 148.468 34.3401C148.468 35.3549 148.574 36.3442 148.741 37.308C148.548 37.3007 148.359 37.2789 148.163 37.2789C141.11 37.2789 135.396 42.9927 135.396 50.045C135.396 53.362 136.669 56.3698 138.743 58.6393C137.579 60.5633 136.899 62.811 136.899 65.226C136.899 72.2783 142.616 77.9921 149.665 77.9921C150.578 77.9921 151.465 77.8939 152.32 77.7121" fill="#05AA46"/>
<path d="M149.665 79.3921C141.856 79.3921 135.502 73.0382 135.502 65.2294C135.502 62.9999 136.037 60.7995 137.051 58.81C135.077 56.3114 134 53.238 134 50.0483C134 42.5815 139.808 36.4457 147.144 35.922C147.093 35.3837 147.072 34.86 147.072 34.3399C147.072 24.1307 155.375 15.8273 165.584 15.8273C166.635 15.8273 167.712 15.9255 168.792 16.1219C170.742 10.4408 176.063 6.58185 182.169 6.58185C185.81 6.58185 189.261 7.96757 191.873 10.4299C194.539 7.04012 198.66 4.99609 203.006 4.99609C207.861 4.99609 212.299 7.44747 214.895 11.481C217.329 10.2953 219.995 9.67335 222.693 9.67335C230.535 9.67335 237.365 14.7325 239.704 22.1194C239.755 22.1194 239.809 22.1194 239.86 22.1194C246.913 22.1194 252.652 27.8586 252.652 34.9109C252.652 35.4747 252.608 36.042 252.514 36.6421C259.275 37.7478 264.363 43.5926 264.363 50.6012C264.363 53.689 263.345 56.6896 261.483 59.1446C262.057 60.6285 262.352 62.1561 262.352 63.7055C262.352 70.7578 256.613 76.497 249.56 76.497C248.775 76.497 248.036 76.3916 247.414 76.2861C246.654 76.1588 246.141 75.4387 246.272 74.6785C246.4 73.9184 247.12 73.4055 247.88 73.5365C248.411 73.6274 248.978 73.7111 249.557 73.7111C255.07 73.7111 259.555 69.2266 259.555 63.7128C259.555 62.2907 259.235 60.8795 258.598 59.5156C258.366 59.0173 258.449 58.4318 258.806 58.0171C260.584 55.9513 261.566 53.3181 261.566 50.6085C261.566 44.5418 256.816 39.5591 250.75 39.2681C250.328 39.2463 249.939 39.039 249.688 38.6971C249.44 38.3552 249.357 37.9188 249.469 37.5114C249.735 36.533 249.855 35.7074 249.855 34.9218C249.855 29.408 245.37 24.9235 239.857 24.9235C239.675 24.9235 239.471 24.9526 239.238 24.9817C239.1 24.9999 238.958 25.0181 238.82 25.0327C238.125 25.1018 237.485 24.6544 237.318 23.9743C235.667 17.2057 229.655 12.4775 222.69 12.4775C220.024 12.4775 217.387 13.1977 215.066 14.5652C214.735 14.7616 214.339 14.8089 213.968 14.7034C213.601 14.5979 213.292 14.3433 213.117 14.0015C211.157 10.1789 207.283 7.8039 203.002 7.8039C198.962 7.8039 195.31 9.88794 193.233 13.3795C193 13.7687 192.593 14.0233 192.138 14.056C191.684 14.0924 191.244 13.9033 190.956 13.5505C188.785 10.9063 185.581 9.38966 182.166 9.38966C176.895 9.38966 172.353 12.9722 171.12 18.1004C171.033 18.4641 170.803 18.7769 170.487 18.9697C170.167 19.1624 169.785 19.2206 169.425 19.1297C168.123 18.8024 166.828 18.6351 165.581 18.6351C156.91 18.6351 149.858 25.6873 149.858 34.3581C149.858 35.2237 149.941 36.1148 150.112 37.0859C150.185 37.5041 150.065 37.9297 149.785 38.2497C149.505 38.5662 149.101 38.7407 148.672 38.7225C148.592 38.7225 148.512 38.7153 148.435 38.708C148.345 38.7007 148.254 38.6934 148.159 38.6934C141.889 38.6934 136.79 43.7926 136.79 50.0629C136.79 52.8925 137.848 55.613 139.772 57.7153C140.19 58.1735 140.256 58.85 139.936 59.3774C138.859 61.1559 138.292 63.1854 138.292 65.2403C138.292 71.5106 143.395 76.6098 149.661 76.6098C150.447 76.6098 151.243 76.5261 152.029 76.3588C152.782 76.1988 153.524 76.6789 153.684 77.4354C153.844 78.1883 153.36 78.9302 152.607 79.0903C151.632 79.2976 150.643 79.3994 149.661 79.3994L149.665 79.3921Z" fill="#01782E"/>
<path d="M172.036 47.6117C172.036 47.6117 156.819 40.6213 151.883 41.8543C151.883 41.8543 149.418 54.1912 160.522 59.5376C160.522 59.5376 137.077 92.4385 162.165 149.195C162.165 149.195 173.269 168.526 199.18 170.581C199.18 170.581 230.437 170.17 244.01 132.744C244.01 132.744 254.292 85.4481 238.664 59.5376C238.664 59.5376 246.891 54.1912 245.243 41.8543L225.501 47.6117C225.501 47.6117 213.986 38.1517 204.937 38.1517C195.888 38.1517 186.843 39.3847 172.036 47.6117Z" fill="#F8F8F4"/>
<path d="M184.225 40.7777C184.225 40.7777 192.19 53.2092 201.661 58.2611C201.661 58.2611 212.812 48.852 215.001 46.1606L218.086 41.7088L200.537 38.0863L184.225 40.7777Z" fill="#C7C6BF"/>
<path d="M183.785 176.546C183.785 176.546 173.034 177.513 168.659 179.993C168.659 179.993 165.156 182.59 169.121 184.092" fill="#CBC9C3"/>
<path d="M169.12 185.253C168.982 185.253 168.844 185.227 168.709 185.176C167.131 184.576 166.251 183.696 166.094 182.55C165.836 180.695 167.753 179.219 167.971 179.055C168.007 179.026 168.047 179.001 168.091 178.979C172.634 176.404 183.236 175.425 183.687 175.385C184.323 175.327 184.891 175.8 184.949 176.44C185.007 177.08 184.534 177.644 183.894 177.702C183.788 177.713 173.456 178.666 169.306 180.965C168.844 181.328 168.36 181.947 168.4 182.234C168.418 182.358 168.677 182.674 169.538 183.001C170.139 183.23 170.44 183.9 170.215 184.5C170.04 184.965 169.597 185.249 169.127 185.249L169.12 185.253Z" fill="#333333"/>
<path d="M216.271 176.546C216.271 176.546 227.023 177.513 231.398 179.994C231.398 179.994 234.9 182.59 230.936 184.093" fill="#CBC9C3"/>
<path d="M230.935 185.253C230.466 185.253 230.022 184.965 229.848 184.504C229.619 183.903 229.924 183.231 230.524 183.005C231.386 182.678 231.644 182.361 231.663 182.238C231.706 181.936 231.168 181.296 230.757 180.972C226.607 178.673 216.271 177.717 216.165 177.709C215.525 177.651 215.052 177.088 215.11 176.447C215.169 175.807 215.74 175.334 216.372 175.393C216.823 175.433 227.425 176.415 231.968 178.986C232.008 179.008 232.048 179.037 232.088 179.062C232.306 179.226 234.223 180.703 233.965 182.558C233.805 183.7 232.925 184.584 231.35 185.184C231.215 185.235 231.073 185.26 230.939 185.26L230.935 185.253Z" fill="#333333"/>
<path d="M180.25 165.212C180.25 165.212 183.57 175.458 183.785 176.545C184.003 177.633 166.483 184.274 167.825 188.973C167.825 188.973 170.571 194.829 182.37 183.601C182.37 183.601 176.998 194.12 183.37 193.829C183.37 193.829 188.291 193.196 189.459 178.069L188.935 168.871" fill="#CBC9C3"/>
<path d="M183.123 195C181.21 195 180.243 194.134 179.759 193.385C178.937 192.109 178.879 190.155 179.592 187.573C175.613 190.708 172.317 192.05 169.771 191.57C167.626 191.166 166.855 189.639 166.771 189.468C166.745 189.41 166.724 189.355 166.705 189.293C165.622 185.5 171.717 181.947 179.191 178.026C180.446 177.368 181.836 176.64 182.494 176.215C181.97 174.385 180.25 168.999 179.141 165.573C178.944 164.961 179.279 164.307 179.89 164.107C180.497 163.907 181.155 164.245 181.355 164.856C181.697 165.911 184.702 175.196 184.927 176.32C185.167 177.524 184.229 178.015 180.275 180.088C177.053 181.779 168.575 186.227 168.92 188.544C169.04 188.711 169.437 189.166 170.281 189.301C171.692 189.526 175.038 188.981 181.57 182.765C181.981 182.376 182.614 182.336 183.069 182.674C183.523 183.012 183.665 183.631 183.41 184.136C182.156 186.598 180.799 190.708 181.716 192.13C181.806 192.272 182.09 192.701 183.21 192.676C183.647 192.519 187.298 190.828 188.295 178.062L187.775 168.944C187.739 168.304 188.23 167.755 188.87 167.718C189.51 167.678 190.059 168.173 190.095 168.813L190.619 178.011C190.619 178.062 190.619 178.117 190.619 178.168C189.415 193.789 184.12 194.913 183.52 194.993C183.487 194.996 183.458 195 183.425 195C183.323 195.004 183.221 195.007 183.123 195.007V195Z" fill="#333333"/>
<path d="M219.808 165.213C219.808 165.213 216.488 175.458 216.27 176.546C216.051 177.633 233.571 184.274 232.229 188.973C232.229 188.973 229.483 194.829 217.684 183.601C217.684 183.601 223.056 194.12 216.684 193.829C216.684 193.829 211.763 193.196 210.596 178.07L211.119 168.871" fill="#CBC9C3"/>
<path d="M216.932 195C216.834 195 216.732 195 216.63 194.993C216.598 194.993 216.569 194.989 216.536 194.985C215.936 194.909 210.64 193.782 209.436 178.16C209.433 178.109 209.433 178.055 209.436 178.004L209.96 168.806C209.996 168.166 210.549 167.671 211.186 167.711C211.826 167.748 212.317 168.297 212.28 168.937L211.76 178.055C212.761 190.817 216.409 192.512 216.845 192.669C217.976 192.694 218.249 192.265 218.34 192.123C219.256 190.701 217.9 186.591 216.645 184.129C216.387 183.623 216.532 183.009 216.987 182.667C217.441 182.328 218.074 182.365 218.485 182.758C225.017 188.973 228.364 189.519 229.775 189.293C230.608 189.159 231.004 188.719 231.135 188.533C231.47 186.213 223.003 181.772 219.78 180.081C215.827 178.008 214.888 177.517 215.128 176.313C215.354 175.193 218.358 165.904 218.7 164.849C218.896 164.238 219.555 163.903 220.166 164.1C220.777 164.296 221.111 164.954 220.915 165.565C219.806 168.991 218.085 174.382 217.562 176.207C218.22 176.633 219.609 177.36 220.864 178.019C228.338 181.939 234.434 185.493 233.35 189.286C233.332 189.348 233.31 189.406 233.285 189.461C233.205 189.632 232.433 191.159 230.284 191.563C227.738 192.043 224.443 190.701 220.464 187.566C221.177 190.148 221.122 192.101 220.297 193.378C219.816 194.127 218.845 194.993 216.932 194.993V195Z" fill="#333333"/>
<path d="M172.535 49.2957C172.001 49.2957 171.473 49.052 171.132 48.5865C170.56 47.8118 170.724 46.7207 171.499 46.146C179.762 40.0503 189.626 36.8279 200.032 36.8279C210.437 36.8279 219.632 39.8357 227.706 45.5277C228.495 46.0842 228.681 47.1717 228.128 47.9573C227.571 48.7465 226.484 48.932 225.698 48.3792C218.213 43.1054 209.339 40.3158 200.035 40.3158C190.732 40.3158 181.232 43.3018 173.576 48.9538C173.263 49.183 172.903 49.2957 172.543 49.2957H172.535Z" fill="#333333"/>
<path d="M200.027 172.137C170.407 172.137 149.723 144.314 149.723 104.481C149.723 83.1022 152.96 68.0556 159.619 58.472C159.641 58.4393 159.663 58.4102 159.688 58.3811C159.786 58.261 162.096 55.3732 164.133 53.4965C164.842 52.8418 165.944 52.8891 166.599 53.5983C167.253 54.3076 167.206 55.4096 166.497 56.0643C164.78 57.6464 162.74 60.156 162.449 60.516C156.233 69.4959 153.211 83.8805 153.211 104.484C153.211 142.266 172.462 168.653 200.027 168.653C227.592 168.653 246.843 142.266 246.843 104.484C246.843 83.8587 243.813 69.4632 237.583 60.4869C237.43 60.276 235.834 58.1192 233.957 55.9115C233.331 55.1768 233.422 54.0784 234.157 53.4529C234.892 52.8273 235.994 52.9182 236.616 53.6529C238.667 56.0643 240.34 58.3483 240.409 58.4429C240.416 58.4538 240.427 58.4647 240.435 58.4756C247.094 68.0556 250.331 83.1058 250.331 104.484C250.331 144.321 229.643 172.141 200.027 172.141V172.137Z" fill="#333333"/>
<path d="M200.028 59.4212C199.813 59.4212 199.599 59.363 199.41 59.243C198.948 58.952 188.047 52.0344 182.141 42.4362C181.806 41.8906 181.973 41.1741 182.523 40.8359C183.068 40.5012 183.785 40.6685 184.123 41.2177C188.957 49.0702 197.624 55.2459 200.021 56.8607C202.461 55.1695 211.408 48.6592 215.933 41.1086C216.264 40.5594 216.977 40.3776 217.529 40.7086C218.079 41.0395 218.26 41.7524 217.929 42.3052C212.412 51.5179 201.144 58.9229 200.668 59.2321C200.475 59.3594 200.253 59.4212 200.031 59.4212H200.028Z" fill="#C7C6BF"/>
<path d="M160.773 61.0179C160.573 61.0179 160.369 60.9852 160.173 60.9088C155.859 59.323 153.044 55.4132 152.033 49.6012C151.309 45.444 151.76 41.7633 151.778 41.6069C151.888 40.734 152.63 40.0793 153.51 40.0793C160.078 40.0793 172.561 45.5204 173.088 45.7495C173.972 46.1351 174.372 47.1643 173.986 48.0481C173.601 48.9283 172.572 49.332 171.688 48.9465C171.575 48.8992 161.348 44.4402 155.132 43.68C155.015 47.2189 155.416 55.4423 161.377 57.6354C162.282 57.9664 162.744 58.9702 162.413 59.8759C162.155 60.5815 161.486 61.0179 160.777 61.0179H160.773Z" fill="#333333"/>
<path d="M239.286 61.0179C238.577 61.0179 237.908 60.5815 237.65 59.8759C237.319 58.9702 237.78 57.97 238.686 57.6354C244.647 55.4459 245.047 47.2225 244.931 43.68C238.715 44.4402 228.488 48.8992 228.375 48.9465C227.491 49.3357 226.466 48.932 226.076 48.0481C225.691 47.1643 226.091 46.1387 226.975 45.7495C227.502 45.5168 239.985 40.0793 246.553 40.0793C247.433 40.0793 248.175 40.734 248.284 41.6069C248.302 41.7597 248.753 45.444 248.03 49.6012C247.019 55.4132 244.203 59.323 239.89 60.9088C239.69 60.9815 239.49 61.0179 239.29 61.0179H239.286Z" fill="#333333"/>
<path d="M239.325 93.1805C239.325 96.1956 236.237 98.6434 232.429 98.6434C228.621 98.6434 225.533 96.1993 225.533 93.1805C225.533 90.1618 228.621 87.7177 232.429 87.7177C236.237 87.7177 239.325 90.1618 239.325 93.1805Z" fill="#FFB8DD"/>
<path d="M174.917 93.1805C174.917 96.1956 171.829 98.6434 168.021 98.6434C164.213 98.6434 161.125 96.1993 161.125 93.1805C161.125 90.1618 164.213 87.7177 168.021 87.7177C171.829 87.7177 174.917 90.1618 174.917 93.1805Z" fill="#FFB8DD"/>
<path d="M194.081 127.023C191.342 127.023 188.847 124.812 186.494 120.28C186.454 120.371 186.41 120.462 186.366 120.549C185.272 122.823 183.773 124.165 182.035 124.426C178.605 124.947 174.812 121.371 170.429 113.501C170.116 112.941 170.316 112.231 170.88 111.919C171.444 111.606 172.149 111.806 172.462 112.37C177.448 121.32 180.387 122.321 181.686 122.128C183.704 121.826 184.919 118.193 185.184 116.941C185.29 116.447 185.705 116.076 186.206 116.025C186.716 115.978 187.188 116.258 187.388 116.723C189.6 121.859 191.978 124.692 194.081 124.696H194.084C196.539 124.696 198.692 120.975 199.318 119.542C199.573 118.953 200.26 118.684 200.849 118.938C201.438 119.193 201.708 119.877 201.453 120.466C201.424 120.531 200.751 122.077 199.576 123.634C197.903 125.852 196.005 127.023 194.084 127.023H194.081Z" fill="#B1B1AA"/>
<path d="M206.683 127.023C204.762 127.023 202.864 125.852 201.191 123.634C200.016 122.077 199.343 120.531 199.314 120.466C199.06 119.876 199.332 119.193 199.922 118.938C200.511 118.684 201.194 118.956 201.449 119.546C202.075 120.982 204.228 124.699 206.683 124.699H206.686C208.789 124.699 211.167 121.866 213.379 116.727C213.579 116.261 214.059 115.981 214.561 116.028C215.066 116.079 215.477 116.45 215.583 116.945C215.848 118.193 217.063 121.826 219.082 122.128C220.387 122.321 223.322 121.317 228.305 112.37C228.618 111.809 229.324 111.606 229.887 111.919C230.447 112.231 230.651 112.941 230.338 113.501C225.952 121.371 222.155 124.943 218.732 124.426C216.994 124.165 215.495 122.823 214.401 120.549C214.357 120.458 214.313 120.367 214.273 120.28C211.92 124.808 209.422 127.02 206.686 127.023H206.683Z" fill="#B1B1AA"/>
<path d="M200.21 144.558C200.039 144.558 196.511 144.488 193.699 139.317C192.881 140.913 191.55 142.648 189.579 142.852C186.854 143.139 184.098 140.415 181.177 134.53C180.89 133.956 181.126 133.257 181.701 132.97C182.275 132.683 182.974 132.919 183.261 133.494C186.534 140.08 188.6 140.615 189.339 140.539C190.866 140.382 192.125 137.422 192.496 136.014C192.623 135.523 193.056 135.174 193.561 135.148C194.067 135.123 194.532 135.429 194.711 135.905C197.002 142.059 200.181 142.23 200.213 142.23C200.857 142.23 201.377 142.75 201.377 143.394C201.377 144.037 200.857 144.558 200.213 144.558H200.21Z" fill="#B1B1AA"/>
<path d="M200.554 144.558C199.911 144.558 199.391 144.037 199.391 143.394C199.391 142.75 199.9 142.241 200.533 142.23C200.707 142.223 203.799 141.972 206.057 135.905C206.236 135.429 206.705 135.127 207.207 135.148C207.712 135.174 208.145 135.527 208.272 136.018C208.64 137.425 209.898 140.382 211.429 140.539C212.168 140.615 214.237 140.08 217.507 133.494C217.794 132.919 218.489 132.683 219.067 132.97C219.642 133.257 219.878 133.956 219.591 134.53C216.667 140.415 213.917 143.139 211.186 142.852C209.214 142.648 207.887 140.917 207.068 139.32C206.072 141.161 204.883 142.554 203.511 143.474C201.944 144.525 200.693 144.558 200.554 144.558Z" fill="#B1B1AA"/>
<path d="M231.085 78.0467C230.568 78.0467 230.059 77.8212 229.717 77.3848C223.188 69.1396 215.154 72.602 214.816 72.7548C213.939 73.1476 212.907 72.7548 212.51 71.8819C212.114 71.009 212.496 69.9797 213.368 69.5796C213.474 69.5324 224.189 64.786 232.452 75.2171C233.049 75.9736 232.921 77.0684 232.168 77.6685C231.848 77.9231 231.466 78.0467 231.088 78.0467H231.085Z" fill="#333333"/>
<path d="M228.364 60.6688C228.313 60.6688 228.259 60.6688 228.204 60.6579L219.246 59.6432C218.479 59.5559 217.93 58.8648 218.017 58.1011C218.104 57.3373 218.795 56.7844 219.559 56.8717L228.517 57.8865C229.285 57.9738 229.834 58.6648 229.746 59.4286C229.666 60.1415 229.063 60.6688 228.361 60.6688H228.364Z" fill="#333333"/>
<path d="M169.367 78.0467C168.989 78.0467 168.607 77.923 168.287 77.6684C167.531 77.072 167.403 75.9736 168.004 75.2171C172.299 69.7942 177.238 68.5321 180.628 68.4339C184.29 68.3212 186.974 69.5287 187.087 69.5796C187.964 69.9797 188.349 71.0163 187.946 71.8928C187.545 72.7657 186.513 73.1512 185.64 72.7548C185.287 72.5984 177.26 69.1468 170.739 77.3847C170.393 77.8212 169.884 78.0467 169.371 78.0467H169.367Z" fill="#333333"/>
<path d="M172.088 60.6688C171.386 60.6688 170.782 60.1415 170.702 59.4286C170.615 58.6612 171.168 57.9701 171.932 57.8865L180.89 56.8717C181.657 56.7844 182.348 57.3373 182.432 58.1011C182.519 58.8685 181.966 59.5595 181.203 59.6432L172.245 60.6579C172.19 60.6652 172.139 60.6688 172.085 60.6688H172.088Z" fill="#333333"/>
<path d="M240.15 61.0288C241.063 61.2616 242.02 61.3853 243.009 61.3853C249.308 61.3853 245.257 59.8031 245.257 53.591C245.257 47.3789 249.749 45.2694 243.449 45.2694C241.711 45.2694 239.641 39.3083 238.164 39.9921C238.237 39.3992 238.288 38.8028 238.288 38.1881C238.288 29.9938 228.05 36.3514 219.739 36.3514C214.364 36.3514 213.163 26.1385 210.501 30.3211C208.504 27.0551 204.998 32.387 200.848 32.387C196.698 32.387 193.094 27.0005 191.083 30.2084C188.504 26.3022 184.427 30.8049 179.346 30.8049C171.359 30.8049 164.499 30.1029 164.499 37.9771C164.499 38.0244 164.507 38.0717 164.507 38.1154C162.888 37.2461 166.245 43.4837 164.278 43.4837C157.978 43.4837 158.851 40.8395 158.851 47.0516C158.851 53.2637 152.795 59.203 159.095 59.203C164.889 59.203 169.62 54.9295 170.351 49.4121C172.759 51.1797 175.734 52.2381 178.968 52.2381C184.951 52.2381 190.083 48.6556 192.283 43.5491C194.371 45.8587 197.378 47.3426 200.765 47.3426C204.151 47.3426 207.144 45.8659 209.232 43.5673C211.418 49.0993 216.859 53.0273 223.245 53.0273C226.359 53.0273 229.246 52.0962 231.647 50.4995C231.814 55.5732 235.364 59.8031 240.158 61.0252" fill="#05AA46"/>
<path d="M243.009 62.7528C241.925 62.7528 240.852 62.6182 239.812 62.3527C235.099 61.1489 231.52 57.3336 230.538 52.7109C228.283 53.8202 225.795 54.3985 223.238 54.3985C217.102 54.3985 211.621 51.1033 208.784 45.8587C206.515 47.6881 203.682 48.7101 200.757 48.7101C197.833 48.7101 194.945 47.6699 192.665 45.8041C189.861 50.5978 184.667 53.6092 178.957 53.6092C176.233 53.6092 173.607 52.9291 171.257 51.6234C169.653 56.8462 164.74 60.5742 159.088 60.5742C158.415 60.5742 156.367 60.5742 155.374 59.1412C154.309 57.6064 155.076 55.5623 155.963 53.1946C156.673 51.2997 157.48 49.1538 157.48 47.0516C157.48 46.2624 157.466 45.6186 157.455 45.0985C157.418 43.4327 157.4 42.5962 158.146 41.9706C158.844 41.3851 159.648 41.5487 160.495 41.7233C161.154 41.8579 162.103 42.0507 163.496 42.1052C163.405 41.5888 163.216 40.8941 163.096 40.4576C162.703 39.0174 162.386 37.868 163.154 37.1188C163.292 34.9184 163.972 33.2344 165.223 31.9942C167.868 29.3682 172.352 29.3937 177.531 29.4337C178.128 29.4373 178.731 29.441 179.342 29.441C181.045 29.441 182.667 28.8445 184.234 28.2698C186.42 27.4697 189.053 26.5022 191.141 28.2298C192.905 27.1787 195.087 28.459 196.637 29.3646C198.03 30.1793 199.47 31.0267 200.845 31.0267C202.22 31.0267 203.66 30.1938 205.031 29.3901C206.566 28.4917 208.734 27.2224 210.483 28.3462C210.828 28.1171 211.25 27.9534 211.749 27.9534H211.752C213.265 27.9534 214.182 29.3791 215.24 31.0267C216.433 32.8853 217.786 34.9911 219.732 34.9911C222.292 34.9911 225.071 34.3437 227.763 33.7182C231.978 32.7398 235.622 31.8924 237.885 33.6891C239.056 34.6201 239.649 36.1368 239.649 38.1954C239.649 38.4427 239.641 38.7009 239.627 38.9664C240.489 39.5556 241.231 40.6868 241.914 41.7379C242.384 42.458 243.158 43.6401 243.566 43.9092C245.624 43.9165 247.046 44.1383 247.766 45.164C248.512 46.2187 248.076 47.4371 247.617 48.7247C247.174 49.9722 246.617 51.5252 246.617 53.602C246.617 55.6787 247.083 57.0717 247.454 58.2356C247.839 59.4394 248.207 60.5778 247.483 61.5671C246.748 62.5746 245.341 62.7637 242.998 62.7637L243.009 62.7528ZM240.492 59.7049C241.311 59.9159 242.158 60.0214 243.013 60.0214C244.184 60.0214 244.799 59.9595 245.115 59.9013C245.053 59.6577 244.951 59.3412 244.86 59.0648C244.475 57.8646 243.893 56.0461 243.893 53.5983C243.893 51.1506 244.591 49.0956 245.05 47.8045C245.173 47.459 245.315 47.0589 245.391 46.7752C245.104 46.7134 244.537 46.6443 243.449 46.6443C241.864 46.6443 240.78 44.9894 239.634 43.2363C239.248 42.6471 238.637 41.7124 238.274 41.3633C237.954 41.3887 237.63 41.3014 237.361 41.105C236.961 40.8141 236.746 40.3267 236.808 39.8321C236.884 39.2138 236.921 38.6937 236.921 38.1954C236.921 37.0097 236.673 36.2168 236.19 35.8313C234.96 34.8566 231.618 35.6313 228.388 36.3841C225.679 37.0133 222.613 37.7262 219.739 37.7262C216.302 37.7262 214.364 34.7111 212.949 32.507C212.607 31.976 212.131 31.234 211.796 30.8594C211.756 30.914 211.709 30.9795 211.658 31.0631C211.407 31.4559 210.97 31.696 210.505 31.696H210.494C210.021 31.6923 209.585 31.445 209.341 31.0413C209.014 30.5066 208.894 30.3102 206.424 31.7541C204.893 32.6489 202.991 33.7618 200.856 33.7618C198.721 33.7618 196.895 32.6816 195.266 31.725C192.701 30.2229 192.56 30.4484 192.25 30.9394C192.003 31.3322 191.574 31.5759 191.108 31.5796H191.094C190.636 31.5796 190.206 31.3504 189.952 30.9649C189.072 29.6337 188.199 29.7356 185.191 30.8376C183.481 31.4632 181.543 32.176 179.357 32.176C178.739 32.176 178.128 32.1724 177.528 32.1688C172.952 32.1397 169.002 32.1106 167.166 33.9364C166.304 34.7947 165.882 36.1077 165.878 37.959C165.882 38.0172 165.885 38.0644 165.885 38.1154C165.885 38.45 165.769 38.7664 165.558 39.0137C165.62 39.2574 165.693 39.5229 165.751 39.7375C166.216 41.4396 166.656 43.0472 165.845 44.1129C165.478 44.593 164.925 44.8585 164.289 44.8585C162.365 44.8585 161.037 44.6221 160.193 44.4511C160.193 44.6402 160.201 44.8403 160.204 45.0403C160.215 45.5786 160.23 46.2442 160.23 47.0553C160.23 49.6521 159.291 52.1508 158.542 54.1584C158.117 55.2932 157.407 57.1917 157.644 57.5845C157.644 57.5845 157.909 57.8391 159.109 57.8391C164.103 57.8391 168.359 54.1402 169.01 49.2375C169.071 48.7574 169.384 48.35 169.828 48.1609C170.272 47.9718 170.784 48.03 171.174 48.3173C173.458 49.994 176.156 50.8778 178.979 50.8778C184.249 50.8778 188.981 47.7899 191.039 43.0145C191.225 42.5889 191.614 42.2834 192.072 42.2071C192.53 42.1307 192.996 42.2943 193.309 42.6399C195.258 44.793 197.91 45.9823 200.776 45.9823C203.642 45.9823 206.282 44.8003 208.232 42.6544C208.548 42.3053 209.024 42.1452 209.49 42.2289C209.956 42.3125 210.345 42.6326 210.516 43.0727C212.578 48.2955 217.579 51.6707 223.256 51.6707C225.995 51.6707 228.639 50.8742 230.901 49.3721C231.312 49.0956 231.843 49.0665 232.284 49.2957C232.724 49.5248 233.007 49.9722 233.025 50.4668C233.167 54.8204 236.244 58.6247 240.507 59.7122L240.492 59.7049Z" fill="#01782E"/>
<path d="M243.134 62.9747C243.134 62.9747 241.843 60.3051 240.17 59.6032L234.893 39.8976L203.163 39.3593L179.744 40.385L160.118 49.4485L161.104 57.6137C161.104 57.6137 159.231 58.0502 158.191 60.5234L147.705 62.1164L142.689 44.1348L148.571 39.5157L153.906 35.0058L169.698 22.2251L189.848 18.8972L212.285 19.9701L231.456 20.8285L239.952 29.852L247.139 37.2644L254.111 42.098L257.704 50.907L250.95 63.9022L243.123 62.9711L243.134 62.9747Z" fill="#05AA46"/>
<g opacity="0.7">
<path d="M157.993 38.9083C157.993 38.9083 147.893 38.9083 148.901 49.7686L157.993 38.9083Z" fill="#05AA46"/>
<path d="M148.901 50.9324C148.308 50.9324 147.799 50.4814 147.744 49.8776C147.402 46.1933 148.213 43.24 150.163 41.1014C153.185 37.7844 157.797 37.748 157.993 37.748C158.637 37.748 159.157 38.2681 159.157 38.9119C159.157 39.5557 158.637 40.0721 157.997 40.0758C157.931 40.0758 154.178 40.1376 151.868 42.6835C150.388 44.3166 149.781 46.6661 150.057 49.6631C150.115 50.3032 149.646 50.8706 149.006 50.9287C148.97 50.9287 148.933 50.9324 148.897 50.9324H148.901Z" fill="white"/>
</g>
<g opacity="0.7">
<path d="M223.357 27.3097C223.357 27.3097 235.731 22.5125 237.753 35.8968L223.357 27.3097Z" fill="#05AA46"/>
<path d="M237.754 37.0606C237.186 37.0606 236.692 36.646 236.604 36.0714C236.059 32.4452 234.662 29.9575 232.458 28.6772C228.73 26.5168 223.831 28.3753 223.78 28.3935C223.18 28.6263 222.507 28.3281 222.274 27.7279C222.042 27.1278 222.34 26.455 222.94 26.2222C223.184 26.1276 228.941 23.949 233.626 26.6623C236.474 28.3135 238.248 31.3614 238.907 35.7186C239.001 36.355 238.565 36.9479 237.932 37.0424C237.874 37.0497 237.816 37.057 237.757 37.057L237.754 37.0606Z" fill="white"/>
</g>
<g opacity="0.7">
<path d="M180.717 23.1525C180.717 23.1525 169.729 20.3156 167.07 29.3537L180.717 23.1525Z" fill="#05AA46"/>
<path d="M167.075 30.5176C166.966 30.5176 166.857 30.503 166.748 30.4703C166.133 30.2885 165.78 29.6411 165.958 29.0264C168.312 21.0249 176.833 20.9485 181.008 22.0251C181.63 22.1851 182.005 22.8216 181.845 23.4435C181.685 24.0654 181.052 24.4401 180.43 24.28C180.012 24.1746 170.494 21.8505 168.191 29.6847C168.042 30.1903 167.58 30.5212 167.075 30.5212V30.5176Z" fill="white"/>
</g>
<path d="M207.673 80.829C203.549 77.5301 200.25 77.8029 200.25 77.8029C200.25 77.8029 196.951 77.5265 192.827 80.829C192.827 80.829 191.175 105.299 200.25 105.299C209.324 105.299 207.673 80.829 207.673 80.829Z" fill="#FF775D"/>
<path d="M193.771 81.1963C193.771 81.1963 198.311 88.7069 207.854 81.4327C207.854 81.4327 199.874 74.6278 193.771 81.1963Z" fill="#C7C6BF"/>
<path d="M206.527 95.981C206.527 95.981 197.529 101.615 193.307 96.2174C193.307 96.2174 194.321 104.99 200.384 105.299C200.384 105.299 206.76 105.135 206.527 95.9846V95.981Z" fill="#C7C6BF"/>
<path d="M200.384 106.692C198.646 106.692 197.122 106.005 195.852 104.648C190.415 98.8324 191.517 81.4691 191.568 80.7344C191.594 80.3452 191.783 79.9815 192.088 79.7378C196.213 76.439 199.701 76.3772 200.384 76.4063C201.064 76.3772 204.556 76.439 208.68 79.7378C208.986 79.9815 209.175 80.3452 209.201 80.7344C209.251 81.4691 210.353 98.8324 204.916 104.648C203.647 106.005 202.123 106.692 200.384 106.692ZM194.318 81.5455C194.049 86.6664 194.223 98.8178 197.893 102.742C198.624 103.524 199.439 103.902 200.384 103.902C201.33 103.902 202.148 103.524 202.876 102.742C206.549 98.8106 206.72 86.6664 206.451 81.5455C203.112 79.0686 200.595 79.1886 200.482 79.1959C200.417 79.1959 200.333 79.1995 200.268 79.1959C200.173 79.1886 197.653 79.0723 194.314 81.5455H194.318Z" fill="#333333"/>
<path d="M200.416 86.881C200.325 86.881 200.235 86.881 200.14 86.8773C195.194 86.7028 191.928 81.8036 191.793 81.5963C191.371 80.9526 191.549 80.0869 192.197 79.665C192.84 79.2395 193.706 79.4214 194.128 80.0688C194.153 80.1051 196.754 83.9786 200.253 84.0913C202.406 84.1641 204.57 82.782 206.698 79.9887C207.163 79.3741 208.04 79.2577 208.654 79.7232C209.269 80.1888 209.385 81.0653 208.92 81.68C206.287 85.1352 203.428 86.8882 200.42 86.8882L200.416 86.881Z" fill="#333333"/>
<path d="M200.458 100.746C200.381 100.746 200.305 100.746 200.228 100.746C195.693 100.611 192.627 96.4974 192.5 96.3228C192.045 95.7009 192.18 94.828 192.802 94.3734C193.424 93.9187 194.293 94.0533 194.751 94.6716C194.784 94.7153 197.166 97.8722 200.327 97.9559C202.273 98.0068 204.189 96.8793 206.066 94.6098C206.557 94.0169 207.437 93.9333 208.03 94.4243C208.623 94.9153 208.706 95.7955 208.215 96.3883C205.822 99.2834 203.215 100.749 200.458 100.749V100.746Z" fill="#333333"/>
<path d="M150.836 95.2354C150.836 95.2354 157.187 105.936 176.459 110.904C180.249 111.879 183.039 115.076 183.337 118.974C183.774 124.674 184.516 133.232 185.556 141.601C186.239 147.096 181.875 151.868 176.336 151.741C172.28 151.646 167.287 151.013 161.777 149.195C161.777 149.195 148.851 128.151 150.836 95.2354Z" fill="#FFE234"/>
<path d="M176.55 153.141C176.47 153.141 176.387 153.141 176.307 153.141C171.284 153.025 166.25 152.145 161.34 150.526C161.027 150.424 160.762 150.213 160.587 149.933C160.049 149.057 147.454 128.136 149.443 95.1592C149.48 94.5482 149.913 94.0318 150.509 93.8863C151.105 93.7408 151.724 94.0027 152.037 94.5264C152.098 94.6282 158.405 104.816 176.812 109.558C181.209 110.693 184.392 114.436 184.734 118.877C185.17 124.561 185.905 133.09 186.945 141.437C187.32 144.441 186.37 147.453 184.345 149.697C182.355 151.897 179.529 153.149 176.554 153.149L176.55 153.141ZM162.715 148.035C167.203 149.464 171.793 150.243 176.369 150.348C178.609 150.395 180.769 149.479 182.268 147.82C183.752 146.18 184.443 143.976 184.17 141.775C183.123 133.374 182.381 124.798 181.944 119.08C181.697 115.832 179.351 113.09 176.11 112.253C162.788 108.82 155.47 102.735 152.066 99.0436C151.662 114.072 154.39 126.245 156.859 134.036C159.285 141.685 161.908 146.602 162.715 148.035Z" fill="#333333"/>
<path d="M150.375 102.389C150.375 102.389 157.631 111.82 174.791 116.767C176.584 117.283 177.86 118.949 177.948 120.895C178.173 125.91 178.668 135.516 179.439 142.179C179.777 145.107 177.409 147.58 174.612 147.22C170.521 146.692 164.283 145.911 159.609 143.87L161.886 149.504L167.604 151.177L178.962 151.715L183.825 149.024L186.102 145.212L183.527 116.214L179.239 111.729L165.6 107.423L151.499 96.0355L150.375 102.389Z" fill="#05AA46"/>
<path d="M176.55 153.141C176.47 153.141 176.387 153.141 176.307 153.141C171.284 153.025 166.25 152.145 161.34 150.526C161.027 150.424 160.762 150.213 160.587 149.933C160.049 149.057 147.454 128.136 149.443 95.1592C149.48 94.5482 149.913 94.0318 150.509 93.8863C151.105 93.7408 151.724 94.0027 152.037 94.5264C152.098 94.6282 158.405 104.816 176.812 109.558C181.209 110.693 184.392 114.436 184.734 118.877C185.17 124.561 185.905 133.09 186.945 141.437C187.32 144.441 186.37 147.453 184.345 149.697C182.355 151.897 179.529 153.149 176.554 153.149L176.55 153.141ZM162.715 148.035C167.203 149.464 171.793 150.243 176.369 150.348C178.609 150.395 180.769 149.479 182.268 147.82C183.752 146.18 184.443 143.976 184.17 141.775C183.123 133.374 182.381 124.798 181.944 119.08C181.697 115.832 179.351 113.09 176.11 112.253C162.788 108.82 155.47 102.735 152.066 99.0436C151.662 114.072 154.39 126.245 156.859 134.036C159.285 141.685 161.908 146.602 162.715 148.035Z" fill="#333333"/>
<path d="M249.218 95.2355C249.218 95.2355 242.868 105.936 223.595 110.904C219.805 111.879 217.015 115.076 216.717 118.975C216.281 124.674 215.539 133.232 214.498 141.601C213.815 147.096 218.179 151.868 223.718 151.741C227.774 151.646 232.767 151.013 238.278 149.195C238.278 149.195 251.204 128.151 249.218 95.2355Z" fill="#FFE234"/>
<path d="M223.505 153.141C220.533 153.141 217.704 151.894 215.714 149.693C213.685 147.449 212.739 144.438 213.114 141.433C214.154 133.094 214.888 124.561 215.325 118.873C215.667 114.432 218.849 110.689 223.246 109.555C241.752 104.786 247.957 94.6281 248.018 94.5262C248.331 93.9989 248.95 93.737 249.546 93.8825C250.143 94.028 250.575 94.5444 250.612 95.1554C252.601 128.133 240.006 149.057 239.468 149.93C239.297 150.21 239.028 150.421 238.715 150.522C233.805 152.141 228.771 153.021 223.748 153.137C223.668 153.137 223.585 153.137 223.505 153.137V153.141ZM247.989 99.0435C244.581 102.735 237.267 108.82 223.945 112.253C220.704 113.086 218.362 115.832 218.111 119.08C217.671 124.801 216.929 133.377 215.885 141.775C215.612 143.976 216.303 146.176 217.787 147.82C219.286 149.479 221.442 150.395 223.687 150.348C228.262 150.242 232.852 149.464 237.34 148.035C239.035 145.023 248.728 126.514 247.989 99.0471V99.0435Z" fill="#333333"/>
<path d="M249.68 102.39C249.68 102.39 242.424 111.82 225.264 116.767C223.471 117.283 222.195 118.949 222.107 120.895C221.886 125.91 221.387 135.516 220.616 142.179C220.278 145.107 222.646 147.58 225.443 147.22C229.534 146.693 235.772 145.911 240.445 143.87L238.169 149.504L232.451 151.177L221.093 151.715L216.23 149.024L213.953 145.212L216.528 116.214L220.816 111.73L234.455 107.423L248.556 96.0356L249.68 102.39Z" fill="#05AA46"/>
<path d="M223.505 153.141C220.533 153.141 217.704 151.894 215.714 149.693C213.685 147.449 212.739 144.438 213.114 141.433C214.154 133.094 214.888 124.561 215.325 118.873C215.667 114.432 218.849 110.689 223.246 109.555C241.752 104.786 247.957 94.6281 248.018 94.5262C248.331 93.9989 248.95 93.737 249.546 93.8825C250.143 94.028 250.575 94.5444 250.612 95.1554C252.601 128.133 240.006 149.057 239.468 149.93C239.297 150.21 239.028 150.421 238.715 150.522C233.805 152.141 228.771 153.021 223.748 153.137C223.668 153.137 223.585 153.137 223.505 153.137V153.141ZM247.989 99.0435C244.581 102.735 237.267 108.82 223.945 112.253C220.704 113.086 218.362 115.832 218.111 119.08C217.671 124.801 216.929 133.377 215.885 141.775C215.612 143.976 216.303 146.176 217.787 147.82C219.286 149.479 221.442 150.395 223.687 150.348C228.262 150.242 232.852 149.464 237.34 148.035C239.035 145.023 248.728 126.514 247.989 99.0471V99.0435Z" fill="#333333"/>
<path d="M241.028 125.034C240.864 124.87 240.642 124.572 240.609 124.201C240.602 124.103 240.584 124.005 240.562 123.914C240.402 123.263 239.915 122.775 239.318 122.568C239.275 122.553 239.231 122.535 239.184 122.517C238.958 122.415 238.725 122.237 238.587 121.986C238.213 121.309 237.478 120.909 236.638 121C236.292 121.037 235.95 120.953 235.725 120.797C235.408 120.582 235.052 120.448 234.623 120.448C234.194 120.448 233.834 120.582 233.517 120.797C233.292 120.949 232.95 121.037 232.604 121C231.764 120.906 231.029 121.309 230.655 121.986C230.488 122.288 230.193 122.481 229.927 122.572C229.258 122.797 228.709 123.408 228.633 124.205C228.596 124.579 228.378 124.874 228.211 125.037C227.763 125.488 227.574 126.012 227.574 126.55V126.576C227.589 127.634 228.374 128.5 229.396 128.642C229.491 128.656 229.589 128.66 229.687 128.66H232.721C233.008 128.66 233.241 128.9 233.241 129.187V129.704C233.241 130.188 232.761 130.253 232.761 130.253L230.295 130.679C230.207 130.693 230.131 130.751 230.131 130.839V131.14H239.104V130.839C239.104 130.751 239.027 130.693 238.94 130.679L236.474 130.253C236.474 130.253 235.994 130.188 235.994 129.704V129.187C235.994 128.9 236.227 128.66 236.514 128.66H239.547C240.715 128.66 241.661 127.714 241.661 126.547C241.661 126.009 241.471 125.485 241.024 125.034H241.028Z" fill="#00A849"/>
</g>
<defs>
<clipPath id="clip0_5123_552">
<rect width="195.67" height="190" fill="white" transform="translate(134 5)"/>
</clipPath>
</defs>
</svg>
