<svg width="360" height="180" viewBox="0 0 360 180" fill="none" xmlns="http://www.w3.org/2000/svg">
<g clip-path="url(#clip0_5202_22819)">
<path d="M136.111 85.7119C136.111 85.7119 123.116 102.413 133.705 131.627C133.705 131.627 141.82 154.619 149.437 138.295" fill="#DAD9D4"/>
<path d="M143.505 145.722C143.42 145.722 143.338 145.722 143.253 145.716C137.076 145.415 132.7 133.509 132.222 132.151C126.625 116.701 127.603 104.691 129.414 97.3388C131.397 89.2798 134.733 84.9295 134.873 84.7462C135.407 84.0621 136.392 83.9377 137.076 84.4713C137.761 85.0016 137.885 85.9868 137.355 86.671C137.299 86.7463 134.219 90.8249 132.422 98.2652C130.756 105.165 129.882 116.462 135.181 131.094C136.841 135.784 140.487 142.439 143.41 142.58C144.867 142.652 146.494 140.894 148.016 137.631C148.383 136.845 149.319 136.504 150.104 136.871C150.89 137.238 151.23 138.171 150.864 138.96C148.769 143.447 146.297 145.722 143.512 145.722H143.505Z" fill="#333333"/>
<path d="M247.105 87.2897C245.759 86.1898 245.56 84.1898 246.659 82.8445L287.524 32.8767C288.624 31.5314 290.624 31.3317 291.969 32.4316C293.315 33.5314 293.514 35.5314 292.414 36.8768L251.55 86.8445C250.45 88.1899 248.45 88.3895 247.105 87.2897Z" fill="#C2C2C2"/>
<path d="M249.093 89.0311C248.128 89.0311 247.204 88.7038 246.452 88.0884C244.661 86.6252 244.396 83.9803 245.859 82.1898L286.724 32.2221C288.187 30.4316 290.832 30.1664 292.622 31.6296C294.413 33.0928 294.678 35.7377 293.215 37.5282L252.35 87.4959C251.643 88.3601 250.638 88.8969 249.522 89.0082C249.378 89.0213 249.234 89.0311 249.093 89.0311ZM289.971 32.7491C289.355 32.7491 288.743 33.0142 288.321 33.5282L247.456 83.4959C246.713 84.4026 246.848 85.748 247.758 86.491C248.196 86.8478 248.749 87.0147 249.316 86.9558C249.885 86.9002 250.393 86.6252 250.753 86.1899L291.617 36.2221C292.36 35.3121 292.226 33.9701 291.316 33.227C290.92 32.9029 290.445 32.7491 289.971 32.7491Z" fill="#666666"/>
<path d="M287.093 57.0472C279.973 51.4138 276.526 43.944 275.138 40.1371C274.484 38.3465 273.603 36.6444 272.48 35.1026L269.75 31.3612C268.615 29.8031 267.093 28.5658 265.338 27.7638L253.286 22.2678L250.176 24.5363L249.164 25.276L246.055 27.5445L247.616 40.6968C247.842 42.6117 248.559 44.4382 249.698 45.9964L252.428 49.7378C253.554 51.2796 254.903 52.6347 256.412 53.8033C259.616 56.2878 265.678 61.8459 268.873 70.3436C273.345 82.2389 280.114 82.8576 280.114 82.8576L287.345 77.5809L288.356 76.8412L295.587 71.5645C295.587 71.5645 297.063 64.9327 287.096 57.0472H287.093Z" fill="#F7F8F8"/>
<path d="M280.112 83.9084C280.08 83.9084 280.05 83.9084 280.017 83.9051C279.713 83.8789 272.544 83.0867 267.893 70.7167C264.806 62.5072 258.973 57.1192 255.768 54.6348C254.142 53.3745 252.731 51.9342 251.582 50.3598L248.852 46.6183C247.611 44.9194 246.826 42.9162 246.577 40.8245L245.015 27.6721C244.97 27.2957 245.133 26.9258 245.438 26.7032L252.669 21.4266C252.973 21.204 253.376 21.1614 253.719 21.3186L265.768 26.8145C267.683 27.6885 269.353 29.047 270.59 30.7458L273.32 34.4873C274.469 36.0618 275.412 37.8425 276.116 39.7803C277.503 43.5872 280.859 50.7886 287.736 56.2289C298.099 64.4286 296.666 71.4991 296.6 71.7969C296.545 72.0457 296.401 72.265 296.194 72.4156L280.721 83.7087C280.541 83.8396 280.325 83.9116 280.103 83.9116L280.112 83.9084ZM247.169 28.0355L248.659 40.579C248.865 42.3106 249.516 43.9734 250.544 45.3843L253.274 49.1257C254.308 50.5431 255.579 51.8393 257.052 52.9817C260.43 55.6004 266.584 61.2895 269.854 69.9802C272.034 75.7773 274.751 78.6939 276.646 80.1145C278.093 81.2013 279.291 81.6039 279.86 81.7479L294.597 70.9917C294.682 69.594 294.414 64.1799 286.44 57.8721C279.156 52.111 275.615 44.5136 274.152 40.5004C273.513 38.7492 272.665 37.142 271.631 35.7246L268.901 31.9832C267.873 30.5723 266.489 29.4463 264.901 28.7229L253.408 23.4823L247.166 28.0388L247.169 28.0355Z" fill="#889298"/>
<g opacity="0.4">
<path d="M282.306 74.6514C282.306 74.6514 279.644 66.3076 287.098 71.1521L282.306 74.6514Z" fill="#F7F8F8"/>
<path d="M282.307 75.378C281.999 75.378 281.711 75.1816 281.613 74.8706C281.391 74.1767 280.373 70.6447 282.081 69.3419C283.188 68.4974 284.959 68.8902 287.499 70.54C287.836 70.7593 287.931 71.211 287.711 71.5482C287.492 71.8853 287.04 71.9803 286.703 71.7609C284.003 70.0064 283.158 70.3501 282.965 70.5007C282.327 70.9884 282.576 73.0932 283.001 74.4287C283.122 74.8117 282.913 75.2209 282.53 75.3453C282.458 75.3682 282.382 75.3813 282.307 75.3813V75.378Z" fill="#8592B8"/>
</g>
<g opacity="0.4">
<path d="M290.391 69.4761C290.099 69.4761 289.828 69.3026 289.713 69.0146C289.435 68.3141 288.119 64.7396 289.664 63.3746C290.551 62.589 291.985 62.7592 294.05 63.8918C294.404 64.0849 294.531 64.5301 294.338 64.8803C294.145 65.2306 293.7 65.3615 293.35 65.1684C291.749 64.2911 290.895 64.2289 290.63 64.4646C290.08 64.9523 290.538 67.1455 291.068 68.4745C291.216 68.8476 291.036 69.2732 290.659 69.4205C290.571 69.4565 290.479 69.4728 290.391 69.4728V69.4761Z" fill="#8592B8"/>
<path d="M273.988 79.6529C273.648 79.6529 273.34 79.4107 273.274 79.0637C272.826 76.7527 273.101 75.3321 274.116 74.7265C275.89 73.6692 278.888 76.013 279.474 76.4909C279.785 76.7462 279.831 77.2045 279.576 77.5154C279.32 77.8264 278.862 77.8722 278.551 77.6169C277.415 76.684 275.5 75.5972 274.865 75.9769C274.561 76.1603 274.358 76.9917 274.708 78.7822C274.783 79.1783 274.528 79.5613 274.132 79.6366C274.086 79.6464 274.037 79.6497 273.991 79.6497L273.988 79.6529Z" fill="#8592B8"/>
</g>
<path d="M280.112 83.9084C280.08 83.9084 280.05 83.9084 280.017 83.9051C279.713 83.8789 272.544 83.0867 267.893 70.7167C264.806 62.5072 258.973 57.1192 255.768 54.6348C254.142 53.3745 252.731 51.9342 251.582 50.3598L248.852 46.6183C247.611 44.9194 246.826 42.9162 246.577 40.8245L245.015 27.6721C244.97 27.2957 245.133 26.9258 245.438 26.7032L252.669 21.4266C252.973 21.204 253.376 21.1614 253.719 21.3186L265.768 26.8145C267.683 27.6885 269.353 29.047 270.59 30.7458L273.32 34.4873C274.469 36.0618 275.412 37.8425 276.116 39.7803C277.503 43.5872 280.859 50.7886 287.736 56.2289C298.099 64.4286 296.666 71.4991 296.6 71.7969C296.545 72.0457 296.401 72.265 296.194 72.4156L280.721 83.7087C280.541 83.8396 280.325 83.9116 280.103 83.9116L280.112 83.9084ZM247.169 28.0355L248.659 40.579C248.865 42.3106 249.516 43.9734 250.544 45.3843L253.274 49.1257C254.308 50.5431 255.579 51.8393 257.052 52.9817C260.43 55.6004 266.584 61.2895 269.854 69.9802C272.034 75.7773 274.751 78.6939 276.646 80.1145C278.093 81.2013 279.291 81.6039 279.86 81.7479L294.597 70.9917C294.682 69.594 294.414 64.1799 286.44 57.8721C279.156 52.111 275.615 44.5136 274.152 40.5004C273.513 38.7492 272.665 37.142 271.631 35.7246L268.901 31.9832C267.873 30.5723 266.489 29.4463 264.901 28.7229L253.408 23.4823L247.166 28.0388L247.169 28.0355Z" fill="#7292A1"/>
<path d="M249.826 15.7315L240.879 22.2627L245.007 27.9178L253.954 21.3866L249.826 15.7315Z" fill="#4DB7DA"/>
<path d="M245.009 28.9651C244.957 28.9651 244.901 28.9618 244.849 28.952C244.574 28.9094 244.329 28.7589 244.165 28.533L240.037 22.8799C239.697 22.4118 239.798 21.7571 240.266 21.4167L249.212 14.8864C249.435 14.7227 249.716 14.654 249.991 14.6965C250.266 14.7391 250.512 14.8897 250.676 15.1155L254.803 20.7686C255.144 21.2367 255.042 21.8914 254.574 22.2318L245.628 28.7621C245.448 28.8931 245.232 28.9651 245.009 28.9651ZM242.345 22.4937L245.239 26.4544L252.492 21.1581L249.599 17.1974L242.345 22.4937Z" fill="#3576BA"/>
<path d="M250.158 21.6851C249.975 21.6851 249.794 21.6 249.68 21.4429L248.344 19.6131C248.151 19.348 248.21 18.9781 248.472 18.7849C248.737 18.5918 249.107 18.6507 249.3 18.9126L250.636 20.7424C250.829 21.0075 250.77 21.3774 250.508 21.5706C250.403 21.6491 250.279 21.6851 250.161 21.6851H250.158Z" fill="#D0E9FF"/>
<path d="M248.142 23.1549C247.959 23.1549 247.779 23.0697 247.664 22.9126L246.329 21.0828C246.136 20.8177 246.195 20.4478 246.456 20.2547C246.722 20.0615 247.091 20.1205 247.285 20.3823L248.62 22.2121C248.813 22.4773 248.754 22.8472 248.492 23.0403C248.388 23.1188 248.263 23.1549 248.145 23.1549H248.142Z" fill="#D0E9FF"/>
<path d="M274.826 38.6182L255.059 53.0471C255.422 53.3679 255.798 53.6756 256.185 53.9702C259.176 56.2583 264.636 61.1945 267.923 68.7068L285.822 55.6429C279.668 50.2222 276.63 43.5184 275.363 39.9733C275.2 39.5151 275.02 39.0633 274.826 38.6182Z" fill="#4DB7DA"/>
<path d="M267.924 69.4368C267.862 69.4368 267.797 69.427 267.734 69.4106C267.522 69.3517 267.345 69.2011 267.256 68.9982C264.026 61.6168 258.657 56.7755 255.744 54.5496C255.351 54.2484 254.958 53.9277 254.579 53.5938C254.412 53.4465 254.32 53.2337 254.333 53.0144C254.343 52.7951 254.454 52.5889 254.631 52.4579L274.399 38.029C274.576 37.898 274.805 37.8555 275.018 37.9144C275.23 37.9733 275.407 38.1239 275.495 38.3269C275.698 38.7917 275.885 39.263 276.052 39.7279C277.286 43.1812 280.258 49.7705 286.304 55.0963C286.471 55.2436 286.559 55.4563 286.55 55.6756C286.54 55.8949 286.428 56.1012 286.252 56.2321L268.353 69.2961C268.229 69.3877 268.075 69.4368 267.924 69.4368ZM256.238 53.0897C256.366 53.1944 256.497 53.2959 256.628 53.3941C259.544 55.6233 264.828 60.3762 268.216 67.5939L284.667 55.5873C278.824 50.16 275.911 43.6788 274.677 40.2221C274.622 40.0683 274.566 39.9144 274.504 39.7606L256.238 53.093V53.0897Z" fill="#3576BA"/>
<path opacity="0.37" d="M255.708 47.5119C255.551 47.5119 255.394 47.4628 255.26 47.358C251.97 44.795 250.284 40.173 250.215 39.9799C250.078 39.6002 250.278 39.1844 250.654 39.047C251.034 38.9128 251.449 39.1059 251.587 39.4856C251.603 39.5281 253.204 43.9079 256.153 46.2091C256.471 46.4578 256.526 46.9128 256.281 47.2303C256.137 47.4137 255.924 47.5119 255.705 47.5119H255.708Z" fill="#8592B8"/>
<path opacity="0.63" d="M267.117 33.623C266.026 32.1304 264.03 31.7343 262.658 32.7359C261.287 33.7376 261.054 35.7605 262.144 37.2532C262.442 37.6623 262.809 37.9799 263.211 38.2155C263.211 38.2188 263.211 38.2254 263.211 38.2286C263.202 38.7655 263.208 39.2957 263.378 39.8129C263.814 41.1321 265.169 41.8653 266.504 41.4431C267.637 41.083 268.563 40.0257 268.691 38.8309C268.806 37.7311 268.38 36.7393 267.788 35.8522C267.824 35.096 267.614 34.3072 267.117 33.6263V33.623Z" fill="#8D5E5F"/>
<path opacity="0.63" d="M254.648 33.4855C255.214 34.2613 255.063 35.3383 254.311 35.8882C253.558 36.4381 252.487 36.2548 251.921 35.4757C251.355 34.7 251.505 33.623 252.258 33.0731C253.011 32.5232 254.081 32.7065 254.648 33.4855Z" fill="#8D5E5F"/>
<path d="M245.91 87.8461C244.398 86.9917 243.861 85.0539 244.715 83.5416L276.493 27.3545C277.347 25.8422 279.285 25.3054 280.797 26.1597C282.309 27.0141 282.846 28.9519 281.992 30.4642L250.214 86.6513C249.36 88.1636 247.422 88.7004 245.91 87.8461Z" fill="#F2F2F2"/>
<path d="M247.45 89.2864C246.737 89.2864 246.036 89.1031 245.401 88.743C243.388 87.6039 242.678 85.0441 243.817 83.031L275.595 26.8439C276.73 24.8308 279.293 24.1204 281.307 25.2596C283.32 26.3987 284.03 28.9585 282.891 30.9716L251.113 87.1587C250.563 88.1309 249.666 88.8314 248.586 89.1292C248.213 89.234 247.83 89.2831 247.454 89.2831L247.45 89.2864ZM246.416 86.9492C246.907 87.2274 247.483 87.2962 248.033 87.1423C248.583 86.9885 249.038 86.6349 249.316 86.1439L281.094 29.9568C281.67 28.9355 281.31 27.636 280.289 27.0566C279.267 26.4805 277.968 26.8406 277.388 27.8619L245.611 84.049C245.035 85.0703 245.395 86.3698 246.416 86.9492Z" fill="#666666"/>
<path d="M240.655 68.9392C240.655 68.9392 256.066 75.3484 256.125 92.982L254.223 107.512L245.071 119.771L231.993 127.29L224.311 126.799L219.898 121.568L224.147 93.4534L224.311 91.0016L230.848 96.8871L234.769 97.5418L238.53 93.7807L240.818 89.8592L236.57 87.5711L237.552 82.6677L242.874 81.378L238.062 75.5285L238.534 70.4089L240.658 68.9392H240.655Z" fill="#DAD9D4"/>
<path d="M247.416 98.5107C247.416 98.5107 248.581 107.499 238.581 117.503C238.581 117.503 227.069 127.621 222.07 115.061L224.313 91.0082L231.373 98.0852L237.884 97.0377C237.884 97.0377 238.349 100.409 247.416 98.514V98.5107Z" fill="#F8F8F4"/>
<path d="M229.784 128.445C228.461 128.445 227.074 128.239 225.728 127.686C222.828 126.498 220.759 123.997 219.578 120.259C219.316 119.431 219.774 118.55 220.602 118.288C221.43 118.026 222.311 118.485 222.573 119.313C223.463 122.125 224.926 123.964 226.923 124.783C230.697 126.331 235.45 123.925 235.499 123.899C235.529 123.882 235.561 123.866 235.594 123.853C243.984 120.121 249.699 113.866 252.583 105.264C254.76 98.766 254.426 93.2864 254.422 93.234C254.409 93.0507 253.143 75.6037 241.597 70.8508C241.352 70.841 240.75 70.8737 240.324 71.3124C239.935 71.715 239.355 72.8148 239.82 75.6954C239.925 76.062 240.841 79.0244 243.66 80.3305C244.318 80.6349 244.681 81.3517 244.537 82.0621C244.393 82.7724 243.784 83.2928 243.057 83.3223C241.342 83.3943 239.224 84.0228 238.969 84.756C238.943 84.8248 238.917 84.8935 238.881 84.959C238.881 84.959 238.331 86.1047 238.818 87.0376C239.27 87.8984 240.609 88.5335 242.589 88.8281C243.286 88.9328 243.827 89.486 243.915 90.1833C244.003 90.8805 243.614 91.5548 242.966 91.8265C241.902 92.2815 239.673 93.6759 240 94.8478C240.033 94.9689 240.049 95.0311 240.056 95.1555C240.056 95.1686 240.177 96.1178 241.11 96.766C242.298 97.5941 244.36 97.6792 247.077 97.0147C247.512 96.91 247.967 96.9918 248.337 97.2439C248.704 97.4959 248.949 97.892 249.008 98.3339C249.034 98.5467 249.65 103.594 246.246 110.246C245.85 111.018 244.904 111.323 244.131 110.93C243.358 110.534 243.054 109.588 243.447 108.815C245.273 105.244 245.774 102.219 245.892 100.442C243.08 100.845 240.841 100.452 239.218 99.2734C237.417 97.9673 237.025 96.1604 236.943 95.5646C236.478 93.6988 237.381 92.1113 238.651 90.9165C237.424 90.3109 236.54 89.4828 236.01 88.4418C234.913 86.2945 235.784 84.1505 236.039 83.6104C236.504 82.3959 237.578 81.4827 239.237 80.8837C237.358 78.8182 236.782 76.5137 236.75 76.3762C236.74 76.3402 236.733 76.3042 236.727 76.2682C236.173 72.9523 236.642 70.5268 238.118 69.057C239.794 67.3876 241.99 67.7084 242.236 67.751C242.344 67.7706 242.448 67.8001 242.547 67.8393C248.219 70.0816 252.619 75.1815 255.26 82.5793C257.211 88.0458 257.535 92.815 257.548 93.0147C257.565 93.2504 257.938 99.0639 255.594 106.128C253.424 112.674 248.422 121.549 236.907 126.691C236.442 126.927 233.355 128.432 229.784 128.432V128.445Z" fill="#333333"/>
<path d="M232.991 100.007C232.9 100.007 232.808 100.007 232.717 100C227.067 99.7971 222.513 93.0966 222.32 92.8118C221.839 92.0917 222.029 91.1162 222.749 90.635C223.469 90.1506 224.445 90.3437 224.926 91.0638C225.987 92.6383 229.473 96.7464 232.834 96.8642C234.412 96.9231 235.865 96.0852 237.25 94.3143C237.784 93.6301 238.772 93.509 239.453 94.0426C240.137 94.5761 240.258 95.5614 239.725 96.2455C237.774 98.7431 235.512 100.007 232.991 100.007Z" fill="#333333"/>
<path d="M232.918 108.233C232.506 108.233 232.123 108.2 231.782 108.151C229.952 107.886 228.817 107.08 228.692 106.989C228.227 106.645 228.126 105.99 228.47 105.525C228.81 105.061 229.465 104.962 229.93 105.3C230.08 105.408 233.383 107.679 237.678 104.278C238.133 103.918 238.791 103.997 239.147 104.449C239.507 104.9 239.429 105.561 238.977 105.918C236.673 107.742 234.545 108.233 232.921 108.233H232.918Z" fill="#C7C4BE"/>
<path d="M230.642 115.771C228.429 115.771 226.959 114.845 226.858 114.779C226.373 114.465 226.232 113.817 226.547 113.332C226.861 112.848 227.502 112.711 227.987 113.018C228.124 113.103 231.061 114.868 234.779 112.21C235.25 111.873 235.902 111.984 236.239 112.452C236.576 112.923 236.465 113.575 235.997 113.912C234 115.339 232.147 115.768 230.642 115.768V115.771Z" fill="#C7C4BE"/>
<path d="M222.896 67.4171C223.459 67.5121 224.025 67.5906 224.614 67.5906C230.277 67.5906 234.87 62.9981 234.87 57.3352C234.87 55.7902 234.503 54.3433 233.894 53.0275C235.626 51.0144 236.683 48.4022 236.683 45.538C236.683 39.3809 231.835 34.3693 225.754 34.078C225.983 33.2269 226.146 32.3464 226.146 31.4201C226.146 25.7572 221.554 21.1646 215.891 21.1646C215.528 21.1646 215.181 21.2334 214.827 21.2727C213.246 14.7849 207.413 9.96649 200.441 9.96649C197.701 9.96649 195.144 10.7226 192.945 12.0189C191.04 8.30363 187.184 5.75696 182.722 5.75696C178.519 5.75696 174.856 8.01885 172.853 11.3871C170.745 8.82082 167.55 7.18087 163.969 7.18087C158.548 7.18087 154.018 10.9354 152.807 15.9829C151.599 15.6785 150.342 15.4985 149.039 15.4985C140.532 15.4985 133.632 22.3954 133.632 30.9061C133.632 31.8194 133.727 32.7098 133.877 33.5772C133.704 33.5706 133.533 33.551 133.357 33.551C127.01 33.551 121.867 38.6934 121.867 45.0405C121.867 48.0258 123.013 50.7328 124.879 52.7754C123.831 54.507 123.219 56.5299 123.219 58.7035C123.219 65.0505 128.365 70.1929 134.709 70.1929C135.53 70.1929 136.329 70.1045 137.098 69.9409" fill="#05AA46"/>
<path d="M134.708 71.4525C127.68 71.4525 121.961 65.734 121.961 58.7061C121.961 56.6995 122.442 54.7191 123.356 52.9286C121.578 50.6798 120.609 47.9138 120.609 45.0431C120.609 38.3229 125.837 32.8008 132.439 32.3294C132.393 31.845 132.374 31.3736 132.374 30.9055C132.374 21.7172 139.847 14.2441 149.035 14.2441C149.981 14.2441 150.95 14.3325 151.922 14.5093C153.677 9.3963 158.466 5.92328 163.962 5.92328C167.238 5.92328 170.345 7.17042 172.695 9.38648C175.094 6.33572 178.803 4.49609 182.715 4.49609C187.085 4.49609 191.078 6.70233 193.415 10.3325C195.605 9.26537 198.005 8.70563 200.433 8.70563C207.491 8.70563 213.638 13.2589 215.743 19.907C215.789 19.907 215.838 19.907 215.884 19.907C222.231 19.907 227.396 25.0724 227.396 31.4194C227.396 31.9268 227.357 32.4374 227.272 32.9775C233.357 33.9726 237.936 39.2329 237.936 45.5407C237.936 48.3197 237.02 51.0203 235.344 53.2298C235.861 54.5653 236.126 55.9401 236.126 57.3346C236.126 63.6816 230.961 68.8469 224.614 68.8469C223.907 68.8469 223.242 68.752 222.682 68.6571C221.998 68.5425 221.537 67.8944 221.655 67.2103C221.769 66.5261 222.417 66.0646 223.101 66.1824C223.579 66.2643 224.09 66.3396 224.61 66.3396C229.573 66.3396 233.609 62.3035 233.609 57.3411C233.609 56.0612 233.321 54.7912 232.748 53.5637C232.538 53.1152 232.614 52.5882 232.934 52.215C234.535 50.3558 235.419 47.9859 235.419 45.5472C235.419 40.0873 231.144 35.6028 225.684 35.3409C225.304 35.3213 224.954 35.1347 224.728 34.827C224.506 34.5193 224.43 34.1265 224.532 33.7599C224.771 32.8793 224.879 32.1363 224.879 31.4292C224.879 26.4668 220.843 22.4308 215.88 22.4308C215.717 22.4308 215.533 22.457 215.324 22.4832C215.199 22.4995 215.072 22.5159 214.947 22.529C214.322 22.5912 213.746 22.1886 213.596 21.5764C212.109 15.4847 206.699 11.2294 200.43 11.2294C198.031 11.2294 195.658 11.8775 193.569 13.1083C193.271 13.285 192.914 13.3276 192.581 13.2327C192.25 13.1377 191.972 12.9086 191.815 12.6009C190.05 9.16062 186.564 7.02312 182.711 7.02312C179.075 7.02312 175.788 8.89875 173.919 12.0412C173.71 12.3914 173.343 12.6206 172.934 12.65C172.525 12.6827 172.129 12.5125 171.87 12.195C169.916 9.81529 167.032 8.4503 163.958 8.4503C159.215 8.4503 155.127 11.6746 154.017 16.29C153.939 16.6173 153.732 16.8988 153.448 17.0723C153.16 17.2458 152.816 17.2982 152.492 17.2163C151.32 16.9217 150.155 16.7712 149.032 16.7712C141.228 16.7712 134.881 23.1182 134.881 30.9219C134.881 31.7009 134.956 32.5029 135.11 33.3769C135.176 33.7533 135.068 34.1363 134.816 34.4244C134.564 34.7091 134.2 34.8663 133.814 34.8499C133.742 34.8499 133.67 34.8433 133.601 34.8368C133.519 34.8303 133.438 34.8237 133.353 34.8237C127.709 34.8237 123.12 39.413 123.12 45.0562C123.12 47.6029 124.073 50.0513 125.804 51.9433C126.181 52.3558 126.24 52.9646 125.951 53.4393C124.983 55.0399 124.472 56.8665 124.472 58.7159C124.472 64.3592 129.064 68.9484 134.704 68.9484C135.411 68.9484 136.128 68.8731 136.835 68.7225C137.513 68.5785 138.181 69.0106 138.325 69.6915C138.469 70.369 138.033 71.0368 137.356 71.1808C136.479 71.3674 135.588 71.4591 134.704 71.4591L134.708 71.4525Z" fill="#01782E"/>
<path d="M154.841 42.8505C154.841 42.8505 141.145 36.5592 136.704 37.6688C136.704 37.6688 134.484 48.772 144.478 53.5839C144.478 53.5839 123.378 83.1946 145.957 134.275C145.957 134.275 155.951 151.673 179.27 153.523C179.27 153.523 207.401 153.153 219.618 119.47C219.618 119.47 228.871 76.9032 214.806 53.5839C214.806 53.5839 222.21 48.772 220.727 37.6688L202.959 42.8505C202.959 42.8505 192.596 34.3365 184.452 34.3365C176.308 34.3365 168.167 35.4462 154.841 42.8505Z" fill="#F8F8F4"/>
<path d="M165.812 36.7C165.812 36.7 172.981 47.8883 181.505 52.435C181.505 52.435 191.541 43.9668 193.512 41.5446L196.287 37.538L180.493 34.2777L165.812 36.7Z" fill="#C7C6BF"/>
<path d="M165.415 158.891C165.415 158.891 155.739 159.762 151.801 161.994C151.801 161.994 148.649 164.331 152.217 165.683" fill="#CBC9C3"/>
<path d="M152.218 166.727C152.093 166.727 151.969 166.704 151.848 166.659C150.427 166.119 149.635 165.326 149.494 164.295C149.262 162.626 150.987 161.297 151.183 161.15C151.216 161.123 151.252 161.1 151.291 161.081C155.38 158.763 164.921 157.883 165.327 157.847C165.9 157.794 166.411 158.22 166.463 158.796C166.516 159.372 166.09 159.88 165.514 159.932C165.419 159.942 156.119 160.799 152.385 162.868C151.969 163.195 151.533 163.752 151.569 164.01C151.586 164.122 151.818 164.407 152.594 164.701C153.134 164.907 153.406 165.51 153.203 166.05C153.046 166.469 152.646 166.724 152.224 166.724L152.218 166.727Z" fill="#333333"/>
<path d="M194.652 158.891C194.652 158.891 204.328 159.762 208.266 161.994C208.266 161.994 211.418 164.331 207.851 165.683" fill="#CBC9C3"/>
<path d="M207.852 166.727C207.43 166.727 207.031 166.469 206.873 166.053C206.667 165.513 206.942 164.907 207.482 164.704C208.258 164.41 208.49 164.125 208.507 164.014C208.546 163.742 208.062 163.166 207.692 162.875C203.957 160.806 194.654 159.945 194.559 159.938C193.983 159.886 193.557 159.379 193.61 158.803C193.662 158.226 194.176 157.801 194.746 157.853C195.152 157.889 204.693 158.773 208.782 161.087C208.818 161.107 208.854 161.133 208.89 161.156C209.086 161.303 210.811 162.632 210.579 164.302C210.435 165.33 209.643 166.125 208.225 166.665C208.104 166.711 207.977 166.734 207.855 166.734L207.852 166.727Z" fill="#333333"/>
<path d="M162.232 148.691C162.232 148.691 165.221 157.912 165.414 158.891C165.61 159.87 149.843 165.847 151.05 170.076C151.05 170.076 153.522 175.346 164.141 165.241C164.141 165.241 159.306 174.708 165.041 174.446C165.041 174.446 169.47 173.876 170.52 160.262L170.049 151.984" fill="#CBC9C3"/>
<path d="M164.818 175.5C163.097 175.5 162.226 174.721 161.791 174.047C161.051 172.898 160.998 171.14 161.64 168.816C158.059 171.637 155.093 172.845 152.802 172.413C150.871 172.05 150.177 170.675 150.101 170.521C150.078 170.469 150.059 170.42 150.042 170.364C149.067 166.95 154.553 163.752 161.28 160.223C162.409 159.631 163.66 158.976 164.252 158.593C163.781 156.947 162.232 152.099 161.234 149.015C161.057 148.465 161.358 147.876 161.908 147.696C162.455 147.516 163.048 147.821 163.228 148.37C163.535 149.32 166.239 157.677 166.442 158.688C166.658 159.772 165.814 160.213 162.255 162.079C159.355 163.601 151.725 167.605 152.036 169.69C152.144 169.84 152.501 170.25 153.26 170.371C154.53 170.574 157.542 170.083 163.421 164.488C163.791 164.138 164.36 164.102 164.769 164.407C165.178 164.711 165.306 165.267 165.077 165.722C163.948 167.939 162.727 171.637 163.552 172.917C163.633 173.045 163.889 173.431 164.897 173.408C165.29 173.268 168.576 171.745 169.473 160.256L169.005 152.05C168.972 151.474 169.414 150.979 169.99 150.947C170.566 150.911 171.061 151.356 171.093 151.932L171.565 160.21C171.565 160.256 171.565 160.305 171.565 160.351C170.481 174.41 165.715 175.421 165.175 175.493C165.146 175.497 165.12 175.5 165.09 175.5C164.998 175.503 164.907 175.507 164.818 175.507V175.5Z" fill="#333333"/>
<path d="M197.838 148.691C197.838 148.691 194.85 157.912 194.653 158.891C194.457 159.87 210.225 165.847 209.017 170.076C209.017 170.076 206.545 175.346 195.927 165.241C195.927 165.241 200.761 174.708 195.026 174.446C195.026 174.446 190.598 173.876 189.547 160.262L190.018 151.984" fill="#CBC9C3"/>
<path d="M195.249 175.5C195.16 175.5 195.069 175.5 194.977 175.493C194.948 175.493 194.921 175.49 194.892 175.487C194.352 175.418 189.586 174.403 188.502 160.344C188.499 160.298 188.499 160.249 188.502 160.204L188.974 151.925C189.007 151.349 189.504 150.904 190.077 150.94C190.653 150.973 191.095 151.467 191.062 152.043L190.594 160.249C191.494 171.736 194.777 173.261 195.17 173.402C196.188 173.425 196.434 173.038 196.516 172.911C197.341 171.631 196.12 167.932 194.99 165.716C194.758 165.261 194.889 164.708 195.298 164.4C195.707 164.096 196.277 164.128 196.647 164.482C202.525 170.076 205.537 170.567 206.807 170.364C207.557 170.243 207.913 169.847 208.031 169.68C208.332 167.591 200.712 163.595 197.812 162.073C194.254 160.207 193.409 159.765 193.625 158.681C193.828 157.673 196.532 149.313 196.84 148.364C197.016 147.814 197.609 147.513 198.159 147.69C198.709 147.866 199.01 148.459 198.833 149.009C197.835 152.092 196.286 156.943 195.815 158.587C196.408 158.969 197.658 159.624 198.787 160.217C205.514 163.745 211 166.943 210.025 170.357C210.008 170.413 209.989 170.466 209.966 170.515C209.894 170.668 209.2 172.043 207.265 172.407C204.974 172.839 202.008 171.631 198.427 168.809C199.069 171.133 199.02 172.891 198.277 174.04C197.845 174.714 196.971 175.493 195.249 175.493V175.5Z" fill="#333333"/>
<path d="M155.289 44.3661C154.808 44.3661 154.333 44.1468 154.025 43.7278C153.511 43.0305 153.659 42.0485 154.356 41.5314C161.793 36.0452 170.67 33.145 180.035 33.145C189.4 33.145 197.675 35.8521 204.942 40.9749C205.653 41.4757 205.819 42.4544 205.322 43.1615C204.821 43.8718 203.842 44.0387 203.135 43.5412C196.399 38.7948 188.412 36.2842 180.039 36.2842C171.665 36.2842 163.115 38.9716 156.225 44.0584C155.943 44.2646 155.619 44.3661 155.295 44.3661H155.289Z" fill="#333333"/>
<path d="M180.035 154.924C153.377 154.924 134.762 129.882 134.762 94.0327C134.762 74.7919 137.675 61.2501 143.669 52.6248C143.688 52.5953 143.708 52.5691 143.731 52.5429C143.819 52.4349 145.898 49.8359 147.731 48.1468C148.369 47.5576 149.361 47.6002 149.95 48.2385C150.539 48.8768 150.497 49.8686 149.858 50.4578C148.313 51.8817 146.477 54.1403 146.215 54.4644C140.621 62.5463 137.901 75.4924 137.901 94.036C137.901 128.04 155.227 151.788 180.035 151.788C204.844 151.788 222.17 128.04 222.17 94.036C222.17 75.4728 219.443 62.5168 213.836 54.4382C213.699 54.2484 212.262 52.3073 210.573 50.3203C210.01 49.6591 210.091 48.6706 210.753 48.1075C211.414 47.5445 212.406 47.6264 212.965 48.2876C214.812 50.4578 216.317 52.5135 216.38 52.5986C216.386 52.6084 216.396 52.6182 216.402 52.628C222.396 61.2501 225.309 74.7952 225.309 94.036C225.309 129.889 206.69 154.927 180.035 154.927V154.924Z" fill="#333333"/>
<path d="M180.034 53.4791C179.841 53.4791 179.648 53.4267 179.478 53.3187C179.062 53.0568 169.252 46.8309 163.936 38.1925C163.635 37.7015 163.786 37.0567 164.28 36.7523C164.771 36.4511 165.416 36.6017 165.72 37.096C170.07 44.1631 177.871 49.7213 180.028 51.1746C182.224 49.6525 190.277 43.7932 194.349 36.9978C194.647 36.5035 195.288 36.3398 195.786 36.6377C196.28 36.9356 196.444 37.5771 196.146 38.0747C191.18 46.3661 181.039 53.0306 180.611 53.3089C180.437 53.4234 180.237 53.4791 180.038 53.4791H180.034Z" fill="#C7C6BF"/>
<path d="M144.704 54.9161C144.524 54.9161 144.34 54.8866 144.164 54.8179C140.281 53.3907 137.748 49.8719 136.838 44.6411C136.186 40.8996 136.592 37.587 136.609 37.4462C136.707 36.6606 137.375 36.0714 138.167 36.0714C144.078 36.0714 155.313 40.9683 155.787 41.1746C156.583 41.5215 156.943 42.4479 156.596 43.2433C156.249 44.0355 155.322 44.3988 154.527 44.0518C154.425 44.0093 145.221 39.9962 139.627 39.312C139.522 42.497 139.882 49.8981 145.247 51.8719C146.062 52.1698 146.478 53.0732 146.18 53.8883C145.948 54.5233 145.345 54.9161 144.707 54.9161H144.704Z" fill="#333333"/>
<path d="M215.365 54.9161C214.726 54.9161 214.124 54.5233 213.892 53.8883C213.594 53.0732 214.009 52.173 214.824 51.8719C220.19 49.9013 220.55 42.5003 220.445 39.312C214.851 39.9962 205.646 44.0093 205.545 44.0518C204.749 44.4021 203.826 44.0388 203.476 43.2433C203.129 42.4479 203.489 41.5248 204.284 41.1746C204.759 40.9651 215.993 36.0714 221.905 36.0714C222.697 36.0714 223.365 36.6606 223.463 37.4462C223.479 37.5837 223.885 40.8996 223.234 44.6411C222.324 49.8719 219.79 53.3907 215.908 54.8179C215.728 54.8834 215.548 54.9161 215.368 54.9161H215.365Z" fill="#333333"/>
<path d="M215.405 83.8624C215.405 86.576 212.626 88.779 209.198 88.779C205.771 88.779 202.992 86.5793 202.992 83.8624C202.992 81.1455 205.771 78.9458 209.198 78.9458C212.626 78.9458 215.405 81.1455 215.405 83.8624Z" fill="#FFB8DD"/>
<path d="M157.436 83.8624C157.436 86.576 154.657 88.779 151.23 88.779C147.803 88.779 145.023 86.5793 145.023 83.8624C145.023 81.1455 147.803 78.9458 151.23 78.9458C154.657 78.9458 157.436 81.1455 157.436 83.8624Z" fill="#FFB8DD"/>
<path d="M174.681 114.321C172.216 114.321 169.971 112.331 167.853 108.252C167.817 108.334 167.778 108.416 167.738 108.494C166.753 110.54 165.405 111.748 163.84 111.984C160.753 112.452 157.339 109.234 153.395 102.151C153.113 101.647 153.293 101.008 153.8 100.727C154.308 100.445 154.943 100.625 155.224 101.133C159.712 109.188 162.357 110.089 163.526 109.915C165.342 109.643 166.436 106.373 166.675 105.247C166.769 104.802 167.143 104.468 167.594 104.422C168.053 104.38 168.478 104.632 168.658 105.051C170.648 109.673 172.789 112.223 174.681 112.226H174.684C176.894 112.226 178.832 108.877 179.395 107.588C179.624 107.057 180.243 106.815 180.773 107.044C181.303 107.273 181.545 107.889 181.316 108.419C181.29 108.478 180.685 109.869 179.627 111.27C178.121 113.267 176.413 114.321 174.684 114.321H174.681Z" fill="#B1B1AA"/>
<path d="M186.022 114.321C184.294 114.321 182.585 113.267 181.08 111.27C180.022 109.869 179.417 108.478 179.391 108.419C179.161 107.889 179.407 107.273 179.937 107.044C180.467 106.815 181.083 107.061 181.312 107.591C181.875 108.884 183.813 112.229 186.022 112.229H186.026C187.918 112.229 190.058 109.679 192.049 105.054C192.229 104.635 192.661 104.383 193.112 104.426C193.567 104.471 193.937 104.805 194.032 105.25C194.271 106.373 195.364 109.643 197.181 109.915C198.356 110.088 200.998 109.185 205.482 101.133C205.764 100.628 206.399 100.445 206.906 100.727C207.41 101.008 207.594 101.646 207.312 102.151C203.365 109.234 199.947 112.449 196.867 111.984C195.302 111.748 193.954 110.54 192.968 108.494C192.929 108.412 192.89 108.331 192.854 108.252C190.736 112.327 188.487 114.318 186.026 114.321H186.022Z" fill="#B1B1AA"/>
<path d="M180.197 130.102C180.043 130.102 176.868 130.04 174.337 125.385C173.601 126.822 172.403 128.383 170.629 128.567C168.177 128.825 165.696 126.373 163.067 121.077C162.809 120.56 163.021 119.931 163.539 119.673C164.056 119.414 164.684 119.627 164.943 120.144C167.889 126.072 169.748 126.553 170.413 126.485C171.787 126.344 172.92 123.679 173.254 122.413C173.368 121.971 173.758 121.657 174.213 121.634C174.668 121.611 175.087 121.886 175.247 122.314C177.31 127.853 180.17 128.007 180.2 128.007C180.779 128.007 181.247 128.475 181.247 129.054C181.247 129.634 180.779 130.102 180.2 130.102H180.197Z" fill="#B1B1AA"/>
<path d="M180.508 130.102C179.929 130.102 179.461 129.634 179.461 129.054C179.461 128.475 179.919 128.017 180.489 128.007C180.646 128 183.428 127.774 185.461 122.314C185.621 121.886 186.044 121.614 186.495 121.634C186.95 121.657 187.34 121.974 187.454 122.416C187.785 123.683 188.918 126.344 190.296 126.485C190.96 126.553 192.823 126.072 195.766 120.144C196.024 119.627 196.649 119.414 197.17 119.673C197.687 119.931 197.9 120.56 197.641 121.077C195.009 126.373 192.535 128.825 190.076 128.567C188.302 128.383 187.107 126.825 186.371 125.388C185.474 127.044 184.404 128.298 183.17 129.126C181.759 130.072 180.633 130.102 180.508 130.102Z" fill="#B1B1AA"/>
<path d="M207.983 70.242C207.518 70.242 207.06 70.0391 206.752 69.6463C200.876 62.2256 193.646 65.3418 193.341 65.4793C192.552 65.8328 191.623 65.4793 191.266 64.6937C190.909 63.9081 191.253 62.9817 192.038 62.6217C192.133 62.5791 201.777 58.3074 209.214 67.6954C209.751 68.3762 209.636 69.3615 208.958 69.9016C208.67 70.1307 208.327 70.242 207.986 70.242H207.983Z" fill="#333333"/>
<path d="M205.536 54.6019C205.49 54.6019 205.441 54.6019 205.392 54.5921L197.329 53.6789C196.639 53.6003 196.144 52.9784 196.223 52.2909C196.302 51.6035 196.924 51.106 197.611 51.1846L205.673 52.0978C206.364 52.1764 206.858 52.7983 206.78 53.4857C206.708 54.1273 206.164 54.6019 205.532 54.6019H205.536Z" fill="#333333"/>
<path d="M152.439 70.242C152.099 70.242 151.755 70.1307 151.467 69.9016C150.786 69.3648 150.672 68.3762 151.212 67.6953C155.078 62.8148 159.523 61.6789 162.574 61.5905C165.87 61.4891 168.286 62.5758 168.387 62.6217C169.176 62.9817 169.523 63.9146 169.16 64.7035C168.799 65.4891 167.87 65.8361 167.084 65.4793C166.767 65.3385 159.542 62.2321 153.673 69.6463C153.362 70.0391 152.904 70.242 152.443 70.242H152.439Z" fill="#333333"/>
<path d="M154.888 54.6019C154.256 54.6019 153.713 54.1273 153.641 53.4857C153.562 52.795 154.06 52.1731 154.747 52.0978L162.81 51.1846C163.5 51.106 164.122 51.6035 164.198 52.2909C164.276 52.9816 163.779 53.6036 163.091 53.6789L155.029 54.5921C154.98 54.5987 154.934 54.6019 154.885 54.6019H154.888Z" fill="#333333"/>
<path d="M216.145 54.9259C216.967 55.1354 217.828 55.2467 218.718 55.2467C224.387 55.2467 220.741 53.8228 220.741 48.2319C220.741 42.6411 224.783 40.7425 219.114 40.7425C217.549 40.7425 215.687 35.3775 214.358 35.9929C214.423 35.4593 214.469 34.9225 214.469 34.3693C214.469 26.9944 205.255 32.7162 197.775 32.7162C192.937 32.7162 191.857 23.5247 189.461 27.289C187.664 24.3496 184.508 29.1483 180.773 29.1483C177.038 29.1483 173.794 24.3004 171.984 27.1875C169.663 23.672 165.994 27.7244 161.421 27.7244C154.233 27.7244 148.059 27.0926 148.059 34.1794C148.059 34.222 148.066 34.2645 148.066 34.3038C146.609 33.5215 149.63 39.1353 147.86 39.1353C142.19 39.1353 142.976 36.7556 142.976 42.3464C142.976 47.9373 137.526 53.2827 143.195 53.2827C148.41 53.2827 152.668 49.4365 153.326 44.4709C155.493 46.0617 158.171 47.0142 161.081 47.0142C166.465 47.0142 171.084 43.79 173.064 39.1942C174.943 41.2728 177.65 42.6083 180.698 42.6083C183.745 42.6083 186.439 41.2793 188.318 39.2106C190.286 44.1893 195.182 47.7246 200.93 47.7246C203.732 47.7246 206.332 46.8866 208.492 45.4496C208.643 50.0159 211.837 53.8228 216.152 54.9227" fill="#05AA46"/>
<path d="M218.717 56.4775C217.742 56.4775 216.776 56.3564 215.84 56.1174C211.598 55.034 208.377 51.6002 207.493 47.4398C205.463 48.4382 203.224 48.9586 200.923 48.9586C195.401 48.9586 190.468 45.993 187.915 41.2728C185.872 42.9193 183.322 43.8391 180.691 43.8391C178.059 43.8391 175.46 42.9029 173.407 41.2237C170.884 45.538 166.209 48.2483 161.07 48.2483C158.618 48.2483 156.255 47.6362 154.141 46.4611C152.697 51.1616 148.275 54.5168 143.188 54.5168C142.582 54.5168 140.739 54.5168 139.846 53.2271C138.887 51.8457 139.577 50.0061 140.376 47.8751C141.014 46.1697 141.741 44.2384 141.741 42.3464C141.741 41.6361 141.728 41.0567 141.718 40.5887C141.685 39.0895 141.669 38.3366 142.34 37.7736C142.969 37.2466 143.692 37.3939 144.455 37.551C145.047 37.6721 145.902 37.8456 147.155 37.8947C147.073 37.4299 146.903 36.8047 146.795 36.4119C146.442 35.1156 146.157 34.0812 146.848 33.4069C146.972 31.4265 147.584 29.911 148.71 28.7948C151.09 26.4314 155.126 26.4543 159.787 26.4903C160.324 26.4936 160.867 26.4969 161.417 26.4969C162.949 26.4969 164.409 25.96 165.82 25.4428C167.787 24.7227 170.157 23.852 172.036 25.4068C173.624 24.4608 175.588 25.6131 176.982 26.4281C178.236 27.1614 179.532 27.924 180.769 27.924C182.007 27.924 183.303 27.1744 184.537 26.451C185.918 25.6425 187.869 24.5001 189.444 25.5116C189.755 25.3054 190.134 25.1581 190.583 25.1581H190.586C191.948 25.1581 192.773 26.4412 193.725 27.924C194.799 29.5967 196.017 31.492 197.768 31.492C200.072 31.492 202.573 30.9093 204.995 30.3463C208.789 29.4658 212.069 28.7031 214.105 30.3201C215.159 31.1581 215.693 32.5231 215.693 34.3758C215.693 34.5984 215.686 34.8308 215.673 35.0698C216.449 35.6001 217.117 36.6181 217.732 37.5641C218.154 38.2122 218.851 39.276 219.218 39.5183C221.071 39.5248 222.351 39.7245 222.999 40.6476C223.67 41.5968 223.277 42.6934 222.865 43.8522C222.465 44.9749 221.964 46.3727 221.964 48.2418C221.964 50.1108 222.383 51.3645 222.717 52.412C223.064 53.4955 223.395 54.52 222.743 55.4104C222.082 56.3171 220.815 56.4873 218.707 56.4873L218.717 56.4775ZM216.452 53.7344C217.189 53.9243 217.951 54.0192 218.721 54.0192C219.775 54.0192 220.328 53.9636 220.613 53.9112C220.557 53.6919 220.465 53.4071 220.383 53.1583C220.036 52.0781 219.513 50.4414 219.513 48.2385C219.513 46.0355 220.141 44.1861 220.554 43.024C220.665 42.7131 220.793 42.353 220.861 42.0977C220.603 42.042 220.092 41.9798 219.113 41.9798C217.686 41.9798 216.711 40.4905 215.68 38.9127C215.333 38.3824 214.783 37.5412 214.455 37.2269C214.167 37.2498 213.876 37.1713 213.634 36.9945C213.274 36.7326 213.081 36.294 213.136 35.8488C213.205 35.2924 213.238 34.8243 213.238 34.3758C213.238 33.3087 213.015 32.5951 212.58 32.2481C211.473 31.3709 208.465 32.0681 205.558 32.7457C203.12 33.312 200.36 33.9536 197.774 33.9536C194.681 33.9536 192.936 31.24 191.663 29.2563C191.355 28.7784 190.926 28.1106 190.625 27.7735C190.589 27.8226 190.547 27.8815 190.501 27.9568C190.275 28.3103 189.882 28.5263 189.463 28.5263H189.453C189.028 28.5231 188.635 28.3005 188.416 27.9371C188.121 27.456 188.013 27.2792 185.791 28.5787C184.413 29.384 182.701 30.3856 180.779 30.3856C178.858 30.3856 177.214 29.4134 175.748 28.5525C173.44 27.2006 173.313 27.4036 173.034 27.8455C172.812 28.199 172.425 28.4183 172.007 28.4216H171.993C171.581 28.4216 171.195 28.2154 170.966 27.8684C170.173 26.6704 169.388 26.762 166.681 27.7538C165.142 28.3169 163.398 28.9584 161.43 28.9584C160.874 28.9584 160.324 28.9552 159.784 28.9519C155.666 28.9257 152.111 28.8995 150.458 30.5427C149.682 31.3152 149.303 32.4969 149.299 34.1631C149.303 34.2154 149.306 34.258 149.306 34.3038C149.306 34.605 149.201 34.8897 149.011 35.1123C149.067 35.3316 149.132 35.5706 149.185 35.7637C149.604 37.2957 150 38.7425 149.27 39.7016C148.939 40.1337 148.442 40.3726 147.869 40.3726C146.137 40.3726 144.942 40.1598 144.183 40.006C144.183 40.1762 144.19 40.3562 144.193 40.5363C144.203 41.0207 144.216 41.6198 144.216 42.3497C144.216 44.6869 143.371 46.9357 142.697 48.7426C142.314 49.7639 141.676 51.4726 141.888 51.8261C141.888 51.8261 142.127 52.0552 143.208 52.0552C147.702 52.0552 151.532 48.7262 152.118 44.3137C152.173 43.8816 152.455 43.515 152.854 43.3448C153.253 43.1746 153.715 43.227 154.065 43.4856C156.121 44.9946 158.55 45.79 161.09 45.79C165.833 45.79 170.092 43.0109 171.944 38.713C172.111 38.33 172.461 38.0551 172.874 37.9863C173.286 37.9176 173.705 38.0649 173.987 38.3759C175.741 40.3137 178.128 41.3841 180.707 41.3841C183.286 41.3841 185.663 40.3202 187.417 38.389C187.702 38.0747 188.131 37.9307 188.55 38.006C188.969 38.0813 189.319 38.3693 189.473 38.7654C191.329 43.4659 195.83 46.5036 200.94 46.5036C203.405 46.5036 205.784 45.7867 207.82 44.4348C208.19 44.1861 208.668 44.1599 209.064 44.3661C209.46 44.5723 209.716 44.9749 209.732 45.4201C209.86 49.3383 212.629 52.7623 216.465 53.741L216.452 53.7344Z" fill="#01782E"/>
<path d="M218.83 56.6772C218.83 56.6772 217.668 54.2746 216.162 53.6428L211.412 35.9078L182.856 35.4233L161.779 36.3464L144.116 44.5036L145.003 51.8523C145.003 51.8523 143.317 52.2451 142.381 54.471L132.944 55.9047L128.43 39.7212L133.723 35.5641L138.525 31.5051L152.738 20.0026L170.872 17.0074L191.065 17.9731L208.319 18.7456L215.966 26.8668L222.434 33.5379L228.709 37.8882L231.943 45.8162L225.864 57.5119L218.82 56.6739L218.83 56.6772Z" fill="#05AA46"/>
<g opacity="0.7">
<path d="M142.204 35.0175C142.204 35.0175 133.114 35.0175 134.021 44.7917L142.204 35.0175Z" fill="#05AA46"/>
<path d="M134.02 45.8392C133.486 45.8392 133.028 45.4333 132.979 44.8899C132.671 41.574 133.401 38.916 135.155 36.9913C137.876 34.006 142.026 33.9733 142.203 33.9733C142.782 33.9733 143.25 34.4414 143.25 35.0207C143.25 35.6001 142.782 36.0649 142.206 36.0682C142.147 36.0682 138.769 36.1239 136.691 38.4152C135.358 39.8849 134.812 41.9995 135.06 44.6968C135.113 45.2729 134.691 45.7835 134.114 45.8359C134.082 45.8359 134.049 45.8392 134.016 45.8392H134.02Z" fill="white"/>
</g>
<g opacity="0.7">
<path d="M201.031 24.5788C201.031 24.5788 212.167 20.2612 213.987 32.3071L201.031 24.5788Z" fill="#05AA46"/>
<path d="M213.987 33.3546C213.476 33.3546 213.031 32.9814 212.953 32.4643C212.462 29.2007 211.205 26.9617 209.221 25.8095C205.866 23.8652 201.457 25.5378 201.411 25.5542C200.871 25.7637 200.265 25.4953 200.056 24.9552C199.846 24.4151 200.115 23.8095 200.655 23.6C200.874 23.5149 206.056 21.5542 210.272 23.9961C212.835 25.4822 214.432 28.2253 215.025 32.1467C215.11 32.7196 214.717 33.2531 214.147 33.3382C214.095 33.3448 214.043 33.3513 213.99 33.3513L213.987 33.3546Z" fill="white"/>
</g>
<g opacity="0.7">
<path d="M162.657 20.8373C162.657 20.8373 152.768 18.2841 150.375 26.4183L162.657 20.8373Z" fill="#05AA46"/>
<path d="M150.379 27.4658C150.28 27.4658 150.182 27.4527 150.084 27.4233C149.531 27.2596 149.213 26.677 149.374 26.1238C151.491 18.9224 159.161 18.8536 162.919 19.8226C163.479 19.9666 163.816 20.5394 163.672 21.0992C163.528 21.6589 162.958 21.9961 162.398 21.852C162.022 21.7571 153.456 19.6654 151.383 26.7162C151.249 27.1712 150.834 27.4691 150.379 27.4691V27.4658Z" fill="white"/>
</g>
<path d="M186.917 72.7461C183.205 69.7772 180.236 70.0227 180.236 70.0227C180.236 70.0227 177.267 69.7739 173.555 72.7461C173.555 72.7461 172.069 94.7692 180.236 94.7692C188.403 94.7692 186.917 72.7461 186.917 72.7461Z" fill="#FF775D"/>
<path d="M174.406 73.0768C174.406 73.0768 178.491 79.8363 187.081 73.2895C187.081 73.2895 179.899 67.1651 174.406 73.0768Z" fill="#C7C6BF"/>
<path d="M185.883 86.3829C185.883 86.3829 177.785 91.4534 173.984 86.5957C173.984 86.5957 174.898 94.491 180.354 94.7693C180.354 94.7693 186.093 94.622 185.883 86.3862V86.3829Z" fill="#C7C6BF"/>
<path d="M180.355 96.023C178.791 96.023 177.419 95.4043 176.277 94.1834C171.383 88.9493 172.375 73.3223 172.421 72.6611C172.444 72.3108 172.614 71.9835 172.889 71.7642C176.601 68.7952 179.74 68.7396 180.355 68.7658C180.968 68.7396 184.11 68.7952 187.822 71.7642C188.097 71.9835 188.267 72.3108 188.29 72.6611C188.336 73.3223 189.328 88.9493 184.434 94.1834C183.292 95.4043 181.92 96.023 180.355 96.023ZM174.895 73.391C174.653 77.9999 174.81 88.9362 178.113 92.4681C178.771 93.1719 179.504 93.5123 180.355 93.5123C181.206 93.5123 181.943 93.1719 182.598 92.4681C185.904 88.9296 186.058 77.9999 185.815 73.391C182.81 71.1619 180.545 71.2699 180.444 71.2764C180.385 71.2764 180.31 71.2797 180.251 71.2764C180.166 71.2699 177.897 71.1651 174.892 73.391H174.895Z" fill="#333333"/>
<path d="M180.385 78.193C180.303 78.193 180.221 78.193 180.136 78.1897C175.684 78.0326 172.745 73.6234 172.624 73.4368C172.244 72.8574 172.404 72.0784 172.987 71.6987C173.566 71.3157 174.345 71.4794 174.725 72.062C174.748 72.0947 177.088 75.5809 180.237 75.6823C182.175 75.7478 184.123 74.5039 186.038 71.99C186.457 71.4368 187.246 71.3321 187.799 71.751C188.352 72.17 188.457 72.9589 188.038 73.5121C185.668 76.6218 183.095 78.1995 180.388 78.1995L180.385 78.193Z" fill="#333333"/>
<path d="M180.42 90.6711C180.351 90.6711 180.283 90.6711 180.214 90.6711C176.132 90.5499 173.373 86.8478 173.258 86.6907C172.849 86.1309 172.97 85.3453 173.53 84.9361C174.089 84.527 174.872 84.6481 175.284 85.2046C175.314 85.2438 177.458 88.0851 180.302 88.1604C182.053 88.2062 183.779 87.1915 185.468 85.1489C185.909 84.6154 186.702 84.5401 187.235 84.982C187.769 85.4239 187.844 86.216 187.402 86.7496C185.248 89.3552 182.901 90.6743 180.42 90.6743V90.6711Z" fill="#333333"/>
<path d="M135.761 85.7119C135.761 85.7119 141.476 95.3421 158.822 99.8135C162.233 100.691 164.743 103.568 165.012 107.077C165.404 112.206 166.072 119.909 167.008 127.441C167.624 132.387 163.696 136.681 158.71 136.567C155.061 136.482 150.566 135.912 145.607 134.275C145.607 134.275 133.974 115.336 135.761 85.7119Z" fill="#FFE234"/>
<path d="M158.904 137.827C158.832 137.827 158.757 137.827 158.685 137.827C154.165 137.723 149.634 136.931 145.215 135.474C144.934 135.382 144.695 135.192 144.538 134.94C144.053 134.152 132.717 115.323 134.508 85.6437C134.541 85.0938 134.93 84.6289 135.467 84.498C136.004 84.3671 136.56 84.6028 136.842 85.0741C136.898 85.1658 142.574 94.3344 159.14 98.6029C163.097 99.6242 165.962 102.992 166.269 106.989C166.662 112.105 167.323 119.781 168.26 127.294C168.597 129.998 167.742 132.708 165.919 134.728C164.129 136.708 161.585 137.834 158.908 137.834L158.904 137.827ZM146.452 133.232C150.492 134.518 154.623 135.219 158.741 135.314C160.757 135.356 162.701 134.531 164.05 133.039C165.386 131.562 166.007 129.579 165.762 127.598C164.819 120.037 164.152 112.318 163.759 107.173C163.536 104.249 161.425 101.781 158.508 101.028C146.518 97.9384 139.932 92.4621 136.868 89.1396C136.505 102.665 138.96 113.621 141.182 120.633C143.366 127.516 145.726 131.942 146.452 133.232Z" fill="#333333"/>
<path d="M135.348 92.1506C135.348 92.1506 141.878 100.638 157.322 105.09C158.935 105.555 160.084 107.054 160.163 108.805C160.366 113.319 160.811 121.964 161.505 127.961C161.809 130.596 159.678 132.822 157.161 132.498C153.479 132.023 147.865 131.319 143.659 129.483L145.708 134.554L150.854 136.059L161.076 136.544L165.453 134.121L167.502 130.691L165.184 104.593L161.325 100.557L149.05 96.6809L136.359 86.432L135.348 92.1506Z" fill="#05AA46"/>
<path d="M158.904 137.827C158.832 137.827 158.757 137.827 158.685 137.827C154.165 137.723 149.634 136.931 145.215 135.474C144.934 135.382 144.695 135.192 144.538 134.94C144.053 134.152 132.717 115.323 134.508 85.6437C134.541 85.0938 134.93 84.6289 135.467 84.498C136.004 84.3671 136.56 84.6028 136.842 85.0741C136.898 85.1658 142.574 94.3344 159.14 98.6029C163.097 99.6242 165.962 102.992 166.269 106.989C166.662 112.105 167.323 119.781 168.26 127.294C168.597 129.998 167.742 132.708 165.919 134.728C164.129 136.708 161.585 137.834 158.908 137.834L158.904 137.827ZM146.452 133.232C150.492 134.518 154.623 135.219 158.741 135.314C160.757 135.356 162.701 134.531 164.05 133.039C165.386 131.562 166.007 129.579 165.762 127.598C164.819 120.037 164.152 112.318 163.759 107.173C163.536 104.249 161.425 101.781 158.508 101.028C146.518 97.9384 139.932 92.4621 136.868 89.1396C136.505 102.665 138.96 113.621 141.182 120.633C143.366 127.516 145.726 131.942 146.452 133.232Z" fill="#333333"/>
<path d="M224.307 85.7119C224.307 85.7119 218.592 95.3421 201.246 99.8135C197.836 100.691 195.325 103.568 195.056 107.077C194.664 112.206 193.996 119.909 193.06 127.441C192.444 132.387 196.372 136.681 201.358 136.567C205.007 136.482 209.502 135.912 214.461 134.275C214.461 134.275 226.094 115.336 224.307 85.7119Z" fill="#FFE234"/>
<path d="M201.163 137.827C198.488 137.827 195.942 136.704 194.151 134.724C192.325 132.704 191.473 129.994 191.811 127.29C192.747 119.784 193.408 112.105 193.801 106.985C194.109 102.989 196.973 99.6204 200.93 98.5991C217.585 94.3077 223.169 85.1652 223.225 85.0736C223.507 84.599 224.063 84.3633 224.6 84.4942C225.137 84.6251 225.526 85.09 225.559 85.6399C227.349 115.319 216.014 134.151 215.529 134.937C215.376 135.189 215.133 135.378 214.852 135.47C210.433 136.927 205.902 137.719 201.382 137.824C201.31 137.824 201.235 137.824 201.163 137.824V137.827ZM223.199 89.1391C220.132 92.4616 213.549 97.9379 201.559 101.028C198.642 101.778 196.534 104.249 196.308 107.172C195.912 112.321 195.244 120.04 194.305 127.598C194.059 129.578 194.681 131.558 196.017 133.038C197.366 134.531 199.307 135.356 201.326 135.313C205.444 135.218 209.575 134.518 213.614 133.231C215.14 130.521 223.863 113.863 223.199 89.1424V89.1391Z" fill="#333333"/>
<path d="M224.721 92.1506C224.721 92.1506 218.19 100.638 202.747 105.09C201.133 105.555 199.984 107.054 199.905 108.805C199.706 113.319 199.257 121.964 198.563 127.961C198.259 130.596 200.39 132.822 202.907 132.498C206.589 132.023 212.203 131.319 216.41 129.483L214.36 134.554L209.215 136.059L198.992 136.544L194.616 134.121L192.566 130.691L194.884 104.593L198.743 100.557L211.018 96.6809L223.709 86.432L224.721 92.1506Z" fill="#05AA46"/>
<path d="M201.163 137.827C198.488 137.827 195.942 136.704 194.151 134.724C192.325 132.704 191.473 129.994 191.811 127.29C192.747 119.784 193.408 112.105 193.801 106.985C194.109 102.989 196.973 99.6204 200.93 98.5991C217.585 94.3077 223.169 85.1652 223.225 85.0736C223.507 84.599 224.063 84.3633 224.6 84.4942C225.137 84.6251 225.526 85.09 225.559 85.6399C227.349 115.319 216.014 134.151 215.529 134.937C215.376 135.189 215.133 135.378 214.852 135.47C210.433 136.927 205.902 137.719 201.382 137.824C201.31 137.824 201.235 137.824 201.163 137.824V137.827ZM223.199 89.1391C220.132 92.4616 213.549 97.9379 201.559 101.028C198.642 101.778 196.534 104.249 196.308 107.172C195.912 112.321 195.244 120.04 194.305 127.598C194.059 129.578 194.681 131.558 196.017 133.038C197.366 134.531 199.307 135.356 201.326 135.313C205.444 135.218 209.575 134.518 213.614 133.231C215.14 130.521 223.863 113.863 223.199 89.1424V89.1391Z" fill="#333333"/>
<path d="M216.936 112.531C216.789 112.383 216.589 112.115 216.56 111.781C216.553 111.693 216.537 111.604 216.517 111.522C216.373 110.936 215.935 110.498 215.398 110.311C215.359 110.298 215.319 110.282 215.277 110.265C215.074 110.174 214.864 110.013 214.74 109.787C214.403 109.179 213.741 108.819 212.985 108.9C212.674 108.933 212.367 108.858 212.164 108.717C211.879 108.524 211.558 108.403 211.172 108.403C210.786 108.403 210.462 108.524 210.177 108.717C209.974 108.855 209.666 108.933 209.355 108.9C208.599 108.815 207.938 109.179 207.601 109.787C207.45 110.059 207.185 110.233 206.946 110.314C206.344 110.517 205.849 111.067 205.781 111.784C205.748 112.121 205.552 112.387 205.401 112.534C204.998 112.94 204.828 113.411 204.828 113.896V113.918C204.841 114.871 205.548 115.65 206.468 115.778C206.553 115.791 206.642 115.794 206.73 115.794H209.46C209.719 115.794 209.928 116.01 209.928 116.269V116.734C209.928 117.169 209.496 117.228 209.496 117.228L207.277 117.611C207.198 117.624 207.129 117.676 207.129 117.755V118.026H215.205V117.755C215.205 117.676 215.136 117.624 215.057 117.611L212.838 117.228C212.838 117.228 212.406 117.169 212.406 116.734V116.269C212.406 116.01 212.615 115.794 212.874 115.794H215.604C216.655 115.794 217.506 114.943 217.506 113.892C217.506 113.408 217.336 112.936 216.933 112.531H216.936Z" fill="#00A849"/>
</g>
<defs>
<clipPath id="clip0_5202_22819">
<rect width="176.103" height="171" fill="white" transform="translate(120.609 4.5)"/>
</clipPath>
</defs>
</svg>
