<svg width="360" height="180" viewBox="0 0 360 180" fill="none" xmlns="http://www.w3.org/2000/svg">
<g clip-path="url(#clip0_7555_1245)">
<path d="M131.068 141.749C127.165 141.749 123.322 140.494 119.439 137.188C111.234 130.199 109.183 119.784 113.823 108.632C120.813 91.7843 143.136 74.8175 167.053 76.7492C181.192 77.8843 193.399 72.2884 204.153 67.3498C217.754 61.0967 230.599 55.1823 241.791 67.5489C250.155 76.8089 250.155 90.6293 241.791 104.509C231.714 121.257 210.207 135.376 188.62 129.94C171.972 125.758 159.745 131.294 148.971 136.213C142.599 139.1 136.744 141.769 131.048 141.769L131.068 141.749ZM163.25 80.5727C142.479 80.5727 123.621 95.4087 117.507 110.145C115.197 115.701 112.708 126.216 122.027 134.161C129.615 140.634 137.043 137.248 147.338 132.568C158.152 127.65 171.613 121.536 189.616 126.076C209.351 131.035 229.085 117.951 238.385 102.458C245.773 90.1514 245.953 78.1034 238.823 70.2174C229.603 60.0214 219.626 64.6016 205.806 70.9542C194.614 76.1119 181.929 81.9468 166.734 80.7121C165.579 80.6125 164.405 80.5727 163.25 80.5727Z" fill="url(#paint0_linear_7555_1245)"/>
</g>
<defs>
<linearGradient id="paint0_linear_7555_1245" x1="111.393" y1="101.024" x2="248.044" y2="101.024" gradientUnits="userSpaceOnUse">
<stop stop-color="#B7AAD1"/>
<stop offset="0.53" stop-color="#879AAC"/>
<stop offset="1" stop-color="#628F90"/>
</linearGradient>
<clipPath id="clip0_7555_1245">
<rect width="136.65" height="81.4485" fill="white" transform="translate(111.395 60.3003)"/>
</clipPath>
</defs>
</svg>
