<svg width="280" height="140" viewBox="0 0 280 140" fill="none" xmlns="http://www.w3.org/2000/svg">
<g clip-path="url(#clip0_7555_1729)">
<path d="M101.941 110.249C98.905 110.249 95.9157 109.274 92.8954 106.702C86.514 101.266 84.9187 93.1653 88.5276 84.4916C93.9641 71.3881 111.327 58.1917 129.929 59.6941C140.926 60.577 150.42 56.2247 158.784 52.3835C169.363 47.52 179.353 42.9199 188.058 52.5384C194.563 59.7406 194.563 70.4898 188.058 81.2854C180.221 94.3114 163.493 105.293 146.703 101.065C133.755 97.8119 124.245 102.118 115.865 105.943C110.909 108.189 106.355 110.265 101.925 110.265L101.941 110.249ZM126.971 62.668C110.816 62.668 96.148 74.2071 91.393 85.6687C89.5963 89.9901 87.6602 98.1681 94.9089 104.348C100.81 109.382 106.587 106.749 114.595 103.109C123.005 99.2833 133.476 94.5283 147.478 98.0597C162.827 101.916 178.176 91.7403 185.409 79.6901C191.156 70.1181 191.295 60.7474 185.75 54.6138C178.579 46.6836 170.819 50.246 160.07 55.1869C151.365 59.1985 141.499 63.7367 129.681 62.7764C128.783 62.699 127.869 62.668 126.971 62.668Z" fill="url(#paint0_linear_7555_1729)"/>
</g>
<defs>
<linearGradient id="paint0_linear_7555_1729" x1="86.6379" y1="78.5749" x2="192.922" y2="78.5749" gradientUnits="userSpaceOnUse">
<stop stop-color="#B7AAD1"/>
<stop offset="0.53" stop-color="#879AAC"/>
<stop offset="1" stop-color="#628F90"/>
</linearGradient>
<clipPath id="clip0_7555_1729">
<rect width="106.284" height="63.3489" fill="white" transform="translate(86.6367 46.9005)"/>
</clipPath>
</defs>
</svg>
