<svg width="400" height="200" viewBox="0 0 400 200" fill="none" xmlns="http://www.w3.org/2000/svg">
<g clip-path="url(#clip0_7555_650)">
<path d="M145.638 157.498C141.301 157.498 137.031 156.104 132.716 152.431C123.6 144.665 121.321 133.092 126.476 120.702C134.243 101.982 159.047 83.1303 185.621 85.2766C201.331 86.5378 214.895 80.3202 226.843 74.8328C241.956 67.885 256.228 61.3133 268.663 75.054C277.956 85.343 277.956 100.699 268.663 116.121C257.467 134.73 233.57 150.418 209.584 144.377C191.086 139.731 177.501 145.882 165.53 151.347C158.449 154.555 151.944 157.52 145.616 157.52L145.638 157.498ZM181.395 89.5249C158.317 89.5249 137.363 106.009 130.57 122.383C128.003 128.557 125.237 140.239 135.593 149.068C144.023 156.259 152.276 152.498 163.716 147.298C175.73 141.833 190.688 135.04 210.691 140.085C232.618 145.594 254.546 131.057 264.879 113.842C273.088 100.168 273.287 86.7812 265.366 78.019C255.121 66.6901 244.036 71.7793 228.68 78.8377C216.244 84.5685 202.15 91.0517 185.267 89.6798C183.984 89.5692 182.678 89.5249 181.395 89.5249Z" fill="url(#paint0_linear_7555_650)"/>
</g>
<defs>
<linearGradient id="paint0_linear_7555_650" x1="123.777" y1="112.249" x2="275.611" y2="112.249" gradientUnits="userSpaceOnUse">
<stop stop-color="#B7AAD1"/>
<stop offset="0.53" stop-color="#879AAC"/>
<stop offset="1" stop-color="#628F90"/>
</linearGradient>
<clipPath id="clip0_7555_650">
<rect width="151.834" height="90.4984" fill="white" transform="translate(123.777 67)"/>
</clipPath>
</defs>
</svg>
