<svg width="386" height="85" viewBox="0 0 386 85" fill="none" xmlns="http://www.w3.org/2000/svg">
<g filter="url(#filter0_f_4604_4318)">
<path fill-rule="evenodd" clip-rule="evenodd" d="M10 10V51C10 64.2549 20.6779 75 33.8478 75H376C360.455 75 345.804 67.6766 336.411 55.2097L335.342 53.7903C325.948 41.3234 311.298 34 295.752 34H33.8478C20.6779 34 10 23.2549 10 10Z" fill="#141414" fill-opacity="0.06"/>
</g>
<path fill-rule="evenodd" clip-rule="evenodd" d="M2 20V61C2 74.2549 12.7461 85 26 85H370.336C354.691 85 339.947 77.6766 330.494 65.2097L329.418 63.7903C319.965 51.3234 305.221 44 289.576 44H26C12.7461 44 2 33.2549 2 20Z" fill="white"/>
<defs>
<filter id="filter0_f_4604_4318" x="0" y="0" width="386" height="85" filterUnits="userSpaceOnUse" color-interpolation-filters="sRGB">
<feFlood flood-opacity="0" result="BackgroundImageFix"/>
<feBlend mode="normal" in="SourceGraphic" in2="BackgroundImageFix" result="shape"/>
<feGaussianBlur stdDeviation="5" result="effect1_foregroundBlur_4604_4318"/>
</filter>
</defs>
</svg>
