<svg width="110" height="40" viewBox="0 0 110 40" fill="none" xmlns="http://www.w3.org/2000/svg">
<rect x="0.5" y="0.5" width="109" height="39" rx="10.5" fill="white"/>
<rect x="0.5" y="0.5" width="109" height="39" rx="10.5" stroke="#E6E6E6"/>
<rect x="7" y="7" width="26" height="26" rx="6" fill="#04ADD8"/>
<path d="M21.1738 13.2354L22.5933 14.2979L19.5303 18.4648C19.6963 18.4427 19.8374 18.4261 19.9536 18.415C20.0698 18.404 20.1611 18.3984 20.2275 18.3984C21.2679 18.3984 22.1672 18.7969 22.9253 19.5938C23.6779 20.3796 24.0542 21.3258 24.0542 22.4326C24.0542 23.6058 23.6336 24.613 22.7925 25.4541C21.9569 26.2897 20.9525 26.7075 19.7793 26.7075C18.6172 26.7075 17.599 26.2952 16.7246 25.4707C15.8669 24.6462 15.438 23.6694 15.438 22.5405C15.438 21.5278 15.8558 20.4543 16.6914 19.3198L21.1738 13.2354ZM22.1699 22.5571C22.1699 21.8765 21.9347 21.3009 21.4644 20.8306C20.9884 20.3547 20.4157 20.1167 19.7461 20.1167C19.071 20.1167 18.4982 20.3519 18.0278 20.8223C17.5575 21.2926 17.3223 21.8626 17.3223 22.5322C17.3223 23.2018 17.5575 23.7718 18.0278 24.2422C18.4982 24.7126 19.0737 24.9478 19.7544 24.9478C20.4185 24.9478 20.9857 24.7126 21.4561 24.2422C21.932 23.7663 22.1699 23.2046 22.1699 22.5571Z" fill="white"/>
<path d="M53.673 14.632L54.505 15.503C52.607 16.049 49.773 16.374 47.368 16.53C47.329 16.257 47.199 15.841 47.082 15.594C49.422 15.425 52.152 15.087 53.673 14.632ZM53.4 18.415L52.412 18.116C52.763 17.596 53.205 16.751 53.426 16.14L54.531 16.465C54.167 17.18 53.738 17.921 53.4 18.415ZM51.58 18.142L50.631 18.454C50.566 17.986 50.28 17.245 49.994 16.686L50.891 16.413C51.19 16.946 51.476 17.661 51.58 18.142ZM46.887 16.14L46.25 17.128C45.795 16.66 44.82 16.023 44.04 15.633L44.651 14.736C45.418 15.087 46.419 15.672 46.887 16.14ZM46.224 19.559L45.613 20.573C45.145 20.118 44.157 19.52 43.377 19.169L43.949 18.272C44.716 18.571 45.73 19.117 46.224 19.559ZM44.625 26.371L43.689 25.565C44.313 24.603 45.236 22.978 45.925 21.535L46.731 22.341C46.107 23.667 45.314 25.162 44.625 26.371ZM53.4 22.575V21.574H51.424V22.575H53.4ZM51.424 19.572V20.534H53.4V19.572H51.424ZM55.415 20.534V21.574H54.44V23.537H51.424V25.149C51.424 25.786 51.307 26.098 50.865 26.267C50.449 26.449 49.786 26.449 48.811 26.449C48.759 26.15 48.616 25.669 48.46 25.357C49.149 25.383 49.838 25.383 50.033 25.383C50.241 25.37 50.306 25.318 50.306 25.136V23.537H47.433V22.575H50.306V21.574H46.744V20.534H50.306V19.572H47.511V18.61H48.187C48.083 18.155 47.784 17.518 47.472 17.037L48.317 16.673C48.655 17.141 48.98 17.791 49.097 18.233L48.278 18.61H54.44V20.534H55.415ZM61.577 17.778L62.383 18.09C61.772 21.509 60.316 24.005 58.496 25.331C58.288 25.045 57.82 24.577 57.521 24.382C59.094 23.342 60.316 21.47 60.914 19.052H57.95V17.83H61.356L61.577 17.778ZM67.531 16.933L68.636 17.726C67.739 18.701 66.608 19.819 65.698 20.586C66.738 22.133 68.116 23.42 69.689 24.148C69.403 24.395 68.987 24.889 68.792 25.253C66.855 24.226 65.321 22.393 64.216 20.196V24.941C64.216 25.682 64.06 26.072 63.618 26.28C63.176 26.501 62.487 26.553 61.473 26.553C61.408 26.189 61.213 25.565 61.018 25.201C61.746 25.24 62.422 25.24 62.643 25.227C62.851 25.227 62.942 25.162 62.942 24.941V14.606H64.216V17.713C64.463 18.376 64.762 19.026 65.126 19.65C65.958 18.857 66.92 17.791 67.531 16.933ZM83.365 15.36V16.452H80.349V15.36H83.365ZM73.641 14.58L74.733 14.996C74.057 16.075 73.03 17.258 72.094 18.025C71.951 17.778 71.665 17.323 71.47 17.102C72.276 16.452 73.173 15.425 73.641 14.58ZM78.529 16.426H77.372C77.307 16.751 77.255 17.076 77.19 17.362H78.529V16.426ZM74.85 18.311L74.863 17.752C74.629 18.22 74.356 18.701 74.057 19.182V26.527H72.965V20.768C72.64 21.171 72.328 21.561 72.003 21.873C71.886 21.626 71.535 21.054 71.34 20.794C72.276 19.897 73.251 18.558 73.862 17.219L74.85 17.583V17.362H76.137C76.202 17.076 76.267 16.751 76.319 16.426H75.201V15.555H76.475C76.527 15.23 76.566 14.892 76.605 14.593L77.645 14.671C77.606 14.957 77.554 15.243 77.502 15.555H79.53V17.362H80.297V18.311H74.85ZM76.033 24.135H77.463V23.069H76.189C76.15 23.407 76.098 23.784 76.033 24.135ZM76.176 19.676V20.677H78.841V19.676H76.176ZM80.427 25.032H78.542V26.54H77.463V25.032H74.902C75.019 24.512 75.149 23.732 75.227 23.069H74.72V22.185H77.463V21.496H75.266V18.87H79.803V21.496H78.542V22.185H80.154V23.069H78.542V24.135H80.427V25.032ZM83.573 18.818V19.91H82.546V25.11C82.546 25.708 82.455 26.046 82.078 26.228C81.701 26.423 81.116 26.449 80.284 26.449C80.245 26.124 80.128 25.63 79.972 25.292C80.544 25.318 81.051 25.318 81.22 25.305C81.376 25.305 81.428 25.253 81.428 25.11V19.91H80.128V18.818H83.573ZM92.27 24.954H97.418V26.124H85.874V24.954H91.022V21.964H87.317V20.807H91.022V18.207H88.136C87.733 18.987 87.304 19.676 86.849 20.222C86.602 20.014 86.069 19.663 85.744 19.494C86.797 18.389 87.616 16.608 88.097 14.788L89.345 15.074C89.15 15.737 88.916 16.4 88.669 17.024H91.022V14.606H92.27V17.024H96.794V18.207H92.27V20.807H96.313V21.964H92.27V24.954Z" fill="#141414"/>
</svg>
