<svg width="110" height="40" viewBox="0 0 110 40" fill="none" xmlns="http://www.w3.org/2000/svg">
<rect x="0.5" y="0.5" width="109" height="39" rx="10.5" fill="white"/>
<rect x="0.5" y="0.5" width="109" height="39" rx="10.5" stroke="#E6E6E6"/>
<rect x="7" y="7" width="26" height="26" rx="6" fill="#CC8B29"/>
<path d="M13.6069 15.4932H11.3906L12.4531 13.6836H15.541V26.5H13.6069V15.4932ZM22.4058 24.6821H27.1787V26.5H18.5708L23.02 21.1128C23.4572 20.576 23.8224 20.1112 24.1157 19.7183C24.4146 19.3254 24.6414 18.9961 24.7964 18.7305C25.1118 18.2103 25.2695 17.7427 25.2695 17.3276C25.2695 16.73 25.0592 16.2292 24.6387 15.8252C24.2181 15.4212 23.6979 15.2192 23.0781 15.2192C21.7832 15.2192 21.0417 15.9857 20.8535 17.5186H18.9277C19.2376 14.818 20.6017 13.4678 23.02 13.4678C24.1877 13.4678 25.1672 13.8385 25.9585 14.5801C26.7554 15.3216 27.1538 16.2402 27.1538 17.3359C27.1538 18.0332 26.9684 18.7166 26.5977 19.3862C26.4095 19.7349 26.1328 20.1499 25.7676 20.6313C25.4079 21.1073 24.9513 21.6717 24.3979 22.3247L22.4058 24.6821Z" fill="white"/>
<path d="M55.259 18.194V19.065H43.767V18.194H48.889V17.544H45.093V16.79H48.889V16.179H44.495V15.347H48.889V14.593H50.124V15.347H54.661V16.179H50.124V16.79H54.102V17.544H50.124V18.194H55.259ZM46.51 23.173V23.888H52.62V23.173H46.51ZM46.51 21.782V22.484H52.62V21.782H46.51ZM46.51 20.378V21.067H52.62V20.378H46.51ZM53.842 24.629H51.476C52.841 25.045 54.388 25.565 55.298 25.942L53.868 26.527C53.114 26.15 51.762 25.63 50.41 25.214L51.411 24.629H47.589L48.577 25.084C47.524 25.682 45.886 26.241 44.586 26.566C44.391 26.332 43.975 25.877 43.702 25.682C45.002 25.461 46.51 25.071 47.42 24.629H45.34V19.637H53.842V24.629ZM60.745 14.684L61.941 15.061C61.564 15.971 61.109 16.881 60.602 17.739V26.488H59.406V19.52C58.977 20.092 58.509 20.612 58.054 21.054C57.924 20.768 57.56 20.105 57.326 19.806C58.678 18.584 59.978 16.66 60.745 14.684ZM69.559 21.275H66.062V24.889H69.273V26.046H61.681V24.889H64.84V21.275H61.291V20.105H64.84V16.946H62.097V15.802H69.039V16.946H66.062V20.105H69.559V21.275ZM75.214 19.052H80.895C80.206 18.805 79.322 18.532 78.386 18.246C77.32 18.571 76.228 18.831 75.214 19.052ZM80.453 16.673H75.487C76.436 16.894 77.463 17.154 78.451 17.427C79.218 17.193 79.907 16.946 80.453 16.673ZM79.283 25.162H83.534V26.15H74.005V25.162H78.087V24.096H75.201V23.147H78.087V22.198H75.643C75.266 22.835 74.824 23.42 74.356 23.849C74.265 23.628 73.966 23.03 73.771 22.783C73.654 24.122 73.316 25.604 72.419 26.657C72.237 26.436 71.73 26.007 71.496 25.89C72.536 24.642 72.653 22.887 72.653 21.574V19.052H74.317C74.148 18.87 73.94 18.649 73.784 18.532C74.772 18.363 75.903 18.116 76.969 17.856C76.033 17.596 75.097 17.362 74.239 17.18L74.902 16.673H72.757V15.724H77.385C77.203 15.425 76.995 15.126 76.787 14.879L77.632 14.476C77.957 14.84 78.334 15.334 78.542 15.724H82.949V16.673H81.012L81.584 17.037C81.051 17.297 80.427 17.557 79.751 17.804C80.622 18.051 81.428 18.311 82.065 18.532L81.467 19.052H83.352V20.04H73.823V21.587C73.823 21.964 73.81 22.367 73.771 22.783C74.46 22.133 75.071 21.197 75.422 20.209L76.462 20.508C76.371 20.755 76.267 20.989 76.15 21.236H78.087V20.274H79.283V21.236H82.65V22.198H79.283V23.147H82.312V24.096H79.283V25.162ZM96.339 14.931L97.457 15.36C97.041 16.218 96.547 17.154 96.118 17.791L95.117 17.388C95.533 16.725 96.066 15.685 96.339 14.931ZM92.933 17.349L91.88 17.882C91.711 17.232 91.204 16.205 90.684 15.464L91.672 14.996C92.192 15.724 92.738 16.699 92.933 17.349ZM90.398 24.187L90.45 25.071C88.851 25.435 87.174 25.825 85.9 26.098L85.627 25.006C86.186 24.915 86.901 24.798 87.694 24.655V21.106H85.796V20.079H87.694V18.857H86.589V18.441C86.42 18.623 86.238 18.766 86.082 18.922C85.991 18.662 85.692 17.999 85.497 17.7C86.459 16.946 87.395 15.776 87.954 14.554L89.007 14.918C88.929 15.061 88.864 15.217 88.773 15.373C89.514 15.997 90.372 16.738 90.84 17.206L90.164 18.142C89.735 17.648 88.955 16.933 88.253 16.296C87.928 16.855 87.538 17.362 87.148 17.83H89.813V18.857H88.76V20.079H90.32V21.106H88.76V24.473L90.398 24.187ZM85.887 21.899L86.719 21.691C86.927 22.432 87.148 23.381 87.252 23.992L86.381 24.239C86.303 23.602 86.082 22.64 85.887 21.899ZM89.774 24.07L89.033 23.849C89.228 23.225 89.488 22.237 89.605 21.561L90.541 21.808C90.294 22.601 90.008 23.498 89.774 24.07ZM92.283 20.781L92.777 20.027C93.726 20.222 94.974 20.625 95.624 20.963L95.117 21.821C94.493 21.444 93.271 21.002 92.283 20.781ZM92.153 19.286V21.977C92.153 22.276 92.153 22.614 92.127 22.952C93.115 22.77 94.506 22.458 95.91 22.133V19.286H92.153ZM97.054 18.233V25.136C97.054 25.734 96.924 26.085 96.508 26.254C96.105 26.449 95.455 26.462 94.48 26.462C94.441 26.15 94.285 25.643 94.142 25.331C94.805 25.37 95.455 25.37 95.65 25.357C95.845 25.344 95.91 25.292 95.91 25.11V23.121C94.688 23.446 93.466 23.745 92.465 23.992L92.127 23.082C92.062 24.304 91.854 25.63 91.295 26.592C91.1 26.384 90.619 26.046 90.346 25.916C90.983 24.785 91.035 23.225 91.035 21.977V18.233H93.453V14.606H94.61V18.233H97.054Z" fill="#141414"/>
</svg>
