<svg width="110" height="40" viewBox="0 0 110 40" fill="none" xmlns="http://www.w3.org/2000/svg">
<rect x="0.5" y="0.5" width="109" height="39" rx="10.5" fill="white"/>
<rect x="0.5" y="0.5" width="109" height="39" rx="10.5" stroke="#E6E6E6"/>
<rect x="7" y="7" width="26" height="26" rx="6" fill="#3FAE49"/>
<path d="M13.6069 15.4932H11.3906L12.4531 13.6836H15.541V26.5H13.6069V15.4932ZM27.0874 15.4932H23.1362L22.5054 17.6182C22.5994 17.6071 22.688 17.5988 22.771 17.5933C22.8595 17.5877 22.9398 17.585 23.0117 17.585C24.2568 17.585 25.2778 18.0055 26.0747 18.8467C26.8771 19.6823 27.2783 20.7531 27.2783 22.0591C27.2783 23.4093 26.8245 24.5216 25.917 25.396C25.0094 26.2703 23.8667 26.7075 22.4888 26.7075C20.7899 26.7075 19.4507 25.9106 18.4712 24.3169L19.9321 23.0801C20.3361 23.7663 20.7428 24.2505 21.1523 24.5327C21.5618 24.8094 22.0627 24.9478 22.6548 24.9478C23.4295 24.9478 24.0798 24.6766 24.6055 24.1343C25.1312 23.5754 25.394 22.8975 25.394 22.1006C25.394 21.2816 25.134 20.612 24.6138 20.0918C24.0936 19.555 23.4434 19.2866 22.6631 19.2866C21.7943 19.2866 21.0444 19.6657 20.4136 20.4238H19.7744L21.7915 13.6836H27.0874V15.4932Z" fill="white"/>
<path d="M46.51 14.632L47.641 14.996C47.264 15.919 46.822 16.842 46.315 17.713V26.501H45.158V19.481C44.794 19.975 44.404 20.443 44.014 20.833C43.897 20.547 43.559 19.897 43.338 19.611C44.599 18.415 45.795 16.543 46.51 14.632ZM48.837 22.419L49.929 22.757C49.357 23.862 48.525 25.11 47.823 25.929C47.615 25.734 47.16 25.396 46.887 25.253C47.589 24.512 48.343 23.42 48.837 22.419ZM49.123 16.257V18.35H53.504V16.257H49.123ZM55.415 21.899H51.879V26.54H50.67V21.899H47.082V20.794H50.67V19.429H47.992V15.191H54.713V19.429H51.879V20.794H55.415V21.899ZM52.49 22.913L53.4 22.406C54.193 23.303 55.064 24.473 55.493 25.24L54.518 25.838C54.128 25.045 53.244 23.81 52.49 22.913ZM60.875 18.168L65.841 17.999C65.477 17.713 65.126 17.427 64.775 17.167L65.295 16.855H62.435C61.915 17.336 61.395 17.778 60.875 18.168ZM69.221 15.789V16.855H66.127C67.089 17.544 68.168 18.454 68.74 19.104L67.713 19.767H68.012V25.188C68.012 25.877 67.817 26.163 67.31 26.319C66.79 26.462 65.958 26.462 64.775 26.462C64.736 26.15 64.593 25.721 64.463 25.422C65.217 25.461 66.179 25.461 66.387 25.448C66.621 25.448 66.699 25.37 66.699 25.175V23.836C64.723 24.265 62.695 24.668 61.135 24.967L60.771 23.875C62.188 23.693 64.489 23.316 66.699 22.952V20.768H60.563V21.964C60.563 23.407 60.342 25.357 59.107 26.657C58.925 26.423 58.418 26.046 58.132 25.916C59.263 24.772 59.38 23.16 59.38 21.938V19.767H67.661C67.466 19.507 67.18 19.221 66.868 18.909C60.394 19.208 59.679 19.221 59.185 19.39C59.12 19.156 58.964 18.571 58.821 18.259C59.146 18.207 59.484 17.96 59.939 17.609C60.121 17.479 60.446 17.206 60.836 16.855H57.859V15.789H61.941C62.331 15.373 62.747 14.892 63.111 14.437L64.333 14.918C64.073 15.217 63.813 15.503 63.527 15.789H69.221ZM60.927 21.899L61.304 21.145C62.825 21.34 64.827 21.821 65.88 22.276L65.503 23.121C64.476 22.666 62.487 22.133 60.927 21.899ZM80.167 19.169H78.893C78.724 20.573 78.204 21.418 76.501 21.912C76.397 21.665 76.15 21.275 75.916 21.067C75.955 21.288 75.968 21.496 75.968 21.691C75.968 22.445 75.812 22.978 75.422 23.264C75.227 23.381 74.993 23.459 74.72 23.511C74.473 23.537 74.161 23.55 73.862 23.537C73.849 23.238 73.745 22.744 73.576 22.445C73.836 22.484 74.057 22.484 74.226 22.471C74.382 22.471 74.525 22.432 74.629 22.354C74.798 22.224 74.863 21.925 74.863 21.548C74.863 20.911 74.655 20.079 73.823 19.143C74.135 18.272 74.486 17.115 74.72 16.231H73.303V26.54H72.172V15.152H75.123L75.305 15.1L76.137 15.568C75.76 16.647 75.305 17.999 74.902 19C75.539 19.741 75.812 20.43 75.916 21.041C77.255 20.703 77.658 20.144 77.801 19.169H75.916V18.142H78.997V16.894H76.579V15.88H78.997V14.632H80.193V15.88H82.689V16.894H80.193V18.142H83.417V19.169H81.22V20.066C81.22 20.365 81.246 20.469 81.48 20.469H82.585C82.806 20.469 83.17 20.443 83.352 20.404C83.378 20.677 83.404 21.015 83.43 21.275C83.261 21.34 82.91 21.353 82.611 21.353H81.337C80.375 21.353 80.167 20.976 80.167 20.053V19.169ZM80.193 25.162H83.547V26.241H75.396V25.162H78.997V23.602H76.423V22.562H78.997V21.288H80.193V22.562H82.845V23.602H80.193V25.162ZM89.176 21.964L89.501 23.03C88.331 23.68 87.083 24.356 86.043 24.876L85.601 23.667C85.991 23.498 86.459 23.29 86.966 23.043V18.857H85.692V17.713H86.966V14.762H88.097V17.713H89.202V18.857H88.097V22.497C88.461 22.315 88.812 22.146 89.176 21.964ZM93.505 22.887L93.622 23.914C92.127 24.343 90.515 24.772 89.293 25.123L88.994 23.979C90.138 23.732 91.854 23.316 93.505 22.887ZM92.088 21.483V19.559H90.71V21.483H92.088ZM89.787 18.61H93.037V22.432H89.787V18.61ZM96.144 18.61L97.223 18.818C96.794 20.521 96.196 22.029 95.416 23.303C95.676 24.603 96.04 25.383 96.43 25.383C96.651 25.383 96.768 24.889 96.807 23.628C97.041 23.901 97.405 24.161 97.665 24.278C97.483 26.007 97.158 26.527 96.274 26.527C95.52 26.527 94.974 25.76 94.558 24.512C93.973 25.253 93.31 25.89 92.556 26.423C92.374 26.228 91.932 25.825 91.685 25.656C92.699 25.019 93.531 24.174 94.233 23.16C93.934 21.613 93.765 19.65 93.687 17.544H89.397V16.452H93.648C93.635 15.841 93.622 15.23 93.622 14.619H94.779C94.766 15.243 94.779 15.854 94.779 16.452H96.534C96.209 16.075 95.65 15.568 95.169 15.217L95.858 14.619C96.391 14.983 97.054 15.529 97.379 15.919L96.807 16.452H97.444V17.544H94.818C94.87 19.039 94.987 20.417 95.13 21.587C95.559 20.677 95.884 19.689 96.144 18.61Z" fill="#141414"/>
</svg>
