<svg width="110" height="40" viewBox="0 0 110 40" fill="none" xmlns="http://www.w3.org/2000/svg">
<rect x="0.5" y="0.5" width="109" height="39" rx="10.5" fill="white"/>
<rect x="0.5" y="0.5" width="109" height="39" rx="10.5" stroke="#E6E6E6"/>
<rect x="7" y="7" width="26" height="26" rx="6" fill="#48773C"/>
<path d="M13.6069 15.4932H11.3906L12.4531 13.6836H15.541V26.5H13.6069V15.4932ZM22.6631 20.5483V18.8965C23.4821 18.8965 24.0327 18.8052 24.3149 18.6226C24.8185 18.3016 25.0703 17.7869 25.0703 17.0786C25.0703 16.5308 24.8877 16.0853 24.5225 15.7422C24.1628 15.3936 23.6951 15.2192 23.1196 15.2192C22.5828 15.2192 22.1678 15.3493 21.8745 15.6094C21.5923 15.875 21.382 16.3232 21.2437 16.9541H19.3179C19.5171 15.7477 19.9266 14.8651 20.5464 14.3062C21.1662 13.7417 22.0322 13.4595 23.1445 13.4595C24.2679 13.4595 25.1838 13.7915 25.8921 14.4556C26.6004 15.1141 26.9546 15.9635 26.9546 17.0039C26.9546 18.1771 26.4897 19.0902 25.5601 19.7432C26.6226 20.3685 27.1538 21.384 27.1538 22.7896C27.1538 23.9406 26.7664 24.8813 25.9917 25.6118C25.217 26.3423 24.2236 26.7075 23.0117 26.7075C21.4678 26.7075 20.3223 26.1403 19.5752 25.0059C19.2653 24.5299 19.0688 23.8714 18.9858 23.0303H20.8535C20.9531 23.6501 21.1938 24.126 21.5757 24.458C21.9631 24.7845 22.4666 24.9478 23.0864 24.9478C23.7118 24.9478 24.2292 24.7402 24.6387 24.3252C25.0482 23.8991 25.2529 23.3595 25.2529 22.7065C25.2529 21.8433 24.9458 21.229 24.3315 20.8638C23.9718 20.6535 23.4157 20.5483 22.6631 20.5483Z" fill="white"/>
<path d="M54.986 16.686H46.627C45.977 17.713 45.184 18.61 44.365 19.273C44.183 19.026 43.767 18.532 43.507 18.311C44.703 17.44 45.782 16.062 46.393 14.593L47.576 14.931C47.459 15.204 47.329 15.464 47.186 15.737H54.986V16.686ZM53.946 18.272H46.302V17.362H53.946V18.272ZM46.289 23.55L47.186 23.888C46.588 24.902 45.522 25.955 44.534 26.488C44.365 26.215 44.014 25.825 43.767 25.617C44.716 25.201 45.756 24.356 46.289 23.55ZM51.788 23.238H48.564V26.514H47.433V23.238H44.066V22.289H47.433V20.183H48.564V22.289H49.877L49.123 21.99C49.5 21.509 49.942 20.781 50.176 20.287L51.255 20.638C50.8 21.249 50.306 21.873 49.916 22.289H51.788V23.238ZM44.885 20.638L45.795 20.248C46.198 20.729 46.601 21.379 46.757 21.821L45.795 22.224C45.652 21.782 45.262 21.119 44.885 20.638ZM48.928 24.187L49.63 23.537C50.449 24.122 51.515 24.954 52.048 25.513L51.294 26.254C50.787 25.695 49.747 24.811 48.928 24.187ZM44.911 18.961H53.335C53.309 22.77 53.426 25.318 54.336 25.318C54.583 25.318 54.648 24.577 54.661 23.472C54.908 23.745 55.22 24.044 55.467 24.226C55.376 25.89 55.129 26.514 54.271 26.514C52.412 26.514 52.165 23.914 52.126 19.91H44.911V18.961ZM69.429 17.518V18.532H62.396V17.518H66.881C66.959 17.089 67.024 16.608 67.089 16.192H63.072V15.191H67.349L67.531 15.139L68.363 15.243C68.285 15.984 68.168 16.803 68.051 17.518H69.429ZM59.939 14.671L61.07 14.983C60.784 15.919 60.446 16.855 60.03 17.752V26.54H58.873V19.949C58.613 20.365 58.353 20.742 58.08 21.08C57.976 20.781 57.677 20.105 57.469 19.806C58.496 18.519 59.393 16.595 59.939 14.671ZM61.967 17.323V24.005H60.914V17.323H61.967ZM69.455 23.225H66.374C66.062 24.408 65.126 25.656 62.695 26.566C62.526 26.306 62.175 25.89 61.902 25.656C64.021 25.006 64.827 24.096 65.126 23.225H62.422V22.198H65.308V22.042V20.703H64.099C63.813 21.21 63.514 21.678 63.189 22.029C62.981 21.847 62.513 21.548 62.253 21.405C62.929 20.703 63.501 19.637 63.8 18.558L64.905 18.818C64.814 19.117 64.697 19.403 64.58 19.702H69.065V20.703H66.517V22.055V22.198H69.455V23.225ZM66.27 24.018L67.102 23.394C67.934 24.122 69.065 25.136 69.65 25.76L68.766 26.475C68.233 25.851 67.115 24.798 66.27 24.018ZM83.105 15.347V16.504H76.8V15.347H83.105ZM74.512 14.58L75.669 15.061C74.785 16.218 73.433 17.505 72.237 18.35C72.094 18.077 71.769 17.609 71.548 17.375C72.627 16.673 73.875 15.516 74.512 14.58ZM75.019 17.362L76.163 17.791C75.76 18.454 75.279 19.13 74.746 19.78V26.553H73.537V21.119C73.108 21.548 72.666 21.951 72.25 22.289C72.094 22.029 71.665 21.496 71.418 21.262C72.744 20.313 74.148 18.831 75.019 17.362ZM83.469 18.896V20.053H81.597V25.058C81.597 25.747 81.441 26.098 80.947 26.293C80.466 26.475 79.699 26.488 78.49 26.488C78.438 26.137 78.269 25.63 78.1 25.279C78.932 25.305 79.803 25.305 80.037 25.292C80.284 25.292 80.362 25.227 80.362 25.045V20.053H76.254V18.896H83.469ZM89.488 23.836V24.72C90.294 24.642 91.126 24.564 91.945 24.473C93.011 23.004 93.336 21.041 93.44 18.675H92.062V17.7H89.488V18.376H91.906V22.289H89.488V22.952H91.932V23.836H89.488ZM87.044 21.496H88.383V20.703H87.044V21.496ZM90.879 20.703H89.488V21.496H90.879V20.703ZM89.488 19.962H90.879V19.169H89.488V19.962ZM87.044 19.169V19.962H88.383V19.169H87.044ZM94.623 17.557H97.314C97.314 17.557 97.301 17.973 97.301 18.116C97.158 23.485 97.041 25.331 96.625 25.89C96.378 26.28 96.105 26.384 95.702 26.449C95.312 26.501 94.714 26.501 94.103 26.462C94.077 26.137 93.947 25.643 93.765 25.318C94.363 25.37 94.896 25.37 95.13 25.37C95.351 25.37 95.468 25.331 95.598 25.162C95.884 24.798 96.014 23.147 96.118 18.675H94.584C94.415 22.133 93.83 24.889 91.594 26.605C91.412 26.332 91.009 25.903 90.723 25.708C90.801 25.656 90.879 25.591 90.957 25.526C89.085 25.747 87.213 25.942 85.822 26.072L85.666 25.045C86.42 24.993 87.356 24.915 88.383 24.824V23.836H86.017V22.952H88.383V22.289H86.056V18.376H88.383V17.7H85.705V16.803H88.383V16.075C87.59 16.14 86.797 16.179 86.069 16.205C86.03 15.958 85.9 15.568 85.783 15.334C87.707 15.23 90.008 14.996 91.36 14.697L91.932 15.607C91.243 15.75 90.385 15.88 89.488 15.971V16.803H92.114V17.557H93.479C93.492 16.673 93.492 15.75 93.492 14.775H94.649C94.649 15.737 94.636 16.673 94.623 17.557Z" fill="#141414"/>
</svg>
