<svg width="110" height="40" viewBox="0 0 110 40" fill="none" xmlns="http://www.w3.org/2000/svg">
<rect x="0.5" y="0.5" width="109" height="39" rx="10.5" fill="white"/>
<rect x="0.5" y="0.5" width="109" height="39" rx="10.5" stroke="#E6E6E6"/>
<rect x="7" y="7" width="26" height="26" rx="6" fill="#007DBC"/>
<path d="M13.6069 15.4932H11.3906L12.4531 13.6836H15.541V26.5H13.6069V15.4932ZM26.5312 22.9224H27.8926V24.6821H26.5312V26.5H24.5972V24.6821H18.3052L26.5312 12.729V22.9224ZM24.5972 22.9224V18.6309L21.6421 22.9224H24.5972Z" fill="white"/>
<path d="M46.51 14.632L47.641 14.996C47.264 15.919 46.822 16.842 46.315 17.713V26.501H45.158V19.481C44.794 19.975 44.404 20.443 44.014 20.833C43.897 20.547 43.559 19.897 43.338 19.611C44.599 18.415 45.795 16.543 46.51 14.632ZM48.837 22.419L49.929 22.757C49.357 23.862 48.525 25.11 47.823 25.929C47.615 25.734 47.16 25.396 46.887 25.253C47.589 24.512 48.343 23.42 48.837 22.419ZM49.123 16.257V18.35H53.504V16.257H49.123ZM55.415 21.899H51.879V26.54H50.67V21.899H47.082V20.794H50.67V19.429H47.992V15.191H54.713V19.429H51.879V20.794H55.415V21.899ZM52.49 22.913L53.4 22.406C54.193 23.303 55.064 24.473 55.493 25.24L54.518 25.838C54.128 25.045 53.244 23.81 52.49 22.913ZM60.875 18.168L65.841 17.999C65.477 17.713 65.126 17.427 64.775 17.167L65.295 16.855H62.435C61.915 17.336 61.395 17.778 60.875 18.168ZM69.221 15.789V16.855H66.127C67.089 17.544 68.168 18.454 68.74 19.104L67.713 19.767H68.012V25.188C68.012 25.877 67.817 26.163 67.31 26.319C66.79 26.462 65.958 26.462 64.775 26.462C64.736 26.15 64.593 25.721 64.463 25.422C65.217 25.461 66.179 25.461 66.387 25.448C66.621 25.448 66.699 25.37 66.699 25.175V23.836C64.723 24.265 62.695 24.668 61.135 24.967L60.771 23.875C62.188 23.693 64.489 23.316 66.699 22.952V20.768H60.563V21.964C60.563 23.407 60.342 25.357 59.107 26.657C58.925 26.423 58.418 26.046 58.132 25.916C59.263 24.772 59.38 23.16 59.38 21.938V19.767H67.661C67.466 19.507 67.18 19.221 66.868 18.909C60.394 19.208 59.679 19.221 59.185 19.39C59.12 19.156 58.964 18.571 58.821 18.259C59.146 18.207 59.484 17.96 59.939 17.609C60.121 17.479 60.446 17.206 60.836 16.855H57.859V15.789H61.941C62.331 15.373 62.747 14.892 63.111 14.437L64.333 14.918C64.073 15.217 63.813 15.503 63.527 15.789H69.221ZM60.927 21.899L61.304 21.145C62.825 21.34 64.827 21.821 65.88 22.276L65.503 23.121C64.476 22.666 62.487 22.133 60.927 21.899ZM83.261 17.063H77.021C76.618 17.869 76.163 18.61 75.695 19.169C75.461 18.974 74.928 18.649 74.655 18.493C75.526 17.557 76.319 16.062 76.774 14.58L77.944 14.879C77.814 15.243 77.671 15.62 77.515 15.984H83.261V17.063ZM75.305 16.088L74.59 17.011C74.109 16.582 73.121 15.984 72.354 15.607L73.03 14.775C73.797 15.113 74.798 15.672 75.305 16.088ZM74.447 19.767L73.758 20.69C73.316 20.274 72.38 19.676 71.665 19.312L72.328 18.493C73.043 18.831 73.992 19.364 74.447 19.767ZM73.069 26.306L72.029 25.669C72.536 24.642 73.277 22.965 73.797 21.483L74.746 22.146C74.252 23.511 73.628 25.084 73.069 26.306ZM79.686 23.576H81.285C81.337 23.121 81.389 22.549 81.428 21.86H78.802C79.322 22.263 79.907 22.822 80.193 23.225L79.686 23.576ZM78.594 21.86H77.138C77.047 22.471 76.969 23.056 76.878 23.576H79.374C79.062 23.16 78.503 22.601 78.035 22.211L78.594 21.86ZM78.854 19.195H77.463C77.424 19.702 77.346 20.235 77.281 20.755H79.595C79.296 20.365 78.789 19.871 78.36 19.52L78.854 19.195ZM81.571 19.195H79.14C79.608 19.572 80.128 20.079 80.375 20.43L79.92 20.755H81.493C81.519 20.287 81.545 19.754 81.571 19.195ZM83.599 21.86H82.533C82.494 22.536 82.455 23.095 82.403 23.576H83.248V24.616H82.26C82.156 25.292 82.026 25.682 81.857 25.877C81.597 26.241 81.298 26.345 80.895 26.397C80.531 26.449 79.894 26.436 79.27 26.397C79.244 26.111 79.14 25.669 78.958 25.383C79.582 25.448 80.141 25.448 80.388 25.448C80.622 25.448 80.739 25.422 80.869 25.253C80.96 25.149 81.051 24.941 81.116 24.616H75.552C75.695 23.862 75.864 22.887 76.007 21.86H74.837V20.755H76.163C76.28 19.845 76.371 18.935 76.449 18.155H82.728C82.728 18.155 82.715 18.532 82.702 18.688C82.676 19.455 82.637 20.144 82.611 20.755H83.599V21.86ZM89.371 16.426L88.617 17.375C88.11 16.881 87.057 16.166 86.238 15.698L86.953 14.853C87.759 15.295 88.838 15.958 89.371 16.426ZM88.799 19.624L88.084 20.599C87.577 20.144 86.485 19.481 85.64 19.052L86.329 18.194C87.148 18.571 88.253 19.182 88.799 19.624ZM87.005 26.215L85.913 25.474C86.537 24.473 87.395 22.796 88.045 21.288L89.007 22.029C88.422 23.407 87.668 24.967 87.005 26.215ZM97.574 22.51V23.667H94.051V26.527H92.803V23.667H89.306V22.51H92.803V20.846H90.112V19.728H92.803V18.116H89.722V16.985H91.529C91.321 16.413 90.879 15.607 90.463 15.009L91.529 14.58C92.01 15.23 92.517 16.088 92.725 16.686L92.023 16.985H94.155C94.558 16.296 95.026 15.308 95.299 14.567L96.482 14.931C96.144 15.633 95.741 16.387 95.377 16.985H97.301V18.116H94.051V19.728H96.859V20.846H94.051V22.51H97.574Z" fill="#141414"/>
</svg>
