<svg width="111" height="41" viewBox="0 0 111 41" fill="none" xmlns="http://www.w3.org/2000/svg">
<rect x="0.630906" y="0.52925" width="109" height="39" rx="10.5" fill="white"/>
<rect x="0.630906" y="0.52925" width="109" height="39" rx="10.5" stroke="#E6E6E6"/>
<rect x="7.13184" y="7.02869" width="26" height="26" rx="6" fill="#C21F32"/>
<path d="M23.0169 22.9495L24.3782 22.9494L24.3784 24.7092L23.017 24.7093L23.0172 26.5272L21.0831 26.5273L21.083 24.7095L14.791 24.7101L23.0159 12.7562L23.0169 22.9495ZM21.0828 22.9497L21.0824 18.6582L18.1277 22.95L21.0828 22.9497Z" fill="white"/>
<path d="M46.0313 14.67L47.1623 14.9819C46.9024 15.7879 46.5905 16.6069 46.2526 17.4L46.2534 26.552L45.0964 26.5521L45.0958 19.6621C44.7708 20.1951 44.4589 20.6631 44.1209 21.0792C44.0169 20.7932 43.6918 20.1172 43.4968 19.8052C44.5367 18.5441 45.4725 16.607 46.0313 14.67ZM49.7112 23.8347L49.5942 23.9387C50.0362 24.2376 50.5692 24.5106 51.1543 24.7445C51.8302 24.4715 52.3762 24.1594 52.7922 23.8344L49.7112 23.8347ZM53.7541 23.0283L54.5081 23.4442C54.0662 24.1202 53.3773 24.6793 52.4803 25.1474C53.4163 25.3943 54.4433 25.5502 55.5483 25.6411C55.3404 25.8621 55.0804 26.2781 54.9504 26.5642C53.5594 26.4083 52.2724 26.1354 51.1544 25.7195C50.0624 26.1096 48.7754 26.3957 47.2934 26.5909C47.1894 26.3179 46.9294 25.9539 46.7084 25.7069C47.8913 25.5768 48.9573 25.3947 49.8673 25.1476C49.4903 24.9397 49.1263 24.7317 48.8012 24.4717C48.4373 24.7058 48.0213 24.9138 47.5793 25.1219C47.4233 24.8879 47.1242 24.5759 46.8902 24.4199C47.3192 24.2379 47.7352 24.0558 48.0992 23.8478C47.9172 23.6658 47.7741 23.4708 47.6181 23.2888L48.5151 22.9508C48.6321 23.0938 48.7491 23.2237 48.8791 23.3537C49.2691 23.0677 49.6071 22.7947 49.8671 22.4956C49.529 22.3657 49.425 22.1187 49.425 21.6247L49.425 21.4427C49.113 21.8977 48.697 22.4177 48.1901 22.7428L47.501 22.1969C48.008 21.8978 48.4889 21.3648 48.7879 20.9097L49.4249 21.2477L49.4249 20.9357L50.3999 20.9356L50.4 21.6246C50.4 21.8716 50.478 21.9106 50.868 21.9105L52.259 21.9104C52.545 21.9104 52.61 21.8324 52.649 21.4034C52.818 21.5074 53.156 21.5983 53.403 21.6503C53.26 21.5203 53.1169 21.3773 52.9999 21.2603L53.6499 20.8703C54.1569 21.2992 54.781 21.9232 55.067 22.3391L54.4041 22.7942C54.1961 22.4822 53.819 22.0663 53.442 21.6763C53.364 22.3783 53.0911 22.5993 52.3891 22.5994L50.9981 22.5995C50.8811 22.7685 50.7251 22.9246 50.5691 23.0806L53.5591 23.0803L53.7541 23.0283ZM49.2948 19.3757L49.2948 19.8697L53.2988 19.8693L53.2988 19.3753L49.2948 19.3757ZM53.2986 17.2823L49.2946 17.2827L49.2946 17.7637L53.2986 17.7633L53.2986 17.2823ZM53.2987 18.8163L53.2987 18.3093L49.2947 18.3097L49.2947 18.8167L53.2987 18.8163ZM54.4298 19.8692L55.5868 19.8691L55.587 21.6371L54.508 21.6372L54.5079 20.5842L51.4139 20.5845C51.7649 20.8315 52.1549 21.1174 52.3629 21.3384L51.674 21.7675C51.44 21.5075 50.9459 21.1045 50.5429 20.8446L50.9719 20.5845L48.0209 20.5848L48.021 21.6508L46.981 21.6509L46.9808 19.8699L48.2158 19.8698L48.2155 16.6328L50.4125 16.6326C50.4645 16.4376 50.5035 16.2556 50.5424 16.0606L47.3314 16.0609L47.3314 15.1639L55.3654 15.1631L55.3654 16.0601L51.8164 16.0605L51.5825 16.6325L54.4295 16.6322L54.4298 19.8692ZM61.1116 17.4636L59.7336 17.4637C59.5776 18.1397 59.2137 18.8158 58.5508 19.3488C58.4077 19.1278 57.9657 18.7119 57.7577 18.5689C58.6936 17.8538 58.8365 16.9438 58.8365 16.2158L58.8364 15.2278C60.1884 15.1367 61.7613 14.9415 62.6193 14.6554L63.3344 15.3834C62.4244 15.6825 61.1114 15.8776 59.8894 15.9687L59.8895 16.2287C59.8895 16.3197 59.8895 16.4237 59.8765 16.5407L63.5425 16.5404L63.5426 17.4634L62.1776 17.4635L62.1777 18.9065L61.1117 18.9066L61.1116 17.4636ZM60.7481 22.9236L60.7482 23.7036L66.5592 23.7031L66.5591 22.9231L60.7481 22.9236ZM60.748 21.4286L60.748 22.1826L66.559 22.1821L66.559 21.4281L60.748 21.4286ZM60.7478 19.9336L60.7479 20.7006L66.5589 20.7001L66.5588 19.9331L60.7478 19.9336ZM67.7812 24.47L65.5452 24.4702C66.9363 24.847 68.4053 25.3539 69.3414 25.7308L68.7694 26.6019C67.8464 26.173 66.3383 25.6141 64.8823 25.1982L65.3372 24.4702L61.7492 24.4705L62.6203 24.9644C61.5413 25.5755 59.8384 26.2387 58.5384 26.6288C58.4344 26.3948 58.1224 25.8359 57.9533 25.6019C59.1623 25.3418 60.6963 24.9126 61.6712 24.4705L59.5782 24.4707L59.5777 19.1667L67.7807 19.166L67.7812 24.47ZM65.1025 16.5402L69.4445 16.5398L69.4446 17.4628L67.5076 17.463L67.5077 18.945L66.4287 18.9451L66.4286 17.4631L64.9726 17.4632C64.8426 18.0742 64.5697 18.6723 64.0627 19.1533C63.8807 18.9713 63.4257 18.6594 63.1787 18.5554C63.9716 17.8013 64.1015 16.8783 64.1015 16.1633L64.1014 15.2013C65.5184 15.1232 67.2083 14.941 68.1053 14.6549L68.8854 15.3439C67.8974 15.6559 66.4414 15.8511 65.1154 15.9422L65.1155 16.1892C65.1155 16.2932 65.1155 16.4102 65.1025 16.5402ZM81.6256 18.1247L79.7146 18.1248C79.9358 19.4378 80.2609 20.6598 80.703 21.7517C81.1449 20.7117 81.4438 19.5157 81.6256 18.1247ZM76.8418 19.8281L77.2968 20.1791C77.5438 19.854 77.7778 19.477 77.9727 19.074L75.8667 19.0742C75.6198 19.3602 75.3598 19.6332 75.0998 19.8933L76.6208 19.8931L76.8418 19.8281ZM74.9825 16.9293L74.9826 18.0213L75.2816 18.0213C75.5806 17.6832 75.8406 17.3062 76.0875 16.9292L74.9825 16.9293ZM83.6796 18.1245L82.8736 18.1245C82.5878 20.1266 82.12 21.7646 81.3791 23.1167C82.0032 24.1436 82.7963 24.9755 83.7973 25.4955C83.5114 25.7295 83.1344 26.1975 82.9394 26.5355C82.0034 25.9766 81.2493 25.1967 80.6382 24.2608C79.8973 25.1968 78.9614 25.9769 77.7524 26.588C77.6224 26.302 77.2584 25.7561 77.0373 25.4961C78.3243 24.911 79.2862 24.1049 79.9881 23.0648C79.559 22.1159 79.2079 21.0629 78.9478 19.9059C78.7139 20.3609 78.4539 20.764 78.1809 21.141C78.0249 20.972 77.6999 20.66 77.4269 20.4521C76.8939 21.0501 76.205 21.6742 75.529 22.1552L75.5291 22.5842C76.3221 22.5062 77.141 22.4021 77.947 22.311L77.9601 23.338L75.5292 23.6372L75.5293 25.3402C75.5294 25.8862 75.4254 26.1852 75.0354 26.3413C74.6454 26.5233 74.0604 26.5234 73.2414 26.5234C73.1894 26.2114 73.0334 25.7825 72.8773 25.4965C73.4623 25.5094 74.0213 25.5094 74.1773 25.4964C74.3593 25.4963 74.3983 25.4573 74.3983 25.3143L74.3982 23.7803L71.8762 24.0796L71.7461 23.0006C72.4741 22.9225 73.3971 22.8314 74.3981 22.7143L74.398 21.8823C74.827 21.6223 75.2819 21.2323 75.6979 20.8552L73.9689 20.8554C73.4879 21.2194 72.981 21.5575 72.461 21.8565C72.292 21.6225 71.8759 21.1546 71.6289 20.9336C72.6039 20.4525 73.5138 19.8154 74.2937 19.0743L71.7457 19.0746L71.7456 18.0216L73.8646 18.0214L73.8645 16.9294L72.2655 16.9295L72.2654 15.9025L73.8644 15.9024L73.8643 14.6284L74.9823 14.6283L74.9824 15.9023L76.2434 15.9022L76.2435 16.6822C76.5685 16.1361 76.8804 15.5511 77.1273 14.9401L78.2454 15.265C77.8295 16.266 77.3096 17.1891 76.6986 18.0211L77.9986 18.021L77.9987 19.035C78.6226 17.7869 79.0645 16.2269 79.3113 14.6149L80.5333 14.8098C80.4034 15.5508 80.2475 16.2918 80.0395 16.9938L83.6795 16.9935L83.6796 18.1245ZM89.0876 18.189L94.0536 18.0195C93.6896 17.7335 93.3386 17.4476 92.9876 17.1876L93.5075 16.8755L90.6475 16.8758C90.1276 17.3569 89.6076 17.7989 89.0876 18.189ZM97.4334 15.8092L97.4335 16.8752L94.3395 16.8755C95.3016 17.5644 96.3807 18.4743 96.9527 19.1242L95.9258 19.7873L96.2248 19.7873L96.2253 25.2083C96.2254 25.8973 96.0304 26.1833 95.5234 26.3394C95.0034 26.4824 94.1714 26.4825 92.9884 26.4826C92.9494 26.1706 92.8064 25.7416 92.6763 25.4426C93.4303 25.4816 94.3923 25.4815 94.6003 25.4684C94.8343 25.4684 94.9123 25.3904 94.9123 25.1954L94.9122 23.8564C92.9362 24.2856 90.9083 24.6888 89.3483 24.9879L88.9842 23.896C90.4012 23.7138 92.7021 23.3366 94.9121 22.9724L94.9119 20.7884L88.7759 20.789L88.776 21.985C88.7761 23.428 88.5553 25.378 87.3204 26.6781C87.1384 26.4441 86.6314 26.0672 86.3454 25.9372C87.4763 24.7931 87.5931 23.1811 87.593 21.9591L87.5928 19.7881L95.8738 19.7873C95.6788 19.5273 95.3927 19.2414 95.0807 18.9294C88.6067 19.229 87.8917 19.2421 87.3978 19.4111C87.3327 19.1771 87.1767 18.5921 87.0337 18.2801C87.3587 18.2281 87.6966 17.9811 88.1516 17.63C88.3336 17.5 88.6586 17.227 89.0485 16.876L86.0715 16.8762L86.0714 15.8102L90.1534 15.8099C90.5434 15.3938 90.9593 14.9128 91.3233 14.4577L92.5453 14.9386C92.2854 15.2377 92.0254 15.5237 91.7394 15.8097L97.4334 15.8092ZM89.14 21.92L89.5169 21.1659C91.0379 21.3608 93.04 21.8416 94.093 22.2965L93.7161 23.1415C92.6891 22.6866 90.7 22.1538 89.14 21.92Z" fill="#141414"/>
</svg>
