<svg width="110" height="40" viewBox="0 0 110 40" fill="none" xmlns="http://www.w3.org/2000/svg">
<rect x="0.5" y="0.5" width="109" height="39" rx="10.5" fill="white"/>
<rect x="0.5" y="0.5" width="109" height="39" rx="10.5" stroke="#E6E6E6"/>
<rect x="7" y="7" width="26" height="26" rx="6" fill="#F99D23"/>
<path d="M15.1069 15.4932H12.8906L13.9531 13.6836H17.041V26.5H15.1069V15.4932ZM23.1089 15.4932H20.8926L21.9551 13.6836H25.043V26.5H23.1089V15.4932Z" fill="white"/>
<path d="M51.957 16.257L51.32 17.388C50.28 16.79 48.174 16.023 46.588 15.62L47.186 14.619C48.733 14.97 50.865 15.659 51.957 16.257ZM47.329 19.702L48.135 20.04C47.485 22.718 46.055 24.681 44.443 25.734C44.235 25.474 43.767 25.006 43.481 24.824C44.807 24.031 45.977 22.64 46.601 20.885H43.767V19.741H47.121L47.329 19.702ZM53.985 18.181L55.09 18.987C54.089 19.923 52.828 20.963 51.788 21.678C52.724 23.017 53.959 24.07 55.545 24.668C55.272 24.915 54.895 25.409 54.7 25.734C52.659 24.837 51.203 23.251 50.202 21.197V25.058C50.202 25.747 50.046 26.098 49.578 26.293C49.097 26.501 48.369 26.514 47.303 26.514C47.251 26.176 47.056 25.63 46.874 25.305C47.589 25.331 48.382 25.331 48.603 25.331C48.837 25.318 48.902 25.253 48.902 25.032V18.376H45.47V17.219H50.202V18.259C50.475 19.156 50.8 20.001 51.216 20.755C52.191 20.014 53.283 19 53.985 18.181ZM65.048 16.621V16.049H61.85V15.23H65.048V14.593H66.231V15.23H69.273V16.049H66.231V16.621H68.818V17.401H62.357V16.621H65.048ZM62.916 18.623V19.559H64.138V18.623H62.916ZM68.168 19.559V18.623H67.115V19.559H68.168ZM65.061 19.559H66.192V18.623H65.061V19.559ZM61.915 20.339V17.843H69.221V20.339H61.915ZM62.045 22.302L61.161 22.588C61.135 22.38 61.083 22.146 61.031 21.873C58.6 22.237 58.21 22.328 57.95 22.471C57.898 22.25 57.742 21.743 57.612 21.47C57.885 21.392 58.158 21.08 58.535 20.586C58.704 20.378 59.055 19.884 59.445 19.247C58.327 19.377 58.041 19.455 57.859 19.533C57.807 19.312 57.638 18.818 57.521 18.545C57.755 18.493 57.95 18.233 58.197 17.83C58.457 17.453 59.25 15.971 59.692 14.567L60.706 14.983C60.238 16.153 59.614 17.349 58.977 18.324L60.069 18.233C60.368 17.661 60.68 17.063 60.94 16.478L61.876 17.024C61.148 18.48 60.212 19.949 59.25 21.158L60.836 20.95C60.732 20.56 60.615 20.157 60.498 19.806L61.33 19.585C61.629 20.482 61.941 21.626 62.045 22.302ZM58.106 22.952L59.055 23.121C58.925 24.33 58.691 25.617 58.418 26.449C58.21 26.332 57.755 26.202 57.508 26.137C57.807 25.305 57.989 24.083 58.106 22.952ZM59.38 23.069L60.212 22.926C60.381 23.875 60.511 25.084 60.55 25.903L59.653 26.072C59.64 25.253 59.523 24.018 59.38 23.069ZM60.563 22.822L61.343 22.601C61.59 23.342 61.902 24.33 62.019 24.967L61.2 25.227C61.083 24.59 60.823 23.589 60.563 22.822ZM63.423 23.472V23.992H67.674V23.472H63.423ZM63.423 22.484V22.965H67.674V22.484H63.423ZM63.423 21.509V21.977H67.674V21.509H63.423ZM68.792 24.655H66.933C67.856 24.98 68.831 25.37 69.468 25.656L68.974 26.514C68.285 26.189 67.193 25.695 66.218 25.331L66.608 24.655H64.502L65.217 25.318C64.229 25.773 62.968 26.254 62.058 26.592C61.967 26.358 61.772 25.994 61.603 25.747C62.383 25.487 63.514 25.019 64.242 24.655H62.344V20.833H68.792V24.655ZM82.195 18.961L83.287 19.156C82.884 20.833 82.286 22.302 81.506 23.55C81.779 24.629 82.091 25.266 82.442 25.266C82.65 25.266 82.78 24.642 82.819 23.225C83.053 23.485 83.417 23.732 83.69 23.849C83.534 25.812 83.209 26.384 82.286 26.384C81.597 26.384 81.09 25.747 80.687 24.681C80.102 25.383 79.426 26.007 78.672 26.514C78.516 26.293 78.074 25.877 77.84 25.682C78.828 25.084 79.66 24.304 80.336 23.368C79.998 21.808 79.816 19.78 79.725 17.596H76.904V19.182H79.283C79.283 19.182 79.283 19.481 79.27 19.611C79.231 22.549 79.179 23.654 78.945 23.992C78.763 24.226 78.555 24.33 78.256 24.369C77.996 24.408 77.567 24.421 77.125 24.395C77.099 24.096 76.995 23.667 76.839 23.394C77.242 23.446 77.58 23.446 77.736 23.446C77.892 23.446 77.97 23.407 78.048 23.29C78.178 23.108 78.23 22.328 78.256 20.17H76.904V20.612C76.904 22.471 76.67 24.98 75.279 26.566C75.097 26.332 74.629 25.955 74.382 25.812C74.98 25.123 75.331 24.304 75.526 23.433C74.304 23.94 73.03 24.447 72.003 24.863L71.613 23.667C72.029 23.537 72.523 23.368 73.056 23.173V18.831H71.795V17.713H73.056V14.749H74.174V17.713H75.318V18.831H74.174V22.77L75.318 22.354L75.539 23.407C75.747 22.445 75.786 21.47 75.786 20.599V16.504H79.686C79.66 15.867 79.647 15.217 79.647 14.58H80.791C80.778 15.23 80.791 15.867 80.804 16.504H82.221C81.922 16.088 81.402 15.529 80.947 15.113L81.779 14.606C82.312 15.035 82.923 15.659 83.196 16.088L82.559 16.504H83.43V17.596H80.83C80.895 19.195 81.025 20.651 81.194 21.86C81.623 21.002 81.948 20.014 82.195 18.961ZM88.734 20.053L89.722 20.17C89.306 23.082 88.279 25.097 86.303 26.371C86.199 26.163 85.874 25.747 85.666 25.552C86.953 24.811 87.785 23.667 88.279 22.146C86.563 22.419 86.238 22.484 86.017 22.601C85.965 22.393 85.796 21.899 85.679 21.626C85.952 21.574 86.212 21.262 86.537 20.807C86.732 20.56 87.135 19.923 87.59 19.13C86.511 19.247 86.238 19.325 86.069 19.403C86.004 19.182 85.835 18.649 85.705 18.376C85.913 18.337 86.095 18.077 86.29 17.726C86.498 17.375 87.161 16.036 87.486 14.762L88.617 15.035C88.214 16.166 87.655 17.31 87.109 18.22L88.123 18.142C88.305 17.752 88.5 17.349 88.669 16.959L89.657 17.362C88.981 18.753 88.123 20.209 87.252 21.34L88.539 21.184C88.617 20.82 88.682 20.443 88.734 20.053ZM92.296 16.933H90.84V18.363H92.296V16.933ZM90.84 20.703H92.296V19.338H90.84V20.703ZM91.542 22.497L92.491 22.172C92.985 23.264 93.505 24.681 93.687 25.552L92.66 25.942C92.608 25.669 92.543 25.331 92.426 24.967C90.19 25.721 89.826 25.864 89.605 26.02C89.54 25.786 89.358 25.37 89.202 25.175C89.449 25.071 89.787 24.824 89.787 24.304V15.906H91.113C90.944 15.581 90.736 15.243 90.554 14.957L91.49 14.606C91.802 14.996 92.101 15.503 92.283 15.906H93.271V21.73H90.84V24.46L92.14 24.057C91.958 23.524 91.75 22.978 91.542 22.497ZM96.833 15.191L97.6 15.685C97.21 16.907 96.716 18.428 96.287 19.585C97.197 20.781 97.418 21.795 97.418 22.679C97.431 23.498 97.249 24.122 96.885 24.421C96.677 24.564 96.43 24.655 96.144 24.694C95.897 24.72 95.572 24.72 95.247 24.707C95.247 24.408 95.169 23.927 95 23.628C95.273 23.654 95.52 23.654 95.715 23.654C95.871 23.641 96.014 23.602 96.118 23.511C96.326 23.368 96.391 22.991 96.391 22.536C96.391 21.769 96.157 20.833 95.26 19.702C95.624 18.675 96.001 17.323 96.274 16.309H94.844V26.501H93.83V15.243H96.651L96.833 15.191Z" fill="#141414"/>
</svg>
