<svg width="120" height="120" viewBox="0 0 120 120" fill="none" xmlns="http://www.w3.org/2000/svg">
<path opacity="0.1" d="M61.8951 109.448C78.0583 109.448 91.1611 96.3451 91.1611 80.182C91.1611 64.0188 78.0583 50.916 61.8951 50.916C45.732 50.916 32.6292 64.0188 32.6292 80.182C32.6292 96.3451 45.732 109.448 61.8951 109.448Z" fill="url(#paint0_radial_2118_7065)"/>
<path d="M60.8811 93.8302C81.1292 93.8302 97.5436 77.4158 97.5436 57.1677C97.5436 36.9195 81.1292 20.5051 60.8811 20.5051C40.6329 20.5051 24.2185 36.9195 24.2185 57.1677C24.2185 77.4158 40.6329 93.8302 60.8811 93.8302Z" fill="url(#paint1_radial_2118_7065)"/>
<path d="M19.829 104.198C16.0685 104.198 13.1857 103.19 11.43 101.061C7.34916 96.1198 10.1192 86.3862 19.2418 73.6632C19.4731 73.3429 19.918 73.2657 20.2442 73.4971C20.5705 73.7284 20.6416 74.1733 20.4103 74.4995C11.8334 86.4692 8.96253 95.8232 12.5392 100.153C15.7185 104.003 24.07 103.552 35.4526 98.9135C47.2503 94.1031 61.0588 85.4194 74.3394 74.452C87.62 63.4906 98.7594 51.5683 105.711 40.8976C112.42 30.6005 114.442 22.4862 111.263 18.6308C107.84 14.4906 98.6585 15.2973 86.066 20.8373C85.7042 20.9974 85.283 20.8373 85.1229 20.4695C84.9627 20.1077 85.1229 19.6866 85.4906 19.5264C98.9077 13.6187 108.457 12.9721 112.372 17.7173C119.858 26.7806 103.552 52.1912 75.2529 75.5553C53.597 93.4387 32.0894 104.198 19.835 104.198H19.829Z" fill="#626262"/>
<path d="M111.53 37.1252C114.58 37.1252 117.052 34.6529 117.052 31.603C117.052 28.5532 114.58 26.0808 111.53 26.0808C108.48 26.0808 106.008 28.5532 106.008 31.603C106.008 34.6529 108.48 37.1252 111.53 37.1252Z" fill="#939393"/>
<path d="M17.6108 17.3852L18.548 19.9298C18.9928 21.128 19.9359 22.0711 21.1282 22.51L23.6728 23.4472C24.3905 23.7141 24.3905 24.7343 23.6728 24.9953L21.1282 25.9325C19.93 26.3773 18.9869 27.3205 18.548 28.5127L17.6108 31.0573C17.3439 31.775 16.3237 31.775 16.0627 31.0573L15.1255 28.5127C14.6806 27.3145 13.7375 26.3714 12.5453 25.9325L10.0007 24.9953C9.28297 24.7284 9.28297 23.7082 10.0007 23.4472L12.5453 22.51C13.7435 22.0652 14.6866 21.122 15.1255 19.9298L16.0627 17.3852C16.3296 16.6675 17.3498 16.6675 17.6108 17.3852Z" fill="#939393"/>
<g opacity="0.94">
<path d="M38.015 62.3576C38.015 62.9507 37.754 63.4905 37.3447 63.876C36.9354 64.2616 36.366 64.5048 35.7373 64.5048H16.9463C15.6948 64.5048 14.6746 63.5379 14.6746 62.3576C14.6746 61.7704 14.9355 61.2306 15.3448 60.845C15.7541 60.4536 16.3235 60.2163 16.9523 60.2163H35.7432C36.9948 60.2163 38.015 61.1831 38.015 62.3576Z" fill="url(#paint2_linear_2118_7065)"/>
<path d="M61.0707 42.6712C60.6614 43.0567 60.4004 43.5965 60.4004 44.1837C60.4004 45.37 61.4206 46.3309 62.6781 46.3309H63.6449C64.9024 46.3309 65.9226 47.2978 65.9226 48.4781C65.9226 49.0653 65.6676 49.6051 65.2524 49.9906C64.8372 50.3821 64.2677 50.6194 63.6449 50.6194H36.2711C35.0196 50.6194 33.9934 49.6526 33.9934 48.4781C33.9934 47.885 34.2544 47.3452 34.6637 46.9597C35.0789 46.5741 35.6483 46.3309 36.2711 46.3309H54.7418C55.3705 46.3309 55.9399 46.0877 56.3492 45.7022C56.7585 45.3166 57.0195 44.7769 57.0195 44.1837C57.0195 43.0033 55.9992 42.0424 54.7418 42.0424H48.7688C47.5113 42.0424 46.4911 41.0756 46.4911 39.8952C46.4911 39.3021 46.752 38.7683 47.1613 38.3768C47.5706 37.9912 48.1459 37.748 48.7688 37.748H65.282C66.5336 37.748 67.5538 38.7149 67.5538 39.8952C67.5538 40.4884 67.2928 41.0222 66.8835 41.4137C66.498 41.7755 65.976 42.0128 65.3947 42.0365C65.3532 42.0365 65.3176 42.0365 65.2761 42.0365H62.6781C62.0494 42.0365 61.4799 42.2738 61.0707 42.6653V42.6712Z" fill="url(#paint3_linear_2118_7065)"/>
<path d="M48.4959 64.5048H45.9098C44.6582 64.5048 43.6321 63.538 43.6321 62.3576C43.6321 61.1773 44.6582 60.2104 45.9098 60.2104H48.4959C49.7475 60.2104 50.7736 61.1773 50.7736 62.3576C50.7736 63.538 49.7475 64.5048 48.4959 64.5048Z" fill="url(#paint4_linear_2118_7065)"/>
<path d="M82.341 42.0363H74.8436C73.5921 42.0363 72.5659 41.0695 72.5659 39.8891C72.5659 38.7088 73.5921 37.7419 74.8436 37.7419H82.341C83.5926 37.7419 84.6187 38.7088 84.6187 39.8891C84.6187 41.0695 83.5926 42.0363 82.341 42.0363Z" fill="url(#paint5_linear_2118_7065)"/>
</g>
<defs>
<radialGradient id="paint0_radial_2118_7065" cx="0" cy="0" r="1" gradientUnits="userSpaceOnUse" gradientTransform="translate(61.8951 80.182) scale(29.266)">
<stop offset="0.73" stop-color="#141414"/>
<stop offset="1" stop-color="#141414" stop-opacity="0"/>
</radialGradient>
<radialGradient id="paint1_radial_2118_7065" cx="0" cy="0" r="1" gradientUnits="userSpaceOnUse" gradientTransform="translate(77.9341 44.8005) scale(60.78)">
<stop offset="0.26" stop-color="#6DC81D"/>
<stop offset="0.33" stop-color="#6CC723"/>
<stop offset="0.43" stop-color="#69C536"/>
<stop offset="0.55" stop-color="#64C155"/>
<stop offset="0.69" stop-color="#5EBC81"/>
<stop offset="0.84" stop-color="#56B6B8"/>
<stop offset="0.99" stop-color="#4DAEFB"/>
<stop offset="1" stop-color="#4DAEFF"/>
</radialGradient>
<linearGradient id="paint2_linear_2118_7065" x1="15.0482" y1="62.3576" x2="81.1903" y2="62.3576" gradientUnits="userSpaceOnUse">
<stop stop-color="white" stop-opacity="0.9"/>
<stop offset="0.19" stop-color="white"/>
<stop offset="0.83" stop-color="white"/>
<stop offset="1" stop-color="white" stop-opacity="0.9"/>
</linearGradient>
<linearGradient id="paint3_linear_2118_7065" x1="15.0482" y1="44.1837" x2="81.1903" y2="44.1837" gradientUnits="userSpaceOnUse">
<stop stop-color="white" stop-opacity="0.9"/>
<stop offset="0.19" stop-color="white"/>
<stop offset="0.83" stop-color="white"/>
<stop offset="1" stop-color="white" stop-opacity="0.9"/>
</linearGradient>
<linearGradient id="paint4_linear_2118_7065" x1="15.0482" y1="-9.75681e-05" x2="81.1903" y2="-9.75681e-05" gradientUnits="userSpaceOnUse">
<stop stop-color="white" stop-opacity="0.9"/>
<stop offset="0.19" stop-color="white"/>
<stop offset="0.83" stop-color="white"/>
<stop offset="1" stop-color="white" stop-opacity="0.9"/>
</linearGradient>
<linearGradient id="paint5_linear_2118_7065" x1="15.0482" y1="39.8891" x2="81.1903" y2="39.8891" gradientUnits="userSpaceOnUse">
<stop stop-color="white" stop-opacity="0.9"/>
<stop offset="0.19" stop-color="white"/>
<stop offset="0.83" stop-color="white"/>
<stop offset="1" stop-color="white" stop-opacity="0.9"/>
</linearGradient>
</defs>
</svg>
