<svg xmlns="http://www.w3.org/2000/svg" width="120" height="120" viewBox="0 0 120 120" fill="none">
  <g clip-path="url(#clip0_2118_6847)">
    <path opacity="0.1" d="M89.263 79.328C89.263 95.4913 59.997 112.076 59.997 112.076C59.997 112.076 30.7311 95.4913 30.7311 79.328C30.7311 63.1647 43.8337 35.8857 59.997 35.8857C76.1604 35.8857 89.263 63.1706 89.263 79.328Z" fill="url(#paint0_radial_2118_6847)"/>
    <path d="M102.158 11.1928L103.095 13.7374C103.54 14.9356 104.483 15.8787 105.675 16.3176L108.22 17.2548C108.938 17.5217 108.938 18.5419 108.22 18.8029L105.675 19.7401C104.477 20.185 103.534 21.1281 103.095 22.3203L102.158 24.8649C101.891 25.5826 100.871 25.5826 100.61 24.8649L99.6728 22.3203C99.2279 21.1221 98.2848 20.179 97.0926 19.7401L94.548 18.8029C93.8303 18.536 93.8303 17.5158 94.548 17.2548L97.0926 16.3176C98.2907 15.8728 99.2339 14.9297 99.6728 13.7374L100.61 11.1928C100.877 10.4751 101.897 10.4751 102.158 11.1928Z" fill="#939393"/>
    <path d="M98.9492 44.7059C98.1781 37.1195 93.4625 30.7016 86.8845 27.5283C86.5701 27.38 86.2558 27.2317 85.9295 27.0953C83.3553 26.0098 80.5319 25.4048 77.5661 25.4048C73.9361 25.4048 70.5195 26.3064 67.5182 27.896C64.5228 29.4856 61.9426 31.7633 59.997 34.5215C58.0515 31.7633 55.4772 29.4856 52.4759 27.896C49.4805 26.3064 46.058 25.4048 42.428 25.4048C39.4622 25.4048 36.6329 26.0039 34.0646 27.0953C33.7443 27.2317 33.424 27.374 33.1096 27.5283C26.5316 30.6957 21.816 37.1195 21.0449 44.7059C20.9738 45.4295 20.9322 46.1591 20.9322 46.9005C20.9322 81.7717 59.9911 95.7285 59.9911 95.7285C59.9911 95.7285 99.05 81.7658 99.05 46.9005C99.05 46.1591 99.0144 45.4236 98.9373 44.7059H98.9492Z" fill="url(#paint1_radial_2118_6847)"/>
    <path d="M70.6619 52.9329H49.3441V58.983H70.6619V52.9329Z" fill="white"/>
    <path d="M63.028 66.6227V45.3049H56.9779V66.6227H63.028Z" fill="white"/>
    <path opacity="0.9" d="M33.7561 36.2236L34.3493 37.8311C34.628 38.5844 35.2212 39.1835 35.9804 39.4622L37.5879 40.0554C38.0446 40.2215 38.0446 40.868 37.5879 41.0341L35.9804 41.6272C35.2271 41.906 34.628 42.4992 34.3493 43.2584L33.7561 44.8658C33.59 45.3226 32.9435 45.3226 32.7774 44.8658L32.1843 43.2584C31.9055 42.5051 31.3123 41.906 30.5531 41.6272L28.9457 41.0341C28.489 40.868 28.489 40.2215 28.9457 40.0554L30.5531 39.4622C31.3064 39.1835 31.9055 38.5903 32.1843 37.8311L32.7774 36.2236C32.9435 35.7669 33.59 35.7669 33.7561 36.2236Z" fill="white"/>
    <path d="M81.9851 92.2288C81.9376 92.2288 81.8902 92.2288 81.8427 92.2229C81.1191 92.1576 80.5674 91.6001 80.5081 90.8764L77.7796 58.965C77.7619 58.9235 77.7144 58.9235 77.6966 58.9294L73.8233 81.8724C73.7166 82.513 73.2302 82.9935 72.5837 83.0884C71.9371 83.1833 71.3321 82.863 71.0474 82.2817L69.5705 79.2863L14.888 79.2626C14.4906 79.2626 14.1703 78.9422 14.1703 78.5448C14.1703 78.1474 14.4906 77.8271 14.888 77.8271H69.5289C70.0924 77.8271 70.6025 78.1415 70.8517 78.6516L72.3286 81.647L72.4116 81.6352L76.273 58.7218C76.3976 57.9685 77.0263 57.4703 77.7915 57.494C78.5567 57.5236 79.138 58.0812 79.2032 58.8464L81.9317 90.7578C81.9495 90.7993 81.991 90.7993 82.0088 90.7934L85.3126 78.9185C85.4906 78.2839 86.0778 77.839 86.7362 77.839H109.009C109.406 77.839 109.727 78.1593 109.727 78.5567C109.727 78.9541 109.406 79.2744 109.009 79.2744H86.7362L83.3968 91.1493C83.2129 91.8017 82.6435 92.2288 81.9791 92.2288H81.9851Z" fill="#626262"/>
  </g>
  <defs>
    <radialGradient id="paint0_radial_2118_6847" cx="0" cy="0" r="1" gradientUnits="userSpaceOnUse" gradientTransform="translate(60.0682 79.1144) scale(27.3916 27.3916)">
      <stop offset="0.73" stop-color="#141414"/>
      <stop offset="1" stop-color="#141414" stop-opacity="0"/>
    </radialGradient>
    <radialGradient id="paint1_radial_2118_6847" cx="0" cy="0" r="1" gradientUnits="userSpaceOnUse" gradientTransform="translate(78.1652 48.7155) scale(59.22 59.22)">
      <stop offset="0.26" stop-color="#40CECC"/>
      <stop offset="0.45" stop-color="#41C9D2"/>
      <stop offset="0.73" stop-color="#46BDE5"/>
      <stop offset="1" stop-color="#4DAEFF"/>
    </radialGradient>
    <clipPath id="clip0_2118_6847">
      <rect width="120" height="120" fill="white"/>
    </clipPath>
  </defs>
</svg>