<svg width="79" height="48" viewBox="0 0 79 48" fill="none" xmlns="http://www.w3.org/2000/svg">
<g clip-path="url(#clip0_2761_3428)">
<path d="M3.13545 1.54972C2.9361 1.3823 2.68479 1.28932 2.42448 1.28667C2.24659 1.28505 2.07097 1.32652 1.9126 1.40753C1.71126 1.49994 1.54175 1.64981 1.42536 1.8383C1.30898 2.02679 1.25089 2.24548 1.25847 2.46687L1.64954 22.7865C1.65094 23.0125 1.71916 23.233 1.84568 23.4202C1.9722 23.6075 2.15137 23.7531 2.36051 23.8387C2.56731 23.9273 2.79561 23.9529 3.01689 23.9124C3.23818 23.872 3.44263 23.7672 3.60471 23.6112L9.2925 18.2149C9.65036 17.8746 10.1049 17.6535 10.5935 17.5822L18.3503 16.4304C18.5729 16.3988 18.7812 16.3025 18.9494 16.1533C19.1175 16.0041 19.238 15.8087 19.2958 15.5914C19.3573 15.3739 19.353 15.143 19.2834 14.9279C19.2138 14.7128 19.0821 14.5231 18.9049 14.3828L3.13545 1.54972Z" fill="#4DB0FF"/>
<path d="M2.80844 25.1401C2.48644 25.1414 2.16736 25.0786 1.86991 24.9553C1.43645 24.7787 1.06491 24.478 0.801801 24.091C0.538692 23.7039 0.395781 23.2477 0.391117 22.7797L0.00013378 2.46008C-0.0139528 2.00011 0.10625 1.54601 0.34616 1.15331C0.586071 0.760616 0.93522 0.446352 1.35091 0.248953C1.7634 0.0467635 2.22533 -0.0325802 2.68164 0.020362C3.13795 0.0733042 3.5694 0.256299 3.92463 0.54756L19.6798 13.3451C20.0452 13.6368 20.3164 14.0299 20.4594 14.4751C20.6023 14.9203 20.6106 15.3978 20.4832 15.8477C20.3638 16.3002 20.113 16.7071 19.7625 17.0171C19.412 17.3272 18.9775 17.5264 18.5138 17.5896L10.7642 18.7414C10.5292 18.7767 10.3108 18.8834 10.1385 19.0471L4.45074 24.4434C4.01381 24.879 3.42533 25.1287 2.80844 25.1401ZM2.41026 1.25143C2.23237 1.24981 2.05675 1.29128 1.89838 1.37229C1.69704 1.4647 1.52753 1.61457 1.41114 1.80306C1.29476 1.99155 1.23676 2.21025 1.24434 2.43164L1.63532 22.7512C1.63672 22.9772 1.70503 23.1977 1.83155 23.385C1.95807 23.5723 2.13715 23.7179 2.34629 23.8035C2.55309 23.892 2.78139 23.9176 3.00267 23.8772C3.22396 23.8367 3.42841 23.7319 3.59049 23.576L9.27828 18.1797C9.63614 17.8393 10.0907 17.6183 10.5793 17.5469L18.3361 16.3951C18.5586 16.3636 18.767 16.2672 18.9352 16.118C19.1033 15.9689 19.2239 15.7734 19.2817 15.5562C19.3432 15.3386 19.3388 15.1078 19.2692 14.8927C19.1996 14.6776 19.0679 14.4879 18.8906 14.3475L3.13546 1.55003C2.93746 1.36661 2.68001 1.26061 2.41026 1.25143Z" fill="white" fill-opacity="0.8"/>
</g>
<rect x="8" y="23.1401" width="71" height="24" rx="12" fill="#4DB0FF"/>
<path d="M18.972 30.7401H21.636C22.732 30.7401 23.556 31.0801 24.108 31.7601C24.668 32.4401 24.948 33.4441 24.948 34.7721C24.948 35.8121 24.824 36.6521 24.576 37.2921C24.328 37.9241 23.936 38.3921 23.4 38.6961C22.872 38.9921 22.172 39.1401 21.3 39.1401H18.972V30.7401ZM21.492 38.2281C22.308 38.2281 22.904 37.9521 23.28 37.4001C23.656 36.8481 23.844 35.9721 23.844 34.7721C23.844 33.7081 23.66 32.9241 23.292 32.4201C22.924 31.9081 22.356 31.6521 21.588 31.6521H20.076V38.2281H21.492ZM31.9806 36.5361H27.6606C27.7166 37.1441 27.8966 37.6081 28.2006 37.9281C28.5046 38.2401 28.9246 38.3961 29.4606 38.3961C30.1806 38.3961 30.7526 38.1121 31.1766 37.5441L31.7526 38.0961C31.5206 38.4641 31.1966 38.7521 30.7806 38.9601C30.3726 39.1601 29.9206 39.2601 29.4246 39.2601C28.5366 39.2601 27.8486 38.9881 27.3606 38.4441C26.8726 37.9001 26.6286 37.1361 26.6286 36.1521C26.6286 35.1761 26.8726 34.4121 27.3606 33.8601C27.8566 33.3001 28.5366 33.0201 29.4006 33.0201C30.2086 33.0201 30.8406 33.2961 31.2966 33.8481C31.7526 34.3921 31.9806 35.1561 31.9806 36.1401V36.5361ZM31.0446 35.6961C31.0446 35.1201 30.8926 34.6681 30.5886 34.3401C30.2926 34.0121 29.8806 33.8481 29.3526 33.8481C28.8566 33.8481 28.4606 34.0161 28.1646 34.3521C27.8766 34.6881 27.7086 35.1641 27.6606 35.7801H31.0446V35.6961ZM35.7619 39.2601C35.3139 39.2601 34.9059 39.1681 34.5379 38.9841C34.1779 38.8001 33.9219 38.5561 33.7699 38.2521L34.4299 37.7961C34.5659 38.0121 34.7539 38.1801 34.9939 38.3001C35.2339 38.4201 35.4939 38.4801 35.7739 38.4801C36.1099 38.4801 36.3859 38.3841 36.6019 38.1921C36.8259 37.9921 36.9379 37.7441 36.9379 37.4481C36.9379 37.2081 36.8499 37.0081 36.6739 36.8481C36.4979 36.6881 36.1859 36.5241 35.7379 36.3561C35.0579 36.1081 34.5779 35.8481 34.2979 35.5761C34.0259 35.3041 33.8899 34.9681 33.8899 34.5681C33.8899 34.1041 34.0739 33.7321 34.4419 33.4521C34.8099 33.1641 35.2979 33.0201 35.9059 33.0201C36.2979 33.0201 36.6539 33.1041 36.9739 33.2721C37.3019 33.4401 37.5539 33.6721 37.7299 33.9681L37.1059 34.4241C36.8259 34.0081 36.4259 33.8001 35.9059 33.8001C35.6099 33.8001 35.3659 33.8681 35.1739 34.0041C34.9899 34.1401 34.8979 34.3161 34.8979 34.5321C34.8979 34.7481 34.9939 34.9321 35.1859 35.0841C35.3779 35.2281 35.7339 35.4001 36.2539 35.6001C36.8699 35.8321 37.3059 36.0881 37.5619 36.3681C37.8179 36.6401 37.9459 36.9881 37.9459 37.4121C37.9459 37.9721 37.7459 38.4201 37.3459 38.7561C36.9459 39.0921 36.4179 39.2601 35.7619 39.2601ZM40.5381 32.0961C40.3141 32.0961 40.1381 32.0361 40.0101 31.9161C39.8821 31.7961 39.8181 31.6321 39.8181 31.4241C39.8181 31.2161 39.8821 31.0521 40.0101 30.9321C40.1381 30.8041 40.3141 30.7401 40.5381 30.7401C40.7621 30.7401 40.9381 30.8041 41.0661 30.9321C41.2021 31.0521 41.2701 31.2161 41.2701 31.4241C41.2701 31.6321 41.2021 31.7961 41.0661 31.9161C40.9381 32.0361 40.7621 32.0961 40.5381 32.0961ZM40.0341 33.1401H41.0541V39.1401H40.0341V33.1401ZM48.4955 33.1401V38.9481C48.4955 39.9081 48.2595 40.6361 47.7875 41.1321C47.3155 41.6281 46.6235 41.8761 45.7115 41.8761C45.3115 41.8761 44.9195 41.8281 44.5355 41.7321C44.1595 41.6361 43.8195 41.5001 43.5155 41.3241L43.8515 40.5801C44.4515 40.8681 45.0595 41.0121 45.6755 41.0121C46.9235 41.0121 47.5475 40.2721 47.5475 38.7921V38.2401C47.3875 38.5441 47.1435 38.7841 46.8155 38.9601C46.4875 39.1361 46.1155 39.2241 45.6995 39.2241C44.9075 39.2241 44.2835 38.9401 43.8275 38.3721C43.3715 37.8041 43.1435 37.0281 43.1435 36.0441C43.1435 35.1001 43.3675 34.3601 43.8155 33.8241C44.2635 33.2881 44.8795 33.0201 45.6635 33.0201C46.0795 33.0201 46.4435 33.1041 46.7555 33.2721C47.0755 33.4401 47.3275 33.6841 47.5115 34.0041H47.5355L47.6555 33.1401H48.4955ZM47.4755 35.7441C47.4755 35.1361 47.3315 34.6601 47.0435 34.3161C46.7555 33.9721 46.3555 33.8001 45.8435 33.8001C45.3235 33.8001 44.9115 34.0041 44.6075 34.4121C44.3115 34.8121 44.1635 35.3641 44.1635 36.0681C44.1635 36.8041 44.3115 37.3801 44.6075 37.7961C44.9035 38.2041 45.3155 38.4081 45.8435 38.4081C46.3555 38.4081 46.7555 38.2561 47.0435 37.9521C47.3315 37.6401 47.4755 37.2081 47.4755 36.6561V35.7441ZM50.6677 34.6521C50.6677 33.8921 50.6517 33.3881 50.6197 33.1401H51.5677C51.5997 33.4041 51.6157 33.7601 51.6157 34.2081H51.6517C51.8277 33.8401 52.0957 33.5521 52.4557 33.3441C52.8237 33.1281 53.2317 33.0201 53.6797 33.0201C54.3837 33.0201 54.9117 33.2481 55.2637 33.7041C55.6157 34.1601 55.7917 34.8401 55.7917 35.7441V39.1401H54.7717V35.7321C54.7717 35.0921 54.6637 34.6161 54.4477 34.3041C54.2317 33.9921 53.9037 33.8361 53.4637 33.8361C53.1277 33.8361 52.8237 33.9241 52.5517 34.1001C52.2797 34.2681 52.0677 34.5081 51.9157 34.8201C51.7637 35.1241 51.6877 35.4681 51.6877 35.8521V39.1401H50.6677V34.6521ZM63.0376 36.5361H58.7176C58.7736 37.1441 58.9536 37.6081 59.2576 37.9281C59.5616 38.2401 59.9816 38.3961 60.5176 38.3961C61.2376 38.3961 61.8096 38.1121 62.2336 37.5441L62.8096 38.0961C62.5776 38.4641 62.2536 38.7521 61.8376 38.9601C61.4296 39.1601 60.9776 39.2601 60.4816 39.2601C59.5936 39.2601 58.9056 38.9881 58.4176 38.4441C57.9296 37.9001 57.6856 37.1361 57.6856 36.1521C57.6856 35.1761 57.9296 34.4121 58.4176 33.8601C58.9136 33.3001 59.5936 33.0201 60.4576 33.0201C61.2656 33.0201 61.8976 33.2961 62.3536 33.8481C62.8096 34.3921 63.0376 35.1561 63.0376 36.1401V36.5361ZM62.1016 35.6961C62.1016 35.1201 61.9496 34.6681 61.6456 34.3401C61.3496 34.0121 60.9376 33.8481 60.4096 33.8481C59.9136 33.8481 59.5176 34.0161 59.2216 34.3521C58.9336 34.6881 58.7656 35.1641 58.7176 35.7801H62.1016V35.6961ZM64.9885 34.6041C64.9885 33.9241 64.9765 33.4361 64.9525 33.1401H65.9005C65.9325 33.4601 65.9485 33.8121 65.9485 34.1961V34.3161H65.9845C66.1365 33.9001 66.3805 33.5801 66.7165 33.3561C67.0525 33.1321 67.4485 33.0201 67.9045 33.0201C68.0325 33.0201 68.1485 33.0321 68.2525 33.0561V33.8961C68.1485 33.8721 68.0085 33.8601 67.8325 33.8601C67.4965 33.8601 67.1885 33.9641 66.9085 34.1721C66.6285 34.3721 66.4085 34.6481 66.2485 35.0001C66.0885 35.3521 66.0085 35.7361 66.0085 36.1521V39.1401H64.9885V34.6041Z" fill="white"/>
<defs>
<clipPath id="clip0_2761_3428">
<rect width="20.5756" height="25.14" fill="white"/>
</clipPath>
</defs>
</svg>
