<svg width="220" height="604" viewBox="0 0 220 604" fill="none" xmlns="http://www.w3.org/2000/svg">
<path opacity="0.5" d="M219 110C219 170.199 170.199 219 110 219C49.8009 219 0.99997 170.199 0.999981 110C0.999991 49.801 49.801 1.00001 110 1.00002C170.199 1.00003 219 49.801 219 110Z" stroke="url(#paint0_linear_3152_2062)" stroke-width="2"/>
<path opacity="0.5" d="M219 302C219 362.199 170.199 411 110 411C49.8009 411 0.99997 362.199 0.999981 302C0.999991 241.801 49.801 193 110 193C170.199 193 219 241.801 219 302Z" stroke="url(#paint1_linear_3152_2062)" stroke-width="2"/>
<path opacity="0.5" d="M219 494C219 554.199 170.199 603 110 603C49.8009 603 0.99997 554.199 0.999981 494C0.999991 433.801 49.801 385 110 385C170.199 385 219 433.801 219 494Z" stroke="url(#paint2_linear_3152_2062)" stroke-width="2"/>
<path d="M74.0549 307.7H75.0999V321H74.0549V307.7ZM85.2791 315.376C85.2791 314.629 85.1145 314.046 84.7851 313.628C84.4558 313.21 83.9365 313.001 83.2271 313.001C82.7331 313.001 82.2898 313.121 81.8971 313.362C81.5171 313.59 81.2131 313.907 80.9851 314.312C80.7698 314.717 80.6621 315.173 80.6621 315.68V321H79.6741V312.26H80.6621V314.084C80.9028 313.451 81.2638 312.957 81.7451 312.602C82.2391 312.247 82.8091 312.07 83.4551 312.07C84.3671 312.07 85.0638 312.361 85.5451 312.944C86.0265 313.514 86.2671 314.287 86.2671 315.262V321H85.2791V315.376ZM96.3919 315.376C96.3919 314.629 96.2273 314.046 95.8979 313.628C95.5686 313.21 95.0493 313.001 94.3399 313.001C93.8459 313.001 93.4026 313.121 93.0099 313.362C92.6299 313.59 92.3259 313.907 92.0979 314.312C91.8826 314.717 91.7749 315.173 91.7749 315.68V321H90.7869V312.26H91.7749V314.084C92.0156 313.451 92.3766 312.957 92.8579 312.602C93.3519 312.247 93.9219 312.07 94.5679 312.07C95.4799 312.07 96.1766 312.361 96.6579 312.944C97.1393 313.514 97.3799 314.287 97.3799 315.262V321H96.3919V315.376ZM101.14 316.63C101.14 315.743 101.336 314.958 101.729 314.274C102.121 313.59 102.653 313.052 103.325 312.659C104.009 312.266 104.775 312.07 105.624 312.07C106.472 312.07 107.232 312.266 107.904 312.659C108.588 313.052 109.126 313.59 109.519 314.274C109.911 314.958 110.108 315.743 110.108 316.63C110.108 317.504 109.911 318.289 109.519 318.986C109.126 319.67 108.588 320.208 107.904 320.601C107.232 320.994 106.472 321.19 105.624 321.19C104.775 321.19 104.009 320.994 103.325 320.601C102.653 320.208 102.121 319.67 101.729 318.986C101.336 318.289 101.14 317.504 101.14 316.63ZM102.147 316.63C102.147 317.339 102.299 317.966 102.603 318.511C102.907 319.056 103.318 319.486 103.838 319.803C104.37 320.107 104.965 320.259 105.624 320.259C106.282 320.259 106.871 320.107 107.391 319.803C107.923 319.486 108.341 319.056 108.645 318.511C108.949 317.966 109.101 317.339 109.101 316.63C109.101 315.933 108.949 315.313 108.645 314.768C108.341 314.211 107.923 313.78 107.391 313.476C106.871 313.159 106.282 313.001 105.624 313.001C104.965 313.001 104.37 313.159 103.838 313.476C103.318 313.78 102.907 314.204 102.603 314.749C102.299 315.294 102.147 315.921 102.147 316.63ZM112.163 312.26H113.284L116.191 319.385L119.098 312.26H120.219L116.191 321.513L112.163 312.26ZM123.461 318.378C123.461 318.809 123.556 319.17 123.746 319.461C123.948 319.752 124.214 319.974 124.544 320.126C124.886 320.265 125.259 320.335 125.665 320.335C126.159 320.335 126.608 320.221 127.014 319.993C127.432 319.765 127.767 319.429 128.021 318.986C128.274 318.543 128.401 317.998 128.401 317.352L128.629 318.188C128.629 318.872 128.464 319.436 128.135 319.879C127.805 320.322 127.394 320.652 126.9 320.867C126.406 321.082 125.905 321.19 125.399 321.19C124.905 321.19 124.43 321.089 123.974 320.886C123.518 320.671 123.15 320.36 122.872 319.955C122.593 319.55 122.454 319.037 122.454 318.416C122.454 317.567 122.745 316.896 123.328 316.402C123.923 315.908 124.727 315.661 125.741 315.661C126.311 315.661 126.798 315.731 127.204 315.87C127.622 315.997 127.964 316.142 128.23 316.307C128.496 316.472 128.686 316.611 128.8 316.725V317.352C128.369 317.048 127.907 316.826 127.413 316.687C126.931 316.535 126.425 316.459 125.893 316.459C125.399 316.459 124.968 316.529 124.601 316.668C124.246 316.807 123.967 317.016 123.765 317.295C123.562 317.574 123.461 317.935 123.461 318.378ZM123.499 313.856L123.005 313.115C123.334 312.887 123.758 312.659 124.278 312.431C124.81 312.19 125.462 312.07 126.235 312.07C126.893 312.07 127.457 312.178 127.926 312.393C128.394 312.608 128.755 312.919 129.009 313.324C129.262 313.729 129.389 314.223 129.389 314.806V321H128.401V314.939C128.401 314.686 128.363 314.445 128.287 314.217C128.211 313.976 128.084 313.761 127.907 313.571C127.742 313.381 127.514 313.229 127.223 313.115C126.931 313.001 126.577 312.944 126.159 312.944C125.728 312.944 125.342 312.995 125 313.096C124.658 313.197 124.36 313.318 124.107 313.457C123.866 313.596 123.663 313.729 123.499 313.856ZM132.294 312.26H136.132V313.191H132.294V312.26ZM133.719 309.22H134.707V321H133.719V309.22ZM142.606 321.19C141.82 321.19 141.124 320.994 140.516 320.601C139.908 320.208 139.426 319.67 139.072 318.986C138.73 318.289 138.559 317.498 138.559 316.611C138.559 315.724 138.736 314.939 139.091 314.255C139.445 313.571 139.939 313.039 140.573 312.659C141.206 312.266 141.934 312.07 142.758 312.07C143.556 312.07 144.252 312.254 144.848 312.621C145.456 312.988 145.924 313.501 146.254 314.16C146.596 314.806 146.767 315.553 146.767 316.402C146.767 316.478 146.76 316.56 146.748 316.649C146.748 316.738 146.741 316.814 146.729 316.877H139.186V316.022H145.988L145.57 316.611C145.595 316.548 145.62 316.465 145.646 316.364C145.684 316.25 145.703 316.142 145.703 316.041C145.703 315.446 145.57 314.914 145.304 314.445C145.05 313.976 144.702 313.609 144.259 313.343C143.815 313.077 143.315 312.944 142.758 312.944C142.112 312.944 141.548 313.096 141.067 313.4C140.598 313.691 140.231 314.109 139.965 314.654C139.699 315.186 139.566 315.819 139.566 316.554C139.566 317.301 139.692 317.954 139.946 318.511C140.212 319.068 140.579 319.499 141.048 319.803C141.529 320.107 142.086 320.259 142.72 320.259C143.391 320.259 143.974 320.113 144.468 319.822C144.974 319.531 145.424 319.075 145.817 318.454L146.615 318.967C146.121 319.727 145.544 320.291 144.886 320.658C144.24 321.013 143.48 321.19 142.606 321.19Z" fill="#141414"/>
<path d="M98.624 342.592H94.624V343.44H98.624V342.592ZM94.56 345.264H98.624V344.368H94.608C94.592 344.656 94.576 344.96 94.56 345.264ZM99.04 348.016H95.6V349.456H99.04V348.016ZM99.968 346.336H94.464C94.432 346.544 94.4 346.752 94.368 346.96H100.352V351.136H99.04V350.592H95.6V351.168H94.336V347.152C94.112 348.384 93.744 349.632 93.12 350.656C92.848 350.448 92.208 350.16 91.84 350.032C93.088 348.064 93.232 345.344 93.232 343.536V341.52H99.968V346.336ZM96.448 336.64L97.808 337.152C97.728 337.296 97.632 337.424 97.536 337.568C98.752 338.288 100.16 339.152 100.912 339.728L100.144 340.976C99.376 340.352 97.936 339.408 96.704 338.624C96.288 339.072 95.84 339.504 95.36 339.904H98.416V340.832H95.104V340.128C94.336 340.752 93.488 341.296 92.656 341.744C92.512 341.408 92.112 340.672 91.856 340.352C93.664 339.52 95.456 338.192 96.448 336.64ZM102.944 338.288V347.088H101.552V338.288H102.944ZM104.48 336.64H105.92V349.392C105.92 350.256 105.728 350.688 105.216 350.912C104.72 351.168 103.888 351.216 102.592 351.216C102.528 350.816 102.32 350.144 102.112 349.728C103.024 349.76 103.856 349.76 104.112 349.744C104.384 349.744 104.48 349.664 104.48 349.376V336.64ZM120.768 338.208V339.44H113.728V338.208H116.656C116.48 337.76 116.272 337.248 116.08 336.848L117.552 336.464C117.824 337.008 118.144 337.68 118.352 338.208H120.768ZM114.848 346.432L116.016 346.784C115.616 347.904 114.976 349.184 114.4 350C114.16 349.808 113.68 349.456 113.376 349.296C113.968 348.544 114.512 347.456 114.848 346.432ZM120.8 345.744H118.08V351.168H116.64V345.744H113.568V344.48H116.64V343.024H113.472V341.776H115.216C115.152 341.232 114.928 340.4 114.656 339.776L115.872 339.472C116.128 340.096 116.384 340.912 116.464 341.44L115.28 341.776H117.808C118.096 341.104 118.432 340.128 118.592 339.456L119.968 339.744C119.696 340.448 119.424 341.184 119.152 341.776H121.024V343.024H118.08V344.48H120.8V345.744ZM118.64 346.848L119.632 346.304C120.16 347.056 120.704 348.064 120.96 348.704L119.92 349.328C119.664 348.656 119.12 347.616 118.64 346.848ZM128.048 341.888V343.264H126.416V351.184H124.96V343.264H123.088V343.648C123.088 345.952 122.88 349.152 121.456 351.184C121.232 350.912 120.624 350.464 120.32 350.304C121.584 348.448 121.696 345.744 121.696 343.648V338.112C123.472 337.808 125.44 337.312 126.592 336.816L127.76 337.904C126.448 338.416 124.72 338.8 123.088 339.088V341.888H128.048Z" fill="#141414"/>
<path d="M66.9252 125.162C67.1406 125.719 67.4002 126.226 67.7042 126.682C68.0209 127.138 68.4072 127.505 68.8632 127.784C69.3192 128.05 69.8639 128.183 70.4972 128.183C71.3586 128.183 72.0299 127.949 72.5112 127.48C73.0052 126.999 73.2522 126.391 73.2522 125.656C73.2522 125.01 73.1066 124.491 72.8152 124.098C72.5239 123.705 72.1439 123.389 71.6752 123.148C71.2192 122.895 70.7379 122.673 70.2312 122.483C69.8512 122.344 69.4522 122.179 69.0342 121.989C68.6289 121.786 68.2489 121.546 67.8942 121.267C67.5396 120.976 67.2482 120.627 67.0202 120.222C66.8049 119.817 66.6972 119.329 66.6972 118.759C66.6972 118.126 66.8492 117.568 67.1532 117.087C67.4572 116.593 67.8816 116.213 68.4262 115.947C68.9709 115.668 69.5852 115.529 70.2692 115.529C70.9786 115.529 71.5866 115.662 72.0932 115.928C72.6126 116.194 73.0432 116.53 73.3852 116.935C73.7272 117.34 73.9869 117.758 74.1642 118.189L73.2522 118.702C73.1129 118.36 72.9102 118.024 72.6442 117.695C72.3909 117.366 72.0679 117.093 71.6752 116.878C71.2826 116.65 70.7949 116.536 70.2122 116.536C69.4396 116.536 68.8442 116.739 68.4262 117.144C68.0082 117.537 67.7992 118.031 67.7992 118.626C67.7992 119.12 67.9196 119.544 68.1602 119.899C68.4009 120.254 68.7619 120.577 69.2432 120.868C69.7246 121.147 70.3199 121.413 71.0292 121.666C71.3966 121.805 71.7766 121.976 72.1692 122.179C72.5619 122.382 72.9166 122.635 73.2332 122.939C73.5626 123.243 73.8286 123.61 74.0312 124.041C74.2339 124.459 74.3352 124.959 74.3352 125.542C74.3352 126.087 74.2339 126.581 74.0312 127.024C73.8412 127.467 73.5689 127.854 73.2142 128.183C72.8722 128.5 72.4669 128.747 71.9982 128.924C71.5296 129.089 71.0229 129.171 70.4782 129.171C69.7056 129.171 69.0279 129.013 68.4452 128.696C67.8626 128.379 67.3749 127.955 66.9822 127.423C66.5896 126.891 66.2856 126.315 66.0702 125.694L66.9252 125.162ZM76.8891 120.26H80.7271V121.191H76.8891V120.26ZM78.3141 117.22H79.3021V129H78.3141V117.22ZM84.9019 120.26V129H83.9139V120.26H84.9019ZM87.8089 121.419C87.6189 121.28 87.4352 121.178 87.2579 121.115C87.0932 121.039 86.8969 121.001 86.6689 121.001C86.2382 121.001 85.8899 121.121 85.6239 121.362C85.3706 121.603 85.1869 121.926 85.0729 122.331C84.9589 122.736 84.9019 123.186 84.9019 123.68H84.4459C84.4459 122.983 84.5536 122.369 84.7689 121.837C84.9842 121.292 85.2756 120.862 85.6429 120.545C86.0229 120.228 86.4409 120.07 86.8969 120.07C87.1756 120.07 87.4352 120.114 87.6759 120.203C87.9292 120.279 88.1572 120.412 88.3599 120.602L87.8089 121.419ZM91.7089 126.378C91.7089 126.809 91.8039 127.17 91.9939 127.461C92.1966 127.752 92.4626 127.974 92.7919 128.126C93.1339 128.265 93.5076 128.335 93.9129 128.335C94.4069 128.335 94.8566 128.221 95.2619 127.993C95.6799 127.765 96.0156 127.429 96.2689 126.986C96.5223 126.543 96.6489 125.998 96.6489 125.352L96.8769 126.188C96.8769 126.872 96.7123 127.436 96.3829 127.879C96.0536 128.322 95.6419 128.652 95.1479 128.867C94.6539 129.082 94.1536 129.19 93.6469 129.19C93.1529 129.19 92.6779 129.089 92.2219 128.886C91.7659 128.671 91.3986 128.36 91.1199 127.955C90.8413 127.55 90.7019 127.037 90.7019 126.416C90.7019 125.567 90.9933 124.896 91.5759 124.402C92.1713 123.908 92.9756 123.661 93.9889 123.661C94.5589 123.661 95.0466 123.731 95.4519 123.87C95.8699 123.997 96.2119 124.142 96.4779 124.307C96.7439 124.472 96.9339 124.611 97.0479 124.725V125.352C96.6173 125.048 96.1549 124.826 95.6609 124.687C95.1796 124.535 94.6729 124.459 94.1409 124.459C93.6469 124.459 93.2163 124.529 92.8489 124.668C92.4943 124.807 92.2156 125.016 92.0129 125.295C91.8103 125.574 91.7089 125.935 91.7089 126.378ZM91.7469 121.856L91.2529 121.115C91.5823 120.887 92.0066 120.659 92.5259 120.431C93.0579 120.19 93.7103 120.07 94.4829 120.07C95.1416 120.07 95.7053 120.178 96.1739 120.393C96.6426 120.608 97.0036 120.919 97.2569 121.324C97.5103 121.729 97.6369 122.223 97.6369 122.806V129H96.6489V122.939C96.6489 122.686 96.6109 122.445 96.5349 122.217C96.4589 121.976 96.3323 121.761 96.1549 121.571C95.9903 121.381 95.7623 121.229 95.4709 121.115C95.1796 121.001 94.8249 120.944 94.4069 120.944C93.9763 120.944 93.5899 120.995 93.2479 121.096C92.9059 121.197 92.6083 121.318 92.3549 121.457C92.1143 121.596 91.9116 121.729 91.7469 121.856ZM100.542 120.26H104.38V121.191H100.542V120.26ZM101.967 117.22H102.955V129H101.967V117.22ZM110.854 129.19C110.068 129.19 109.372 128.994 108.764 128.601C108.156 128.208 107.674 127.67 107.32 126.986C106.978 126.289 106.807 125.498 106.807 124.611C106.807 123.724 106.984 122.939 107.339 122.255C107.693 121.571 108.187 121.039 108.821 120.659C109.454 120.266 110.182 120.07 111.006 120.07C111.804 120.07 112.5 120.254 113.096 120.621C113.704 120.988 114.172 121.501 114.502 122.16C114.844 122.806 115.015 123.553 115.015 124.402C115.015 124.478 115.008 124.56 114.996 124.649C114.996 124.738 114.989 124.814 114.977 124.877H107.434V124.022H114.236L113.818 124.611C113.843 124.548 113.868 124.465 113.894 124.364C113.932 124.25 113.951 124.142 113.951 124.041C113.951 123.446 113.818 122.914 113.552 122.445C113.298 121.976 112.95 121.609 112.507 121.343C112.063 121.077 111.563 120.944 111.006 120.944C110.36 120.944 109.796 121.096 109.315 121.4C108.846 121.691 108.479 122.109 108.213 122.654C107.947 123.186 107.814 123.819 107.814 124.554C107.814 125.301 107.94 125.954 108.194 126.511C108.46 127.068 108.827 127.499 109.296 127.803C109.777 128.107 110.334 128.259 110.968 128.259C111.639 128.259 112.222 128.113 112.716 127.822C113.222 127.531 113.672 127.075 114.065 126.454L114.863 126.967C114.369 127.727 113.792 128.291 113.134 128.658C112.488 129.013 111.728 129.19 110.854 129.19ZM118.221 129.57H119.228C119.228 130.115 119.355 130.602 119.608 131.033C119.862 131.464 120.216 131.806 120.672 132.059C121.141 132.312 121.679 132.439 122.287 132.439C122.832 132.439 123.345 132.312 123.826 132.059C124.308 131.806 124.7 131.407 125.004 130.862C125.321 130.33 125.479 129.646 125.479 128.81V120.26H126.467V128.81C126.467 129.811 126.271 130.647 125.878 131.318C125.486 132.002 124.973 132.515 124.339 132.857C123.706 133.199 123.022 133.37 122.287 133.37C121.489 133.37 120.78 133.212 120.159 132.895C119.551 132.578 119.076 132.129 118.734 131.546C118.392 130.976 118.221 130.317 118.221 129.57ZM118.012 124.63C118.012 123.68 118.202 122.869 118.582 122.198C118.962 121.514 119.469 120.988 120.102 120.621C120.748 120.254 121.458 120.07 122.23 120.07C122.99 120.07 123.643 120.273 124.187 120.678C124.732 121.071 125.156 121.609 125.46 122.293C125.777 122.977 125.935 123.756 125.935 124.63C125.935 125.491 125.777 126.27 125.46 126.967C125.156 127.651 124.732 128.196 124.187 128.601C123.643 128.994 122.99 129.19 122.23 129.19C121.458 129.19 120.748 129.006 120.102 128.639C119.469 128.272 118.962 127.746 118.582 127.062C118.202 126.378 118.012 125.567 118.012 124.63ZM119.019 124.63C119.019 125.39 119.165 126.042 119.456 126.587C119.76 127.132 120.166 127.55 120.672 127.841C121.192 128.12 121.755 128.259 122.363 128.259C122.908 128.259 123.415 128.101 123.883 127.784C124.365 127.467 124.751 127.037 125.042 126.492C125.334 125.935 125.479 125.301 125.479 124.592C125.479 124.085 125.397 123.617 125.232 123.186C125.068 122.755 124.833 122.375 124.529 122.046C124.238 121.717 123.902 121.463 123.522 121.286C123.155 121.096 122.769 121.001 122.363 121.001C121.755 121.001 121.192 121.147 120.672 121.438C120.166 121.717 119.76 122.128 119.456 122.673C119.165 123.218 119.019 123.87 119.019 124.63ZM130.887 116.308C130.887 116.105 130.957 115.941 131.096 115.814C131.235 115.675 131.4 115.605 131.59 115.605C131.793 115.605 131.957 115.675 132.084 115.814C132.223 115.941 132.293 116.105 132.293 116.308C132.293 116.498 132.223 116.663 132.084 116.802C131.957 116.941 131.793 117.011 131.59 117.011C131.4 117.011 131.235 116.941 131.096 116.802C130.957 116.663 130.887 116.498 130.887 116.308ZM131.096 120.26H132.084V129H131.096V120.26ZM141.63 121.191H136.139V120.26H143.435L137.45 128.069H143.283V129H135.645L141.63 121.191ZM149.868 129.19C149.083 129.19 148.386 128.994 147.778 128.601C147.17 128.208 146.689 127.67 146.334 126.986C145.992 126.289 145.821 125.498 145.821 124.611C145.821 123.724 145.999 122.939 146.353 122.255C146.708 121.571 147.202 121.039 147.835 120.659C148.469 120.266 149.197 120.07 150.02 120.07C150.818 120.07 151.515 120.254 152.11 120.621C152.718 120.988 153.187 121.501 153.516 122.16C153.858 122.806 154.029 123.553 154.029 124.402C154.029 124.478 154.023 124.56 154.01 124.649C154.01 124.738 154.004 124.814 153.991 124.877H146.448V124.022H153.25L152.832 124.611C152.858 124.548 152.883 124.465 152.908 124.364C152.946 124.25 152.965 124.142 152.965 124.041C152.965 123.446 152.832 122.914 152.566 122.445C152.313 121.976 151.965 121.609 151.521 121.343C151.078 121.077 150.578 120.944 150.02 120.944C149.374 120.944 148.811 121.096 148.329 121.4C147.861 121.691 147.493 122.109 147.227 122.654C146.961 123.186 146.828 123.819 146.828 124.554C146.828 125.301 146.955 125.954 147.208 126.511C147.474 127.068 147.842 127.499 148.31 127.803C148.792 128.107 149.349 128.259 149.982 128.259C150.654 128.259 151.236 128.113 151.73 127.822C152.237 127.531 152.687 127.075 153.079 126.454L153.877 126.967C153.383 127.727 152.807 128.291 152.148 128.658C151.502 129.013 150.742 129.19 149.868 129.19Z" fill="#141414"/>
<path d="M95.824 146.8H94.656C94.144 147.6 93.584 148.32 93.024 148.864C92.816 148.624 92.304 148.112 92.016 147.888C92.96 147.04 93.856 145.744 94.352 144.448L95.68 144.832C95.568 145.104 95.456 145.36 95.312 145.632H99.136V146.8H96.448C96.928 147.216 97.44 147.728 97.728 148.064L96.768 148.912C96.448 148.48 95.76 147.792 95.232 147.296L95.824 146.8ZM100.192 152.736V154.192C101.488 155.504 103.936 156.848 106.736 157.392C106.432 157.712 106 158.32 105.792 158.704C103.52 158.128 101.536 156.944 100.192 155.76V159.248H98.608V155.712C97.088 157.12 95.04 158.208 92.944 158.784C92.752 158.416 92.32 157.84 92.016 157.536C94.64 156.96 97.216 155.648 98.608 154V152.736H95.056V155.68H93.488V151.472H98.608V150.432H92.416V149.136H98.608V148.192H99.904C99.632 147.952 99.184 147.6 98.912 147.424C99.776 146.704 100.512 145.6 100.896 144.448L102.256 144.784C102.16 145.072 102.032 145.344 101.92 145.632H106.512V146.8H103.376C103.888 147.184 104.448 147.68 104.768 148.032L103.76 148.912C103.408 148.48 102.704 147.824 102.128 147.36L102.816 146.8H101.264C100.912 147.328 100.528 147.808 100.128 148.192H100.192V149.136H106.128V150.432H100.192V151.472H105.264V154.288C105.264 154.96 105.12 155.264 104.656 155.456C104.16 155.648 103.488 155.664 102.608 155.664C102.512 155.28 102.272 154.816 102.096 154.48C102.688 154.512 103.328 154.512 103.488 154.496C103.68 154.496 103.744 154.448 103.744 154.288V152.736H100.192ZM121.312 153.424H126.272C125.376 152.928 124.544 152.32 123.824 151.664C123.04 152.336 122.192 152.928 121.312 153.424ZM121.792 157.376H125.712V154.736H121.792V157.376ZM119.328 149.456V152.848C120.56 152.336 121.776 151.6 122.848 150.688C122.272 150.048 121.776 149.376 121.376 148.736C120.944 149.264 120.464 149.728 120 150.128C119.856 149.952 119.584 149.696 119.328 149.456ZM117.088 154.752H118.16V151.216H117.088V154.752ZM115.088 151.216V154.752H116.128V151.216H115.088ZM116.128 146.8H115.088V149.968H116.128V146.8ZM118.16 149.968V146.8H117.088V149.968H118.16ZM125.488 147.456H122.352L122.208 147.664C122.608 148.352 123.152 149.088 123.808 149.76C124.48 149.056 125.056 148.288 125.488 147.456ZM126.464 146.144L127.424 146.624C126.832 148.192 125.92 149.552 124.816 150.704C125.84 151.552 127.072 152.288 128.448 152.752C128.144 153.024 127.696 153.616 127.488 154C127.376 153.952 127.264 153.904 127.152 153.856V159.184H125.712V158.688H121.792V159.2H120.384V153.904C120.192 154 119.984 154.096 119.792 154.176C119.68 153.968 119.504 153.712 119.328 153.488V156.032H115.088V157.408H113.968V145.504H119.328V148.736C120.576 147.68 121.68 146.144 122.32 144.528L123.712 144.928C123.536 145.36 123.328 145.792 123.104 146.208H126.208L126.464 146.144Z" fill="#141414"/>
<path d="M50.7803 506.35C50.7803 507.477 51.021 508.472 51.5023 509.333C51.9837 510.194 52.6297 510.872 53.4403 511.366C54.251 511.86 55.1567 512.107 56.1573 512.107C56.7907 512.107 57.367 512.037 57.8863 511.898C58.4057 511.759 58.8743 511.55 59.2923 511.271C59.723 510.992 60.103 510.663 60.4323 510.283V511.689C59.875 512.183 59.267 512.557 58.6083 512.81C57.9497 513.051 57.1327 513.171 56.1573 513.171C55.2327 513.171 54.3713 513.006 53.5733 512.677C52.788 512.335 52.104 511.86 51.5213 511.252C50.9387 510.644 50.4827 509.922 50.1533 509.086C49.824 508.25 49.6593 507.338 49.6593 506.35C49.6593 505.362 49.824 504.45 50.1533 503.614C50.4827 502.778 50.9387 502.056 51.5213 501.448C52.104 500.84 52.788 500.371 53.5733 500.042C54.3713 499.7 55.2327 499.529 56.1573 499.529C57.1327 499.529 57.9497 499.656 58.6083 499.909C59.267 500.15 59.875 500.517 60.4323 501.011V502.398C60.103 502.018 59.723 501.695 59.2923 501.429C58.8617 501.15 58.3867 500.941 57.8673 500.802C57.348 500.663 56.778 500.593 56.1573 500.593C55.1567 500.593 54.251 500.84 53.4403 501.334C52.6297 501.815 51.9837 502.487 51.5023 503.348C51.021 504.209 50.7803 505.21 50.7803 506.35ZM64.0912 508.63C64.0912 507.743 64.2875 506.958 64.6802 506.274C65.0728 505.59 65.6048 505.052 66.2762 504.659C66.9602 504.266 67.7265 504.07 68.5752 504.07C69.4238 504.07 70.1838 504.266 70.8552 504.659C71.5392 505.052 72.0775 505.59 72.4702 506.274C72.8628 506.958 73.0592 507.743 73.0592 508.63C73.0592 509.504 72.8628 510.289 72.4702 510.986C72.0775 511.67 71.5392 512.208 70.8552 512.601C70.1838 512.994 69.4238 513.19 68.5752 513.19C67.7265 513.19 66.9602 512.994 66.2762 512.601C65.6048 512.208 65.0728 511.67 64.6802 510.986C64.2875 510.289 64.0912 509.504 64.0912 508.63ZM65.0982 508.63C65.0982 509.339 65.2502 509.966 65.5542 510.511C65.8582 511.056 66.2698 511.486 66.7892 511.803C67.3212 512.107 67.9165 512.259 68.5752 512.259C69.2338 512.259 69.8228 512.107 70.3422 511.803C70.8742 511.486 71.2922 511.056 71.5962 510.511C71.9002 509.966 72.0522 509.339 72.0522 508.63C72.0522 507.933 71.9002 507.313 71.5962 506.768C71.2922 506.211 70.8742 505.78 70.3422 505.476C69.8228 505.159 69.2338 505.001 68.5752 505.001C67.9165 505.001 67.3212 505.159 66.7892 505.476C66.2698 505.78 65.8582 506.204 65.5542 506.749C65.2502 507.294 65.0982 507.921 65.0982 508.63ZM87.9515 507.262V513H86.9635V507.376C86.9635 506.616 86.8178 506.033 86.5265 505.628C86.2351 505.21 85.7855 505.001 85.1775 505.001C84.7468 505.001 84.3541 505.115 83.9995 505.343C83.6575 505.571 83.3851 505.888 83.1825 506.293C82.9798 506.698 82.8785 507.161 82.8785 507.68V513H81.8905V507.376C81.8905 506.616 81.7448 506.033 81.4535 505.628C81.1621 505.21 80.7125 505.001 80.1045 505.001C79.6738 505.001 79.2811 505.115 78.9265 505.343C78.5845 505.571 78.3121 505.888 78.1095 506.293C77.9068 506.698 77.8055 507.161 77.8055 507.68V513H76.8175V504.26H77.8055V506.027C78.0335 505.406 78.3691 504.925 78.8125 504.583C79.2558 504.241 79.7625 504.07 80.3325 504.07C80.9658 504.07 81.4851 504.254 81.8905 504.621C82.2958 504.976 82.5681 505.463 82.7075 506.084C82.9608 505.451 83.3281 504.957 83.8095 504.602C84.2908 504.247 84.8228 504.07 85.4055 504.07C85.9501 504.07 86.4125 504.197 86.7925 504.45C87.1725 504.703 87.4575 505.071 87.6475 505.552C87.8501 506.033 87.9515 506.603 87.9515 507.262ZM103.61 507.262V513H102.622V507.376C102.622 506.616 102.476 506.033 102.185 505.628C101.894 505.21 101.444 505.001 100.836 505.001C100.405 505.001 100.013 505.115 99.6581 505.343C99.3161 505.571 99.0438 505.888 98.8411 506.293C98.6385 506.698 98.5371 507.161 98.5371 507.68V513H97.5491V507.376C97.5491 506.616 97.4035 506.033 97.1121 505.628C96.8208 505.21 96.3711 505.001 95.7631 505.001C95.3325 505.001 94.9398 505.115 94.5851 505.343C94.2431 505.571 93.9708 505.888 93.7681 506.293C93.5655 506.698 93.4641 507.161 93.4641 507.68V513H92.4761V504.26H93.4641V506.027C93.6921 505.406 94.0278 504.925 94.4711 504.583C94.9145 504.241 95.4211 504.07 95.9911 504.07C96.6245 504.07 97.1438 504.254 97.5491 504.621C97.9545 504.976 98.2268 505.463 98.3661 506.084C98.6195 505.451 98.9868 504.957 99.4681 504.602C99.9495 504.247 100.481 504.07 101.064 504.07C101.609 504.07 102.071 504.197 102.451 504.45C102.831 504.703 103.116 505.071 103.306 505.552C103.509 506.033 103.61 506.603 103.61 507.262ZM109.123 509.808C109.123 510.568 109.287 511.17 109.617 511.613C109.946 512.044 110.465 512.259 111.175 512.259C111.669 512.259 112.106 512.139 112.486 511.898C112.878 511.657 113.182 511.334 113.398 510.929C113.626 510.524 113.74 510.074 113.74 509.58V504.26H114.728V513H113.74V511.176C113.499 511.809 113.138 512.303 112.657 512.658C112.175 513.013 111.605 513.19 110.947 513.19C110.035 513.19 109.338 512.899 108.857 512.316C108.375 511.721 108.135 510.923 108.135 509.922V504.26H109.123V509.808ZM124.853 507.376C124.853 506.629 124.688 506.046 124.359 505.628C124.029 505.21 123.51 505.001 122.801 505.001C122.307 505.001 121.863 505.121 121.471 505.362C121.091 505.59 120.787 505.907 120.559 506.312C120.343 506.717 120.236 507.173 120.236 507.68V513H119.248V504.26H120.236V506.084C120.476 505.451 120.837 504.957 121.319 504.602C121.813 504.247 122.383 504.07 123.029 504.07C123.941 504.07 124.637 504.361 125.119 504.944C125.6 505.514 125.841 506.287 125.841 507.262V513H124.853V507.376ZM130.36 500.308C130.36 500.105 130.43 499.941 130.569 499.814C130.709 499.675 130.873 499.605 131.063 499.605C131.266 499.605 131.431 499.675 131.557 499.814C131.697 499.941 131.766 500.105 131.766 500.308C131.766 500.498 131.697 500.663 131.557 500.802C131.431 500.941 131.266 501.011 131.063 501.011C130.873 501.011 130.709 500.941 130.569 500.802C130.43 500.663 130.36 500.498 130.36 500.308ZM130.569 504.26H131.557V513H130.569V504.26ZM136.448 508.63C136.448 509.339 136.6 509.966 136.904 510.511C137.208 511.056 137.62 511.486 138.139 511.803C138.671 512.107 139.267 512.259 139.925 512.259C140.394 512.259 140.831 512.189 141.236 512.05C141.642 511.911 141.99 511.733 142.281 511.518C142.585 511.29 142.801 511.062 142.927 510.834V512.069C142.661 512.386 142.25 512.652 141.692 512.867C141.148 513.082 140.559 513.19 139.925 513.19C139.077 513.19 138.317 512.994 137.645 512.601C136.974 512.208 136.436 511.67 136.03 510.986C135.638 510.289 135.441 509.504 135.441 508.63C135.441 507.743 135.638 506.958 136.03 506.274C136.436 505.59 136.974 505.052 137.645 504.659C138.317 504.266 139.077 504.07 139.925 504.07C140.559 504.07 141.148 504.184 141.692 504.412C142.25 504.627 142.661 504.887 142.927 505.191V506.426C142.801 506.185 142.585 505.957 142.281 505.742C141.99 505.527 141.642 505.349 141.236 505.21C140.831 505.071 140.394 505.001 139.925 505.001C139.267 505.001 138.671 505.159 138.139 505.476C137.62 505.78 137.208 506.204 136.904 506.749C136.6 507.294 136.448 507.921 136.448 508.63ZM147.134 510.378C147.134 510.809 147.229 511.17 147.419 511.461C147.622 511.752 147.888 511.974 148.217 512.126C148.559 512.265 148.933 512.335 149.338 512.335C149.832 512.335 150.282 512.221 150.687 511.993C151.105 511.765 151.441 511.429 151.694 510.986C151.948 510.543 152.074 509.998 152.074 509.352L152.302 510.188C152.302 510.872 152.138 511.436 151.808 511.879C151.479 512.322 151.067 512.652 150.573 512.867C150.079 513.082 149.579 513.19 149.072 513.19C148.578 513.19 148.103 513.089 147.647 512.886C147.191 512.671 146.824 512.36 146.545 511.955C146.267 511.55 146.127 511.037 146.127 510.416C146.127 509.567 146.419 508.896 147.001 508.402C147.597 507.908 148.401 507.661 149.414 507.661C149.984 507.661 150.472 507.731 150.877 507.87C151.295 507.997 151.637 508.142 151.903 508.307C152.169 508.472 152.359 508.611 152.473 508.725V509.352C152.043 509.048 151.58 508.826 151.086 508.687C150.605 508.535 150.098 508.459 149.566 508.459C149.072 508.459 148.642 508.529 148.274 508.668C147.92 508.807 147.641 509.016 147.438 509.295C147.236 509.574 147.134 509.935 147.134 510.378ZM147.172 505.856L146.678 505.115C147.008 504.887 147.432 504.659 147.951 504.431C148.483 504.19 149.136 504.07 149.908 504.07C150.567 504.07 151.131 504.178 151.599 504.393C152.068 504.608 152.429 504.919 152.682 505.324C152.936 505.729 153.062 506.223 153.062 506.806V513H152.074V506.939C152.074 506.686 152.036 506.445 151.96 506.217C151.884 505.976 151.758 505.761 151.58 505.571C151.416 505.381 151.188 505.229 150.896 505.115C150.605 505.001 150.25 504.944 149.832 504.944C149.402 504.944 149.015 504.995 148.673 505.096C148.331 505.197 148.034 505.318 147.78 505.457C147.54 505.596 147.337 505.729 147.172 505.856ZM155.967 504.26H159.805V505.191H155.967V504.26ZM157.392 501.22H158.38V513H157.392V501.22ZM166.279 513.19C165.494 513.19 164.797 512.994 164.189 512.601C163.581 512.208 163.1 511.67 162.745 510.986C162.403 510.289 162.232 509.498 162.232 508.611C162.232 507.724 162.409 506.939 162.764 506.255C163.119 505.571 163.613 505.039 164.246 504.659C164.879 504.266 165.608 504.07 166.431 504.07C167.229 504.07 167.926 504.254 168.521 504.621C169.129 504.988 169.598 505.501 169.927 506.16C170.269 506.806 170.44 507.553 170.44 508.402C170.44 508.478 170.434 508.56 170.421 508.649C170.421 508.738 170.415 508.814 170.402 508.877H162.859V508.022H169.661L169.243 508.611C169.268 508.548 169.294 508.465 169.319 508.364C169.357 508.25 169.376 508.142 169.376 508.041C169.376 507.446 169.243 506.914 168.977 506.445C168.724 505.976 168.375 505.609 167.932 505.343C167.489 505.077 166.988 504.944 166.431 504.944C165.785 504.944 165.221 505.096 164.74 505.4C164.271 505.691 163.904 506.109 163.638 506.654C163.372 507.186 163.239 507.819 163.239 508.554C163.239 509.301 163.366 509.954 163.619 510.511C163.885 511.068 164.252 511.499 164.721 511.803C165.202 512.107 165.76 512.259 166.393 512.259C167.064 512.259 167.647 512.113 168.141 511.822C168.648 511.531 169.097 511.075 169.49 510.454L170.288 510.967C169.794 511.727 169.218 512.291 168.559 512.658C167.913 513.013 167.153 513.19 166.279 513.19Z" fill="#141414"/>
<path d="M96.304 530.32L95.424 531.536C94.88 530.992 93.696 530.24 92.736 529.792L93.568 528.688C94.512 529.088 95.728 529.76 96.304 530.32ZM95.504 534.432L94.64 535.664C94.08 535.136 92.896 534.432 91.92 534.016L92.736 532.896C93.696 533.264 94.896 533.904 95.504 534.432ZM94.928 537.04L96.096 537.936C95.376 539.632 94.464 541.552 93.664 543.056L92.336 542.176C93.072 540.944 94.144 538.88 94.928 537.04ZM101.936 539.568H104.096V538.592H101.936V539.568ZM98.576 538.592V539.568H100.528V538.592H98.576ZM100.528 536.64H98.576V537.568H100.528V536.64ZM104.096 536.64H101.936V537.568H104.096V536.64ZM100.08 532.72V533.6H102.448V532.72H100.08ZM100.08 530.816V531.664H102.448V530.816H100.08ZM106.656 539.568V540.752H105.52V541.824C105.52 542.496 105.344 542.832 104.864 543.04C104.368 543.232 103.6 543.232 102.48 543.232C102.384 542.88 102.16 542.384 102 542.064C102.768 542.096 103.568 542.096 103.776 542.08C104.016 542.064 104.096 542.016 104.096 541.808V540.752H98.576V543.216H97.184V540.752H95.824V539.568H97.184V535.552H100.528V534.8H95.968V533.6H98.656V532.72H96.928V531.664H98.656V530.816H96.576V529.728H98.656V528.56H100.08V529.728H102.448V528.56H103.872V529.728H106.112V530.816H103.872V531.664H105.84V532.72H103.872V533.6H106.576V534.8H101.936V535.552H105.52V539.568H106.656ZM122.224 533.664H119.84V534.816H122.224V533.664ZM126.016 534.816V533.664H123.504V534.816H126.016ZM123.504 537.104H126.016V535.904H123.504V537.104ZM119.84 537.104H122.224V535.904H119.84V537.104ZM119.84 538.224V540.72H118.512V532.544H122.656C121.792 532.144 120.832 531.712 120.016 531.408L120.96 530.608C121.6 530.816 122.336 531.104 123.04 531.424C123.664 531.104 124.304 530.688 124.832 530.304H118.608V529.168H126.176L126.464 529.088L127.36 529.808C126.544 530.592 125.44 531.376 124.304 531.984C124.736 532.176 125.12 532.368 125.44 532.544H127.36V539.392C127.36 540.048 127.216 540.368 126.784 540.56C126.352 540.768 125.68 540.768 124.688 540.768C124.64 540.416 124.464 539.952 124.304 539.632C124.96 539.648 125.584 539.648 125.76 539.648C125.968 539.632 126.016 539.584 126.016 539.392V538.224H123.504V540.688H122.224V538.224H119.84ZM117.216 530.992L116.064 531.808C115.648 531.152 114.752 530.048 114.032 529.264L115.136 528.576C115.872 529.344 116.752 530.352 117.216 530.992ZM117.072 536.128L117.808 536.4C117.584 537.744 117.264 538.912 116.816 539.92C117.84 541.488 119.696 541.728 122.432 541.728C124.112 541.728 126.544 541.648 128.24 541.488C128.032 541.808 127.84 542.48 127.76 542.88C126.208 542.976 124.192 543.024 122.416 543.024C119.392 543.024 117.472 542.704 116.24 541.056C115.664 542.032 114.96 542.752 114.16 543.296C113.968 543.008 113.472 542.496 113.184 542.288C114.688 541.36 115.776 539.68 116.304 537.328H114.736C114.336 537.328 113.904 537.44 113.776 537.568C113.696 537.232 113.424 536.576 113.28 536.304C113.504 536.24 113.776 536.128 114.064 535.808C114.384 535.488 115.216 534.384 115.856 533.456H113.52V532.256H116.8L116.992 532.176L117.936 532.608C117.312 533.504 116.192 535.072 115.312 536.16H116.832L117.072 536.128Z" fill="#141414"/>
<defs>
<linearGradient id="paint0_linear_3152_2062" x1="-1.9233e-05" y1="110" x2="220" y2="110" gradientUnits="userSpaceOnUse">
<stop stop-color="#6DCA1D"/>
<stop offset="1" stop-color="#4DB0FF"/>
</linearGradient>
<linearGradient id="paint1_linear_3152_2062" x1="-1.9233e-05" y1="302" x2="220" y2="302" gradientUnits="userSpaceOnUse">
<stop stop-color="#6DCA1D"/>
<stop offset="1" stop-color="#4DB0FF"/>
</linearGradient>
<linearGradient id="paint2_linear_3152_2062" x1="-1.9233e-05" y1="494" x2="220" y2="494" gradientUnits="userSpaceOnUse">
<stop stop-color="#6DCA1D"/>
<stop offset="1" stop-color="#4DB0FF"/>
</linearGradient>
</defs>
</svg>
