<svg width="820" height="300" viewBox="0 0 820 300" fill="none" xmlns="http://www.w3.org/2000/svg">
<circle opacity="0.5" cx="150" cy="150" r="148.75" stroke="url(#paint0_linear_3152_2024)" stroke-width="2.5"/>
<circle opacity="0.5" cx="410" cy="150" r="148.75" stroke="url(#paint1_linear_3152_2024)" stroke-width="2.5"/>
<circle opacity="0.5" cx="670" cy="150" r="148.75" stroke="url(#paint2_linear_3152_2024)" stroke-width="2.5"/>
<path d="M364.596 169.2H365.916V186H364.596V169.2ZM378.774 178.896C378.774 177.952 378.566 177.216 378.15 176.688C377.734 176.16 377.078 175.896 376.182 175.896C375.558 175.896 374.998 176.048 374.502 176.352C374.022 176.64 373.638 177.04 373.35 177.552C373.078 178.064 372.942 178.64 372.942 179.28V186H371.694V174.96H372.942V177.264C373.246 176.464 373.702 175.84 374.31 175.392C374.934 174.944 375.654 174.72 376.47 174.72C377.622 174.72 378.502 175.088 379.11 175.824C379.718 176.544 380.022 177.52 380.022 178.752V186H378.774V178.896ZM392.811 178.896C392.811 177.952 392.603 177.216 392.187 176.688C391.771 176.16 391.115 175.896 390.219 175.896C389.595 175.896 389.035 176.048 388.539 176.352C388.059 176.64 387.675 177.04 387.387 177.552C387.115 178.064 386.979 178.64 386.979 179.28V186H385.731V174.96H386.979V177.264C387.283 176.464 387.739 175.84 388.347 175.392C388.971 174.944 389.691 174.72 390.507 174.72C391.659 174.72 392.539 175.088 393.147 175.824C393.755 176.544 394.059 177.52 394.059 178.752V186H392.811V178.896ZM398.808 180.48C398.808 179.36 399.056 178.368 399.552 177.504C400.048 176.64 400.72 175.96 401.568 175.464C402.432 174.968 403.4 174.72 404.472 174.72C405.544 174.72 406.504 174.968 407.352 175.464C408.216 175.96 408.896 176.64 409.392 177.504C409.888 178.368 410.136 179.36 410.136 180.48C410.136 181.584 409.888 182.576 409.392 183.456C408.896 184.32 408.216 185 407.352 185.496C406.504 185.992 405.544 186.24 404.472 186.24C403.4 186.24 402.432 185.992 401.568 185.496C400.72 185 400.048 184.32 399.552 183.456C399.056 182.576 398.808 181.584 398.808 180.48ZM400.08 180.48C400.08 181.376 400.272 182.168 400.656 182.856C401.04 183.544 401.56 184.088 402.216 184.488C402.888 184.872 403.64 185.064 404.472 185.064C405.304 185.064 406.048 184.872 406.704 184.488C407.376 184.088 407.904 183.544 408.288 182.856C408.672 182.168 408.864 181.376 408.864 180.48C408.864 179.6 408.672 178.816 408.288 178.128C407.904 177.424 407.376 176.88 406.704 176.496C406.048 176.096 405.304 175.896 404.472 175.896C403.64 175.896 402.888 176.096 402.216 176.496C401.56 176.88 401.04 177.416 400.656 178.104C400.272 178.792 400.08 179.584 400.08 180.48ZM412.732 174.96H414.148L417.82 183.96L421.492 174.96H422.908L417.82 186.648L412.732 174.96ZM427.003 182.688C427.003 183.232 427.123 183.688 427.363 184.056C427.619 184.424 427.955 184.704 428.371 184.896C428.803 185.072 429.275 185.16 429.787 185.16C430.411 185.16 430.979 185.016 431.491 184.728C432.019 184.44 432.443 184.016 432.763 183.456C433.083 182.896 433.243 182.208 433.243 181.392L433.531 182.448C433.531 183.312 433.323 184.024 432.907 184.584C432.491 185.144 431.971 185.56 431.347 185.832C430.723 186.104 430.091 186.24 429.451 186.24C428.827 186.24 428.227 186.112 427.651 185.856C427.075 185.584 426.611 185.192 426.259 184.68C425.907 184.168 425.731 183.52 425.731 182.736C425.731 181.664 426.099 180.816 426.835 180.192C427.587 179.568 428.603 179.256 429.883 179.256C430.603 179.256 431.219 179.344 431.731 179.52C432.259 179.68 432.691 179.864 433.027 180.072C433.363 180.28 433.603 180.456 433.747 180.6V181.392C433.203 181.008 432.619 180.728 431.995 180.552C431.387 180.36 430.747 180.264 430.075 180.264C429.451 180.264 428.907 180.352 428.443 180.528C427.995 180.704 427.643 180.968 427.387 181.32C427.131 181.672 427.003 182.128 427.003 182.688ZM427.051 176.976L426.427 176.04C426.843 175.752 427.379 175.464 428.035 175.176C428.707 174.872 429.531 174.72 430.507 174.72C431.339 174.72 432.051 174.856 432.643 175.128C433.235 175.4 433.691 175.792 434.011 176.304C434.331 176.816 434.491 177.44 434.491 178.176V186H433.243V178.344C433.243 178.024 433.195 177.72 433.099 177.432C433.003 177.128 432.843 176.856 432.619 176.616C432.411 176.376 432.123 176.184 431.755 176.04C431.387 175.896 430.939 175.824 430.411 175.824C429.867 175.824 429.379 175.888 428.947 176.016C428.515 176.144 428.139 176.296 427.819 176.472C427.515 176.648 427.259 176.816 427.051 176.976ZM438.161 174.96H443.009V176.136H438.161V174.96ZM439.961 171.12H441.209V186H439.961V171.12ZM451.186 186.24C450.194 186.24 449.314 185.992 448.546 185.496C447.778 185 447.17 184.32 446.722 183.456C446.29 182.576 446.074 181.576 446.074 180.456C446.074 179.336 446.298 178.344 446.746 177.48C447.194 176.616 447.818 175.944 448.618 175.464C449.418 174.968 450.338 174.72 451.378 174.72C452.386 174.72 453.266 174.952 454.018 175.416C454.786 175.88 455.378 176.528 455.794 177.36C456.226 178.176 456.442 179.12 456.442 180.192C456.442 180.288 456.434 180.392 456.418 180.504C456.418 180.616 456.41 180.712 456.394 180.792H446.866V179.712H455.458L454.93 180.456C454.962 180.376 454.994 180.272 455.026 180.144C455.074 180 455.098 179.864 455.098 179.736C455.098 178.984 454.93 178.312 454.594 177.72C454.274 177.128 453.834 176.664 453.274 176.328C452.714 175.992 452.082 175.824 451.378 175.824C450.562 175.824 449.85 176.016 449.242 176.4C448.65 176.768 448.186 177.296 447.85 177.984C447.514 178.656 447.346 179.456 447.346 180.384C447.346 181.328 447.506 182.152 447.826 182.856C448.162 183.56 448.626 184.104 449.218 184.488C449.826 184.872 450.53 185.064 451.33 185.064C452.178 185.064 452.914 184.88 453.538 184.512C454.178 184.144 454.746 183.568 455.242 182.784L456.25 183.432C455.626 184.392 454.898 185.104 454.066 185.568C453.25 186.016 452.29 186.24 451.186 186.24Z" fill="#141414"/>
<path d="M397.202 212.666H392.702V213.62H397.202V212.666ZM392.63 215.672H397.202V214.664H392.684C392.666 214.988 392.648 215.33 392.63 215.672ZM397.67 218.768H393.8V220.388H397.67V218.768ZM398.714 216.878H392.522C392.486 217.112 392.45 217.346 392.414 217.58H399.146V222.278H397.67V221.666H393.8V222.314H392.378V217.796C392.126 219.182 391.712 220.586 391.01 221.738C390.704 221.504 389.984 221.18 389.57 221.036C390.974 218.822 391.136 215.762 391.136 213.728V211.46H398.714V216.878ZM394.754 205.97L396.284 206.546C396.194 206.708 396.086 206.852 395.978 207.014C397.346 207.824 398.93 208.796 399.776 209.444L398.912 210.848C398.048 210.146 396.428 209.084 395.042 208.202C394.574 208.706 394.07 209.192 393.53 209.642H396.968V210.686H393.242V209.894C392.378 210.596 391.424 211.208 390.488 211.712C390.326 211.334 389.876 210.506 389.588 210.146C391.622 209.21 393.638 207.716 394.754 205.97ZM402.062 207.824V217.724H400.496V207.824H402.062ZM403.79 205.97H405.41V220.316C405.41 221.288 405.194 221.774 404.618 222.026C404.06 222.314 403.124 222.368 401.666 222.368C401.594 221.918 401.36 221.162 401.126 220.694C402.152 220.73 403.088 220.73 403.376 220.712C403.682 220.712 403.79 220.622 403.79 220.298V205.97ZM422.114 207.734V209.12H414.194V207.734H417.488C417.29 207.23 417.056 206.654 416.84 206.204L418.496 205.772C418.802 206.384 419.162 207.14 419.396 207.734H422.114ZM415.454 216.986L416.768 217.382C416.318 218.642 415.598 220.082 414.95 221C414.68 220.784 414.14 220.388 413.798 220.208C414.464 219.362 415.076 218.138 415.454 216.986ZM422.15 216.212H419.09V222.314H417.47V216.212H414.014V214.79H417.47V213.152H413.906V211.748H415.868C415.796 211.136 415.544 210.2 415.238 209.498L416.606 209.156C416.894 209.858 417.182 210.776 417.272 211.37L415.94 211.748H418.784C419.108 210.992 419.486 209.894 419.666 209.138L421.214 209.462C420.908 210.254 420.602 211.082 420.296 211.748H422.402V213.152H419.09V214.79H422.15V216.212ZM419.72 217.454L420.836 216.842C421.43 217.688 422.042 218.822 422.33 219.542L421.16 220.244C420.872 219.488 420.26 218.318 419.72 217.454ZM430.304 211.874V213.422H428.468V222.332H426.83V213.422H424.724V213.854C424.724 216.446 424.49 220.046 422.888 222.332C422.636 222.026 421.952 221.522 421.61 221.342C423.032 219.254 423.158 216.212 423.158 213.854V207.626C425.156 207.284 427.37 206.726 428.666 206.168L429.98 207.392C428.504 207.968 426.56 208.4 424.724 208.724V211.874H430.304Z" fill="#141414"/>
<path d="M95.5898 181.152C95.8618 181.856 96.1898 182.496 96.5738 183.072C96.9738 183.648 97.4618 184.112 98.0378 184.464C98.6138 184.8 99.3018 184.968 100.102 184.968C101.19 184.968 102.038 184.672 102.646 184.08C103.27 183.472 103.582 182.704 103.582 181.776C103.582 180.96 103.398 180.304 103.03 179.808C102.662 179.312 102.182 178.912 101.59 178.608C101.014 178.288 100.406 178.008 99.7658 177.768C99.2858 177.592 98.7818 177.384 98.2538 177.144C97.7418 176.888 97.2618 176.584 96.8138 176.232C96.3658 175.864 95.9978 175.424 95.7098 174.912C95.4378 174.4 95.3018 173.784 95.3018 173.064C95.3018 172.264 95.4938 171.56 95.8778 170.952C96.2618 170.328 96.7978 169.848 97.4858 169.512C98.1738 169.16 98.9498 168.984 99.8138 168.984C100.71 168.984 101.478 169.152 102.118 169.488C102.774 169.824 103.318 170.248 103.75 170.76C104.182 171.272 104.51 171.8 104.734 172.344L103.582 172.992C103.406 172.56 103.15 172.136 102.814 171.72C102.494 171.304 102.086 170.96 101.59 170.688C101.094 170.4 100.478 170.256 99.7418 170.256C98.7658 170.256 98.0138 170.512 97.4858 171.024C96.9578 171.52 96.6938 172.144 96.6938 172.896C96.6938 173.52 96.8458 174.056 97.1498 174.504C97.4538 174.952 97.9098 175.36 98.5178 175.728C99.1258 176.08 99.8778 176.416 100.774 176.736C101.238 176.912 101.718 177.128 102.214 177.384C102.71 177.64 103.158 177.96 103.558 178.344C103.974 178.728 104.31 179.192 104.566 179.736C104.822 180.264 104.95 180.896 104.95 181.632C104.95 182.32 104.822 182.944 104.566 183.504C104.326 184.064 103.982 184.552 103.534 184.968C103.102 185.368 102.59 185.68 101.998 185.904C101.406 186.112 100.766 186.216 100.078 186.216C99.1018 186.216 98.2458 186.016 97.5098 185.616C96.7738 185.216 96.1578 184.68 95.6618 184.008C95.1658 183.336 94.7818 182.608 94.5098 181.824L95.5898 181.152ZM108.176 174.96H113.024V176.136H108.176V174.96ZM109.976 171.12H111.224V186H109.976V171.12ZM118.297 174.96V186H117.049V174.96H118.297ZM121.969 176.424C121.729 176.248 121.497 176.12 121.273 176.04C121.065 175.944 120.817 175.896 120.529 175.896C119.985 175.896 119.545 176.048 119.209 176.352C118.889 176.656 118.657 177.064 118.513 177.576C118.369 178.088 118.297 178.656 118.297 179.28H117.721C117.721 178.4 117.857 177.624 118.129 176.952C118.401 176.264 118.769 175.72 119.233 175.32C119.713 174.92 120.241 174.72 120.817 174.72C121.169 174.72 121.497 174.776 121.801 174.888C122.121 174.984 122.409 175.152 122.665 175.392L121.969 176.424ZM126.896 182.688C126.896 183.232 127.016 183.688 127.256 184.056C127.512 184.424 127.848 184.704 128.264 184.896C128.696 185.072 129.168 185.16 129.68 185.16C130.304 185.16 130.872 185.016 131.384 184.728C131.912 184.44 132.336 184.016 132.656 183.456C132.976 182.896 133.136 182.208 133.136 181.392L133.424 182.448C133.424 183.312 133.216 184.024 132.8 184.584C132.384 185.144 131.864 185.56 131.24 185.832C130.616 186.104 129.984 186.24 129.344 186.24C128.72 186.24 128.12 186.112 127.544 185.856C126.968 185.584 126.504 185.192 126.152 184.68C125.8 184.168 125.624 183.52 125.624 182.736C125.624 181.664 125.992 180.816 126.728 180.192C127.48 179.568 128.496 179.256 129.776 179.256C130.496 179.256 131.112 179.344 131.624 179.52C132.152 179.68 132.584 179.864 132.92 180.072C133.256 180.28 133.496 180.456 133.64 180.6V181.392C133.096 181.008 132.512 180.728 131.888 180.552C131.28 180.36 130.64 180.264 129.968 180.264C129.344 180.264 128.8 180.352 128.336 180.528C127.888 180.704 127.536 180.968 127.28 181.32C127.024 181.672 126.896 182.128 126.896 182.688ZM126.944 176.976L126.32 176.04C126.736 175.752 127.272 175.464 127.928 175.176C128.6 174.872 129.424 174.72 130.4 174.72C131.232 174.72 131.944 174.856 132.536 175.128C133.128 175.4 133.584 175.792 133.904 176.304C134.224 176.816 134.384 177.44 134.384 178.176V186H133.136V178.344C133.136 178.024 133.088 177.72 132.992 177.432C132.896 177.128 132.736 176.856 132.512 176.616C132.304 176.376 132.016 176.184 131.648 176.04C131.28 175.896 130.832 175.824 130.304 175.824C129.76 175.824 129.272 175.888 128.84 176.016C128.408 176.144 128.032 176.296 127.712 176.472C127.408 176.648 127.152 176.816 126.944 176.976ZM138.053 174.96H142.901V176.136H138.053V174.96ZM139.853 171.12H141.101V186H139.853V171.12ZM151.078 186.24C150.086 186.24 149.206 185.992 148.438 185.496C147.67 185 147.062 184.32 146.614 183.456C146.182 182.576 145.966 181.576 145.966 180.456C145.966 179.336 146.19 178.344 146.638 177.48C147.086 176.616 147.71 175.944 148.51 175.464C149.31 174.968 150.23 174.72 151.27 174.72C152.278 174.72 153.158 174.952 153.91 175.416C154.678 175.88 155.27 176.528 155.686 177.36C156.118 178.176 156.334 179.12 156.334 180.192C156.334 180.288 156.326 180.392 156.31 180.504C156.31 180.616 156.302 180.712 156.286 180.792H146.758V179.712H155.35L154.822 180.456C154.854 180.376 154.886 180.272 154.918 180.144C154.966 180 154.99 179.864 154.99 179.736C154.99 178.984 154.822 178.312 154.486 177.72C154.166 177.128 153.726 176.664 153.166 176.328C152.606 175.992 151.974 175.824 151.27 175.824C150.454 175.824 149.742 176.016 149.134 176.4C148.542 176.768 148.078 177.296 147.742 177.984C147.406 178.656 147.238 179.456 147.238 180.384C147.238 181.328 147.398 182.152 147.718 182.856C148.054 183.56 148.518 184.104 149.11 184.488C149.718 184.872 150.422 185.064 151.222 185.064C152.07 185.064 152.806 184.88 153.43 184.512C154.07 184.144 154.638 183.568 155.134 182.784L156.142 183.432C155.518 184.392 154.79 185.104 153.958 185.568C153.142 186.016 152.182 186.24 151.078 186.24ZM160.385 186.72H161.657C161.657 187.408 161.817 188.024 162.137 188.568C162.457 189.112 162.905 189.544 163.481 189.864C164.073 190.184 164.753 190.344 165.521 190.344C166.209 190.344 166.857 190.184 167.465 189.864C168.073 189.544 168.569 189.04 168.953 188.352C169.353 187.68 169.553 186.816 169.553 185.76V174.96H170.801V185.76C170.801 187.024 170.553 188.08 170.057 188.928C169.561 189.792 168.913 190.44 168.113 190.872C167.313 191.304 166.449 191.52 165.521 191.52C164.513 191.52 163.617 191.32 162.833 190.92C162.065 190.52 161.465 189.952 161.033 189.216C160.601 188.496 160.385 187.664 160.385 186.72ZM160.121 180.48C160.121 179.28 160.361 178.256 160.841 177.408C161.321 176.544 161.961 175.88 162.761 175.416C163.577 174.952 164.473 174.72 165.449 174.72C166.409 174.72 167.233 174.976 167.921 175.488C168.609 175.984 169.145 176.664 169.529 177.528C169.929 178.392 170.129 179.376 170.129 180.48C170.129 181.568 169.929 182.552 169.529 183.432C169.145 184.296 168.609 184.984 167.921 185.496C167.233 185.992 166.409 186.24 165.449 186.24C164.473 186.24 163.577 186.008 162.761 185.544C161.961 185.08 161.321 184.416 160.841 183.552C160.361 182.688 160.121 181.664 160.121 180.48ZM161.393 180.48C161.393 181.44 161.577 182.264 161.945 182.952C162.329 183.64 162.841 184.168 163.481 184.536C164.137 184.888 164.849 185.064 165.617 185.064C166.305 185.064 166.945 184.864 167.537 184.464C168.145 184.064 168.633 183.52 169.001 182.832C169.369 182.128 169.553 181.328 169.553 180.432C169.553 179.792 169.449 179.2 169.241 178.656C169.033 178.112 168.737 177.632 168.353 177.216C167.985 176.8 167.561 176.48 167.081 176.256C166.617 176.016 166.129 175.896 165.617 175.896C164.849 175.896 164.137 176.08 163.481 176.448C162.841 176.8 162.329 177.32 161.945 178.008C161.577 178.696 161.393 179.52 161.393 180.48ZM176.384 169.968C176.384 169.712 176.472 169.504 176.648 169.344C176.824 169.168 177.032 169.08 177.272 169.08C177.528 169.08 177.736 169.168 177.896 169.344C178.072 169.504 178.16 169.712 178.16 169.968C178.16 170.208 178.072 170.416 177.896 170.592C177.736 170.768 177.528 170.856 177.272 170.856C177.032 170.856 176.824 170.768 176.648 170.592C176.472 170.416 176.384 170.208 176.384 169.968ZM176.648 174.96H177.896V186H176.648V174.96ZM189.954 176.136H183.018V174.96H192.234L184.674 184.824H192.042V186H182.394L189.954 176.136ZM200.36 186.24C199.368 186.24 198.488 185.992 197.72 185.496C196.952 185 196.344 184.32 195.896 183.456C195.464 182.576 195.248 181.576 195.248 180.456C195.248 179.336 195.472 178.344 195.92 177.48C196.368 176.616 196.992 175.944 197.792 175.464C198.592 174.968 199.512 174.72 200.552 174.72C201.56 174.72 202.44 174.952 203.192 175.416C203.96 175.88 204.552 176.528 204.968 177.36C205.4 178.176 205.616 179.12 205.616 180.192C205.616 180.288 205.608 180.392 205.592 180.504C205.592 180.616 205.584 180.712 205.568 180.792H196.04V179.712H204.632L204.104 180.456C204.136 180.376 204.168 180.272 204.2 180.144C204.248 180 204.272 179.864 204.272 179.736C204.272 178.984 204.104 178.312 203.768 177.72C203.448 177.128 203.008 176.664 202.448 176.328C201.888 175.992 201.256 175.824 200.552 175.824C199.736 175.824 199.024 176.016 198.416 176.4C197.824 176.768 197.36 177.296 197.024 177.984C196.688 178.656 196.52 179.456 196.52 180.384C196.52 181.328 196.68 182.152 197 182.856C197.336 183.56 197.8 184.104 198.392 184.488C199 184.872 199.704 185.064 200.504 185.064C201.352 185.064 202.088 184.88 202.712 184.512C203.352 184.144 203.92 183.568 204.416 182.784L205.424 183.432C204.8 184.392 204.072 185.104 203.24 185.568C202.424 186.016 201.464 186.24 200.36 186.24Z" fill="#141414"/>
<path d="M134.052 208.4H132.738C132.162 209.3 131.532 210.11 130.902 210.722C130.668 210.452 130.092 209.876 129.768 209.624C130.83 208.67 131.838 207.212 132.396 205.754L133.89 206.186C133.764 206.492 133.638 206.78 133.476 207.086H137.778V208.4H134.754C135.294 208.868 135.87 209.444 136.194 209.822L135.114 210.776C134.754 210.29 133.98 209.516 133.386 208.958L134.052 208.4ZM138.966 215.078V216.716C140.424 218.192 143.178 219.704 146.328 220.316C145.986 220.676 145.5 221.36 145.266 221.792C142.71 221.144 140.478 219.812 138.966 218.48V222.404H137.184V218.426C135.474 220.01 133.17 221.234 130.812 221.882C130.596 221.468 130.11 220.82 129.768 220.478C132.72 219.83 135.618 218.354 137.184 216.5V215.078H133.188V218.39H131.424V213.656H137.184V212.486H130.218V211.028H137.184V209.966H138.642C138.336 209.696 137.832 209.3 137.526 209.102C138.498 208.292 139.326 207.05 139.758 205.754L141.288 206.132C141.18 206.456 141.036 206.762 140.91 207.086H146.076V208.4H142.548C143.124 208.832 143.754 209.39 144.114 209.786L142.98 210.776C142.584 210.29 141.792 209.552 141.144 209.03L141.918 208.4H140.172C139.776 208.994 139.344 209.534 138.894 209.966H138.966V211.028H145.644V212.486H138.966V213.656H144.672V216.824C144.672 217.58 144.51 217.922 143.988 218.138C143.43 218.354 142.674 218.372 141.684 218.372C141.576 217.94 141.306 217.418 141.108 217.04C141.774 217.076 142.494 217.076 142.674 217.058C142.89 217.058 142.962 217.004 142.962 216.824V215.078H138.966ZM162.726 215.852H168.306C167.298 215.294 166.362 214.61 165.552 213.872C164.67 214.628 163.716 215.294 162.726 215.852ZM163.266 220.298H167.676V217.328H163.266V220.298ZM160.494 211.388V215.204C161.88 214.628 163.248 213.8 164.454 212.774C163.806 212.054 163.248 211.298 162.798 210.578C162.312 211.172 161.772 211.694 161.25 212.144C161.088 211.946 160.782 211.658 160.494 211.388ZM157.974 217.346H159.18V213.368H157.974V217.346ZM155.724 213.368V217.346H156.894V213.368H155.724ZM156.894 208.4H155.724V211.964H156.894V208.4ZM159.18 211.964V208.4H157.974V211.964H159.18ZM167.424 209.138H163.896L163.734 209.372C164.184 210.146 164.796 210.974 165.534 211.73C166.29 210.938 166.938 210.074 167.424 209.138ZM168.522 207.662L169.602 208.202C168.936 209.966 167.91 211.496 166.668 212.792C167.82 213.746 169.206 214.574 170.754 215.096C170.412 215.402 169.908 216.068 169.674 216.5C169.548 216.446 169.422 216.392 169.296 216.338V222.332H167.676V221.774H163.266V222.35H161.682V216.392C161.466 216.5 161.232 216.608 161.016 216.698C160.89 216.464 160.692 216.176 160.494 215.924V218.786H155.724V220.334H154.464V206.942H160.494V210.578C161.898 209.39 163.14 207.662 163.86 205.844L165.426 206.294C165.228 206.78 164.994 207.266 164.742 207.734H168.234L168.522 207.662Z" fill="#141414"/>
<path d="M595.196 177.6C595.196 179.024 595.5 180.28 596.108 181.368C596.716 182.456 597.532 183.312 598.556 183.936C599.58 184.56 600.724 184.872 601.988 184.872C602.788 184.872 603.516 184.784 604.172 184.608C604.828 184.432 605.42 184.168 605.948 183.816C606.492 183.464 606.972 183.048 607.388 182.568V184.344C606.684 184.968 605.916 185.44 605.084 185.76C604.252 186.064 603.22 186.216 601.988 186.216C600.82 186.216 599.732 186.008 598.724 185.592C597.732 185.16 596.868 184.56 596.132 183.792C595.396 183.024 594.82 182.112 594.404 181.056C593.988 180 593.78 178.848 593.78 177.6C593.78 176.352 593.988 175.2 594.404 174.144C594.82 173.088 595.396 172.176 596.132 171.408C596.868 170.64 597.732 170.048 598.724 169.632C599.732 169.2 600.82 168.984 601.988 168.984C603.22 168.984 604.252 169.144 605.084 169.464C605.916 169.768 606.684 170.232 607.388 170.856V172.608C606.972 172.128 606.492 171.72 605.948 171.384C605.404 171.032 604.804 170.768 604.148 170.592C603.492 170.416 602.772 170.328 601.988 170.328C600.724 170.328 599.58 170.64 598.556 171.264C597.532 171.872 596.716 172.72 596.108 173.808C595.5 174.896 595.196 176.16 595.196 177.6ZM612.01 180.48C612.01 179.36 612.258 178.368 612.754 177.504C613.25 176.64 613.922 175.96 614.77 175.464C615.634 174.968 616.602 174.72 617.674 174.72C618.746 174.72 619.706 174.968 620.554 175.464C621.418 175.96 622.098 176.64 622.594 177.504C623.09 178.368 623.338 179.36 623.338 180.48C623.338 181.584 623.09 182.576 622.594 183.456C622.098 184.32 621.418 185 620.554 185.496C619.706 185.992 618.746 186.24 617.674 186.24C616.602 186.24 615.634 185.992 614.77 185.496C613.922 185 613.25 184.32 612.754 183.456C612.258 182.576 612.01 181.584 612.01 180.48ZM613.282 180.48C613.282 181.376 613.474 182.168 613.858 182.856C614.242 183.544 614.762 184.088 615.418 184.488C616.09 184.872 616.842 185.064 617.674 185.064C618.506 185.064 619.25 184.872 619.906 184.488C620.578 184.088 621.106 183.544 621.49 182.856C621.874 182.168 622.066 181.376 622.066 180.48C622.066 179.6 621.874 178.816 621.49 178.128C621.106 177.424 620.578 176.88 619.906 176.496C619.25 176.096 618.506 175.896 617.674 175.896C616.842 175.896 616.09 176.096 615.418 176.496C614.762 176.88 614.242 177.416 613.858 178.104C613.474 178.792 613.282 179.584 613.282 180.48ZM642.149 178.752V186H640.901V178.896C640.901 177.936 640.717 177.2 640.349 176.688C639.981 176.16 639.413 175.896 638.645 175.896C638.101 175.896 637.605 176.04 637.157 176.328C636.725 176.616 636.381 177.016 636.125 177.528C635.869 178.04 635.741 178.624 635.741 179.28V186H634.493V178.896C634.493 177.936 634.309 177.2 633.941 176.688C633.573 176.16 633.005 175.896 632.237 175.896C631.693 175.896 631.197 176.04 630.749 176.328C630.317 176.616 629.973 177.016 629.717 177.528C629.461 178.04 629.333 178.624 629.333 179.28V186H628.085V174.96H629.333V177.192C629.621 176.408 630.045 175.8 630.605 175.368C631.165 174.936 631.805 174.72 632.525 174.72C633.325 174.72 633.981 174.952 634.493 175.416C635.005 175.864 635.349 176.48 635.525 177.264C635.845 176.464 636.309 175.84 636.917 175.392C637.525 174.944 638.197 174.72 638.933 174.72C639.621 174.72 640.205 174.88 640.685 175.2C641.165 175.52 641.525 175.984 641.765 176.592C642.021 177.2 642.149 177.92 642.149 178.752ZM661.929 178.752V186H660.681V178.896C660.681 177.936 660.497 177.2 660.129 176.688C659.761 176.16 659.193 175.896 658.425 175.896C657.881 175.896 657.385 176.04 656.937 176.328C656.505 176.616 656.161 177.016 655.905 177.528C655.649 178.04 655.521 178.624 655.521 179.28V186H654.273V178.896C654.273 177.936 654.089 177.2 653.721 176.688C653.353 176.16 652.785 175.896 652.017 175.896C651.473 175.896 650.977 176.04 650.529 176.328C650.097 176.616 649.753 177.016 649.497 177.528C649.241 178.04 649.113 178.624 649.113 179.28V186H647.865V174.96H649.113V177.192C649.401 176.408 649.825 175.8 650.385 175.368C650.945 174.936 651.585 174.72 652.305 174.72C653.105 174.72 653.761 174.952 654.273 175.416C654.785 175.864 655.129 176.48 655.305 177.264C655.625 176.464 656.089 175.84 656.697 175.392C657.305 174.944 657.977 174.72 658.713 174.72C659.401 174.72 659.985 174.88 660.465 175.2C660.945 175.52 661.305 175.984 661.545 176.592C661.801 177.2 661.929 177.92 661.929 178.752ZM668.892 181.968C668.892 182.928 669.1 183.688 669.516 184.248C669.932 184.792 670.588 185.064 671.484 185.064C672.108 185.064 672.66 184.912 673.14 184.608C673.636 184.304 674.02 183.896 674.292 183.384C674.58 182.872 674.724 182.304 674.724 181.68V174.96H675.972V186H674.724V183.696C674.42 184.496 673.964 185.12 673.356 185.568C672.748 186.016 672.028 186.24 671.196 186.24C670.044 186.24 669.164 185.872 668.556 185.136C667.948 184.384 667.644 183.376 667.644 182.112V174.96H668.892V181.968ZM688.761 178.896C688.761 177.952 688.553 177.216 688.137 176.688C687.721 176.16 687.065 175.896 686.169 175.896C685.545 175.896 684.985 176.048 684.489 176.352C684.009 176.64 683.625 177.04 683.337 177.552C683.065 178.064 682.929 178.64 682.929 179.28V186H681.681V174.96H682.929V177.264C683.233 176.464 683.689 175.84 684.297 175.392C684.921 174.944 685.641 174.72 686.457 174.72C687.609 174.72 688.489 175.088 689.097 175.824C689.705 176.544 690.009 177.52 690.009 178.752V186H688.761V178.896ZM695.718 169.968C695.718 169.712 695.806 169.504 695.982 169.344C696.158 169.168 696.366 169.08 696.606 169.08C696.862 169.08 697.07 169.168 697.23 169.344C697.406 169.504 697.494 169.712 697.494 169.968C697.494 170.208 697.406 170.416 697.23 170.592C697.07 170.768 696.862 170.856 696.606 170.856C696.366 170.856 696.158 170.768 695.982 170.592C695.806 170.416 695.718 170.208 695.718 169.968ZM695.982 174.96H697.23V186H695.982V174.96ZM703.408 180.48C703.408 181.376 703.6 182.168 703.984 182.856C704.368 183.544 704.888 184.088 705.544 184.488C706.216 184.872 706.968 185.064 707.8 185.064C708.392 185.064 708.944 184.976 709.456 184.8C709.968 184.624 710.408 184.4 710.776 184.128C711.16 183.84 711.432 183.552 711.592 183.264V184.824C711.256 185.224 710.736 185.56 710.032 185.832C709.344 186.104 708.6 186.24 707.8 186.24C706.728 186.24 705.768 185.992 704.92 185.496C704.072 185 703.392 184.32 702.88 183.456C702.384 182.576 702.136 181.584 702.136 180.48C702.136 179.36 702.384 178.368 702.88 177.504C703.392 176.64 704.072 175.96 704.92 175.464C705.768 174.968 706.728 174.72 707.8 174.72C708.6 174.72 709.344 174.864 710.032 175.152C710.736 175.424 711.256 175.752 711.592 176.136V177.696C711.432 177.392 711.16 177.104 710.776 176.832C710.408 176.56 709.968 176.336 709.456 176.16C708.944 175.984 708.392 175.896 707.8 175.896C706.968 175.896 706.216 176.096 705.544 176.496C704.888 176.88 704.368 177.416 703.984 178.104C703.6 178.792 703.408 179.584 703.408 180.48ZM716.907 182.688C716.907 183.232 717.027 183.688 717.267 184.056C717.523 184.424 717.859 184.704 718.275 184.896C718.707 185.072 719.179 185.16 719.691 185.16C720.315 185.16 720.883 185.016 721.395 184.728C721.923 184.44 722.347 184.016 722.667 183.456C722.987 182.896 723.147 182.208 723.147 181.392L723.435 182.448C723.435 183.312 723.227 184.024 722.811 184.584C722.395 185.144 721.875 185.56 721.251 185.832C720.627 186.104 719.995 186.24 719.355 186.24C718.731 186.24 718.131 186.112 717.555 185.856C716.979 185.584 716.515 185.192 716.163 184.68C715.811 184.168 715.635 183.52 715.635 182.736C715.635 181.664 716.003 180.816 716.739 180.192C717.491 179.568 718.507 179.256 719.787 179.256C720.507 179.256 721.123 179.344 721.635 179.52C722.163 179.68 722.595 179.864 722.931 180.072C723.267 180.28 723.507 180.456 723.651 180.6V181.392C723.107 181.008 722.523 180.728 721.899 180.552C721.291 180.36 720.651 180.264 719.979 180.264C719.355 180.264 718.811 180.352 718.347 180.528C717.899 180.704 717.547 180.968 717.291 181.32C717.035 181.672 716.907 182.128 716.907 182.688ZM716.955 176.976L716.331 176.04C716.747 175.752 717.283 175.464 717.939 175.176C718.611 174.872 719.435 174.72 720.411 174.72C721.243 174.72 721.955 174.856 722.547 175.128C723.139 175.4 723.595 175.792 723.915 176.304C724.235 176.816 724.395 177.44 724.395 178.176V186H723.147V178.344C723.147 178.024 723.099 177.72 723.003 177.432C722.907 177.128 722.747 176.856 722.523 176.616C722.315 176.376 722.027 176.184 721.659 176.04C721.291 175.896 720.843 175.824 720.315 175.824C719.771 175.824 719.283 175.888 718.851 176.016C718.419 176.144 718.043 176.296 717.723 176.472C717.419 176.648 717.163 176.816 716.955 176.976ZM728.064 174.96H732.912V176.136H728.064V174.96ZM729.864 171.12H731.112V186H729.864V171.12ZM741.089 186.24C740.097 186.24 739.217 185.992 738.449 185.496C737.681 185 737.073 184.32 736.625 183.456C736.193 182.576 735.977 181.576 735.977 180.456C735.977 179.336 736.201 178.344 736.649 177.48C737.097 176.616 737.721 175.944 738.521 175.464C739.321 174.968 740.241 174.72 741.281 174.72C742.289 174.72 743.169 174.952 743.921 175.416C744.689 175.88 745.281 176.528 745.697 177.36C746.129 178.176 746.345 179.12 746.345 180.192C746.345 180.288 746.337 180.392 746.321 180.504C746.321 180.616 746.313 180.712 746.297 180.792H736.769V179.712H745.361L744.833 180.456C744.865 180.376 744.897 180.272 744.929 180.144C744.977 180 745.001 179.864 745.001 179.736C745.001 178.984 744.833 178.312 744.497 177.72C744.177 177.128 743.737 176.664 743.177 176.328C742.617 175.992 741.985 175.824 741.281 175.824C740.465 175.824 739.753 176.016 739.145 176.4C738.553 176.768 738.089 177.296 737.753 177.984C737.417 178.656 737.249 179.456 737.249 180.384C737.249 181.328 737.409 182.152 737.729 182.856C738.065 183.56 738.529 184.104 739.121 184.488C739.729 184.872 740.433 185.064 741.233 185.064C742.081 185.064 742.817 184.88 743.441 184.512C744.081 184.144 744.649 183.568 745.145 182.784L746.153 183.432C745.529 184.392 744.801 185.104 743.969 185.568C743.153 186.016 742.193 186.24 741.089 186.24Z" fill="#141414"/>
<path d="M654.592 207.86L653.602 209.228C652.99 208.616 651.658 207.77 650.578 207.266L651.514 206.024C652.576 206.474 653.944 207.23 654.592 207.86ZM653.692 212.486L652.72 213.872C652.09 213.278 650.758 212.486 649.66 212.018L650.578 210.758C651.658 211.172 653.008 211.892 653.692 212.486ZM653.044 215.42L654.358 216.428C653.548 218.336 652.522 220.496 651.622 222.188L650.128 221.198C650.956 219.812 652.162 217.49 653.044 215.42ZM660.928 218.264H663.358V217.166H660.928V218.264ZM657.148 217.166V218.264H659.344V217.166H657.148ZM659.344 214.97H657.148V216.014H659.344V214.97ZM663.358 214.97H660.928V216.014H663.358V214.97ZM658.84 210.56V211.55H661.504V210.56H658.84ZM658.84 208.418V209.372H661.504V208.418H658.84ZM666.238 218.264V219.596H664.96V220.802C664.96 221.558 664.762 221.936 664.222 222.17C663.664 222.386 662.8 222.386 661.54 222.386C661.432 221.99 661.18 221.432 661 221.072C661.864 221.108 662.764 221.108 662.998 221.09C663.268 221.072 663.358 221.018 663.358 220.784V219.596H657.148V222.368H655.582V219.596H654.052V218.264H655.582V213.746H659.344V212.9H654.214V211.55H657.238V210.56H655.294V209.372H657.238V208.418H654.898V207.194H657.238V205.88H658.84V207.194H661.504V205.88H663.106V207.194H665.626V208.418H663.106V209.372H665.32V210.56H663.106V211.55H666.148V212.9H660.928V213.746H664.96V218.264H666.238ZM683.752 211.622H681.07V212.918H683.752V211.622ZM688.018 212.918V211.622H685.192V212.918H688.018ZM685.192 215.492H688.018V214.142H685.192V215.492ZM681.07 215.492H683.752V214.142H681.07V215.492ZM681.07 216.752V219.56H679.576V210.362H684.238C683.266 209.912 682.186 209.426 681.268 209.084L682.33 208.184C683.05 208.418 683.878 208.742 684.67 209.102C685.372 208.742 686.092 208.274 686.686 207.842H679.684V206.564H688.198L688.522 206.474L689.53 207.284C688.612 208.166 687.37 209.048 686.092 209.732C686.578 209.948 687.01 210.164 687.37 210.362H689.53V218.066C689.53 218.804 689.368 219.164 688.882 219.38C688.396 219.614 687.64 219.614 686.524 219.614C686.47 219.218 686.272 218.696 686.092 218.336C686.83 218.354 687.532 218.354 687.73 218.354C687.964 218.336 688.018 218.282 688.018 218.066V216.752H685.192V219.524H683.752V216.752H681.07ZM678.118 208.616L676.822 209.534C676.354 208.796 675.346 207.554 674.536 206.672L675.778 205.898C676.606 206.762 677.596 207.896 678.118 208.616ZM677.956 214.394L678.784 214.7C678.532 216.212 678.172 217.526 677.668 218.66C678.82 220.424 680.908 220.694 683.986 220.694C685.876 220.694 688.612 220.604 690.52 220.424C690.286 220.784 690.07 221.54 689.98 221.99C688.234 222.098 685.966 222.152 683.968 222.152C680.566 222.152 678.406 221.792 677.02 219.938C676.372 221.036 675.58 221.846 674.68 222.458C674.464 222.134 673.906 221.558 673.582 221.324C675.274 220.28 676.498 218.39 677.092 215.744H675.328C674.878 215.744 674.392 215.87 674.248 216.014C674.158 215.636 673.852 214.898 673.69 214.592C673.942 214.52 674.248 214.394 674.572 214.034C674.932 213.674 675.868 212.432 676.588 211.388H673.96V210.038H677.65L677.866 209.948L678.928 210.434C678.226 211.442 676.966 213.206 675.976 214.43H677.686L677.956 214.394Z" fill="#141414"/>
<defs>
<linearGradient id="paint0_linear_3152_2024" x1="-3.05176e-05" y1="150" x2="300" y2="150" gradientUnits="userSpaceOnUse">
<stop stop-color="#6DCA1D"/>
<stop offset="1" stop-color="#4DB0FF"/>
</linearGradient>
<linearGradient id="paint1_linear_3152_2024" x1="260" y1="150" x2="560" y2="150" gradientUnits="userSpaceOnUse">
<stop stop-color="#6DCA1D"/>
<stop offset="1" stop-color="#4DB0FF"/>
</linearGradient>
<linearGradient id="paint2_linear_3152_2024" x1="520" y1="150" x2="820" y2="150" gradientUnits="userSpaceOnUse">
<stop stop-color="#6DCA1D"/>
<stop offset="1" stop-color="#4DB0FF"/>
</linearGradient>
</defs>
</svg>
