<svg width="654" height="238" viewBox="0 0 654 238" fill="none" xmlns="http://www.w3.org/2000/svg">
<path opacity="0.5" d="M237 119C237 184.17 184.17 237 119 237C53.8304 237 0.999968 184.17 0.999979 119C0.999991 53.8304 53.8304 1.00001 119 1.00002C184.17 1.00003 237 53.8304 237 119Z" stroke="url(#paint0_linear_3152_2043)" stroke-width="2"/>
<path opacity="0.5" d="M445 119C445 184.17 392.17 237 327 237C261.83 237 209 184.17 209 119C209 53.8304 261.83 1.00001 327 1.00002C392.17 1.00003 445 53.8304 445 119Z" stroke="url(#paint1_linear_3152_2043)" stroke-width="2"/>
<path opacity="0.5" d="M653 119C653 184.17 600.17 237 535 237C469.83 237 417 184.17 417 119C417 53.8304 469.83 1.00001 535 1.00002C600.17 1.00003 653 53.8304 653 119Z" stroke="url(#paint2_linear_3152_2043)" stroke-width="2"/>
<path d="M290.163 125H291.263V139H290.163V125ZM301.978 133.08C301.978 132.293 301.805 131.68 301.458 131.24C301.111 130.8 300.565 130.58 299.818 130.58C299.298 130.58 298.831 130.707 298.418 130.96C298.018 131.2 297.698 131.533 297.458 131.96C297.231 132.387 297.118 132.867 297.118 133.4V139H296.078V129.8H297.118V131.72C297.371 131.053 297.751 130.533 298.258 130.16C298.778 129.787 299.378 129.6 300.058 129.6C301.018 129.6 301.751 129.907 302.258 130.52C302.765 131.12 303.018 131.933 303.018 132.96V139H301.978V133.08ZM313.676 133.08C313.676 132.293 313.502 131.68 313.156 131.24C312.809 130.8 312.262 130.58 311.516 130.58C310.996 130.58 310.529 130.707 310.116 130.96C309.716 131.2 309.396 131.533 309.156 131.96C308.929 132.387 308.816 132.867 308.816 133.4V139H307.776V129.8H308.816V131.72C309.069 131.053 309.449 130.533 309.956 130.16C310.476 129.787 311.076 129.6 311.756 129.6C312.716 129.6 313.449 129.907 313.956 130.52C314.462 131.12 314.716 131.933 314.716 132.96V139H313.676V133.08ZM318.673 134.4C318.673 133.467 318.88 132.64 319.293 131.92C319.707 131.2 320.267 130.633 320.973 130.22C321.693 129.807 322.5 129.6 323.393 129.6C324.287 129.6 325.087 129.807 325.793 130.22C326.513 130.633 327.08 131.2 327.493 131.92C327.907 132.64 328.113 133.467 328.113 134.4C328.113 135.32 327.907 136.147 327.493 136.88C327.08 137.6 326.513 138.167 325.793 138.58C325.087 138.993 324.287 139.2 323.393 139.2C322.5 139.2 321.693 138.993 320.973 138.58C320.267 138.167 319.707 137.6 319.293 136.88C318.88 136.147 318.673 135.32 318.673 134.4ZM319.733 134.4C319.733 135.147 319.893 135.807 320.213 136.38C320.533 136.953 320.967 137.407 321.513 137.74C322.073 138.06 322.7 138.22 323.393 138.22C324.087 138.22 324.707 138.06 325.253 137.74C325.813 137.407 326.253 136.953 326.573 136.38C326.893 135.807 327.053 135.147 327.053 134.4C327.053 133.667 326.893 133.013 326.573 132.44C326.253 131.853 325.813 131.4 325.253 131.08C324.707 130.747 324.087 130.58 323.393 130.58C322.7 130.58 322.073 130.747 321.513 131.08C320.967 131.4 320.533 131.847 320.213 132.42C319.893 132.993 319.733 133.653 319.733 134.4ZM330.276 129.8H331.456L334.516 137.3L337.576 129.8H338.756L334.516 139.54L330.276 129.8ZM342.169 136.24C342.169 136.693 342.269 137.073 342.469 137.38C342.683 137.687 342.963 137.92 343.309 138.08C343.669 138.227 344.063 138.3 344.489 138.3C345.009 138.3 345.483 138.18 345.909 137.94C346.349 137.7 346.703 137.347 346.969 136.88C347.236 136.413 347.369 135.84 347.369 135.16L347.609 136.04C347.609 136.76 347.436 137.353 347.089 137.82C346.743 138.287 346.309 138.633 345.789 138.86C345.269 139.087 344.743 139.2 344.209 139.2C343.689 139.2 343.189 139.093 342.709 138.88C342.229 138.653 341.843 138.327 341.549 137.9C341.256 137.473 341.109 136.933 341.109 136.28C341.109 135.387 341.416 134.68 342.029 134.16C342.656 133.64 343.503 133.38 344.569 133.38C345.169 133.38 345.683 133.453 346.109 133.6C346.549 133.733 346.909 133.887 347.189 134.06C347.469 134.233 347.669 134.38 347.789 134.5V135.16C347.336 134.84 346.849 134.607 346.329 134.46C345.823 134.3 345.289 134.22 344.729 134.22C344.209 134.22 343.756 134.293 343.369 134.44C342.996 134.587 342.703 134.807 342.489 135.1C342.276 135.393 342.169 135.773 342.169 136.24ZM342.209 131.48L341.689 130.7C342.036 130.46 342.483 130.22 343.029 129.98C343.589 129.727 344.276 129.6 345.089 129.6C345.783 129.6 346.376 129.713 346.869 129.94C347.363 130.167 347.743 130.493 348.009 130.92C348.276 131.347 348.409 131.867 348.409 132.48V139H347.369V132.62C347.369 132.353 347.329 132.1 347.249 131.86C347.169 131.607 347.036 131.38 346.849 131.18C346.676 130.98 346.436 130.82 346.129 130.7C345.823 130.58 345.449 130.52 345.009 130.52C344.556 130.52 344.149 130.573 343.789 130.68C343.429 130.787 343.116 130.913 342.849 131.06C342.596 131.207 342.383 131.347 342.209 131.48ZM351.467 129.8H355.507V130.78H351.467V129.8ZM352.967 126.6H354.007V139H352.967V126.6ZM362.322 139.2C361.495 139.2 360.762 138.993 360.122 138.58C359.482 138.167 358.975 137.6 358.602 136.88C358.242 136.147 358.062 135.313 358.062 134.38C358.062 133.447 358.248 132.62 358.622 131.9C358.995 131.18 359.515 130.62 360.182 130.22C360.848 129.807 361.615 129.6 362.482 129.6C363.322 129.6 364.055 129.793 364.682 130.18C365.322 130.567 365.815 131.107 366.162 131.8C366.522 132.48 366.702 133.267 366.702 134.16C366.702 134.24 366.695 134.327 366.682 134.42C366.682 134.513 366.675 134.593 366.662 134.66H358.722V133.76H365.882L365.442 134.38C365.468 134.313 365.495 134.227 365.522 134.12C365.562 134 365.582 133.887 365.582 133.78C365.582 133.153 365.442 132.593 365.162 132.1C364.895 131.607 364.528 131.22 364.062 130.94C363.595 130.66 363.068 130.52 362.482 130.52C361.802 130.52 361.208 130.68 360.702 131C360.208 131.307 359.822 131.747 359.542 132.32C359.262 132.88 359.122 133.547 359.122 134.32C359.122 135.107 359.255 135.793 359.522 136.38C359.802 136.967 360.188 137.42 360.682 137.74C361.188 138.06 361.775 138.22 362.442 138.22C363.148 138.22 363.762 138.067 364.282 137.76C364.815 137.453 365.288 136.973 365.702 136.32L366.542 136.86C366.022 137.66 365.415 138.253 364.722 138.64C364.042 139.013 363.242 139.2 362.322 139.2Z" fill="#141414"/>
<path d="M315.913 163.129H311.663V164.03H315.913V163.129ZM311.595 165.968H315.913V165.016H311.646C311.629 165.322 311.612 165.645 311.595 165.968ZM316.355 168.892H312.7V170.422H316.355V168.892ZM317.341 167.107H311.493C311.459 167.328 311.425 167.549 311.391 167.77H317.749V172.207H316.355V171.629H312.7V172.241H311.357V167.974C311.119 169.283 310.728 170.609 310.065 171.697C309.776 171.476 309.096 171.17 308.705 171.034C310.031 168.943 310.184 166.053 310.184 164.132V161.99H317.341V167.107ZM313.601 156.805L315.046 157.349C314.961 157.502 314.859 157.638 314.757 157.791C316.049 158.556 317.545 159.474 318.344 160.086L317.528 161.412C316.712 160.749 315.182 159.746 313.873 158.913C313.431 159.389 312.955 159.848 312.445 160.273H315.692V161.259H312.173V160.511C311.357 161.174 310.456 161.752 309.572 162.228C309.419 161.871 308.994 161.089 308.722 160.749C310.643 159.865 312.547 158.454 313.601 156.805ZM320.503 158.556V167.906H319.024V158.556H320.503ZM322.135 156.805H323.665V170.354C323.665 171.272 323.461 171.731 322.917 171.969C322.39 172.241 321.506 172.292 320.129 172.292C320.061 171.867 319.84 171.153 319.619 170.711C320.588 170.745 321.472 170.745 321.744 170.728C322.033 170.728 322.135 170.643 322.135 170.337V156.805ZM339.441 158.471V159.78H331.961V158.471H335.072C334.885 157.995 334.664 157.451 334.46 157.026L336.024 156.618C336.313 157.196 336.653 157.91 336.874 158.471H339.441ZM333.151 167.209L334.392 167.583C333.967 168.773 333.287 170.133 332.675 171C332.42 170.796 331.91 170.422 331.587 170.252C332.216 169.453 332.794 168.297 333.151 167.209ZM339.475 166.478H336.585V172.241H335.055V166.478H331.791V165.135H335.055V163.588H331.689V162.262H333.542C333.474 161.684 333.236 160.8 332.947 160.137L334.239 159.814C334.511 160.477 334.783 161.344 334.868 161.905L333.61 162.262H336.296C336.602 161.548 336.959 160.511 337.129 159.797L338.591 160.103C338.302 160.851 338.013 161.633 337.724 162.262H339.713V163.588H336.585V165.135H339.475V166.478ZM337.18 167.651L338.234 167.073C338.795 167.872 339.373 168.943 339.645 169.623L338.54 170.286C338.268 169.572 337.69 168.467 337.18 167.651ZM347.176 162.381V163.843H345.442V172.258H343.895V163.843H341.906V164.251C341.906 166.699 341.685 170.099 340.172 172.258C339.934 171.969 339.288 171.493 338.965 171.323C340.308 169.351 340.427 166.478 340.427 164.251V158.369C342.314 158.046 344.405 157.519 345.629 156.992L346.87 158.148C345.476 158.692 343.64 159.1 341.906 159.406V162.381H347.176Z" fill="#141414"/>
<path d="M73.6581 134.96C73.8848 135.547 74.1581 136.08 74.4781 136.56C74.8115 137.04 75.2181 137.427 75.6981 137.72C76.1781 138 76.7515 138.14 77.4181 138.14C78.3248 138.14 79.0315 137.893 79.5381 137.4C80.0581 136.893 80.3181 136.253 80.3181 135.48C80.3181 134.8 80.1648 134.253 79.8581 133.84C79.5515 133.427 79.1515 133.093 78.6581 132.84C78.1781 132.573 77.6715 132.34 77.1381 132.14C76.7381 131.993 76.3181 131.82 75.8781 131.62C75.4515 131.407 75.0515 131.153 74.6781 130.86C74.3048 130.553 73.9981 130.187 73.7581 129.76C73.5315 129.333 73.4181 128.82 73.4181 128.22C73.4181 127.553 73.5781 126.967 73.8981 126.46C74.2181 125.94 74.6648 125.54 75.2381 125.26C75.8115 124.967 76.4581 124.82 77.1781 124.82C77.9248 124.82 78.5648 124.96 79.0981 125.24C79.6448 125.52 80.0981 125.873 80.4581 126.3C80.8181 126.727 81.0915 127.167 81.2781 127.62L80.3181 128.16C80.1715 127.8 79.9581 127.447 79.6781 127.1C79.4115 126.753 79.0715 126.467 78.6581 126.24C78.2448 126 77.7315 125.88 77.1181 125.88C76.3048 125.88 75.6781 126.093 75.2381 126.52C74.7981 126.933 74.5781 127.453 74.5781 128.08C74.5781 128.6 74.7048 129.047 74.9581 129.42C75.2115 129.793 75.5915 130.133 76.0981 130.44C76.6048 130.733 77.2315 131.013 77.9781 131.28C78.3648 131.427 78.7648 131.607 79.1781 131.82C79.5915 132.033 79.9648 132.3 80.2981 132.62C80.6448 132.94 80.9248 133.327 81.1381 133.78C81.3515 134.22 81.4581 134.747 81.4581 135.36C81.4581 135.933 81.3515 136.453 81.1381 136.92C80.9381 137.387 80.6515 137.793 80.2781 138.14C79.9181 138.473 79.4915 138.733 78.9981 138.92C78.5048 139.093 77.9715 139.18 77.3981 139.18C76.5848 139.18 75.8715 139.013 75.2581 138.68C74.6448 138.347 74.1315 137.9 73.7181 137.34C73.3048 136.78 72.9848 136.173 72.7581 135.52L73.6581 134.96ZM84.1464 129.8H88.1864V130.78H84.1464V129.8ZM85.6464 126.6H86.6864V139H85.6464V126.6ZM92.5809 129.8V139H91.5409V129.8H92.5809ZM95.6409 131.02C95.4409 130.873 95.2476 130.767 95.0609 130.7C94.8876 130.62 94.6809 130.58 94.4409 130.58C93.9876 130.58 93.6209 130.707 93.3409 130.96C93.0743 131.213 92.8809 131.553 92.7609 131.98C92.6409 132.407 92.5809 132.88 92.5809 133.4H92.1009C92.1009 132.667 92.2143 132.02 92.4409 131.46C92.6676 130.887 92.9743 130.433 93.3609 130.1C93.7609 129.767 94.2009 129.6 94.6809 129.6C94.9743 129.6 95.2476 129.647 95.5009 129.74C95.7676 129.82 96.0076 129.96 96.2209 130.16L95.6409 131.02ZM99.7462 136.24C99.7462 136.693 99.8462 137.073 100.046 137.38C100.26 137.687 100.54 137.92 100.886 138.08C101.246 138.227 101.64 138.3 102.066 138.3C102.586 138.3 103.06 138.18 103.486 137.94C103.926 137.7 104.28 137.347 104.546 136.88C104.813 136.413 104.946 135.84 104.946 135.16L105.186 136.04C105.186 136.76 105.013 137.353 104.666 137.82C104.32 138.287 103.886 138.633 103.366 138.86C102.846 139.087 102.32 139.2 101.786 139.2C101.266 139.2 100.766 139.093 100.286 138.88C99.8062 138.653 99.4196 138.327 99.1262 137.9C98.8329 137.473 98.6862 136.933 98.6862 136.28C98.6862 135.387 98.9929 134.68 99.6062 134.16C100.233 133.64 101.08 133.38 102.146 133.38C102.746 133.38 103.26 133.453 103.686 133.6C104.126 133.733 104.486 133.887 104.766 134.06C105.046 134.233 105.246 134.38 105.366 134.5V135.16C104.913 134.84 104.426 134.607 103.906 134.46C103.4 134.3 102.866 134.22 102.306 134.22C101.786 134.22 101.333 134.293 100.946 134.44C100.573 134.587 100.28 134.807 100.066 135.1C99.8529 135.393 99.7462 135.773 99.7462 136.24ZM99.7862 131.48L99.2662 130.7C99.6129 130.46 100.06 130.22 100.606 129.98C101.166 129.727 101.853 129.6 102.666 129.6C103.36 129.6 103.953 129.713 104.446 129.94C104.94 130.167 105.32 130.493 105.586 130.92C105.853 131.347 105.986 131.867 105.986 132.48V139H104.946V132.62C104.946 132.353 104.906 132.1 104.826 131.86C104.746 131.607 104.613 131.38 104.426 131.18C104.253 130.98 104.013 130.82 103.706 130.7C103.4 130.58 103.026 130.52 102.586 130.52C102.133 130.52 101.726 130.573 101.366 130.68C101.006 130.787 100.693 130.913 100.426 131.06C100.173 131.207 99.9596 131.347 99.7862 131.48ZM109.044 129.8H113.084V130.78H109.044V129.8ZM110.544 126.6H111.584V139H110.544V126.6ZM119.899 139.2C119.072 139.2 118.339 138.993 117.699 138.58C117.059 138.167 116.552 137.6 116.179 136.88C115.819 136.147 115.639 135.313 115.639 134.38C115.639 133.447 115.825 132.62 116.199 131.9C116.572 131.18 117.092 130.62 117.759 130.22C118.425 129.807 119.192 129.6 120.059 129.6C120.899 129.6 121.632 129.793 122.259 130.18C122.899 130.567 123.392 131.107 123.739 131.8C124.099 132.48 124.279 133.267 124.279 134.16C124.279 134.24 124.272 134.327 124.259 134.42C124.259 134.513 124.252 134.593 124.239 134.66H116.299V133.76H123.459L123.019 134.38C123.045 134.313 123.072 134.227 123.099 134.12C123.139 134 123.159 133.887 123.159 133.78C123.159 133.153 123.019 132.593 122.739 132.1C122.472 131.607 122.105 131.22 121.639 130.94C121.172 130.66 120.645 130.52 120.059 130.52C119.379 130.52 118.785 130.68 118.279 131C117.785 131.307 117.399 131.747 117.119 132.32C116.839 132.88 116.699 133.547 116.699 134.32C116.699 135.107 116.832 135.793 117.099 136.38C117.379 136.967 117.765 137.42 118.259 137.74C118.765 138.06 119.352 138.22 120.019 138.22C120.725 138.22 121.339 138.067 121.859 137.76C122.392 137.453 122.865 136.973 123.279 136.32L124.119 136.86C123.599 137.66 122.992 138.253 122.299 138.64C121.619 139.013 120.819 139.2 119.899 139.2ZM127.654 139.6H128.714C128.714 140.173 128.847 140.687 129.114 141.14C129.381 141.593 129.754 141.953 130.234 142.22C130.727 142.487 131.294 142.62 131.934 142.62C132.507 142.62 133.047 142.487 133.554 142.22C134.061 141.953 134.474 141.533 134.794 140.96C135.127 140.4 135.294 139.68 135.294 138.8V129.8H136.334V138.8C136.334 139.853 136.127 140.733 135.714 141.44C135.301 142.16 134.761 142.7 134.094 143.06C133.427 143.42 132.707 143.6 131.934 143.6C131.094 143.6 130.347 143.433 129.694 143.1C129.054 142.767 128.554 142.293 128.194 141.68C127.834 141.08 127.654 140.387 127.654 139.6ZM127.434 134.4C127.434 133.4 127.634 132.547 128.034 131.84C128.434 131.12 128.967 130.567 129.634 130.18C130.314 129.793 131.061 129.6 131.874 129.6C132.674 129.6 133.361 129.813 133.934 130.24C134.507 130.653 134.954 131.22 135.274 131.94C135.607 132.66 135.774 133.48 135.774 134.4C135.774 135.307 135.607 136.127 135.274 136.86C134.954 137.58 134.507 138.153 133.934 138.58C133.361 138.993 132.674 139.2 131.874 139.2C131.061 139.2 130.314 139.007 129.634 138.62C128.967 138.233 128.434 137.68 128.034 136.96C127.634 136.24 127.434 135.387 127.434 134.4ZM128.494 134.4C128.494 135.2 128.647 135.887 128.954 136.46C129.274 137.033 129.701 137.473 130.234 137.78C130.781 138.073 131.374 138.22 132.014 138.22C132.587 138.22 133.121 138.053 133.614 137.72C134.121 137.387 134.527 136.933 134.834 136.36C135.141 135.773 135.294 135.107 135.294 134.36C135.294 133.827 135.207 133.333 135.034 132.88C134.861 132.427 134.614 132.027 134.294 131.68C133.987 131.333 133.634 131.067 133.234 130.88C132.847 130.68 132.441 130.58 132.014 130.58C131.374 130.58 130.781 130.733 130.234 131.04C129.701 131.333 129.274 131.767 128.954 132.34C128.647 132.913 128.494 133.6 128.494 134.4ZM140.986 125.64C140.986 125.427 141.06 125.253 141.206 125.12C141.353 124.973 141.526 124.9 141.726 124.9C141.94 124.9 142.113 124.973 142.246 125.12C142.393 125.253 142.466 125.427 142.466 125.64C142.466 125.84 142.393 126.013 142.246 126.16C142.113 126.307 141.94 126.38 141.726 126.38C141.526 126.38 141.353 126.307 141.206 126.16C141.06 126.013 140.986 125.84 140.986 125.64ZM141.206 129.8H142.246V139H141.206V129.8ZM152.295 130.78H146.515V129.8H154.195L147.895 138.02H154.035V139H145.995L152.295 130.78ZM160.967 139.2C160.14 139.2 159.407 138.993 158.767 138.58C158.127 138.167 157.62 137.6 157.247 136.88C156.887 136.147 156.707 135.313 156.707 134.38C156.707 133.447 156.893 132.62 157.267 131.9C157.64 131.18 158.16 130.62 158.827 130.22C159.493 129.807 160.26 129.6 161.127 129.6C161.967 129.6 162.7 129.793 163.327 130.18C163.967 130.567 164.46 131.107 164.807 131.8C165.167 132.48 165.347 133.267 165.347 134.16C165.347 134.24 165.34 134.327 165.327 134.42C165.327 134.513 165.32 134.593 165.307 134.66H157.367V133.76H164.527L164.087 134.38C164.113 134.313 164.14 134.227 164.167 134.12C164.207 134 164.227 133.887 164.227 133.78C164.227 133.153 164.087 132.593 163.807 132.1C163.54 131.607 163.173 131.22 162.707 130.94C162.24 130.66 161.713 130.52 161.127 130.52C160.447 130.52 159.853 130.68 159.347 131C158.853 131.307 158.467 131.747 158.187 132.32C157.907 132.88 157.767 133.547 157.767 134.32C157.767 135.107 157.9 135.793 158.167 136.38C158.447 136.967 158.833 137.42 159.327 137.74C159.833 138.06 160.42 138.22 161.087 138.22C161.793 138.22 162.407 138.067 162.927 137.76C163.46 137.453 163.933 136.973 164.347 136.32L165.187 136.86C164.667 137.66 164.06 138.253 163.367 138.64C162.687 139.013 161.887 139.2 160.967 139.2Z" fill="#141414"/>
<path d="M103.938 159.1H102.697C102.153 159.95 101.558 160.715 100.963 161.293C100.742 161.038 100.198 160.494 99.892 160.256C100.895 159.355 101.847 157.978 102.374 156.601L103.785 157.009C103.666 157.298 103.547 157.57 103.394 157.859H107.457V159.1H104.601C105.111 159.542 105.655 160.086 105.961 160.443L104.941 161.344C104.601 160.885 103.87 160.154 103.309 159.627L103.938 159.1ZM108.579 165.407V166.954C109.956 168.348 112.557 169.776 115.532 170.354C115.209 170.694 114.75 171.34 114.529 171.748C112.115 171.136 110.007 169.878 108.579 168.62V172.326H106.896V168.569C105.281 170.065 103.105 171.221 100.878 171.833C100.674 171.442 100.215 170.83 99.892 170.507C102.68 169.895 105.417 168.501 106.896 166.75V165.407H103.122V168.535H101.456V164.064H106.896V162.959H100.317V161.582H106.896V160.579H108.273C107.984 160.324 107.508 159.95 107.219 159.763C108.137 158.998 108.919 157.825 109.327 156.601L110.772 156.958C110.67 157.264 110.534 157.553 110.415 157.859H115.294V159.1H111.962C112.506 159.508 113.101 160.035 113.441 160.409L112.37 161.344C111.996 160.885 111.248 160.188 110.636 159.695L111.367 159.1H109.718C109.344 159.661 108.936 160.171 108.511 160.579H108.579V161.582H114.886V162.959H108.579V164.064H113.968V167.056C113.968 167.77 113.815 168.093 113.322 168.297C112.795 168.501 112.081 168.518 111.146 168.518C111.044 168.11 110.789 167.617 110.602 167.26C111.231 167.294 111.911 167.294 112.081 167.277C112.285 167.277 112.353 167.226 112.353 167.056V165.407H108.579ZM131.019 166.138H136.289C135.337 165.611 134.453 164.965 133.688 164.268C132.855 164.982 131.954 165.611 131.019 166.138ZM131.529 170.337H135.694V167.532H131.529V170.337ZM128.911 161.922V165.526C130.22 164.982 131.512 164.2 132.651 163.231C132.039 162.551 131.512 161.837 131.087 161.157C130.628 161.718 130.118 162.211 129.625 162.636C129.472 162.449 129.183 162.177 128.911 161.922ZM126.531 167.549H127.67V163.792H126.531V167.549ZM124.406 163.792V167.549H125.511V163.792H124.406ZM125.511 159.1H124.406V162.466H125.511V159.1ZM127.67 162.466V159.1H126.531V162.466H127.67ZM135.456 159.797H132.124L131.971 160.018C132.396 160.749 132.974 161.531 133.671 162.245C134.385 161.497 134.997 160.681 135.456 159.797ZM136.493 158.403L137.513 158.913C136.884 160.579 135.915 162.024 134.742 163.248C135.83 164.149 137.139 164.931 138.601 165.424C138.278 165.713 137.802 166.342 137.581 166.75C137.462 166.699 137.343 166.648 137.224 166.597V172.258H135.694V171.731H131.529V172.275H130.033V166.648C129.829 166.75 129.608 166.852 129.404 166.937C129.285 166.716 129.098 166.444 128.911 166.206V168.909H124.406V170.371H123.216V157.723H128.911V161.157C130.237 160.035 131.41 158.403 132.09 156.686L133.569 157.111C133.382 157.57 133.161 158.029 132.923 158.471H136.221L136.493 158.403Z" fill="#141414"/>
<path d="M472.664 132C472.664 133.187 472.917 134.233 473.424 135.14C473.93 136.047 474.61 136.76 475.464 137.28C476.317 137.8 477.27 138.06 478.324 138.06C478.99 138.06 479.597 137.987 480.144 137.84C480.69 137.693 481.184 137.473 481.624 137.18C482.077 136.887 482.477 136.54 482.824 136.14V137.62C482.237 138.14 481.597 138.533 480.904 138.8C480.21 139.053 479.35 139.18 478.324 139.18C477.35 139.18 476.444 139.007 475.604 138.66C474.777 138.3 474.057 137.8 473.444 137.16C472.83 136.52 472.35 135.76 472.004 134.88C471.657 134 471.484 133.04 471.484 132C471.484 130.96 471.657 130 472.004 129.12C472.35 128.24 472.83 127.48 473.444 126.84C474.057 126.2 474.777 125.707 475.604 125.36C476.444 125 477.35 124.82 478.324 124.82C479.35 124.82 480.21 124.953 480.904 125.22C481.597 125.473 482.237 125.86 482.824 126.38V127.84C482.477 127.44 482.077 127.1 481.624 126.82C481.17 126.527 480.67 126.307 480.124 126.16C479.577 126.013 478.977 125.94 478.324 125.94C477.27 125.94 476.317 126.2 475.464 126.72C474.61 127.227 473.93 127.933 473.424 128.84C472.917 129.747 472.664 130.8 472.664 132ZM486.675 134.4C486.675 133.467 486.882 132.64 487.295 131.92C487.708 131.2 488.268 130.633 488.975 130.22C489.695 129.807 490.502 129.6 491.395 129.6C492.288 129.6 493.088 129.807 493.795 130.22C494.515 130.633 495.082 131.2 495.495 131.92C495.908 132.64 496.115 133.467 496.115 134.4C496.115 135.32 495.908 136.147 495.495 136.88C495.082 137.6 494.515 138.167 493.795 138.58C493.088 138.993 492.288 139.2 491.395 139.2C490.502 139.2 489.695 138.993 488.975 138.58C488.268 138.167 487.708 137.6 487.295 136.88C486.882 136.147 486.675 135.32 486.675 134.4ZM487.735 134.4C487.735 135.147 487.895 135.807 488.215 136.38C488.535 136.953 488.968 137.407 489.515 137.74C490.075 138.06 490.702 138.22 491.395 138.22C492.088 138.22 492.708 138.06 493.255 137.74C493.815 137.407 494.255 136.953 494.575 136.38C494.895 135.807 495.055 135.147 495.055 134.4C495.055 133.667 494.895 133.013 494.575 132.44C494.255 131.853 493.815 131.4 493.255 131.08C492.708 130.747 492.088 130.58 491.395 130.58C490.702 130.58 490.075 130.747 489.515 131.08C488.968 131.4 488.535 131.847 488.215 132.42C487.895 132.993 487.735 133.653 487.735 134.4ZM511.791 132.96V139H510.751V133.08C510.751 132.28 510.598 131.667 510.291 131.24C509.984 130.8 509.511 130.58 508.871 130.58C508.418 130.58 508.004 130.7 507.631 130.94C507.271 131.18 506.984 131.513 506.771 131.94C506.558 132.367 506.451 132.853 506.451 133.4V139H505.411V133.08C505.411 132.28 505.258 131.667 504.951 131.24C504.644 130.8 504.171 130.58 503.531 130.58C503.078 130.58 502.664 130.7 502.291 130.94C501.931 131.18 501.644 131.513 501.431 131.94C501.218 132.367 501.111 132.853 501.111 133.4V139H500.071V129.8H501.111V131.66C501.351 131.007 501.704 130.5 502.171 130.14C502.638 129.78 503.171 129.6 503.771 129.6C504.438 129.6 504.984 129.793 505.411 130.18C505.838 130.553 506.124 131.067 506.271 131.72C506.538 131.053 506.924 130.533 507.431 130.16C507.938 129.787 508.498 129.6 509.111 129.6C509.684 129.6 510.171 129.733 510.571 130C510.971 130.267 511.271 130.653 511.471 131.16C511.684 131.667 511.791 132.267 511.791 132.96ZM528.274 132.96V139H527.234V133.08C527.234 132.28 527.08 131.667 526.774 131.24C526.467 130.8 525.994 130.58 525.354 130.58C524.9 130.58 524.487 130.7 524.114 130.94C523.754 131.18 523.467 131.513 523.254 131.94C523.04 132.367 522.934 132.853 522.934 133.4V139H521.894V133.08C521.894 132.28 521.74 131.667 521.434 131.24C521.127 130.8 520.654 130.58 520.014 130.58C519.56 130.58 519.147 130.7 518.774 130.94C518.414 131.18 518.127 131.513 517.914 131.94C517.7 132.367 517.594 132.853 517.594 133.4V139H516.554V129.8H517.594V131.66C517.834 131.007 518.187 130.5 518.654 130.14C519.12 129.78 519.654 129.6 520.254 129.6C520.92 129.6 521.467 129.793 521.894 130.18C522.32 130.553 522.607 131.067 522.754 131.72C523.02 131.053 523.407 130.533 523.914 130.16C524.42 129.787 524.98 129.6 525.594 129.6C526.167 129.6 526.654 129.733 527.054 130C527.454 130.267 527.754 130.653 527.954 131.16C528.167 131.667 528.274 132.267 528.274 132.96ZM534.077 135.64C534.077 136.44 534.25 137.073 534.597 137.54C534.943 137.993 535.49 138.22 536.237 138.22C536.757 138.22 537.217 138.093 537.617 137.84C538.03 137.587 538.35 137.247 538.577 136.82C538.817 136.393 538.937 135.92 538.937 135.4V129.8H539.977V139H538.937V137.08C538.683 137.747 538.303 138.267 537.797 138.64C537.29 139.013 536.69 139.2 535.997 139.2C535.037 139.2 534.303 138.893 533.797 138.28C533.29 137.653 533.037 136.813 533.037 135.76V129.8H534.077V135.64ZM550.634 133.08C550.634 132.293 550.461 131.68 550.114 131.24C549.768 130.8 549.221 130.58 548.474 130.58C547.954 130.58 547.488 130.707 547.074 130.96C546.674 131.2 546.354 131.533 546.114 131.96C545.888 132.387 545.774 132.867 545.774 133.4V139H544.734V129.8H545.774V131.72C546.028 131.053 546.408 130.533 546.914 130.16C547.434 129.787 548.034 129.6 548.714 129.6C549.674 129.6 550.408 129.907 550.914 130.52C551.421 131.12 551.674 131.933 551.674 132.96V139H550.634V133.08ZM556.432 125.64C556.432 125.427 556.505 125.253 556.652 125.12C556.799 124.973 556.972 124.9 557.172 124.9C557.385 124.9 557.559 124.973 557.692 125.12C557.839 125.253 557.912 125.427 557.912 125.64C557.912 125.84 557.839 126.013 557.692 126.16C557.559 126.307 557.385 126.38 557.172 126.38C556.972 126.38 556.799 126.307 556.652 126.16C556.505 126.013 556.432 125.84 556.432 125.64ZM556.652 129.8H557.692V139H556.652V129.8ZM562.84 134.4C562.84 135.147 563 135.807 563.32 136.38C563.64 136.953 564.074 137.407 564.62 137.74C565.18 138.06 565.807 138.22 566.5 138.22C566.994 138.22 567.454 138.147 567.88 138C568.307 137.853 568.674 137.667 568.98 137.44C569.3 137.2 569.527 136.96 569.66 136.72V138.02C569.38 138.353 568.947 138.633 568.36 138.86C567.787 139.087 567.167 139.2 566.5 139.2C565.607 139.2 564.807 138.993 564.1 138.58C563.394 138.167 562.827 137.6 562.4 136.88C561.987 136.147 561.78 135.32 561.78 134.4C561.78 133.467 561.987 132.64 562.4 131.92C562.827 131.2 563.394 130.633 564.1 130.22C564.807 129.807 565.607 129.6 566.5 129.6C567.167 129.6 567.787 129.72 568.36 129.96C568.947 130.187 569.38 130.46 569.66 130.78V132.08C569.527 131.827 569.3 131.587 568.98 131.36C568.674 131.133 568.307 130.947 567.88 130.8C567.454 130.653 566.994 130.58 566.5 130.58C565.807 130.58 565.18 130.747 564.62 131.08C564.074 131.4 563.64 131.847 563.32 132.42C563 132.993 562.84 133.653 562.84 134.4ZM574.089 136.24C574.089 136.693 574.189 137.073 574.389 137.38C574.602 137.687 574.882 137.92 575.229 138.08C575.589 138.227 575.982 138.3 576.409 138.3C576.929 138.3 577.402 138.18 577.829 137.94C578.269 137.7 578.622 137.347 578.889 136.88C579.155 136.413 579.289 135.84 579.289 135.16L579.529 136.04C579.529 136.76 579.355 137.353 579.009 137.82C578.662 138.287 578.229 138.633 577.709 138.86C577.189 139.087 576.662 139.2 576.129 139.2C575.609 139.2 575.109 139.093 574.629 138.88C574.149 138.653 573.762 138.327 573.469 137.9C573.175 137.473 573.029 136.933 573.029 136.28C573.029 135.387 573.335 134.68 573.949 134.16C574.575 133.64 575.422 133.38 576.489 133.38C577.089 133.38 577.602 133.453 578.029 133.6C578.469 133.733 578.829 133.887 579.109 134.06C579.389 134.233 579.589 134.38 579.709 134.5V135.16C579.255 134.84 578.769 134.607 578.249 134.46C577.742 134.3 577.209 134.22 576.649 134.22C576.129 134.22 575.675 134.293 575.289 134.44C574.915 134.587 574.622 134.807 574.409 135.1C574.195 135.393 574.089 135.773 574.089 136.24ZM574.129 131.48L573.609 130.7C573.955 130.46 574.402 130.22 574.949 129.98C575.509 129.727 576.195 129.6 577.009 129.6C577.702 129.6 578.295 129.713 578.789 129.94C579.282 130.167 579.662 130.493 579.929 130.92C580.195 131.347 580.329 131.867 580.329 132.48V139H579.289V132.62C579.289 132.353 579.249 132.1 579.169 131.86C579.089 131.607 578.955 131.38 578.769 131.18C578.595 130.98 578.355 130.82 578.049 130.7C577.742 130.58 577.369 130.52 576.929 130.52C576.475 130.52 576.069 130.573 575.709 130.68C575.349 130.787 575.035 130.913 574.769 131.06C574.515 131.207 574.302 131.347 574.129 131.48ZM583.387 129.8H587.427V130.78H583.387V129.8ZM584.887 126.6H585.927V139H584.887V126.6ZM594.241 139.2C593.415 139.2 592.681 138.993 592.041 138.58C591.401 138.167 590.895 137.6 590.521 136.88C590.161 136.147 589.981 135.313 589.981 134.38C589.981 133.447 590.168 132.62 590.541 131.9C590.915 131.18 591.435 130.62 592.101 130.22C592.768 129.807 593.535 129.6 594.401 129.6C595.241 129.6 595.975 129.793 596.601 130.18C597.241 130.567 597.735 131.107 598.081 131.8C598.441 132.48 598.621 133.267 598.621 134.16C598.621 134.24 598.615 134.327 598.601 134.42C598.601 134.513 598.595 134.593 598.581 134.66H590.641V133.76H597.801L597.361 134.38C597.388 134.313 597.415 134.227 597.441 134.12C597.481 134 597.501 133.887 597.501 133.78C597.501 133.153 597.361 132.593 597.081 132.1C596.815 131.607 596.448 131.22 595.981 130.94C595.515 130.66 594.988 130.52 594.401 130.52C593.721 130.52 593.128 130.68 592.621 131C592.128 131.307 591.741 131.747 591.461 132.32C591.181 132.88 591.041 133.547 591.041 134.32C591.041 135.107 591.175 135.793 591.441 136.38C591.721 136.967 592.108 137.42 592.601 137.74C593.108 138.06 593.695 138.22 594.361 138.22C595.068 138.22 595.681 138.067 596.201 137.76C596.735 137.453 597.208 136.973 597.621 136.32L598.461 136.86C597.941 137.66 597.335 138.253 596.641 138.64C595.961 139.013 595.161 139.2 594.241 139.2Z" fill="#141414"/>
<path d="M520.448 158.59L519.513 159.882C518.935 159.304 517.677 158.505 516.657 158.029L517.541 156.856C518.544 157.281 519.836 157.995 520.448 158.59ZM519.598 162.959L518.68 164.268C518.085 163.707 516.827 162.959 515.79 162.517L516.657 161.327C517.677 161.718 518.952 162.398 519.598 162.959ZM518.986 165.73L520.227 166.682C519.462 168.484 518.493 170.524 517.643 172.122L516.232 171.187C517.014 169.878 518.153 167.685 518.986 165.73ZM526.432 168.416H528.727V167.379H526.432V168.416ZM522.862 167.379V168.416H524.936V167.379H522.862ZM524.936 165.305H522.862V166.291H524.936V165.305ZM528.727 165.305H526.432V166.291H528.727V165.305ZM524.46 161.14V162.075H526.976V161.14H524.46ZM524.46 159.117V160.018H526.976V159.117H524.46ZM531.447 168.416V169.674H530.24V170.813C530.24 171.527 530.053 171.884 529.543 172.105C529.016 172.309 528.2 172.309 527.01 172.309C526.908 171.935 526.67 171.408 526.5 171.068C527.316 171.102 528.166 171.102 528.387 171.085C528.642 171.068 528.727 171.017 528.727 170.796V169.674H522.862V172.292H521.383V169.674H519.938V168.416H521.383V164.149H524.936V163.35H520.091V162.075H522.947V161.14H521.111V160.018H522.947V159.117H520.737V157.961H522.947V156.72H524.46V157.961H526.976V156.72H528.489V157.961H530.869V159.117H528.489V160.018H530.58V161.14H528.489V162.075H531.362V163.35H526.432V164.149H530.24V168.416H531.447ZM547.988 162.143H545.455V163.367H547.988V162.143ZM552.017 163.367V162.143H549.348V163.367H552.017ZM549.348 165.798H552.017V164.523H549.348V165.798ZM545.455 165.798H547.988V164.523H545.455V165.798ZM545.455 166.988V169.64H544.044V160.953H548.447C547.529 160.528 546.509 160.069 545.642 159.746L546.645 158.896C547.325 159.117 548.107 159.423 548.855 159.763C549.518 159.423 550.198 158.981 550.759 158.573H544.146V157.366H552.187L552.493 157.281L553.445 158.046C552.578 158.879 551.405 159.712 550.198 160.358C550.657 160.562 551.065 160.766 551.405 160.953H553.445V168.229C553.445 168.926 553.292 169.266 552.833 169.47C552.374 169.691 551.66 169.691 550.606 169.691C550.555 169.317 550.368 168.824 550.198 168.484C550.895 168.501 551.558 168.501 551.745 168.501C551.966 168.484 552.017 168.433 552.017 168.229V166.988H549.348V169.606H547.988V166.988H545.455ZM542.667 159.304L541.443 160.171C541.001 159.474 540.049 158.301 539.284 157.468L540.457 156.737C541.239 157.553 542.174 158.624 542.667 159.304ZM542.514 164.761L543.296 165.05C543.058 166.478 542.718 167.719 542.242 168.79C543.33 170.456 545.302 170.711 548.209 170.711C549.994 170.711 552.578 170.626 554.38 170.456C554.159 170.796 553.955 171.51 553.87 171.935C552.221 172.037 550.079 172.088 548.192 172.088C544.979 172.088 542.939 171.748 541.63 169.997C541.018 171.034 540.27 171.799 539.42 172.377C539.216 172.071 538.689 171.527 538.383 171.306C539.981 170.32 541.137 168.535 541.698 166.036H540.032C539.607 166.036 539.148 166.155 539.012 166.291C538.927 165.934 538.638 165.237 538.485 164.948C538.723 164.88 539.012 164.761 539.318 164.421C539.658 164.081 540.542 162.908 541.222 161.922H538.74V160.647H542.225L542.429 160.562L543.432 161.021C542.769 161.973 541.579 163.639 540.644 164.795H542.259L542.514 164.761Z" fill="#141414"/>
<defs>
<linearGradient id="paint0_linear_3152_2043" x1="-2.08066e-05" y1="119" x2="238" y2="119" gradientUnits="userSpaceOnUse">
<stop stop-color="#6DCA1D"/>
<stop offset="1" stop-color="#4DB0FF"/>
</linearGradient>
<linearGradient id="paint1_linear_3152_2043" x1="208" y1="119" x2="446" y2="119" gradientUnits="userSpaceOnUse">
<stop stop-color="#6DCA1D"/>
<stop offset="1" stop-color="#4DB0FF"/>
</linearGradient>
<linearGradient id="paint2_linear_3152_2043" x1="416" y1="119" x2="654" y2="119" gradientUnits="userSpaceOnUse">
<stop stop-color="#6DCA1D"/>
<stop offset="1" stop-color="#4DB0FF"/>
</linearGradient>
</defs>
</svg>
