<svg width="318" height="81" viewBox="0 0 318 81" fill="none" xmlns="http://www.w3.org/2000/svg">
<path d="M301.864 50.769H252.468C251.324 50.769 250.4 49.8349 250.4 48.7013V14.0227C250.4 12.8787 251.335 11.955 252.468 11.955H301.864C303.008 11.955 303.932 12.8892 303.932 14.0227V48.7013C303.932 49.8454 302.998 50.769 301.864 50.769ZM252.468 12.9941C251.901 12.9941 251.45 13.4559 251.45 14.0122V48.6908C251.45 49.2576 251.912 49.7089 252.468 49.7089H301.864C302.431 49.7089 302.882 49.2471 302.882 48.6908V14.0122C302.882 13.4454 302.42 12.9941 301.864 12.9941H252.468Z" fill="#626262"/>
<g opacity="0.8">
<path d="M260.731 31.4984C260.983 31.236 261.193 30.9737 261.371 30.7218C261.55 30.4804 261.686 30.2284 261.77 29.9765C261.854 29.7246 261.907 29.4622 261.907 29.1893C261.907 28.9899 261.865 28.801 261.791 28.6016C261.718 28.4126 261.602 28.2342 261.445 28.0768C261.287 27.9193 261.109 27.7934 260.888 27.6989C260.668 27.6045 260.416 27.5625 260.132 27.5625C259.733 27.5625 259.397 27.6569 259.103 27.8354C258.82 28.0138 258.599 28.2867 258.442 28.633C258.285 28.9794 258.211 29.3783 258.211 29.8296H256.479C256.479 29.0844 256.615 28.4231 256.899 27.8459C257.182 27.2686 257.592 26.8173 258.148 26.4814C258.694 26.156 259.366 25.9881 260.164 25.9881C260.762 25.9881 261.287 26.0825 261.739 26.282C262.179 26.4709 262.557 26.7228 262.841 27.0272C263.135 27.3316 263.355 27.6674 263.492 28.0348C263.628 28.4022 263.712 28.759 263.712 29.1054C263.712 29.6512 263.586 30.176 263.324 30.6798C263.061 31.1836 262.715 31.6349 262.295 32.0338L259.345 34.9306H263.859V36.5575H255.933L260.741 31.4984H260.731Z" fill="url(#paint0_linear_5542_1972)"/>
<path d="M266.431 28.5386C266.778 27.7409 267.25 27.1111 267.859 26.6703C268.468 26.2295 269.172 25.9986 269.959 25.9986C270.746 25.9986 271.481 26.219 272.09 26.6703C272.699 27.1111 273.171 27.7409 273.507 28.5386C273.843 29.3363 274.011 30.2809 274.011 31.362C274.011 32.4431 273.843 33.3772 273.507 34.1749C273.171 34.9726 272.699 35.6023 272.09 36.0432C271.481 36.484 270.767 36.7149 269.959 36.7149C269.151 36.7149 268.468 36.4945 267.859 36.0432C267.25 35.5919 266.778 34.9726 266.431 34.1749C266.085 33.3772 265.917 32.4326 265.917 31.362C265.917 30.2914 266.085 29.3468 266.431 28.5386ZM267.807 32.8944C267.912 33.3562 268.069 33.7551 268.269 34.091C268.468 34.4268 268.72 34.6892 269.004 34.8676C269.287 35.0461 269.602 35.1405 269.948 35.1405C270.316 35.1405 270.641 35.0461 270.925 34.8676C271.208 34.6892 271.45 34.4268 271.649 34.091C271.849 33.7551 272.006 33.3562 272.111 32.8944C272.216 32.4326 272.279 31.9183 272.279 31.362C272.279 30.8057 272.227 30.3019 272.111 29.8296C271.996 29.3573 271.849 28.9689 271.649 28.6331C271.45 28.2972 271.208 28.0348 270.925 27.8564C270.641 27.6779 270.316 27.5835 269.948 27.5835C269.602 27.5835 269.287 27.6779 269.004 27.8564C268.72 28.0348 268.468 28.2972 268.269 28.6331C268.069 28.9689 267.912 29.3678 267.807 29.8296C267.702 30.2914 267.639 30.8057 267.639 31.362C267.639 31.9183 267.691 32.4221 267.807 32.8944Z" fill="url(#paint1_linear_5542_1972)"/>
<path d="M280.447 31.4984C280.699 31.236 280.909 30.9737 281.087 30.7218C281.266 30.4804 281.402 30.2284 281.486 29.9765C281.57 29.7246 281.623 29.4622 281.623 29.1893C281.623 28.9899 281.581 28.801 281.507 28.6016C281.434 28.4126 281.318 28.2342 281.161 28.0768C281.003 27.9193 280.825 27.7934 280.604 27.6989C280.384 27.6045 280.132 27.5625 279.848 27.5625C279.45 27.5625 279.114 27.6569 278.82 27.8354C278.536 28.0138 278.316 28.2867 278.158 28.633C278.001 28.9794 277.927 29.3783 277.927 29.8296H276.195C276.195 29.0844 276.331 28.4231 276.615 27.8459C276.898 27.2686 277.308 26.8173 277.864 26.4814C278.41 26.156 279.082 25.9881 279.88 25.9881C280.478 25.9881 281.003 26.0825 281.455 26.282C281.896 26.4709 282.274 26.7228 282.557 27.0272C282.851 27.3316 283.072 27.6674 283.208 28.0348C283.344 28.4022 283.428 28.759 283.428 29.1054C283.428 29.6512 283.302 30.176 283.04 30.6798C282.778 31.1836 282.431 31.6349 282.011 32.0338L279.061 34.9306H283.575V36.5575H275.649L280.457 31.4984H280.447Z" fill="url(#paint2_linear_5542_1972)"/>
<path d="M292.982 34.7417C292.772 35.1825 292.489 35.5604 292.121 35.8438C291.754 36.1377 291.344 36.3581 290.882 36.4945C290.42 36.6415 289.937 36.7149 289.434 36.7149C288.804 36.7149 288.237 36.631 287.754 36.463C287.271 36.2951 286.851 36.0747 286.494 35.7913C286.137 35.5079 285.822 35.2035 285.56 34.8781L286.588 33.6186C286.798 33.881 287.04 34.1329 287.323 34.3533C287.607 34.5738 287.911 34.7522 288.237 34.8887C288.562 35.0251 288.888 35.0881 289.213 35.0881C289.685 35.0881 290.084 35.0041 290.41 34.8467C290.735 34.6892 290.987 34.4583 291.155 34.1539C291.323 33.8495 291.418 33.4822 291.418 33.0728C291.418 32.6635 291.323 32.2857 291.124 31.9918C290.924 31.6979 290.662 31.467 290.326 31.3095C289.99 31.1521 289.623 31.0681 289.213 31.0681C288.919 31.0681 288.625 31.0891 288.331 31.1311C288.037 31.1731 287.743 31.2571 287.439 31.3725C287.134 31.488 286.809 31.6559 286.452 31.8763L287.859 26.1665H293.182V27.7094H289.171L288.52 30.0815C288.772 29.9555 289.045 29.8611 289.318 29.7981C289.591 29.7351 289.874 29.7037 290.168 29.7037C290.746 29.7037 291.271 29.8506 291.743 30.134C292.216 30.4174 292.594 30.8162 292.867 31.3305C293.139 31.8448 293.286 32.4536 293.286 33.1568C293.286 33.7551 293.181 34.2799 292.972 34.7312L292.982 34.7417Z" fill="url(#paint3_linear_5542_1972)"/>
</g>
<path d="M298.924 43.2959C298.63 43.2959 298.399 43.065 298.399 42.7711V19.9739C298.399 19.68 298.63 19.4491 298.924 19.4491C299.218 19.4491 299.449 19.68 299.449 19.9739V42.7711C299.449 43.065 299.218 43.2959 298.924 43.2959Z" fill="#626262"/>
<path d="M135.966 66.7543C135.672 68.4441 135.011 69.7771 133.226 70.5748C133.1 70.3334 132.838 69.966 132.586 69.7351V76.8094C132.586 77.3867 132.47 77.7645 132.082 77.9639C131.672 78.1529 131.095 78.1634 130.161 78.1634C130.098 77.859 129.919 77.3237 129.741 77.0298C130.434 77.0403 131.042 77.0403 131.221 77.0403C131.41 77.0298 131.483 76.9669 131.483 76.7779V74.4163H128.271C128.145 75.7598 127.84 77.1558 127.158 78.1949C126.959 78.0164 126.465 77.712 126.203 77.6071C127.169 76.0852 127.273 73.9545 127.273 72.3381V70.0395L127.148 70.197C126.927 69.9975 126.434 69.5777 126.161 69.3993C127.158 68.3182 127.924 66.6388 128.344 64.886L129.573 65.1589C129.468 65.5053 129.373 65.8516 129.258 66.198H130.78L130.969 66.1455L131.746 66.6389C131.515 67.2476 131.2 67.9403 130.874 68.5491H132.596V69.5882C133.972 68.9794 134.496 67.9718 134.727 66.7333H132.932V65.6207H139.231C139.231 65.6207 139.231 65.9356 139.221 66.0826C139.116 68.4232 138.99 69.3993 138.685 69.7456C138.486 70.008 138.234 70.1025 137.856 70.1445C137.552 70.1865 136.974 70.1865 136.397 70.1655C136.365 69.8191 136.25 69.3573 136.092 69.0529C136.596 69.1054 137.058 69.1054 137.268 69.1054C137.457 69.1159 137.573 69.0949 137.657 68.9794C137.814 68.8115 137.919 68.2132 137.992 66.7333H135.977L135.966 66.7543ZM128.838 67.2686C128.649 67.7199 128.449 68.1713 128.229 68.5701H129.709C129.898 68.1922 130.087 67.7199 130.245 67.2686H128.838ZM128.344 72.3801C128.344 72.716 128.344 73.0624 128.334 73.4192H129.447V71.9603H128.344V72.3801ZM128.344 70.9527H129.447V69.5777H128.344V70.9527ZM130.392 70.9527H131.473V69.5777H130.392V70.9527ZM131.473 73.4192V71.9603H130.392V73.4192H131.473ZM139.609 75.5919H136.974V78.1424H135.704V75.5919H132.838V74.4163H135.704V72.8524H134.287C134.087 73.3457 133.856 73.7761 133.604 74.1434C133.373 73.965 132.869 73.7236 132.586 73.6081C133.184 72.7999 133.604 71.6244 133.835 70.4279L134.948 70.6588C134.874 71.0051 134.79 71.3515 134.685 71.6979H135.704V70.3124H136.974V71.6979H139.336V72.8524H136.974V74.4163H139.609V75.5919Z" fill="#141414"/>
<path d="M156.921 72.1912H155.053L155.598 72.4221C155.357 72.8314 155.105 73.2723 154.874 73.6396H156.218V74.6367H153.667V75.4764H156.648V76.4945H153.667V78.2159H152.407V76.4945H149.509V75.4764H152.407V74.6367H149.898V73.6396H151.231C151.116 73.2828 150.895 72.8 150.706 72.4431L151.242 72.2017H149.131V71.2885H147.137V71.7819C147.63 72.1912 148.816 73.3038 149.121 73.6186L148.407 74.5423C148.134 74.1854 147.609 73.5766 147.137 73.0519V78.2159H145.992V73.1358C145.467 74.4688 144.816 75.8018 144.166 76.6415C144.04 76.2846 143.746 75.7703 143.546 75.4554C144.334 74.4688 145.215 72.7685 145.688 71.2885H143.662V70.1865H145.992V66.6074C145.331 66.7123 144.648 66.7858 144.019 66.8383C143.977 66.5654 143.819 66.177 143.672 65.8936C145.341 65.7152 147.305 65.4003 148.365 64.949L149.247 65.7992C148.648 66.0406 147.914 66.2295 147.137 66.3869V70.1655H149.278V71.1941H152.407V70.4279H150.013V69.4412H152.407V68.7275H149.551V65.4108H156.47V68.7275H153.656V69.4412H156.029V70.4279H153.656V71.1941H156.9V72.1807L156.921 72.1912ZM144.921 67.1531C145.226 67.9193 145.499 68.906 145.583 69.5567L144.596 69.9031C144.523 69.2418 144.25 68.2132 143.987 67.4575L144.911 67.1531H144.921ZM147.441 69.5987C147.735 68.864 148.082 67.6884 148.239 66.8802L149.352 67.3106C148.963 68.2132 148.585 69.2838 148.249 69.9451L147.441 69.5987ZM151.599 66.3869H150.654V67.8039H151.599V66.3869ZM153.845 73.6396C154.076 73.2198 154.339 72.6425 154.496 72.1912H151.714C151.945 72.6005 152.165 73.1043 152.26 73.4402L151.85 73.6396H153.835H153.845ZM152.491 67.8039H153.457V66.3869H152.491V67.8039ZM154.36 67.8039H155.357V66.3869H154.36V67.8039Z" fill="#141414"/>
<path d="M163.735 75.2665C163.378 76.1377 162.748 77.0928 162.202 77.6806C161.982 77.4916 161.52 77.1348 161.257 76.9563C161.793 76.421 162.297 75.6548 162.601 74.9306L163.735 75.2665ZM169.11 71.2885H161.289V70.2284H164.575C164.501 70.029 164.417 69.8401 164.312 69.6722L165.457 69.4308H161.971V65.4213H168.617V69.4308H165.604C165.751 69.6617 165.919 69.9555 166.034 70.2284H169.1V71.2885H169.11ZM165.877 74.7522V76.9143C165.877 77.5021 165.772 77.796 165.373 77.9744C164.974 78.1529 164.407 78.1634 163.619 78.1634C163.556 77.817 163.389 77.3657 163.21 77.0613C163.735 77.0718 164.228 77.0718 164.354 77.0718C164.512 77.0718 164.554 77.0298 164.554 76.8934V74.7522H162.118V71.8973H168.417V74.7522H165.866H165.877ZM163.242 67.0062H167.283V66.2925H163.242V67.0062ZM163.242 68.5701H167.283V67.8249H163.242V68.5701ZM163.389 73.839H167.126V72.8314H163.389V73.839ZM174.349 73.6186C173.247 75.5184 171.441 77.0928 169.499 78.1109C169.31 77.796 168.921 77.3762 168.617 77.1138L167.651 77.5966C167.43 77.0088 166.885 76.0642 166.423 75.3714L167.378 74.9516C167.84 75.6129 168.396 76.484 168.648 77.0508C170.412 76.2111 172.186 74.7942 173.089 73.1673L174.349 73.6291V73.6186ZM173.688 65.7152C172.701 67.0377 171.241 68.3077 169.898 69.1369C169.677 68.864 169.278 68.4546 168.942 68.2132C170.171 67.5205 171.64 66.345 172.417 65.2009L173.688 65.7257V65.7152ZM174.066 69.5987C173.026 71.0156 171.388 72.3381 169.898 73.2093C169.677 72.9049 169.289 72.5165 168.974 72.2541C170.349 71.5404 171.976 70.3124 172.837 69.0844L174.066 69.6092V69.5987Z" fill="#141414"/>
<path d="M189.078 71.8448V78.2159H187.671V73.1883H181.918C181.687 75.0251 181.089 76.8094 179.745 78.2683C179.525 77.9325 179.031 77.4391 178.727 77.2082C180.532 75.1825 180.742 72.4851 180.742 69.9871V65.1064H182.086V68.3602H187.188V64.928H188.574V69.7036H182.086V69.9766C182.086 70.5853 182.076 71.2046 182.044 71.8343H189.068L189.078 71.8448Z" fill="#141414"/>
<path d="M40.8392 52.5428C28.7659 52.5428 18.9498 42.7291 18.9498 30.6588C18.9498 18.5885 28.7659 8.77477 40.8392 8.77477C52.9125 8.77477 62.7286 18.5885 62.7286 30.6588C62.7286 42.7291 52.9125 52.5428 40.8392 52.5428ZM40.8392 9.83486C29.3539 9.83486 19.9997 19.1762 19.9997 30.6693C19.9997 42.1623 29.3434 51.5037 40.8392 51.5037C52.3351 51.5037 61.6788 42.1623 61.6788 30.6693C61.6788 19.1762 52.3351 9.83486 40.8392 9.83486Z" fill="#626262"/>
<path opacity="0.8" d="M41.6581 21.3699L43.9993 26.261C44.1358 26.5339 44.3982 26.7333 44.7027 26.7648L50.0779 27.4785C50.8338 27.5835 51.1383 28.5176 50.5818 29.0424L46.6554 32.7895C46.4349 32.9994 46.3299 33.3143 46.3929 33.6082L47.3693 38.9401C47.5058 39.6958 46.7079 40.2731 46.036 39.9057L41.2592 37.3237C40.9862 37.1767 40.6607 37.1767 40.3983 37.3237L35.6215 39.9057C34.9496 40.2731 34.1517 39.6958 34.2881 38.9401L35.2645 33.6082C35.317 33.3038 35.2225 32.9994 35.002 32.7895L31.0756 29.0424C30.5192 28.5176 30.8236 27.5835 31.5795 27.4785L36.9548 26.7648C37.2592 26.7228 37.5217 26.5339 37.6582 26.261L39.9993 21.3699C40.3248 20.6772 41.3117 20.6772 41.6371 21.3699H41.6581Z" fill="url(#paint4_linear_5542_1972)"/>
<path d="M169.887 48.082H148.123C140.082 48.082 133.541 41.5431 133.541 33.5032V27.8354C133.541 19.7955 140.082 13.2565 148.123 13.2565H169.887C177.929 13.2565 184.469 19.7955 184.469 27.8354V33.5032C184.469 41.5431 177.929 48.082 169.887 48.082ZM148.123 14.2956C140.659 14.2956 134.591 20.3623 134.591 27.8249V33.4927C134.591 40.9553 140.659 47.0219 148.123 47.0219H169.887C177.351 47.0219 183.419 40.9553 183.419 33.4927V27.8249C183.419 20.3623 177.351 14.2956 169.887 14.2956H148.123Z" fill="#626262"/>
<path opacity="0.8" d="M165.299 29.2838L156.449 22.8288C155.546 22.1675 154.286 22.8183 154.286 23.9309V37.3971C154.286 38.5097 155.556 39.1605 156.449 38.4992L165.299 32.0442C166.233 31.362 166.233 29.966 165.299 29.2838L156.449 22.8288C155.546 22.1675 154.286 22.8183 154.286 23.9309V37.3971C154.286 38.5097 155.556 39.1605 156.449 38.4992L165.299 32.0442C166.233 31.362 166.233 29.966 165.299 29.2838Z" fill="url(#paint5_linear_5542_1972)"/>
<path d="M8.72437 71.8658H13.9631V78.1109H12.6298V77.4602H9.99469V78.2159H8.72437V71.8763V71.8658ZM9.99469 73.1568V76.1691H12.6298V73.1568H9.99469ZM18.8554 70.4699H10.7611V65.5263H18.8554V70.4699ZM17.4801 66.8173H12.0524V69.1788H17.4801V66.8173ZM20.8816 71.8658V78.1319H19.5378V77.4496H16.6717V78.2054H15.3804V71.8658H20.8816ZM19.5378 76.1691V73.1568H16.6717V76.1691H19.5378Z" fill="#141414"/>
<path d="M28.955 64.9385H30.0678V69.9766H27.6217V70.6903C27.6217 71.0681 27.6217 71.446 27.6112 71.8658H30.0573V78.2159H28.829V73.0099H27.5692C27.4537 74.7942 27.2122 76.7149 26.6138 78.2159C26.3199 78.0899 25.7739 77.901 25.417 77.796C26.2674 75.7388 26.4039 72.7475 26.4039 70.6903V65.2639H27.6322V68.822H28.9655V64.9385H28.955ZM38.7606 75.34H36.3879V78.1949H35.1701V75.34H30.4668V74.1539H31.9261C31.7371 73.9755 31.5061 73.8076 31.3277 73.6921C32.0101 73.2408 32.535 72.737 32.9024 72.2122H30.9602V66.4079H32.9759C33.2069 65.9461 33.4589 65.3688 33.5743 64.949L35.0966 65.1484C34.8552 65.5997 34.6347 66.0301 34.4142 66.4079H38.0887V72.2122H34.2672C33.8998 72.8944 33.3854 73.5767 32.6715 74.1539H35.1596V72.5376H36.3774V74.1539H38.7501V75.34H38.7606ZM32.22 68.78H33.9628V67.4785H32.22V68.78ZM33.5218 71.1311C33.7213 70.6693 33.8368 70.2075 33.8998 69.8086H32.22V71.1311H33.5218ZM36.8184 69.8191H35.0966C35.0336 70.176 34.9181 70.6483 34.7607 71.1416H36.8184V69.8191ZM36.8184 67.4785H35.1491V68.78H36.8184V67.4785Z" fill="#141414"/>
<path d="M48.5138 68.4127H42.9811V67.3421H45.5637C45.3327 66.8068 44.8813 65.9776 44.5034 65.3898L45.5637 64.8545C45.9522 65.4633 46.4141 66.2295 46.6346 66.7543L45.5952 67.3421H48.5243V68.4127H48.5138ZM47.9049 69.9031C49.4062 69.0739 49.6476 67.9613 49.6476 66.9957V65.4318H54.225V68.6855C54.225 69.0949 54.2355 69.2313 54.4455 69.2313H55.1804C55.3588 69.2313 55.6633 69.1998 55.8313 69.1474C55.8628 69.4937 55.8943 69.9766 55.9362 70.2809C55.7578 70.3544 55.4533 70.3649 55.1804 70.3649H54.33C53.2171 70.3649 52.9862 69.8821 52.9862 68.6436V66.6703H50.8865V67.0167C50.8865 68.3497 50.5085 69.9136 48.7448 70.9212C48.5873 70.6588 48.1778 70.1865 47.9154 69.966V70.3124H43.611V69.2523H47.9154V69.8926L47.9049 69.9031ZM55.4638 71.5194C54.9704 73.2723 54.12 74.6367 53.0282 75.7073C53.952 76.2741 55.0439 76.6939 56.2407 76.9563C55.9677 77.2292 55.5898 77.796 55.4008 78.1739C54.0885 77.838 52.9442 77.3027 51.9363 76.5995C50.9075 77.3237 49.7211 77.8485 48.4613 78.2159C48.3458 77.9115 48.1254 77.4916 47.9154 77.1767V77.3762H44.7553V78.0269H43.6005V73.1358H47.9154V76.9878C48.9862 76.7149 50.0046 76.2951 50.897 75.7283C50.0571 74.8782 49.3642 73.8915 48.8393 72.7475L49.6266 72.4746H48.3038V71.2151H54.4035L54.6344 71.1731L55.4638 71.53V71.5194ZM43.611 71.1941H47.9364V72.2332H43.611V71.1941ZM46.75 74.2169H44.7658V76.2846H46.75V74.2169ZM50.0466 72.4641C50.498 73.4087 51.1279 74.2169 51.9468 74.9096C52.7027 74.2274 53.3221 73.4192 53.7736 72.4641H50.0571H50.0466Z" fill="#141414"/>
<path d="M66.6131 68.4127H60.6289V67.3421H63.327C63.0961 66.8068 62.6656 65.9776 62.2667 65.3898L63.327 64.8545C63.7365 65.4633 64.1774 66.2295 64.4084 66.7543L63.348 67.3421H66.6026V68.4127H66.6131ZM61.2483 69.2628H65.9936V70.3229H61.2483V69.2628ZM65.9727 72.2122H61.2483V71.1731H65.9727V72.2122ZM66.0041 77.3762H62.4976V78.0269H61.3428V73.1358H66.0041V77.3762ZM62.4976 74.2169V76.2846H64.8388V74.2169H62.4976ZM73.4896 71.1311H70.655V78.2053H69.2692V71.1311H66.5921V69.8086H69.2692V65.1904H70.655V69.8086H73.4896V71.1311Z" fill="#141414"/>
<path d="M249.56 70.9842C248.836 73.965 247.24 76.1482 245.445 77.3237C245.214 77.0298 244.689 76.5155 244.374 76.3161C245.854 75.4344 247.156 73.881 247.849 71.9288H244.689V70.6588H248.426L248.657 70.6168L249.56 70.9947V70.9842ZM257.308 69.8191C256.195 70.8582 254.788 72.0232 253.634 72.8209C254.673 74.3114 256.048 75.4869 257.822 76.1482C257.518 76.4211 257.098 76.9773 256.878 77.3342C254.599 76.3371 252.983 74.5738 251.87 72.2857V76.589C251.87 77.3552 251.691 77.7435 251.177 77.9639C250.642 78.1948 249.833 78.2054 248.647 78.2054C248.584 77.8275 248.374 77.2187 248.164 76.8619C248.962 76.8934 249.844 76.8934 250.085 76.8934C250.348 76.8829 250.421 76.8094 250.421 76.5575V69.1474H246.6V67.8564H251.87V69.0109C252.174 70.008 252.531 70.9527 253.004 71.7924C254.085 70.9632 255.303 69.8401 256.09 68.927L257.319 69.8296L257.308 69.8191ZM253.109 68.0348C251.954 67.3736 249.602 66.5129 247.838 66.0616L248.5 64.949C250.222 65.3373 252.594 66.1036 253.812 66.7753L253.098 68.0348H253.109Z" fill="#141414"/>
<path d="M263.471 74.4163C263.324 75.7598 263.061 77.1978 262.757 78.1214C262.526 77.9955 262.022 77.8485 261.739 77.775C262.074 76.8514 262.274 75.4869 262.4 74.2274L263.46 74.4163H263.471ZM265.822 73.8285C265.791 73.5976 265.738 73.3353 265.675 73.0309C262.967 73.4402 262.536 73.5347 262.242 73.6921C262.19 73.4507 262.011 72.8839 261.865 72.5796C262.169 72.4956 262.473 72.1492 262.893 71.5929C263.082 71.362 263.471 70.8057 263.912 70.1025C262.662 70.2494 262.347 70.3334 262.148 70.4174C262.085 70.1655 261.907 69.6197 261.77 69.3153C262.032 69.2628 262.253 68.9689 262.526 68.5176C262.82 68.0978 263.702 66.4499 264.195 64.886L265.329 65.3478C264.804 66.6493 264.111 67.9823 263.408 69.0634L264.626 68.9584C264.962 68.3182 265.308 67.6569 265.591 67.0062L266.631 67.615C265.822 69.2313 264.773 70.8792 263.702 72.2227L265.466 71.9918C265.35 71.5614 265.224 71.1101 265.088 70.7218L266.011 70.4804C266.347 71.4775 266.694 72.758 266.809 73.5032L265.822 73.8181V73.8285ZM264.762 74.1959C264.951 75.256 265.098 76.5995 265.14 77.5126L264.143 77.7015C264.132 76.7884 263.996 75.4134 263.838 74.3533L264.762 74.1959ZM266.022 73.839C266.295 74.6682 266.641 75.7703 266.778 76.4735L265.864 76.7674C265.738 76.0537 265.445 74.9411 265.151 74.0909L266.022 73.8496V73.839ZM272.248 76.1272C273.276 76.4945 274.358 76.9248 275.072 77.2397L274.526 78.1949C273.759 77.838 272.542 77.2817 271.46 76.8724L271.891 76.1167H269.549L270.347 76.8514C269.245 77.3552 267.838 77.8905 266.83 78.2683C266.725 78.0059 266.515 77.6071 266.326 77.3237C267.198 77.0298 268.458 76.5155 269.266 76.1062H267.156V71.8553H274.337V76.1062H272.269L272.248 76.1272ZM270.148 66.5444H266.589V65.6312H270.148V64.9175H271.471V65.6312H274.862V66.5444H271.471V67.1846H274.358V68.0558H267.156V67.1846H270.158V66.5444H270.148ZM266.662 68.5386H274.799V71.32H266.662V68.5386ZM267.775 70.4489H269.14V69.4098H267.775V70.4489ZM268.342 73.1463H273.077V72.6215H268.342V73.1463ZM268.342 74.2484H273.077V73.7131H268.342V74.2484ZM268.342 75.3925H273.077V74.8152H268.342V75.3925ZM271.429 70.4489V69.4098H270.169V70.4489H271.429ZM273.623 69.4098H272.447V70.4489H273.623V69.4098Z" fill="#141414"/>
<path d="M283.156 74.2589H285.623V75.4029H283.156V78.1529H281.906V75.4029H279.313V74.2589H281.906V72.8734H279.618V71.7294H280.835C280.73 71.2675 280.478 70.6168 280.216 70.1235L281.108 69.8506H279.313V68.7066H281.906V67.4575H279.733V66.324H281.906V64.9595H283.156V66.324H285.255V67.4575H283.156V68.7066H285.602V69.8506H284.006L284.951 70.092C284.678 70.6273 284.373 71.236 284.1 71.7294H285.329V72.8734H283.156V74.2589ZM281.234 69.8401C281.539 70.3649 281.812 71.0576 281.917 71.488L281.224 71.7189H282.935C283.25 71.1416 283.586 70.3859 283.785 69.8401H281.234ZM292.153 70.7113C291.848 72.3906 291.313 73.965 290.505 75.3295C291.145 76.0432 291.848 76.631 292.667 77.0403C292.363 77.2712 291.974 77.775 291.775 78.1109C291.04 77.6911 290.368 77.1138 289.78 76.4106C289.245 77.1243 288.604 77.7331 287.88 78.2159C287.754 78.0164 287.544 77.796 287.334 77.5966V78.1739H286.106V65.5682H291.827V68.3077C291.827 68.927 291.701 69.2838 291.208 69.4518C290.725 69.6512 289.99 69.6512 288.909 69.6512C288.846 69.3048 288.678 68.8115 288.499 68.4966C289.329 68.5281 290.095 68.5281 290.295 68.5071C290.526 68.4966 290.589 68.4546 290.589 68.2867V66.7543H287.344V70.4594H291.124L291.355 70.3964L292.184 70.7008L292.153 70.7113ZM287.313 77.0823C287.953 76.5995 288.52 76.0222 288.993 75.361C288.279 74.2694 287.722 72.9994 287.313 71.6244V77.0823ZM288.415 71.5509C288.73 72.5271 289.171 73.4297 289.686 74.2484C290.148 73.4087 290.484 72.4956 290.704 71.5509H288.415Z" fill="#141414"/>
<path d="M309.58 70.134V71.3935H296.94V70.134H302.882V68.1398H299.523C299.103 68.8325 298.672 69.4412 298.231 69.9346C297.937 69.7456 297.339 69.3888 297.003 69.2103C298.042 68.2237 298.956 66.6074 299.481 65.0225L300.824 65.3373C300.635 65.8621 300.415 66.3974 300.184 66.9012H302.882V64.928H304.299V66.9012H308.583V68.1293H304.299V70.1235H309.58V70.134ZM298.662 72.653H308.016V78.2683H306.609V77.5336H300.016V78.2998H298.651V72.653H298.662ZM300.027 73.902V76.2951H306.62V73.902H300.027Z" fill="#141414"/>
<defs>
<linearGradient id="paint0_linear_5542_1972" x1="308.866" y1="-2.16203" x2="270.375" y2="24.9369" gradientUnits="userSpaceOnUse">
<stop offset="0.11" stop-color="#6DCA1D"/>
<stop offset="1" stop-color="#4DB0FF"/>
</linearGradient>
<linearGradient id="paint1_linear_5542_1972" x1="311.775" y1="1.95243" x2="273.272" y2="29.0514" gradientUnits="userSpaceOnUse">
<stop offset="0.11" stop-color="#6DCA1D"/>
<stop offset="1" stop-color="#4DB0FF"/>
</linearGradient>
<linearGradient id="paint2_linear_5542_1972" x1="315.396" y1="7.11638" x2="276.905" y2="34.2047" gradientUnits="userSpaceOnUse">
<stop offset="0.11" stop-color="#6DCA1D"/>
<stop offset="1" stop-color="#4DB0FF"/>
</linearGradient>
<linearGradient id="paint3_linear_5542_1972" x1="318.241" y1="11.1469" x2="279.739" y2="38.2352" gradientUnits="userSpaceOnUse">
<stop offset="0.11" stop-color="#6DCA1D"/>
<stop offset="1" stop-color="#4DB0FF"/>
</linearGradient>
<linearGradient id="paint4_linear_5542_1972" x1="80.5341" y1="18.9348" x2="34.4476" y2="33.3207" gradientUnits="userSpaceOnUse">
<stop offset="0.11" stop-color="#6DCA1D"/>
<stop offset="1" stop-color="#4DB0FF"/>
</linearGradient>
<linearGradient id="paint5_linear_5542_1972" x1="194.537" y1="23.9204" x2="153.867" y2="30.977" gradientUnits="userSpaceOnUse">
<stop offset="0.11" stop-color="#6DCA1D"/>
<stop offset="1" stop-color="#4DB0FF"/>
</linearGradient>
</defs>
</svg>
