<svg xmlns="http://www.w3.org/2000/svg" width="43" height="10" viewBox="0 0 43 10" fill="none">
  <path d="M0 0.558511H2.80914C4.00248 0.558511 4.8866 0.926418 5.4615 1.66223C6.03639 2.38918 6.32384 3.51064 6.32384 5.0266C6.32384 6.17021 6.18883 7.09663 5.9188 7.80585C5.65748 8.51507 5.24373 9.03812 4.67755 9.375C4.11137 9.70301 3.36662 9.86702 2.4433 9.86702H0V0.558511ZM2.65235 9.04255C3.59309 9.04255 4.28122 8.7234 4.71675 8.08511C5.15227 7.43794 5.37004 6.41844 5.37004 5.0266C5.37004 3.75887 5.16534 2.83688 4.75594 2.26064C4.34655 1.67553 3.68891 1.38298 2.78301 1.38298H0.966868V9.04255H2.65235Z" fill="#9C9C9C"/>
  <path d="M13.6428 6.91489H8.88688C8.93914 7.65071 9.14384 8.21808 9.50097 8.61702C9.86681 9.01596 10.359 9.21543 10.9774 9.21543C11.3694 9.21543 11.7265 9.13121 12.0488 8.96277C12.3711 8.78546 12.6368 8.54167 12.8458 8.23138L13.3815 8.75C13.1289 9.14894 12.7892 9.45922 12.3624 9.68085C11.9443 9.89362 11.4739 10 10.9513 10C10.0192 10 9.28756 9.69858 8.75622 9.09574C8.23359 8.48404 7.97227 7.63741 7.97227 6.55585C7.97227 5.47429 8.22923 4.62766 8.74315 4.01596C9.26578 3.39539 9.9844 3.08511 10.899 3.08511C11.7613 3.08511 12.4321 3.38209 12.9111 3.97606C13.3989 4.57004 13.6428 5.39894 13.6428 6.46277V6.91489ZM12.8066 6.09043C12.8066 5.39894 12.6324 4.85372 12.284 4.45479C11.9356 4.04699 11.4652 3.84309 10.8729 3.84309C10.2806 3.84309 9.81019 4.04699 9.46177 4.45479C9.12206 4.86259 8.93043 5.44326 8.88688 6.19681H12.8066V6.09043Z" fill="#9C9C9C"/>
  <path d="M18.1344 10C17.1937 10 16.4576 9.69858 15.9263 9.09574C15.4036 8.48404 15.1423 7.63298 15.1423 6.54255C15.1423 5.45213 15.4036 4.6055 15.9263 4.00266C16.4576 3.39096 17.1937 3.08511 18.1344 3.08511C18.6657 3.08511 19.1361 3.19149 19.5455 3.40426C19.9549 3.60816 20.2815 3.91401 20.5254 4.32181L19.9767 4.84043C19.785 4.52128 19.5281 4.27748 19.2058 4.10904C18.8835 3.93174 18.5351 3.84309 18.1605 3.84309C17.4985 3.84309 16.9802 4.08245 16.6057 4.56117C16.2398 5.03103 16.0569 5.69149 16.0569 6.54255C16.0569 7.38475 16.2398 8.04521 16.6057 8.52394C16.9802 9.00266 17.4985 9.24202 18.1605 9.24202C18.5351 9.24202 18.8835 9.1578 19.2058 8.98936C19.5281 8.81206 19.785 8.56383 19.9767 8.24468L20.5254 8.7633C20.2815 9.1711 19.9549 9.48138 19.5455 9.69415C19.1361 9.89805 18.6657 10 18.1344 10Z" fill="#9C9C9C"/>
  <path d="M23.5802 10C22.7004 10 22.2605 9.44592 22.2605 8.33777V0H23.1751V8.32447C23.1751 8.67908 23.223 8.9273 23.3188 9.06915C23.4234 9.21099 23.6019 9.28191 23.8545 9.28191C24.0288 9.28191 24.2378 9.23316 24.4817 9.13564L24.6385 9.70745C24.3249 9.90248 23.9721 10 23.5802 10Z" fill="#9C9C9C"/>
  <path d="M27.1218 1.92819C26.9128 1.92819 26.7429 1.86614 26.6122 1.74202C26.4903 1.61791 26.4293 1.4539 26.4293 1.25C26.4293 1.03723 26.4903 0.868794 26.6122 0.744681C26.7429 0.620567 26.9128 0.558511 27.1218 0.558511C27.3309 0.558511 27.4964 0.620567 27.6183 0.744681C27.749 0.868794 27.8143 1.03723 27.8143 1.25C27.8143 1.4539 27.749 1.61791 27.6183 1.74202C27.4964 1.86614 27.3309 1.92819 27.1218 1.92819ZM26.6645 3.21809H27.5791V9.86702H26.6645V3.21809Z" fill="#9C9C9C"/>
  <path d="M30.0398 4.86702C30.0398 4.08688 30.0267 3.53723 30.0006 3.21809H30.8237C30.8586 3.5195 30.876 3.9406 30.876 4.48138H30.9152C31.1068 4.05585 31.4073 3.71897 31.8167 3.47074C32.2261 3.21365 32.6747 3.08511 33.1625 3.08511C33.9203 3.08511 34.4908 3.33777 34.8741 3.84309C35.2574 4.3484 35.449 5.09752 35.449 6.09043V9.86702H34.5475V6.07713C34.5475 5.32358 34.4212 4.76507 34.1686 4.4016C33.9159 4.02926 33.5327 3.84309 33.0188 3.84309C32.6268 3.84309 32.274 3.94947 31.9604 4.16223C31.6469 4.36613 31.3986 4.64982 31.2157 5.0133C31.0415 5.37677 30.9544 5.78457 30.9544 6.2367V9.86702H30.0398V4.86702Z" fill="#9C9C9C"/>
  <path d="M43 6.91489H38.2441C38.2963 7.65071 38.501 8.21808 38.8581 8.61702C39.224 9.01596 39.7161 9.21543 40.3346 9.21543C40.7266 9.21543 41.0837 9.13121 41.406 8.96277C41.7283 8.78546 41.9939 8.54167 42.203 8.23138L42.7387 8.75C42.4861 9.14894 42.1464 9.45922 41.7196 9.68085C41.3014 9.89362 40.8311 10 40.3084 10C39.3764 10 38.6447 9.69858 38.1134 9.09574C37.5908 8.48404 37.3294 7.63741 37.3294 6.55585C37.3294 5.47429 37.5864 4.62766 38.1003 4.01596C38.623 3.39539 39.3416 3.08511 40.2562 3.08511C41.1185 3.08511 41.7892 3.38209 42.2683 3.97606C42.7561 4.57004 43 5.39894 43 6.46277V6.91489ZM42.1638 6.09043C42.1638 5.39894 41.9896 4.85372 41.6412 4.45479C41.2927 4.04699 40.8224 3.84309 40.2301 3.84309C39.6377 3.84309 39.1674 4.04699 38.819 4.45479C38.4792 4.86259 38.2876 5.44326 38.2441 6.19681H42.1638V6.09043Z" fill="#9C9C9C"/>
</svg>