<svg xmlns="http://www.w3.org/2000/svg" width="70" height="14" viewBox="0 0 70 14" fill="none">
  <path d="M0 13.3145H2.66167V8.18448H7.13192V5.91334H2.66167V2.71706H7.89023V0.449707H0V13.3145Z" fill="#626262"/>
  <path d="M18.3628 7.71049C18.3892 8.41241 18.2903 9.11341 18.0709 9.78066C17.9282 10.2263 17.6415 10.6118 17.2557 10.8765C16.874 11.1021 16.4363 11.215 15.9931 11.2025C15.5561 11.2131 15.1251 11.1001 14.7495 10.8765C14.3664 10.6132 14.0853 10.2264 13.9533 9.78066C13.7487 9.11037 13.6564 8.41088 13.6802 7.71049V0.445801H10.9996V7.45259C10.9832 8.38466 11.0943 9.31462 11.3295 10.2167C11.5069 10.9133 11.8387 11.5612 12.3002 12.1124C12.7268 12.5995 13.2674 12.9734 13.8737 13.2007C14.553 13.4454 15.2711 13.5647 15.9931 13.5532C16.7114 13.5654 17.426 13.446 18.1012 13.2007C18.7019 12.9729 19.2362 12.5989 19.6558 12.1124C20.1111 11.5598 20.4362 10.9119 20.6074 10.2167C20.8381 9.3139 20.9465 8.38422 20.9297 7.45259V0.445801H18.3628V7.71049Z" fill="#626262"/>
  <path d="M23.8638 2.71706H27.4203V13.3145H30.0819V2.71706H33.6384V0.449707H23.8638V2.71706Z" fill="#626262"/>
  <path d="M43.9175 7.71049C43.943 8.41208 43.8456 9.11271 43.6294 9.78066C43.4856 10.2267 43.1974 10.6122 42.8104 10.8765C42.4287 11.1021 41.991 11.215 41.5478 11.2025C41.1108 11.2131 40.6798 11.1001 40.3042 10.8765C39.9211 10.6132 39.64 10.2264 39.508 9.78066C39.3034 9.11037 39.2113 8.41088 39.2351 7.71049V0.445801H36.5543V7.45259C36.5379 8.38466 36.6489 9.31462 36.8842 10.2167C37.0633 10.9127 37.3949 11.5602 37.8549 12.1124C38.2815 12.5995 38.822 12.9734 39.4284 13.2007C40.1078 13.445 40.8258 13.5644 41.5478 13.5532C42.2661 13.5657 42.9807 13.4463 43.6559 13.2007C44.2571 12.9739 44.7917 12.5997 45.2105 12.1124C45.6658 11.5598 45.9911 10.9119 46.1623 10.2167C46.393 9.3139 46.5012 8.38422 46.4844 7.45259V0.445801H43.9175V7.71049Z" fill="#626262"/>
  <path d="M52.6266 0.445801L48.6038 13.3143H51.3223L52.1754 10.1182H56.1754L57.0172 13.3143H59.8342L55.8114 0.445801H52.6266ZM52.7402 8.00615L53.0929 6.68299C53.2749 6.02705 53.4721 5.33311 53.6276 4.60892C53.783 3.88474 53.9649 3.18328 54.1204 2.5008H54.2C54.382 3.18328 54.5792 3.88853 54.7347 4.60892C54.8901 5.32932 55.0874 6.02705 55.2693 6.68299L55.6181 8.00615H52.7402Z" fill="#626262"/>
  <path d="M64.908 11.0471V0.449707H62.2463V13.3145H70.0001V11.0471H64.908Z" fill="#626262"/>
</svg>