<svg width="66" height="48" viewBox="0 0 66 48" fill="none" xmlns="http://www.w3.org/2000/svg">
<g clip-path="url(#clip0_2761_3419)">
<path d="M62.8647 1.54972C63.064 1.3823 63.3153 1.28932 63.5756 1.28667C63.7535 1.28505 63.9291 1.32652 64.0875 1.40753C64.2889 1.49994 64.4584 1.64981 64.5748 1.8383C64.6911 2.02679 64.7492 2.24548 64.7417 2.46687L64.3506 22.7865C64.3492 23.0125 64.281 23.233 64.1544 23.4202C64.0279 23.6075 63.8488 23.7531 63.6396 23.8387C63.4328 23.9273 63.2045 23.9529 62.9832 23.9124C62.7619 23.872 62.5575 23.7672 62.3954 23.6112L56.7076 18.2149C56.3498 17.8746 55.8952 17.6535 55.4066 17.5822L47.6498 16.4304C47.4273 16.3988 47.2189 16.3025 47.0507 16.1533C46.8826 16.0041 46.7621 15.8087 46.7043 15.5914C46.6428 15.3739 46.6471 15.143 46.7167 14.9279C46.7863 14.7128 46.918 14.5231 47.0953 14.3828L62.8647 1.54972Z" fill="#6DCA1D"/>
<path d="M63.1917 25.1401C63.5137 25.1414 63.8328 25.0786 64.1302 24.9553C64.5637 24.7787 64.9352 24.478 65.1983 24.091C65.4614 23.7039 65.6043 23.2477 65.609 22.7797L66 2.46008C66.0141 2.00011 65.8939 1.54601 65.654 1.15331C65.4141 0.760616 65.0649 0.446352 64.6492 0.248953C64.2367 0.0467635 63.7748 -0.0325802 63.3185 0.020362C62.8622 0.0733042 62.4307 0.256299 62.0755 0.54756L46.3203 13.3451C45.9549 13.6368 45.6837 14.0299 45.5408 14.4751C45.3979 14.9203 45.3896 15.3978 45.5169 15.8477C45.6363 16.3002 45.8871 16.7071 46.2376 17.0171C46.5881 17.3272 47.0226 17.5264 47.4863 17.5896L55.2359 18.7414C55.4709 18.7767 55.6893 18.8834 55.8616 19.0471L61.5494 24.4434C61.9863 24.879 62.5748 25.1287 63.1917 25.1401ZM63.5899 1.25143C63.7678 1.24981 63.9434 1.29128 64.1017 1.37229C64.3031 1.4647 64.4726 1.61457 64.589 1.80306C64.7054 1.99155 64.7634 2.21025 64.7558 2.43164L64.3648 22.7512C64.3634 22.9772 64.2951 23.1977 64.1686 23.385C64.0421 23.5723 63.863 23.7179 63.6538 23.8035C63.447 23.892 63.2187 23.9176 62.9974 23.8772C62.7762 23.8367 62.5717 23.7319 62.4096 23.576L56.7218 18.1797C56.364 17.8393 55.9095 17.6183 55.4208 17.5469L47.6641 16.3951C47.4415 16.3636 47.2331 16.2672 47.065 16.118C46.8968 15.9689 46.7762 15.7734 46.7184 15.5562C46.6569 15.3386 46.6613 15.1078 46.7309 14.8927C46.8005 14.6776 46.9322 14.4879 47.1095 14.3475L62.8647 1.55003C63.0627 1.36661 63.3201 1.26061 63.5899 1.25143Z" fill="white" fill-opacity="0.8"/>
</g>
<rect y="23.1401" width="58" height="24" rx="12" fill="#6DCA1D"/>
<path d="M12.472 39.1401V30.3321H13.612L17.356 35.8401L18.544 37.7121H18.604C18.52 36.8241 18.472 35.8161 18.472 34.9041V30.3321H19.528V39.1401H18.388L14.632 33.6321L13.456 31.7601H13.396C13.456 32.6481 13.516 33.5961 13.516 34.5321V39.1401H12.472ZM29.344 39.2961C26.692 39.2961 24.832 37.5801 24.832 34.7481C24.832 31.9401 26.752 30.1761 29.392 30.1761C30.82 30.1761 31.708 30.7401 32.296 31.2801L31.648 32.0001C31.132 31.5321 30.46 31.1481 29.416 31.1481C27.388 31.1481 25.972 32.5281 25.972 34.7241C25.972 36.9201 27.292 38.3241 29.452 38.3241C30.196 38.3241 30.964 38.1201 31.372 37.8081V35.5161H29.14V34.5921H32.392V38.2761C31.744 38.8641 30.748 39.2961 29.344 39.2961ZM41.44 39.2841C38.932 39.2841 37.168 37.5321 37.168 34.7001C37.168 31.8921 38.92 30.1881 41.44 30.1881C43.948 30.1881 45.688 31.8921 45.688 34.7001C45.688 37.5321 43.984 39.2841 41.44 39.2841ZM41.44 38.3241C43.3 38.3241 44.548 36.9081 44.548 34.7001C44.548 32.5041 43.312 31.1481 41.44 31.1481C39.556 31.1481 38.32 32.5041 38.32 34.7001C38.32 36.9081 39.568 38.3241 41.44 38.3241Z" fill="white"/>
<defs>
<clipPath id="clip0_2761_3419">
<rect width="20.5756" height="25.14" fill="white" transform="matrix(-1 0 0 1 66 0)"/>
</clipPath>
</defs>
</svg>
