<svg width="25" height="25" viewBox="0 0 25 25" fill="none" xmlns="http://www.w3.org/2000/svg">
<path d="M13.6886 3.22446L14.8975 6.6705C15.1787 7.47228 15.6215 8.20041 16.1956 8.80474C16.7697 9.40907 17.4615 9.87522 18.2232 10.1712L21.4968 11.4436C21.6992 11.5248 21.8734 11.6688 21.9963 11.8566C22.1192 12.0443 22.1851 12.2669 22.1851 12.4949C22.1851 12.7229 22.1192 12.9456 21.9963 13.1333C21.8734 13.321 21.6992 13.4651 21.4968 13.5462L18.2232 14.8187C17.4615 15.1146 16.7697 15.5808 16.1956 16.1851C15.6215 16.7895 15.1787 17.5176 14.8975 18.3194L13.6886 21.7654C13.6137 21.9808 13.4776 22.1668 13.299 22.2982C13.1204 22.4296 12.9079 22.5 12.69 22.5C12.4721 22.5 12.2594 22.4296 12.0807 22.2982C11.9021 22.1668 11.766 21.9808 11.6911 21.7654L10.4822 18.3194C10.2005 17.5179 9.75744 16.7901 9.18341 16.1859C8.60937 15.5817 7.91811 15.1153 7.15677 14.8187L3.88298 13.5462C3.67836 13.4674 3.50165 13.3242 3.37683 13.1362C3.25201 12.9481 3.18506 12.7243 3.18506 12.4949C3.18506 12.2655 3.25201 12.0417 3.37683 11.8537C3.50165 11.6656 3.67836 11.5225 3.88298 11.4436L7.15677 10.1712C7.91811 9.87458 8.60937 9.40818 9.18341 8.80394C9.75744 8.1997 10.2005 7.47192 10.4822 6.6705L11.6911 3.22446C11.7682 3.0114 11.9052 2.82804 12.0835 2.69866C12.2619 2.56929 12.4734 2.5 12.69 2.5C12.9066 2.5 13.1181 2.56929 13.2965 2.69866C13.4748 2.82804 13.6115 3.0114 13.6886 3.22446Z" fill="url(#paint0_linear_1689_2367)"/>
<defs>
<linearGradient id="paint0_linear_1689_2367" x1="3.18506" y1="12.5" x2="22.1851" y2="12.5" gradientUnits="userSpaceOnUse">
<stop stop-color="#40D0CE"/>
<stop offset="1" stop-color="#6DCA1D"/>
</linearGradient>
</defs>
</svg>
