<svg width="318" height="81" viewBox="0 0 318 81" fill="none" xmlns="http://www.w3.org/2000/svg">
<path d="M251.912 73.4087C253.088 74.5947 255.303 75.8122 257.833 76.3055C257.56 76.5994 257.172 77.1452 256.983 77.4916C254.925 76.9668 253.13 75.8962 251.912 74.8256V77.9849H250.474V74.7836C249.098 76.0536 247.24 77.0403 245.35 77.5651C245.172 77.2292 244.783 76.7149 244.51 76.4315C246.883 75.9067 249.214 74.7207 250.474 73.2302V72.0862H247.261V74.7521H245.844V70.9421H250.474V69.9975H244.867V68.8219H250.474V67.9718H251.649C251.408 67.7514 250.998 67.4365 250.746 67.279C251.534 66.6283 252.195 65.6312 252.542 64.5816L253.77 64.886C253.686 65.1484 253.571 65.3898 253.466 65.6522H257.623V66.7123H254.788C255.25 67.0586 255.754 67.51 256.048 67.8248L255.135 68.6225C254.82 68.2342 254.18 67.6359 253.655 67.2161L254.274 66.7123H252.867C252.552 67.1951 252.206 67.6254 251.838 67.9718H251.901V68.8219H257.277V69.9975H251.901V70.9421H256.489V73.4926C256.489 74.1014 256.363 74.3743 255.943 74.5527C255.492 74.7311 254.883 74.7416 254.085 74.7416C254.001 74.3953 253.781 73.9754 253.623 73.6711C254.159 73.7025 254.736 73.7026 254.883 73.6816C255.061 73.6816 255.114 73.6396 255.114 73.4926V72.0862H251.901V73.3982L251.912 73.4087ZM246.904 66.7228C246.442 67.447 245.938 68.0977 245.424 68.591C245.235 68.3706 244.773 67.9088 244.51 67.7094C245.361 66.9432 246.18 65.7676 246.621 64.5921L247.828 64.9384C247.723 65.1799 247.628 65.4213 247.492 65.6627H250.956V66.7228H248.521C248.951 67.1006 249.413 67.5624 249.676 67.8668L248.804 68.633C248.51 68.2447 247.891 67.6149 247.418 67.1741L247.954 66.7228H246.894H246.904Z" fill="#141414"/>
<path d="M264.605 68.9059V69.5881C264.605 72.0652 264.384 75.6548 262.893 78.0164C262.631 77.796 262.043 77.4496 261.686 77.3236C263.124 75.0985 263.25 71.8972 263.25 69.5881V65.3793H274.127V68.9164H264.594L264.605 68.9059ZM264.605 66.5338V67.7619H272.783V66.5338H264.605ZM274.305 74.4058C273.665 74.8886 272.888 75.3609 272.206 75.7073C273.014 76.2531 273.99 76.6519 275.135 76.8828C274.841 77.1452 274.494 77.6385 274.326 77.9954C271.775 77.3551 270.064 75.9067 269.087 73.734H267.334V76.379L270.148 75.7807C270.085 76.1271 270.043 76.6309 270.064 76.9143C266.641 77.691 266.179 77.8274 265.896 78.0164C265.812 77.7015 265.56 77.1662 265.361 76.9143C265.654 76.7569 266.095 76.379 266.095 75.7073V73.7235H264.657V72.59H267.03V71.299H265.014V70.1549H267.03V68.8954H268.258V70.1549H270.841V68.8954H272.101V70.1549H274.379V71.299H272.101V72.59H274.967V73.7235H273.35L274.316 74.3848L274.305 74.4058ZM268.248 72.611H270.83V71.32H268.248V72.611ZM270.368 73.7445C270.631 74.2273 270.967 74.6577 271.355 75.0355C272.017 74.6577 272.772 74.1539 273.266 73.7445H270.368Z" fill="#141414"/>
<path d="M281.917 71.3724C281.318 70.9631 280.121 70.2704 279.25 69.819L279.985 68.8219C280.814 69.2313 282.043 69.861 282.652 70.2599L281.917 71.3724ZM279.544 76.9143C280.31 75.8332 281.423 73.9754 282.263 72.3381L283.229 73.2407C282.494 74.7311 281.518 76.4735 280.667 77.8169L279.533 76.9143H279.544ZM282.599 67.4575C282.001 67.0376 280.804 66.3449 279.953 65.8621L280.709 64.907C281.549 65.3163 282.778 65.967 283.407 66.3659L282.61 67.447L282.599 67.4575ZM288.615 70.1969V72.3381H291.596V77.9114H290.326V77.3761H285.528V77.9849H284.3V72.3381H287.344V70.1969H283.323V68.9059H287.344V66.8487C286.326 67.0061 285.287 67.1216 284.331 67.1951C284.268 66.8802 284.1 66.3659 283.943 66.0615C286.42 65.7991 289.224 65.3373 290.819 64.7495L291.88 65.7886C290.956 66.135 289.822 66.4079 288.625 66.6283V68.9059H292.468V70.1969H288.625H288.615ZM290.326 73.5556H285.528V76.1586H290.326V73.5556Z" fill="#141414"/>
<path d="M309.58 68.0138C309.58 68.0138 309.57 68.4756 309.57 68.633C309.412 74.6157 309.276 76.6729 308.814 77.2922C308.541 77.7225 308.236 77.838 307.785 77.9114C307.355 77.9744 306.683 77.9744 306 77.9219C305.969 77.5651 305.822 77.0088 305.622 76.6519C306.284 76.7149 306.882 76.7149 307.145 76.7149C307.386 76.7149 307.522 76.6729 307.669 76.484C307.984 76.0746 308.131 74.2379 308.247 69.2628H306.536C306.347 73.1148 305.696 76.1796 303.208 78.1004C303.008 77.796 302.557 77.3132 302.242 77.1032C302.326 77.0508 302.42 76.9773 302.504 76.9038C300.415 77.1452 298.336 77.3656 296.782 77.5126L296.604 76.3685C297.444 76.3056 298.483 76.2216 299.628 76.1271V75.0251H296.992V74.0384H299.628V73.3037H297.034V68.9479H299.628V68.1922H296.646V67.1951H299.628V66.3869C298.746 66.4604 297.864 66.5023 297.045 66.5338C297.003 66.2609 296.856 65.8201 296.73 65.5682C298.872 65.4528 301.433 65.1904 302.945 64.8545L303.586 65.8726C302.819 66.03 301.864 66.177 300.866 66.2819V67.2056H303.795V68.0452H305.318C305.328 67.0586 305.328 66.03 305.328 64.949H306.62C306.62 66.0195 306.609 67.0586 306.588 68.0452H309.58V68.0138ZM298.137 70.6902H299.628V69.8086H298.137V70.6902ZM299.638 72.4011V71.5194H298.147V72.4011H299.638ZM300.866 75.9907C301.769 75.9067 302.693 75.8122 303.607 75.7178C304.793 74.0804 305.16 71.8973 305.276 69.2628H303.743V68.1817H300.877V68.9374H303.575V73.2932H300.877V74.0279H303.596V75.0145H300.877V76.0012L300.866 75.9907ZM302.41 70.6902V69.8086H300.856V70.6902H302.41ZM300.866 71.5089V72.3906H302.42V71.5089H300.866Z" fill="#141414"/>
<path d="M20.3671 68.6645C20.1257 70.8477 19.6847 72.632 18.9603 74.1119C19.6007 75.3399 20.4406 76.3161 21.5535 76.9038C21.2805 77.1452 20.892 77.6175 20.7031 77.9639C19.6847 77.3237 18.8973 76.4105 18.2884 75.2875C17.4905 76.4315 16.4512 77.3342 15.0759 78.0479C14.9919 77.859 14.7819 77.5231 14.5929 77.2712L14.2045 77.6176C13.7426 77.3447 13.1022 77.0403 12.4093 76.7464C11.5589 77.2292 10.341 77.6595 8.59829 77.9954C8.5143 77.733 8.25184 77.3447 8.05237 77.1137C9.39618 76.8828 10.3935 76.5784 11.1494 76.2426C10.4565 75.9907 9.76363 75.7808 9.12322 75.6023C9.38568 75.2665 9.66914 74.8466 9.9526 74.4163H8.26234V73.4612H10.5405C10.6875 73.1883 10.8345 72.9259 10.9605 72.6635H8.89225V70.2494H11.5169V69.7036H9.17571V68.1082H8.18885V67.1111H9.17571V65.6207H11.5169V64.718H12.5562V65.6207H15.0444V67.1111H15.8423V68.1082H15.0444V69.7036H12.5562V70.2494H15.3068V70.9421C16.1992 69.3363 16.8396 67.0376 17.2281 64.718L18.3619 64.9385C18.2044 65.7886 18.0155 66.6493 17.795 67.489H21.4485V68.675H20.3881L20.3671 68.6645ZM9.98409 71.8448H11.4854V71.0471H9.98409V71.8448ZM10.1836 66.5024V67.1636H11.4854V66.5024H10.1836ZM11.4854 68.7905V68.0243H10.1836V68.7905H11.4854ZM11.1704 74.4058C11.0234 74.6472 10.866 74.8886 10.74 75.0985C11.2334 75.2455 11.7373 75.4134 12.2308 75.5918C12.7662 75.214 13.0287 74.7941 13.1756 74.4058H11.1809H11.1704ZM14.299 74.4058C14.173 74.9411 13.9105 75.5079 13.3541 76.0432C13.9315 76.2741 14.4565 76.526 14.8869 76.7674C16.1362 76.0851 17.0286 75.193 17.7005 74.0489C17.2806 73.0203 16.9761 71.8658 16.7136 70.6168C16.4932 71.1416 16.2622 71.6139 16.0207 72.0547C15.8633 71.8763 15.5378 71.5614 15.2858 71.362V72.6635H12.1468C12.0208 72.9259 11.8738 73.1883 11.7268 73.4612H13.3226V72.9679H14.3935V73.4612H15.7268V74.4163H14.3095L14.299 74.4058ZM12.5247 66.5024V67.1636H13.942V66.5024H12.5247ZM13.9525 68.7905V68.0243H12.5352V68.7905H13.9525ZM12.5247 71.0471V71.8448H14.0995V71.0471H12.5247ZM17.4275 68.6645L17.3855 68.78C17.606 70.1864 17.921 71.5194 18.3409 72.6845C18.7713 71.5404 19.0338 70.2074 19.2123 68.6645H17.4275Z" fill="#141414"/>
<path d="M30.1937 65.1589C29.8157 66.177 29.3223 67.1846 28.7869 68.1607V77.9744H27.4221V70.2704C27.0441 70.8057 26.6452 71.2885 26.2358 71.7083C26.1098 71.3935 25.7108 70.6692 25.4799 70.3439C26.8552 69.0004 28.1465 66.8802 28.9129 64.7705L30.1832 65.1589H30.1937ZM38.666 76.1166V77.4076H29.6583V76.1166H34.6871C35.212 74.2064 35.7474 71.278 35.9889 69.1578L37.3957 69.3887C37.0072 71.5719 36.4508 74.2693 35.9364 76.1166H38.6765H38.666ZM38.1306 68.5491H30.2357V67.2476H38.1306V68.5491ZM32.0624 75.5708C31.9469 74.0699 31.5585 71.4879 31.1491 69.5147L32.3564 69.2418C32.8078 71.194 33.2488 73.7131 33.3957 75.1825L32.0624 75.5708ZM33.7107 67.1636C33.6057 66.5548 33.3222 65.5997 33.0493 64.8755L34.3196 64.5606C34.5926 65.2743 34.897 66.1665 35.044 66.7857L33.7107 67.1636Z" fill="#141414"/>
<path d="M55.2747 76.3475C55.2747 77.1137 55.1172 77.5336 54.5818 77.754C54.0464 77.9744 53.175 77.9849 51.9572 77.9849C51.8942 77.5966 51.6842 76.9878 51.4742 76.6099C52.3561 76.6519 53.301 76.6414 53.5634 76.6414C53.8259 76.6309 53.9099 76.5575 53.9099 76.3371V73.4717C53.6054 73.7341 53.175 74.2693 52.9545 74.6262C51.2432 73.7026 50.1934 72.2122 49.5635 70.3019C48.9441 72.3171 47.8207 73.797 46.0465 74.7207C45.889 74.4268 45.5111 73.965 45.2171 73.6921V78.0059H43.8523V67.9193H49.0386C48.9756 67.468 48.9336 66.9957 48.8916 66.5129H46.3824V65.3268H50.0569C50.0989 66.2505 50.1724 67.1216 50.3194 67.9193H55.2537V76.358L55.2747 76.3475ZM45.2276 73.5976C46.9809 72.716 48.0622 71.2675 48.5766 69.2208H45.2276V73.5976ZM50.6343 69.2208C51.1803 71.194 52.1881 72.6425 53.9204 73.4507V69.2208H50.6343Z" fill="#141414"/>
<path d="M67.9149 69.4832C67.8309 69.6092 67.7574 69.7456 67.6734 69.8716C69.2902 71.6244 71.2744 72.7264 73.5631 73.5766C73.2481 73.8705 72.8807 74.3113 72.7127 74.7102C72.1143 74.4478 71.5579 74.1749 71.0225 73.881V77.9534H69.6471V77.5441H64.1774V77.9954H62.8546V74.0384C62.2877 74.3533 61.6998 74.6472 61.1014 74.8781C60.9124 74.5423 60.5554 74.0804 60.251 73.797C62.8966 72.8524 65.4058 71.1311 66.7496 68.9899L67.9254 69.4832H67.9149ZM62.1932 68.78H60.8704V65.9671H66.3296C66.1826 65.6102 66.0147 65.2323 65.8362 64.8965L67.222 64.5921C67.4635 65.0014 67.7469 65.5367 67.9044 65.9671H72.9437V68.78H71.5789V67.1846H62.1827V68.78H62.1932ZM65.6787 68.1292C64.7548 69.3887 63.285 70.6063 61.9727 71.3305C61.7838 71.0891 61.3218 70.5643 61.0489 70.3229C62.3192 69.7141 63.642 68.7275 64.4189 67.7199L65.6787 68.1397V68.1292ZM69.6367 76.358V74.3323H64.1669V76.358H69.6367ZM69.7626 73.1463C68.7443 72.4955 67.8204 71.7398 66.9385 70.7847C66.1826 71.6664 65.3008 72.464 64.3139 73.1463H69.7626ZM68.9123 67.7199C70.1721 68.4546 71.8098 69.6197 72.6077 70.4278L71.6419 71.3095C70.886 70.5013 69.3007 69.2838 67.9884 68.4756L68.9123 67.7199Z" fill="#141414"/>
<path d="M278.211 54.39C278.137 54.39 278.064 54.3795 278.001 54.348L248.406 41.2071C248.217 41.1232 248.091 40.9342 248.091 40.7243V14.4425C248.091 14.2326 248.217 14.0437 248.406 13.9597L278.001 0.818777C278.137 0.755802 278.295 0.755802 278.431 0.818777L308.027 13.9597C308.216 14.0437 308.342 14.2326 308.342 14.4425V40.7243C308.342 40.9342 308.216 41.1232 308.027 41.2071L278.431 54.348C278.368 54.3795 278.295 54.39 278.221 54.39H278.211ZM249.14 40.3885L278.211 53.2984L307.281 40.3885V14.7889L278.211 1.87888L249.14 14.7889V40.3885Z" fill="#626262"/>
<path opacity="0.8" d="M278.211 37.8904C269.056 37.8904 261.875 33.3667 261.875 27.5939C261.875 21.8212 269.045 17.2974 278.211 17.2974C287.376 17.2974 294.546 21.8212 294.546 27.5939C294.546 33.3667 287.376 37.8904 278.211 37.8904ZM278.211 20.3622C271.019 20.3622 264.951 23.6684 264.951 27.5834C264.951 31.4984 271.019 34.8046 278.211 34.8046C285.402 34.8046 291.47 31.4984 291.47 27.5834C291.47 23.6684 285.402 20.3622 278.211 20.3622Z" fill="url(#paint0_linear_5542_1939)"/>
<path d="M278.21 13.3929C277.917 13.3929 277.686 13.162 277.686 12.8681V1.31209C277.686 1.0182 277.917 0.787292 278.21 0.787292C278.504 0.787292 278.735 1.0182 278.735 1.31209V12.8681C278.735 13.162 278.504 13.3929 278.21 13.3929Z" fill="#626262"/>
<path d="M248.615 41.2596C248.416 41.2596 248.227 41.1442 248.132 40.9447C248.017 40.6823 248.132 40.3675 248.395 40.252L259.786 35.193C260.048 35.0775 260.363 35.193 260.479 35.4554C260.594 35.7178 260.479 36.0326 260.216 36.1481L248.825 41.2071C248.752 41.2386 248.678 41.2491 248.615 41.2491V41.2596Z" fill="#626262"/>
<path d="M307.806 41.2596C307.732 41.2596 307.659 41.2491 307.596 41.2176L296.205 36.1586C295.943 36.0431 295.817 35.7282 295.943 35.4658C296.058 35.2034 296.373 35.0775 296.636 35.2034L308.026 40.2625C308.289 40.3779 308.415 40.6928 308.289 40.9552C308.205 41.1546 308.005 41.2701 307.806 41.2701V41.2596Z" fill="#626262"/>
<g opacity="0.8">
<path d="M166.937 31.7188C166.045 34.5212 163.441 36.6099 161.299 38.0898C160.753 38.4572 160.197 38.8036 159.619 39.108C159.231 39.3179 158.78 39.3179 158.391 39.108C157.814 38.8036 157.247 38.4572 156.711 38.0898C154.57 36.6099 151.966 34.5212 151.074 31.7188C150.538 30.05 150.706 28.0033 151.735 26.6283C152.48 25.6312 153.404 25.0959 154.528 24.8755C156.218 24.5501 158.286 25.4737 159 27.3735C159.714 25.4737 161.782 24.5501 163.472 24.8755C164.596 25.0959 165.52 25.6312 166.265 26.6283C167.294 28.0033 167.462 30.05 166.926 31.7188H166.937Z" fill="url(#paint1_linear_5542_1939)"/>
</g>
<path d="M180.312 52.5532H137.699C136.712 52.5532 135.914 51.7555 135.914 50.7689V18.6828C135.914 18.5464 135.966 18.41 136.071 18.3155L146.811 7.57815C146.906 7.48368 147.042 7.42072 147.179 7.42072H180.312C181.299 7.42072 182.097 8.2184 182.097 9.20502V50.7689C182.097 51.7555 181.299 52.5532 180.312 52.5532ZM136.964 18.9033V50.7689C136.964 51.1783 137.289 51.5036 137.699 51.5036H180.312C180.721 51.5036 181.047 51.1783 181.047 50.7689V9.20502C181.047 8.79568 180.721 8.47031 180.312 8.47031H147.399L136.964 18.9033Z" fill="#626262"/>
<path d="M61.6683 49.4045H20.0102C16.7346 49.4045 14.0785 46.7385 14.0785 43.4743V16.5207C14.0785 13.246 16.7451 10.5905 20.0102 10.5905H61.6788C64.9543 10.5905 67.6209 13.2565 67.6209 16.5207V43.4743C67.6209 46.749 64.9543 49.4045 61.6788 49.4045H61.6683ZM20.0102 11.6296C17.312 11.6296 15.1283 13.8233 15.1283 16.5102V43.4638C15.1283 46.1612 17.3225 48.3444 20.0102 48.3444H61.6788C64.3769 48.3444 66.5711 46.1507 66.5711 43.4638V16.5102C66.5711 13.8128 64.3769 11.6296 61.6788 11.6296H20.0102Z" fill="#626262"/>
<path opacity="0.8" d="M56.86 30.7322L44.5977 24.2667C44.1568 24.0358 43.6529 24.4241 43.7683 24.907L47.0124 38.3837C47.1279 38.8665 47.7578 38.982 48.0412 38.5727L50.3929 35.13L54.7603 41.2386C54.9493 41.501 55.3167 41.5535 55.5792 41.3541L56.608 40.5564L57.6369 39.7587C57.8888 39.5593 57.9308 39.1814 57.7209 38.94L52.881 33.2092L56.797 31.7818C57.2589 31.6138 57.3114 30.9736 56.8705 30.7322H56.86Z" fill="url(#paint2_linear_5542_1939)"/>
<path d="M21.2486 18.9033C21.9558 18.9033 22.5291 18.33 22.5291 17.6228C22.5291 16.9156 21.9558 16.3423 21.2486 16.3423C20.5414 16.3423 19.9681 16.9156 19.9681 17.6228C19.9681 18.33 20.5414 18.9033 21.2486 18.9033Z" fill="#626262"/>
<path d="M27.2328 18.9033C27.94 18.9033 28.5133 18.33 28.5133 17.6228C28.5133 16.9156 27.94 16.3423 27.2328 16.3423C26.5256 16.3423 25.9523 16.9156 25.9523 17.6228C25.9523 18.33 26.5256 18.9033 27.2328 18.9033Z" fill="#626262"/>
<path d="M33.217 18.9033C33.9242 18.9033 34.4975 18.33 34.4975 17.6228C34.4975 16.9156 33.9242 16.3423 33.217 16.3423C32.5098 16.3423 31.9365 16.9156 31.9365 17.6228C31.9365 18.33 32.5098 18.9033 33.217 18.9033Z" fill="#626262"/>
<path d="M138.675 68.612C138.36 70.8372 137.835 72.6635 137.006 74.1749C137.699 75.3189 138.58 76.2426 139.704 76.8199C139.389 77.0823 138.969 77.5966 138.748 77.9744C137.709 77.3552 136.869 76.484 136.187 75.4449C135.357 76.484 134.318 77.3552 132.974 78.0374C132.827 77.7225 132.428 77.1137 132.176 76.8199C133.615 76.1691 134.685 75.2665 135.462 74.1119C134.979 73.0518 134.591 71.8868 134.307 70.5958C134.045 71.0996 133.762 71.5509 133.457 71.9707C133.279 71.7818 132.922 71.4355 132.617 71.2045C132.019 71.8658 131.252 72.569 130.507 73.1043V73.5871C131.389 73.5031 132.302 73.3877 133.205 73.2827V74.4268L130.507 74.7627V76.6624C130.507 77.2712 130.392 77.6071 129.961 77.775C129.531 77.9744 128.88 77.9744 127.966 77.9744C127.903 77.6281 127.735 77.1452 127.557 76.8304C128.208 76.8409 128.827 76.8409 129.006 76.8304C129.205 76.8304 129.247 76.7884 129.247 76.6309V74.9201L126.434 75.256L126.287 74.0594C127.095 73.9755 128.124 73.8705 129.237 73.7446V72.8209C129.72 72.527 130.224 72.0967 130.686 71.6769H128.764C128.229 72.0862 127.662 72.4641 127.085 72.7894C126.896 72.527 126.434 72.0022 126.161 71.7608C127.242 71.2255 128.26 70.5118 129.132 69.6931H126.297V68.5176H128.659V67.3001H126.875V66.156H128.659V64.739H129.909V66.156H131.315V67.0272C131.672 66.4184 132.029 65.7676 132.302 65.0854L133.552 65.4423C133.09 66.5548 132.512 67.5834 131.83 68.5071H133.279V69.6406C133.972 68.2552 134.465 66.5129 134.738 64.718L136.103 64.9385C135.956 65.7676 135.788 66.5863 135.557 67.3735H139.609V68.633H138.706L138.675 68.612ZM129.877 68.4966H130.213C130.549 68.1187 130.832 67.6989 131.116 67.2791H129.888V68.4966H129.877ZM132.46 70.9002C132.733 70.5433 132.995 70.113 133.216 69.6721H130.874C130.602 69.987 130.308 70.2914 130.024 70.5853H131.714L131.956 70.5118L132.46 70.9002ZM135.147 68.612C135.389 70.071 135.756 71.4354 136.25 72.653C136.743 71.4984 137.079 70.1654 137.279 68.612H135.147Z" fill="#141414"/>
<path d="M156.638 67.2266H153.194C154.265 67.9928 155.473 69.0109 156.102 69.7351L154.958 70.4698H155.294V76.505C155.294 77.2712 155.074 77.5861 154.517 77.7645C153.94 77.9219 153.016 77.9219 151.693 77.9219C151.651 77.5756 151.494 77.0927 151.347 76.7674C152.187 76.8094 153.257 76.8094 153.488 76.7989C153.751 76.7989 153.835 76.7149 153.835 76.4945V75.0041C151.63 75.4869 149.373 75.9277 147.641 76.2636L147.231 75.046C148.806 74.8466 151.368 74.4268 153.835 74.0174V71.5824H147V72.9154C147 74.5212 146.759 76.6939 145.383 78.1424C145.184 77.88 144.617 77.4601 144.302 77.3132C145.562 76.0432 145.688 74.2483 145.688 72.8839V70.4698H154.916C154.696 70.1759 154.381 69.8611 154.034 69.5147C146.822 69.8506 146.024 69.8611 145.478 70.05C145.404 69.7876 145.236 69.1368 145.069 68.7905C145.425 68.738 145.803 68.4546 146.318 68.0662C146.517 67.9193 146.885 67.6149 147.315 67.2266H143.998V66.0405H148.544C148.974 65.5787 149.446 65.0434 149.845 64.5396L151.21 65.0749C150.916 65.4108 150.633 65.7256 150.318 66.0405H156.659V67.2266H156.638ZM152.869 68.4966C152.459 68.1817 152.071 67.8563 151.683 67.5729L152.26 67.2266H149.079C148.502 67.7619 147.924 68.2552 147.336 68.6855L152.869 68.4966ZM147.819 72.0022C149.509 72.2226 151.746 72.7579 152.921 73.2617L152.501 74.2064C151.357 73.7026 149.142 73.1043 147.399 72.8419L147.819 72.0022Z" fill="#141414"/>
<path d="M166.171 71.3515V76.7359C166.171 77.2712 166.066 77.5441 165.719 77.733C165.373 77.9114 164.869 77.9219 164.081 77.9219C164.018 77.6176 163.861 77.1872 163.724 76.9038C164.249 76.9143 164.69 76.9143 164.858 76.9038C165.005 76.9038 165.047 76.8619 165.047 76.7149V75.067C164.449 75.4449 163.871 75.7913 163.336 76.1271L162.926 75.3189C162.8 76.2846 162.57 77.2922 162.045 78.0584C161.856 77.838 161.362 77.4916 161.1 77.3761C161.835 76.2741 161.908 74.7941 161.908 73.6396V71.3515H161.194V69.2208H161.793V65.1799H166.213V69.2208H166.811V71.3515H166.171ZM165.782 70.1654H162.202V70.9526H165.782V70.1654ZM162.853 69.2208H163.588V66.9432H165.089V66.177H162.842V69.2208H162.853ZM163.01 73.6501C163.01 74.1329 163 74.6472 162.937 75.1825C163.514 74.9516 164.26 74.5737 165.037 74.1854V71.8658H163.01V72.8629L163.546 72.2961C164.092 72.6425 164.722 73.0938 165.026 73.4087L164.417 74.1014C164.113 73.7865 163.504 73.2617 163.01 72.9259V73.6396V73.6501ZM165.1 69.2208V67.7619H164.333V69.2208H165.1ZM174.349 76.7254V77.7435H166.8V76.7254H168.711C168.585 76.3371 168.417 75.8857 168.26 75.5079L169.226 75.214H167.588V72.4745H173.551V75.214H171.861L172.963 75.5184C172.722 75.9277 172.501 76.3475 172.281 76.7254H174.338H174.349ZM174.212 71.8868H166.968V70.8897H174.223V71.8868H174.212ZM173.876 70.2494H167.231V65.7886H169.016V64.718H170.076V65.7886H170.947V64.718H172.018V65.7886H173.887V70.2494H173.876ZM168.26 67.5729H169.215V66.7018H168.26V67.5729ZM168.26 69.3258H169.215V68.4441H168.26V69.3258ZM168.774 74.3638H172.312V73.3562H168.774V74.3638ZM169.289 75.214C169.52 75.6968 169.772 76.2846 169.908 76.7149H171.178C171.399 76.2321 171.63 75.6338 171.756 75.214H169.278H169.289ZM170.979 67.5729V66.7018H170.065V67.5729H170.979ZM170.065 68.4441V69.3258H170.979V68.4441H170.065ZM172.816 66.7018H171.829V67.5729H172.816V66.7018ZM172.816 68.4441H171.829V69.3258H172.816V68.4441Z" fill="#141414"/>
<path d="M178.328 76.7569C178.622 75.9277 178.853 74.5737 178.947 73.6291L179.672 73.86C179.556 74.8151 179.367 76.2006 179.094 77.0508L178.328 76.7569ZM184.018 72.3486C183.913 75.8332 183.819 77.0928 183.514 77.5021C183.315 77.775 183.105 77.88 182.758 77.9114C182.496 77.9744 182.044 77.9744 181.614 77.9429C181.582 77.6385 181.488 77.2082 181.32 76.9353C181.729 76.9773 182.076 76.9773 182.233 76.9773C182.412 76.9773 182.506 76.9458 182.59 76.8199C182.695 76.6624 182.769 76.2216 182.832 75.256L182.296 75.4764C182.149 74.9726 181.834 74.1749 181.582 73.5766L182.107 73.3982C182.38 73.965 182.685 74.6997 182.832 75.1825C182.863 74.6472 182.884 73.923 182.916 73.0098H179.073V65.3373H183.934V66.4394H182.286V67.5939H183.693V68.1397C185.267 67.2371 186.706 65.8621 187.441 64.5606L188.669 64.949C188.585 65.1064 188.49 65.2638 188.375 65.4108C189.257 66.2924 190.601 67.2161 191.745 67.7304C191.556 68.0348 191.315 68.6015 191.21 68.9374C190.79 68.7065 190.328 68.4336 189.897 68.1082V68.9479H185.624V68.2552C185.267 68.5281 184.889 68.78 184.491 69.0109C184.312 68.78 183.945 68.4021 183.682 68.2027V68.6225H182.275V69.7036H183.714V70.7427H182.275V71.8868H183.987V72.3486H184.018ZM180.491 73.839C180.606 74.6787 180.669 75.7388 180.68 76.442L180.029 76.5155C180.029 75.8018 179.987 74.7207 179.903 73.9125L180.501 73.839H180.491ZM180.155 66.4289V67.5834H181.257V66.4289H180.155ZM181.257 68.612H180.155V69.6931H181.257V68.612ZM180.155 71.8868H181.257V70.7427H180.155V71.8868ZM181.341 73.6711C181.53 74.4058 181.75 75.3819 181.834 76.0012L181.225 76.1271C181.141 75.4764 180.932 74.5212 180.743 73.7655L181.341 73.6606V73.6711ZM186.685 73.902C186.601 74.3113 186.485 74.6682 186.37 75.046C186.937 75.3924 187.546 75.8437 187.861 76.2006L187.168 77.0823C186.926 76.7779 186.433 76.3895 185.96 76.0432C185.603 76.8094 185.12 77.4916 184.595 77.9954C184.407 77.8065 183.955 77.4181 183.693 77.2292C184.616 76.4315 185.225 75.13 185.53 73.6816L186.674 73.902H186.685ZM184.522 69.924H187.472V73.3247H184.522V69.924ZM185.435 72.4221H186.517V70.8162H185.435V72.4221ZM189.656 67.9088C188.973 67.4155 188.322 66.8382 187.777 66.2714C187.283 66.8697 186.716 67.4155 186.128 67.9088H189.666H189.656ZM190.286 73.818C190.181 74.3953 190.044 74.9306 189.866 75.4239C190.527 75.8857 191.273 76.463 191.661 76.8723L190.853 77.796C190.548 77.4181 189.971 76.9458 189.404 76.505C189.11 77.0822 188.742 77.5861 188.333 77.9954C188.133 77.796 187.64 77.4181 187.346 77.2292C188.259 76.421 188.826 75.0985 189.089 73.6291L190.296 73.818H190.286ZM188.06 69.924H191.126V73.3247H188.06V69.924ZM188.984 72.4221H190.16V70.8162H188.984V72.4221Z" fill="#141414"/>
<path d="M146.769 20.0683H140.439C140.145 20.0683 139.914 19.8374 139.914 19.5435C139.914 19.2497 140.145 19.0187 140.439 19.0187H146.769C147.179 19.0187 147.504 18.6934 147.504 18.284V11.955C147.504 11.6611 147.735 11.4302 148.029 11.4302C148.323 11.4302 148.554 11.6611 148.554 11.955V18.284C148.554 19.2706 147.756 20.0683 146.769 20.0683Z" fill="#626262"/>
<defs>
<linearGradient id="paint0_linear_5542_1939" x1="294.546" y1="27.5939" x2="261.875" y2="27.5939" gradientUnits="userSpaceOnUse">
<stop stop-color="#5BB9A1"/>
<stop offset="1" stop-color="#4DB0FF"/>
</linearGradient>
<linearGradient id="paint1_linear_5542_1939" x1="175.304" y1="16.1953" x2="157.775" y2="31.3137" gradientUnits="userSpaceOnUse">
<stop offset="0.11" stop-color="#6DCA1D"/>
<stop offset="1" stop-color="#4DB0FF"/>
</linearGradient>
<linearGradient id="paint2_linear_5542_1939" x1="74.508" y1="19.1342" x2="47.1205" y2="34.317" gradientUnits="userSpaceOnUse">
<stop offset="0.11" stop-color="#6DCA1D"/>
<stop offset="1" stop-color="#4DB0FF"/>
</linearGradient>
</defs>
</svg>
