<?xml version="1.0" encoding="UTF-8"?>
<svg xmlns="http://www.w3.org/2000/svg" xmlns:xlink="http://www.w3.org/1999/xlink" version="1.1" viewBox="0 0 210 70">
  <defs>
    <style>
      .cls-1 {
        fill: url(#_未命名漸層);
      }

      .cls-2 {
        fill: #fff;
      }
    </style>
    <linearGradient id="_未命名漸層" data-name="未命名漸層" x1="0" y1="54.9" x2="210" y2="54.9" gradientTransform="translate(0 89.9) scale(1 -1)" gradientUnits="userSpaceOnUse">
      <stop offset="0" stop-color="#6dca1d"/>
      <stop offset="1" stop-color="#4db0ff"/>
    </linearGradient>
  </defs>
  <!-- Generator: Adobe Illustrator 28.6.0, SVG Export Plug-In . SVG Version: 1.2.0 Build 558)  -->
  <g>
    <g id="_圖層_1" data-name="圖層_1">
      <g>
        <path class="cls-1" d="M35,0h140C194.3,0,210,15.7,210,35h0c0,19.3-15.7,35-35,35H35C15.7,70,0,54.3,0,35h0C0,15.7,15.7,0,35,0Z" shape-rendering="crispEdges"/>
        <g>
          <polygon class="cls-2" points="83.5 28.8 81.3 28.8 80.8 31.7 79.4 31.7 79.1 33.7 80.4 33.7 79.4 40 81.6 40 82.7 33.7 84.1 33.7 84.4 31.7 83 31.7 83.5 28.8"/>
          <polygon class="cls-2" points="88.4 27.4 86.7 31.8 88.4 31.8 90.9 27.4 88.4 27.4"/>
          <polygon class="cls-2" points="152.7 27.4 149.8 27.4 148.8 36 150.7 36 152.7 27.4"/>
          <path class="cls-2" d="M75.1,32c-.5-.3-1.2-.4-2-.4s-1.4.1-2,.4c-.6.3-1.1.6-1.6,1-.4.4-.8,1-1,1.5-.2.6-.4,1.2-.4,1.9s.2,1.5.5,2c.3.6.8,1,1.4,1.3s1.3.5,2.1.5,1.9-.2,2.6-.6c.7-.4,1.3-1,1.8-1.7l-2-.6c-.3.4-.6.6-1,.9-.4.2-.8.3-1.3.3s-.8,0-1.1-.3c-.3-.2-.5-.5-.6-.8,0-.3-.1-.6-.1-.9h6.2c0-.2.1-.3.1-.6,0-.2,0-.4,0-.6,0-.8-.1-1.4-.4-2-.3-.5-.7-1-1.3-1.2ZM71.1,34c.2-.3.5-.5.8-.6.3-.1.6-.2,1-.2s.6,0,.9.2c.2.1.4.3.5.6.1.3.2.6.2.9h-3.8s0,0,0,0c.1-.4.3-.7.5-.9Z"/>
          <polygon class="cls-2" points="62.5 27.4 60 27.4 57.8 40 65.2 40 65.6 37.8 60.7 37.8 62.5 27.4"/>
          <polygon class="cls-2" points="111.2 28.8 108.9 28.8 108.4 31.7 107.1 31.7 106.7 33.7 108.1 33.7 107 40 109.2 40 110.3 33.7 111.7 33.7 112.1 31.7 110.7 31.7 111.2 28.8"/>
          <polygon class="cls-2" points="137.6 31.7 134.2 34.5 135.7 26 133.5 26 131.1 40 133.3 40 134 35.8 136.6 40 139.3 40 136.3 35.2 140.4 31.7 137.6 31.7"/>
          <path class="cls-2" d="M149.3,37.6c-.4,0-.8.1-1.1.4-.3.3-.4.6-.4,1s.1.7.4,1c.3.3.6.4,1.1.4s.8-.1,1-.4c.3-.3.4-.6.4-1s-.1-.7-.4-1c-.3-.3-.6-.4-1-.4Z"/>
          <path class="cls-2" d="M94.7,33.2c.4,0,.8.1,1.1.3.4.2.7.5,1,.8l1.1-1.4c-.4-.4-.9-.7-1.4-1-.5-.3-1.1-.4-1.8-.4s-1,0-1.4.3c-.5.2-.8.4-1.1.8-.3.3-.4.8-.5,1.3,0,.5,0,.8.3,1.2.2.3.4.6.8.8.3.2.7.4,1,.5.3.1.5.2.8.3.2.1.4.2.6.4.1.1.2.3.2.6,0,.2-.1.4-.3.6-.2.2-.4.2-.7.2-.3,0-.6,0-.8-.1-.3-.1-.5-.3-.8-.5-.3-.2-.5-.4-.8-.7l-1.3,1.4c.3.3.6.6,1,.8.4.3.8.5,1.3.6.5.2,1,.2,1.6.2s1.1-.1,1.6-.3c.5-.2.8-.5,1.1-.9.3-.4.4-.9.5-1.4,0-.5,0-.9-.3-1.2-.2-.3-.5-.6-.8-.8-.3-.2-.7-.4-1.1-.6-.3-.1-.5-.2-.8-.3-.3-.1-.4-.2-.6-.4-.1-.1-.2-.3-.2-.5,0-.2.1-.4.3-.5.2-.1.4-.2.7-.2Z"/>
          <polygon class="cls-2" points="125.2 40 127.5 40 129.9 26 127.6 26 125.2 40"/>
          <path class="cls-2" d="M120.5,33.3c0-.2-.1-.3-.2-.4-.2-.4-.5-.7-.9-1-.4-.2-.9-.4-1.4-.4-.7,0-1.4.2-2.1.6-.6.4-1.2.9-1.6,1.5-.4.6-.7,1.4-.8,2.2-.1.8,0,1.5.2,2.2.2.6.6,1.2,1.1,1.6.5.4,1.2.6,1.9.6s1.1-.1,1.5-.3c.5-.2.9-.5,1.2-.9,0,0,.1-.2.2-.3l-.2,1.3h2.2l1.4-8.3h-2.3l-.3,1.6ZM119.1,37.6c-.2.2-.5.4-.8.5s-.6.2-.8.2c-.4,0-.8-.1-1-.3s-.5-.5-.6-.9c-.1-.4-.1-.8,0-1.2,0-.4.2-.8.5-1.2.3-.4.6-.7,1-.9.4-.2.8-.3,1.2-.3.3,0,.5,0,.8.2.2.1.4.3.5.5.1.2.2.5.3.7,0,.3,0,.6,0,.9,0,.3-.2.6-.3.9-.2.3-.4.5-.6.8Z"/>
        </g>
      </g>
    </g>
  </g>
</svg>