<?xml version="1.0" encoding="UTF-8"?>
<svg xmlns="http://www.w3.org/2000/svg" xmlns:xlink="http://www.w3.org/1999/xlink" version="1.1" viewBox="0 0 250 80">
  <defs>
    <style>
      .cls-1 {
        fill: url(#_未命名漸層);
      }

      .cls-2 {
        fill: #fff;
      }
    </style>
    <linearGradient id="_未命名漸層" data-name="未命名漸層" x1="0" y1="59.9" x2="250" y2="59.9" gradientTransform="translate(0 99.9) scale(1 -1)" gradientUnits="userSpaceOnUse">
      <stop offset="0" stop-color="#6dca1d"/>
      <stop offset="1" stop-color="#4db0ff"/>
    </linearGradient>
  </defs>
  <!-- Generator: Adobe Illustrator 28.6.0, SVG Export Plug-In . SVG Version: 1.2.0 Build 558)  -->
  <g>
    <g id="_圖層_1" data-name="圖層_1">
      <g>
        <path class="cls-1" d="M40,0h170C232.1,0,250,17.9,250,40h0c0,22.1-17.9,40-40,40H40C17.9,80,0,62.1,0,40h0C0,17.9,17.9,0,40,0Z" shape-rendering="crispEdges"/>
        <g>
          <polygon class="cls-2" points="98.9 32.4 96.1 32.4 95.5 35.9 93.9 35.9 93.5 38.3 95.1 38.3 93.8 46 96.5 46 97.9 38.3 99.6 38.3 100 35.9 98.3 35.9 98.9 32.4"/>
          <polygon class="cls-2" points="183.4 30.6 179.9 30.6 178.8 41.1 181 41.1 183.4 30.6"/>
          <path class="cls-2" d="M88.6,36.2c-.7-.4-1.5-.5-2.5-.5s-1.7.2-2.5.5c-.7.3-1.4.7-2,1.3-.5.5-1,1.2-1.3,1.9-.3.7-.4,1.5-.4,2.3s.2,1.8.6,2.5c.4.7,1,1.2,1.7,1.6.7.4,1.6.5,2.5.5s2.3-.2,3.2-.7c.9-.5,1.6-1.2,2.2-2.1l-2.4-.8c-.3.4-.7.8-1.2,1.1-.5.3-1,.4-1.6.4s-1-.1-1.3-.3c-.3-.2-.6-.6-.7-1-.1-.3-.1-.7-.1-1.1h7.6c0-.2.1-.4.2-.7,0-.3,0-.5,0-.8,0-1-.2-1.8-.5-2.4-.4-.7-.9-1.2-1.5-1.5ZM83.8,38.7c.3-.3.6-.6.9-.7.4-.2.8-.3,1.2-.3s.8,0,1.1.3c.3.2.5.4.6.7.1.3.2.7.2,1.1h-4.7s0,0,0,0c.2-.4.4-.8.6-1.1Z"/>
          <polygon class="cls-2" points="104.9 30.6 102.8 36 104.8 36 108 30.6 104.9 30.6"/>
          <polygon class="cls-2" points="73.2 30.6 70.1 30.6 67.5 46 76.6 46 77 43.3 71.1 43.3 73.2 30.6"/>
          <polygon class="cls-2" points="132.7 32.4 130 32.4 129.4 35.9 127.7 35.9 127.3 38.3 128.9 38.3 127.6 46 130.3 46 131.7 38.3 133.4 38.3 133.8 35.9 132.1 35.9 132.7 32.4"/>
          <polygon class="cls-2" points="165 35.9 160.9 39.3 162.7 28.8 160 28.8 157.1 46 159.8 46 160.7 40.8 163.8 46 167 46 163.4 40.2 168.5 35.9 165 35.9"/>
          <path class="cls-2" d="M179.3,43.1c-.5,0-.9.2-1.3.5-.3.3-.5.7-.5,1.2s.2.9.5,1.2c.4.3.8.5,1.3.5s.9-.2,1.3-.5c.4-.3.5-.7.5-1.2s-.2-.9-.5-1.2c-.3-.3-.8-.5-1.3-.5Z"/>
          <path class="cls-2" d="M144.1,37.8c0-.2-.1-.4-.2-.5-.3-.5-.7-.9-1.1-1.2-.5-.3-1-.4-1.7-.4-.9,0-1.8.2-2.6.7-.8.5-1.5,1.1-2,1.9-.5.8-.9,1.7-1,2.7-.1,1,0,1.8.2,2.6.3.8.8,1.4,1.4,1.9.6.5,1.4.7,2.3.7s1.3-.1,1.9-.4c.6-.3,1.1-.7,1.5-1.1,0,0,.2-.2.2-.3l-.3,1.6h2.8l1.7-10.1h-2.8l-.3,2ZM142.4,43c-.3.3-.6.5-.9.6-.3.1-.7.2-1,.2-.5,0-.9-.2-1.3-.4-.3-.3-.6-.6-.7-1.1-.1-.5-.2-.9,0-1.4,0-.5.3-1,.6-1.5.3-.5.7-.8,1.2-1.1.5-.3,1-.4,1.5-.4.4,0,.7.1.9.3.3.2.5.4.7.7.2.3.3.6.4.9,0,.3,0,.7,0,1.1,0,.4-.2.8-.4,1.1-.2.4-.4.7-.7.9Z"/>
          <polygon class="cls-2" points="149.9 46 152.6 46 155.6 28.8 152.8 28.8 149.9 46"/>
          <path class="cls-2" d="M112.6,37.7c.5,0,.9.1,1.4.4.4.3.8.6,1.2,1l1.3-1.7c-.5-.5-1.1-.9-1.7-1.2-.6-.3-1.4-.5-2.2-.5s-1.2.1-1.8.3c-.6.2-1,.5-1.4.9-.4.4-.6,1-.6,1.6,0,.6,0,1,.3,1.4.2.4.5.7.9,1,.4.2.8.5,1.2.6.4.1.7.3.9.4.3.1.5.3.7.5.2.2.3.4.2.7,0,.3-.1.5-.4.7-.2.2-.5.3-.9.3-.4,0-.7,0-1-.2-.3-.1-.7-.3-1-.6-.3-.2-.7-.5-1-.9l-1.6,1.7c.4.4.8.7,1.3,1,.5.3,1,.6,1.6.8.6.2,1.2.3,1.9.3s1.4-.1,1.9-.4c.6-.3,1-.7,1.4-1.1.3-.5.5-1.1.6-1.7,0-.6,0-1.1-.3-1.5-.2-.4-.6-.7-1-.9-.4-.3-.8-.5-1.3-.7-.3-.1-.6-.3-.9-.4s-.5-.3-.7-.4c-.2-.2-.3-.4-.2-.6,0-.2.1-.4.4-.6.2-.2.5-.2.9-.2Z"/>
        </g>
      </g>
    </g>
  </g>
</svg>