<?xml version="1.0" encoding="UTF-8"?>
<svg xmlns="http://www.w3.org/2000/svg" xmlns:xlink="http://www.w3.org/1999/xlink" version="1.1" viewBox="0 0 230 76">
  <defs>
    <style>
      .cls-1 {
        fill: url(#_未命名漸層);
      }

      .cls-2 {
        fill: #fff;
      }
    </style>
    <linearGradient id="_未命名漸層" data-name="未命名漸層" x1="0" y1="57.9" x2="230" y2="57.9" gradientTransform="translate(0 95.9) scale(1 -1)" gradientUnits="userSpaceOnUse">
      <stop offset="0" stop-color="#6dca1d"/>
      <stop offset="1" stop-color="#4db0ff"/>
    </linearGradient>
  </defs>
  <!-- Generator: Adobe Illustrator 28.6.0, SVG Export Plug-In . SVG Version: 1.2.0 Build 558)  -->
  <g>
    <g id="_圖層_1" data-name="圖層_1">
      <g>
        <path class="cls-1" d="M38,0h154C213,0,230,17,230,38h0c0,21-17,38-38,38H38C17,76,0,59,0,38h0C0,17,17,0,38,0Z" shape-rendering="crispEdges"/>
        <g>
          <path class="cls-2" d="M164,40.9c-.5,0-.9.1-1.2.4-.3.3-.5.6-.5,1.1s.2.8.5,1.1c.3.3.7.4,1.2.4s.9-.1,1.2-.4c.3-.3.5-.7.5-1.1s-.2-.8-.5-1.1c-.3-.3-.7-.4-1.2-.4Z"/>
          <path class="cls-2" d="M81.6,34.6c-.6-.3-1.3-.5-2.2-.5s-1.6.1-2.2.4c-.7.3-1.3.7-1.8,1.2-.5.5-.9,1.1-1.2,1.7-.3.7-.4,1.4-.4,2.1s.2,1.6.5,2.3c.4.6.9,1.1,1.5,1.4.7.3,1.4.5,2.3.5s2.1-.2,2.9-.7c.8-.5,1.5-1.1,2-1.9l-2.2-.7c-.3.4-.6.7-1.1,1-.4.2-.9.4-1.4.4s-.9,0-1.2-.3c-.3-.2-.5-.5-.7-.9-.1-.3-.1-.7-.1-1h6.9c0-.2.1-.4.2-.6,0-.3,0-.5,0-.7,0-.9-.2-1.6-.5-2.2-.3-.6-.8-1.1-1.4-1.4ZM77.2,36.8c.2-.3.5-.5.8-.7.3-.2.7-.2,1.1-.2s.7,0,1,.2c.3.2.4.4.6.7.1.3.2.6.2,1h-4.2s0,0,0,0c.1-.4.3-.7.6-1Z"/>
          <polygon class="cls-2" points="90.9 31.1 88.4 31.1 87.9 34.3 86.4 34.3 86 36.5 87.5 36.5 86.3 43.5 88.8 43.5 90 36.5 91.6 36.5 91.9 34.3 90.4 34.3 90.9 31.1"/>
          <polygon class="cls-2" points="67.6 29.5 64.8 29.5 62.4 43.5 70.6 43.5 71.1 41 65.7 41 67.6 29.5"/>
          <polygon class="cls-2" points="137.3 43.5 139.8 43.5 142.5 27.9 139.9 27.9 137.3 43.5"/>
          <polygon class="cls-2" points="167.8 29.5 164.6 29.5 163.6 39.1 165.6 39.1 167.8 29.5"/>
          <path class="cls-2" d="M132,36.1c0-.2-.1-.3-.2-.5-.3-.5-.6-.8-1-1.1-.4-.3-1-.4-1.6-.4-.8,0-1.6.2-2.3.6-.7.4-1.3,1-1.8,1.7-.5.7-.8,1.5-.9,2.5-.1.9,0,1.7.2,2.4.3.7.7,1.3,1.3,1.7.6.4,1.3.6,2.1.6s1.2-.1,1.7-.4c.5-.3,1-.6,1.4-1,0,0,.1-.2.2-.3l-.3,1.5h2.5l1.6-9.2h-2.5l-.3,1.8ZM130.5,40.8c-.3.2-.5.4-.8.6-.3.1-.6.2-.9.2-.5,0-.9-.1-1.2-.4-.3-.2-.5-.6-.7-1-.1-.4-.1-.8,0-1.3,0-.5.3-.9.5-1.3.3-.4.6-.7,1.1-1,.4-.2.9-.4,1.3-.3.3,0,.6,0,.8.2.2.1.4.3.6.6.2.2.3.5.3.8,0,.3,0,.6,0,1,0,.4-.2.7-.4,1-.2.3-.4.6-.7.9Z"/>
          <polygon class="cls-2" points="151 34.3 147.3 37.4 149 27.9 146.5 27.9 143.8 43.5 146.3 43.5 147.1 38.8 150 43.5 152.9 43.5 149.6 38.2 154.2 34.3 151 34.3"/>
          <path class="cls-2" d="M103.4,35.9c.4,0,.8.1,1.2.4.4.2.8.5,1.1.9l1.2-1.6c-.4-.4-1-.8-1.6-1.1-.6-.3-1.3-.4-2-.4s-1.1.1-1.6.3c-.5.2-.9.5-1.3.9-.3.4-.5.9-.5,1.5,0,.5,0,.9.3,1.3.2.4.5.7.8.9.4.2.7.4,1.1.6.3.1.6.2.9.4.3.1.5.3.6.4s.2.4.2.6c0,.3-.1.5-.3.7-.2.2-.5.3-.8.3-.3,0-.6,0-.9-.2-.3-.1-.6-.3-.9-.5-.3-.2-.6-.5-.9-.8l-1.4,1.6c.3.3.7.6,1.1.9.4.3.9.5,1.4.7.5.2,1.1.3,1.7.3s1.3-.1,1.8-.4c.5-.3.9-.6,1.2-1,.3-.5.5-1,.5-1.6,0-.5,0-1-.3-1.3-.2-.3-.5-.6-.9-.9-.4-.2-.8-.5-1.2-.6-.3-.1-.6-.2-.9-.4-.3-.1-.5-.3-.7-.4-.2-.2-.2-.3-.2-.6,0-.2.1-.4.3-.5.2-.1.5-.2.8-.2Z"/>
          <polygon class="cls-2" points="96.4 29.5 94.5 34.4 96.3 34.4 99.2 29.5 96.4 29.5"/>
          <polygon class="cls-2" points="121.7 31.1 119.2 31.1 118.6 34.3 117.1 34.3 116.7 36.5 118.3 36.5 117.1 43.5 119.5 43.5 120.7 36.5 122.3 36.5 122.7 34.3 121.1 34.3 121.7 31.1"/>
        </g>
      </g>
    </g>
  </g>
</svg>