<svg xmlns="http://www.w3.org/2000/svg" width="26" height="26" viewBox="0 0 26 26" fill="none">
  <path fill-rule="evenodd" clip-rule="evenodd" d="M21.0434 4.88624C21.9765 5.85709 22.4949 7.16741 22.4855 8.53078C22.4761 9.89416 21.9395 11.1997 20.9932 12.1621L18.2825 14.9039C18.1153 15.0723 17.8898 15.1663 17.6555 15.1653C17.4211 15.1642 17.197 15.0682 17.0321 14.8983L17.0153 14.881C16.8513 14.7103 16.7601 14.48 16.7618 14.2404C16.7634 14.0008 16.8577 13.7713 17.0241 13.6021L19.7348 10.8597C20.3437 10.2408 20.689 9.40102 20.6953 8.52396C20.7016 7.6469 20.3683 6.80388 19.7683 6.17912C19.1649 5.55802 18.3451 5.2071 17.488 5.20299C16.6309 5.19888 15.8061 5.54192 15.1938 6.1572L12.482 8.89832C12.3147 9.06669 12.0892 9.16056 11.8548 9.1594C11.6205 9.15824 11.3964 9.06214 11.2316 8.89213L11.2148 8.87542C11.0507 8.70469 10.9595 8.47422 10.9613 8.23445C10.963 7.99467 11.0576 7.76512 11.2242 7.59604L13.9349 4.85243C14.8863 3.89605 16.168 3.36278 17.4999 3.36911C18.8318 3.37545 20.1058 3.92087 21.0434 4.88624ZM14.8971 18.326L12.1864 21.0678C11.2352 22.025 9.95326 22.5589 8.62088 22.5529C7.28849 22.5469 6.01402 22.0014 5.07606 21.0357C4.1436 20.065 3.62546 18.7552 3.63486 17.3924C3.64425 16.0295 4.18041 14.7245 5.1262 13.7623L7.83687 11.0205C8.00406 10.8522 8.22939 10.7583 8.4636 10.7594C8.6978 10.7604 8.92183 10.8563 9.08671 11.026L9.10346 11.0433C9.26748 11.214 9.35863 11.4443 9.35699 11.6839C9.35535 11.9235 9.26105 12.153 9.09471 12.3222L6.384 15.0646C5.77536 15.6837 5.43021 16.5234 5.42392 17.4003C5.41763 18.2773 5.75071 19.1203 6.35043 19.7452C6.95401 20.3663 7.77389 20.7173 8.63108 20.7214C9.48826 20.7255 10.3131 20.3824 10.9256 19.7671L13.6362 17.0253C13.8034 16.8571 14.0288 16.7632 14.263 16.7642C14.4972 16.7653 14.7212 16.8611 14.8861 17.0309L14.9029 17.0476C15.0671 17.2183 15.1583 17.4487 15.1567 17.6885C15.155 17.9283 15.0606 18.1579 14.8941 18.327L14.8971 18.326Z" fill="#626262"/>
  <path fill-rule="evenodd" clip-rule="evenodd" d="M17.3845 8.58729C17.5507 8.76024 17.6431 8.99367 17.6415 9.23658C17.6399 9.47949 17.5444 9.71213 17.3759 9.88367L10.0042 17.3398C9.83456 17.5102 9.60616 17.6051 9.36881 17.604C9.13146 17.6029 8.90442 17.5058 8.73722 17.3339C8.57105 17.1609 8.47874 16.9274 8.48046 16.6845C8.48218 16.4416 8.57778 16.209 8.74639 16.0375L16.1175 8.58195C16.2869 8.41139 16.5153 8.3162 16.7527 8.3172C16.9901 8.31821 17.2173 8.41531 17.3845 8.58729Z" fill="#626262"/>
</svg>