<svg width="32" height="32" viewBox="0 0 32 32" fill="none" xmlns="http://www.w3.org/2000/svg">
<g filter="url(#filter0_b_708_1054)">
<circle cx="16" cy="16" r="14" fill="white"/>
<circle cx="16" cy="16" r="14.6" stroke="#F1F1F1" stroke-width="1.2"/>
</g>
<path d="M5.88867 15.6877H7.9388C8.3036 15.6866 8.66123 15.5875 8.9721 15.4012C9.28297 15.2148 9.53522 14.9487 9.70121 14.6316L11.0465 12.0298C11.1569 11.8155 11.3273 11.6363 11.538 11.5131C11.7488 11.3898 11.9912 11.3277 12.2368 11.3338C12.4825 11.3398 12.7211 11.4141 12.9252 11.5476C13.1293 11.6811 13.2903 11.8685 13.3894 12.0879L16.9339 19.9126C17.0309 20.1288 17.1884 20.3141 17.3881 20.4473C17.5878 20.5804 17.8217 20.656 18.0634 20.6656C18.3051 20.6752 18.5448 20.6183 18.7549 20.5015C18.9651 20.3846 19.1373 20.2124 19.2521 20.0046L20.7015 17.4175C20.9939 16.8954 21.4247 16.4594 21.9486 16.1551C22.4726 15.8509 23.0704 15.6894 23.68 15.6877H25.3331" stroke="url(#paint0_linear_708_1054)" stroke-width="1.2" stroke-miterlimit="10" stroke-linecap="round"/>
<defs>
<filter id="filter0_b_708_1054" x="-3.2002" y="-3.20001" width="38.4004" height="38.4" filterUnits="userSpaceOnUse" color-interpolation-filters="sRGB">
<feFlood flood-opacity="0" result="BackgroundImageFix"/>
<feGaussianBlur in="BackgroundImageFix" stdDeviation="2"/>
<feComposite in2="SourceAlpha" operator="in" result="effect1_backgroundBlur_708_1054"/>
<feBlend mode="normal" in="SourceGraphic" in2="effect1_backgroundBlur_708_1054" result="shape"/>
</filter>
<linearGradient id="paint0_linear_708_1054" x1="5.39226" y1="16.0027" x2="25.8395" y2="16.0027" gradientUnits="userSpaceOnUse">
<stop stop-color="#4DB0FF"/>
<stop offset="1" stop-color="#6DCA1D"/>
</linearGradient>
</defs>
</svg>
