<svg width="32" height="66" viewBox="0 0 32 66" fill="none" xmlns="http://www.w3.org/2000/svg">
<rect x="1.5" y="0.5" width="29" height="45" rx="14.5" fill="white" stroke="#9C9C9C"/>
<rect x="14" y="27" width="4" height="12" rx="2" fill="#626262"/>
<path d="M2.712 63.12C2.16 63.12 1.656 63.008 1.2 62.784C0.752 62.552 0.42 62.248 0.204 61.872L0.84 61.332C1.04 61.644 1.312 61.896 1.656 62.088C2 62.28 2.36 62.376 2.736 62.376C3.312 62.376 3.788 62.22 4.164 61.908C4.54 61.596 4.728 61.192 4.728 60.696C4.728 60.336 4.604 60.024 4.356 59.76C4.116 59.496 3.752 59.232 3.264 58.968C2.632 58.624 2.156 58.276 1.836 57.924C1.524 57.564 1.368 57.16 1.368 56.712C1.368 56.264 1.484 55.872 1.716 55.536C1.948 55.2 2.268 54.94 2.676 54.756C3.084 54.572 3.548 54.48 4.068 54.48C4.612 54.48 5.096 54.6 5.52 54.84C5.944 55.072 6.224 55.376 6.36 55.752L5.688 56.172C5.552 55.884 5.336 55.656 5.04 55.488C4.752 55.312 4.428 55.224 4.068 55.224C3.548 55.224 3.116 55.356 2.772 55.62C2.436 55.884 2.268 56.228 2.268 56.652C2.268 56.948 2.392 57.212 2.64 57.444C2.888 57.676 3.332 57.972 3.972 58.332C5.084 58.94 5.64 59.7 5.64 60.612C5.64 61.116 5.516 61.556 5.268 61.932C5.02 62.308 4.676 62.6 4.236 62.808C3.796 63.016 3.288 63.12 2.712 63.12ZM9.50869 63.12C8.77269 63.12 8.19669 62.916 7.78069 62.508C7.36469 62.092 7.15669 61.52 7.15669 60.792C7.15669 60.032 7.29269 59.356 7.56469 58.764C7.84469 58.172 8.23269 57.712 8.72869 57.384C9.23269 57.048 9.80869 56.88 10.4567 56.88C10.9447 56.88 11.3687 56.98 11.7287 57.18C12.0967 57.372 12.3647 57.644 12.5327 57.996L11.9447 58.464C11.8167 58.184 11.6167 57.964 11.3447 57.804C11.0807 57.644 10.7767 57.564 10.4327 57.564C9.97669 57.564 9.56069 57.7 9.18469 57.972C8.81669 58.244 8.52469 58.62 8.30869 59.1C8.10069 59.58 7.99669 60.112 7.99669 60.696C7.99669 61.248 8.13269 61.676 8.40469 61.98C8.68469 62.284 9.07269 62.436 9.56869 62.436C9.92069 62.436 10.2567 62.36 10.5767 62.208C10.8967 62.048 11.1687 61.824 11.3927 61.536L11.8127 62.004C11.2127 62.748 10.4447 63.12 9.50869 63.12ZM14.0063 58.464C14.1263 57.768 14.1983 57.28 14.2223 57H14.9903C14.9663 57.352 14.9223 57.704 14.8583 58.056L14.8223 58.2H14.8583C15.3063 57.32 15.9983 56.88 16.9343 56.88C17.0783 56.88 17.1903 56.892 17.2703 56.916L17.1503 57.612C17.0223 57.596 16.8943 57.588 16.7663 57.588C16.4383 57.588 16.1183 57.688 15.8063 57.888C15.5023 58.088 15.2423 58.364 15.0263 58.716C14.8103 59.068 14.6623 59.456 14.5823 59.88L14.0303 63H13.2023L14.0063 58.464ZM20.0689 63.12C19.3249 63.12 18.7289 62.9 18.2809 62.46C17.8409 62.012 17.6209 61.42 17.6209 60.684C17.6209 59.964 17.7649 59.316 18.0529 58.74C18.3409 58.156 18.7409 57.7 19.2529 57.372C19.7649 57.044 20.3449 56.88 20.9929 56.88C21.7369 56.88 22.3329 57.104 22.7809 57.552C23.2289 57.992 23.4529 58.58 23.4529 59.316C23.4529 60.036 23.3049 60.688 23.0089 61.272C22.7209 61.848 22.3209 62.3 21.8089 62.628C21.2969 62.956 20.7169 63.12 20.0689 63.12ZM20.0929 62.46C20.5569 62.46 20.9809 62.324 21.3649 62.052C21.7489 61.772 22.0529 61.396 22.2769 60.924C22.5009 60.444 22.6129 59.92 22.6129 59.352C22.6129 58.784 22.4649 58.34 22.1689 58.02C21.8809 57.7 21.4809 57.54 20.9689 57.54C20.5049 57.54 20.0809 57.68 19.6969 57.96C19.3209 58.232 19.0209 58.608 18.7969 59.088C18.5729 59.56 18.4609 60.084 18.4609 60.66C18.4609 61.22 18.6049 61.66 18.8929 61.98C19.1809 62.3 19.5809 62.46 20.0929 62.46ZM25.8865 63.12C25.2145 63.12 24.8785 62.784 24.8785 62.112C24.8785 62.032 24.8945 61.88 24.9265 61.656L26.2585 54.096H27.0865L25.7665 61.608C25.7425 61.752 25.7305 61.872 25.7305 61.968C25.7305 62.152 25.7705 62.284 25.8505 62.364C25.9305 62.436 26.0625 62.472 26.2465 62.472C26.4065 62.472 26.6065 62.428 26.8465 62.34L26.8945 62.856C26.7585 62.936 26.5985 63 26.4145 63.048C26.2385 63.096 26.0625 63.12 25.8865 63.12ZM29.8353 63.12C29.1633 63.12 28.8273 62.784 28.8273 62.112C28.8273 62.032 28.8433 61.88 28.8753 61.656L30.2073 54.096H31.0353L29.7153 61.608C29.6913 61.752 29.6793 61.872 29.6793 61.968C29.6793 62.152 29.7193 62.284 29.7993 62.364C29.8793 62.436 30.0113 62.472 30.1953 62.472C30.3553 62.472 30.5553 62.428 30.7953 62.34L30.8433 62.856C30.7073 62.936 30.5473 63 30.3633 63.048C30.1873 63.096 30.0113 63.12 29.8353 63.12Z" fill="#141414"/>
</svg>
