<svg width="60" height="60" viewBox="0 0 60 60" fill="none" xmlns="http://www.w3.org/2000/svg">
<path d="M55.2486 0H4.75143C2.12729 0 0 2.12729 0 4.75143V55.2486C0 57.8727 2.12729 60 4.75143 60H55.2486C57.8727 60 60 57.8727 60 55.2486V4.75143C60 2.12729 57.8727 0 55.2486 0Z" fill="#42A649"/>
<path d="M7.24208 7.88943C7.14418 7.93702 6.83651 8.06302 6.34422 8.2366C5.85193 8.41018 5.69809 8.45777 5.5918 8.50816V6.88436C5.99458 6.72198 6.38617 6.53161 6.76099 6.31324C7.11342 6.13126 7.44067 5.90169 7.72597 5.62732H9.43502V17.0611H7.24208V7.88943Z" fill="white"/>
<path d="M11.8173 16.8287C11.3837 16.56 11.0676 16.14 10.9278 15.6501C10.746 15.023 10.6648 14.3706 10.6872 13.7183H12.8018C12.7739 14.2026 12.8382 14.687 12.9865 15.1489C13.1962 15.5521 13.6913 15.7061 14.0941 15.4961C14.1836 15.4485 14.2619 15.3869 14.3291 15.3113C14.4745 15.0789 14.5556 14.813 14.5696 14.5386C14.6116 14.0739 14.6256 13.6035 14.6172 13.136C14.6423 12.6097 14.578 12.0861 14.4326 11.5794C14.3263 11.2434 14.0018 11.0278 13.6494 11.0586C13.1375 11.0586 12.8102 11.4058 12.6844 12.0917H10.8019L10.9669 5.5965H16.2283V7.47227H12.7515L12.6256 10.0032C12.8102 9.80719 13.0424 9.66721 13.3025 9.59722C13.6354 9.48803 13.985 9.43203 14.3346 9.43203C15.0535 9.40123 15.7332 9.77359 16.0912 10.3979C16.5332 11.2098 16.7402 12.1309 16.6898 13.0548C16.7066 13.8135 16.6255 14.5694 16.4493 15.3057C16.3122 15.8629 15.9933 16.3612 15.543 16.7167C14.9752 17.0975 14.2955 17.2767 13.613 17.2291C12.9893 17.2683 12.3655 17.1255 11.8173 16.8231V16.8287Z" fill="white"/>
<path d="M25.2419 40.1807H23.4741C23.4 40.1807 23.3398 40.2408 23.3398 40.315V44.7049C23.3398 44.7791 23.4 44.8393 23.4741 44.8393H25.2419C25.316 44.8393 25.3761 44.7791 25.3761 44.7049V40.315C25.3761 40.2408 25.316 40.1807 25.2419 40.1807Z" fill="white"/>
<path d="M44.7338 46.7122H15.4956C15.4201 46.7178 15.3613 46.7794 15.3613 46.8578V48.6468C15.3613 48.7168 15.4173 48.7728 15.4872 48.7728C15.49 48.7728 15.4928 48.7728 15.4984 48.7728H44.7365C44.8065 48.7728 44.868 48.7168 44.8708 48.6468V46.8578C44.8708 46.7822 44.8121 46.7178 44.7365 46.7122" fill="white"/>
<path d="M44.7338 50.2706H15.4956C15.4201 50.2706 15.3613 50.3322 15.3613 50.405V52.2024C15.3613 52.2724 15.4173 52.3284 15.4872 52.3284C15.49 52.3284 15.4928 52.3284 15.4984 52.3284H44.7365C44.8065 52.3284 44.868 52.2724 44.8708 52.2024V50.405C44.8708 50.3294 44.8093 50.2706 44.7365 50.2706" fill="white"/>
<path d="M39.175 35.3177C38.4561 34.7353 37.5694 34.3966 36.6464 34.3518C35.7681 34.3546 34.9262 34.7017 34.2996 35.3177C34.2465 35.3625 34.2129 35.4296 34.2129 35.5024V35.6564C34.2129 35.7348 34.2409 35.8076 34.2996 35.858C34.3555 35.9056 34.4311 35.9224 34.501 35.9056H34.5877C34.6437 35.886 34.6912 35.8524 34.7332 35.8076C35.0968 35.6256 35.5052 35.5416 35.9107 35.5668C37.038 35.5864 38.1149 36.0372 38.9232 36.8239C38.9932 36.8911 39.0855 36.9303 39.1834 36.9303C39.2645 36.9415 39.3484 36.9191 39.4155 36.8715C40.2211 36.0792 41.298 35.6256 42.428 35.606C42.8364 35.5836 43.242 35.6648 43.6056 35.8468C43.6503 35.8916 43.7091 35.9252 43.7706 35.9448C43.8238 35.9616 43.8825 35.9616 43.9356 35.9448C44.0447 35.914 44.1203 35.816 44.1203 35.704V35.5584C44.1203 35.4884 44.0923 35.424 44.0419 35.3737C43.4154 34.7325 42.5623 34.363 41.6672 34.349C40.7441 34.391 39.8603 34.7297 39.147 35.3149" fill="white"/>
<path d="M37.3599 23.6543C37.2955 23.6823 37.2508 23.7411 37.234 23.8083V23.9062C37.2032 23.9762 37.2032 24.0574 37.234 24.1274C37.2788 24.1834 37.3459 24.2198 37.4186 24.2254C37.4662 24.2338 37.5165 24.2338 37.5641 24.2254C37.6228 24.2142 37.6815 24.2142 37.7375 24.2254C38.6242 24.2814 39.4157 24.7965 39.8241 25.5888C39.8661 25.6616 39.936 25.712 40.0171 25.7344H40.1038C40.1542 25.7456 40.2073 25.7456 40.2577 25.7344C40.6605 25.5273 41.108 25.4181 41.5611 25.4153C42.0422 25.3929 42.5149 25.5441 42.8926 25.8408C42.9177 25.8828 42.9485 25.9192 42.9905 25.9472L43.0884 25.9948H43.1555C43.1946 26.0032 43.2338 26.0032 43.2702 25.9948C43.3317 25.964 43.3765 25.908 43.396 25.8408V25.754C43.4016 25.7316 43.4016 25.7092 43.396 25.6868C43.4072 25.6448 43.4072 25.6028 43.396 25.5609C43.0156 24.8217 42.2492 24.3598 41.4157 24.371C41.0549 24.371 40.6996 24.4382 40.364 24.5642C39.95 23.8838 39.2423 23.4331 38.4535 23.3463C38.0731 23.3491 37.7011 23.4415 37.3627 23.6179" fill="white"/>
<path d="M31.1807 28.1757V28.31C31.1919 28.4472 31.3149 28.5508 31.452 28.5396C31.4632 28.5396 31.4772 28.5368 31.4884 28.534C31.5359 28.5116 31.5779 28.478 31.6142 28.436C31.9555 28.2541 32.3387 28.1673 32.7247 28.1841C33.5778 28.1953 34.3974 28.506 35.0407 29.0632C35.1022 29.1163 35.1805 29.1471 35.2617 29.1499C35.3512 29.1415 35.4323 29.0996 35.4938 29.0352C36.1456 28.2961 37.077 27.8649 38.0616 27.8453C38.3245 27.8313 38.5846 27.8817 38.8252 27.9909C38.8699 28.0245 38.9175 28.0497 38.9706 28.0693H39.1441C39.2503 28.0329 39.3175 27.9293 39.3091 27.8173V27.7025C39.3091 27.6353 39.2755 27.5709 39.2224 27.5289C38.7077 27.0642 38.042 26.801 37.3483 26.7954C36.5372 26.8318 35.7652 27.1538 35.1666 27.7025C34.596 27.3078 33.9274 27.0838 33.2366 27.0558C32.4394 27.0642 31.6814 27.417 31.1611 28.0217C31.1136 28.0721 31.0912 28.1365 31.094 28.2065" fill="white"/>
<path d="M16.379 30.5051C16.3846 28.7525 17.8055 27.3359 19.5565 27.3359H19.7579C19.9313 24.9729 21.9872 23.198 24.348 23.3716C26.7087 23.5451 28.4821 25.6029 28.3086 27.9658C28.2695 28.5089 28.1268 29.0381 27.8891 29.528C30.4568 30.2447 31.9589 32.9072 31.2456 35.4801C30.689 37.479 28.9184 38.9012 26.8458 39.0104H20.4432C18.5719 39.0104 17.0559 37.4902 17.0559 35.6172C17.0559 34.7522 17.3859 33.9179 17.9817 33.2907C16.9832 32.7224 16.3706 31.6557 16.379 30.5079V30.5051Z" fill="white"/>
<path d="M22.0563 8.51934C21.9024 8.89729 21.7206 9.27526 21.5136 9.63081V13.2256H21.0409V10.3531C20.8927 10.5547 20.7332 10.7479 20.5738 10.9075C20.5263 10.7899 20.3864 10.5239 20.2969 10.4063C20.8115 9.91638 21.301 9.15207 21.5947 8.36816L22.0563 8.51655V8.51934ZM22.9933 11.6942C22.7583 12.1449 22.4199 12.6572 22.1318 12.9904C22.0479 12.9092 21.8605 12.772 21.7486 12.7132C22.0367 12.4109 22.3444 11.9629 22.5458 11.5542L22.9933 11.6914V11.6942ZM23.7905 11.3414V13.2396H23.2954V11.3414H21.8297V10.8879H23.2954V10.3307H22.2017V8.59774H24.9485V10.3307H23.7905V10.8879H25.2366V11.3414H23.7905ZM22.6632 9.89118H24.4534V9.03448H22.6632V9.89118ZM24.4114 11.5486C24.7359 11.9153 25.0911 12.3941 25.2673 12.7076L24.8702 12.9512C24.7107 12.6264 24.3499 12.1225 24.0422 11.7557L24.4142 11.5486H24.4114Z" fill="white"/>
<path d="M30.9741 9.27806H29.7098C30.1042 9.56083 30.5434 9.93318 30.7783 10.1991L30.3588 10.4707H30.4818V12.688C30.4818 12.9708 30.4007 13.0856 30.1937 13.15C29.9812 13.2088 29.6399 13.2088 29.1588 13.2088C29.142 13.08 29.0833 12.9064 29.0301 12.7832C29.3378 12.8 29.7322 12.8 29.8161 12.7944C29.9112 12.7944 29.9448 12.7636 29.9448 12.6825V12.1337C29.1364 12.3101 28.3085 12.4753 27.6708 12.5957L27.5225 12.1477C28.1015 12.0721 29.0413 11.9181 29.9448 11.7698V10.8767H27.4358V11.3666C27.4358 11.9573 27.3463 12.7552 26.84 13.2872C26.7645 13.192 26.5575 13.038 26.4428 12.9848C26.9043 12.5173 26.9519 11.8565 26.9519 11.3582V10.4707H30.3364C30.2581 10.3643 30.1406 10.2467 30.0119 10.1208C27.3659 10.2439 27.0722 10.2496 26.8708 10.3167C26.8428 10.2216 26.7813 9.98078 26.7225 9.85479C26.8568 9.8324 26.9938 9.73161 27.1785 9.58882C27.254 9.53563 27.3854 9.42365 27.5449 9.28087H26.3281V8.84412H27.998C28.1574 8.67334 28.3281 8.47737 28.4763 8.28979L28.977 8.48576C28.8707 8.60894 28.7644 8.72653 28.6469 8.84132H30.9741V9.27806ZM29.5924 9.74841C29.4441 9.63082 29.3015 9.51324 29.156 9.40686L29.3686 9.27806H28.1994C27.9868 9.47404 27.7742 9.65601 27.5617 9.81559L29.5924 9.7456V9.74841ZM27.7379 11.0335C28.3588 11.1146 29.1784 11.3106 29.6091 11.4954L29.4553 11.8398C29.0357 11.6522 28.2218 11.4366 27.584 11.3386L27.7379 11.0307V11.0335Z" fill="white"/>
<path d="M35.0241 10.2272C34.9542 10.8011 34.7416 11.1483 34.0451 11.3498C34.0032 11.2491 33.9025 11.0895 33.8074 11.0055C33.8242 11.0951 33.8297 11.1819 33.8297 11.2602C33.8297 11.5682 33.7654 11.7866 33.606 11.9042C33.5249 11.9518 33.4298 11.9854 33.3179 12.005C33.2172 12.0161 33.0885 12.0218 32.9682 12.0162C32.9626 11.893 32.9207 11.6914 32.8507 11.5682C32.957 11.585 33.0465 11.585 33.1165 11.5794C33.1808 11.5794 33.2396 11.5626 33.2815 11.5318C33.3514 11.4786 33.3766 11.3554 33.3766 11.2015C33.3766 10.9411 33.2927 10.5995 32.9515 10.2188C33.0801 9.86321 33.2228 9.39007 33.3179 9.02611H32.7389V13.2424H32.2773V8.58378H33.4829L33.5584 8.56138L33.8997 8.75175C33.7458 9.1941 33.5584 9.74564 33.3934 10.1572C33.6535 10.4595 33.7654 10.7423 33.8074 10.9915C34.3556 10.8543 34.5206 10.6247 34.5766 10.2244H33.8074V9.80443H35.0661V9.29489H34.0787V8.88054H35.0661V8.371H35.5556V8.88054H36.5765V9.29489H35.5556V9.80443H36.873V10.2244H35.9751V10.5911C35.9751 10.7143 35.9863 10.7563 36.0814 10.7563H36.5318C36.6213 10.7563 36.7695 10.7451 36.845 10.7311C36.8562 10.8431 36.8674 10.9803 36.8758 11.0867C36.8059 11.1119 36.6632 11.1175 36.5401 11.1175H36.0199C35.6255 11.1175 35.5416 10.9635 35.5416 10.5855V10.2244H35.0213L35.0241 10.2272ZM36.9261 12.6769V13.1192H33.5948V12.6769H35.0661V12.0385H34.0144V11.613H35.0661V11.0923H35.5556V11.613H36.6408V12.0385H35.5556V12.6769H36.9261Z" fill="white"/>
<path d="M39.4576 11.8062C38.9793 12.0721 38.4702 12.3493 38.0451 12.5621L37.8633 12.0665C38.0227 11.9965 38.2129 11.9125 38.4199 11.8118V10.0984H37.8996V9.63083H38.4199V8.42418H38.8814V9.63083H39.3318V10.0984H38.8814V11.5878C39.0297 11.5122 39.1723 11.445 39.3234 11.3694L39.4548 11.8062H39.4576ZM41.1415 12.1673C40.5289 12.3437 39.8716 12.5173 39.3709 12.6629L39.2478 12.1953C39.715 12.0945 40.417 11.9238 41.0911 11.7474L41.1387 12.1673H41.1415ZM42.6128 10.0816C42.4365 10.7787 42.1932 11.3946 41.8743 11.9153C41.9806 12.4473 42.1289 12.7665 42.2883 12.7665C42.3778 12.7665 42.4254 12.5649 42.4421 12.0497C42.5372 12.1617 42.6855 12.2681 42.7918 12.3157C42.7163 13.024 42.5848 13.2368 42.224 13.2368C41.9163 13.2368 41.6925 12.9232 41.5219 12.4137C41.2841 12.7161 41.0128 12.9764 40.7023 13.1948C40.6268 13.1164 40.4478 12.9512 40.3471 12.8812C40.7611 12.6209 41.1023 12.2737 41.3876 11.8594C41.2646 11.2266 41.1974 10.4231 41.1639 9.56084H39.4101V9.1129H41.1471C41.1415 8.86373 41.1359 8.61175 41.1359 8.36258H41.6086C41.603 8.61735 41.6086 8.86653 41.6086 9.1129H42.3247C42.1904 8.95892 41.9638 8.75173 41.768 8.60895L42.0505 8.36538C42.2687 8.51376 42.54 8.73774 42.6715 8.89732L42.4365 9.11569H42.6967V9.56364H41.6226C41.645 10.174 41.6925 10.7395 41.7513 11.2182C41.9275 10.8459 42.0589 10.4427 42.1652 10.0004L42.6072 10.0844L42.6128 10.0816ZM40.9037 9.99759V11.5598H39.5751V9.99759H40.9037ZM40.5149 10.3839H39.9527V11.1706H40.5149V10.3839Z" fill="white"/>
<path d="M48.5277 12.5928V13.0716H43.809V12.5928H45.9124V11.3694H44.3992V10.8962H45.9124V9.83235H44.732C44.567 10.1515 44.3908 10.4343 44.2062 10.6554C44.1055 10.5715 43.8873 10.4259 43.7559 10.3587C44.1866 9.90514 44.5223 9.17723 44.718 8.43252L45.2271 8.55012C45.146 8.82168 45.0509 9.09324 44.9502 9.34801H45.9124V8.35974H46.4215V9.34801H48.2704V9.83235H46.4215V10.8962H48.0746V11.3694H46.4215V12.5928H48.5249H48.5277Z" fill="white"/>
<path d="M49.623 12.87C49.8049 12.6265 49.9587 12.2317 50.037 11.9237L50.4622 12.0833C50.3615 12.4137 50.2272 12.8224 50.0538 13.0884L49.623 12.87ZM51.774 9.65042C51.7321 9.58043 51.6789 9.49084 51.6146 9.39005C50.0902 9.52723 49.8916 9.55523 49.7713 9.60283C49.7461 9.51884 49.6818 9.31446 49.6286 9.19968C49.7126 9.18848 49.8049 9.12968 49.9111 9.05129C50.0174 8.9729 50.3587 8.66214 50.5853 8.34018L51.0328 8.48296C50.837 8.72094 50.5964 8.9505 50.3699 9.13807L51.374 9.06248C51.2901 8.96169 51.2034 8.8553 51.1195 8.76572L51.4607 8.58375C51.6985 8.84972 51.9978 9.22207 52.1348 9.45724L51.7796 9.65322L51.774 9.65042ZM51.7964 11.3862C51.7964 11.5822 51.76 11.669 51.6202 11.7334C51.4859 11.7922 51.2789 11.7921 50.988 11.7921C50.9657 11.6858 50.9041 11.5514 50.8594 11.4562C51.0496 11.4618 51.237 11.4618 51.2901 11.4562C51.3489 11.4562 51.3712 11.4394 51.3712 11.3862V11.025C51.0412 11.1426 50.7223 11.2686 50.437 11.3694L50.3139 11.081C50.2664 11.3582 50.1797 11.6382 49.9951 11.8565C49.9195 11.7754 49.7405 11.6326 49.6454 11.5906C49.9112 11.2826 49.9363 10.8739 49.9363 10.5323V9.712H51.7964V11.3806V11.3862ZM50.3503 10.5463C50.3503 10.6891 50.3447 10.8487 50.3251 11.0082C50.602 10.9439 50.9741 10.8375 51.3712 10.7311V10.0704H50.3503V10.5435V10.5463ZM50.5573 10.1768C50.8118 10.2663 51.1531 10.4007 51.3433 10.4959L51.1531 10.7619C50.9768 10.6667 50.6328 10.5127 50.3727 10.4063L50.5573 10.1768ZM52.602 12.7524C52.8453 12.7524 52.8901 12.6824 52.9152 12.2093C53.0215 12.2849 53.2117 12.3465 53.3348 12.3745C53.2817 13.0016 53.1446 13.15 52.6439 13.15H51.5754C50.9433 13.15 50.7783 13.0324 50.7783 12.6012V11.9937H51.2565V12.5956C51.2565 12.7272 51.3097 12.7496 51.6118 12.7496H52.5992L52.602 12.7524ZM52.1824 12.5341C52.0649 12.3689 51.8411 12.0861 51.6621 11.8845L52.0034 11.6662C52.1852 11.8621 52.4174 12.1281 52.5404 12.2877L52.1852 12.5313L52.1824 12.5341ZM52.9012 9.94998C52.4173 9.94998 52.2943 9.78479 52.2943 9.34244V8.39057H52.7502V8.75172H54.0201V9.12968H52.7502V9.34805C52.7502 9.50203 52.7754 9.55522 52.9208 9.55522H53.7348C53.8635 9.55522 54.0705 9.54402 54.1711 9.51882C54.1823 9.64761 54.1963 9.81 54.2131 9.91639C54.1292 9.94438 53.925 9.94718 53.7572 9.94718H52.9012V9.94998ZM52.9544 11.7474C52.4229 11.7474 52.2943 11.6298 52.2943 11.1986V10.1096H52.7502V10.4931H54.0257V10.8767H52.7502V11.1958C52.7502 11.333 52.7866 11.3498 52.9992 11.3498H53.7012C53.8551 11.3498 53.8914 11.3078 53.9138 11.0306C54.0089 11.095 54.1907 11.1622 54.3166 11.1902C54.2634 11.6382 54.1348 11.7474 53.7488 11.7474H52.9516H52.9544ZM53.8719 11.9069C54.0201 12.2037 54.2131 12.6153 54.2858 12.8532L53.8355 13.0072C53.76 12.758 53.5921 12.3409 53.4467 12.0273L53.8719 11.9041V11.9069Z" fill="white"/>
</svg>
