<svg width="60" height="60" viewBox="0 0 60 60" fill="none" xmlns="http://www.w3.org/2000/svg">
<path d="M55.2486 0H4.75144C2.1273 0 0 2.12729 0 4.75143V55.2486C0 57.8727 2.1273 60 4.75144 60H55.2486C57.8727 60 60 57.8727 60 55.2486V4.75143C60 2.12729 57.8727 0 55.2486 0Z" fill="#1CA3CA"/>
<path d="M40.9841 22.5624C40.9337 22.512 40.8638 22.484 40.7911 22.484H19.2114C19.1387 22.484 19.0715 22.5148 19.0184 22.5624C18.9792 22.6268 18.9625 22.6996 18.9709 22.7751L22.5903 44.7133C22.6099 44.8364 22.7162 44.926 22.8421 44.926H27.2923L27.5915 48.5012H25.7175L30.0726 52.8603L34.4472 48.4928H32.5732L32.8725 44.926H37.401C37.5269 44.926 37.6331 44.8364 37.6527 44.7133L41.0428 22.7751C41.054 22.6996 41.0316 22.6212 40.9841 22.5624ZM32.6515 40.133C31.1411 41.3313 29.0069 41.3313 27.4964 40.133C26.3049 38.862 26.1119 36.9498 27.0237 35.466C27.3706 34.8193 29.8516 31.0873 30.0642 30.7682C30.2656 31.0873 32.7578 34.8165 33.1047 35.466C34.0221 36.947 33.8347 38.8592 32.6515 40.133ZM39.4876 27.1818C38.8191 26.9494 38.0863 26.9942 37.4513 27.3078C34.7773 28.3913 32.9508 28.786 30.1425 27.8985C28.3663 27.347 26.7049 26.1879 24.7441 26.9326C23.4854 27.4786 22.1372 27.7809 20.7666 27.8313L19.9079 23.4723H40.1086L39.4904 27.1846L39.4876 27.1818Z" fill="white"/>
<path d="M8.45327 17.8814C10.5959 17.8814 11.4266 16.7111 11.4266 14.8577V13.0883C11.4266 11.1566 10.6434 10.1319 9.19727 10.1319C8.498 10.0815 7.84069 10.4651 7.53581 11.0978V8.51651C7.53581 7.7914 7.76795 7.27906 8.5008 7.27906C9.23364 7.27906 9.46582 7.70461 9.46582 8.44932V9.24162H11.3091V8.6033C11.3091 6.83391 10.7189 5.59647 8.48963 5.59647C6.26034 5.59647 5.5918 6.9599 5.5918 8.83287V14.6422C5.5918 16.4983 6.40299 17.8422 8.48963 17.8422M7.52741 12.8C7.52741 12.1337 7.84626 11.7081 8.4924 11.7081C9.13853 11.7081 9.45742 12.1337 9.45742 12.9064V15.0313C9.45742 15.7956 9.17769 16.238 8.4924 16.238C7.80711 16.238 7.52741 15.7732 7.52741 15.0313V12.8Z" fill="white"/>
<path d="M15.9537 11.221C15.7635 11.0334 15.3579 10.7899 15.0391 10.6471L15.274 10.2803C15.5873 10.4035 16.0013 10.6275 16.2027 10.8067L15.9537 11.221ZM15.1677 13.2648C15.4223 12.87 15.7999 12.2065 16.0824 11.6158L16.4125 11.9461C16.1579 12.4893 15.8335 13.0996 15.551 13.5951L15.1677 13.2648ZM16.2139 9.81279C16.0265 9.62241 15.6292 9.36205 15.3104 9.20247L15.5593 8.83571C15.8726 8.97849 16.281 9.21926 16.474 9.40964L16.2139 9.81279ZM19.9592 11.6326H19.562V12.4361H18.3285V13.0968C18.3285 13.3572 18.2809 13.4859 18.0991 13.5531C17.9285 13.6287 17.6572 13.6287 17.26 13.6287C17.2376 13.5055 17.1817 13.3096 17.1173 13.1808C17.3998 13.192 17.6795 13.192 17.7606 13.192C17.8446 13.1864 17.8725 13.1668 17.8725 13.0912V12.4361H16.6978V12.0413H17.8725V11.6326H16.4153V11.207H17.8725V10.8123H16.7313V10.4175H17.0082C16.9663 10.2299 16.8432 9.96957 16.7173 9.7736L17.0614 9.62521C17.1984 9.81559 17.3327 10.0816 17.3802 10.2635L17.0446 10.4175H19.562V11.2042H19.9592V11.6298V11.6326ZM19.5872 9.14647C18.8124 9.37044 17.6516 9.50203 16.6698 9.56642C16.653 9.45443 16.5999 9.28366 16.5523 9.18287C17.5089 9.11288 18.625 8.97569 19.2459 8.78812L19.5872 9.14367V9.14647ZM18.004 10.3559C17.976 10.1655 17.8614 9.86039 17.7439 9.63361L18.1103 9.52163C18.2334 9.74 18.348 10.0312 18.3928 10.2299L18.004 10.3587V10.3559ZM18.3285 11.207H19.1368V10.8123H18.3285V11.207ZM19.1368 11.6326H18.3285V12.0413H19.1368V11.6326ZM18.7313 10.2159C18.8739 10.0032 19.0557 9.65601 19.1452 9.40684L19.5956 9.53842C19.4473 9.82959 19.2711 10.1348 19.134 10.3363L18.7313 10.2131V10.2159Z" fill="white"/>
<path d="M22.9039 10.2047C22.655 11.6045 22.0592 12.6236 21.3152 13.1667C21.2313 13.0491 21.0382 12.8588 20.918 12.7776C21.5613 12.352 22.0592 11.5877 22.3053 10.5966H21.0942V10.0955H22.4871L22.5767 10.0731L22.9067 10.2019L22.9039 10.2047ZM25.4605 10.0563C25.094 10.4539 24.6325 10.913 24.2605 11.2266C24.6857 11.8593 25.2479 12.3856 25.8912 12.6852C25.7738 12.786 25.6031 12.9876 25.5248 13.1387C24.7332 12.7188 24.1067 11.9685 23.6535 11.0698V13.01C23.6535 13.3123 23.5892 13.4719 23.4102 13.5587C23.2284 13.6483 22.9487 13.6707 22.5347 13.6707C22.5095 13.5223 22.4284 13.2675 22.3473 13.1163C22.6438 13.1331 22.9207 13.1331 23.013 13.1275C23.0969 13.1275 23.1361 13.0995 23.1361 13.01V8.78247H23.6563V10.0535C23.757 10.3251 23.8801 10.591 24.0284 10.8458C24.3696 10.5211 24.7612 10.0843 25.0101 9.73435L25.4605 10.0591V10.0563Z" fill="white"/>
<path d="M31.4128 10.6359C31.1946 11.4814 30.8114 12.1253 30.3023 12.6152C30.6911 12.8756 31.147 13.0772 31.6729 13.1948C31.5554 13.3068 31.4072 13.5251 31.3317 13.6679C30.7694 13.5083 30.2912 13.2704 29.8856 12.954C29.4129 13.3012 28.859 13.5391 28.2604 13.7155C28.2017 13.5727 28.0702 13.36 27.9723 13.2536C28.529 13.1248 29.052 12.9064 29.4968 12.5984C29.0828 12.1561 28.7639 11.6186 28.5346 10.9802H28.3863C28.2744 11.8425 27.9556 12.7944 27.1052 13.5699C27.0297 13.4411 26.8563 13.2396 26.75 13.15C27.8381 12.1617 27.936 10.8403 27.936 9.93877V9.49083H27.0437V9.01208H30.3387C30.238 9.49643 30.1149 10.076 30.003 10.5127H30.9597L31.0548 10.4875L31.41 10.6359H31.4128ZM28.4479 9.94437C28.4479 10.1263 28.4423 10.3167 28.4311 10.5127H29.4576C29.5471 10.2103 29.6338 9.84358 29.7121 9.49083H28.4479V9.94437ZM29.0157 10.983C29.217 11.4842 29.5107 11.9181 29.8883 12.2821C30.2604 11.9321 30.5569 11.5066 30.7499 10.983H29.0185H29.0157Z" fill="white"/>
<path d="M33.9375 10.0675C33.8424 10.2579 33.7305 10.4567 33.6074 10.6527V13.6567H33.1599V11.2994C33.0284 11.4646 32.8997 11.6241 32.7655 11.7529C32.7179 11.6521 32.5753 11.417 32.4941 11.3106C32.8773 10.9438 33.2745 10.3951 33.5263 9.84916L33.9291 9.99754V9.90795H34.4549C34.4801 9.79037 34.5081 9.65878 34.5304 9.5244H34.0745V9.16884H34.5948C34.6171 9.03446 34.6311 8.89728 34.6479 8.77409L35.0731 8.80489C35.0563 8.92248 35.0367 9.04006 35.0143 9.16605H35.8423V9.90515H36.1555V10.2943H33.9291L33.9347 10.0647L33.9375 10.0675ZM33.8843 8.93927C33.6074 9.38162 33.1878 9.86596 32.8046 10.1795C32.7459 10.0787 32.6284 9.89116 32.5501 9.80157C32.8801 9.5356 33.2466 9.11565 33.4368 8.76849L33.8843 8.93927ZM35.4423 13.0464V13.6623H35.0003V13.0464H33.9542C34.0018 12.8336 34.0549 12.5144 34.0885 12.2429H33.8815V11.8817H35.0031V11.5989H34.1053V10.5239H35.9598V11.5989H35.4451V11.8817H36.1052V12.2429H35.4451V12.6796H36.2143V13.0464H35.4451H35.4423ZM35.0003 12.6796V12.2429H34.4801C34.4633 12.3801 34.4437 12.534 34.4158 12.6796H35.0003ZM34.4745 11.263H35.5626V10.8542H34.4745V11.263ZM34.964 9.5244C34.936 9.65599 34.9164 9.79037 34.8884 9.90795H35.4367V9.5244H34.964ZM37.4982 10.9494H37.0786V13.0772C37.0786 13.3207 37.0422 13.4607 36.8884 13.5335C36.7345 13.6119 36.494 13.6231 36.1555 13.6231C36.1388 13.4915 36.0912 13.2871 36.0269 13.15C36.2618 13.1612 36.4688 13.1612 36.5359 13.1556C36.6003 13.1556 36.6199 13.1332 36.6199 13.0772V10.9494H36.0884V10.5015H37.4954V10.9494H37.4982ZM37.4142 9.5356H36.1807V9.08765H37.4142V9.5356Z" fill="white"/>
<path d="M43.2543 13.0128V13.4915H38.5356V13.0128H40.639V11.7893H39.1257V11.3162H40.639V10.2523H39.4586C39.2936 10.5715 39.1174 10.8542 38.9328 11.0754C38.8321 10.9914 38.6139 10.8458 38.4824 10.7786C38.9132 10.3251 39.2488 9.59719 39.4446 8.85248L39.9537 8.97007C39.8726 9.24164 39.7775 9.5132 39.6768 9.76797H40.639V8.77969H41.148V9.76797H42.997V10.2523H41.148V11.3162H42.8011V11.7893H41.148V13.0128H43.2515H43.2543Z" fill="white"/>
</svg>
