<svg width="60" height="60" viewBox="0 0 60 60" fill="none" xmlns="http://www.w3.org/2000/svg">
<path d="M55.2486 0H4.75143C2.12729 0 0 2.12729 0 4.75143V55.2486C0 57.8727 2.12729 60 4.75143 60H55.2486C57.8727 60 60 57.8727 60 55.2486V4.75143C60 2.12729 57.8727 0 55.2486 0Z" fill="#47753B"/>
<path d="M7.24209 8.0127C6.94839 8.14708 6.6491 8.26747 6.34422 8.37106C5.94703 8.50544 5.69809 8.59222 5.5918 8.64262V7.01043C5.99458 6.85365 6.38618 6.66607 6.76099 6.4505C7.11902 6.27132 7.44348 6.03895 7.72599 5.75339H9.43502V17.2068H7.24209V8.0155V8.0127Z" fill="white"/>
<path d="M11.2776 16.4984C10.7601 15.7481 10.5084 14.8466 10.5643 13.9368V13.5392H12.7377V13.9172C12.7181 14.3483 12.788 14.7823 12.9502 15.1826C13.0957 15.4402 13.3782 15.5885 13.6747 15.5605C13.9656 15.5969 14.2453 15.4402 14.3712 15.1742C14.5082 14.7682 14.5698 14.3371 14.5446 13.9087C14.5754 13.4384 14.4831 12.9681 14.2733 12.5453C14.0579 12.229 13.6887 12.0526 13.3083 12.0806H12.9111V10.4848H13.2691C13.6523 10.524 14.0299 10.3756 14.2817 10.0872C14.4998 9.68967 14.5949 9.23612 14.5614 8.78257C14.5837 8.41022 14.5138 8.03787 14.36 7.69911C14.2089 7.44994 13.9264 7.30996 13.6355 7.34076C13.3502 7.30996 13.0789 7.46675 12.9586 7.72711C12.8132 8.08547 12.7432 8.47182 12.7572 8.85817V9.3621H10.5643V8.74339C10.5112 7.8951 10.7937 7.06079 11.3559 6.42527C11.9657 5.85134 12.7824 5.55458 13.6159 5.60497C14.4523 5.55458 15.2774 5.84015 15.904 6.39728C16.469 7.016 16.7599 7.83909 16.7068 8.67899C16.7291 9.25852 16.5837 9.83245 16.2928 10.3308C16.0746 10.7423 15.6998 11.0475 15.2495 11.1707C16.2145 11.529 16.7068 12.4277 16.7068 13.878C16.7627 14.799 16.5026 15.7117 15.9739 16.4676C15.3977 17.1452 14.5334 17.5035 13.6467 17.4335C12.7572 17.5035 11.8817 17.1564 11.2804 16.4956L11.2776 16.4984Z" fill="white"/>
<path d="M52.2316 37.6134C43.1634 25.3789 25.9053 22.8172 13.6819 31.8937C11.5253 33.4951 9.6149 35.4017 8.00936 37.5574L7.83594 37.7982L8.00936 38.0501C17.0636 50.2874 34.3162 52.8603 46.5423 43.795C48.7073 42.1908 50.6233 40.2787 52.2316 38.1173C52.3715 38.0613 52.4386 37.9046 52.3827 37.7646C52.3547 37.6946 52.3016 37.6414 52.2316 37.6134ZM22.6858 32.0757C22.8117 31.9021 23.206 31.3982 23.2564 31.331C23.3795 31.2162 23.5417 31.149 23.7095 31.1462C23.8438 31.1462 24.0368 31.1938 24.0564 31.3002C24.0676 31.5073 24.0256 31.7145 23.9305 31.8993C23.6732 32.1569 23.3291 32.3108 22.9655 32.3332C22.7529 32.3332 22.6662 32.1401 22.7054 32.0729M22.2327 33.0444V32.9856C22.4396 32.8176 22.6998 32.7252 22.9655 32.7252C23.1977 32.6776 23.5053 32.8036 23.5361 32.9576C23.5669 33.1115 22.9571 33.3831 22.8396 33.4895C22.5208 33.7891 22.0201 34.3882 21.7292 34.4554C21.6509 34.4862 21.5641 34.4862 21.4886 34.4554C21.6788 33.9738 21.911 33.5119 22.1851 33.0723M27.1556 43.3359C27.0744 43.7754 26.8786 44.187 26.585 44.5257C26.2409 44.8421 25.7878 45.0129 25.3207 45.0101C24.8955 45.0101 24.8368 43.851 24.8368 43.2715C24.8368 43.0699 24.557 43.6691 24.4116 42.4596C24.3137 41.6869 23.813 42.538 23.785 42.0144C23.7571 41.4937 23.4941 41.6085 23.2452 41.2809C22.9935 40.9534 22.655 41.2809 22.2802 41.4741C21.9026 41.6673 22.0676 41.7261 21.5474 41.5609C21.0691 40.413 20.8229 39.1812 20.8229 37.9381C20.8229 37.619 20.8229 37.311 20.8705 36.9723C20.8844 36.9415 20.904 36.9107 20.9292 36.8855C21.4215 36.2947 21.4131 36.1604 21.4131 36.1604L21.9529 35.9756C22.4732 36.0596 22.9823 36.1884 23.4774 36.3619C24.0172 36.5635 24.8591 37.0199 25.4074 36.8155C25.7654 36.6699 26.0339 36.4767 26.006 36.1772C25.978 35.8776 25.6787 35.7124 25.3207 35.9644C25.1864 36.0624 24.9067 35.4045 24.6941 35.4325C24.4815 35.4604 24.9654 36.2052 24.7724 36.236C24.5794 36.2639 24.213 35.4717 24.1543 35.3373C24.0955 35.2029 23.7962 34.8921 23.5361 35.1357C22.9963 35.6564 22.0984 35.62 21.925 35.7544C21.3739 36.1604 21.2397 35.62 21.2481 35.2897C21.2649 35.2141 21.29 35.1413 21.3152 35.0685C21.6201 34.8613 22.0061 34.8193 22.3473 34.9537C22.5879 35.1189 22.7613 34.9537 22.8592 34.8193C22.9571 34.6849 22.9179 34.5674 22.8592 34.4414C22.8005 34.3154 22.9739 34.209 23.0998 34.181C23.3431 34.0606 23.5809 33.9206 23.8046 33.7667C24.2661 33.6183 24.7612 33.6183 25.2228 33.7667C25.5444 33.9542 25.9556 33.8758 26.1878 33.5819C26.3752 33.3523 26.6045 33.1619 26.8647 33.022C26.9989 32.9548 26.5262 32.518 26.1402 33.022C25.7542 33.5259 25.5612 33.5343 25.3878 33.5343C25.2144 33.5343 24.1319 33.2739 23.9976 32.9268C23.8634 32.5796 24.3361 32.336 24.7305 32.1429C25.3067 32.0085 25.8969 31.9273 26.4871 31.9021C27.0465 31.7761 27.7709 31.4961 28.1373 31.7369C28.5038 31.9777 26.6213 32.4144 27.2311 32.7028C27.4521 32.8288 28.4478 32.1317 28.7863 31.9581C29.589 31.5437 28.0143 31.4065 28.2157 30.5666C28.4171 29.7267 26.2857 29.9871 25.2116 30.0627C26.6829 29.1164 28.3947 28.6097 30.1457 28.6041C34.4448 28.6097 38.179 31.5633 39.1831 35.746C39.1999 35.8916 39.1999 36.0372 39.1831 36.18C39.0573 36.4907 38.7048 36.6419 38.3915 36.5187C38.2657 36.4683 38.1594 36.3759 38.0923 36.2584C37.9944 36.124 37.6 35.746 37.6084 36.3927C37.6167 37.0395 38.2349 37.0983 37.6084 37.4846C37.3203 37.689 36.9902 37.8234 36.6434 37.8822C36.3049 38.1453 36.1259 38.5653 36.1706 38.9936C36.2378 39.352 37.0769 40.3179 36.4504 40.2787C35.8686 39.9931 35.3707 39.5619 35.0126 39.0216C34.8196 38.5093 34.6071 37.9969 34.4616 37.6106C34.4029 37.311 34.112 37.1207 33.8127 37.1795C33.7204 37.199 33.6337 37.241 33.5637 37.3026C33.2365 37.5238 33.6616 37.7478 33.4183 38.2685C33.1777 38.7892 33.0127 39.1756 32.6659 38.7808C31.7596 37.7366 30.4366 38.2489 30.2324 37.0899C30.1177 36.4627 29.5751 36.5187 29.1303 36.124C28.6856 35.7264 28.4254 35.5836 28.3471 35.8328C28.2688 36.0848 29.7653 37.2438 29.8716 37.5434C30.0254 37.9969 29.4184 38.3945 28.9821 38.5093C28.5485 38.6241 28.3443 38.2573 27.9108 37.8038C27.4772 37.3502 27.2926 37.0311 27.2647 37.3894C27.2954 38.0081 27.6087 38.5793 28.115 38.9348C28.4926 39.1672 28.9066 39.282 28.7919 39.6683C28.6772 40.0547 28.7919 39.8335 28.3667 40.2479C27.9975 40.497 27.8129 40.9422 27.894 41.3789C27.894 41.9697 27.7681 41.9976 27.6814 42.482C27.5947 42.9663 27.3737 42.5492 27.1891 43.2547M37.1776 39.5479C37.4853 39.5479 37.9608 39.9623 37.7762 40.1275C37.4909 40.2731 37.144 40.2451 36.8867 40.0491C36.6545 39.8643 37.0321 39.5647 37.1776 39.5451M36.7832 39.268C36.6853 39.268 36.5986 39.1336 36.5231 38.9012C36.4671 38.8032 36.5035 38.6801 36.6014 38.6241C36.6713 38.5849 36.758 38.5905 36.8224 38.6381C37.0154 38.736 37.2671 39.016 37.2671 39.17C37.2671 39.324 36.8895 39.3044 36.7832 39.268ZM32.6798 39.268C32.3917 39.408 32.0477 39.3744 31.7904 39.1812C31.5582 38.9964 31.9442 38.6969 32.0813 38.6885C32.389 38.6885 32.8645 39.0944 32.6798 39.268ZM28.8758 41.1606C28.7415 41.3733 28.3919 42.9383 28.1625 42.7564C27.9304 42.5716 28.2604 40.9394 28.3275 40.8246C28.694 40.1583 29.4856 40.1863 28.8786 41.1717M30.1289 47.2386C29.2422 47.2386 28.3611 47.1098 27.5136 46.8607C27.3793 46.7515 27.3318 46.5667 27.3989 46.4071C27.7569 45.7296 28.459 45.3013 29.2226 45.2957C30.7303 45.1501 32.7078 46.2615 33.0267 46.0992C33.3456 45.934 33.9917 45.1333 34.9567 45.1333C35.256 45.1109 35.5525 45.1865 35.807 45.346C34.1903 46.5891 32.2071 47.2694 30.168 47.2778M36.7245 44.5817C36.6238 44.5537 36.5287 44.5145 36.4336 44.4669C35.9217 44.215 35.9888 44.6209 35.7371 44.5341C35.4853 44.4473 36.0168 43.8566 35.2644 44.3494C34.512 44.8421 34.7245 44.271 34.3945 43.4423C34.1791 42.6332 34.5903 41.7877 35.3595 41.4601C35.9077 41.2641 36.4755 41.1158 37.0489 41.015C38.1678 40.735 38.3999 40.0491 38.6041 40.4746L38.7188 40.6958C38.8055 40.8834 38.8503 41.0878 38.8531 41.2949C38.3832 42.5296 37.6559 43.6494 36.7189 44.5817M39.2838 39.8867C39.0321 39.8195 37.9888 38.3693 38.8111 37.423C38.9566 37.269 38.5398 36.8043 38.6573 36.7959C39.0545 36.7707 39.4041 37.0591 39.46 37.4538V37.9857C39.46 38.6353 39.3985 39.282 39.267 39.9175" fill="white"/>
<path d="M21.6505 9.35373C21.3848 9.77368 21.0603 10.1404 20.7246 10.412C20.6491 10.3112 20.4813 10.1096 20.375 10.0173C20.8645 9.66169 21.3036 9.09617 21.5554 8.49704L22.0393 8.63422C21.9917 8.74621 21.9386 8.85259 21.8798 8.96458H25.0685V9.35373H21.6505ZM21.8798 12.299C21.6365 12.7133 21.2001 13.1445 20.7946 13.3628C20.7246 13.2509 20.582 13.0913 20.4813 13.0073C20.8701 12.8365 21.2952 12.4921 21.5134 12.1618L21.8798 12.299ZM22.4421 12.033V13.374H21.9805V12.033H20.6044V11.6439H21.9805V10.7816H22.4421V11.6439H22.9791L22.6714 11.5207C22.8253 11.3247 23.0071 11.0251 23.1022 10.8236L23.5441 10.9663C23.3595 11.2155 23.1553 11.4703 22.9959 11.641H23.7623V12.0302H22.4449L22.4421 12.033ZM21.312 10.8096C21.4771 11.0055 21.6421 11.2715 21.7064 11.4535L21.312 11.6186C21.2533 11.4367 21.0939 11.1651 20.94 10.9691L21.312 10.8096ZM24.3916 10.2832C24.3805 11.8426 24.428 12.8841 24.8 12.8841C24.9007 12.8841 24.9287 12.5817 24.9343 12.1282C25.035 12.2402 25.1637 12.3606 25.2643 12.4362C25.228 13.1165 25.1273 13.3712 24.7749 13.3712C24.014 13.3712 23.9133 12.3074 23.8994 10.6696H20.9512V10.2804H24.3944L24.3916 10.2832ZM21.519 10.0005V9.62809H24.6434V10.0005H21.519ZM22.8784 12.1562C23.2141 12.397 23.6476 12.7357 23.8658 12.9653L23.5581 13.2676C23.3511 13.0381 22.926 12.6769 22.5903 12.4221L22.8784 12.1562Z" fill="white"/>
<path d="M27.651 8.65651C27.5335 9.04006 27.3964 9.42361 27.2258 9.79036V13.3851H26.7531V10.689C26.6468 10.8598 26.5405 11.0138 26.4286 11.151C26.3867 11.0278 26.2636 10.7534 26.1797 10.6303C26.5993 10.1039 26.9657 9.31722 27.1894 8.53052L27.651 8.65929V8.65651ZM28.0174 12.3465H27.5866V9.61398H28.0174V12.3465ZM29.8187 12.0273C29.6901 12.5116 29.3097 13.0212 28.3139 13.3935C28.244 13.2871 28.1013 13.1163 27.9894 13.0212C28.8565 12.7552 29.1838 12.3828 29.3069 12.0273H28.202V11.6073H29.3824V10.997H28.8873C28.7698 11.2042 28.6495 11.3946 28.5153 11.5401C28.4314 11.4646 28.2384 11.3442 28.1321 11.2854C28.409 10.997 28.6411 10.5631 28.7642 10.1207L29.2145 10.2271C29.1782 10.3503 29.1306 10.4651 29.0831 10.5883H30.9152V10.997H29.8747V11.6073H31.0746V12.0273H29.8159H29.8187ZM31.069 10.1067H28.1936V9.69236H30.0257C30.0565 9.51599 30.0845 9.32001 30.1096 9.14923H28.4677V8.74049H30.2159L30.2914 8.71809L30.6327 8.76009C30.6019 9.06245 30.5544 9.39842 30.504 9.68958H31.0662V10.1039L31.069 10.1067ZM30.118 12.0973C30.4593 12.394 30.9208 12.8112 31.1585 13.066L30.7977 13.3571C30.5795 13.1024 30.1236 12.6712 29.7768 12.352L30.118 12.0973Z" fill="white"/>
<path d="M33.9158 9.80441C33.7508 10.076 33.555 10.3531 33.3368 10.6191V13.3908H32.8417V11.1678C32.6655 11.3442 32.4865 11.5094 32.3159 11.6466C32.2515 11.5402 32.0781 11.3218 31.9746 11.2266C32.5172 10.8375 33.0907 10.2328 33.4459 9.63083L33.913 9.80721L33.9158 9.80441ZM33.7144 8.68735C33.3536 9.16049 32.7998 9.68682 32.3103 10.034C32.2515 9.922 32.1201 9.73162 32.0278 9.63644C32.4697 9.34807 32.9788 8.87492 33.2389 8.49417L33.7116 8.69015L33.7144 8.68735ZM36.9031 10.7311H36.1367V12.7776C36.1367 13.0604 36.0724 13.2032 35.871 13.2816C35.6752 13.3572 35.3619 13.3628 34.8668 13.3628C34.8444 13.22 34.7773 13.0128 34.7074 12.8672C35.0486 12.8784 35.4039 12.8784 35.499 12.8728C35.5997 12.8728 35.6332 12.8476 35.6332 12.772V10.7311H33.955V10.258H36.9031V10.7311ZM36.7549 9.27807H34.1787V8.80493H36.7549V9.27807Z" fill="white"/>
<path d="M42.66 9.70918C42.66 9.70918 42.6544 9.87996 42.6544 9.93875C42.5956 12.1365 42.5481 12.8896 42.3774 13.1192C42.2768 13.2788 42.1649 13.3207 41.9998 13.3487C41.8404 13.3711 41.5971 13.3711 41.3453 13.3543C41.3341 13.22 41.281 13.0184 41.2083 12.8868C41.4516 12.9092 41.6698 12.9092 41.7649 12.9092C41.8544 12.9092 41.9019 12.8924 41.9551 12.8252C42.0726 12.6768 42.1257 12.0021 42.1677 10.1711H41.5411C41.4712 11.585 41.2334 12.7132 40.3188 13.4159C40.2433 13.304 40.081 13.1276 39.9635 13.0492C39.9943 13.0268 40.0279 13.0016 40.0586 12.9736C39.2922 13.0632 38.5286 13.1444 37.9608 13.1976L37.8965 12.7776C38.2042 12.7552 38.5874 12.7244 39.0069 12.688V12.2849H38.0391V11.9237H39.0069V11.6521H38.0559V10.0507H39.0069V9.77358H37.9133V9.40683H39.0069V9.11007C38.6825 9.13806 38.358 9.15206 38.0615 9.16326C38.0447 9.06247 37.9916 8.90289 37.944 8.8077C38.73 8.7657 39.6698 8.67052 40.2237 8.54733L40.4586 8.91969C40.1761 8.97848 39.8265 9.03167 39.4601 9.06806V9.40963H40.5342V9.71759H41.0908C41.0964 9.35643 41.0964 8.97848 41.0964 8.57812H41.5691C41.5691 8.97288 41.5635 9.35363 41.5579 9.71759H42.6572L42.66 9.70918ZM38.4615 10.6919H39.0097V10.3671H38.4615V10.6919ZM39.0097 11.319V10.9942H38.4615V11.319H39.0097ZM39.4601 12.6404C39.7901 12.6096 40.1286 12.576 40.4642 12.5396C40.9006 11.9377 41.032 11.137 41.074 10.1683H40.5118V9.77078H39.4601V10.0479H40.4474V11.6494H39.4601V11.9209H40.4586V12.2821H39.4601V12.6432V12.6404ZM40.0279 10.6919V10.3671H39.4601V10.6919H40.0279ZM39.4601 10.997V11.3218H40.0279V10.997H39.4601Z" fill="white"/>
</svg>
