<svg width="318" height="80" viewBox="0 0 318 80" fill="none" xmlns="http://www.w3.org/2000/svg">
<path d="M13.2378 70.5642C12.5135 73.545 10.9178 75.7281 9.12266 76.9037C8.89171 76.6098 8.36681 76.0955 8.05188 75.8961C9.53207 75.0144 10.8338 73.461 11.5267 71.5088H8.36681V70.2388H12.104L12.335 70.1968L13.2378 70.5746V70.5642ZM20.9852 69.3886C19.8724 70.4277 18.4657 71.5928 17.311 72.3904C18.3502 73.8809 19.7255 75.0564 21.4996 75.7177C21.1952 75.9905 20.7752 76.5468 20.5548 76.9037C18.2768 75.9066 16.6601 74.1433 15.5473 71.8551V76.1585C15.5473 76.9247 15.3689 77.313 14.8545 77.5335C14.3191 77.7644 13.5107 77.7749 12.3245 77.7749C12.2615 77.397 12.0515 76.7882 11.8416 76.4314C12.6394 76.4629 13.5212 76.4629 13.7627 76.4629C14.0251 76.4524 14.0986 76.3789 14.0986 76.127V68.7169H10.2774V67.4259H15.5473V68.5804C15.8518 69.5775 16.2087 70.5222 16.6811 71.3618C17.7624 70.5327 18.9801 69.4096 19.7674 68.4965L20.9957 69.3886H20.9852ZM16.7861 67.6043C15.6313 66.9431 13.2798 66.0824 11.5162 65.6311L12.1775 64.5185C13.8992 64.9068 16.2717 65.673 17.4894 66.3448L16.7756 67.6043H16.7861Z" fill="#141414"/>
<path d="M27.1474 73.9963C27.0005 75.3398 26.738 76.7778 26.4336 77.7014C26.2026 77.5755 25.6987 77.4285 25.4153 77.355C25.7512 76.4314 25.9507 75.0669 26.0766 73.8074L27.1369 73.9963H27.1474ZM29.4884 73.3981C29.4569 73.1672 29.4045 72.9048 29.3415 72.6004C26.633 73.0097 26.2026 73.1042 25.9087 73.2616C25.8562 73.0202 25.6777 72.4534 25.5308 72.1491C25.8352 72.0651 26.1396 71.7187 26.5595 71.1624C26.7485 70.9315 27.1369 70.3752 27.5778 69.672C26.3286 69.819 26.0137 69.9029 25.8142 69.9869C25.7512 69.735 25.5728 69.1892 25.4363 68.8848C25.6987 68.8323 25.9192 68.5385 26.1921 68.0871C26.4861 67.6673 27.3679 66.0194 27.8613 64.4555L28.995 64.9174C28.4702 66.2189 27.7773 67.5518 27.0739 68.6329L28.2917 68.528C28.6276 67.8877 28.974 67.2265 29.2575 66.5757L30.2968 67.1845C29.4884 68.8009 28.4387 70.4382 27.3679 71.7922L29.1315 71.5613C29.016 71.1309 28.8901 70.6796 28.7536 70.2913L29.6774 70.0499C30.0133 71.047 30.3598 72.3275 30.4752 73.0727L29.4884 73.3876V73.3981ZM28.4387 73.7759C28.6276 74.836 28.7746 76.1795 28.8166 77.0926L27.8193 77.2816C27.8088 76.3684 27.6723 74.9935 27.5148 73.9334L28.4387 73.7759ZM29.6984 73.4191C29.9713 74.2482 30.3178 75.3398 30.4542 76.0535L29.5409 76.3474C29.415 75.6337 29.121 74.5211 28.8271 73.671L29.6984 73.4296V73.4191ZM35.9236 75.6967C36.9524 76.0535 38.0337 76.4944 38.7475 76.8092L38.2016 77.7644C37.4353 77.4075 36.2175 76.8512 35.1363 76.4419L35.5667 75.6862H33.2257L34.0235 76.4209C32.9212 76.9247 31.5145 77.46 30.5067 77.8379C30.4017 77.5755 30.1918 77.1766 30.0028 76.8932C30.8742 76.5993 32.1339 76.085 32.9422 75.6757H30.8322V71.4143H38.0127V75.6757H35.9446L35.9236 75.6967ZM33.824 66.1139H30.2653V65.2007H33.824V64.487H35.1468V65.2007H38.5376V66.1139H35.1468V66.7541H38.0337V67.6253H30.8322V66.7541H33.8345V66.1139H33.824ZM30.3283 68.1186H38.4641V70.9H30.3283V68.1186ZM31.4515 70.0289H32.8162V68.9898H31.4515V70.0289ZM32.0079 72.7158H36.7424V72.191H32.0079V72.7158ZM32.0079 73.8179H36.7424V73.2826H32.0079V73.8179ZM32.0079 74.962H36.7424V74.3847H32.0079V74.962ZM35.0943 70.0289V68.9898H33.8345V70.0289H35.0943ZM37.2988 68.9793H36.1231V70.0184H37.2988V68.9793Z" fill="#141414"/>
<path d="M49.9277 76.7567C50.6101 76.3369 51.3134 75.6862 51.6808 75.1823L52.7936 75.8226C52.1742 76.5468 51.2189 77.355 50.4001 77.8168C50.2111 77.5754 49.8017 77.2081 49.5288 76.9877L49.6863 76.9037H46.138V77.6279H45.1197V73.6499C45.0042 73.7969 44.8888 73.9438 44.7733 74.0803C44.7313 73.9963 44.6473 73.8599 44.5423 73.7339C44.4163 75.1194 44.1854 76.5573 43.7655 77.6909C43.545 77.502 43.0411 77.2396 42.7367 77.1451C43.524 75.1194 43.566 72.254 43.566 70.2283V65.6101H43.5765C45.3611 65.4316 47.4607 65.1482 48.626 64.7704L49.6128 65.673C48.269 66.0824 46.4004 66.3553 44.6893 66.5127V67.09H49.6548V70.2178H44.6893C44.6893 70.9315 44.6788 71.7502 44.6263 72.6108C45.0777 71.9286 45.4661 71.0889 45.6971 70.2703L46.6524 70.5117C46.5474 70.8475 46.4214 71.1729 46.306 71.4983H47.3662C47.2508 71.1939 47.1038 70.858 46.9568 70.5746L47.8491 70.3437C48.0696 70.6901 48.2795 71.1414 48.416 71.4983H49.8017V72.3799H48.3005V73.0412H49.6653V73.8389H48.3005V74.5001H49.6758V75.3083H48.3005V75.9905H49.9067V76.7777L49.9277 76.7567ZM44.6998 68.1186V69.1787H48.4685V68.1186H44.6998ZM47.3977 72.3589H46.1485V73.0202H47.3977V72.3589ZM47.3977 73.8179H46.1485V74.4791H47.3977V73.8179ZM46.1485 75.98H47.3977V75.2978H46.1485V75.98ZM52.1742 67.4364C52.2372 67.0795 52.2897 66.6597 52.3317 66.2923H50.0852V65.1482H55.9954V66.2923H53.6754C53.5704 66.6806 53.476 67.069 53.371 67.4364H55.5545V74.878H50.4421V67.4364H52.1637H52.1742ZM54.4103 68.4754H51.5759V69.588H54.4103V68.4754ZM54.4103 70.5746H51.5759V71.7187H54.4103V70.5746ZM54.4103 72.6948H51.5759V73.8389H54.4103V72.6948ZM54.4103 75.1928C55.0506 75.7176 55.8275 76.4838 56.2159 76.9981L55.1976 77.6909C54.8407 77.1661 54.0638 76.3579 53.434 75.7911L54.3998 75.1823L54.4103 75.1928Z" fill="#141414"/>
<path d="M62.3152 70.2598V77.7853H60.9819V65.0748H66.3148V70.2598H62.3152ZM62.3152 66.1454V67.1635H65.0341V66.1454H62.3152ZM65.0446 69.1997V68.1081H62.3257V69.1997H65.0446ZM65.37 75.7596V76.5993H64.1208V71.4143H69.5796V75.7596H65.37ZM65.37 72.5479V74.6471H68.3199V72.5479H65.37ZM72.918 76.0745C72.918 76.8827 72.729 77.3025 72.2041 77.5334C71.6687 77.7539 70.8184 77.7643 69.5062 77.7643C69.4642 77.3865 69.2437 76.7672 69.0443 76.3894C69.9576 76.4314 70.9024 76.4209 71.1858 76.4209C71.4588 76.4104 71.5322 76.3159 71.5322 76.064V70.2703H67.4486V65.0748H72.9075V76.0745H72.918ZM68.7503 66.1349V67.1635H71.5427V66.1349H68.7503ZM71.5427 69.2207V68.1186H68.7503V69.2207H71.5427Z" fill="#141414"/>
<path opacity="0.8" d="M285.215 27.5098C285.215 31.9706 280.512 39.9475 277.142 39.9475C273.773 39.9475 269.07 31.9706 269.07 27.5098C269.07 23.0491 272.681 19.4385 277.142 19.4385C281.604 19.4385 285.215 23.0491 285.215 27.5098Z" fill="url(#paint0_linear_5542_2003)"/>
<path d="M277.142 30.8791C279.003 30.8791 280.512 29.3706 280.512 27.5099C280.512 25.6491 279.003 24.1407 277.142 24.1407C275.281 24.1407 273.773 25.6491 273.773 27.5099C273.773 29.3706 275.281 30.8791 277.142 30.8791Z" fill="white"/>
<path d="M252.683 50.6639C252.588 50.6639 252.494 50.6324 252.41 50.5799C252.273 50.4855 252.2 50.3385 252.2 50.1811V15.6704C252.2 15.471 252.326 15.2926 252.515 15.2191L268.818 8.93205C268.933 8.89007 269.059 8.89007 269.164 8.93205L285.299 15.1561L301.434 8.93205C301.581 8.86908 301.749 8.89007 301.886 8.98453C302.022 9.079 302.096 9.22594 302.096 9.38338V43.894C302.096 44.0934 301.97 44.2719 301.781 44.3453L285.478 50.6324C285.362 50.6744 285.236 50.6744 285.131 50.6324L268.996 44.4083L252.861 50.6324C252.809 50.6534 252.746 50.6639 252.683 50.6639ZM268.996 43.4007C269.059 43.4007 269.112 43.4112 269.175 43.4322L285.31 49.6563L301.13 43.5581V10.0866L285.488 16.1218C285.373 16.1638 285.247 16.1638 285.142 16.1218L269.007 9.89768L253.186 15.9958V49.4674L268.828 43.4322C268.881 43.4112 268.944 43.4007 269.007 43.4007H268.996Z" fill="#626262"/>
<path d="M268.996 16.2792C268.723 16.2792 268.513 16.0588 268.513 15.7964V9.38339C268.513 9.11049 268.734 8.90057 268.996 8.90057C269.259 8.90057 269.479 9.12099 269.479 9.38339V15.7964C269.479 16.0693 269.259 16.2792 268.996 16.2792Z" fill="#626262"/>
<path d="M285.299 50.6639C285.026 50.6639 284.816 50.4434 284.816 50.181V43.768C284.816 43.4951 285.037 43.2852 285.299 43.2852C285.562 43.2852 285.782 43.5056 285.782 43.768V50.181C285.782 50.4539 285.562 50.6639 285.299 50.6639Z" fill="#626262"/>
<path d="M285.299 18.8822C285.026 18.8822 284.816 18.6618 284.816 18.3994V15.7964C284.816 15.5235 285.037 15.3136 285.299 15.3136C285.562 15.3136 285.782 15.534 285.782 15.7964V18.3994C285.782 18.6723 285.562 18.8822 285.299 18.8822Z" fill="#626262"/>
<path d="M268.996 44.3768C268.723 44.3768 268.513 44.1564 268.513 43.894V41.291C268.513 41.0181 268.734 40.8082 268.996 40.8082C269.259 40.8082 269.479 41.0286 269.479 41.291V43.894C269.479 44.1669 269.259 44.3768 268.996 44.3768Z" fill="#626262"/>
<path d="M183.691 49.1944H134.299C133.154 49.1944 132.231 48.2603 132.231 47.1268V12.4377C132.231 11.2936 133.165 10.37 134.299 10.37H183.691C184.835 10.37 185.759 11.3041 185.759 12.4377V47.1163C185.759 48.2603 184.825 49.184 183.691 49.184V49.1944ZM134.299 11.4196C133.732 11.4196 133.28 11.8814 133.28 12.4377V47.1163C133.28 47.683 133.742 48.1344 134.299 48.1344H183.691C184.258 48.1344 184.709 47.6725 184.709 47.1163V12.4377C184.709 11.8709 184.247 11.4196 183.691 11.4196H134.299Z" fill="#626262"/>
<path opacity="0.8" d="M155.137 23.5319H147.778V30.8895H155.137V23.5319Z" fill="url(#paint1_linear_5542_2003)"/>
<path opacity="0.8" d="M164.784 32.6634H157.425V40.021H164.784V32.6634Z" fill="url(#paint2_linear_5542_2003)"/>
<path opacity="0.8" d="M170.212 19.533H162.853V26.8906H170.212V19.533Z" fill="url(#paint3_linear_5542_2003)"/>
<path d="M240.851 70.5642C240.127 73.545 238.531 75.7281 236.736 76.9037C236.505 76.6098 235.98 76.0955 235.666 75.8961C237.146 75.0144 238.447 73.461 239.14 71.5088H235.98V70.2388H239.718L239.949 70.1968L240.851 70.5746V70.5642ZM248.599 69.3886C247.486 70.4277 246.079 71.5928 244.925 72.3904C245.964 73.8809 247.339 75.0564 249.113 75.7177C248.809 75.9905 248.389 76.5468 248.168 76.9037C245.89 75.9066 244.274 74.1433 243.161 71.8551V76.1585C243.161 76.9247 242.983 77.313 242.468 77.5335C241.933 77.7644 241.124 77.7749 239.938 77.7749C239.875 77.397 239.665 76.7882 239.455 76.4314C240.253 76.4629 241.135 76.4629 241.376 76.4629C241.639 76.4524 241.712 76.3789 241.712 76.127V68.7169H237.891V67.4259H243.161V68.5804C243.465 69.5775 243.822 70.5222 244.295 71.3618C245.376 70.5327 246.594 69.4096 247.381 68.4965L248.609 69.3886H248.599ZM244.4 67.6043C243.245 66.9431 240.893 66.0824 239.13 65.6311L239.791 64.5185C241.513 64.9068 243.885 65.673 245.103 66.3448L244.389 67.6043H244.4Z" fill="#141414"/>
<path d="M254.761 73.9963C254.614 75.3398 254.352 76.7778 254.047 77.7014C253.816 77.5755 253.312 77.4285 253.029 77.355C253.365 76.4314 253.564 75.0669 253.69 73.8074L254.751 73.9963H254.761ZM257.113 73.3981C257.081 73.1672 257.029 72.9048 256.966 72.6004C254.257 73.0097 253.827 73.1042 253.533 73.2616C253.47 73.0202 253.302 72.4534 253.155 72.1491C253.459 72.0651 253.764 71.7187 254.184 71.1624C254.373 70.9315 254.761 70.3752 255.202 69.672C253.953 69.819 253.638 69.9029 253.438 69.9869C253.375 69.735 253.197 69.1892 253.061 68.8848C253.323 68.8323 253.543 68.5385 253.816 68.0871C254.11 67.6673 254.992 66.0194 255.486 64.4555L256.619 64.9174C256.094 66.2189 255.402 67.5518 254.698 68.6329L255.916 68.528C256.252 67.8877 256.598 67.2265 256.882 66.5757L257.921 67.1845C257.113 68.8009 256.063 70.4382 254.992 71.7922L256.756 71.5613C256.64 71.1309 256.514 70.6796 256.378 70.2913L257.302 70.0499C257.638 71.047 257.984 72.3275 258.1 73.0727L257.113 73.3876V73.3981ZM256.052 73.7759C256.241 74.836 256.388 76.1795 256.43 77.0926L255.433 77.2816C255.423 76.3684 255.286 74.9935 255.129 73.9334L256.052 73.7759ZM257.312 73.4191C257.585 74.2482 257.932 75.3398 258.068 76.0535L257.155 76.3474C257.029 75.6337 256.735 74.5211 256.441 73.671L257.312 73.4296V73.4191ZM263.537 75.6967C264.566 76.0535 265.647 76.4944 266.361 76.8092L265.815 77.7644C265.049 77.4075 263.831 76.8512 262.75 76.4419L263.18 75.6862H260.839L261.637 76.4209C260.535 76.9247 259.128 77.46 258.121 77.8379C258.016 77.5755 257.806 77.1766 257.617 76.8932C258.488 76.5993 259.748 76.085 260.556 75.6757H258.446V71.4143H265.626V75.6757H263.558L263.537 75.6967ZM261.438 66.1139H257.879V65.2007H261.438V64.487H262.761V65.2007H266.151V66.1139H262.761V66.7541H265.637V67.6253H258.435V66.7541H261.438V66.1139ZM257.953 68.1186H266.088V70.9H257.953V68.1186ZM259.065 70.0289H260.43V68.9898H259.065V70.0289ZM259.632 72.7158H264.367V72.191H259.632V72.7158ZM259.632 73.8179H264.367V73.2826H259.632V73.8179ZM259.632 74.962H264.367V74.3847H259.632V74.962ZM262.719 70.0289V68.9898H261.459V70.0289H262.719ZM264.913 68.9793H263.737V70.0184H264.913V68.9793Z" fill="#141414"/>
<path d="M282.906 66.2293C282.454 67.7302 281.73 69.0212 280.838 70.0918C281.719 70.8895 282.759 71.5508 283.998 71.9916C283.735 72.233 283.347 72.7788 283.168 73.1042L282.874 72.9887V77.6909H281.583V77.2291H278.35V77.7329H277.121V72.9992C276.901 73.1042 276.702 73.1986 276.481 73.2931C276.397 73.1147 276.25 72.9047 276.103 72.6948L274.413 72.7053V74.9934L276.208 74.5736L276.334 75.7596C274.35 76.2634 272.25 76.7777 270.686 77.1346L270.455 75.8331C270.676 75.7911 270.907 75.7491 271.148 75.7071V70.8265H272.25V75.4762L273.206 75.2558V69.609H271.19V65.0643H275.967V68.7693C277.048 67.7092 277.961 66.1454 278.476 64.487L279.777 64.8019C279.651 65.1797 279.504 65.5576 279.347 65.9144H281.814L282.045 65.8515L282.895 66.2083L282.906 66.2293ZM272.376 68.465H274.738V66.2398H272.376V68.465ZM276.114 72.128C277.195 71.6662 278.255 70.9735 279.169 70.0708C278.707 69.5251 278.339 68.9583 278.024 68.402C277.678 68.9058 277.289 69.3676 276.911 69.7665C276.712 69.546 276.292 69.1997 275.988 68.9688V69.6195H274.423V71.5298H276.114V72.128ZM281.992 72.5269C281.237 72.0965 280.575 71.5613 279.998 70.9945C279.389 71.5927 278.707 72.107 278.003 72.5269H282.003H281.992ZM281.593 76.0745V73.6709H278.36V76.0745H281.593ZM278.822 67.069L278.696 67.3314C279.032 67.9507 279.431 68.5804 279.956 69.1892C280.481 68.5489 280.911 67.8457 281.247 67.0795H278.833L278.822 67.069Z" fill="#141414"/>
<path d="M292.228 67.9087C291.892 68.5174 291.493 69.1262 291.052 69.714V77.7644H289.792V71.2149C289.33 71.7187 288.848 72.1805 288.375 72.5584C288.249 72.2855 287.85 71.6137 287.64 71.3304C288.91 70.4067 290.233 68.9373 291.042 67.4783L292.228 67.8982V67.9087ZM291.934 64.9593C291.063 66.2083 289.729 67.5623 288.501 68.423C288.344 68.1606 287.997 67.6883 287.777 67.4574C288.858 66.7016 290.107 65.5051 290.716 64.508L291.934 64.9698V64.9593ZM301.193 76.19V77.3865H291.755V76.19H295.881V73.9123H292.627V72.7263H300.49V73.9123H297.246V76.19H301.203H301.193ZM293.991 72.317C293.676 71.5613 293.005 70.4592 292.28 69.4831C292.847 68.6014 293.456 67.5623 293.771 66.8591L294.978 67.1215C294.558 67.9507 294.054 68.7588 293.572 69.4621C294.191 70.2913 294.842 71.2884 295.167 71.9496L293.991 72.3065V72.317ZM301.014 66.4183H292.438V65.2007H301.014V66.4183ZM297.666 67.1425C297.235 67.9507 296.668 68.7484 296.186 69.4621C296.847 70.2913 297.561 71.2884 297.897 71.9496L296.721 72.3065C296.374 71.5508 295.65 70.4697 294.863 69.4726C295.482 68.6014 296.112 67.5623 296.437 66.8486L297.655 67.1425H297.666ZM299.608 72.317C299.198 71.5613 298.401 70.4802 297.519 69.4831C298.138 68.6329 298.831 67.5623 299.198 66.8591L300.406 67.153C299.944 67.9926 299.366 68.7589 298.841 69.4726C299.597 70.2703 300.374 71.2779 300.784 71.9286L299.608 72.317Z" fill="#141414"/>
<path d="M317.989 65.0328V77.7748H316.688V77.2395H307.135V77.7748H305.875V65.0328H318H317.989ZM316.688 76.127V66.1663H307.135V76.127H316.688ZM316.142 69.567V70.3542H307.712V69.567H311.292V69.0002H309.035V66.7436H314.767V69.0002H312.436V69.567H316.142ZM308.562 70.879H315.239V75.4657H308.562V70.879ZM309.612 74.6785H314.147V71.6662H309.612V74.6785ZM310.127 68.2655H313.612V67.4783H310.127V68.2655ZM310.379 72.1805H313.381V74.1327H310.379V72.1805ZM311.155 73.503H312.562V72.8208H311.155V73.503Z" fill="#141414"/>
<path d="M40.8366 52.1228C28.7641 52.1228 18.9486 42.3091 18.9486 30.2388C18.9486 18.1685 28.7641 8.35477 40.8366 8.35477C52.9091 8.35477 62.7245 18.1685 62.7245 30.2388C62.7245 42.3091 52.9091 52.1228 40.8366 52.1228ZM40.8366 9.40436C29.352 9.40436 19.9984 18.7457 19.9984 30.2388C19.9984 41.7318 29.3415 51.0732 40.8366 51.0732C52.3317 51.0732 61.6747 41.7318 61.6747 30.2388C61.6747 18.7457 52.3317 9.40436 40.8366 9.40436Z" fill="#626262"/>
<path opacity="0.8" d="M45.3086 34.71C45.3611 34.6576 45.4031 34.5841 45.4346 34.5211C45.4346 34.5211 45.4451 34.5106 45.4451 34.5001L50.3056 22.9756C50.5785 22.3143 50.4106 21.5481 49.8857 21.0758C49.4028 20.635 48.7099 20.5091 48.101 20.7714L36.5744 25.6311C36.5744 25.6311 36.5639 25.6416 36.5534 25.6416C36.4799 25.673 36.417 25.715 36.354 25.778C36.291 25.841 36.2595 25.904 36.2175 25.9774C36.2175 25.9774 36.207 25.9879 36.207 25.9984L31.3465 37.523C31.0841 38.1527 31.2205 38.8769 31.7034 39.3597C32.1863 39.8426 32.9107 39.9895 33.5406 39.7166L45.0672 34.857C45.0672 34.857 45.0777 34.8465 45.0882 34.8465C45.1616 34.815 45.2246 34.773 45.2771 34.7205L45.3086 34.71ZM33.0262 38.4466C32.8582 38.5201 32.7427 38.4361 32.6902 38.3836C32.6377 38.3311 32.5538 38.2157 32.6272 38.0478L37.0993 27.4679L43.6185 33.9858L33.0367 38.4571L33.0262 38.4466Z" fill="url(#paint4_linear_5542_2003)"/>
<path d="M122.268 74.1958C121.418 75.3083 120.137 76.4944 119.056 77.2396C118.793 76.9772 118.248 76.5469 117.901 76.3369C119.014 75.6967 120.19 74.6681 120.914 73.713L122.279 74.1958H122.268ZM125.019 73.0097V76.2635C125.019 76.9562 124.861 77.334 124.326 77.5335C123.801 77.7329 123.035 77.7539 121.985 77.7539C121.911 77.376 121.691 76.7988 121.481 76.4314C122.289 76.4734 123.119 76.4734 123.36 76.4629C123.591 76.4524 123.654 76.3894 123.654 76.232V73.1252C120.022 73.4191 119.423 73.503 118.972 73.671C118.909 73.4086 118.709 72.7788 118.562 72.4115C119.066 72.338 119.675 72.1176 120.536 71.6977C121.061 71.4668 122.111 70.942 123.329 70.2388C120.494 70.4277 120.011 70.5012 119.675 70.6271C119.612 70.3543 119.434 69.7035 119.266 69.3676C119.633 69.3151 119.98 69.1472 120.452 68.8848C120.914 68.6644 122.216 67.9192 123.318 67.0165C121.764 67.3629 120.116 67.6673 118.583 67.9192C118.541 67.5728 118.342 67.069 118.206 66.7751C121.46 66.2398 125.145 65.4002 127.255 64.4555L128.241 65.5156C127.066 66.0089 125.638 66.4603 124.095 66.8276L124.945 67.3629C124.063 68.0451 123.119 68.6644 122.163 69.1892L125.25 69.0423C125.785 68.6854 126.32 68.2866 126.824 67.8982L127.853 68.7799C126.089 70.0499 124.231 71.1205 122.384 72.0126L127.58 71.6662C127.202 71.2149 126.782 70.7846 126.425 70.4067L127.528 69.8609C128.588 70.8476 129.806 72.1805 130.415 73.0412L129.27 73.7549C129.081 73.482 128.819 73.1147 128.514 72.7368L125.008 72.9992L125.019 73.0097ZM127.16 73.5555C128.273 74.3532 129.711 75.5078 130.436 76.295L129.26 77.1031C128.609 76.3159 127.202 75.1089 126.079 74.2482L127.16 73.5555Z" fill="#141414"/>
<path d="M136.535 73.9963C136.388 75.2558 136.146 76.6308 135.852 77.5019C135.621 77.376 135.097 77.2081 134.834 77.1241C135.149 76.2529 135.359 74.9829 135.453 73.8074L136.524 73.9963H136.535ZM139.317 73.1566C139.285 72.9677 139.233 72.7263 139.159 72.4639C136.104 72.9992 135.653 73.1146 135.369 73.2721C135.307 73.0097 135.107 72.3694 134.95 72.0441C135.286 71.9601 135.6 71.6137 136.031 71.0784C136.251 70.8475 136.629 70.3437 137.07 69.672C135.768 69.8294 135.464 69.9029 135.265 70.0078C135.191 69.7454 134.992 69.1262 134.855 68.7903C135.097 68.7169 135.348 68.4335 135.653 67.9926C135.947 67.6043 136.913 65.9669 137.48 64.4345L138.708 64.9593C138.088 66.2713 137.301 67.6358 136.503 68.7064L137.773 68.6014C138.183 67.9402 138.582 67.2264 138.918 66.5022L140.052 67.1949C139.17 68.8008 138.036 70.4487 136.892 71.7817L138.844 71.4878C138.697 71.0365 138.529 70.6166 138.351 70.2283L139.296 69.8924C139.726 70.816 140.167 72.0021 140.314 72.7578L139.317 73.1461V73.1566ZM138.015 73.7339C138.204 74.6785 138.372 75.9171 138.424 76.7147L137.385 76.9771C137.354 76.169 137.207 74.9095 137.049 73.9543L138.015 73.7339ZM139.548 73.3456C139.852 74.1223 140.188 75.1718 140.314 75.8331L139.359 76.169C139.233 75.4867 138.907 74.4476 138.634 73.6499L139.548 73.3456ZM146.749 76.3579C147.043 76.3579 147.085 76.085 147.127 74.4161C147.4 74.6366 147.935 74.8465 148.271 74.9409C148.156 76.9876 147.851 77.5439 146.886 77.5439H145.741C144.608 77.5439 144.335 77.1556 144.335 75.8961V71.1624L143.222 71.2884C143.106 74.5421 142.697 76.6308 140.24 77.8588C140.094 77.5124 139.716 77.0296 139.432 76.7882C141.542 75.8331 141.847 74.1852 141.941 71.4563C141.175 71.5403 140.912 71.6137 140.723 71.7187C140.65 71.4458 140.419 70.7741 140.24 70.3962C140.576 70.3122 140.86 69.9344 141.259 69.3361C141.458 69.0632 141.868 68.3705 142.319 67.4993H140.377V66.2398H142.928C143.19 65.6625 143.432 65.0643 143.642 64.4555L145.122 64.8648C144.923 65.3162 144.702 65.7885 144.503 66.2398H148.051V67.4993H143.852C143.327 68.4544 142.781 69.3676 142.235 70.1653L145.93 69.8189C145.657 69.3151 145.353 68.8323 145.09 68.402L146.172 67.9192C146.928 69.0317 147.809 70.5012 148.166 71.4563L146.98 72.0231C146.865 71.7082 146.707 71.3303 146.497 70.9105L145.626 71.0155V75.8751C145.626 76.2844 145.657 76.3579 145.962 76.3579H146.77H146.749Z" fill="#141414"/>
<path d="M165.488 75.3818V76.7253H152.523V75.3818H158.181V67.4469H153.289V66.0614H164.732V67.4469H159.693V75.3818H165.488Z" fill="#141414"/>
<path d="M174.39 64.9593C174.001 65.9774 173.508 67.0165 172.952 67.9822V77.7539H171.587V70.1128C171.209 70.6376 170.81 71.11 170.401 71.5298C170.275 71.1939 169.876 70.4382 169.645 70.1443C171.02 68.7799 172.311 66.6702 173.088 64.5605L174.379 64.9698L174.39 64.9593ZM178.757 68.1606V69.9974H182.694V71.2254H178.757V73.1462H182.904V74.4057H178.757V77.7644H177.382V68.1501H176.573C175.965 69.2837 175.303 70.2913 174.6 71.0575C174.379 70.8266 173.865 70.3437 173.561 70.1443C174.831 68.8113 175.996 66.7227 176.689 64.6445L177.98 64.9908C177.749 65.6101 177.497 66.2503 177.224 66.8591H183.04V68.1501H178.757V68.1606Z" fill="#141414"/>
<path d="M195.491 70.1758V70.2913H199.658C199.658 70.2913 199.648 70.7006 199.627 70.8895C199.448 75.0144 199.291 76.5783 198.829 77.1031C198.535 77.481 198.209 77.6069 197.716 77.6489C197.286 77.6909 196.519 77.6909 195.721 77.6594C195.711 77.2501 195.533 76.7043 195.291 76.3264C196.078 76.3999 196.813 76.4104 197.118 76.4104C197.38 76.4104 197.538 76.3684 197.685 76.2215C197.958 75.9171 198.136 74.6576 198.283 71.5403H195.449C195.228 73.65 194.43 76.0116 191.732 77.7959C191.501 77.4915 191.05 77.1136 190.714 76.8722C193.779 74.8465 194.157 72.149 194.157 70.1443V68.2656H191.932V69.3046H190.357V73.1881C190.924 72.9677 191.501 72.7683 192.068 72.5689L192.31 73.8284C190.62 74.4791 188.793 75.1929 187.386 75.7072L187.071 74.3217C187.617 74.1433 188.3 73.9019 189.055 73.6395V69.3151H187.313V68.0451H189.055V64.7389H190.357V68.0451H191.89V66.985H200.404V68.2761H195.512V70.1863L195.491 70.1758ZM195.858 66.9011C195.753 66.3343 195.449 65.4002 195.207 64.6864L196.477 64.4135C196.719 65.0958 197.055 65.9879 197.191 66.5442L195.858 66.9011Z" fill="#141414"/>
<defs>
<linearGradient id="paint0_linear_5542_2003" x1="295.073" y1="15.9118" x2="274.363" y2="31.1135" gradientUnits="userSpaceOnUse">
<stop offset="0.11" stop-color="#6DCA1D"/>
<stop offset="1" stop-color="#4DB0FF"/>
</linearGradient>
<linearGradient id="paint1_linear_5542_2003" x1="169.519" y1="3.65259" x2="152.988" y2="25.2246" gradientUnits="userSpaceOnUse">
<stop offset="0.11" stop-color="#6DCA1D"/>
<stop offset="1" stop-color="#4DB0FF"/>
</linearGradient>
<linearGradient id="paint2_linear_5542_2003" x1="180.006" y1="11.6925" x2="163.476" y2="33.254" gradientUnits="userSpaceOnUse">
<stop offset="0.11" stop-color="#6DCA1D"/>
<stop offset="1" stop-color="#4DB0FF"/>
</linearGradient>
<linearGradient id="paint3_linear_5542_2003" x1="177.077" y1="9.44637" x2="160.557" y2="31.0184" gradientUnits="userSpaceOnUse">
<stop offset="0.11" stop-color="#6DCA1D"/>
<stop offset="1" stop-color="#4DB0FF"/>
</linearGradient>
<linearGradient id="paint4_linear_5542_2003" x1="72.0151" y1="7.55707" x2="39.2764" y2="31.3779" gradientUnits="userSpaceOnUse">
<stop offset="0.11" stop-color="#6DCA1D"/>
<stop offset="1" stop-color="#4DB0FF"/>
</linearGradient>
</defs>
</svg>
