<svg width="70" height="70" viewBox="0 0 70 70" fill="none" xmlns="http://www.w3.org/2000/svg">
<g id="Group 254">
<path id="Vector" d="M64.4567 6.10352e-05H5.54331C2.48181 6.10352e-05 0 2.48189 0 5.54339V64.4567C0 67.5182 2.48181 70.0001 5.54331 70.0001H64.4567C67.5182 70.0001 70 67.5182 70 64.4567V5.54339C70 2.48189 67.5182 6.10352e-05 64.4567 6.10352e-05Z" fill="#EF992C"/>
<g id="Group">
<g id="SDG11">
<path id="Vector_2" d="M8.45265 9.16848C8.32865 9.23707 7.97948 9.37098 7.39535 9.58656C6.81122 9.80213 6.65135 9.84459 6.52734 9.89032V8.00896C6.99073 7.81625 7.44433 7.59414 7.87835 7.34263C8.29605 7.13686 8.67784 6.86249 9.00417 6.52933H10.998V19.8786H8.45265V9.16848Z" fill="white"/>
<path id="Vector_3" d="M14.0855 9.16848C13.9615 9.23707 13.6123 9.37098 13.0282 9.58656C12.444 9.80213 12.2842 9.84459 12.1602 9.89032V8.00896C12.6268 7.81298 13.0804 7.59087 13.5242 7.34263C13.9386 7.13033 14.3205 6.85922 14.6501 6.52933H16.6341V19.8786H14.0887V9.16848H14.0855Z" fill="white"/>
<path id="Vector_4" d="M11.6672 52.1623H22.2337C22.3773 52.1623 22.4915 52.0447 22.4915 51.9043C22.4915 51.8422 22.4687 51.7802 22.423 51.7344L17.1071 44.97C17.0581 44.9177 16.9864 44.8883 16.9146 44.8916C16.8558 44.8753 16.7938 44.8753 16.7351 44.8916V44.9471L11.6084 51.7116L11.4746 51.7344C11.4616 51.7834 11.4616 51.8324 11.4746 51.8814C11.4583 52.0088 11.5399 52.1297 11.6672 52.1623Z" fill="white"/>
<path id="Vector_5" d="M22.2013 53.1226H11.625C11.4814 53.1226 11.3672 53.2402 11.3672 53.3806V61.6802C11.3672 61.8239 11.4847 61.9383 11.625 61.9383H15.0058V56.7188C15.0058 56.5751 15.1232 56.4607 15.2635 56.4607H18.429C18.5725 56.4607 18.6868 56.5783 18.6868 56.7188V61.9383H22.1785C22.3221 61.9383 22.4363 61.8207 22.4363 61.6802V53.3806C22.4363 53.2467 22.3351 53.1324 22.2013 53.1226Z" fill="white"/>
<path id="Vector_6" d="M58.7896 50.9571H48.3144C48.1774 50.9571 48.0664 51.0681 48.0664 51.2053V61.7913C48.0664 61.9285 48.1774 62.0395 48.3144 62.0395H58.7896C58.9266 62.0461 59.0409 61.9383 59.0474 61.8044C59.0474 61.8011 59.0474 61.7978 59.0474 61.7913V51.2053C59.0474 51.0681 58.9364 50.9571 58.7994 50.9571C58.7961 50.9571 58.7929 50.9571 58.7864 50.9571M53.056 57.8685C53.056 58.0057 52.945 58.1167 52.808 58.1167H49.6654C49.5284 58.1233 49.4141 58.0155 49.4076 57.8816C49.4076 57.8783 49.4076 57.875 49.4076 57.8685V55.9643C49.4076 55.8271 49.5186 55.716 49.6556 55.716C49.6589 55.716 49.6622 55.716 49.6687 55.716H52.8014C52.9385 55.716 53.0495 55.8271 53.0495 55.9643L53.0593 57.8685H53.056ZM53.056 54.3507C53.056 54.4879 52.945 54.599 52.808 54.599H49.6654C49.5284 54.6055 49.4141 54.4977 49.4076 54.3638C49.4076 54.3605 49.4076 54.3573 49.4076 54.3507V52.4465C49.4076 52.3093 49.5186 52.1983 49.6556 52.1983C49.6589 52.1983 49.6622 52.1983 49.6687 52.1983H52.8014C52.9385 52.1983 53.0495 52.3093 53.0495 52.4465L53.0593 54.3507H53.056ZM57.8433 57.8685C57.8433 58.0057 57.7323 58.1167 57.5952 58.1167C57.592 58.1167 57.5887 58.1167 57.5822 58.1167H54.4625C54.3254 58.1233 54.2112 58.0155 54.2047 57.8816C54.2047 57.8783 54.2047 57.875 54.2047 57.8685V55.9643C54.2047 55.8271 54.3156 55.716 54.4527 55.716C54.456 55.716 54.4592 55.716 54.4657 55.716H57.5854C57.7225 55.7095 57.8367 55.8173 57.8433 55.9512C57.8433 55.9545 57.8433 55.9577 57.8433 55.9643V57.8685ZM57.8433 54.3507C57.8433 54.4879 57.7323 54.599 57.5952 54.599C57.592 54.599 57.5887 54.599 57.5822 54.599H54.4625C54.3254 54.6055 54.2112 54.4977 54.2047 54.3638C54.2047 54.3605 54.2047 54.3573 54.2047 54.3507V52.4465C54.2047 52.3093 54.3156 52.1983 54.4527 52.1983C54.456 52.1983 54.4592 52.1983 54.4657 52.1983H57.5854C57.7225 52.1917 57.8367 52.2995 57.8433 52.4334C57.8433 52.4367 57.8433 52.44 57.8433 52.4465V54.3507Z" fill="white"/>
<path id="Vector_7" d="M34.4355 26.3784H24.1855C24.042 26.3784 23.9277 26.496 23.9277 26.6365V61.7031C23.9277 61.8403 24.0387 61.9513 24.1757 61.9513C24.179 61.9513 24.1823 61.9513 24.1888 61.9513H34.4388C34.5758 61.9513 34.6868 61.8403 34.6868 61.7031V26.6365C34.6933 26.4993 34.5856 26.385 34.4519 26.3784C34.4486 26.3784 34.4453 26.3784 34.4388 26.3784M28.3299 57.9469C28.3299 58.022 28.2679 58.0808 28.1961 58.0808H25.8531C25.778 58.0808 25.7193 58.0187 25.7193 57.9469V55.3208C25.7193 55.2522 25.7748 55.1967 25.8433 55.1967C25.8465 55.1967 25.8498 55.1967 25.8564 55.1967H28.1994C28.2679 55.1901 28.3267 55.2391 28.3332 55.3077C28.3332 55.311 28.3332 55.3143 28.3332 55.3208V57.9469H28.3299ZM28.3299 51.9272C28.3299 52.0023 28.2679 52.0611 28.1961 52.0611H25.8531C25.778 52.0611 25.7193 51.999 25.7193 51.9272V49.3109C25.7193 49.2357 25.7813 49.177 25.8531 49.177H28.1961C28.2712 49.177 28.3299 49.239 28.3299 49.3109V51.9272ZM28.3299 45.9172C28.3299 45.9923 28.2679 46.0511 28.1961 46.0511H25.8531C25.778 46.0511 25.7193 45.9891 25.7193 45.9172V43.3009C25.7193 43.2258 25.7813 43.167 25.8531 43.167H28.1961C28.2712 43.167 28.3299 43.2291 28.3299 43.3009V45.9172ZM28.3299 39.9073C28.3299 39.9824 28.2679 40.0412 28.1961 40.0412H25.8531C25.778 40.0412 25.7193 39.9791 25.7193 39.9073V37.3041C25.7193 37.2289 25.7813 37.1702 25.8531 37.1702H28.1961C28.2712 37.1702 28.3299 37.2322 28.3299 37.3041V39.9073ZM28.3299 33.8974C28.3299 33.9725 28.2679 34.0313 28.1961 34.0313H25.8531C25.778 34.0313 25.7193 33.9692 25.7193 33.8974V31.2713C25.7193 31.1962 25.7813 31.1374 25.8531 31.1374H28.1961C28.2712 31.1374 28.3299 31.1994 28.3299 31.2713V33.8974ZM32.9344 57.9469C32.9344 58.022 32.8724 58.0808 32.8006 58.0808H30.4576C30.3825 58.0808 30.3238 58.0187 30.3238 57.9469V55.3208C30.3238 55.2522 30.3793 55.1967 30.4478 55.1967C30.451 55.1967 30.4543 55.1967 30.4609 55.1967H32.8039C32.8724 55.1901 32.9312 55.2391 32.9377 55.3077C32.9377 55.311 32.9377 55.3143 32.9377 55.3208V57.9469H32.9344ZM32.9344 51.9272C32.9344 52.0023 32.8724 52.0611 32.8006 52.0611H30.4576C30.3825 52.0611 30.3238 51.999 30.3238 51.9272V49.3109C30.3238 49.2357 30.3858 49.177 30.4576 49.177H32.8006C32.8757 49.177 32.9344 49.239 32.9344 49.3109V51.9272ZM32.9344 45.9172C32.9344 45.9923 32.8724 46.0511 32.8006 46.0511H30.4576C30.3825 46.0511 30.3238 45.9891 30.3238 45.9172V43.3009C30.3238 43.2258 30.3858 43.167 30.4576 43.167H32.8006C32.8757 43.167 32.9344 43.2291 32.9344 43.3009V45.9172ZM32.9344 39.9073C32.9344 39.9824 32.8724 40.0412 32.8006 40.0412H30.4576C30.3825 40.0412 30.3238 39.9791 30.3238 39.9073V37.3041C30.3238 37.2289 30.3858 37.1702 30.4576 37.1702H32.8006C32.8757 37.1702 32.9344 37.2322 32.9344 37.3041V39.9073ZM32.9344 33.8974C32.9344 33.9725 32.8724 34.0313 32.8006 34.0313H30.4576C30.3825 34.0313 30.3238 33.9692 30.3238 33.8974V31.2713C30.3238 31.1962 30.3858 31.1374 30.4576 31.1374H32.8006C32.8757 31.1374 32.9344 31.1994 32.9344 31.2713V33.8974Z" fill="white"/>
<path id="Vector_8" d="M58.8085 47.5732H48.2779C48.1589 47.5732 48.0625 47.6697 48.0625 47.7888V49.8955C48.0625 50.0146 48.1589 50.1111 48.2779 50.1111H58.8085C58.9275 50.1111 59.0239 50.0146 59.0239 49.8955V47.7888C59.0239 47.6697 58.9275 47.5732 58.8085 47.5732Z" fill="white"/>
<path id="Vector_9" d="M46.8128 33.0057C46.7802 32.8881 46.6758 32.8064 46.555 32.8031C46.5061 32.7868 46.4571 32.7868 46.4082 32.8031L46.3299 32.9044L36.2594 45.7702C36.2039 45.8225 36.1712 45.8976 36.168 45.9727V61.69C36.168 61.8337 36.2855 61.948 36.4258 61.948H46.666C46.8031 61.948 46.914 61.837 46.914 61.6998C46.914 61.6965 46.914 61.6933 46.914 61.6867V33.0481C46.8846 33.0252 46.8487 33.0122 46.8128 33.0024V33.0057ZM42.5673 39.953L42.6456 39.8615C43.3342 38.9699 44.4926 37.5392 45.0572 36.8501L45.1355 36.7586C45.191 36.69 45.2726 36.6475 45.3607 36.6443C45.4977 36.6508 45.6119 36.7488 45.6413 36.8794V40.1163C45.6413 40.2731 45.5173 40.4037 45.3607 40.4103H42.7925C42.6358 40.4037 42.5118 40.2731 42.5118 40.1163C42.5118 40.0543 42.5314 39.9955 42.5673 39.9465V39.953ZM40.9781 57.8685C40.9781 58.0057 40.8671 58.1167 40.73 58.1167C40.7268 58.1167 40.7235 58.1167 40.717 58.1167H37.6658C37.5288 58.1167 37.4178 58.0057 37.4178 57.8685V55.9512C37.4178 55.814 37.5288 55.7029 37.6658 55.7029H40.7627C40.8997 55.6964 41.014 55.8042 41.0205 55.9381C41.0205 55.9414 41.0205 55.9446 41.0205 55.9512L40.9748 57.8685H40.9781ZM40.9781 54.3278C40.9781 54.465 40.8671 54.5761 40.73 54.5761C40.7268 54.5761 40.7235 54.5761 40.717 54.5761H37.6658C37.5288 54.5761 37.4178 54.465 37.4178 54.3278V52.4105C37.4178 52.2734 37.5288 52.1623 37.6658 52.1623H40.7627C40.8997 52.1558 41.014 52.2636 41.0205 52.3975C41.0205 52.4007 41.0205 52.404 41.0205 52.4105L40.9748 54.3278H40.9781ZM40.9781 50.7872C40.9781 50.9309 40.8606 51.0452 40.7202 51.0452H37.6691C37.532 51.0452 37.4211 50.9342 37.4211 50.797C37.4211 50.7937 37.4211 50.7905 37.4211 50.7839V48.8797C37.4145 48.7425 37.5223 48.6282 37.656 48.6217C37.6593 48.6217 37.6625 48.6217 37.6691 48.6217H40.7659C40.9095 48.6217 41.0238 48.7393 41.0238 48.8797L40.9781 50.7839V50.7872ZM40.9781 43.0429V47.227C40.9781 47.3642 40.8671 47.4752 40.73 47.4752H37.6789C37.5451 47.5013 37.4145 47.4099 37.3884 47.276C37.3884 47.2596 37.3852 47.2433 37.3852 47.227V46.6978C37.3786 46.6684 37.3786 46.6358 37.3852 46.6064C37.78 46.0544 39.5357 43.8791 40.2797 42.9743L40.358 42.8828C40.4559 42.762 40.6322 42.7424 40.7529 42.8404C40.8051 42.8828 40.841 42.9416 40.8541 43.007L40.9781 43.0396V43.0429ZM45.6413 57.8685C45.6413 58.0057 45.5304 58.1167 45.3933 58.1167H42.3421C42.2051 58.1167 42.0941 58.0057 42.0941 57.8685V55.9512C42.0941 55.814 42.2051 55.7029 42.3421 55.7029H45.3933C45.5304 55.7029 45.6413 55.814 45.6413 55.9512V57.8685ZM45.6413 54.3278C45.6413 54.465 45.5304 54.5761 45.3933 54.5761H42.3421C42.2051 54.5761 42.0941 54.465 42.0941 54.3278V52.4105C42.0941 52.2734 42.2051 52.1623 42.3421 52.1623H45.3933C45.5304 52.1623 45.6413 52.2734 45.6413 52.4105V54.3278ZM45.6413 50.7872C45.6478 50.9244 45.5402 51.0387 45.4064 51.0452C45.4031 51.0452 45.3998 51.0452 45.3933 51.0452H42.3421C42.2051 51.0452 42.0941 50.9342 42.0941 50.797C42.0941 50.7937 42.0941 50.7905 42.0941 50.7839V48.8797C42.0876 48.7425 42.1953 48.6282 42.3291 48.6217C42.3323 48.6217 42.3356 48.6217 42.3421 48.6217H45.3933C45.5304 48.6217 45.6413 48.7327 45.6413 48.8699C45.6413 48.8732 45.6413 48.8764 45.6413 48.883V50.7872ZM45.6413 47.2596C45.6413 47.3968 45.5304 47.5079 45.3933 47.5079H42.3421C42.2051 47.5079 42.0941 47.3968 42.0941 47.2596V45.3423C42.0941 45.2052 42.2051 45.0941 42.3421 45.0941H45.3933C45.5304 45.0941 45.6413 45.2052 45.6413 45.3423V47.2596ZM45.6413 43.719C45.6413 43.8562 45.5304 43.9672 45.3933 43.9672H42.3421C42.2051 43.9672 42.0941 43.8562 42.0941 43.719V41.8017C42.0941 41.6645 42.2051 41.5535 42.3421 41.5535H45.3933C45.5304 41.5535 45.6413 41.6645 45.6413 41.8017V43.719Z" fill="white"/>
</g>
<g id="Group_2">
<path id="Vector_10" d="M23.1149 13.2317C22.8049 14.5088 22.1229 15.4463 21.3527 15.9493C21.2548 15.8251 21.0296 15.603 20.8926 15.5148C21.5257 15.136 22.0837 14.4729 22.3807 13.6335H21.0297V13.088H22.6287L22.7266 13.0684L23.1116 13.2285L23.1149 13.2317ZM26.4304 12.7287C25.954 13.1762 25.3502 13.6727 24.8542 14.0124C25.3013 14.6525 25.8887 15.1556 26.6458 15.4397C26.5152 15.5573 26.3358 15.7925 26.2444 15.9493C25.2719 15.5214 24.5769 14.7636 24.1004 13.7837V15.6259C24.1004 15.9558 24.0254 16.1224 23.8034 16.2138C23.575 16.3118 23.2259 16.3183 22.7201 16.3183C22.6939 16.1583 22.6026 15.897 22.5145 15.7402C22.8538 15.7533 23.2324 15.7533 23.34 15.7533C23.451 15.7467 23.4837 15.7174 23.4837 15.6096V12.4315H21.8455V11.8795H24.1037V12.376C24.2342 12.8038 24.3876 13.2089 24.5866 13.5681C25.05 13.2154 25.5722 12.732 25.9083 12.34L26.4337 12.7254L26.4304 12.7287ZM24.6323 11.9644C24.1363 11.6802 23.1312 11.3144 22.3741 11.1217L22.658 10.6448C23.3955 10.8114 24.4137 11.1413 24.9325 11.4255L24.6291 11.9644H24.6323Z" fill="white"/>
<path id="Vector_11" d="M28.4348 14.7015C28.3728 15.2797 28.2618 15.8937 28.1313 16.2889C28.0334 16.2334 27.8147 16.1714 27.6973 16.1387C27.8409 15.7435 27.9257 15.1588 27.9812 14.6199L28.4348 14.7015ZM29.4399 14.4468C29.4268 14.3488 29.4039 14.2345 29.3778 14.1071C28.2194 14.2802 28.0334 14.3259 27.9093 14.3912C27.8832 14.2867 27.8115 14.045 27.7494 13.9144C27.88 13.8784 28.0105 13.7282 28.19 13.493C28.2716 13.395 28.438 13.1566 28.624 12.8528C28.0921 12.9149 27.9551 12.9508 27.867 12.99C27.8409 12.8855 27.7625 12.6503 27.707 12.5197C27.818 12.4935 27.9126 12.3694 28.0301 12.18C28.1541 12.0003 28.5327 11.2916 28.7415 10.622L29.2245 10.8212C29.0026 11.3797 28.7023 11.9513 28.3988 12.4152L28.921 12.3727C29.0646 12.1016 29.2114 11.8142 29.3354 11.5365L29.7825 11.7978C29.4366 12.4935 28.9895 13.1925 28.5294 13.7707L29.2865 13.6727C29.2375 13.4865 29.1821 13.2938 29.1266 13.1272L29.5247 13.0227C29.6683 13.4506 29.8151 13.996 29.8641 14.3194L29.4431 14.4566L29.4399 14.4468ZM28.9863 14.6068C29.0678 15.0608 29.1298 15.6357 29.1461 16.0276L28.7187 16.1093C28.7122 15.7174 28.6567 15.1294 28.5881 14.6754L28.9863 14.6068ZM29.528 14.4533C29.6454 14.8061 29.7956 15.2797 29.851 15.5834L29.4594 15.7075C29.4039 15.4038 29.28 14.9269 29.1559 14.5611L29.528 14.4566V14.4533ZM32.1941 15.4332C32.6346 15.59 33.098 15.7729 33.4015 15.9101L33.1665 16.3183C32.837 16.1616 32.3181 15.9264 31.8514 15.7533L32.0374 15.4299H31.0323L31.3717 15.7467C30.9018 15.9656 30.2981 16.1942 29.8641 16.3543C29.8217 16.2432 29.727 16.0668 29.6454 15.9493C30.0175 15.8251 30.5559 15.603 30.9051 15.4267H30.0011V13.6041H33.0752V15.4267H32.1876L32.1941 15.4332ZM31.2934 11.3242H29.7694V10.9323H31.2934V10.6285H31.858V10.9323H33.3101V11.3242H31.858V11.5986H33.0915V11.9709H30.0109V11.5986H31.2934V11.3242ZM29.7988 12.1833H33.284V13.3754H29.7988V12.1833ZM30.2785 12.9998H30.8626V12.5523H30.2785V12.9998ZM30.52 14.1561H32.5465V13.934H30.52V14.1561ZM30.52 14.6264H32.5465V14.3978H30.52V14.6264ZM30.52 15.1164H32.5465V14.8681H30.52V15.1164ZM31.8384 12.9998V12.5523H31.2999V12.9998H31.8384ZM32.7815 12.5556H32.2789V13.0031H32.7815V12.5556Z" fill="white"/>
<path id="Vector_12" d="M40.1043 12.8071C39.9118 13.6073 39.6278 14.3096 39.2558 14.904C39.3864 15.4201 39.5332 15.7239 39.7029 15.7239C39.8008 15.7239 39.8628 15.4266 39.8824 14.7505C39.9933 14.8746 40.1663 14.9922 40.2968 15.0477C40.2218 15.9852 40.0684 16.2563 39.6278 16.2563C39.2982 16.2563 39.0568 15.9525 38.8642 15.443C38.5869 15.7794 38.2638 16.0766 37.9048 16.3183C37.8298 16.2138 37.6209 16.0145 37.5067 15.9198C37.9766 15.6357 38.3747 15.2633 38.6978 14.8158C38.5379 14.0711 38.4498 13.1043 38.4074 12.0624H37.0629V12.8201H38.1985C38.1985 12.8201 38.1985 12.9639 38.192 13.0259C38.1724 14.4271 38.1496 14.9563 38.0354 15.1163C37.9472 15.2274 37.8493 15.2764 37.7058 15.296C37.5817 15.3156 37.3762 15.3221 37.1673 15.309C37.1543 15.1653 37.1053 14.9628 37.0303 14.8322C37.2228 14.8583 37.3827 14.8583 37.4577 14.8583C37.5328 14.8583 37.5687 14.8387 37.6079 14.7832C37.6699 14.695 37.696 14.3226 37.7058 13.2938H37.0596V13.5061C37.0596 14.3945 36.9487 15.5899 36.2862 16.3477C36.1981 16.2367 35.9762 16.057 35.8588 15.9884C36.1427 15.6585 36.3123 15.2698 36.4037 14.8518C35.8196 15.0935 35.2126 15.3352 34.7231 15.5344L34.5371 14.9628C34.7362 14.9008 34.9711 14.8191 35.2257 14.7276V12.6536H34.6252V12.1212H35.2257V10.7069H35.7576V12.1212H36.3026V12.6536H35.7576V14.5349L36.3026 14.3357L36.407 14.8387C36.5049 14.3781 36.5244 13.9143 36.5244 13.4995V11.5463H38.3845C38.3715 11.2425 38.3649 10.9322 38.3649 10.6285H38.9099C38.9034 10.9388 38.9099 11.2425 38.9165 11.5463H39.5919C39.4484 11.3471 39.2004 11.0825 38.985 10.8832L39.3831 10.6415C39.6376 10.8473 39.9281 11.1445 40.0586 11.3503L39.7551 11.5496H40.1696V12.0722H38.9295C38.9589 12.8365 39.0209 13.5289 39.1025 14.1071C39.308 13.6988 39.4614 13.2252 39.5789 12.7222L40.101 12.8169L40.1043 12.8071Z" fill="white"/>
<path id="Vector_13" d="M43.2848 13.2938C43.0857 14.6819 42.5962 15.6455 41.6531 16.253C41.6042 16.155 41.4475 15.9558 41.3496 15.861C41.9631 15.5083 42.3612 14.9595 42.5962 14.2344C41.7771 14.3651 41.6237 14.3945 41.516 14.4533C41.4899 14.3553 41.4116 14.1168 41.3561 13.9862C41.4867 13.9601 41.6107 13.8131 41.7641 13.5942C41.8554 13.4767 42.0479 13.1729 42.2666 12.794C41.751 12.8495 41.6205 12.8887 41.5421 12.9247C41.5128 12.8201 41.4312 12.5654 41.3692 12.4347C41.4671 12.4151 41.5552 12.291 41.6466 12.1244C41.7445 11.9578 42.061 11.3177 42.2177 10.7101L42.7561 10.8408C42.5635 11.3797 42.296 11.9252 42.0382 12.3596L42.5211 12.3237C42.6092 12.1375 42.7006 11.9448 42.7822 11.7586L43.2521 11.9513C42.929 12.6144 42.5211 13.3101 42.1067 13.849L42.7202 13.7739C42.7561 13.6008 42.7887 13.4211 42.8148 13.235L43.2848 13.2905V13.2938ZM44.6031 14.2475C44.8381 14.7701 45.0861 15.4462 45.1742 15.861L44.6847 16.0472C44.6586 15.9166 44.6292 15.7565 44.5737 15.5834C43.5066 15.9427 43.3337 16.0113 43.2293 16.0864C43.1966 15.9754 43.1118 15.7761 43.0367 15.6814C43.1542 15.6324 43.3141 15.5148 43.3141 15.2666V11.2589H43.9472C43.8656 11.1053 43.7677 10.942 43.6796 10.8049L44.1267 10.6383C44.2768 10.8245 44.4171 11.0662 44.5052 11.2589H44.9751V14.0385H43.8166V15.3417L44.4367 15.149C44.3486 14.8942 44.2507 14.6329 44.1528 14.4043L44.6064 14.2508L44.6031 14.2475ZM43.8166 11.7488V12.4315H44.5117V11.7488H43.8166ZM44.5117 13.5485V12.8953H43.8166V13.5485H44.5117ZM47.0408 11.1511C46.8548 11.7357 46.6198 12.4608 46.4142 13.0128C46.8483 13.5844 46.9527 14.0679 46.9527 14.4892C46.9592 14.8812 46.8711 15.1784 46.6982 15.3221C46.6003 15.3907 46.4795 15.4332 46.3457 15.4527C46.2282 15.4658 46.0716 15.4658 45.9182 15.4593C45.9182 15.3156 45.8823 15.0869 45.8007 14.9432C45.9313 14.9563 46.0488 14.9563 46.1401 14.9563C46.2152 14.9497 46.2837 14.9302 46.3327 14.8877C46.4306 14.8191 46.4632 14.6394 46.4632 14.4239C46.4632 14.0581 46.3522 13.6106 45.9248 13.0716C46.0977 12.5817 46.2772 11.935 46.4077 11.4516H45.7257V16.315H45.2427V10.942H46.5872L46.6753 10.9159L47.0408 11.1511Z" fill="white"/>
</g>
</g>
</g>
</svg>
