<svg width="70" height="70" viewBox="0 0 70 70" fill="none" xmlns="http://www.w3.org/2000/svg">
<g id="Group 256">
<path id="Vector" d="M64.4567 6.10352e-05H5.54333C2.48183 6.10352e-05 0 2.48189 0 5.54339V64.4567C0 67.5182 2.48183 70.0001 5.54333 70.0001H64.4567C67.5182 70.0001 70 67.5182 70 64.4567V5.54339C70 2.48189 67.5182 6.10352e-05 64.4567 6.10352e-05Z" fill="#1477AF"/>
<g id="Group">
<g id="SDG14">
<path id="Vector_2" d="M8.4566 9.1718C8.11722 9.33185 7.76478 9.46904 7.40908 9.58989C6.94569 9.73688 6.65526 9.84793 6.53125 9.89365V7.9992C7.00116 7.81629 7.45803 7.59745 7.89531 7.34595C8.31302 7.13691 8.69155 6.86581 9.02114 6.53265H11.015V19.8819H8.4566V9.1718Z" fill="white"/>
<path id="Vector_3" d="M16.1473 16.7136H12.127V14.7081L15.6317 6.53265H18.4479V14.7865H19.7761V16.7136H18.4479V19.8819H16.1963L16.1506 16.7136H16.1473ZM16.1473 14.7865V9.14894L14.1208 14.7865H16.1473Z" fill="white"/>
<path id="Vector_4" d="M53.9006 49.9446C53.0227 48.7491 47.312 41.4654 39.2549 41.4654C32.3041 41.4654 24.8703 47.7791 24.8703 47.7791C24.8703 47.7791 22.0769 42.05 16.3662 41.498H16.2193C16.0986 41.5046 16.0007 41.6025 15.9941 41.7234C16.0137 41.7952 16.0431 41.8639 16.0855 41.9259C19.587 46.8253 19.587 53.4101 16.0855 58.3095V58.3879C16.0757 58.4271 16.0757 58.4728 16.0855 58.512C16.092 58.6296 16.1834 58.7276 16.3009 58.7374H16.4249C22.1585 58.1952 24.9649 52.4564 24.9649 52.4564C24.9649 52.4564 32.3987 58.77 39.3495 58.77C47.3479 58.77 53.0586 51.4863 53.9952 50.2908L54.0637 50.2124C54.0931 50.1569 54.0931 50.0883 54.0637 50.0328L53.9952 49.9544M43.8496 51.0813C42.5541 51.0878 41.5 50.0426 41.4968 48.7459C41.4903 47.4492 42.5345 46.3942 43.83 46.3909C45.1256 46.3844 46.1796 47.4296 46.1829 48.7263C46.1829 48.7295 46.1829 48.7328 46.1829 48.7361C46.1829 50.0262 45.1419 51.0747 43.8496 51.0813Z" fill="white"/>
<path id="Vector_5" d="M24.4296 34.9361V34.8675C24.4752 34.8577 24.5209 34.8577 24.5634 34.8675C24.6221 34.8675 24.6808 34.8937 24.72 34.9361C29.0895 39.0973 33.6647 35.7265 34.6208 34.9361L34.7122 34.8446H34.8917L34.983 34.9361C35.9392 35.7265 40.5143 39.0973 44.8741 34.9361C44.9132 34.8904 44.972 34.8675 45.0307 34.8675C45.0699 34.8577 45.1156 34.8577 45.1547 34.8675C45.1808 34.8871 45.2037 34.91 45.2233 34.9361C46.0685 35.769 49.7299 38.9177 53.5936 35.5567C53.6328 35.511 53.6589 35.4489 53.6621 35.3869V33.7962C53.6621 33.6655 53.5577 33.561 53.4272 33.561L53.313 33.6165C50.6175 35.0733 47.2922 34.616 45.0895 32.4897L44.9883 32.3982C44.9589 32.3884 44.9263 32.3884 44.8969 32.3982H44.8871C44.8349 32.4113 44.7925 32.444 44.7631 32.4897C43.7711 33.2442 39.1307 36.3471 35.1201 32.5452L35.0516 32.4897C35.0124 32.444 34.9537 32.4211 34.8949 32.4211C34.8362 32.4178 34.7775 32.444 34.7383 32.4897L34.6698 32.5452C30.5907 36.3439 26.0188 33.2442 25.017 32.4897C24.9974 32.444 24.9549 32.408 24.9027 32.3982H24.8342C24.8016 32.3884 24.7657 32.3884 24.733 32.3982L24.6319 32.4897C22.4324 34.616 19.1104 35.0733 16.4214 33.6165L16.3072 33.561C16.1767 33.561 16.0723 33.6655 16.0723 33.7962V35.3869C16.0723 35.4489 16.0951 35.511 16.1408 35.5567C20.0045 38.9406 23.6659 35.7723 24.5111 34.9361" fill="white"/>
<path id="Vector_6" d="M16.2743 27.7666C16.1503 27.7601 16.0459 27.8548 16.0393 27.979C16.0393 27.9822 16.0393 27.9855 16.0393 27.992V29.5925C16.0361 29.6513 16.0622 29.7101 16.1079 29.7493C19.9716 33.1331 23.633 29.9648 24.4782 29.1287V29.0601C24.5239 29.047 24.5696 29.047 24.612 29.0601C24.6675 29.0601 24.7197 29.0797 24.7589 29.1156C29.1284 33.2866 33.7035 29.9061 34.6597 29.1156L34.7511 29.0372C34.7804 29.0274 34.8131 29.0274 34.8424 29.0372C34.8718 29.0274 34.9044 29.0274 34.9338 29.0372L35.0252 29.1156C35.9813 29.9061 40.5565 33.2866 44.9162 29.1156C44.9619 29.0797 45.0174 29.0601 45.0729 29.0601C45.112 29.047 45.1577 29.047 45.1969 29.0601L45.2654 29.1287C46.1106 29.9616 49.772 33.1103 53.6357 29.7493C53.6553 29.697 53.6553 29.6415 53.6357 29.5925V27.992C53.6423 27.8744 53.5509 27.7732 53.4334 27.7666C53.4269 27.7666 53.4171 27.7666 53.4106 27.7666L53.2963 27.8352C50.6009 29.2887 47.2788 28.8315 45.0729 26.7084L44.9717 26.6169H44.8803H44.8901C44.8412 26.6365 44.7987 26.6692 44.7661 26.7084C43.7741 27.476 39.1337 30.5756 35.1231 26.7639L35.0545 26.7084C35.0121 26.6692 34.9566 26.643 34.8979 26.6398C34.8392 26.6398 34.7804 26.6659 34.7413 26.7084L34.6727 26.7639C30.5936 30.5756 26.0217 27.4727 25.0199 26.7084C24.9938 26.6659 24.9546 26.6365 24.9057 26.6169H24.736L24.6446 26.7084C22.4387 28.8347 19.1166 29.2887 16.4211 27.8352L16.3069 27.7666" fill="white"/>
</g>
<g id="Group_2">
<path id="Vector_7" d="M26.0233 9.91001C25.8438 10.351 25.6317 10.7919 25.3902 11.2067V15.4006H24.8387V12.0494C24.6658 12.2846 24.4798 12.51 24.2938 12.6961C24.2383 12.5589 24.0751 12.2487 23.9707 12.1115C24.5711 11.5399 25.1422 10.6482 25.4849 9.73364L26.0233 9.90674V9.91001ZM27.1133 13.6172C26.8391 14.1431 26.4443 14.7408 26.1082 15.1295C26.0103 15.0348 25.7916 14.8747 25.6611 14.8061C25.9972 14.4534 26.3562 13.9308 26.5911 13.4539L27.1133 13.6139V13.6172ZM28.0433 13.2057V15.4202H27.4657V13.2057H25.7557V12.6765H27.4657V12.0265H26.1897V10.0047H29.3943V12.0265H28.0433V12.6765H29.7304V13.2057H28.0433ZM26.7282 11.5137H28.8167V10.5143H26.7282V11.5137ZM28.7677 13.4474C29.1463 13.8753 29.5607 14.4338 29.7663 14.7996L29.3029 15.0838C29.1169 14.7049 28.696 14.117 28.337 13.6891L28.771 13.4474H28.7677Z" fill="white"/>
<path id="Vector_8" d="M36.4262 10.7984H34.9512C35.4113 11.1283 35.9236 11.5627 36.1978 11.873L35.7083 12.1898H35.8519V14.7767C35.8519 15.1066 35.7572 15.2405 35.5157 15.3156C35.2677 15.3842 34.8696 15.3842 34.3083 15.3842C34.2887 15.234 34.2202 15.0315 34.1582 14.8878C34.5172 14.9074 34.9773 14.9074 35.0752 14.9008C35.1861 14.9008 35.2253 14.8649 35.2253 14.7702V14.13C34.2822 14.3358 33.3163 14.5285 32.5722 14.6689L32.3993 14.1463C33.0748 14.0581 34.1713 13.8785 35.2253 13.7054V12.6634H32.2981V13.235C32.2981 13.9242 32.1937 14.8551 31.603 15.4757C31.5149 15.3646 31.2735 15.185 31.1397 15.123C31.6781 14.5775 31.7336 13.8066 31.7336 13.2252V12.1898H35.6822C35.5908 12.0657 35.4537 11.9285 35.3036 11.7815C32.2165 11.9253 31.8739 11.9318 31.6389 12.0102C31.6063 11.8991 31.5345 11.6182 31.466 11.4712C31.6226 11.4451 31.7825 11.3275 31.9979 11.161C32.086 11.0989 32.2394 10.9682 32.4254 10.8017H31.0059V10.2921H32.954C33.1401 10.0929 33.3391 9.86426 33.5121 9.64542L34.0962 9.87406C33.9722 10.0178 33.8482 10.1549 33.7111 10.2889H36.4262V10.7984ZM34.8141 11.3439C34.6412 11.2067 34.4747 11.0695 34.3051 10.9454L34.5531 10.7951H33.189C32.941 11.0238 32.693 11.2361 32.445 11.4223L34.8141 11.3406V11.3439ZM32.6506 12.8464C33.375 12.9411 34.3312 13.1697 34.8337 13.3853L34.6542 13.787C34.1647 13.5682 33.2151 13.3167 32.4711 13.2024L32.6506 12.8431V12.8464Z" fill="white"/>
<path id="Vector_9" d="M38.7017 12.6308C38.4896 12.4316 38.0458 12.1474 37.7031 11.9743L38.0197 11.5823C38.359 11.7424 38.8126 11.9972 39.0313 12.1899L38.7017 12.6308ZM37.8793 15.0054C38.1208 14.5154 38.4733 13.7152 38.7213 13.0064L39.1749 13.3233C38.9399 13.9765 38.643 14.7245 38.3754 15.3091L37.8793 15.0054ZM39.0998 10.8736C38.8714 10.6678 38.3982 10.3836 38.0327 10.204L38.3558 9.8055C38.7213 9.96555 39.1977 10.2334 39.4392 10.4326L39.0998 10.8736ZM40.2583 10.8964C40.0657 11.2819 39.8504 11.6346 39.6252 11.9024C39.5142 11.8077 39.2597 11.6542 39.1292 11.5791C39.5436 11.1316 39.9222 10.4196 40.1408 9.71078L40.6988 9.8545C40.6368 10.0276 40.5683 10.2073 40.4932 10.3836H43.2344V10.8997H40.2583V10.8964ZM42.8885 13.1861C42.8689 13.5094 42.8526 13.774 42.8265 14.0059H43.2279V14.5024H42.758C42.709 14.8258 42.647 15.0119 42.5654 15.1034C42.4414 15.2765 42.2978 15.3255 42.1053 15.3516C41.9323 15.3777 41.6289 15.3712 41.3319 15.3516C41.3189 15.2144 41.2699 15.0054 41.1818 14.8682C41.4788 14.8976 41.7463 14.8976 41.8638 14.8976C41.9748 14.8976 42.0302 14.8845 42.0922 14.8062C42.1347 14.7572 42.1804 14.6559 42.2097 14.5024H39.5567C39.6252 14.1431 39.7068 13.676 39.7721 13.1861H39.214V12.6602H39.8471C39.9026 12.2258 39.945 11.7914 39.9842 11.419H42.9799C42.9799 11.419 42.9733 11.5987 42.9668 11.6738C42.9538 12.0396 42.9374 12.3695 42.9244 12.6602H43.3943V13.1861H42.8852H42.8885ZM40.3138 13.1861C40.2713 13.4768 40.2322 13.7577 40.1898 14.0059H41.3809C41.2307 13.8067 40.9664 13.5421 40.7412 13.3559L41.0088 13.1893H40.3138V13.1861ZM40.4704 11.9155C40.4508 12.1572 40.4149 12.412 40.3823 12.6602H41.4853C41.3417 12.474 41.1002 12.2389 40.8946 12.0723L41.1296 11.9155H40.4671H40.4704ZM42.2913 14.0059C42.3174 13.7871 42.3403 13.516 42.3598 13.1861H41.1067C41.3547 13.3788 41.6321 13.6466 41.7692 13.8393L41.5277 14.0059H42.2913ZM41.2699 11.9155C41.4918 12.0952 41.7398 12.3369 41.8573 12.5067L41.6387 12.6602H42.3892C42.4023 12.4381 42.4153 12.1833 42.4251 11.9155H41.2666H41.2699Z" fill="white"/>
<path id="Vector_10" d="M45.6455 12.5851C45.404 12.3695 44.8819 12.0527 44.4805 11.8469L44.8101 11.4386C45.2017 11.6183 45.727 11.909 45.9881 12.1213L45.6487 12.5851H45.6455ZM44.611 14.9139C44.908 14.4371 45.3191 13.6368 45.6291 12.915L46.0893 13.2677C45.8119 13.9243 45.4497 14.669 45.1331 15.2667L44.611 14.9139ZM45.9 11.0467C45.6585 10.8115 45.156 10.4685 44.7644 10.2464L45.1038 9.84143C45.4888 10.0537 46.0012 10.3706 46.2557 10.5927L45.8967 11.0467H45.9ZM50.1717 14.0484H48.4911V15.4137H47.8971V14.0484H46.2296V13.4964H47.8971V12.7027H46.6147V12.1703H47.8971V11.3994H46.4287V10.8605H47.2902C47.1923 10.5894 46.9802 10.204 46.7811 9.91657L47.2902 9.71079C47.5186 10.0211 47.7601 10.4294 47.8612 10.7168L47.5251 10.8605H48.5433C48.7358 10.5306 48.9577 10.0603 49.0882 9.70752L49.6528 9.88062C49.4929 10.217 49.3003 10.5763 49.1274 10.8605H50.0444V11.3994H48.4943V12.1703H49.8323V12.7027H48.4943V13.4964H50.1749V14.0484H50.1717Z" fill="white"/>
<path id="Vector_11" d="M56.9031 14.6657V15.2242H51.3979V14.6657H53.8519V13.2383H52.0865V12.6863H53.8519V11.4451H52.4748C52.2823 11.8175 52.0767 12.1474 51.8613 12.4054C51.7438 12.3074 51.4893 12.1376 51.3359 12.0592C51.8385 11.5301 52.2301 10.6808 52.4585 9.81201L53.0524 9.94918C52.9578 10.266 52.8468 10.5828 52.7294 10.8801H53.8519V9.72708H54.4459V10.8801H56.6029V11.4451H54.4459V12.6863H56.3745V13.2383H54.4459V14.6657H56.8998H56.9031Z" fill="white"/>
<path id="Vector_12" d="M58.1836 14.9858C58.3957 14.7016 58.5752 14.2411 58.6666 13.8818L59.1626 14.068C59.0451 14.4534 58.8885 14.9303 58.6861 15.2405L58.1836 14.9858ZM60.6931 11.2328C60.6441 11.1512 60.5821 11.0467 60.5071 10.9291C58.7286 11.0891 58.4969 11.1218 58.3565 11.1773C58.3272 11.0793 58.2521 10.8409 58.1901 10.707C58.288 10.6939 58.3957 10.6253 58.5197 10.5338C58.6437 10.4424 59.0418 10.0798 59.3062 9.70422L59.8283 9.87081C59.5999 10.1484 59.3192 10.4163 59.0549 10.6351L60.2264 10.5469C60.1285 10.4293 60.0274 10.3052 59.9295 10.2007L60.3276 9.98839C60.605 10.2987 60.9541 10.7331 61.114 11.0075L60.6996 11.2361L60.6931 11.2328ZM60.7192 13.2547C60.7192 13.4833 60.6768 13.5845 60.5136 13.6597C60.357 13.7283 60.1155 13.7283 59.7761 13.7283C59.75 13.6041 59.6782 13.4474 59.626 13.3363C59.8479 13.3428 60.0665 13.3428 60.1285 13.3363C60.1971 13.3363 60.2232 13.3167 60.2232 13.2547V12.8333C59.8381 12.9705 59.4661 13.1175 59.1332 13.2351L58.9896 12.8986C58.9342 13.222 58.833 13.5486 58.6176 13.8034C58.5295 13.7087 58.3207 13.5421 58.2097 13.4931C58.5197 13.1338 58.5491 12.6569 58.5491 12.2584V11.3014H60.7192V13.2481V13.2547ZM59.0321 12.2748C59.0321 12.4414 59.0255 12.6275 59.0027 12.8137C59.3257 12.7386 59.7598 12.6145 60.2232 12.4903V11.7195H59.0321V12.2715V12.2748ZM59.2735 11.8469C59.5705 11.9514 59.9686 12.1082 60.1905 12.2193L59.9686 12.5296C59.763 12.4185 59.3617 12.2388 59.0582 12.1147L59.2735 11.8469ZM61.6623 14.8519C61.9462 14.8519 61.9984 14.7702 62.0278 14.2182C62.1518 14.3064 62.3737 14.3782 62.5172 14.4109C62.4552 15.1425 62.2954 15.3157 61.7112 15.3157H60.4646C59.7271 15.3157 59.5346 15.1785 59.5346 14.6755V13.9667H60.0926V14.669C60.0926 14.8225 60.1546 14.8486 60.5071 14.8486H61.659L61.6623 14.8519ZM61.1728 14.5971C61.0357 14.4044 60.7747 14.0745 60.5658 13.8393L60.9639 13.5845C61.176 13.8132 61.4469 14.1235 61.5905 14.3097L61.176 14.5938L61.1728 14.5971ZM62.0082 11.5791C61.4436 11.5791 61.3 11.3864 61.3 10.8703V9.75974H61.832V10.1811H63.3135V10.622H61.832V10.8768C61.832 11.0565 61.8613 11.1185 62.031 11.1185H62.9806C63.1307 11.1185 63.3722 11.1055 63.4897 11.0761C63.5028 11.2263 63.5191 11.4157 63.5387 11.5399C63.4408 11.5725 63.2025 11.5758 63.0067 11.5758H62.0082V11.5791ZM62.0702 13.6793C61.4502 13.6793 61.3 13.5421 61.3 13.0391V11.7685H61.832V12.216H63.32V12.6635H61.832V13.0358C61.832 13.1959 61.8744 13.2155 62.1224 13.2155H62.9415C63.121 13.2155 63.1634 13.1665 63.1895 12.8431C63.3004 12.9182 63.5126 12.9966 63.6594 13.0293C63.5974 13.5519 63.4473 13.6793 62.997 13.6793H62.0669H62.0702ZM63.1438 13.8654C63.3168 14.2117 63.5419 14.6918 63.6268 14.9694L63.1014 15.1491C63.0133 14.8584 62.8175 14.3717 62.6478 14.0059L63.1438 13.8622V13.8654Z" fill="white"/>
</g>
</g>
</g>
</svg>
