<svg width="70" height="70" viewBox="0 0 70 70" fill="none" xmlns="http://www.w3.org/2000/svg">
<g id="Group 255">
<path id="Vector" d="M64.4567 6.10352e-05H5.54333C2.48183 6.10352e-05 0 2.48189 0 5.54339V64.4567C0 67.5182 2.48183 70.0001 5.54333 70.0001H64.4567C67.5182 70.0001 70 67.5182 70 64.4567V5.54339C70 2.48189 67.5182 6.10352e-05 64.4567 6.10352e-05Z" fill="#47753B"/>
<g id="Group">
<g id="SDG13">
<path id="Vector_2" d="M8.45073 9.34814C8.10809 9.50492 7.75892 9.64538 7.40322 9.76623C6.93983 9.92301 6.6494 10.0243 6.52539 10.083V8.17883C6.9953 7.99592 7.45217 7.77708 7.88945 7.52558C8.30715 7.31654 8.68569 7.04544 9.01528 6.71228H11.0092V20.0746H8.45073V9.35141V9.34814Z" fill="white"/>
<path id="Vector_3" d="M13.1594 19.2481C12.5557 18.3728 12.262 17.3211 12.3273 16.2595V15.7957H14.8629V16.2367C14.84 16.7397 14.9216 17.2459 15.1109 17.713C15.2806 18.0135 15.6102 18.1866 15.9561 18.154C16.2955 18.1964 16.6218 18.0135 16.7686 17.7032C16.9285 17.2296 17.0003 16.7266 16.971 16.2269C17.0069 15.6781 16.8992 15.1294 16.6544 14.6362C16.4032 14.2671 15.9724 14.0613 15.5286 14.094H15.0652V12.2322H15.4829C15.93 12.2779 16.3705 12.1048 16.6642 11.7684C16.9187 11.3046 17.0297 10.7755 16.9905 10.2463C17.0166 9.81191 16.9351 9.3775 16.7556 8.98228C16.5794 8.69158 16.2498 8.52828 15.9104 8.56421C15.5775 8.52828 15.261 8.71119 15.1207 9.01495C14.951 9.43303 14.8694 9.88377 14.8857 10.3345V10.9224H12.3273V10.2006C12.2653 9.21093 12.5949 8.23757 13.2508 7.49613C13.9622 6.82655 14.9151 6.48032 15.8875 6.53912C16.8633 6.48032 17.8259 6.81349 18.5569 7.46348C19.2161 8.18532 19.5555 9.14559 19.4935 10.1255C19.5196 10.8016 19.3499 11.4712 19.0105 12.0526C18.756 12.5327 18.3187 12.8887 17.7933 13.0325C18.9191 13.4505 19.4935 14.499 19.4935 16.1909C19.5588 17.2655 19.2553 18.3303 18.6385 19.2122C17.9663 20.0027 16.9579 20.4207 15.9234 20.3391C14.8857 20.4207 13.8643 20.0157 13.1627 19.2449L13.1594 19.2481Z" fill="white"/>
<path id="Vector_4" d="M60.9376 43.8823C50.358 29.6087 30.2234 26.6201 15.9629 37.2093C13.4469 39.0776 11.218 41.3019 9.3449 43.8169L9.14258 44.0978L9.3449 44.3918C19.9082 58.6687 40.0362 61.6703 54.3 51.0942C56.8258 49.2226 59.0612 46.9918 60.9376 44.4702C61.1007 44.4049 61.179 44.222 61.1138 44.0586C61.0811 43.977 61.0191 43.9149 60.9376 43.8823ZM26.4674 37.4216C26.6142 37.2191 27.0744 36.6312 27.1331 36.5528C27.2767 36.4188 27.466 36.3404 27.6618 36.3372C27.8184 36.3372 28.0436 36.3927 28.0664 36.5168C28.0795 36.7585 28.0305 37.0002 27.9196 37.2158C27.6193 37.5163 27.218 37.6959 26.7937 37.7221C26.5457 37.7221 26.4446 37.4967 26.4902 37.4183M25.9387 38.5517V38.4831C26.1802 38.2871 26.4837 38.1794 26.7937 38.1794C27.0646 38.1238 27.4235 38.2708 27.4594 38.4505C27.4953 38.6301 26.7839 38.9469 26.6469 39.071C26.2749 39.4205 25.6907 40.1195 25.3514 40.1979C25.26 40.2338 25.1588 40.2338 25.0707 40.1979C25.2926 39.6361 25.5635 39.0972 25.8833 38.5844M31.6821 50.5585C31.5875 51.0713 31.3591 51.5515 31.0164 51.9467C30.615 52.3158 30.0864 52.515 29.5414 52.5117C29.0454 52.5117 28.9769 51.1595 28.9769 50.4834C28.9769 50.2482 28.6505 50.9472 28.4809 49.5362C28.3666 48.6347 27.7825 49.6276 27.7499 49.0168C27.7172 48.4093 27.4105 48.5432 27.1201 48.1611C26.8264 47.7789 26.4315 48.1611 25.9942 48.3864C25.5537 48.6118 25.7462 48.6804 25.1392 48.4877C24.5812 47.1485 24.294 45.7114 24.294 44.2611C24.294 43.8888 24.294 43.5295 24.3495 43.1343C24.3658 43.0984 24.3887 43.0624 24.4181 43.033C24.9924 42.3438 24.9826 42.1871 24.9826 42.1871L25.6124 41.9715C26.2194 42.0695 26.8133 42.2197 27.3909 42.4222C28.0207 42.6574 29.003 43.1898 29.6426 42.9514C30.0603 42.7815 30.3736 42.5562 30.3409 42.2067C30.3083 41.8572 29.9591 41.6645 29.5414 41.9584C29.3848 42.0728 29.0585 41.3052 28.8104 41.3378C28.5624 41.3705 29.127 42.2393 28.9018 42.2753C28.6766 42.3079 28.2492 41.3836 28.1806 41.2268C28.1121 41.07 27.7629 40.7074 27.4594 40.9916C26.8296 41.5991 25.7821 41.5567 25.5798 41.7135C24.9369 42.1871 24.7803 41.5567 24.7901 41.1713C24.8096 41.0831 24.839 40.9981 24.8684 40.9132C25.2241 40.6715 25.6744 40.6225 26.0725 40.7793C26.3532 40.972 26.5555 40.7793 26.6697 40.6225C26.7839 40.4657 26.7383 40.3286 26.6697 40.1816C26.6012 40.0346 26.8035 39.9105 26.9504 39.8778C27.2343 39.7374 27.5117 39.5741 27.7727 39.3944C28.3112 39.2213 28.8888 39.2213 29.4272 39.3944C29.8025 39.6133 30.2822 39.5218 30.553 39.1788C30.7717 38.911 31.0393 38.6889 31.3428 38.5256C31.4994 38.4472 30.9479 37.9377 30.4976 38.5256C30.0472 39.1135 29.8221 39.1233 29.6197 39.1233C29.4174 39.1233 28.1545 38.8196 27.9979 38.4145C27.8412 38.0095 28.3927 37.7253 28.8529 37.5C29.5251 37.3432 30.2137 37.2485 30.9022 37.2191C31.5549 37.0721 32.4001 36.7455 32.8276 37.0264C33.2551 37.3073 31.0589 37.8168 31.7703 38.1532C32.028 38.3002 33.1898 37.4869 33.5846 37.2844C34.5212 36.801 32.684 36.6409 32.9189 35.6611C33.1539 34.6812 30.6673 34.9849 29.4142 35.0731C31.1306 33.9691 33.1278 33.378 35.1706 33.3714C40.1863 33.378 44.5428 36.8239 45.7143 41.7037C45.7339 41.8735 45.7339 42.0434 45.7143 42.2099C45.5675 42.5725 45.1563 42.7489 44.7908 42.6051C44.6439 42.5464 44.5199 42.4386 44.4416 42.3014C44.3274 42.1446 43.8673 41.7037 43.8771 42.4582C43.8869 43.2127 44.608 43.2813 43.8771 43.732C43.541 43.9705 43.1559 44.1272 42.7512 44.1958C42.3564 44.5028 42.1475 44.9928 42.1997 45.4925C42.2781 45.9106 43.257 47.0375 42.5261 46.9917C41.8473 46.6586 41.2664 46.1556 40.8487 45.5252C40.6236 44.9275 40.3756 44.3297 40.2059 43.879C40.1373 43.5295 39.798 43.3074 39.4488 43.376C39.3411 43.3989 39.2399 43.4478 39.1583 43.5197C38.7765 43.7777 39.2726 44.039 38.9887 44.6466C38.708 45.2541 38.5155 45.7048 38.1108 45.2443C37.0535 44.026 35.51 44.6237 35.2718 43.2715C35.138 42.5398 34.5049 42.6052 33.986 42.1446C33.4672 41.6808 33.1637 41.5142 33.0723 41.8049C32.9809 42.0989 34.7268 43.4511 34.8508 43.8006C35.0303 44.3297 34.3221 44.7936 33.8131 44.9275C33.3073 45.0614 33.069 44.6335 32.5632 44.1044C32.0574 43.5752 31.842 43.2029 31.8094 43.621C31.8453 44.3428 32.2108 45.0091 32.8015 45.4239C33.242 45.695 33.725 45.829 33.5912 46.2797C33.4574 46.7304 33.5912 46.4724 33.0951 46.9558C32.6644 47.2465 32.449 47.7659 32.5437 48.2754C32.5437 48.9646 32.3968 48.9972 32.2956 49.5623C32.1945 50.1274 31.9367 49.6407 31.7213 50.4638M43.3745 46.1392C43.7335 46.1392 44.2882 46.6227 44.0729 46.8154C43.74 46.9852 43.3354 46.9526 43.0351 46.7239C42.7643 46.5084 43.2048 46.1588 43.3745 46.136M42.9144 45.8126C42.8002 45.8126 42.699 45.6558 42.6109 45.3847C42.5456 45.2704 42.5881 45.1267 42.7023 45.0614C42.7839 45.0157 42.885 45.0222 42.9601 45.0777C43.1852 45.192 43.4789 45.5187 43.4789 45.6983C43.4789 45.878 43.0384 45.8551 42.9144 45.8126ZM38.1271 45.8126C37.791 45.9759 37.3896 45.9367 37.0894 45.7114C36.8186 45.4958 37.2689 45.1463 37.4288 45.1365C37.7878 45.1365 38.3425 45.6101 38.1271 45.8126ZM33.6891 48.0206C33.5324 48.2689 33.1245 50.0947 32.8569 49.8824C32.5861 49.6668 32.9711 47.7626 33.0495 47.6287C33.477 46.8513 34.4005 46.884 33.6923 48.0337M35.151 55.1117C34.1166 55.1117 33.0886 54.9614 32.0998 54.6707C31.9432 54.5434 31.8877 54.3278 31.966 54.1416C32.3838 53.3512 33.2028 52.8514 34.0937 52.8449C35.8526 52.6751 38.1598 53.9718 38.5318 53.7823C38.9038 53.5896 39.6576 52.6555 40.7835 52.6555C41.1326 52.6293 41.4785 52.7175 41.7755 52.9037C39.8893 54.3539 37.5756 55.1476 35.1967 55.1574M42.8459 52.012C42.7284 51.9793 42.6174 51.9336 42.5065 51.8781C41.9093 51.5841 41.9876 52.0577 41.6939 51.9565C41.4002 51.8552 42.0203 51.166 41.1424 51.7409C40.2646 52.3158 40.5126 51.6495 40.1275 50.6826C39.8763 49.7387 40.356 48.7523 41.2534 48.3701C41.893 48.1415 42.5554 47.9684 43.2244 47.8508C44.5297 47.5241 44.8006 46.7239 45.0388 47.2204L45.1726 47.4784C45.2738 47.6973 45.326 47.9357 45.3292 48.1774C44.781 49.6178 43.9325 50.9243 42.8393 52.012M45.8318 46.5345C45.5381 46.4561 44.3209 44.7642 45.2803 43.6602C45.45 43.4805 44.9637 42.9383 45.1008 42.9285C45.5642 42.8991 45.9721 43.2355 46.0374 43.6961V44.3167C46.0374 45.0744 45.9656 45.829 45.8122 46.5704" fill="white"/>
</g>
<g id="Group_2">
<path id="Vector_5" d="M25.2595 10.9127C24.9495 11.4026 24.571 11.8305 24.1794 12.1473C24.0913 12.0297 23.8955 11.7946 23.7715 11.6868C24.3426 11.272 24.8549 10.6122 25.1486 9.91321L25.7131 10.0733C25.6577 10.2039 25.5957 10.328 25.5271 10.4587H29.2473V10.9127H25.2595ZM25.5271 14.3488C25.2432 14.8322 24.7342 15.3352 24.261 15.59C24.1794 15.4593 24.013 15.2731 23.8955 15.1752C24.3491 14.9759 24.8451 14.5742 25.0996 14.1887L25.5271 14.3488ZM26.1831 14.0385V15.603H25.6446V14.0385H24.0391V13.5845H25.6446V12.5785H26.1831V13.5845H26.8096L26.4506 13.4408C26.6301 13.2121 26.8422 12.8626 26.9532 12.6275L27.4688 12.7941C27.2534 13.0848 27.0152 13.382 26.8292 13.5812H27.7233V14.0352H26.1863L26.1831 14.0385ZM24.8647 12.6111C25.0572 12.8398 25.2498 13.1501 25.3248 13.3624L24.8647 13.5551C24.7962 13.3428 24.6102 13.0259 24.4307 12.7973L24.8647 12.6111ZM28.4576 11.9971C28.4445 13.8164 28.5 15.0314 28.934 15.0314C29.0515 15.0314 29.0841 14.6787 29.0907 14.1495C29.2081 14.2802 29.3582 14.4207 29.4757 14.5088C29.4333 15.3025 29.3158 15.5998 28.9046 15.5998C28.017 15.5998 27.8995 14.3586 27.8832 12.4478H24.4437V11.9938H28.4608L28.4576 11.9971ZM25.1062 11.6672V11.2328H28.7513V11.6672H25.1062ZM26.6921 14.1822C27.0837 14.4631 27.5895 14.8583 27.8441 15.1262L27.4851 15.4789C27.2436 15.2111 26.7476 14.7897 26.356 14.4925L26.6921 14.1822Z" fill="white"/>
<path id="Vector_6" d="M32.2595 10.0993C32.1224 10.5468 31.9625 10.9942 31.7634 11.4221V15.616H31.2119V12.4706C31.0879 12.6698 30.9639 12.8495 30.8334 13.0095C30.7845 12.8658 30.6409 12.5457 30.543 12.402C31.0325 11.7879 31.46 10.8701 31.721 9.9523L32.2595 10.1025V10.0993ZM32.687 14.4042H32.1844V11.2163H32.687V14.4042ZM34.7885 14.0319C34.6384 14.5969 34.1946 15.1914 33.0329 15.6258C32.9513 15.5017 32.7849 15.3024 32.6543 15.1914C33.6659 14.8811 34.0477 14.4467 34.1913 14.0319H32.9023V13.5419H34.2794V12.8299H33.7018C33.5648 13.0716 33.4245 13.2937 33.2678 13.4635C33.1699 13.3753 32.9448 13.2349 32.8207 13.1663C33.1438 12.8299 33.4147 12.3236 33.5583 11.8075L34.0836 11.9317C34.0412 12.0754 33.9857 12.2093 33.9303 12.353H36.0677V12.8299H34.8538V13.5419H36.2537V14.0319H34.7852H34.7885ZM36.2472 11.7912H32.8925V11.3078H35.03C35.0659 11.102 35.0985 10.8734 35.1279 10.6741H33.2123V10.1973H35.2519L35.34 10.1711L35.7381 10.2201C35.7022 10.5729 35.6468 10.9648 35.588 11.3045H36.2439V11.7879L36.2472 11.7912ZM35.1377 14.1135C35.5358 14.4597 36.0743 14.9464 36.3516 15.2437L35.9307 15.5833C35.6761 15.2861 35.1442 14.7831 34.7396 14.4107L35.1377 14.1135Z" fill="white"/>
<path id="Vector_7" d="M39.5694 11.4385C39.3769 11.7553 39.1484 12.0786 38.8939 12.3889V15.6225H38.3163V13.0291C38.1107 13.2349 37.9019 13.4276 37.7028 13.5877C37.6278 13.4636 37.4254 13.2088 37.3047 13.0977C37.9378 12.6437 38.6067 11.9382 39.0212 11.236L39.5661 11.4417L39.5694 11.4385ZM39.3345 10.1352C38.9135 10.6872 38.2674 11.3013 37.6963 11.7063C37.6278 11.5756 37.4744 11.3535 37.3667 11.2425C37.8823 10.9061 38.4762 10.3541 38.7797 9.90985L39.3312 10.1385L39.3345 10.1352ZM43.0546 12.5196H42.1605V14.9072C42.1605 15.2371 42.0854 15.4037 41.8505 15.4952C41.622 15.5833 41.2565 15.5899 40.6789 15.5899C40.6528 15.4233 40.5745 15.1816 40.4929 15.0118C40.891 15.0248 41.3055 15.0248 41.4164 15.0183C41.5339 15.0183 41.5731 14.9889 41.5731 14.9007V12.5196H39.6151V11.9676H43.0546V12.5196ZM42.8817 10.8244H39.8762V10.2724H42.8817V10.8244Z" fill="white"/>
<path id="Vector_8" d="M49.7703 11.3274C49.7703 11.3274 49.7638 11.5266 49.7638 11.5952C49.6952 14.1592 49.6397 15.0378 49.4407 15.3057C49.3232 15.4919 49.1927 15.5408 49.0001 15.5735C48.8141 15.5996 48.5302 15.5996 48.2365 15.58C48.2235 15.4233 48.1615 15.1881 48.0766 15.0346C48.3605 15.0607 48.6151 15.0607 48.726 15.0607C48.8305 15.0607 48.8859 15.0411 48.9479 14.9627C49.085 14.7896 49.147 14.0024 49.1959 11.8663H48.465C48.3834 13.5158 48.106 14.8321 47.0389 15.6519C46.9508 15.5213 46.7615 15.3155 46.6245 15.224C46.6604 15.1979 46.6995 15.1685 46.7354 15.1358C45.8413 15.2403 44.9504 15.3351 44.2879 15.3971L44.2129 14.9072C44.5719 14.8811 45.0189 14.8451 45.5084 14.8027V14.3323H44.3793V13.911H45.5084V13.5941H44.3989V11.7258H45.5084V11.4025H44.2325V10.9746H45.5084V10.6284C45.1299 10.661 44.7513 10.6774 44.4054 10.6904C44.3858 10.5729 44.3238 10.3867 44.2684 10.2756C45.1854 10.2266 46.2818 10.1156 46.9279 9.97186L47.2021 10.4063C46.8725 10.4749 46.4646 10.5369 46.0371 10.5794V10.9779H47.2902V11.3372H47.9396C47.9461 10.9158 47.9461 10.4749 47.9461 10.0078H48.4976C48.4976 10.4683 48.4911 10.9125 48.4845 11.3372H49.767L49.7703 11.3274ZM44.8721 12.4738H45.5117V12.0949H44.8721V12.4738ZM45.5117 13.2055V12.8266H44.8721V13.2055H45.5117ZM46.0371 14.7471C46.4221 14.7112 46.817 14.672 47.2086 14.6296C47.7177 13.9273 47.871 12.9932 47.92 11.863H47.2641V11.3992H46.0371V11.7226H47.189V13.5909H46.0371V13.9077H47.2021V14.3291H46.0371V14.7504V14.7471ZM46.6995 12.4738V12.0949H46.0371V12.4738H46.6995ZM46.0371 12.8298V13.2087H46.6995V12.8298H46.0371Z" fill="white"/>
</g>
</g>
</g>
</svg>
