<svg width="70" height="70" viewBox="0 0 70 70" fill="none" xmlns="http://www.w3.org/2000/svg">
<path d="M64.4566 0H5.54333C2.48183 0 0 2.48183 0 5.54333V64.4567C0 67.5182 2.48183 70 5.54333 70H64.4566C67.5181 70 70 67.5182 70 64.4567V5.54333C70 2.48183 67.5181 0 64.4566 0Z" fill="#B72333"/>
<path d="M10.534 16.6903H6.52344V14.6848L9.99232 6.53223H12.8314V14.7632H14.1596V16.6903H12.8314V19.8488H10.5797L10.534 16.6903ZM10.534 14.7632V9.12564L8.50753 14.7632H10.534Z" fill="white"/>
<path d="M32.1044 36.2784L19.5439 29.0044V52.515L32.1044 56.3006V36.2784Z" fill="white"/>
<path d="M33.4912 36.3241V56.3136L46.1397 52.5019V29.0044L33.4912 36.3241Z" fill="white"/>
<path d="M53.4072 52.0966H53.0352L54.5232 57.2933L56.008 52.0966H55.636H56.008V31.1827H55.636H55.2672H54.8724H54.1382H53.7661H53.4072H53.0352V52.0966H53.4072Z" fill="white"/>
<path d="M48.8449 30.0201L47.4939 28.9487V53.1452L33.5237 57.6657H32.8809H32.7568H32.1042L18.2058 53.7756V28.9487L16.8516 30.0201V54.7228L32.0487 58.9298H32.7568H32.8809H33.5923L47.6048 54.4746L48.8449 54.1153V30.0201Z" fill="white"/>
<path d="M56.0093 28.4195C56.0093 27.5964 55.3436 26.9301 54.5212 26.9301C53.6989 26.9301 53.0332 27.5964 53.0332 28.4195V30.0199H56.0061V28.4195H56.0093Z" fill="white"/>
<path d="M20.117 10.1939C19.993 10.5794 19.8428 10.9681 19.6829 11.3469V15.7139H19.1314V12.4248C18.9748 12.6796 18.828 12.9017 18.6681 13.1009C18.6191 12.9637 18.4625 12.6404 18.3711 12.4934C18.8671 11.8924 19.3142 10.9681 19.5785 10.0437L20.117 10.1939ZM23.6185 14.2343C23.4064 14.5577 23.08 14.8222 22.6525 15.0476C23.0996 15.1652 23.5891 15.2403 24.1145 15.2828C24.0166 15.3873 23.8926 15.5866 23.8306 15.7237C23.1681 15.6486 22.5546 15.518 22.0195 15.322C21.4973 15.5082 20.8838 15.6453 20.179 15.7368C20.13 15.6062 20.006 15.433 19.9016 15.3155C20.4661 15.2534 20.9752 15.1652 21.4092 15.0476C21.2297 14.9496 21.0568 14.8484 20.9001 14.7243C20.7272 14.8353 20.5281 14.9366 20.316 15.0346C20.241 14.9235 20.0974 14.7733 19.9864 14.6981C20.192 14.6099 20.3878 14.525 20.564 14.427C20.4759 14.3388 20.4107 14.2474 20.3356 14.1592L20.7631 13.9991C20.8186 14.0677 20.874 14.1298 20.936 14.1919C21.122 14.0547 21.2819 13.924 21.406 13.7836C21.2461 13.7215 21.1939 13.6039 21.1939 13.3688V13.2806C21.0437 13.4994 20.8479 13.7444 20.6065 13.9012L20.2769 13.6399C20.5183 13.4961 20.7468 13.2414 20.8904 13.0258L21.1939 13.1858V13.0356H21.6572V13.3655C21.6572 13.4831 21.6931 13.5027 21.8791 13.5027H22.5416C22.6786 13.5027 22.708 13.4667 22.7276 13.261C22.8092 13.31 22.9691 13.3557 23.0866 13.3786C23.018 13.3165 22.9495 13.2479 22.894 13.1924L23.204 13.0062C23.4455 13.212 23.7425 13.5092 23.8795 13.7085L23.563 13.9273C23.4651 13.777 23.2856 13.5811 23.1029 13.3949C23.067 13.7313 22.9364 13.8358 22.6003 13.8358H21.9379C21.8824 13.9175 21.8073 13.9894 21.7323 14.0645H23.1583L23.2497 14.0383L23.6087 14.2376L23.6185 14.2343ZM24.1341 12.5261V13.3688H23.6185V12.8658H22.1435C22.3099 12.9833 22.4959 13.1205 22.5971 13.225L22.2675 13.4308C22.1565 13.3067 21.9215 13.114 21.729 12.9899L21.9346 12.8658H20.5281V13.3753H20.0321V12.5261H20.6195V10.9811H21.667C21.6931 10.8864 21.7094 10.8015 21.729 10.7068H20.1985V10.2789H24.0297V10.7068H22.336L22.225 10.9811H23.5826V12.5261H24.1341ZM21.1318 11.2914V11.5201H23.0409V11.2914H21.1318ZM23.0409 11.7814H21.1318V12.0231H23.0409V11.7814ZM21.1318 12.5261H23.0409V12.2909H21.1318V12.5261ZM21.2754 14.4695C21.4875 14.6132 21.7388 14.7439 22.0195 14.8549C22.3425 14.7243 22.6036 14.574 22.7994 14.4205H21.3309L21.2754 14.4695Z" fill="white"/>
<path d="M26.2204 11.3795C26.1454 11.7029 25.9724 12.0263 25.6559 12.2778C25.5874 12.1732 25.3785 11.974 25.2773 11.9054C25.7244 11.5657 25.7929 11.128 25.7929 10.7818V10.3115C26.4391 10.269 27.1864 10.1743 27.5976 10.0371L27.9369 10.3833C27.5029 10.527 26.8764 10.6185 26.2955 10.661V10.7851C26.2955 10.8275 26.2955 10.8798 26.289 10.9353H28.0381V11.3763H27.3887V12.0655H26.8796V11.3763H26.2237L26.2204 11.3795ZM28.991 14.7242C29.6534 14.9038 30.355 15.1455 30.8021 15.3252L30.528 15.74C30.0874 15.5342 29.3695 15.2697 28.6744 15.0704L28.8931 14.7242H27.1831L27.5976 14.9594C27.082 15.2501 26.2694 15.5669 25.6494 15.7531C25.6004 15.642 25.4503 15.3742 25.372 15.2631C25.9496 15.139 26.6806 14.9332 27.144 14.7242H26.1454V12.1928H30.0581V14.7242H28.991ZM26.7034 12.9245H29.474V12.5587H26.7034V12.9245ZM26.7034 13.63H29.474V13.2707H26.7034V13.63ZM26.7034 14.3584H29.474V13.986H26.7034V14.3584ZM30.8511 10.9386V11.3795H29.9275V12.0883H29.4119V11.3795H28.7169C28.6549 11.6702 28.5243 11.9577 28.2828 12.1863C28.1947 12.0981 27.9794 11.9511 27.8619 11.9021C28.2404 11.5429 28.3024 11.1019 28.3024 10.759V10.2984C28.9779 10.2625 29.7839 10.1743 30.2114 10.0371L30.5835 10.367C30.1135 10.5173 29.4185 10.6087 28.7854 10.6512V10.7688C28.7854 10.8177 28.7854 10.8733 28.7789 10.9353H30.8478L30.8511 10.9386Z" fill="white"/>
<path d="M37.3681 11.6961C37.231 12.6532 37.0091 13.4338 36.6567 14.0772C36.9537 14.5672 37.3322 14.9657 37.8086 15.2139C37.6716 15.325 37.4921 15.5503 37.4007 15.7104C36.9537 15.4425 36.5947 15.0702 36.3043 14.626C35.9518 15.0735 35.5048 15.4458 34.9272 15.7365C34.8651 15.5993 34.6922 15.338 34.5878 15.2139C35.2013 14.9363 35.6614 14.5509 35.9943 14.0544C35.7887 13.6004 35.6222 13.1006 35.4982 12.5454C35.3873 12.7642 35.2633 12.9536 35.1327 13.1333C35.0577 13.0516 34.9043 12.9047 34.7738 12.8034C34.5192 13.0876 34.1896 13.3881 33.8698 13.6167V13.8225C34.2484 13.7865 34.64 13.7343 35.0218 13.6918L35.0283 14.1818L33.8698 14.3255V15.1388C33.8698 15.4001 33.8209 15.5405 33.6349 15.6157C33.4489 15.7038 33.1715 15.7038 32.7799 15.7038C32.7538 15.5536 32.682 15.3511 32.607 15.2139C32.8843 15.2204 33.1519 15.2204 33.227 15.2139C33.3151 15.2139 33.3314 15.1943 33.3314 15.1257V14.3941L32.1273 14.5378L32.0653 14.0217C32.4112 13.9858 32.8517 13.9401 33.3314 13.8845V13.486C33.537 13.3619 33.7524 13.1758 33.9514 12.9961H33.1258C32.8974 13.1692 32.6559 13.3325 32.4079 13.473C32.3263 13.3619 32.1305 13.1366 32.0098 13.032C32.4732 12.8034 32.9072 12.4996 33.2792 12.1436H32.0653V11.6406H33.0769V11.118H32.3132V10.6281H33.0769V10.0205H33.6088V10.6281H34.2092V11.0004C34.3626 10.7391 34.5127 10.4615 34.6302 10.1675L35.1621 10.321C34.9631 10.7979 34.715 11.2389 34.4246 11.6373H35.0446V12.1208C35.3416 11.5263 35.5537 10.7816 35.6712 10.0107L36.2553 10.1055C36.1933 10.4582 36.1183 10.8142 36.0204 11.1474H37.7564V11.6863H37.3714L37.3681 11.6961ZM33.6055 11.6471H33.7491C33.8927 11.4871 34.0167 11.3075 34.1342 11.1245H33.6088V11.6471H33.6055ZM34.7085 12.676C34.826 12.5192 34.9369 12.3396 35.0316 12.1469H34.0265C33.909 12.2841 33.785 12.4147 33.661 12.5388H34.3855L34.4899 12.5094L34.7085 12.676ZM35.8637 11.6961C35.9681 12.3233 36.1248 12.9079 36.3336 13.4273C36.5457 12.9308 36.6861 12.3592 36.7742 11.6961H35.8637Z" fill="white"/>
<path d="M44.4243 11.0987H42.9492C43.4094 11.4286 43.9217 11.863 44.1958 12.1733L43.7063 12.4901H43.8499V15.077C43.8499 15.4069 43.7553 15.5408 43.5138 15.6159C43.2658 15.6845 42.8677 15.6845 42.3064 15.6845C42.2868 15.5343 42.2183 15.3318 42.1563 15.188C42.5152 15.2076 42.9753 15.2076 43.0732 15.2011C43.1842 15.2011 43.2233 15.1652 43.2233 15.0704V14.4303C42.2802 14.636 41.3143 14.8287 40.5703 14.9692L40.3973 14.4466C41.0728 14.3584 42.1693 14.1788 43.2233 14.0056V12.9637H40.2962V13.5353C40.2962 14.2245 40.1918 15.1554 39.6011 15.776C39.513 15.6649 39.2715 15.4853 39.1377 15.4232C39.6762 14.8777 39.7316 14.1069 39.7316 13.5255V12.4901H43.6802C43.5888 12.366 43.4518 12.2288 43.3017 12.0818C40.2146 12.2255 39.8719 12.2321 39.637 12.3105C39.6044 12.1994 39.5326 11.9185 39.464 11.7715C39.6207 11.7454 39.7806 11.6278 39.996 11.4612C40.0841 11.3992 40.2374 11.2685 40.4235 11.1019H39.0039V10.5924H40.9521C41.1381 10.3932 41.3372 10.1645 41.5101 9.94568L42.0943 10.1743C41.9702 10.318 41.8462 10.4552 41.7092 10.5891H44.4243V11.0987ZM42.8122 11.6474C42.6392 11.5102 42.4728 11.373 42.3031 11.2489L42.5511 11.0987H41.187C40.939 11.3273 40.691 11.5396 40.443 11.7258L42.8122 11.6441V11.6474ZM40.6486 13.1466C41.3731 13.2413 42.3292 13.47 42.8318 13.6856L42.6523 14.0873C42.1628 13.8685 41.2132 13.617 40.4691 13.5026L40.6486 13.1434V13.1466Z" fill="white"/>
</svg>
