<svg width="71" height="71" viewBox="0 0 71 71" fill="none" xmlns="http://www.w3.org/2000/svg">
<path d="M65.0563 0.26004H6.14296C3.08146 0.26004 0.599609 2.74187 0.599609 5.80337V64.7167C0.599609 67.7782 3.08146 70.26 6.14296 70.26H65.0563C68.1178 70.26 70.5996 67.7782 70.5996 64.7167V5.80337C70.5996 2.74187 68.1178 0.26004 65.0563 0.26004Z" fill="#C7882D"/>
<path d="M9.05035 10.5814C8.92635 10.65 8.57718 10.7839 7.99305 10.9995C7.40892 11.2151 7.23922 11.2576 7.125 11.3163V9.42191C7.58839 9.2292 8.04199 9.00709 8.47601 8.75559C8.89045 8.54655 9.26901 8.27871 9.60187 7.95535H11.5957V21.2948H9.05035V10.5847V10.5814Z" fill="white"/>
<path d="M13.0156 19.4983L16.2365 14.5042L16.4388 14.2102C16.7815 13.7072 17.0915 13.1781 17.3623 12.6326C17.5581 12.1982 17.6593 11.7246 17.656 11.2445C17.6821 10.8982 17.594 10.5553 17.408 10.2646C17.2416 10.0392 16.9773 9.91183 16.6999 9.92489C16.3018 9.88896 15.9232 10.1013 15.7437 10.454C15.561 10.9276 15.4892 11.4372 15.5283 11.9435V12.551H13.0613V11.8977C13.0026 10.8329 13.3126 9.78118 13.9391 8.92216C14.6342 8.13825 15.6556 7.72343 16.6999 7.79529C18.4294 7.58298 20.0023 8.81436 20.2144 10.5455C20.2438 10.797 20.2471 11.0518 20.2144 11.3C20.221 11.7867 20.1459 12.2701 19.9893 12.7306C19.8457 13.1487 19.6662 13.5537 19.4476 13.9359C19.2322 14.2854 18.9059 14.7916 18.4784 15.4351L15.9102 19.2926H19.8751V21.298H13.0613L13.0156 19.4951V19.4983Z" fill="white"/>
<path d="M53.5594 37.2015C51.063 35.3332 47.9172 34.5624 44.8399 35.0588H44.6604C42.9244 35.4769 40.1538 36.1857 36.933 40.1673V40.2359C36.9199 40.2849 36.9199 40.3338 36.933 40.3828C36.9199 40.4286 36.9199 40.4743 36.933 40.5168L37.0015 40.6409C37.4061 41.3301 37.925 42.1956 38.3525 43.0089C38.4014 43.1004 38.4961 43.1592 38.6005 43.1559C38.6723 43.1592 38.7441 43.1298 38.793 43.0775C38.8191 43.0546 38.8387 43.0285 38.8485 42.9991C41.7202 39.0306 43.9751 38.4884 45.5056 38.116H45.6851C47.7997 37.8449 49.9404 38.3937 51.6667 39.6479C53.3571 40.9904 54.2252 43.12 54.2252 45.9845C54.2252 50.799 51.8821 52.6803 49.9209 53.4022C47.9531 54.0489 45.8157 53.9052 43.949 53.007L43.825 52.9514C42.1477 52.2296 39.6578 50.6977 37.3147 45.9943C32.583 36.4895 28.6311 35.5978 26.0499 35H25.903C22.8682 34.5134 19.768 35.2875 17.3205 37.1427C15.6204 38.4949 13.6037 41.1341 13.6037 46.0041C13.4568 48.5126 14.2269 50.9884 15.7672 52.971C18.3126 56.1328 22.4374 57.5601 26.3892 56.6456C27.9099 56.3255 29.336 55.6624 30.5565 54.7054L32.0445 56.0576C32.1359 56.1524 32.286 56.1524 32.3807 56.0609C32.3807 56.0609 32.3807 56.0609 32.3839 56.0576C32.4263 56.0152 32.4492 55.9597 32.4524 55.9009L33.5228 49.2834V49.2148C33.5228 49.1462 33.4967 49.0809 33.4445 49.0352C33.4021 48.996 33.3433 48.9764 33.2879 48.9796H33.1736L26.8331 50.75H26.7188C26.6732 50.7598 26.6307 50.7859 26.5948 50.8186C26.5002 50.91 26.5002 51.0603 26.5916 51.155C26.5916 51.155 26.5916 51.155 26.5948 51.1583L26.6634 51.2366L28.0829 52.5105C27.378 52.9874 26.5916 53.3238 25.7627 53.5034C23.0378 54.173 20.1694 53.2421 18.3518 51.1027C17.2324 49.6721 16.6907 47.8724 16.8311 46.0629C16.8311 43.1886 17.6763 41.0459 19.3438 39.7165C21.0309 38.4721 23.1358 37.9299 25.2112 38.2042H25.358C27.4988 38.6876 30.439 39.3311 34.4822 47.4935C36.5903 51.7103 39.2238 54.4735 42.536 55.9401C44.1122 56.688 45.8385 57.0735 47.5811 57.0669C48.7819 57.0735 49.9698 56.8644 51.0956 56.4463C53.0112 55.7376 57.4819 53.2781 57.4819 46.0041C57.4819 41.1439 55.4325 38.5047 53.7095 37.1427" fill="white"/>
<path d="M28.3126 12.3289C28.962 12.5281 29.7027 12.7763 30.1335 12.956L29.4515 13.2369C29.0925 13.0573 28.4463 12.809 27.8035 12.6098L28.2799 12.3289H26.459L26.9289 12.5477C26.4264 12.8319 25.6464 13.0997 25.0264 13.2565C24.9318 13.1454 24.736 12.9266 24.6055 12.8351C25.2255 12.7306 25.9434 12.5444 26.3774 12.3321H25.3854V9.95103H29.4384V12.3321H28.3093L28.3126 12.3289ZM30.1172 9.6734H24.6381V9.25859H27.0823V8.94829H25.2712V8.589H27.0823V8.2983H24.9872V7.89982H27.0823V7.54053H27.6697V7.89982H29.8333V8.2983H27.6697V8.589H29.5657V8.94829H27.6697V9.25859H30.1172V9.6734ZM25.9434 10.6304H28.8575V10.3005H25.9434V10.6304ZM25.9434 11.3065H28.8575V10.9701H25.9434V11.3065ZM25.9434 11.9761H28.8575V11.6364H25.9434V11.9761Z" fill="white"/>
<path d="M33.4156 7.76262C33.2361 8.19704 33.0175 8.63145 32.776 9.03974V13.2173H32.2049V9.89223C31.9993 10.1666 31.7774 10.4148 31.5588 10.6239C31.4968 10.4867 31.3238 10.1699 31.2129 10.0294C31.859 9.44475 32.479 8.52693 32.8445 7.58624L33.4156 7.76589V7.76262ZM35.3801 10.7284V12.453H36.9106V13.005H33.2916V12.453H34.7992V10.7284H33.1056V10.1699H34.7992V8.66085H33.4907V8.11539H36.7996V8.66085H35.3801V10.1699H37.0477V10.7284H35.3801Z" fill="white"/>
<path d="M39.2574 10.3952C39.0029 10.2221 38.4872 9.92487 38.1152 9.72563L38.4318 9.30427C38.7842 9.47085 39.3129 9.74522 39.5772 9.91833L39.2541 10.3952H39.2574ZM39.9133 11.1954C39.5902 11.8422 39.1758 12.5803 38.8168 13.1617L38.3208 12.7763C38.6569 12.306 39.1334 11.5155 39.4923 10.81L39.9133 11.1954ZM39.5739 8.75554C39.3259 8.56283 38.8234 8.25254 38.4644 8.03696L38.8005 7.62868C39.153 7.82792 39.662 8.11862 39.9231 8.29827L39.5772 8.75881L39.5739 8.75554ZM43.4899 12.5738C43.4899 12.8645 43.4278 13.0343 43.2223 13.1193C43.0232 13.214 42.7067 13.214 42.2368 13.214C42.2107 13.0637 42.1323 12.822 42.0573 12.6751C42.3738 12.6881 42.7067 12.6881 42.8013 12.6881C42.8927 12.6816 42.9253 12.6522 42.9253 12.564V11.5417C42.2368 11.7213 41.5253 11.901 40.9771 12.0316L40.7977 11.5482C41.3361 11.4437 42.1356 11.2575 42.9253 11.0713V9.81054H40.7487V11.0779C40.7487 11.767 40.6932 12.6849 40.3473 13.2793C40.2527 13.1813 40.0177 13.0115 39.8937 12.9494C40.1907 12.417 40.2168 11.6723 40.2168 11.0681V9.28795H41.5743V7.54376H42.1584V9.28795H43.4899V12.5771V12.5738ZM40.6443 9.11157C40.5562 8.80127 40.3082 8.31133 40.0569 7.95857L40.5464 7.73973C40.8009 8.07942 41.0685 8.5465 41.1664 8.8568L40.6443 9.11157ZM41.1272 10.1339C41.6363 10.2384 42.2857 10.4573 42.6349 10.6369L42.3869 11.0387C42.0508 10.8525 41.4079 10.6108 40.8923 10.4932L41.1272 10.1339ZM43.7085 7.91284C43.5029 8.32766 43.2549 8.77514 43.0526 9.07237L42.55 8.87312C42.7556 8.5563 43.0199 8.06636 43.157 7.70054L43.7085 7.91284Z" fill="white"/>
<path d="M48.9648 12.3125C49.5489 12.4922 50.1428 12.711 50.5279 12.8711L50.1004 13.2238C49.699 13.0311 48.9974 12.76 48.3154 12.5412L48.5504 12.3125H46.9089L47.356 12.5118C46.8534 12.8025 46.0735 13.0834 45.4535 13.2434C45.3654 13.1258 45.1565 12.9201 45.0391 12.8221C45.646 12.7176 46.3476 12.5248 46.7816 12.3125H45.8255V10.4148C45.6689 10.4573 45.5024 10.4965 45.3164 10.5259C45.2675 10.3952 45.1304 10.1797 45.0423 10.0719C45.7929 9.9543 46.2399 9.77465 46.4977 9.56235H45.4763C45.5449 9.27165 45.6069 8.85357 45.6428 8.51388H46.8469V8.21011H45.385V7.85082H46.8469V7.54053H47.3691V7.85082H48.211V7.54053H48.756V7.85082H50.1004V8.87316H48.756V9.20306H50.492C50.492 9.20306 50.4855 9.30758 50.4789 9.36964C50.443 9.72239 50.4039 9.9151 50.319 10.0164C50.2309 10.098 50.12 10.1339 49.996 10.1405C49.9601 10.147 49.9144 10.147 49.859 10.147V12.3125H48.9648ZM46.0996 8.87316C46.0801 8.98421 46.0637 9.09527 46.0441 9.20306H46.7621C46.8045 9.09854 46.8241 8.99075 46.8371 8.87316H46.0996ZM49.2748 10.3267H46.3803V10.6435H49.2748V10.3267ZM49.2748 10.9766H46.3803V11.3H49.2748V10.9766ZM46.3803 11.9631H49.2748V11.6332H46.3803V11.9631ZM47.1961 9.56235C47.108 9.71259 46.9905 9.84651 46.8241 9.97063H48.2077V9.56235H47.1961ZM48.2077 8.87316H47.3658C47.3658 8.99075 47.3527 9.09527 47.3299 9.20306H48.211V8.87316H48.2077ZM47.3658 8.51388H48.2077V8.21011H47.3658V8.51388ZM48.7527 8.21011V8.51388H49.5718V8.21011H48.7527ZM48.7527 9.56235V9.97063H49.4086C49.389 9.89551 49.3597 9.82691 49.3336 9.77138C49.5 9.79098 49.6501 9.79752 49.7121 9.79752C49.7806 9.79752 49.8165 9.79098 49.8557 9.75506C49.8818 9.72566 49.8981 9.6734 49.9177 9.56235H48.7527Z" fill="white"/>
<path d="M29.938 19.2305C29.6834 20.2169 29.2364 20.9681 28.6425 21.5397C29.0961 21.8435 29.628 22.0787 30.2415 22.2159C30.1044 22.3465 29.9314 22.6013 29.8433 22.7679C29.1874 22.5817 28.6294 22.304 28.1562 21.9382C27.6047 22.34 26.9586 22.6209 26.2602 22.8266C26.1917 22.6601 26.0383 22.4118 25.9241 22.2877C26.5735 22.1375 27.1838 21.886 27.7026 21.5234C27.2197 21.0073 26.8476 20.3802 26.58 19.6388H26.4071C26.2766 20.6448 25.9045 21.7553 24.9125 22.6601C24.8244 22.5098 24.6221 22.2747 24.498 22.1701C25.7675 21.0171 25.8817 19.4755 25.8817 18.4237V17.9011H24.8407V17.3426H28.6849C28.5674 17.9077 28.4238 18.5838 28.2933 19.0933H29.4093L29.5203 19.0606L29.9347 19.2338L29.938 19.2305ZM26.4789 18.4237C26.4789 18.636 26.4723 18.8581 26.4593 19.0868H27.6569C27.7614 18.734 27.8625 18.3061 27.9539 17.8946H26.4789V18.4205V18.4237ZM27.1413 19.6322C27.3763 20.2169 27.7189 20.7232 28.1595 21.1445C28.5935 20.7362 28.9394 20.2398 29.1646 19.6322H27.1446H27.1413Z" fill="white"/>
<path d="M36.9454 22.0035V22.5621H31.4402V22.0035H33.8943V20.5762H32.1288V20.0242H33.8943V18.783H32.5172C32.3246 19.1553 32.119 19.4852 31.9037 19.7433C31.7862 19.6453 31.5316 19.4754 31.375 19.3971C31.8775 18.8712 32.2691 18.0187 32.4976 17.1499L33.0915 17.287C32.9969 17.6039 32.8859 17.9207 32.7684 18.2179H33.891V17.0649H34.4849V18.2179H36.642V18.783H34.4849V20.0242H36.4135V20.5762H34.4849V22.0035H36.9389H36.9454Z" fill="white"/>
<path d="M43.8261 22.1015V22.5719H39.2836V22.1015H41.2285V21.592H39.8514V21.138H41.2285V20.6839H40.0635C39.884 20.9877 39.6719 21.2686 39.45 21.4711C39.4076 21.3666 39.264 21.0792 39.1726 20.9616C39.1172 21.6018 38.954 22.3073 38.5265 22.8103C38.4384 22.7058 38.1969 22.5 38.0859 22.4445C38.582 21.85 38.6375 21.0106 38.6375 20.3835V19.1782H39.4304C39.3488 19.09 39.251 18.9855 39.1759 18.93C39.6458 18.8483 40.1875 18.7307 40.6933 18.6066C40.2462 18.4825 39.7992 18.3714 39.3913 18.2832L39.7078 18.0415H38.6864V17.5875H40.8924C40.8043 17.4438 40.7064 17.3034 40.6085 17.1858L41.0099 16.9931C41.1632 17.1662 41.346 17.4014 41.4439 17.5875H43.5454V18.0415H42.6219L42.896 18.2147C42.6415 18.3388 42.3446 18.4629 42.0215 18.5805C42.4359 18.6981 42.821 18.8222 43.1245 18.9267L42.8406 19.1749H43.738V19.6453H39.1955V20.3835C39.1955 20.5631 39.189 20.7558 39.1694 20.9551C39.499 20.6448 39.7894 20.1973 39.9558 19.7269L40.4518 19.8707C40.4094 19.9882 40.3605 20.0993 40.3017 20.2169H41.2252V19.7563H41.7963V20.2169H43.4019V20.6774H41.7963V21.1314H43.242V21.5854H41.7963V22.095H43.8228L43.8261 22.1015ZM42.5664 19.1847C42.2368 19.0671 41.8159 18.9365 41.3688 18.7993C40.8598 18.9528 40.3409 19.0769 39.8547 19.1847H42.5632H42.5664ZM39.9885 18.0513C40.4421 18.1559 40.9315 18.28 41.4015 18.4106C41.7669 18.2996 42.0966 18.182 42.3576 18.0513H39.9885Z" fill="white"/>
</svg>
