<svg width="70" height="70" viewBox="0 0 70 70" fill="none" xmlns="http://www.w3.org/2000/svg">
<g id="Group 257">
<path id="Vector" d="M64.4567 6.10352e-05H5.54333C2.48183 6.10352e-05 0 2.48189 0 5.54339V64.4567C0 67.5182 2.48183 70.0001 5.54333 70.0001H64.4567C67.5182 70.0001 70 67.5182 70 64.4567V5.54339C70 2.48189 67.5182 6.10352e-05 64.4567 6.10352e-05Z" fill="#42A649"/>
<g id="Group">
<g id="SDG15">
<path id="Vector_2" d="M8.45072 9.20441C8.33651 9.25993 7.97756 9.40693 7.40322 9.60944C6.82888 9.81195 6.6494 9.86746 6.52539 9.92626V8.03183C6.9953 7.84238 7.45216 7.62029 7.88944 7.36552C8.30062 7.15321 8.68241 6.88537 9.01526 6.56528H11.0092V19.9047H8.45072V9.20441Z" fill="white"/>
<path id="Vector_3" d="M13.7894 19.6336C13.2836 19.32 12.9148 18.8301 12.7517 18.2585C12.5396 17.5269 12.4449 16.7658 12.471 16.0048H14.9381C14.9055 16.5698 14.9805 17.1349 15.1535 17.6738C15.3982 18.1442 15.9758 18.3238 16.4457 18.0789C16.5501 18.0233 16.6415 17.9515 16.7198 17.8633C16.8895 17.5922 16.9842 17.2819 17.0005 16.9618C17.0494 16.4196 17.0657 15.8709 17.056 15.3254C17.0853 14.7113 17.0103 14.1006 16.8406 13.5094C16.7166 13.1174 16.338 12.8659 15.9269 12.9018C15.3297 12.9018 14.9479 13.3068 14.801 14.1071H12.6048L12.7974 6.52933H18.9356V8.71773H14.8793L14.7325 11.6704C14.9479 11.4418 15.2187 11.2785 15.5222 11.1968C15.9105 11.0694 16.3184 11.0041 16.7264 11.0041C17.565 10.9682 18.358 11.4026 18.7757 12.131C19.2913 13.0782 19.5328 14.1528 19.4741 15.2307C19.4936 16.1158 19.399 16.9977 19.1934 17.8568C19.0335 18.5067 18.6615 19.0881 18.1361 19.5029C17.4737 19.9472 16.6807 20.1562 15.8844 20.1007C15.1567 20.1464 14.429 19.9798 13.7894 19.6271V19.6336Z" fill="white"/>
<path id="Vector_4" d="M29.4495 46.8775H27.3871C27.3006 46.8775 27.2305 46.9477 27.2305 47.0343V52.1558C27.2305 52.2424 27.3006 52.3126 27.3871 52.3126H29.4495C29.536 52.3126 29.6062 52.2424 29.6062 52.1558V47.0343C29.6062 46.9477 29.536 46.8775 29.4495 46.8775Z" fill="white"/>
<path id="Vector_5" d="M52.1917 54.4977H18.0805C17.9924 54.5043 17.9238 54.5761 17.9238 54.6676V56.7547C17.9238 56.8364 17.9891 56.9017 18.0707 56.9017C18.0739 56.9017 18.0772 56.9017 18.0837 56.9017H52.1949C52.2765 56.9017 52.3483 56.8364 52.3516 56.7547V54.6676C52.3516 54.5794 52.283 54.5043 52.1949 54.4977" fill="white"/>
<path id="Vector_6" d="M52.1917 58.6491H18.0805C17.9924 58.6491 17.9238 58.721 17.9238 58.8059V60.9029C17.9238 60.9845 17.9891 61.0499 18.0707 61.0499C18.0739 61.0499 18.0772 61.0499 18.0837 61.0499H52.1949C52.2765 61.0499 52.3483 60.9845 52.3516 60.9029V58.8059C52.3516 58.7177 52.2798 58.6491 52.1949 58.6491" fill="white"/>
<path id="Vector_7" d="M45.7051 41.204C44.8664 40.5247 43.832 40.1294 42.7551 40.0772C41.7304 40.0804 40.7482 40.4855 40.0172 41.204C39.9552 41.2563 39.916 41.3347 39.916 41.4196V41.5993C39.916 41.6907 39.9486 41.7756 40.0172 41.8344C40.0824 41.89 40.1706 41.9096 40.2521 41.89H40.3533C40.4186 41.8671 40.4741 41.8279 40.523 41.7756C40.9472 41.5633 41.4237 41.4654 41.8968 41.4948C43.2119 41.5176 44.4683 42.0435 45.4114 42.9613C45.493 43.0397 45.6007 43.0854 45.7149 43.0854C45.8095 43.0985 45.9074 43.0723 45.9858 43.0168C46.9256 42.0925 48.182 41.5633 49.5003 41.5405C49.9768 41.5143 50.4499 41.6091 50.8742 41.8214C50.9264 41.8736 50.9949 41.9128 51.0667 41.9357C51.1287 41.9553 51.1972 41.9553 51.2592 41.9357C51.3865 41.8998 51.4746 41.7854 51.4746 41.6548V41.4849C51.4746 41.4033 51.442 41.3282 51.3832 41.2694C50.6523 40.5214 49.657 40.0902 48.6127 40.0739C47.5358 40.1229 46.5046 40.5181 45.6725 41.2008" fill="white"/>
<path id="Vector_8" d="M43.5878 27.5967C43.5128 27.6294 43.4606 27.698 43.441 27.7764V27.8907C43.4051 27.9724 43.4051 28.0671 43.441 28.1487C43.4932 28.2141 43.5715 28.2565 43.6564 28.2631C43.7118 28.2729 43.7706 28.2729 43.8261 28.2631C43.8946 28.25 43.9631 28.25 44.0284 28.2631C45.0628 28.3284 45.9863 28.9294 46.4628 29.8537C46.5117 29.9387 46.5933 29.9975 46.6879 30.0236H46.7891C46.8478 30.0367 46.9099 30.0367 46.9686 30.0236C47.4385 29.7819 47.9606 29.6545 48.4893 29.6512C49.0506 29.6251 49.6021 29.8015 50.0426 30.1477C50.072 30.1967 50.1079 30.2391 50.1568 30.2718L50.2711 30.3274H50.3494C50.3951 30.3372 50.4407 30.3372 50.4832 30.3274C50.5549 30.2914 50.6072 30.2261 50.63 30.1477V30.0464C50.6365 30.0203 50.6365 29.9942 50.63 29.9681C50.6431 29.9191 50.6431 29.8701 50.63 29.8211C50.1862 28.9588 49.2921 28.4199 48.3196 28.4329C47.8986 28.4329 47.4842 28.5113 47.0926 28.6583C46.6096 27.8646 45.784 27.3387 44.8638 27.2375C44.42 27.2407 43.9859 27.3485 43.5911 27.5543" fill="white"/>
<path id="Vector_9" d="M36.3788 32.8717V33.0285C36.3918 33.1886 36.5354 33.3094 36.6953 33.2964C36.7084 33.2964 36.7247 33.2931 36.7377 33.2898C36.7932 33.2637 36.8422 33.2245 36.8846 33.1755C37.2827 32.9632 37.7298 32.862 38.1801 32.8815C39.1754 32.8946 40.1316 33.2572 40.8821 33.9071C40.9539 33.9692 41.0453 34.0051 41.1399 34.0084C41.2443 33.9986 41.339 33.9496 41.4108 33.8745C42.1711 33.0122 43.2578 32.5092 44.4065 32.4863C44.7132 32.47 45.0167 32.5288 45.2974 32.6562C45.3496 32.6954 45.405 32.7248 45.467 32.7476H45.6694C45.7934 32.7052 45.8717 32.5843 45.8619 32.4537V32.3197C45.8619 32.2414 45.8227 32.1662 45.7607 32.1172C45.1603 31.575 44.3836 31.268 43.5743 31.2615C42.628 31.3039 41.7273 31.6796 41.029 32.3197C40.3633 31.8592 39.5833 31.5979 38.7773 31.5652C37.8473 31.575 36.9629 31.9866 36.3559 32.6921C36.3005 32.7509 36.2744 32.826 36.2776 32.9077" fill="white"/>
<path id="Vector_10" d="M19.1095 35.5893C19.116 33.5446 20.7737 31.8919 22.8166 31.8919H23.0515C23.2538 29.1351 25.6524 27.0643 28.4066 27.2668C31.1608 27.4694 33.2297 29.8701 33.0274 32.6268C32.9817 33.2604 32.8153 33.8778 32.5379 34.4494C35.5336 35.2855 37.286 38.3918 36.4539 41.3934C35.8045 43.7256 33.7388 45.3848 31.3207 45.5122H23.851C21.6679 45.5122 19.8992 43.7386 19.8992 41.5535C19.8992 40.5442 20.2843 39.5709 20.9793 38.8392C19.8143 38.1762 19.0997 36.9317 19.1095 35.5926V35.5893Z" fill="white"/>
</g>
<g id="Group_2">
<path id="Vector_11" d="M25.7343 9.93928C25.5548 10.3802 25.3427 10.8212 25.1012 11.236V15.4299H24.5497V12.0787C24.3767 12.3139 24.1907 12.5392 24.0047 12.7254C23.9492 12.5882 23.7861 12.2779 23.6816 12.1408C24.2821 11.5692 24.8532 10.6775 25.1958 9.76291L25.7343 9.93603V9.93928ZM26.8275 13.6432C26.5533 14.1691 26.1585 14.7668 25.8224 15.1555C25.7245 15.0608 25.5058 14.9008 25.3753 14.8322C25.7114 14.4794 26.0704 13.9568 26.3053 13.4799L26.8275 13.64V13.6432ZM27.7575 13.2317V15.4462H27.1799V13.2317H25.4699V12.7025H27.1799V12.0526H25.9039V10.0307H29.1085V12.0526H27.7575V12.7025H29.4446V13.2317H27.7575ZM26.4424 11.5398H28.5309V10.5403H26.4424V11.5398ZM28.482 13.4734C28.8605 13.9013 29.2749 14.4598 29.4805 14.8256L29.0171 15.1098C28.8311 14.7309 28.4102 14.143 28.0512 13.7151L28.4852 13.4734H28.482Z" fill="white"/>
<path id="Vector_12" d="M36.1391 10.8245H34.6641C35.1242 11.1544 35.6365 11.5888 35.9107 11.8991L35.4212 12.2159H35.5648V14.8028C35.5648 15.1327 35.4701 15.2666 35.2286 15.3417C34.9806 15.4103 34.5825 15.4103 34.0212 15.4103C34.0016 15.26 33.9331 15.0575 33.8711 14.9138C34.2301 14.9334 34.6902 14.9334 34.7881 14.9269C34.899 14.9269 34.9382 14.891 34.9382 14.7963V14.1561C33.9951 14.3618 33.0292 14.5545 32.2851 14.695L32.1122 14.1724C32.7877 14.0842 33.8842 13.9046 34.9382 13.7314V12.6895H32.011V13.2611C32.011 13.9503 31.9066 14.8812 31.3159 15.5018C31.2278 15.3907 30.9864 15.2111 30.8526 15.149C31.391 14.6035 31.4465 13.8327 31.4465 13.2513V12.2159H35.3951C35.3037 12.0918 35.1666 11.9546 35.0165 11.8076C31.9294 11.9513 31.5868 11.9579 31.3518 12.0363C31.3192 11.9252 31.2474 11.6443 31.1789 11.4973C31.3355 11.4712 31.4954 11.3536 31.7108 11.187C31.7989 11.125 31.9523 10.9943 32.1383 10.8277H30.7188V10.3182H32.6669C32.853 10.119 33.052 9.89032 33.225 9.67148L33.8091 9.9001C33.6851 10.0438 33.5611 10.181 33.424 10.3149H36.1391V10.8245ZM34.527 11.3732C34.3541 11.236 34.1876 11.0988 34.018 10.9747L34.266 10.8245H32.9019C32.6539 11.0531 32.4059 11.2654 32.1579 11.4516L34.527 11.3699V11.3732ZM32.3635 12.8724C33.0879 12.9671 34.0441 13.1958 34.5466 13.4113L34.3671 13.8131C33.8776 13.5943 32.928 13.3427 32.184 13.2284L32.3635 12.8691V12.8724Z" fill="white"/>
<path id="Vector_13" d="M40.8628 11.9317C40.7812 12.6013 40.5332 13.0063 39.7206 13.2415C39.6717 13.1239 39.5542 12.9377 39.4432 12.8397C39.4628 12.9442 39.4693 13.0455 39.4693 13.137C39.4693 13.4963 39.3943 13.751 39.2083 13.8882C39.1136 13.9437 39.0027 13.9829 38.8722 14.0058C38.7547 14.0188 38.6046 14.0254 38.4642 14.0189C38.4577 13.8751 38.4088 13.64 38.3272 13.4962C38.4512 13.5158 38.5556 13.5159 38.6372 13.5093C38.7122 13.5093 38.7808 13.4897 38.8297 13.4538C38.9113 13.3917 38.9407 13.248 38.9407 13.0684C38.9407 12.7646 38.8428 12.3661 38.4447 11.9219C38.5948 11.5071 38.7612 10.9551 38.8722 10.5305H38.1967V15.4495H37.6582V10.0144H39.0647L39.1528 9.98828L39.5509 10.2104C39.3714 10.7265 39.1528 11.3699 38.9603 11.8501C39.2637 12.2028 39.3943 12.5327 39.4432 12.8234C40.0828 12.6633 40.2754 12.3955 40.3406 11.9284H39.4432V11.4385H40.9117V10.844H39.7598V10.3606H40.9117V9.76617H41.4828V10.3606H42.6739V10.844H41.4828V11.4385H43.0198V11.9284H41.9723V12.3563C41.9723 12.5 41.9853 12.549 42.0963 12.549H42.6217C42.7261 12.549 42.8991 12.536 42.9872 12.5196C43.0002 12.6503 43.0133 12.8103 43.0231 12.9345C42.9415 12.9639 42.775 12.9704 42.6315 12.9704H42.0245C41.5644 12.9704 41.4665 12.7907 41.4665 12.3498V11.9284H40.8595L40.8628 11.9317ZM43.0818 14.7897V15.3058H39.1952V14.7897H40.9117V14.045H39.6847V13.5485H40.9117V12.941H41.4828V13.5485H42.749V14.045H41.4828V14.7897H43.0818Z" fill="white"/>
<path id="Vector_14" d="M46.0358 13.7739C45.4778 14.0842 44.8839 14.4075 44.3879 14.6557L44.1758 14.0776C44.3618 13.996 44.5837 13.898 44.8252 13.7804V11.7814H44.2182V11.236H44.8252V9.82822H45.3636V11.236H45.889V11.7814H45.3636V13.5191C45.5366 13.4309 45.703 13.3525 45.8792 13.2643L46.0326 13.7739H46.0358ZM48.0004 14.1952C47.2857 14.401 46.5188 14.6035 45.9347 14.7733L45.7911 14.2279C46.3361 14.1103 47.1552 13.911 47.9416 13.7053L47.9971 14.1952H48.0004ZM49.7168 11.7618C49.5113 12.5751 49.2273 13.2937 48.8553 13.9012C48.9793 14.5218 49.1523 14.8942 49.3383 14.8942C49.4427 14.8942 49.4982 14.659 49.5178 14.058C49.6287 14.1887 49.8017 14.3128 49.9257 14.3683C49.8376 15.1947 49.6842 15.4429 49.2632 15.4429C48.9043 15.4429 48.6432 15.0771 48.4442 14.4826C48.1668 14.8354 47.8502 15.1392 47.488 15.3939C47.3999 15.3025 47.1911 15.1098 47.0736 15.0281C47.5566 14.7243 47.9547 14.3193 48.2875 13.8359C48.1439 13.0978 48.0656 12.1603 48.0265 11.1543H45.9804V10.6317H48.0069C48.0004 10.341 47.9938 10.047 47.9938 9.75635H48.5453C48.5388 10.0536 48.5453 10.3443 48.5453 10.6317H49.3807C49.2241 10.4521 48.9598 10.2104 48.7313 10.0438L49.0609 9.75962C49.3155 9.93273 49.632 10.194 49.7854 10.3802L49.5113 10.635H49.8147V11.1576H48.5616C48.5878 11.8696 48.6432 12.5294 48.7117 13.0879C48.9173 12.6535 49.0707 12.1832 49.1947 11.6671L49.7103 11.7651L49.7168 11.7618ZM47.723 11.6639V13.4864H46.1729V11.6639H47.723ZM47.2694 12.1146H46.6135V13.0324H47.2694V12.1146Z" fill="white"/>
<path id="Vector_15" d="M56.618 14.6917V15.2502H51.1128V14.6917H53.5668V13.2643H51.8013V12.7123H53.5668V11.4711H52.1897C51.9971 11.8435 51.7915 12.1734 51.5762 12.4314C51.4587 12.3334 51.2042 12.1636 51.0508 12.0852C51.5533 11.556 51.9449 10.7068 52.1733 9.83799L52.7673 9.97519C52.6726 10.292 52.5617 10.6088 52.4442 10.9061H53.5668V9.75308H54.1607V10.9061H56.3177V11.4711H54.1607V12.7123H56.0893V13.2643H54.1607V14.6917H56.6147H56.618Z" fill="white"/>
<path id="Vector_16" d="M57.8965 15.015C58.1086 14.7309 58.2881 14.2703 58.3794 13.911L58.8755 14.0972C58.758 14.4826 58.6013 14.9595 58.399 15.2698L57.8965 15.015ZM60.406 11.2588C60.357 11.1772 60.295 11.0727 60.2199 10.9551C58.4415 11.1151 58.2098 11.1478 58.0694 11.2033C58.0401 11.1053 57.965 10.8669 57.903 10.733C58.0009 10.7199 58.1086 10.6513 58.2326 10.5598C58.3566 10.4684 58.7547 10.1058 59.0191 9.73022L59.5412 9.89681C59.3127 10.1744 59.0321 10.4423 58.7678 10.6611L59.9393 10.5729C59.8414 10.4553 59.7402 10.3312 59.6423 10.2267L60.0405 10.0144C60.3179 10.3247 60.667 10.7591 60.8269 11.0335L60.4125 11.2621L60.406 11.2588ZM60.4321 13.2839C60.4321 13.5126 60.3896 13.6138 60.2265 13.6889C60.0698 13.7575 59.8284 13.7575 59.489 13.7575C59.4629 13.6334 59.3911 13.4766 59.3389 13.3656C59.5608 13.3721 59.7794 13.3721 59.8414 13.3656C59.9099 13.3656 59.936 13.346 59.936 13.2839V12.8626C59.551 12.9997 59.1789 13.1467 58.8461 13.2643L58.7025 12.9279C58.647 13.2513 58.5459 13.5779 58.3305 13.8327C58.2424 13.7379 58.0335 13.5713 57.9226 13.5224C58.2326 13.1631 58.262 12.6862 58.262 12.2877V11.3307H60.4321V13.2774V13.2839ZM58.7449 12.304C58.7449 12.4706 58.7384 12.6568 58.7156 12.843C59.0386 12.7678 59.4727 12.6437 59.936 12.5196V11.7488H58.7449V12.3008V12.304ZM58.9864 11.8729C59.2834 11.9774 59.6815 12.1342 59.9034 12.2452L59.6815 12.5555C59.4759 12.4445 59.0745 12.2648 58.771 12.1407L58.9864 11.8729ZM61.3719 14.8779C61.6558 14.8779 61.708 14.7962 61.7374 14.2442C61.8614 14.3324 62.0833 14.4042 62.2269 14.4369C62.1649 15.1685 62.005 15.3417 61.4208 15.3417H60.1743C59.4368 15.3417 59.2442 15.2045 59.2442 14.7015V13.9927H59.8022V14.6949C59.8022 14.8484 59.8642 14.8746 60.2167 14.8746H61.3686L61.3719 14.8779ZM60.8824 14.6231C60.7453 14.4304 60.4843 14.1005 60.2754 13.8653L60.6735 13.6106C60.8857 13.8392 61.1565 14.1495 61.3001 14.3357L60.8857 14.6198L60.8824 14.6231ZM61.7211 11.6083C61.1565 11.6083 61.0129 11.4156 61.0129 10.8995V9.78902H61.5448V10.2104H63.0264V10.6513H61.5448V10.9061C61.5448 11.0857 61.5742 11.1478 61.7439 11.1478H62.6935C62.8436 11.1478 63.0851 11.1347 63.2026 11.1053C63.2157 11.2556 63.232 11.445 63.2515 11.5691C63.1536 11.6018 62.9154 11.6051 62.7196 11.6051H61.7211V11.6083ZM61.7831 13.7053C61.163 13.7053 61.0129 13.5681 61.0129 13.0651V11.7945H61.5448V12.242H63.0329V12.6895H61.5448V13.0618C61.5448 13.2218 61.5873 13.2415 61.8353 13.2415H62.6544C62.8339 13.2415 62.8763 13.1925 62.9024 12.8691C63.0133 12.9442 63.2254 13.0226 63.3723 13.0553C63.3103 13.5779 63.1602 13.7053 62.7098 13.7053H61.7798H61.7831ZM62.8534 13.8914C63.0264 14.2377 63.2515 14.7178 63.3364 14.9954L62.811 15.1751C62.7229 14.8844 62.5271 14.3977 62.3574 14.0319L62.8534 13.8882V13.8914Z" fill="white"/>
</g>
</g>
</g>
</svg>
