<svg width="70" height="70" viewBox="0 0 70 70" fill="none" xmlns="http://www.w3.org/2000/svg">
<g id="Group 253">
<path id="Vector" d="M64.4566 6.10352e-05H5.54335C2.48185 6.10352e-05 0 2.48189 0 5.54339V64.4567C0 67.5182 2.48185 70.0001 5.54335 70.0001H64.4566C67.5181 70.0001 70 67.5182 70 64.4567V5.54339C70 2.48189 67.5181 6.10352e-05 64.4566 6.10352e-05Z" fill="#1CA3CA"/>
<g id="Group">
<g id="SDG6">
<path id="Vector_2" d="M47.8135 26.3228C47.7547 26.264 47.6732 26.2314 47.5883 26.2314H22.412C22.3272 26.2314 22.2488 26.2673 22.1868 26.3228C22.1411 26.398 22.1216 26.4829 22.1314 26.5711L26.3541 52.1655C26.3769 52.3093 26.5009 52.4138 26.6478 52.4138H31.8397L32.1888 56.5848H30.0024L35.0834 61.6704L40.1872 56.575H38.0008L38.3499 52.4138H43.6332C43.7801 52.4138 43.904 52.3093 43.9269 52.1655L47.882 26.5711C47.895 26.4829 47.8689 26.3914 47.8135 26.3228ZM38.0921 46.8219C36.3299 48.2199 33.8401 48.2199 32.0779 46.8219C30.6877 45.339 30.4625 43.1082 31.5264 41.3771C31.931 40.6226 34.8256 36.2686 35.0736 35.8963C35.3085 36.2686 38.2162 40.6193 38.6208 41.3771C39.6912 43.1049 39.4725 45.3358 38.0921 46.8219ZM46.0676 31.7122C45.2877 31.4411 44.4327 31.4933 43.6919 31.8592C40.5722 33.1232 38.4413 33.5838 35.1649 32.5483C33.0928 31.9049 31.1544 30.5527 28.8668 31.4215C27.3983 32.0584 25.8254 32.4112 24.2264 32.47L23.2246 27.3844H46.7921L46.0709 31.7154L46.0676 31.7122Z" fill="white"/>
<path id="Vector_3" d="M9.86182 20.8617C12.3615 20.8617 13.3307 19.4964 13.3307 17.3341V15.2698C13.3307 13.0161 12.4169 11.8206 10.7298 11.8206C9.914 11.7619 9.14715 12.2093 8.79145 12.9475V9.93601C8.79145 9.09005 9.06229 8.49232 9.91727 8.49232C10.7723 8.49232 11.0431 8.9888 11.0431 9.85762V10.782H13.1936V10.0373C13.1936 7.97299 12.5051 6.5293 9.90424 6.5293C7.3034 6.5293 6.52344 8.11997 6.52344 10.3051V17.0826C6.52344 19.2481 7.46983 20.8159 9.90424 20.8159M8.78165 14.9334C8.78165 14.156 9.15365 13.6596 9.90747 13.6596C10.6613 13.6596 11.0333 14.156 11.0333 15.0575V17.5366C11.0333 18.4283 10.707 18.9444 9.90747 18.9444C9.10796 18.9444 8.78165 18.4022 8.78165 17.5366V14.9334Z" fill="white"/>
</g>
<g id="Group_2">
<path id="Vector_4" d="M18.614 13.0912C18.3921 12.8724 17.9189 12.5882 17.5469 12.4216L17.821 11.9938C18.1865 12.1375 18.6695 12.3988 18.9044 12.6078L18.614 13.0912ZM17.697 15.4756C17.9939 15.0151 18.4345 14.2409 18.7641 13.5518L19.1492 13.9372C18.8522 14.5708 18.4737 15.2829 18.1441 15.861L17.697 15.4756ZM18.9175 11.4483C18.6988 11.2262 18.2354 10.9224 17.8634 10.7362L18.1538 10.3084C18.5193 10.4749 18.9958 10.7558 19.2209 10.9779L18.9175 11.4483ZM23.287 13.5714H22.8236V14.5088H21.3845V15.2796C21.3845 15.5834 21.3291 15.7336 21.1169 15.812C20.9179 15.9002 20.6013 15.9002 20.138 15.9002C20.1118 15.7565 20.0466 15.5279 19.9715 15.3776C20.3011 15.3907 20.6274 15.3907 20.7221 15.3907C20.82 15.3841 20.8526 15.3613 20.8526 15.2731V14.5088H19.482V14.0482H20.8526V13.5714H19.1524V13.0749H20.8526V12.6143H19.5212V12.1538H19.8442C19.7953 11.935 19.6517 11.6312 19.5049 11.4026L19.9062 11.2295C20.0661 11.4516 20.2228 11.7619 20.2782 11.9742L19.8867 12.1538H22.8236V13.0716H23.287V13.5681V13.5714ZM22.853 10.6709C21.9491 10.9322 20.5948 11.0857 19.4494 11.1609C19.4298 11.0302 19.3678 10.831 19.3123 10.7134C20.4284 10.6317 21.7304 10.4717 22.4549 10.2528L22.853 10.6677V10.6709ZM21.006 12.0819C20.9733 11.8598 20.8396 11.5038 20.7025 11.2393L21.13 11.1086C21.2735 11.3634 21.4073 11.7031 21.4596 11.935L21.006 12.0852V12.0819ZM21.3845 13.0749H22.3276V12.6143H21.3845V13.0749ZM22.3276 13.5714H21.3845V14.0482H22.3276V13.5714ZM21.8544 11.9186C22.0209 11.6704 22.233 11.2654 22.3374 10.9747L22.8628 11.1282C22.6898 11.4679 22.4842 11.8239 22.3243 12.0591L21.8544 11.9154V11.9186Z" fill="white"/>
<path id="Vector_5" d="M26.7232 11.9055C26.4327 13.5387 25.7377 14.7276 24.8697 15.3612C24.7718 15.2241 24.5466 15.002 24.4062 14.9072C25.1568 14.4108 25.7377 13.5191 26.0248 12.3628H24.6118V11.7782H26.237L26.3414 11.752L26.7264 11.9023L26.7232 11.9055ZM29.7058 11.7324C29.2783 12.1962 28.7399 12.7319 28.3059 13.0977C28.8019 13.8359 29.4578 14.45 30.2084 14.7995C30.0713 14.917 29.8723 15.1522 29.7809 15.3286C28.8574 14.8386 28.1264 13.9633 27.5978 12.9148V15.1783C27.5978 15.5311 27.5227 15.7173 27.3139 15.8185C27.1017 15.923 26.7754 15.9492 26.2924 15.9492C26.2631 15.7761 26.1684 15.4788 26.0738 15.3025C26.4197 15.3221 26.7428 15.3221 26.8505 15.3155C26.9484 15.3155 26.9941 15.2829 26.9941 15.1783V10.2463H27.601V11.7292C27.7185 12.046 27.8621 12.3563 28.035 12.6535C28.4332 12.2746 28.89 11.7651 29.1804 11.3568L29.7058 11.7357V11.7324Z" fill="white"/>
<path id="Vector_6" d="M36.6489 12.4086C36.3944 13.395 35.9473 14.1462 35.3534 14.7178C35.807 15.0216 36.3389 15.2567 36.9524 15.3939C36.8153 15.5246 36.6424 15.7794 36.5543 15.9459C35.8983 15.7598 35.3403 15.4821 34.8672 15.113C34.3157 15.518 33.6695 15.7957 32.9712 16.0015C32.9026 15.8349 32.7493 15.5866 32.635 15.4625C33.2844 15.3123 33.8947 15.0575 34.4136 14.6982C33.9306 14.1821 33.5586 13.555 33.291 12.8103H33.118C32.9875 13.8163 32.6155 14.9269 31.6234 15.8316C31.5353 15.6814 31.333 15.4462 31.209 15.3417C32.4784 14.1887 32.5926 12.647 32.5926 11.5953V11.0727H31.5516V10.5141H35.3958C35.2783 11.0792 35.1347 11.7553 35.0042 12.2648H36.1203L36.2312 12.2355L36.6456 12.4086H36.6489ZM33.1898 11.6018C33.1898 11.8141 33.1833 12.0362 33.1702 12.2648H34.3679C34.4723 11.9121 34.5734 11.4842 34.6648 11.0727H33.1898V11.6018ZM33.8522 12.8136C34.0872 13.3982 34.4298 13.9045 34.8704 14.3291C35.3044 13.9208 35.6503 13.4244 35.8755 12.8136H33.8555H33.8522Z" fill="white"/>
<path id="Vector_7" d="M39.594 11.7455C39.4831 11.9676 39.3525 12.1995 39.2089 12.4282V15.9329H38.6868V13.1827C38.5334 13.3754 38.3833 13.5616 38.2267 13.7118C38.1712 13.5942 38.0048 13.3199 37.9102 13.1958C38.3572 12.7679 38.8206 12.1277 39.1143 11.4908L39.5842 11.6639V11.5594H40.1977C40.2271 11.4222 40.2597 11.2687 40.2858 11.1119H39.7539V10.6971H40.3609C40.387 10.5403 40.4033 10.3802 40.4229 10.2365L40.9189 10.2724C40.8993 10.4096 40.8765 10.5468 40.8504 10.6938H41.8163V11.5561H42.1818V12.0101H39.5842L39.5908 11.7423L39.594 11.7455ZM39.532 10.4292C39.2089 10.9453 38.7194 11.5104 38.2724 11.8762C38.2038 11.7586 38.0668 11.5398 37.9754 11.4352C38.3605 11.1249 38.788 10.635 39.0099 10.23L39.532 10.4292ZM41.3497 15.2208V15.9394H40.8341V15.2208H39.6136C39.6691 14.9726 39.7311 14.6002 39.7702 14.2834H39.5287V13.8621H40.8373V13.5322H39.7898V12.2779H41.9534V13.5322H41.3529V13.8621H42.1231V14.2834H41.3529V14.793H42.2504V15.2208H41.3529H41.3497ZM40.8341 14.793V14.2834H40.2271C40.2075 14.4435 40.1847 14.6231 40.152 14.793H40.8341ZM40.2206 13.1402H41.49V12.6633H40.2206V13.1402ZM40.7916 11.1119C40.759 11.2654 40.7361 11.4222 40.7035 11.5594H41.3431V11.1119H40.7916ZM43.7482 12.7744H43.2587V15.2568C43.2587 15.5409 43.2163 15.7042 43.0368 15.7892C42.8573 15.8806 42.5767 15.8937 42.1818 15.8937C42.1622 15.7402 42.1068 15.5017 42.0317 15.3417C42.3058 15.3548 42.5473 15.3548 42.6256 15.3482C42.7007 15.3482 42.7235 15.3221 42.7235 15.2568V12.7744H42.1035V12.2518H43.7449V12.7744H43.7482ZM43.6503 11.1249H42.2112V10.6023H43.6503V11.1249Z" fill="white"/>
<path id="Vector_8" d="M50.4656 15.1816V15.7402H44.9604V15.1816H47.4144V13.7543H45.649V13.2023H47.4144V11.9611H46.0373C45.8448 12.3335 45.6392 12.6633 45.4238 12.9214C45.3063 12.8234 45.0518 12.6535 44.8984 12.5752C45.401 12.046 45.7926 11.1968 46.021 10.328L46.6149 10.4651C46.5203 10.782 46.4093 11.0988 46.2919 11.396H47.4144V10.243H48.0083V11.396H50.1654V11.9611H48.0083V13.2023H49.9369V13.7543H48.0083V15.1816H50.4623H50.4656Z" fill="white"/>
</g>
</g>
</g>
</svg>
